M48
;DRILL file {KiCad 4.0.6} date 07/05/17 08:39:37
;FORMAT={-:-/ absolute / metric / decimal}
FMAT,2
METRIC,TZ
T1C0.600
T2C0.762
T3C1.000
T4C1.200
T5C4.000
%
G90
G05
M71
T1
X68.83Y-57.33
X68.96Y-54.54
X69.Y-112.11
X69.07Y-130.76
X69.79Y-81.56
X70.04Y-118.48
X70.19Y-62.73
X70.21Y-100.08
X70.5Y-59.1
X72.48Y-75.53
X72.59Y-77.28
X72.64Y-78.99
X72.84Y-95.55
X72.92Y-111.96
X74.41Y-120.79
X75.07Y-129.05
X75.13Y-127.15
X75.27Y-57.32
X75.55Y-53.6
X75.67Y-87.39
X75.88Y-65.38
X75.98Y-59.09
X76.28Y-92.67
X76.72Y-50.24
X77.09Y-78.52
X77.42Y-127.21
X77.48Y-129.05
X77.59Y-65.41
X77.62Y-62.1
X78.17Y-92.64
X78.21Y-94.41
X78.23Y-56.92
X78.55Y-60.67
X79.Y-84.31
X79.16Y-104.49
X79.53Y-89.86
X80.85Y-91.05
X81.04Y-84.31
X81.58Y-104.53
X81.98Y-102.2
X82.03Y-50.24
X82.14Y-121.79
X82.2Y-43.7
X82.4Y-125.45
X82.72Y-58.99
X83.35Y-85.59
X83.71Y-115.35
X84.55Y-60.6
X85.1Y-75.79
X85.53Y-62.16
X85.65Y-59.25
X86.56Y-60.72
X86.59Y-116.93
X86.61Y-97.04
X86.98Y-77.99
X87.99Y-75.91
X88.06Y-62.56
X88.54Y-43.53
X88.7Y-45.48
X88.84Y-111.09
X90.65Y-112.27
X90.85Y-84.4
X90.91Y-67.97
X90.97Y-73.54
X91.Y-86.3
X91.08Y-92.84
X91.23Y-77.88
X91.25Y-76.16
X91.39Y-37.3
X91.4Y-61.67
X91.62Y-69.44
X91.98Y-49.76
X92.23Y-79.43
X92.77Y-84.62
X92.8Y-60.57
X93.35Y-92.98
X93.53Y-69.35
X93.57Y-78.85
X93.67Y-76.86
X93.71Y-86.82
X93.74Y-55.2
X94.06Y-59.55
X94.24Y-49.65
X94.58Y-75.49
X95.16Y-112.11
X95.22Y-57.99
X96.09Y-49.44
X96.16Y-86.84
X96.28Y-106.12
X96.6Y-69.33
X96.7Y-74.49
X96.89Y-125.04
X96.97Y-76.54
X97.87Y-107.6
X98.06Y-69.19
X98.57Y-77.5
X98.89Y-73.79
X98.98Y-43.59
X99.05Y-83.29
X99.14Y-87.17
X99.24Y-60.27
X99.75Y-68.17
X99.82Y-45.87
X99.85Y-76.57
X99.87Y-72.44
X100.12Y-99.41
X100.2Y-51.27
X100.81Y-48.03
X100.84Y-112.12
X100.92Y-87.34
X101.45Y-107.7
X101.47Y-105.8
X101.99Y-88.42
X102.09Y-94.75
X102.13Y-59.64
X102.15Y-97.9
X102.62Y-48.38
X102.69Y-100.36
X102.71Y-68.65
X102.94Y-89.55
X103.05Y-96.23
X103.78Y-66.37
X104.79Y-59.25
X104.95Y-91.05
X105.03Y-108.18
X105.32Y-65.56
X105.38Y-80.79
X105.42Y-47.05
X105.42Y-78.78
X105.61Y-111.54
X105.88Y-70.8
X105.98Y-89.96
X106.13Y-95.71
X106.18Y-124.21
X106.59Y-109.19
X106.64Y-52.46
X106.73Y-77.08
X106.76Y-83.29
X107.29Y-49.09
X107.62Y-66.92
X107.88Y-43.56
X107.9Y-95.87
X109.12Y-77.
X109.23Y-42.95
X109.28Y-89.73
X109.4Y-61.29
X109.47Y-95.66
X109.62Y-66.24
X109.7Y-40.98
X109.77Y-64.13
X109.86Y-103.83
X110.01Y-84.27
X110.14Y-80.01
X110.51Y-90.53
X111.35Y-111.68
X111.41Y-100.52
X111.91Y-96.7
X112.23Y-37.96
X112.23Y-40.37
X112.54Y-120.64
X112.85Y-102.64
X112.89Y-86.15
X113.21Y-48.06
X113.37Y-99.53
X113.55Y-53.73
X113.58Y-96.83
X114.26Y-55.27
X114.35Y-50.17
X114.46Y-90.93
X114.81Y-61.06
X114.86Y-109.72
X114.95Y-59.21
X114.97Y-63.62
X115.03Y-66.44
X115.52Y-42.1
X115.82Y-104.42
X116.21Y-86.69
X116.47Y-115.52
X116.74Y-48.19
X116.94Y-91.15
X117.09Y-100.59
X117.19Y-61.53
X117.55Y-42.61
X117.78Y-92.76
X117.87Y-94.18
X117.99Y-95.62
X118.14Y-87.58
X118.2Y-97.07
X118.53Y-73.64
X118.69Y-65.99
X118.97Y-116.01
X119.08Y-106.5
X119.19Y-98.47
X119.21Y-90.68
X119.22Y-88.68
X119.26Y-44.72
X120.78Y-43.22
X120.92Y-67.48
X121.15Y-96.28
X121.22Y-104.2
X121.4Y-94.21
X121.4Y-97.93
X121.48Y-99.9
X121.49Y-76.48
X121.74Y-109.51
X121.87Y-90.66
X121.9Y-101.99
X122.06Y-58.44
X122.29Y-78.99
X122.61Y-41.89
X122.63Y-96.06
X122.67Y-82.28
X122.73Y-47.76
X123.08Y-91.85
X123.38Y-104.55
X123.6Y-84.96
X124.01Y-75.29
X124.5Y-44.1
X125.2Y-83.37
X125.68Y-80.12
X125.8Y-76.75
X126.02Y-81.81
X126.41Y-74.08
X126.43Y-68.44
X126.6Y-52.3
X126.68Y-45.11
X126.92Y-110.78
X127.32Y-114.36
X128.16Y-59.09
X128.16Y-77.62
X128.24Y-131.53
X128.5Y-57.46
X128.5Y-83.85
X128.71Y-50.84
X130.45Y-43.13
X131.43Y-112.29
X131.63Y-40.57
X132.16Y-86.45
X132.45Y-45.3
X132.99Y-66.61
X133.3Y-42.6
X133.56Y-51.94
X134.13Y-46.84
X134.34Y-83.48
X134.4Y-44.07
X134.42Y-89.96
X134.52Y-87.4
X136.63Y-109.48
X138.44Y-46.24
X138.89Y-111.54
X138.95Y-109.41
X140.13Y-48.22
X140.96Y-109.41
X141.12Y-111.4
X141.47Y-74.98
X141.47Y-104.2
X141.65Y-52.1
X143.3Y-109.44
X143.33Y-111.4
X143.79Y-81.42
X146.52Y-40.08
X147.1Y-57.33
X147.28Y-47.81
X147.41Y-42.86
X148.21Y-37.82
X148.61Y-40.07
X149.65Y-51.49
X150.39Y-45.72
X150.85Y-40.26
X151.18Y-42.32
X154.6Y-46.33
X156.82Y-51.23
X161.51Y-47.88
X163.2Y-41.79
X163.78Y-70.38
X163.83Y-45.57
X166.38Y-70.35
X166.73Y-43.97
X168.17Y-45.22
X168.44Y-40.2
X168.84Y-70.3
X170.04Y-46.9
X170.15Y-41.49
X171.87Y-42.9
X173.28Y-44.23
T2
X138.94Y-99.11
X138.94Y-124.51
X139.01Y-65.61
X139.01Y-91.01
X141.48Y-99.11
X141.48Y-124.51
X141.55Y-65.61
X141.55Y-91.01
X144.02Y-99.11
X144.02Y-124.51
X144.09Y-65.61
X144.09Y-91.01
X146.56Y-99.11
X146.56Y-124.51
X146.63Y-65.61
X146.63Y-91.01
X149.1Y-99.11
X149.1Y-124.51
X149.17Y-65.61
X149.17Y-91.01
X151.64Y-99.11
X151.64Y-124.51
X151.71Y-65.61
X151.71Y-91.01
X154.18Y-99.11
X154.18Y-124.51
X154.25Y-65.61
X154.25Y-91.01
X156.72Y-99.11
X156.72Y-124.51
X156.79Y-65.61
X156.79Y-91.01
X159.26Y-99.11
X159.26Y-124.51
X159.33Y-65.61
X159.33Y-91.01
X161.8Y-99.11
X161.8Y-124.51
X161.87Y-65.61
X161.87Y-91.01
X164.34Y-99.11
X164.34Y-124.51
X164.41Y-65.61
X164.41Y-91.01
X166.88Y-99.11
X166.88Y-124.51
X166.95Y-65.61
X166.95Y-91.01
X169.42Y-99.11
X169.42Y-124.51
X169.49Y-65.61
X169.49Y-91.01
X171.96Y-99.11
X171.96Y-124.51
X172.03Y-65.61
X172.03Y-91.01
X174.5Y-99.11
X174.5Y-124.51
X174.57Y-65.61
X174.57Y-91.01
T3
X71.29Y-47.47
X71.29Y-50.01
X71.29Y-52.55
X71.29Y-55.09
X90.64Y-116.68
X90.77Y-121.97
X91.14Y-97.45
X91.14Y-103.15
X92.82Y-63.48
X93.18Y-116.68
X93.31Y-121.97
X93.68Y-97.45
X93.68Y-103.15
X95.36Y-63.48
X95.72Y-116.68
X95.85Y-121.97
X96.22Y-97.45
X96.22Y-103.15
X97.9Y-63.48
X102.32Y-129.62
X104.86Y-129.62
X107.4Y-129.62
X109.94Y-129.62
X112.48Y-129.62
X115.02Y-129.62
X115.062Y-68.58
X115.062Y-71.12
X117.56Y-129.62
X121.43Y-62.47
X123.97Y-62.47
X126.51Y-62.47
X127.11Y-129.65
X129.65Y-129.65
X131.84Y-89.89
X131.84Y-92.43
X131.84Y-94.97
X131.84Y-97.51
X131.84Y-100.05
X131.84Y-102.59
X132.19Y-129.65
X134.73Y-129.65
X137.27Y-129.65
X141.49Y-95.05
X141.51Y-61.17
X144.03Y-95.05
X144.05Y-61.17
X146.57Y-95.05
X146.59Y-61.17
X159.31Y-128.32
X159.35Y-94.85
X161.85Y-128.32
X161.89Y-94.85
X164.39Y-128.32
X164.43Y-94.85
T4
X174.88Y-52.58
X174.88Y-57.66
T5
X71.63Y-40.51
X93.98Y-130.05
X176.24Y-38.96
X177.17Y-130.43
T0
M30
