G04 #@! TF.FileFunction,Soldermask,Top*
%FSLAX46Y46*%
G04 Gerber Fmt 4.6, Leading zero omitted, Abs format (unit mm)*
G04 Created by KiCad (PCBNEW 4.0.6) date 07/05/17 08:39:23*
%MOMM*%
%LPD*%
G01*
G04 APERTURE LIST*
%ADD10C,0.100000*%
%ADD11C,0.150000*%
%ADD12R,4.000000X2.200000*%
%ADD13O,4.000000X2.200000*%
%ADD14R,3.800000X1.000000*%
%ADD15R,3.400000X9.400000*%
%ADD16C,5.400000*%
%ADD17R,1.150000X1.600000*%
%ADD18R,1.600000X1.150000*%
%ADD19R,1.200000X1.200000*%
%ADD20R,2.100000X2.100000*%
%ADD21O,2.100000X2.100000*%
%ADD22R,1.000000X3.800000*%
%ADD23R,9.400000X3.400000*%
%ADD24R,1.600000X1.300000*%
%ADD25C,1.924000*%
%ADD26R,2.800000X3.900000*%
%ADD27R,2.000000X1.400000*%
%ADD28R,2.900000X3.400000*%
%ADD29R,1.300000X1.600000*%
G04 APERTURE END LIST*
D10*
D11*
X66000000Y-35000000D02*
X66000000Y-135000000D01*
X66000000Y-135000000D02*
X181000000Y-135000000D01*
X181000000Y-35000000D02*
X181000000Y-135000000D01*
X66000000Y-35000000D02*
X181000000Y-35000000D01*
D10*
G36*
X105810000Y-84240000D02*
X105810000Y-82340000D01*
X107710000Y-82340000D01*
X107710000Y-84240000D01*
X105810000Y-84240000D01*
X105810000Y-84240000D01*
G37*
D12*
X174880000Y-52580000D03*
D13*
X174880000Y-57660000D03*
D14*
X70000000Y-73565000D03*
X70000000Y-72295000D03*
X70000000Y-71025000D03*
X70000000Y-69755000D03*
X70000000Y-68485000D03*
X70000000Y-67215000D03*
X70000000Y-65945000D03*
X70000000Y-64675000D03*
D15*
X86000000Y-69120000D03*
D14*
X70000000Y-110615000D03*
X70000000Y-109345000D03*
X70000000Y-108075000D03*
X70000000Y-106805000D03*
X70000000Y-105535000D03*
X70000000Y-104265000D03*
X70000000Y-102995000D03*
X70000000Y-101725000D03*
D15*
X86000000Y-106170000D03*
D16*
X71630000Y-40510000D03*
X93980000Y-130050000D03*
X177170000Y-130430000D03*
D17*
X123698000Y-77282000D03*
X123698000Y-79182000D03*
X123698000Y-83500000D03*
X123698000Y-81600000D03*
D18*
X127340000Y-66710000D03*
X125440000Y-66710000D03*
X125450000Y-75240000D03*
X127350000Y-75240000D03*
X106746000Y-77978000D03*
X108646000Y-77978000D03*
X106740000Y-79720000D03*
X108640000Y-79720000D03*
X106750000Y-81430000D03*
X108650000Y-81430000D03*
X106746000Y-85598000D03*
X108646000Y-85598000D03*
D19*
X90300000Y-82840000D03*
X91900000Y-82840000D03*
X138950000Y-101600000D03*
X138950000Y-103200000D03*
X141490000Y-120890000D03*
X141490000Y-119290000D03*
X139010000Y-68270000D03*
X139010000Y-69870000D03*
X141540000Y-87900000D03*
X141540000Y-86300000D03*
D20*
X71290000Y-47470000D03*
D21*
X71290000Y-50010000D03*
X71290000Y-52550000D03*
X71290000Y-55090000D03*
D20*
X115062000Y-68580000D03*
D21*
X115062000Y-71120000D03*
D20*
X131840000Y-102590000D03*
D21*
X131840000Y-100050000D03*
X131840000Y-97510000D03*
X131840000Y-94970000D03*
X131840000Y-92430000D03*
X131840000Y-89890000D03*
D20*
X102320000Y-129620000D03*
D21*
X104860000Y-129620000D03*
X107400000Y-129620000D03*
X109940000Y-129620000D03*
X112480000Y-129620000D03*
X115020000Y-129620000D03*
X117560000Y-129620000D03*
D20*
X137270000Y-129650000D03*
D21*
X134730000Y-129650000D03*
X132190000Y-129650000D03*
X129650000Y-129650000D03*
X127110000Y-129650000D03*
D20*
X126510000Y-62470000D03*
D21*
X123970000Y-62470000D03*
X121430000Y-62470000D03*
D20*
X97900000Y-63480000D03*
D21*
X95360000Y-63480000D03*
X92820000Y-63480000D03*
D20*
X146570000Y-95050000D03*
D21*
X144030000Y-95050000D03*
X141490000Y-95050000D03*
D20*
X159310000Y-128320000D03*
D21*
X161850000Y-128320000D03*
X164390000Y-128320000D03*
D14*
X177000000Y-107565000D03*
X177000000Y-108835000D03*
X177000000Y-110105000D03*
X177000000Y-111375000D03*
X177000000Y-112645000D03*
X177000000Y-113915000D03*
X177000000Y-115185000D03*
X177000000Y-116455000D03*
D15*
X161000000Y-112010000D03*
D20*
X146590000Y-61170000D03*
D21*
X144050000Y-61170000D03*
X141510000Y-61170000D03*
D20*
X159350000Y-94850000D03*
D21*
X161890000Y-94850000D03*
X164430000Y-94850000D03*
D14*
X177000000Y-73255000D03*
X177000000Y-74525000D03*
X177000000Y-75795000D03*
X177000000Y-77065000D03*
X177000000Y-78335000D03*
X177000000Y-79605000D03*
X177000000Y-80875000D03*
X177000000Y-82145000D03*
D15*
X161000000Y-77700000D03*
D22*
X117515000Y-39000000D03*
X118785000Y-39000000D03*
X120055000Y-39000000D03*
X121325000Y-39000000D03*
X122595000Y-39000000D03*
X123865000Y-39000000D03*
X125135000Y-39000000D03*
X126405000Y-39000000D03*
D23*
X121960000Y-55000000D03*
D22*
X80515000Y-39000000D03*
X81785000Y-39000000D03*
X83055000Y-39000000D03*
X84325000Y-39000000D03*
X85595000Y-39000000D03*
X86865000Y-39000000D03*
X88135000Y-39000000D03*
X89405000Y-39000000D03*
D23*
X84960000Y-55000000D03*
D22*
X136015000Y-39000000D03*
X137285000Y-39000000D03*
X138555000Y-39000000D03*
X139825000Y-39000000D03*
X141095000Y-39000000D03*
X142365000Y-39000000D03*
X143635000Y-39000000D03*
X144905000Y-39000000D03*
D23*
X140460000Y-55000000D03*
D14*
X70000000Y-129115000D03*
X70000000Y-127845000D03*
X70000000Y-126575000D03*
X70000000Y-125305000D03*
X70000000Y-124035000D03*
X70000000Y-122765000D03*
X70000000Y-121495000D03*
X70000000Y-120225000D03*
D15*
X86000000Y-124670000D03*
D22*
X99015000Y-39000000D03*
X100285000Y-39000000D03*
X101555000Y-39000000D03*
X102825000Y-39000000D03*
X104095000Y-39000000D03*
X105365000Y-39000000D03*
X106635000Y-39000000D03*
X107905000Y-39000000D03*
D23*
X103460000Y-55000000D03*
D14*
X70000000Y-92115000D03*
X70000000Y-90845000D03*
X70000000Y-89575000D03*
X70000000Y-88305000D03*
X70000000Y-87035000D03*
X70000000Y-85765000D03*
X70000000Y-84495000D03*
X70000000Y-83225000D03*
D15*
X86000000Y-87670000D03*
D20*
X90640000Y-116680000D03*
D21*
X93180000Y-116680000D03*
X95720000Y-116680000D03*
D20*
X90770000Y-121970000D03*
D21*
X93310000Y-121970000D03*
X95850000Y-121970000D03*
D20*
X91140000Y-97450000D03*
D21*
X93680000Y-97450000D03*
X96220000Y-97450000D03*
D20*
X91140000Y-103150000D03*
D21*
X93680000Y-103150000D03*
X96220000Y-103150000D03*
D24*
X96080000Y-82830000D03*
X93880000Y-82830000D03*
D25*
X138940000Y-99110000D03*
X141480000Y-99110000D03*
X144020000Y-99110000D03*
X146560000Y-99110000D03*
X149100000Y-99110000D03*
X151640000Y-99110000D03*
X154180000Y-99110000D03*
X156720000Y-99110000D03*
X159260000Y-99110000D03*
X161800000Y-99110000D03*
X164340000Y-99110000D03*
X166880000Y-99110000D03*
X169420000Y-99110000D03*
X171960000Y-99110000D03*
X174500000Y-99110000D03*
X174500000Y-124510000D03*
X171960000Y-124510000D03*
X169420000Y-124510000D03*
X166880000Y-124510000D03*
X164340000Y-124510000D03*
X161800000Y-124510000D03*
X159260000Y-124510000D03*
X156720000Y-124510000D03*
X154180000Y-124510000D03*
X151640000Y-124510000D03*
X149100000Y-124510000D03*
X146560000Y-124510000D03*
X144020000Y-124510000D03*
X141480000Y-124510000D03*
X138940000Y-124510000D03*
X139010000Y-65610000D03*
X141550000Y-65610000D03*
X144090000Y-65610000D03*
X146630000Y-65610000D03*
X149170000Y-65610000D03*
X151710000Y-65610000D03*
X154250000Y-65610000D03*
X156790000Y-65610000D03*
X159330000Y-65610000D03*
X161870000Y-65610000D03*
X164410000Y-65610000D03*
X166950000Y-65610000D03*
X169490000Y-65610000D03*
X172030000Y-65610000D03*
X174570000Y-65610000D03*
X174570000Y-91010000D03*
X172030000Y-91010000D03*
X169490000Y-91010000D03*
X166950000Y-91010000D03*
X164410000Y-91010000D03*
X161870000Y-91010000D03*
X159330000Y-91010000D03*
X156790000Y-91010000D03*
X154250000Y-91010000D03*
X151710000Y-91010000D03*
X149170000Y-91010000D03*
X146630000Y-91010000D03*
X144090000Y-91010000D03*
X141550000Y-91010000D03*
X139010000Y-91010000D03*
D26*
X119380000Y-83372000D03*
X119380000Y-78172000D03*
D27*
X127353333Y-70260000D03*
X127353333Y-72800000D03*
D28*
X120803333Y-71530000D03*
D29*
X141460000Y-116860000D03*
X141460000Y-114660000D03*
X139000000Y-72610000D03*
X139000000Y-74810000D03*
X141550000Y-83740000D03*
X141550000Y-81540000D03*
X138930000Y-105320000D03*
X138930000Y-107520000D03*
D16*
X176240000Y-38960000D03*
D22*
X154515000Y-39000000D03*
X155785000Y-39000000D03*
X157055000Y-39000000D03*
X158325000Y-39000000D03*
X159595000Y-39000000D03*
X160865000Y-39000000D03*
X162135000Y-39000000D03*
X163405000Y-39000000D03*
D23*
X158960000Y-55000000D03*
M02*
