G04 #@! TF.FileFunction,Soldermask,Bot*
%FSLAX46Y46*%
G04 Gerber Fmt 4.6, Leading zero omitted, Abs format (unit mm)*
G04 Created by KiCad (PCBNEW 4.0.6) date 07/05/17 10:03:53*
%MOMM*%
%LPD*%
G01*
G04 APERTURE LIST*
%ADD10C,0.100000*%
%ADD11R,2.100000X2.100000*%
%ADD12O,2.100000X2.100000*%
%ADD13C,5.400000*%
G04 APERTURE END LIST*
D10*
D11*
X58020000Y-77610000D03*
D12*
X58020000Y-75070000D03*
X58020000Y-72530000D03*
D13*
X37010000Y-68010000D03*
D11*
X46740000Y-69990000D03*
D12*
X49280000Y-69990000D03*
X51820000Y-69990000D03*
D11*
X39778000Y-92128000D03*
D12*
X42318000Y-92128000D03*
D11*
X75950000Y-78460000D03*
D12*
X75950000Y-75920000D03*
X75950000Y-73380000D03*
D11*
X75846000Y-88826000D03*
D12*
X75846000Y-86286000D03*
X75846000Y-83746000D03*
D13*
X88690000Y-67730000D03*
D11*
X86514000Y-93398000D03*
D12*
X83974000Y-93398000D03*
D11*
X58400000Y-88580000D03*
D12*
X58400000Y-86040000D03*
X58400000Y-83500000D03*
D13*
X88690000Y-31990000D03*
D11*
X75846000Y-53086000D03*
D12*
X75846000Y-50546000D03*
X75846000Y-48006000D03*
D11*
X75950000Y-42720000D03*
D12*
X75950000Y-40180000D03*
X75950000Y-37640000D03*
D11*
X58020000Y-41870000D03*
D12*
X58020000Y-39330000D03*
X58020000Y-36790000D03*
D11*
X58400000Y-52840000D03*
D12*
X58400000Y-50300000D03*
X58400000Y-47760000D03*
D11*
X39778000Y-56388000D03*
D12*
X42318000Y-56388000D03*
D11*
X86514000Y-57658000D03*
D12*
X83974000Y-57658000D03*
D11*
X46740000Y-34250000D03*
D12*
X49280000Y-34250000D03*
X51820000Y-34250000D03*
D13*
X37010000Y-32270000D03*
M02*
