G04 #@! TF.FileFunction,Soldermask,Top*
%FSLAX46Y46*%
G04 Gerber Fmt 4.6, Leading zero omitted, Abs format (unit mm)*
G04 Created by KiCad (PCBNEW 4.0.6) date 07/05/17 10:03:53*
%MOMM*%
%LPD*%
G01*
G04 APERTURE LIST*
%ADD10C,0.100000*%
%ADD11R,1.150000X1.600000*%
%ADD12R,1.600000X1.150000*%
%ADD13R,2.100000X2.100000*%
%ADD14O,2.100000X2.100000*%
%ADD15C,5.400000*%
%ADD16R,1.600000X1.300000*%
%ADD17R,3.800000X1.000000*%
%ADD18R,3.400000X9.400000*%
%ADD19R,1.200000X1.200000*%
%ADD20R,3.400000X3.100000*%
%ADD21R,1.800000X0.700000*%
%ADD22R,1.300000X1.600000*%
%ADD23R,2.300000X1.200000*%
%ADD24R,1.900000X1.000000*%
G04 APERTURE END LIST*
D10*
D11*
X61650000Y-76810000D03*
X61650000Y-78710000D03*
D12*
X65750000Y-73350000D03*
X67650000Y-73350000D03*
D13*
X58020000Y-77610000D03*
D14*
X58020000Y-75070000D03*
X58020000Y-72530000D03*
D15*
X37010000Y-68010000D03*
D16*
X49092000Y-90350000D03*
X51292000Y-90350000D03*
D17*
X35714000Y-85143000D03*
X35714000Y-83873000D03*
X35714000Y-82603000D03*
X35714000Y-81333000D03*
X35714000Y-80063000D03*
X35714000Y-78793000D03*
X35714000Y-77523000D03*
X35714000Y-76253000D03*
D18*
X51714000Y-80698000D03*
D19*
X54110000Y-90350000D03*
X54110000Y-91950000D03*
D13*
X46740000Y-69990000D03*
D14*
X49280000Y-69990000D03*
X51820000Y-69990000D03*
D13*
X39778000Y-92128000D03*
D14*
X42318000Y-92128000D03*
D20*
X86350000Y-76380000D03*
X86350000Y-86040000D03*
D21*
X84350000Y-83960000D03*
X84350000Y-83460000D03*
X84350000Y-82960000D03*
X84350000Y-82460000D03*
X84350000Y-81960000D03*
X84350000Y-81460000D03*
X84350000Y-80960000D03*
X84350000Y-80460000D03*
X84350000Y-79960000D03*
X84350000Y-79460000D03*
X84350000Y-78960000D03*
X84350000Y-78460000D03*
D16*
X85330000Y-89450000D03*
X83130000Y-89450000D03*
D22*
X79390000Y-89840000D03*
X79390000Y-87640000D03*
D13*
X75950000Y-78460000D03*
D14*
X75950000Y-75920000D03*
X75950000Y-73380000D03*
D13*
X75846000Y-88826000D03*
D14*
X75846000Y-86286000D03*
X75846000Y-83746000D03*
D15*
X88690000Y-67730000D03*
D13*
X86514000Y-93398000D03*
D14*
X83974000Y-93398000D03*
D11*
X61690000Y-80880000D03*
X61690000Y-82780000D03*
X61640000Y-87150000D03*
X61640000Y-85250000D03*
D13*
X58400000Y-88580000D03*
D14*
X58400000Y-86040000D03*
X58400000Y-83500000D03*
D23*
X68710000Y-91300000D03*
X68710000Y-89400000D03*
X65710000Y-90350000D03*
D24*
X64340000Y-76555000D03*
X64340000Y-77825000D03*
X64340000Y-79095000D03*
X64340000Y-80365000D03*
X64340000Y-81635000D03*
X64340000Y-82905000D03*
X64340000Y-84175000D03*
X64340000Y-85445000D03*
X69740000Y-85445000D03*
X69740000Y-84175000D03*
X69740000Y-82905000D03*
X69740000Y-81635000D03*
X69740000Y-80365000D03*
X69740000Y-79095000D03*
X69740000Y-77825000D03*
X69740000Y-76555000D03*
D15*
X88690000Y-31990000D03*
D24*
X64340000Y-40815000D03*
X64340000Y-42085000D03*
X64340000Y-43355000D03*
X64340000Y-44625000D03*
X64340000Y-45895000D03*
X64340000Y-47165000D03*
X64340000Y-48435000D03*
X64340000Y-49705000D03*
X69740000Y-49705000D03*
X69740000Y-48435000D03*
X69740000Y-47165000D03*
X69740000Y-45895000D03*
X69740000Y-44625000D03*
X69740000Y-43355000D03*
X69740000Y-42085000D03*
X69740000Y-40815000D03*
D16*
X49092000Y-54610000D03*
X51292000Y-54610000D03*
X85330000Y-53710000D03*
X83130000Y-53710000D03*
D22*
X79390000Y-54100000D03*
X79390000Y-51900000D03*
D23*
X68710000Y-55560000D03*
X68710000Y-53660000D03*
X65710000Y-54610000D03*
D13*
X75846000Y-53086000D03*
D14*
X75846000Y-50546000D03*
X75846000Y-48006000D03*
D13*
X75950000Y-42720000D03*
D14*
X75950000Y-40180000D03*
X75950000Y-37640000D03*
D13*
X58020000Y-41870000D03*
D14*
X58020000Y-39330000D03*
X58020000Y-36790000D03*
D13*
X58400000Y-52840000D03*
D14*
X58400000Y-50300000D03*
X58400000Y-47760000D03*
D17*
X35714000Y-49403000D03*
X35714000Y-48133000D03*
X35714000Y-46863000D03*
X35714000Y-45593000D03*
X35714000Y-44323000D03*
X35714000Y-43053000D03*
X35714000Y-41783000D03*
X35714000Y-40513000D03*
D18*
X51714000Y-44958000D03*
D13*
X39778000Y-56388000D03*
D14*
X42318000Y-56388000D03*
D13*
X86514000Y-57658000D03*
D14*
X83974000Y-57658000D03*
D13*
X46740000Y-34250000D03*
D14*
X49280000Y-34250000D03*
X51820000Y-34250000D03*
D19*
X54110000Y-54610000D03*
X54110000Y-56210000D03*
D12*
X65750000Y-37610000D03*
X67650000Y-37610000D03*
D11*
X61640000Y-51410000D03*
X61640000Y-49510000D03*
X61690000Y-45140000D03*
X61690000Y-47040000D03*
X61650000Y-41070000D03*
X61650000Y-42970000D03*
D20*
X86350000Y-40640000D03*
X86350000Y-50300000D03*
D21*
X84350000Y-48220000D03*
X84350000Y-47720000D03*
X84350000Y-47220000D03*
X84350000Y-46720000D03*
X84350000Y-46220000D03*
X84350000Y-45720000D03*
X84350000Y-45220000D03*
X84350000Y-44720000D03*
X84350000Y-44220000D03*
X84350000Y-43720000D03*
X84350000Y-43220000D03*
X84350000Y-42720000D03*
D15*
X37010000Y-32270000D03*
M02*
