G04 #@! TF.FileFunction,Copper,L2,Bot,Signal*
%FSLAX46Y46*%
G04 Gerber Fmt 4.6, Leading zero omitted, Abs format (unit mm)*
G04 Created by KiCad (PCBNEW 4.0.6) date 07/05/17 09:07:04*
%MOMM*%
%LPD*%
G01*
G04 APERTURE LIST*
%ADD10C,0.100000*%
%ADD11C,5.000000*%
%ADD12R,1.700000X1.700000*%
%ADD13O,1.700000X1.700000*%
%ADD14C,1.200000*%
%ADD15C,0.254000*%
%ADD16C,0.500000*%
G04 APERTURE END LIST*
D10*
D11*
X115850000Y-62750000D03*
D12*
X125580000Y-64730000D03*
D13*
X128120000Y-64730000D03*
X130660000Y-64730000D03*
D12*
X165354000Y-88138000D03*
D13*
X162814000Y-88138000D03*
D12*
X118618000Y-86868000D03*
D13*
X121158000Y-86868000D03*
D12*
X137240000Y-83320000D03*
D13*
X137240000Y-80780000D03*
X137240000Y-78240000D03*
D12*
X136860000Y-72350000D03*
D13*
X136860000Y-69810000D03*
X136860000Y-67270000D03*
D12*
X154790000Y-73200000D03*
D13*
X154790000Y-70660000D03*
X154790000Y-68120000D03*
D12*
X154686000Y-83566000D03*
D13*
X154686000Y-81026000D03*
X154686000Y-78486000D03*
D11*
X167530000Y-62470000D03*
D14*
X165380000Y-75160000D03*
X168570000Y-86370000D03*
X168550000Y-88130000D03*
X165260000Y-85910000D03*
X165850000Y-76590000D03*
X161060000Y-69030000D03*
X161000000Y-70880000D03*
X160940000Y-73050000D03*
X126880000Y-75190000D03*
X124720000Y-81720000D03*
X126460000Y-77810000D03*
X122540000Y-81720000D03*
X122570000Y-79710000D03*
X150680000Y-77190000D03*
X150710000Y-75130000D03*
X150720000Y-71770000D03*
X118060000Y-77580000D03*
X142620000Y-81870000D03*
X147580000Y-81950000D03*
X150230000Y-84160000D03*
X145790000Y-78510000D03*
D15*
X165354000Y-88138000D02*
X165362000Y-88130000D01*
X165362000Y-88130000D02*
X168550000Y-88130000D01*
D16*
X124720000Y-81720000D02*
X124720000Y-79550000D01*
X124720000Y-79550000D02*
X126460000Y-77810000D01*
X122570000Y-79710000D02*
X122540000Y-79740000D01*
X122540000Y-79740000D02*
X122540000Y-81720000D01*
X150710000Y-75130000D02*
X150680000Y-75160000D01*
X150680000Y-75160000D02*
X150680000Y-77190000D01*
X130530000Y-67510000D02*
X130660000Y-67380000D01*
X130660000Y-67380000D02*
X130660000Y-64730000D01*
X118618000Y-86868000D02*
X118950000Y-86536000D01*
X118950000Y-86536000D02*
X118950000Y-79090000D01*
X118950000Y-79090000D02*
X130530000Y-67510000D01*
D15*
X118618000Y-86868000D02*
X118590000Y-86840000D01*
X134840000Y-72310000D02*
X134880000Y-72350000D01*
D16*
X134920000Y-83290000D02*
X133810000Y-82180000D01*
X137210000Y-83290000D02*
X134920000Y-83290000D01*
X133610000Y-73540000D02*
X134840000Y-72310000D01*
X133610000Y-73990000D02*
X133610000Y-73540000D01*
X133610000Y-81980000D02*
X133610000Y-73990000D01*
X133810000Y-82180000D02*
X133610000Y-81980000D01*
X134880000Y-72350000D02*
X136860000Y-72350000D01*
D15*
X137240000Y-83320000D02*
X137210000Y-83290000D01*
X136860000Y-67270000D02*
X136870000Y-67280000D01*
D16*
X136870000Y-67280000D02*
X138780000Y-67280000D01*
X137240000Y-78240000D02*
X140090000Y-75390000D01*
X140090000Y-75390000D02*
X140090000Y-68590000D01*
X140090000Y-68590000D02*
X138780000Y-67280000D01*
D15*
X137240000Y-78240000D02*
X138060000Y-77420000D01*
D16*
X138060000Y-77420000D02*
X144700000Y-77420000D01*
X144700000Y-77420000D02*
X145790000Y-78510000D01*
X156990000Y-82210000D02*
X156990000Y-81340000D01*
D15*
X154686000Y-83566000D02*
X154740000Y-83620000D01*
D16*
X154740000Y-83620000D02*
X155670000Y-83620000D01*
D15*
X155670000Y-83620000D02*
X155670000Y-83530000D01*
D16*
X155670000Y-83530000D02*
X156990000Y-82210000D01*
X154790000Y-73200000D02*
X156990000Y-75400000D01*
X156990000Y-75400000D02*
X156990000Y-81340000D01*
D15*
X153110000Y-68150000D02*
X153140000Y-68120000D01*
D16*
X153140000Y-68120000D02*
X154790000Y-68120000D01*
X154686000Y-78486000D02*
X152190000Y-75990000D01*
X152190000Y-75990000D02*
X152190000Y-69430000D01*
X152190000Y-69430000D02*
X152190000Y-69070000D01*
X152190000Y-69070000D02*
X153110000Y-68150000D01*
D15*
G36*
X165900177Y-60026183D02*
X165089031Y-60835914D01*
X164649501Y-61894420D01*
X164648501Y-63040552D01*
X165086183Y-64099823D01*
X165895914Y-64910969D01*
X166954420Y-65350499D01*
X168100552Y-65351499D01*
X169159823Y-64913817D01*
X169970969Y-64104086D01*
X170410499Y-63045580D01*
X170411499Y-61899448D01*
X169973817Y-60840177D01*
X169164086Y-60029031D01*
X168222379Y-59638000D01*
X170486000Y-59638000D01*
X170486000Y-90476000D01*
X111962000Y-90476000D01*
X111962000Y-86018000D01*
X117379536Y-86018000D01*
X117379536Y-87718000D01*
X117406103Y-87859190D01*
X117489546Y-87988865D01*
X117616866Y-88075859D01*
X117768000Y-88106464D01*
X119468000Y-88106464D01*
X119609190Y-88079897D01*
X119738865Y-87996454D01*
X119825859Y-87869134D01*
X119856464Y-87718000D01*
X119856464Y-86843883D01*
X119927000Y-86843883D01*
X119927000Y-86892117D01*
X120020704Y-87363200D01*
X120287552Y-87762565D01*
X120686917Y-88029413D01*
X121158000Y-88123117D01*
X121204422Y-88113883D01*
X161583000Y-88113883D01*
X161583000Y-88162117D01*
X161676704Y-88633200D01*
X161943552Y-89032565D01*
X162342917Y-89299413D01*
X162814000Y-89393117D01*
X163285083Y-89299413D01*
X163684448Y-89032565D01*
X163869000Y-88756364D01*
X163869000Y-89114309D01*
X163965673Y-89347698D01*
X164144301Y-89526327D01*
X164377690Y-89623000D01*
X165068250Y-89623000D01*
X165227000Y-89464250D01*
X165227000Y-88265000D01*
X165481000Y-88265000D01*
X165481000Y-89464250D01*
X165639750Y-89623000D01*
X166330310Y-89623000D01*
X166563699Y-89526327D01*
X166742327Y-89347698D01*
X166839000Y-89114309D01*
X166839000Y-88423750D01*
X166680250Y-88265000D01*
X165481000Y-88265000D01*
X165227000Y-88265000D01*
X165207000Y-88265000D01*
X165207000Y-88011000D01*
X165227000Y-88011000D01*
X165227000Y-86811750D01*
X165481000Y-86811750D01*
X165481000Y-88011000D01*
X166680250Y-88011000D01*
X166839000Y-87852250D01*
X166839000Y-87161691D01*
X166742327Y-86928302D01*
X166563699Y-86749673D01*
X166330310Y-86653000D01*
X165639750Y-86653000D01*
X165481000Y-86811750D01*
X165227000Y-86811750D01*
X165068250Y-86653000D01*
X164377690Y-86653000D01*
X164144301Y-86749673D01*
X163965673Y-86928302D01*
X163869000Y-87161691D01*
X163869000Y-87519636D01*
X163684448Y-87243435D01*
X163285083Y-86976587D01*
X162814000Y-86882883D01*
X162342917Y-86976587D01*
X161943552Y-87243435D01*
X161676704Y-87642800D01*
X161583000Y-88113883D01*
X121204422Y-88113883D01*
X121629083Y-88029413D01*
X122028448Y-87762565D01*
X122295296Y-87363200D01*
X122389000Y-86892117D01*
X122389000Y-86843883D01*
X122295296Y-86372800D01*
X122028448Y-85973435D01*
X121629083Y-85706587D01*
X121158000Y-85612883D01*
X120686917Y-85706587D01*
X120287552Y-85973435D01*
X120020704Y-86372800D01*
X119927000Y-86843883D01*
X119856464Y-86843883D01*
X119856464Y-86018000D01*
X119829897Y-85876810D01*
X119746454Y-85747135D01*
X119619134Y-85660141D01*
X119581000Y-85652419D01*
X119581000Y-79351368D01*
X125392368Y-73540000D01*
X132979000Y-73540000D01*
X132979000Y-81980000D01*
X133015460Y-82163296D01*
X133027032Y-82221473D01*
X133163816Y-82426184D01*
X133363816Y-82626185D01*
X133363819Y-82626187D01*
X134473816Y-83736184D01*
X134678527Y-83872968D01*
X134920000Y-83921000D01*
X136001536Y-83921000D01*
X136001536Y-84170000D01*
X136028103Y-84311190D01*
X136111546Y-84440865D01*
X136238866Y-84527859D01*
X136390000Y-84558464D01*
X138090000Y-84558464D01*
X138231190Y-84531897D01*
X138360865Y-84448454D01*
X138447859Y-84321134D01*
X138478464Y-84170000D01*
X138478464Y-82716000D01*
X153447536Y-82716000D01*
X153447536Y-84416000D01*
X153474103Y-84557190D01*
X153557546Y-84686865D01*
X153684866Y-84773859D01*
X153836000Y-84804464D01*
X155536000Y-84804464D01*
X155677190Y-84777897D01*
X155806865Y-84694454D01*
X155893859Y-84567134D01*
X155924464Y-84416000D01*
X155924464Y-84194288D01*
X156116184Y-84066184D01*
X156252968Y-83861473D01*
X156258449Y-83833919D01*
X157436184Y-82656184D01*
X157572968Y-82451473D01*
X157621000Y-82210000D01*
X157621000Y-75400000D01*
X157572968Y-75158527D01*
X157436184Y-74953816D01*
X156028464Y-73546096D01*
X156028464Y-72350000D01*
X156001897Y-72208810D01*
X155918454Y-72079135D01*
X155791134Y-71992141D01*
X155640000Y-71961536D01*
X153940000Y-71961536D01*
X153798810Y-71988103D01*
X153669135Y-72071546D01*
X153582141Y-72198866D01*
X153551536Y-72350000D01*
X153551536Y-74050000D01*
X153578103Y-74191190D01*
X153661546Y-74320865D01*
X153788866Y-74407859D01*
X153940000Y-74438464D01*
X155136096Y-74438464D01*
X156359000Y-75661368D01*
X156359000Y-81948632D01*
X155833264Y-82474368D01*
X155814454Y-82445135D01*
X155687134Y-82358141D01*
X155536000Y-82327536D01*
X153836000Y-82327536D01*
X153694810Y-82354103D01*
X153565135Y-82437546D01*
X153478141Y-82564866D01*
X153447536Y-82716000D01*
X138478464Y-82716000D01*
X138478464Y-82470000D01*
X138451897Y-82328810D01*
X138368454Y-82199135D01*
X138241134Y-82112141D01*
X138090000Y-82081536D01*
X136390000Y-82081536D01*
X136248810Y-82108103D01*
X136119135Y-82191546D01*
X136032141Y-82318866D01*
X136001536Y-82470000D01*
X136001536Y-82659000D01*
X135181368Y-82659000D01*
X134256187Y-81733819D01*
X134256185Y-81733816D01*
X134241000Y-81718631D01*
X134241000Y-80780000D01*
X135984883Y-80780000D01*
X136078587Y-81251083D01*
X136345435Y-81650448D01*
X136744800Y-81917296D01*
X137215883Y-82011000D01*
X137264117Y-82011000D01*
X137735200Y-81917296D01*
X138134565Y-81650448D01*
X138401413Y-81251083D01*
X138446184Y-81026000D01*
X153430883Y-81026000D01*
X153524587Y-81497083D01*
X153791435Y-81896448D01*
X154190800Y-82163296D01*
X154661883Y-82257000D01*
X154710117Y-82257000D01*
X155181200Y-82163296D01*
X155580565Y-81896448D01*
X155847413Y-81497083D01*
X155941117Y-81026000D01*
X155847413Y-80554917D01*
X155580565Y-80155552D01*
X155181200Y-79888704D01*
X154710117Y-79795000D01*
X154661883Y-79795000D01*
X154190800Y-79888704D01*
X153791435Y-80155552D01*
X153524587Y-80554917D01*
X153430883Y-81026000D01*
X138446184Y-81026000D01*
X138495117Y-80780000D01*
X138401413Y-80308917D01*
X138134565Y-79909552D01*
X137735200Y-79642704D01*
X137264117Y-79549000D01*
X137215883Y-79549000D01*
X136744800Y-79642704D01*
X136345435Y-79909552D01*
X136078587Y-80308917D01*
X135984883Y-80780000D01*
X134241000Y-80780000D01*
X134241000Y-73801368D01*
X135061369Y-72981000D01*
X135621536Y-72981000D01*
X135621536Y-73200000D01*
X135648103Y-73341190D01*
X135731546Y-73470865D01*
X135858866Y-73557859D01*
X136010000Y-73588464D01*
X137710000Y-73588464D01*
X137851190Y-73561897D01*
X137980865Y-73478454D01*
X138067859Y-73351134D01*
X138098464Y-73200000D01*
X138098464Y-71500000D01*
X138071897Y-71358810D01*
X137988454Y-71229135D01*
X137861134Y-71142141D01*
X137710000Y-71111536D01*
X136010000Y-71111536D01*
X135868810Y-71138103D01*
X135739135Y-71221546D01*
X135652141Y-71348866D01*
X135621536Y-71500000D01*
X135621536Y-71719000D01*
X135041094Y-71719000D01*
X134840000Y-71679000D01*
X134598527Y-71727032D01*
X134393816Y-71863815D01*
X133163816Y-73093816D01*
X133027032Y-73298527D01*
X132979000Y-73540000D01*
X125392368Y-73540000D01*
X129122368Y-69810000D01*
X135604883Y-69810000D01*
X135698587Y-70281083D01*
X135965435Y-70680448D01*
X136364800Y-70947296D01*
X136835883Y-71041000D01*
X136884117Y-71041000D01*
X137355200Y-70947296D01*
X137754565Y-70680448D01*
X138021413Y-70281083D01*
X138115117Y-69810000D01*
X138021413Y-69338917D01*
X137754565Y-68939552D01*
X137355200Y-68672704D01*
X136884117Y-68579000D01*
X136835883Y-68579000D01*
X136364800Y-68672704D01*
X135965435Y-68939552D01*
X135698587Y-69338917D01*
X135604883Y-69810000D01*
X129122368Y-69810000D01*
X130976184Y-67956184D01*
X131106185Y-67826184D01*
X131242968Y-67621473D01*
X131291000Y-67380000D01*
X131291000Y-67270000D01*
X135604883Y-67270000D01*
X135698587Y-67741083D01*
X135965435Y-68140448D01*
X136364800Y-68407296D01*
X136835883Y-68501000D01*
X136884117Y-68501000D01*
X137355200Y-68407296D01*
X137754565Y-68140448D01*
X137907878Y-67911000D01*
X138518632Y-67911000D01*
X139459000Y-68851369D01*
X139459000Y-75128631D01*
X137526450Y-77061181D01*
X137264117Y-77009000D01*
X137215883Y-77009000D01*
X136744800Y-77102704D01*
X136345435Y-77369552D01*
X136078587Y-77768917D01*
X135984883Y-78240000D01*
X136078587Y-78711083D01*
X136345435Y-79110448D01*
X136744800Y-79377296D01*
X137215883Y-79471000D01*
X137264117Y-79471000D01*
X137735200Y-79377296D01*
X138134565Y-79110448D01*
X138401413Y-78711083D01*
X138495117Y-78240000D01*
X138457523Y-78051000D01*
X144438632Y-78051000D01*
X144809077Y-78421446D01*
X144808830Y-78704277D01*
X144957864Y-79064966D01*
X145233583Y-79341166D01*
X145594011Y-79490829D01*
X145984277Y-79491170D01*
X146344966Y-79342136D01*
X146621166Y-79066417D01*
X146770829Y-78705989D01*
X146771170Y-78315723D01*
X146622136Y-77955034D01*
X146346417Y-77678834D01*
X145985989Y-77529171D01*
X145701291Y-77528922D01*
X145146184Y-76973816D01*
X144941473Y-76837032D01*
X144700000Y-76789000D01*
X139583369Y-76789000D01*
X140536185Y-75836184D01*
X140672968Y-75631473D01*
X140721000Y-75390000D01*
X140721000Y-69070000D01*
X151559000Y-69070000D01*
X151559000Y-75990000D01*
X151607032Y-76231473D01*
X151743816Y-76436184D01*
X153491067Y-78183435D01*
X153430883Y-78486000D01*
X153524587Y-78957083D01*
X153791435Y-79356448D01*
X154190800Y-79623296D01*
X154661883Y-79717000D01*
X154710117Y-79717000D01*
X155181200Y-79623296D01*
X155580565Y-79356448D01*
X155847413Y-78957083D01*
X155941117Y-78486000D01*
X155847413Y-78014917D01*
X155580565Y-77615552D01*
X155181200Y-77348704D01*
X154710117Y-77255000D01*
X154661883Y-77255000D01*
X154399549Y-77307181D01*
X152821000Y-75728632D01*
X152821000Y-70660000D01*
X153534883Y-70660000D01*
X153628587Y-71131083D01*
X153895435Y-71530448D01*
X154294800Y-71797296D01*
X154765883Y-71891000D01*
X154814117Y-71891000D01*
X155285200Y-71797296D01*
X155684565Y-71530448D01*
X155951413Y-71131083D01*
X156045117Y-70660000D01*
X155951413Y-70188917D01*
X155684565Y-69789552D01*
X155285200Y-69522704D01*
X154814117Y-69429000D01*
X154765883Y-69429000D01*
X154294800Y-69522704D01*
X153895435Y-69789552D01*
X153628587Y-70188917D01*
X153534883Y-70660000D01*
X152821000Y-70660000D01*
X152821000Y-69331368D01*
X153401369Y-68751000D01*
X153735440Y-68751000D01*
X153895435Y-68990448D01*
X154294800Y-69257296D01*
X154765883Y-69351000D01*
X154814117Y-69351000D01*
X155285200Y-69257296D01*
X155684565Y-68990448D01*
X155951413Y-68591083D01*
X156045117Y-68120000D01*
X155951413Y-67648917D01*
X155684565Y-67249552D01*
X155285200Y-66982704D01*
X154814117Y-66889000D01*
X154765883Y-66889000D01*
X154294800Y-66982704D01*
X153895435Y-67249552D01*
X153735440Y-67489000D01*
X153140000Y-67489000D01*
X152898527Y-67537032D01*
X152693816Y-67673816D01*
X152681800Y-67691799D01*
X152663815Y-67703816D01*
X151743816Y-68623816D01*
X151607032Y-68828527D01*
X151559000Y-69070000D01*
X140721000Y-69070000D01*
X140721000Y-68590000D01*
X140672968Y-68348527D01*
X140650168Y-68314404D01*
X140536185Y-68143816D01*
X139226184Y-66833816D01*
X139021473Y-66697032D01*
X138780000Y-66649000D01*
X137921241Y-66649000D01*
X137754565Y-66399552D01*
X137355200Y-66132704D01*
X136884117Y-66039000D01*
X136835883Y-66039000D01*
X136364800Y-66132704D01*
X135965435Y-66399552D01*
X135698587Y-66798917D01*
X135604883Y-67270000D01*
X131291000Y-67270000D01*
X131291000Y-65784560D01*
X131530448Y-65624565D01*
X131797296Y-65225200D01*
X131891000Y-64754117D01*
X131891000Y-64705883D01*
X131797296Y-64234800D01*
X131530448Y-63835435D01*
X131131083Y-63568587D01*
X130660000Y-63474883D01*
X130188917Y-63568587D01*
X129789552Y-63835435D01*
X129522704Y-64234800D01*
X129429000Y-64705883D01*
X129429000Y-64754117D01*
X129522704Y-65225200D01*
X129789552Y-65624565D01*
X130029000Y-65784560D01*
X130029000Y-67118632D01*
X118503816Y-78643816D01*
X118367032Y-78848527D01*
X118319000Y-79090000D01*
X118319000Y-85629536D01*
X117768000Y-85629536D01*
X117626810Y-85656103D01*
X117497135Y-85739546D01*
X117410141Y-85866866D01*
X117379536Y-86018000D01*
X111962000Y-86018000D01*
X111962000Y-63320552D01*
X112968501Y-63320552D01*
X113406183Y-64379823D01*
X114215914Y-65190969D01*
X115274420Y-65630499D01*
X116420552Y-65631499D01*
X117479823Y-65193817D01*
X118290969Y-64384086D01*
X118500283Y-63880000D01*
X124341536Y-63880000D01*
X124341536Y-65580000D01*
X124368103Y-65721190D01*
X124451546Y-65850865D01*
X124578866Y-65937859D01*
X124730000Y-65968464D01*
X126430000Y-65968464D01*
X126571190Y-65941897D01*
X126700865Y-65858454D01*
X126787859Y-65731134D01*
X126818464Y-65580000D01*
X126818464Y-64705883D01*
X126889000Y-64705883D01*
X126889000Y-64754117D01*
X126982704Y-65225200D01*
X127249552Y-65624565D01*
X127648917Y-65891413D01*
X128120000Y-65985117D01*
X128591083Y-65891413D01*
X128990448Y-65624565D01*
X129257296Y-65225200D01*
X129351000Y-64754117D01*
X129351000Y-64705883D01*
X129257296Y-64234800D01*
X128990448Y-63835435D01*
X128591083Y-63568587D01*
X128120000Y-63474883D01*
X127648917Y-63568587D01*
X127249552Y-63835435D01*
X126982704Y-64234800D01*
X126889000Y-64705883D01*
X126818464Y-64705883D01*
X126818464Y-63880000D01*
X126791897Y-63738810D01*
X126708454Y-63609135D01*
X126581134Y-63522141D01*
X126430000Y-63491536D01*
X124730000Y-63491536D01*
X124588810Y-63518103D01*
X124459135Y-63601546D01*
X124372141Y-63728866D01*
X124341536Y-63880000D01*
X118500283Y-63880000D01*
X118730499Y-63325580D01*
X118731499Y-62179448D01*
X118293817Y-61120177D01*
X117484086Y-60309031D01*
X116425580Y-59869501D01*
X115279448Y-59868501D01*
X114220177Y-60306183D01*
X113409031Y-61115914D01*
X112969501Y-62174420D01*
X112968501Y-63320552D01*
X111962000Y-63320552D01*
X111962000Y-59638000D01*
X166839651Y-59638000D01*
X165900177Y-60026183D01*
X165900177Y-60026183D01*
G37*
X165900177Y-60026183D02*
X165089031Y-60835914D01*
X164649501Y-61894420D01*
X164648501Y-63040552D01*
X165086183Y-64099823D01*
X165895914Y-64910969D01*
X166954420Y-65350499D01*
X168100552Y-65351499D01*
X169159823Y-64913817D01*
X169970969Y-64104086D01*
X170410499Y-63045580D01*
X170411499Y-61899448D01*
X169973817Y-60840177D01*
X169164086Y-60029031D01*
X168222379Y-59638000D01*
X170486000Y-59638000D01*
X170486000Y-90476000D01*
X111962000Y-90476000D01*
X111962000Y-86018000D01*
X117379536Y-86018000D01*
X117379536Y-87718000D01*
X117406103Y-87859190D01*
X117489546Y-87988865D01*
X117616866Y-88075859D01*
X117768000Y-88106464D01*
X119468000Y-88106464D01*
X119609190Y-88079897D01*
X119738865Y-87996454D01*
X119825859Y-87869134D01*
X119856464Y-87718000D01*
X119856464Y-86843883D01*
X119927000Y-86843883D01*
X119927000Y-86892117D01*
X120020704Y-87363200D01*
X120287552Y-87762565D01*
X120686917Y-88029413D01*
X121158000Y-88123117D01*
X121204422Y-88113883D01*
X161583000Y-88113883D01*
X161583000Y-88162117D01*
X161676704Y-88633200D01*
X161943552Y-89032565D01*
X162342917Y-89299413D01*
X162814000Y-89393117D01*
X163285083Y-89299413D01*
X163684448Y-89032565D01*
X163869000Y-88756364D01*
X163869000Y-89114309D01*
X163965673Y-89347698D01*
X164144301Y-89526327D01*
X164377690Y-89623000D01*
X165068250Y-89623000D01*
X165227000Y-89464250D01*
X165227000Y-88265000D01*
X165481000Y-88265000D01*
X165481000Y-89464250D01*
X165639750Y-89623000D01*
X166330310Y-89623000D01*
X166563699Y-89526327D01*
X166742327Y-89347698D01*
X166839000Y-89114309D01*
X166839000Y-88423750D01*
X166680250Y-88265000D01*
X165481000Y-88265000D01*
X165227000Y-88265000D01*
X165207000Y-88265000D01*
X165207000Y-88011000D01*
X165227000Y-88011000D01*
X165227000Y-86811750D01*
X165481000Y-86811750D01*
X165481000Y-88011000D01*
X166680250Y-88011000D01*
X166839000Y-87852250D01*
X166839000Y-87161691D01*
X166742327Y-86928302D01*
X166563699Y-86749673D01*
X166330310Y-86653000D01*
X165639750Y-86653000D01*
X165481000Y-86811750D01*
X165227000Y-86811750D01*
X165068250Y-86653000D01*
X164377690Y-86653000D01*
X164144301Y-86749673D01*
X163965673Y-86928302D01*
X163869000Y-87161691D01*
X163869000Y-87519636D01*
X163684448Y-87243435D01*
X163285083Y-86976587D01*
X162814000Y-86882883D01*
X162342917Y-86976587D01*
X161943552Y-87243435D01*
X161676704Y-87642800D01*
X161583000Y-88113883D01*
X121204422Y-88113883D01*
X121629083Y-88029413D01*
X122028448Y-87762565D01*
X122295296Y-87363200D01*
X122389000Y-86892117D01*
X122389000Y-86843883D01*
X122295296Y-86372800D01*
X122028448Y-85973435D01*
X121629083Y-85706587D01*
X121158000Y-85612883D01*
X120686917Y-85706587D01*
X120287552Y-85973435D01*
X120020704Y-86372800D01*
X119927000Y-86843883D01*
X119856464Y-86843883D01*
X119856464Y-86018000D01*
X119829897Y-85876810D01*
X119746454Y-85747135D01*
X119619134Y-85660141D01*
X119581000Y-85652419D01*
X119581000Y-79351368D01*
X125392368Y-73540000D01*
X132979000Y-73540000D01*
X132979000Y-81980000D01*
X133015460Y-82163296D01*
X133027032Y-82221473D01*
X133163816Y-82426184D01*
X133363816Y-82626185D01*
X133363819Y-82626187D01*
X134473816Y-83736184D01*
X134678527Y-83872968D01*
X134920000Y-83921000D01*
X136001536Y-83921000D01*
X136001536Y-84170000D01*
X136028103Y-84311190D01*
X136111546Y-84440865D01*
X136238866Y-84527859D01*
X136390000Y-84558464D01*
X138090000Y-84558464D01*
X138231190Y-84531897D01*
X138360865Y-84448454D01*
X138447859Y-84321134D01*
X138478464Y-84170000D01*
X138478464Y-82716000D01*
X153447536Y-82716000D01*
X153447536Y-84416000D01*
X153474103Y-84557190D01*
X153557546Y-84686865D01*
X153684866Y-84773859D01*
X153836000Y-84804464D01*
X155536000Y-84804464D01*
X155677190Y-84777897D01*
X155806865Y-84694454D01*
X155893859Y-84567134D01*
X155924464Y-84416000D01*
X155924464Y-84194288D01*
X156116184Y-84066184D01*
X156252968Y-83861473D01*
X156258449Y-83833919D01*
X157436184Y-82656184D01*
X157572968Y-82451473D01*
X157621000Y-82210000D01*
X157621000Y-75400000D01*
X157572968Y-75158527D01*
X157436184Y-74953816D01*
X156028464Y-73546096D01*
X156028464Y-72350000D01*
X156001897Y-72208810D01*
X155918454Y-72079135D01*
X155791134Y-71992141D01*
X155640000Y-71961536D01*
X153940000Y-71961536D01*
X153798810Y-71988103D01*
X153669135Y-72071546D01*
X153582141Y-72198866D01*
X153551536Y-72350000D01*
X153551536Y-74050000D01*
X153578103Y-74191190D01*
X153661546Y-74320865D01*
X153788866Y-74407859D01*
X153940000Y-74438464D01*
X155136096Y-74438464D01*
X156359000Y-75661368D01*
X156359000Y-81948632D01*
X155833264Y-82474368D01*
X155814454Y-82445135D01*
X155687134Y-82358141D01*
X155536000Y-82327536D01*
X153836000Y-82327536D01*
X153694810Y-82354103D01*
X153565135Y-82437546D01*
X153478141Y-82564866D01*
X153447536Y-82716000D01*
X138478464Y-82716000D01*
X138478464Y-82470000D01*
X138451897Y-82328810D01*
X138368454Y-82199135D01*
X138241134Y-82112141D01*
X138090000Y-82081536D01*
X136390000Y-82081536D01*
X136248810Y-82108103D01*
X136119135Y-82191546D01*
X136032141Y-82318866D01*
X136001536Y-82470000D01*
X136001536Y-82659000D01*
X135181368Y-82659000D01*
X134256187Y-81733819D01*
X134256185Y-81733816D01*
X134241000Y-81718631D01*
X134241000Y-80780000D01*
X135984883Y-80780000D01*
X136078587Y-81251083D01*
X136345435Y-81650448D01*
X136744800Y-81917296D01*
X137215883Y-82011000D01*
X137264117Y-82011000D01*
X137735200Y-81917296D01*
X138134565Y-81650448D01*
X138401413Y-81251083D01*
X138446184Y-81026000D01*
X153430883Y-81026000D01*
X153524587Y-81497083D01*
X153791435Y-81896448D01*
X154190800Y-82163296D01*
X154661883Y-82257000D01*
X154710117Y-82257000D01*
X155181200Y-82163296D01*
X155580565Y-81896448D01*
X155847413Y-81497083D01*
X155941117Y-81026000D01*
X155847413Y-80554917D01*
X155580565Y-80155552D01*
X155181200Y-79888704D01*
X154710117Y-79795000D01*
X154661883Y-79795000D01*
X154190800Y-79888704D01*
X153791435Y-80155552D01*
X153524587Y-80554917D01*
X153430883Y-81026000D01*
X138446184Y-81026000D01*
X138495117Y-80780000D01*
X138401413Y-80308917D01*
X138134565Y-79909552D01*
X137735200Y-79642704D01*
X137264117Y-79549000D01*
X137215883Y-79549000D01*
X136744800Y-79642704D01*
X136345435Y-79909552D01*
X136078587Y-80308917D01*
X135984883Y-80780000D01*
X134241000Y-80780000D01*
X134241000Y-73801368D01*
X135061369Y-72981000D01*
X135621536Y-72981000D01*
X135621536Y-73200000D01*
X135648103Y-73341190D01*
X135731546Y-73470865D01*
X135858866Y-73557859D01*
X136010000Y-73588464D01*
X137710000Y-73588464D01*
X137851190Y-73561897D01*
X137980865Y-73478454D01*
X138067859Y-73351134D01*
X138098464Y-73200000D01*
X138098464Y-71500000D01*
X138071897Y-71358810D01*
X137988454Y-71229135D01*
X137861134Y-71142141D01*
X137710000Y-71111536D01*
X136010000Y-71111536D01*
X135868810Y-71138103D01*
X135739135Y-71221546D01*
X135652141Y-71348866D01*
X135621536Y-71500000D01*
X135621536Y-71719000D01*
X135041094Y-71719000D01*
X134840000Y-71679000D01*
X134598527Y-71727032D01*
X134393816Y-71863815D01*
X133163816Y-73093816D01*
X133027032Y-73298527D01*
X132979000Y-73540000D01*
X125392368Y-73540000D01*
X129122368Y-69810000D01*
X135604883Y-69810000D01*
X135698587Y-70281083D01*
X135965435Y-70680448D01*
X136364800Y-70947296D01*
X136835883Y-71041000D01*
X136884117Y-71041000D01*
X137355200Y-70947296D01*
X137754565Y-70680448D01*
X138021413Y-70281083D01*
X138115117Y-69810000D01*
X138021413Y-69338917D01*
X137754565Y-68939552D01*
X137355200Y-68672704D01*
X136884117Y-68579000D01*
X136835883Y-68579000D01*
X136364800Y-68672704D01*
X135965435Y-68939552D01*
X135698587Y-69338917D01*
X135604883Y-69810000D01*
X129122368Y-69810000D01*
X130976184Y-67956184D01*
X131106185Y-67826184D01*
X131242968Y-67621473D01*
X131291000Y-67380000D01*
X131291000Y-67270000D01*
X135604883Y-67270000D01*
X135698587Y-67741083D01*
X135965435Y-68140448D01*
X136364800Y-68407296D01*
X136835883Y-68501000D01*
X136884117Y-68501000D01*
X137355200Y-68407296D01*
X137754565Y-68140448D01*
X137907878Y-67911000D01*
X138518632Y-67911000D01*
X139459000Y-68851369D01*
X139459000Y-75128631D01*
X137526450Y-77061181D01*
X137264117Y-77009000D01*
X137215883Y-77009000D01*
X136744800Y-77102704D01*
X136345435Y-77369552D01*
X136078587Y-77768917D01*
X135984883Y-78240000D01*
X136078587Y-78711083D01*
X136345435Y-79110448D01*
X136744800Y-79377296D01*
X137215883Y-79471000D01*
X137264117Y-79471000D01*
X137735200Y-79377296D01*
X138134565Y-79110448D01*
X138401413Y-78711083D01*
X138495117Y-78240000D01*
X138457523Y-78051000D01*
X144438632Y-78051000D01*
X144809077Y-78421446D01*
X144808830Y-78704277D01*
X144957864Y-79064966D01*
X145233583Y-79341166D01*
X145594011Y-79490829D01*
X145984277Y-79491170D01*
X146344966Y-79342136D01*
X146621166Y-79066417D01*
X146770829Y-78705989D01*
X146771170Y-78315723D01*
X146622136Y-77955034D01*
X146346417Y-77678834D01*
X145985989Y-77529171D01*
X145701291Y-77528922D01*
X145146184Y-76973816D01*
X144941473Y-76837032D01*
X144700000Y-76789000D01*
X139583369Y-76789000D01*
X140536185Y-75836184D01*
X140672968Y-75631473D01*
X140721000Y-75390000D01*
X140721000Y-69070000D01*
X151559000Y-69070000D01*
X151559000Y-75990000D01*
X151607032Y-76231473D01*
X151743816Y-76436184D01*
X153491067Y-78183435D01*
X153430883Y-78486000D01*
X153524587Y-78957083D01*
X153791435Y-79356448D01*
X154190800Y-79623296D01*
X154661883Y-79717000D01*
X154710117Y-79717000D01*
X155181200Y-79623296D01*
X155580565Y-79356448D01*
X155847413Y-78957083D01*
X155941117Y-78486000D01*
X155847413Y-78014917D01*
X155580565Y-77615552D01*
X155181200Y-77348704D01*
X154710117Y-77255000D01*
X154661883Y-77255000D01*
X154399549Y-77307181D01*
X152821000Y-75728632D01*
X152821000Y-70660000D01*
X153534883Y-70660000D01*
X153628587Y-71131083D01*
X153895435Y-71530448D01*
X154294800Y-71797296D01*
X154765883Y-71891000D01*
X154814117Y-71891000D01*
X155285200Y-71797296D01*
X155684565Y-71530448D01*
X155951413Y-71131083D01*
X156045117Y-70660000D01*
X155951413Y-70188917D01*
X155684565Y-69789552D01*
X155285200Y-69522704D01*
X154814117Y-69429000D01*
X154765883Y-69429000D01*
X154294800Y-69522704D01*
X153895435Y-69789552D01*
X153628587Y-70188917D01*
X153534883Y-70660000D01*
X152821000Y-70660000D01*
X152821000Y-69331368D01*
X153401369Y-68751000D01*
X153735440Y-68751000D01*
X153895435Y-68990448D01*
X154294800Y-69257296D01*
X154765883Y-69351000D01*
X154814117Y-69351000D01*
X155285200Y-69257296D01*
X155684565Y-68990448D01*
X155951413Y-68591083D01*
X156045117Y-68120000D01*
X155951413Y-67648917D01*
X155684565Y-67249552D01*
X155285200Y-66982704D01*
X154814117Y-66889000D01*
X154765883Y-66889000D01*
X154294800Y-66982704D01*
X153895435Y-67249552D01*
X153735440Y-67489000D01*
X153140000Y-67489000D01*
X152898527Y-67537032D01*
X152693816Y-67673816D01*
X152681800Y-67691799D01*
X152663815Y-67703816D01*
X151743816Y-68623816D01*
X151607032Y-68828527D01*
X151559000Y-69070000D01*
X140721000Y-69070000D01*
X140721000Y-68590000D01*
X140672968Y-68348527D01*
X140650168Y-68314404D01*
X140536185Y-68143816D01*
X139226184Y-66833816D01*
X139021473Y-66697032D01*
X138780000Y-66649000D01*
X137921241Y-66649000D01*
X137754565Y-66399552D01*
X137355200Y-66132704D01*
X136884117Y-66039000D01*
X136835883Y-66039000D01*
X136364800Y-66132704D01*
X135965435Y-66399552D01*
X135698587Y-66798917D01*
X135604883Y-67270000D01*
X131291000Y-67270000D01*
X131291000Y-65784560D01*
X131530448Y-65624565D01*
X131797296Y-65225200D01*
X131891000Y-64754117D01*
X131891000Y-64705883D01*
X131797296Y-64234800D01*
X131530448Y-63835435D01*
X131131083Y-63568587D01*
X130660000Y-63474883D01*
X130188917Y-63568587D01*
X129789552Y-63835435D01*
X129522704Y-64234800D01*
X129429000Y-64705883D01*
X129429000Y-64754117D01*
X129522704Y-65225200D01*
X129789552Y-65624565D01*
X130029000Y-65784560D01*
X130029000Y-67118632D01*
X118503816Y-78643816D01*
X118367032Y-78848527D01*
X118319000Y-79090000D01*
X118319000Y-85629536D01*
X117768000Y-85629536D01*
X117626810Y-85656103D01*
X117497135Y-85739546D01*
X117410141Y-85866866D01*
X117379536Y-86018000D01*
X111962000Y-86018000D01*
X111962000Y-63320552D01*
X112968501Y-63320552D01*
X113406183Y-64379823D01*
X114215914Y-65190969D01*
X115274420Y-65630499D01*
X116420552Y-65631499D01*
X117479823Y-65193817D01*
X118290969Y-64384086D01*
X118500283Y-63880000D01*
X124341536Y-63880000D01*
X124341536Y-65580000D01*
X124368103Y-65721190D01*
X124451546Y-65850865D01*
X124578866Y-65937859D01*
X124730000Y-65968464D01*
X126430000Y-65968464D01*
X126571190Y-65941897D01*
X126700865Y-65858454D01*
X126787859Y-65731134D01*
X126818464Y-65580000D01*
X126818464Y-64705883D01*
X126889000Y-64705883D01*
X126889000Y-64754117D01*
X126982704Y-65225200D01*
X127249552Y-65624565D01*
X127648917Y-65891413D01*
X128120000Y-65985117D01*
X128591083Y-65891413D01*
X128990448Y-65624565D01*
X129257296Y-65225200D01*
X129351000Y-64754117D01*
X129351000Y-64705883D01*
X129257296Y-64234800D01*
X128990448Y-63835435D01*
X128591083Y-63568587D01*
X128120000Y-63474883D01*
X127648917Y-63568587D01*
X127249552Y-63835435D01*
X126982704Y-64234800D01*
X126889000Y-64705883D01*
X126818464Y-64705883D01*
X126818464Y-63880000D01*
X126791897Y-63738810D01*
X126708454Y-63609135D01*
X126581134Y-63522141D01*
X126430000Y-63491536D01*
X124730000Y-63491536D01*
X124588810Y-63518103D01*
X124459135Y-63601546D01*
X124372141Y-63728866D01*
X124341536Y-63880000D01*
X118500283Y-63880000D01*
X118730499Y-63325580D01*
X118731499Y-62179448D01*
X118293817Y-61120177D01*
X117484086Y-60309031D01*
X116425580Y-59869501D01*
X115279448Y-59868501D01*
X114220177Y-60306183D01*
X113409031Y-61115914D01*
X112969501Y-62174420D01*
X112968501Y-63320552D01*
X111962000Y-63320552D01*
X111962000Y-59638000D01*
X166839651Y-59638000D01*
X165900177Y-60026183D01*
M02*
