G04 #@! TF.FileFunction,Soldermask,Top*
%FSLAX46Y46*%
G04 Gerber Fmt 4.6, Leading zero omitted, Abs format (unit mm)*
G04 Created by KiCad (PCBNEW 4.0.6) date 07/05/17 09:07:04*
%MOMM*%
%LPD*%
G01*
G04 APERTURE LIST*
%ADD10C,0.100000*%
%ADD11C,5.400000*%
%ADD12R,3.400000X3.100000*%
%ADD13R,1.800000X0.700000*%
%ADD14R,1.150000X1.600000*%
%ADD15R,1.600000X1.150000*%
%ADD16R,1.200000X1.200000*%
%ADD17R,2.100000X2.100000*%
%ADD18O,2.100000X2.100000*%
%ADD19R,3.800000X1.000000*%
%ADD20R,3.400000X9.400000*%
%ADD21R,2.300000X1.200000*%
%ADD22R,1.300000X1.600000*%
%ADD23R,1.600000X1.300000*%
%ADD24R,1.900000X1.000000*%
G04 APERTURE END LIST*
D10*
D11*
X115850000Y-62750000D03*
D12*
X165190000Y-71120000D03*
X165190000Y-80780000D03*
D13*
X163190000Y-78700000D03*
X163190000Y-78200000D03*
X163190000Y-77700000D03*
X163190000Y-77200000D03*
X163190000Y-76700000D03*
X163190000Y-76200000D03*
X163190000Y-75700000D03*
X163190000Y-75200000D03*
X163190000Y-74700000D03*
X163190000Y-74200000D03*
X163190000Y-73700000D03*
X163190000Y-73200000D03*
D14*
X140490000Y-71550000D03*
X140490000Y-73450000D03*
X140530000Y-75620000D03*
X140530000Y-77520000D03*
X140480000Y-81890000D03*
X140480000Y-79990000D03*
D15*
X144590000Y-68090000D03*
X146490000Y-68090000D03*
D16*
X132950000Y-85090000D03*
X132950000Y-86690000D03*
D17*
X125580000Y-64730000D03*
D18*
X128120000Y-64730000D03*
X130660000Y-64730000D03*
D17*
X165354000Y-88138000D03*
D18*
X162814000Y-88138000D03*
D17*
X118618000Y-86868000D03*
D18*
X121158000Y-86868000D03*
D19*
X114554000Y-79883000D03*
X114554000Y-78613000D03*
X114554000Y-77343000D03*
X114554000Y-76073000D03*
X114554000Y-74803000D03*
X114554000Y-73533000D03*
X114554000Y-72263000D03*
X114554000Y-70993000D03*
D20*
X130554000Y-75438000D03*
D17*
X137240000Y-83320000D03*
D18*
X137240000Y-80780000D03*
X137240000Y-78240000D03*
D17*
X136860000Y-72350000D03*
D18*
X136860000Y-69810000D03*
X136860000Y-67270000D03*
D17*
X154790000Y-73200000D03*
D18*
X154790000Y-70660000D03*
X154790000Y-68120000D03*
D17*
X154686000Y-83566000D03*
D18*
X154686000Y-81026000D03*
X154686000Y-78486000D03*
D21*
X147550000Y-86040000D03*
X147550000Y-84140000D03*
X144550000Y-85090000D03*
D22*
X158230000Y-84580000D03*
X158230000Y-82380000D03*
D23*
X164170000Y-84190000D03*
X161970000Y-84190000D03*
X127932000Y-85090000D03*
X130132000Y-85090000D03*
D24*
X143180000Y-71295000D03*
X143180000Y-72565000D03*
X143180000Y-73835000D03*
X143180000Y-75105000D03*
X143180000Y-76375000D03*
X143180000Y-77645000D03*
X143180000Y-78915000D03*
X143180000Y-80185000D03*
X148580000Y-80185000D03*
X148580000Y-78915000D03*
X148580000Y-77645000D03*
X148580000Y-76375000D03*
X148580000Y-75105000D03*
X148580000Y-73835000D03*
X148580000Y-72565000D03*
X148580000Y-71295000D03*
D11*
X167530000Y-62470000D03*
M02*
