G04 #@! TF.FileFunction,Legend,Top*
%FSLAX46Y46*%
G04 Gerber Fmt 4.6, Leading zero omitted, Abs format (unit mm)*
G04 Created by KiCad (PCBNEW 4.0.6) date 07/05/17 09:07:04*
%MOMM*%
%LPD*%
G01*
G04 APERTURE LIST*
%ADD10C,0.100000*%
%ADD11C,0.300000*%
%ADD12C,0.010000*%
%ADD13C,0.120000*%
%ADD14C,0.150000*%
%ADD15C,0.250000*%
G04 APERTURE END LIST*
D10*
D11*
X156907143Y-77408571D02*
X157764286Y-77408571D01*
X157335715Y-78908571D02*
X157335715Y-77408571D01*
X158121429Y-77408571D02*
X159121429Y-78908571D01*
X159121429Y-77408571D02*
X158121429Y-78908571D01*
X150990001Y-83098571D02*
X150490001Y-82384286D01*
X150132858Y-83098571D02*
X150132858Y-81598571D01*
X150704286Y-81598571D01*
X150847144Y-81670000D01*
X150918572Y-81741429D01*
X150990001Y-81884286D01*
X150990001Y-82098571D01*
X150918572Y-82241429D01*
X150847144Y-82312857D01*
X150704286Y-82384286D01*
X150132858Y-82384286D01*
X151490001Y-81598571D02*
X152490001Y-83098571D01*
X152490001Y-81598571D02*
X151490001Y-83098571D01*
X158210001Y-74018571D02*
X157710001Y-73304286D01*
X157352858Y-74018571D02*
X157352858Y-72518571D01*
X157924286Y-72518571D01*
X158067144Y-72590000D01*
X158138572Y-72661429D01*
X158210001Y-72804286D01*
X158210001Y-73018571D01*
X158138572Y-73161429D01*
X158067144Y-73232857D01*
X157924286Y-73304286D01*
X157352858Y-73304286D01*
X158710001Y-72518571D02*
X159710001Y-74018571D01*
X159710001Y-72518571D02*
X158710001Y-74018571D01*
X150237143Y-67408571D02*
X151094286Y-67408571D01*
X150665715Y-68908571D02*
X150665715Y-67408571D01*
X151451429Y-67408571D02*
X152451429Y-68908571D01*
X152451429Y-67408571D02*
X151451429Y-68908571D01*
X133410001Y-84028571D02*
X132910001Y-83314286D01*
X132552858Y-84028571D02*
X132552858Y-82528571D01*
X133124286Y-82528571D01*
X133267144Y-82600000D01*
X133338572Y-82671429D01*
X133410001Y-82814286D01*
X133410001Y-83028571D01*
X133338572Y-83171429D01*
X133267144Y-83242857D01*
X133124286Y-83314286D01*
X132552858Y-83314286D01*
X133910001Y-82528571D02*
X134910001Y-84028571D01*
X134910001Y-82528571D02*
X133910001Y-84028571D01*
X132687143Y-77638571D02*
X133544286Y-77638571D01*
X133115715Y-79138571D02*
X133115715Y-77638571D01*
X133901429Y-77638571D02*
X134901429Y-79138571D01*
X134901429Y-77638571D02*
X133901429Y-79138571D01*
X133140001Y-73148571D02*
X132640001Y-72434286D01*
X132282858Y-73148571D02*
X132282858Y-71648571D01*
X132854286Y-71648571D01*
X132997144Y-71720000D01*
X133068572Y-71791429D01*
X133140001Y-71934286D01*
X133140001Y-72148571D01*
X133068572Y-72291429D01*
X132997144Y-72362857D01*
X132854286Y-72434286D01*
X132282858Y-72434286D01*
X133640001Y-71648571D02*
X134640001Y-73148571D01*
X134640001Y-71648571D02*
X133640001Y-73148571D01*
X132477143Y-66618571D02*
X133334286Y-66618571D01*
X132905715Y-68118571D02*
X132905715Y-66618571D01*
X133691429Y-66618571D02*
X134691429Y-68118571D01*
X134691429Y-66618571D02*
X133691429Y-68118571D01*
X130634287Y-60968571D02*
X129920001Y-60968571D01*
X129848572Y-61682857D01*
X129920001Y-61611429D01*
X130062858Y-61540000D01*
X130420001Y-61540000D01*
X130562858Y-61611429D01*
X130634287Y-61682857D01*
X130705715Y-61825714D01*
X130705715Y-62182857D01*
X130634287Y-62325714D01*
X130562858Y-62397143D01*
X130420001Y-62468571D01*
X130062858Y-62468571D01*
X129920001Y-62397143D01*
X129848572Y-62325714D01*
X131134286Y-60968571D02*
X131634286Y-62468571D01*
X132134286Y-60968571D01*
X122935715Y-61048571D02*
X123864286Y-61048571D01*
X123364286Y-61620000D01*
X123578572Y-61620000D01*
X123721429Y-61691429D01*
X123792858Y-61762857D01*
X123864286Y-61905714D01*
X123864286Y-62262857D01*
X123792858Y-62405714D01*
X123721429Y-62477143D01*
X123578572Y-62548571D01*
X123150000Y-62548571D01*
X123007143Y-62477143D01*
X122935715Y-62405714D01*
X124507143Y-62405714D02*
X124578571Y-62477143D01*
X124507143Y-62548571D01*
X124435714Y-62477143D01*
X124507143Y-62405714D01*
X124507143Y-62548571D01*
X125078572Y-61048571D02*
X126007143Y-61048571D01*
X125507143Y-61620000D01*
X125721429Y-61620000D01*
X125864286Y-61691429D01*
X125935715Y-61762857D01*
X126007143Y-61905714D01*
X126007143Y-62262857D01*
X125935715Y-62405714D01*
X125864286Y-62477143D01*
X125721429Y-62548571D01*
X125292857Y-62548571D01*
X125150000Y-62477143D01*
X125078572Y-62405714D01*
X126435714Y-61048571D02*
X126935714Y-62548571D01*
X127435714Y-61048571D01*
D12*
G36*
X138836200Y-63166400D02*
X138226003Y-63166400D01*
X138232651Y-62182150D01*
X138239300Y-61197900D01*
X138537750Y-61190743D01*
X138836200Y-61183587D01*
X138836200Y-63166400D01*
X138836200Y-63166400D01*
G37*
X138836200Y-63166400D02*
X138226003Y-63166400D01*
X138232651Y-62182150D01*
X138239300Y-61197900D01*
X138537750Y-61190743D01*
X138836200Y-61183587D01*
X138836200Y-63166400D01*
G36*
X142839947Y-61157566D02*
X142912900Y-61165667D01*
X143166900Y-61197900D01*
X143174875Y-61309237D01*
X143177876Y-61377503D01*
X143169592Y-61406768D01*
X143143788Y-61408583D01*
X143124075Y-61403308D01*
X143047903Y-61389326D01*
X142934670Y-61378751D01*
X142798020Y-61371844D01*
X142651595Y-61368868D01*
X142509038Y-61370085D01*
X142383991Y-61375755D01*
X142290096Y-61386142D01*
X142284319Y-61387188D01*
X142131484Y-61425529D01*
X142027997Y-61474070D01*
X141973269Y-61533685D01*
X141966711Y-61605246D01*
X142007734Y-61689625D01*
X142047273Y-61738412D01*
X142092336Y-61784312D01*
X142142883Y-61825412D01*
X142206986Y-61866277D01*
X142292716Y-61911471D01*
X142408146Y-61965559D01*
X142561347Y-62033105D01*
X142591331Y-62046083D01*
X142834301Y-62158088D01*
X143030671Y-62264374D01*
X143184035Y-62367029D01*
X143270544Y-62440532D01*
X143382800Y-62548092D01*
X143382800Y-61185200D01*
X145059200Y-61185200D01*
X145059200Y-61388400D01*
X143916200Y-61388400D01*
X143916200Y-62048800D01*
X145008400Y-62048800D01*
X145008400Y-62252000D01*
X143916200Y-62252000D01*
X143916200Y-62963200D01*
X145059200Y-62963200D01*
X145059200Y-63166400D01*
X143382800Y-63166400D01*
X143382800Y-62778549D01*
X143333367Y-62841392D01*
X143283603Y-62885537D01*
X143205447Y-62935369D01*
X143136017Y-62970616D01*
X142874780Y-63064633D01*
X142585717Y-63127537D01*
X142282570Y-63157416D01*
X141979080Y-63152359D01*
X141890581Y-63143809D01*
X141738316Y-63126128D01*
X141629692Y-63112219D01*
X141557978Y-63099295D01*
X141516440Y-63084569D01*
X141498346Y-63065254D01*
X141496963Y-63038561D01*
X141505559Y-63001705D01*
X141509626Y-62986092D01*
X141530391Y-62923882D01*
X141551553Y-62889433D01*
X141557078Y-62887000D01*
X141590469Y-62891122D01*
X141661526Y-62902179D01*
X141757904Y-62918207D01*
X141814338Y-62927925D01*
X142039456Y-62954031D01*
X142250356Y-62953103D01*
X142439332Y-62926277D01*
X142598681Y-62874689D01*
X142720697Y-62799476D01*
X142727821Y-62793193D01*
X142768815Y-62725678D01*
X142767426Y-62644647D01*
X142725145Y-62562193D01*
X142695373Y-62529881D01*
X142649897Y-62496991D01*
X142566769Y-62446160D01*
X142453924Y-62381866D01*
X142319294Y-62308589D01*
X142170814Y-62230809D01*
X142117189Y-62203426D01*
X141963301Y-62123673D01*
X141818283Y-62045350D01*
X141690663Y-61973308D01*
X141588969Y-61912400D01*
X141521729Y-61867476D01*
X141509215Y-61857556D01*
X141401600Y-61765441D01*
X141401600Y-63166400D01*
X141128550Y-63164783D01*
X140855500Y-63163167D01*
X139610900Y-61724147D01*
X139604160Y-62445273D01*
X139597420Y-63166400D01*
X139038803Y-63166400D01*
X139045451Y-62182150D01*
X139052100Y-61197900D01*
X139588040Y-61183584D01*
X140855500Y-62578016D01*
X140862251Y-61881608D01*
X140869003Y-61185199D01*
X141135301Y-61185199D01*
X141401600Y-61185200D01*
X141401600Y-61491978D01*
X141458750Y-61436901D01*
X141574713Y-61353197D01*
X141731926Y-61281457D01*
X141921908Y-61223262D01*
X142136180Y-61180194D01*
X142366263Y-61153834D01*
X142603679Y-61145764D01*
X142839947Y-61157566D01*
X142839947Y-61157566D01*
G37*
X142839947Y-61157566D02*
X142912900Y-61165667D01*
X143166900Y-61197900D01*
X143174875Y-61309237D01*
X143177876Y-61377503D01*
X143169592Y-61406768D01*
X143143788Y-61408583D01*
X143124075Y-61403308D01*
X143047903Y-61389326D01*
X142934670Y-61378751D01*
X142798020Y-61371844D01*
X142651595Y-61368868D01*
X142509038Y-61370085D01*
X142383991Y-61375755D01*
X142290096Y-61386142D01*
X142284319Y-61387188D01*
X142131484Y-61425529D01*
X142027997Y-61474070D01*
X141973269Y-61533685D01*
X141966711Y-61605246D01*
X142007734Y-61689625D01*
X142047273Y-61738412D01*
X142092336Y-61784312D01*
X142142883Y-61825412D01*
X142206986Y-61866277D01*
X142292716Y-61911471D01*
X142408146Y-61965559D01*
X142561347Y-62033105D01*
X142591331Y-62046083D01*
X142834301Y-62158088D01*
X143030671Y-62264374D01*
X143184035Y-62367029D01*
X143270544Y-62440532D01*
X143382800Y-62548092D01*
X143382800Y-61185200D01*
X145059200Y-61185200D01*
X145059200Y-61388400D01*
X143916200Y-61388400D01*
X143916200Y-62048800D01*
X145008400Y-62048800D01*
X145008400Y-62252000D01*
X143916200Y-62252000D01*
X143916200Y-62963200D01*
X145059200Y-62963200D01*
X145059200Y-63166400D01*
X143382800Y-63166400D01*
X143382800Y-62778549D01*
X143333367Y-62841392D01*
X143283603Y-62885537D01*
X143205447Y-62935369D01*
X143136017Y-62970616D01*
X142874780Y-63064633D01*
X142585717Y-63127537D01*
X142282570Y-63157416D01*
X141979080Y-63152359D01*
X141890581Y-63143809D01*
X141738316Y-63126128D01*
X141629692Y-63112219D01*
X141557978Y-63099295D01*
X141516440Y-63084569D01*
X141498346Y-63065254D01*
X141496963Y-63038561D01*
X141505559Y-63001705D01*
X141509626Y-62986092D01*
X141530391Y-62923882D01*
X141551553Y-62889433D01*
X141557078Y-62887000D01*
X141590469Y-62891122D01*
X141661526Y-62902179D01*
X141757904Y-62918207D01*
X141814338Y-62927925D01*
X142039456Y-62954031D01*
X142250356Y-62953103D01*
X142439332Y-62926277D01*
X142598681Y-62874689D01*
X142720697Y-62799476D01*
X142727821Y-62793193D01*
X142768815Y-62725678D01*
X142767426Y-62644647D01*
X142725145Y-62562193D01*
X142695373Y-62529881D01*
X142649897Y-62496991D01*
X142566769Y-62446160D01*
X142453924Y-62381866D01*
X142319294Y-62308589D01*
X142170814Y-62230809D01*
X142117189Y-62203426D01*
X141963301Y-62123673D01*
X141818283Y-62045350D01*
X141690663Y-61973308D01*
X141588969Y-61912400D01*
X141521729Y-61867476D01*
X141509215Y-61857556D01*
X141401600Y-61765441D01*
X141401600Y-63166400D01*
X141128550Y-63164783D01*
X140855500Y-63163167D01*
X139610900Y-61724147D01*
X139604160Y-62445273D01*
X139597420Y-63166400D01*
X139038803Y-63166400D01*
X139045451Y-62182150D01*
X139052100Y-61197900D01*
X139588040Y-61183584D01*
X140855500Y-62578016D01*
X140862251Y-61881608D01*
X140869003Y-61185199D01*
X141135301Y-61185199D01*
X141401600Y-61185200D01*
X141401600Y-61491978D01*
X141458750Y-61436901D01*
X141574713Y-61353197D01*
X141731926Y-61281457D01*
X141921908Y-61223262D01*
X142136180Y-61180194D01*
X142366263Y-61153834D01*
X142603679Y-61145764D01*
X142839947Y-61157566D01*
G36*
X146068850Y-61191059D02*
X146288370Y-61194325D01*
X146463793Y-61197744D01*
X146601818Y-61201792D01*
X146709146Y-61206945D01*
X146792478Y-61213680D01*
X146858515Y-61222474D01*
X146913956Y-61233801D01*
X146965504Y-61248138D01*
X146992204Y-61256681D01*
X147094573Y-61295293D01*
X147191729Y-61340007D01*
X147252554Y-61374798D01*
X147345200Y-61437669D01*
X147345200Y-61185200D01*
X151155200Y-61185200D01*
X151155200Y-61388400D01*
X150418600Y-61388400D01*
X150418600Y-63166400D01*
X149809000Y-63166400D01*
X149809000Y-61388400D01*
X147878600Y-61388400D01*
X147878600Y-62048800D01*
X148970800Y-62048800D01*
X148970800Y-62252000D01*
X147878600Y-62252000D01*
X147878600Y-62963200D01*
X149021600Y-62963200D01*
X149021600Y-63166400D01*
X147345200Y-63166400D01*
X147345200Y-62022965D01*
X147208473Y-62100129D01*
X147080174Y-62160599D01*
X146933439Y-62205575D01*
X146760369Y-62236478D01*
X146553068Y-62254727D01*
X146310153Y-62261696D01*
X145922807Y-62264700D01*
X145922803Y-62715550D01*
X145922800Y-63166400D01*
X145313200Y-63166400D01*
X145313200Y-61363000D01*
X145922800Y-61363000D01*
X145922800Y-62080858D01*
X146185173Y-62069189D01*
X146328648Y-62059721D01*
X146434939Y-62044541D01*
X146517551Y-62021263D01*
X146560377Y-62002900D01*
X146667646Y-61929392D01*
X146736524Y-61834933D01*
X146760905Y-61727910D01*
X146760905Y-61727380D01*
X146739594Y-61632261D01*
X146684704Y-61538403D01*
X146609447Y-61466843D01*
X146590160Y-61455499D01*
X146498867Y-61421523D01*
X146374016Y-61392774D01*
X146232801Y-61372313D01*
X146092418Y-61363200D01*
X146070535Y-61363000D01*
X145922800Y-61363000D01*
X145313200Y-61363000D01*
X145313200Y-61180683D01*
X146068850Y-61191059D01*
X146068850Y-61191059D01*
G37*
X146068850Y-61191059D02*
X146288370Y-61194325D01*
X146463793Y-61197744D01*
X146601818Y-61201792D01*
X146709146Y-61206945D01*
X146792478Y-61213680D01*
X146858515Y-61222474D01*
X146913956Y-61233801D01*
X146965504Y-61248138D01*
X146992204Y-61256681D01*
X147094573Y-61295293D01*
X147191729Y-61340007D01*
X147252554Y-61374798D01*
X147345200Y-61437669D01*
X147345200Y-61185200D01*
X151155200Y-61185200D01*
X151155200Y-61388400D01*
X150418600Y-61388400D01*
X150418600Y-63166400D01*
X149809000Y-63166400D01*
X149809000Y-61388400D01*
X147878600Y-61388400D01*
X147878600Y-62048800D01*
X148970800Y-62048800D01*
X148970800Y-62252000D01*
X147878600Y-62252000D01*
X147878600Y-62963200D01*
X149021600Y-62963200D01*
X149021600Y-63166400D01*
X147345200Y-63166400D01*
X147345200Y-62022965D01*
X147208473Y-62100129D01*
X147080174Y-62160599D01*
X146933439Y-62205575D01*
X146760369Y-62236478D01*
X146553068Y-62254727D01*
X146310153Y-62261696D01*
X145922807Y-62264700D01*
X145922803Y-62715550D01*
X145922800Y-63166400D01*
X145313200Y-63166400D01*
X145313200Y-61363000D01*
X145922800Y-61363000D01*
X145922800Y-62080858D01*
X146185173Y-62069189D01*
X146328648Y-62059721D01*
X146434939Y-62044541D01*
X146517551Y-62021263D01*
X146560377Y-62002900D01*
X146667646Y-61929392D01*
X146736524Y-61834933D01*
X146760905Y-61727910D01*
X146760905Y-61727380D01*
X146739594Y-61632261D01*
X146684704Y-61538403D01*
X146609447Y-61466843D01*
X146590160Y-61455499D01*
X146498867Y-61421523D01*
X146374016Y-61392774D01*
X146232801Y-61372313D01*
X146092418Y-61363200D01*
X146070535Y-61363000D01*
X145922800Y-61363000D01*
X145313200Y-61363000D01*
X145313200Y-61180683D01*
X146068850Y-61191059D01*
G36*
X135545786Y-59905626D02*
X135594273Y-59925279D01*
X135667690Y-59967985D01*
X135703648Y-59990369D01*
X135869577Y-60094406D01*
X136042919Y-59994467D01*
X136125904Y-59949321D01*
X136191298Y-59918779D01*
X136227623Y-59908057D01*
X136230830Y-59909097D01*
X136241507Y-59942732D01*
X136245400Y-59995117D01*
X136236271Y-60045645D01*
X136200919Y-60084768D01*
X136139997Y-60120340D01*
X136034594Y-60174112D01*
X136271209Y-60299093D01*
X136507825Y-60424074D01*
X136653867Y-60309337D01*
X136728843Y-60253216D01*
X136790219Y-60212332D01*
X136825772Y-60194763D01*
X136827454Y-60194599D01*
X136847053Y-60216599D01*
X136855000Y-60268168D01*
X136838027Y-60335815D01*
X136782178Y-60405019D01*
X136763432Y-60422134D01*
X136711994Y-60470315D01*
X136683241Y-60503245D01*
X136680882Y-60510772D01*
X136705688Y-60524537D01*
X136767374Y-60556505D01*
X136857328Y-60602272D01*
X136966941Y-60657434D01*
X136997253Y-60672599D01*
X137304607Y-60826185D01*
X137440265Y-60688821D01*
X137505625Y-60624446D01*
X137555868Y-60578356D01*
X137581854Y-60558850D01*
X137583350Y-60558883D01*
X137577601Y-60583949D01*
X137557395Y-60650087D01*
X137524982Y-60750394D01*
X137482609Y-60877968D01*
X137432527Y-61025906D01*
X137405460Y-61104881D01*
X137344086Y-61281977D01*
X137295388Y-61418120D01*
X137256057Y-61520574D01*
X137222781Y-61596607D01*
X137192251Y-61653482D01*
X137161155Y-61698467D01*
X137126183Y-61738825D01*
X137107992Y-61757726D01*
X137044873Y-61815372D01*
X136991924Y-61851947D01*
X136963520Y-61859597D01*
X136937606Y-61869404D01*
X136931200Y-61905832D01*
X136911962Y-61956926D01*
X136855844Y-62036917D01*
X136765240Y-62142480D01*
X136744800Y-62164643D01*
X136558401Y-62364816D01*
X136490800Y-62320522D01*
X136423200Y-62276228D01*
X136423200Y-62400747D01*
X136422265Y-62448175D01*
X136416086Y-62487815D01*
X136399601Y-62527201D01*
X136367750Y-62573872D01*
X136315469Y-62635363D01*
X136237698Y-62719212D01*
X136141331Y-62820433D01*
X136045111Y-62920096D01*
X135960915Y-63005236D01*
X135894999Y-63069690D01*
X135853620Y-63107294D01*
X135842881Y-63114421D01*
X135820694Y-63096508D01*
X135769948Y-63047723D01*
X135696829Y-62974254D01*
X135607525Y-62882284D01*
X135540550Y-62812165D01*
X135434533Y-62699953D01*
X135358624Y-62617070D01*
X135307798Y-62556151D01*
X135277029Y-62509833D01*
X135261291Y-62470752D01*
X135255559Y-62431545D01*
X135254800Y-62393483D01*
X135254800Y-62275879D01*
X135180186Y-62331043D01*
X135105572Y-62386208D01*
X134914520Y-62185754D01*
X134820563Y-62083109D01*
X134760472Y-62006725D01*
X134729477Y-61949877D01*
X134722434Y-61914966D01*
X134715404Y-61865519D01*
X134688000Y-61853875D01*
X134664250Y-61857986D01*
X134626712Y-61857100D01*
X134583490Y-61832390D01*
X134525341Y-61777267D01*
X134477909Y-61725120D01*
X134435106Y-61675133D01*
X134414844Y-61648150D01*
X135078628Y-61648150D01*
X135438699Y-62026275D01*
X135547825Y-62139998D01*
X135645402Y-62240029D01*
X135725960Y-62320893D01*
X135784025Y-62377115D01*
X135814125Y-62403220D01*
X135816663Y-62404400D01*
X135838575Y-62386745D01*
X135889972Y-62337310D01*
X135965610Y-62261390D01*
X136060245Y-62164279D01*
X136168634Y-62051272D01*
X136220062Y-61997105D01*
X136605567Y-61589810D01*
X136241333Y-61336470D01*
X136121301Y-61254648D01*
X136014640Y-61185080D01*
X135928641Y-61132271D01*
X135870594Y-61100726D01*
X135848814Y-61093938D01*
X135820055Y-61111824D01*
X135757520Y-61154872D01*
X135668299Y-61218065D01*
X135559480Y-61296387D01*
X135449578Y-61376448D01*
X135078628Y-61648150D01*
X134414844Y-61648150D01*
X134399537Y-61627767D01*
X134367789Y-61575432D01*
X134336447Y-61510538D01*
X134302099Y-61425494D01*
X134261330Y-61312711D01*
X134210727Y-61164598D01*
X134166858Y-61033533D01*
X134149065Y-60980173D01*
X134511611Y-60980173D01*
X134520824Y-61004010D01*
X134559585Y-61057008D01*
X134622050Y-61131886D01*
X134702372Y-61221364D01*
X134723447Y-61243978D01*
X134954572Y-61490240D01*
X135136436Y-61361067D01*
X135250951Y-61279887D01*
X135380091Y-61188576D01*
X135496902Y-61106190D01*
X135502450Y-61102285D01*
X135584325Y-61043102D01*
X135647345Y-60994583D01*
X135682093Y-60964115D01*
X135685998Y-60958287D01*
X135676020Y-60948767D01*
X136036036Y-60948767D01*
X136388368Y-61192406D01*
X136740700Y-61436044D01*
X136974399Y-61189972D01*
X137060092Y-61097541D01*
X137130630Y-61017241D01*
X137179712Y-60956569D01*
X137201040Y-60923018D01*
X137201359Y-60919931D01*
X137177536Y-60900139D01*
X137116740Y-60862225D01*
X137027296Y-60811059D01*
X136917529Y-60751511D01*
X136876810Y-60730091D01*
X136558999Y-60564219D01*
X136357749Y-60710074D01*
X136263533Y-60778638D01*
X136178625Y-60840928D01*
X136115737Y-60887597D01*
X136096268Y-60902348D01*
X136036036Y-60948767D01*
X135676020Y-60948767D01*
X135665857Y-60939071D01*
X135612899Y-60899861D01*
X135537459Y-60847475D01*
X135449866Y-60788733D01*
X135360453Y-60730454D01*
X135279551Y-60679457D01*
X135217492Y-60642562D01*
X135184608Y-60626587D01*
X135183161Y-60626400D01*
X135154813Y-60637724D01*
X135091795Y-60668221D01*
X135004002Y-60712678D01*
X134901329Y-60765884D01*
X134793670Y-60822625D01*
X134690920Y-60877689D01*
X134602973Y-60925864D01*
X134539725Y-60961937D01*
X134511611Y-60980173D01*
X134149065Y-60980173D01*
X133984996Y-60488166D01*
X134353100Y-60852818D01*
X134694662Y-60688029D01*
X134815146Y-60629485D01*
X134918726Y-60578366D01*
X134997060Y-60538851D01*
X135041805Y-60515119D01*
X135048848Y-60510618D01*
X135039467Y-60490610D01*
X135364849Y-60490610D01*
X135394630Y-60513127D01*
X135454404Y-60554998D01*
X135533928Y-60609363D01*
X135622959Y-60669361D01*
X135711254Y-60728134D01*
X135788571Y-60778821D01*
X135844666Y-60814562D01*
X135869297Y-60828497D01*
X135869377Y-60828505D01*
X135895974Y-60815110D01*
X135954819Y-60777913D01*
X136036926Y-60722781D01*
X136123377Y-60662615D01*
X136217897Y-60594726D01*
X136295646Y-60536800D01*
X136348010Y-60495393D01*
X136366309Y-60477687D01*
X136348010Y-60459352D01*
X136293352Y-60423644D01*
X136211318Y-60376098D01*
X136132510Y-60333521D01*
X135892101Y-60207300D01*
X135626350Y-60346982D01*
X135523439Y-60401562D01*
X135439821Y-60446841D01*
X135384094Y-60478100D01*
X135364849Y-60490610D01*
X135039467Y-60490610D01*
X135038633Y-60488833D01*
X134998517Y-60447458D01*
X134967635Y-60420648D01*
X134908669Y-60365593D01*
X134881233Y-60314506D01*
X134873878Y-60244266D01*
X134873800Y-60231147D01*
X134873800Y-60118992D01*
X135053005Y-60257454D01*
X135232211Y-60395916D01*
X135364155Y-60336850D01*
X135503859Y-60272822D01*
X135615783Y-60218500D01*
X135694296Y-60176778D01*
X135733769Y-60150548D01*
X135737366Y-60145088D01*
X135716677Y-60127171D01*
X135662098Y-60092782D01*
X135584803Y-60048896D01*
X135573026Y-60042511D01*
X135489452Y-59996782D01*
X135444813Y-59968061D01*
X135433326Y-59949256D01*
X135449209Y-59933276D01*
X135473221Y-59920127D01*
X135509633Y-59905189D01*
X135545786Y-59905626D01*
X135545786Y-59905626D01*
G37*
X135545786Y-59905626D02*
X135594273Y-59925279D01*
X135667690Y-59967985D01*
X135703648Y-59990369D01*
X135869577Y-60094406D01*
X136042919Y-59994467D01*
X136125904Y-59949321D01*
X136191298Y-59918779D01*
X136227623Y-59908057D01*
X136230830Y-59909097D01*
X136241507Y-59942732D01*
X136245400Y-59995117D01*
X136236271Y-60045645D01*
X136200919Y-60084768D01*
X136139997Y-60120340D01*
X136034594Y-60174112D01*
X136271209Y-60299093D01*
X136507825Y-60424074D01*
X136653867Y-60309337D01*
X136728843Y-60253216D01*
X136790219Y-60212332D01*
X136825772Y-60194763D01*
X136827454Y-60194599D01*
X136847053Y-60216599D01*
X136855000Y-60268168D01*
X136838027Y-60335815D01*
X136782178Y-60405019D01*
X136763432Y-60422134D01*
X136711994Y-60470315D01*
X136683241Y-60503245D01*
X136680882Y-60510772D01*
X136705688Y-60524537D01*
X136767374Y-60556505D01*
X136857328Y-60602272D01*
X136966941Y-60657434D01*
X136997253Y-60672599D01*
X137304607Y-60826185D01*
X137440265Y-60688821D01*
X137505625Y-60624446D01*
X137555868Y-60578356D01*
X137581854Y-60558850D01*
X137583350Y-60558883D01*
X137577601Y-60583949D01*
X137557395Y-60650087D01*
X137524982Y-60750394D01*
X137482609Y-60877968D01*
X137432527Y-61025906D01*
X137405460Y-61104881D01*
X137344086Y-61281977D01*
X137295388Y-61418120D01*
X137256057Y-61520574D01*
X137222781Y-61596607D01*
X137192251Y-61653482D01*
X137161155Y-61698467D01*
X137126183Y-61738825D01*
X137107992Y-61757726D01*
X137044873Y-61815372D01*
X136991924Y-61851947D01*
X136963520Y-61859597D01*
X136937606Y-61869404D01*
X136931200Y-61905832D01*
X136911962Y-61956926D01*
X136855844Y-62036917D01*
X136765240Y-62142480D01*
X136744800Y-62164643D01*
X136558401Y-62364816D01*
X136490800Y-62320522D01*
X136423200Y-62276228D01*
X136423200Y-62400747D01*
X136422265Y-62448175D01*
X136416086Y-62487815D01*
X136399601Y-62527201D01*
X136367750Y-62573872D01*
X136315469Y-62635363D01*
X136237698Y-62719212D01*
X136141331Y-62820433D01*
X136045111Y-62920096D01*
X135960915Y-63005236D01*
X135894999Y-63069690D01*
X135853620Y-63107294D01*
X135842881Y-63114421D01*
X135820694Y-63096508D01*
X135769948Y-63047723D01*
X135696829Y-62974254D01*
X135607525Y-62882284D01*
X135540550Y-62812165D01*
X135434533Y-62699953D01*
X135358624Y-62617070D01*
X135307798Y-62556151D01*
X135277029Y-62509833D01*
X135261291Y-62470752D01*
X135255559Y-62431545D01*
X135254800Y-62393483D01*
X135254800Y-62275879D01*
X135180186Y-62331043D01*
X135105572Y-62386208D01*
X134914520Y-62185754D01*
X134820563Y-62083109D01*
X134760472Y-62006725D01*
X134729477Y-61949877D01*
X134722434Y-61914966D01*
X134715404Y-61865519D01*
X134688000Y-61853875D01*
X134664250Y-61857986D01*
X134626712Y-61857100D01*
X134583490Y-61832390D01*
X134525341Y-61777267D01*
X134477909Y-61725120D01*
X134435106Y-61675133D01*
X134414844Y-61648150D01*
X135078628Y-61648150D01*
X135438699Y-62026275D01*
X135547825Y-62139998D01*
X135645402Y-62240029D01*
X135725960Y-62320893D01*
X135784025Y-62377115D01*
X135814125Y-62403220D01*
X135816663Y-62404400D01*
X135838575Y-62386745D01*
X135889972Y-62337310D01*
X135965610Y-62261390D01*
X136060245Y-62164279D01*
X136168634Y-62051272D01*
X136220062Y-61997105D01*
X136605567Y-61589810D01*
X136241333Y-61336470D01*
X136121301Y-61254648D01*
X136014640Y-61185080D01*
X135928641Y-61132271D01*
X135870594Y-61100726D01*
X135848814Y-61093938D01*
X135820055Y-61111824D01*
X135757520Y-61154872D01*
X135668299Y-61218065D01*
X135559480Y-61296387D01*
X135449578Y-61376448D01*
X135078628Y-61648150D01*
X134414844Y-61648150D01*
X134399537Y-61627767D01*
X134367789Y-61575432D01*
X134336447Y-61510538D01*
X134302099Y-61425494D01*
X134261330Y-61312711D01*
X134210727Y-61164598D01*
X134166858Y-61033533D01*
X134149065Y-60980173D01*
X134511611Y-60980173D01*
X134520824Y-61004010D01*
X134559585Y-61057008D01*
X134622050Y-61131886D01*
X134702372Y-61221364D01*
X134723447Y-61243978D01*
X134954572Y-61490240D01*
X135136436Y-61361067D01*
X135250951Y-61279887D01*
X135380091Y-61188576D01*
X135496902Y-61106190D01*
X135502450Y-61102285D01*
X135584325Y-61043102D01*
X135647345Y-60994583D01*
X135682093Y-60964115D01*
X135685998Y-60958287D01*
X135676020Y-60948767D01*
X136036036Y-60948767D01*
X136388368Y-61192406D01*
X136740700Y-61436044D01*
X136974399Y-61189972D01*
X137060092Y-61097541D01*
X137130630Y-61017241D01*
X137179712Y-60956569D01*
X137201040Y-60923018D01*
X137201359Y-60919931D01*
X137177536Y-60900139D01*
X137116740Y-60862225D01*
X137027296Y-60811059D01*
X136917529Y-60751511D01*
X136876810Y-60730091D01*
X136558999Y-60564219D01*
X136357749Y-60710074D01*
X136263533Y-60778638D01*
X136178625Y-60840928D01*
X136115737Y-60887597D01*
X136096268Y-60902348D01*
X136036036Y-60948767D01*
X135676020Y-60948767D01*
X135665857Y-60939071D01*
X135612899Y-60899861D01*
X135537459Y-60847475D01*
X135449866Y-60788733D01*
X135360453Y-60730454D01*
X135279551Y-60679457D01*
X135217492Y-60642562D01*
X135184608Y-60626587D01*
X135183161Y-60626400D01*
X135154813Y-60637724D01*
X135091795Y-60668221D01*
X135004002Y-60712678D01*
X134901329Y-60765884D01*
X134793670Y-60822625D01*
X134690920Y-60877689D01*
X134602973Y-60925864D01*
X134539725Y-60961937D01*
X134511611Y-60980173D01*
X134149065Y-60980173D01*
X133984996Y-60488166D01*
X134353100Y-60852818D01*
X134694662Y-60688029D01*
X134815146Y-60629485D01*
X134918726Y-60578366D01*
X134997060Y-60538851D01*
X135041805Y-60515119D01*
X135048848Y-60510618D01*
X135039467Y-60490610D01*
X135364849Y-60490610D01*
X135394630Y-60513127D01*
X135454404Y-60554998D01*
X135533928Y-60609363D01*
X135622959Y-60669361D01*
X135711254Y-60728134D01*
X135788571Y-60778821D01*
X135844666Y-60814562D01*
X135869297Y-60828497D01*
X135869377Y-60828505D01*
X135895974Y-60815110D01*
X135954819Y-60777913D01*
X136036926Y-60722781D01*
X136123377Y-60662615D01*
X136217897Y-60594726D01*
X136295646Y-60536800D01*
X136348010Y-60495393D01*
X136366309Y-60477687D01*
X136348010Y-60459352D01*
X136293352Y-60423644D01*
X136211318Y-60376098D01*
X136132510Y-60333521D01*
X135892101Y-60207300D01*
X135626350Y-60346982D01*
X135523439Y-60401562D01*
X135439821Y-60446841D01*
X135384094Y-60478100D01*
X135364849Y-60490610D01*
X135039467Y-60490610D01*
X135038633Y-60488833D01*
X134998517Y-60447458D01*
X134967635Y-60420648D01*
X134908669Y-60365593D01*
X134881233Y-60314506D01*
X134873878Y-60244266D01*
X134873800Y-60231147D01*
X134873800Y-60118992D01*
X135053005Y-60257454D01*
X135232211Y-60395916D01*
X135364155Y-60336850D01*
X135503859Y-60272822D01*
X135615783Y-60218500D01*
X135694296Y-60176778D01*
X135733769Y-60150548D01*
X135737366Y-60145088D01*
X135716677Y-60127171D01*
X135662098Y-60092782D01*
X135584803Y-60048896D01*
X135573026Y-60042511D01*
X135489452Y-59996782D01*
X135444813Y-59968061D01*
X135433326Y-59949256D01*
X135449209Y-59933276D01*
X135473221Y-59920127D01*
X135509633Y-59905189D01*
X135545786Y-59905626D01*
G36*
X148001520Y-60580325D02*
X148059851Y-60631565D01*
X148081237Y-60713567D01*
X148081411Y-60724760D01*
X148074655Y-60809620D01*
X148048738Y-60860467D01*
X147993859Y-60885517D01*
X147900216Y-60892987D01*
X147880600Y-60893100D01*
X147795741Y-60894693D01*
X147749137Y-60902691D01*
X147728270Y-60921918D01*
X147720924Y-60954641D01*
X147703565Y-61005969D01*
X147681750Y-61026607D01*
X147665797Y-61018342D01*
X147655833Y-60976653D01*
X147650926Y-60895170D01*
X147650000Y-60809769D01*
X147650000Y-60732216D01*
X147731143Y-60732216D01*
X147731831Y-60798575D01*
X147752031Y-60830343D01*
X147769243Y-60837220D01*
X147875896Y-60851280D01*
X147963001Y-60836697D01*
X147990224Y-60821997D01*
X148025303Y-60766065D01*
X148026829Y-60714047D01*
X148019117Y-60671156D01*
X147999739Y-60648847D01*
X147955409Y-60640401D01*
X147878600Y-60639100D01*
X147738900Y-60639100D01*
X147731143Y-60732216D01*
X147650000Y-60732216D01*
X147650000Y-60582504D01*
X147766799Y-60566495D01*
X147904438Y-60558938D01*
X148001520Y-60580325D01*
X148001520Y-60580325D01*
G37*
X148001520Y-60580325D02*
X148059851Y-60631565D01*
X148081237Y-60713567D01*
X148081411Y-60724760D01*
X148074655Y-60809620D01*
X148048738Y-60860467D01*
X147993859Y-60885517D01*
X147900216Y-60892987D01*
X147880600Y-60893100D01*
X147795741Y-60894693D01*
X147749137Y-60902691D01*
X147728270Y-60921918D01*
X147720924Y-60954641D01*
X147703565Y-61005969D01*
X147681750Y-61026607D01*
X147665797Y-61018342D01*
X147655833Y-60976653D01*
X147650926Y-60895170D01*
X147650000Y-60809769D01*
X147650000Y-60732216D01*
X147731143Y-60732216D01*
X147731831Y-60798575D01*
X147752031Y-60830343D01*
X147769243Y-60837220D01*
X147875896Y-60851280D01*
X147963001Y-60836697D01*
X147990224Y-60821997D01*
X148025303Y-60766065D01*
X148026829Y-60714047D01*
X148019117Y-60671156D01*
X147999739Y-60648847D01*
X147955409Y-60640401D01*
X147878600Y-60639100D01*
X147738900Y-60639100D01*
X147731143Y-60732216D01*
X147650000Y-60732216D01*
X147650000Y-60582504D01*
X147766799Y-60566495D01*
X147904438Y-60558938D01*
X148001520Y-60580325D01*
G36*
X142703415Y-60804206D02*
X143182068Y-60804245D01*
X143614595Y-60804345D01*
X144003333Y-60804538D01*
X144350618Y-60804852D01*
X144658789Y-60805317D01*
X144930181Y-60805963D01*
X145167131Y-60806820D01*
X145371978Y-60807917D01*
X145547057Y-60809283D01*
X145694706Y-60810949D01*
X145817261Y-60812944D01*
X145917059Y-60815298D01*
X145996439Y-60818041D01*
X146057735Y-60821202D01*
X146103286Y-60824811D01*
X146135428Y-60828897D01*
X146156499Y-60833490D01*
X146168835Y-60838621D01*
X146174773Y-60844318D01*
X146176650Y-60850611D01*
X146176800Y-60855000D01*
X146176302Y-60861693D01*
X146173250Y-60867771D01*
X146165307Y-60873264D01*
X146150137Y-60878200D01*
X146125402Y-60882610D01*
X146088765Y-60886523D01*
X146037890Y-60889969D01*
X145970439Y-60892978D01*
X145884076Y-60895580D01*
X145776463Y-60897803D01*
X145645264Y-60899678D01*
X145488141Y-60901234D01*
X145302758Y-60902501D01*
X145086778Y-60903509D01*
X144837863Y-60904288D01*
X144553678Y-60904866D01*
X144231884Y-60905274D01*
X143870144Y-60905542D01*
X143466123Y-60905698D01*
X143017483Y-60905774D01*
X142521886Y-60905798D01*
X142176300Y-60905800D01*
X141649184Y-60905793D01*
X141170531Y-60905754D01*
X140738004Y-60905654D01*
X140349266Y-60905461D01*
X140001981Y-60905147D01*
X139693810Y-60904682D01*
X139422418Y-60904036D01*
X139185468Y-60903179D01*
X138980621Y-60902082D01*
X138805542Y-60900716D01*
X138657893Y-60899050D01*
X138535338Y-60897055D01*
X138435540Y-60894701D01*
X138356160Y-60891958D01*
X138294864Y-60888797D01*
X138249313Y-60885188D01*
X138217171Y-60881102D01*
X138196100Y-60876509D01*
X138183764Y-60871378D01*
X138177826Y-60865681D01*
X138175949Y-60859388D01*
X138175800Y-60855000D01*
X138176297Y-60848306D01*
X138179349Y-60842228D01*
X138187292Y-60836735D01*
X138202462Y-60831799D01*
X138227197Y-60827389D01*
X138263834Y-60823476D01*
X138314709Y-60820030D01*
X138382160Y-60817021D01*
X138468523Y-60814419D01*
X138576136Y-60812196D01*
X138707335Y-60810321D01*
X138864458Y-60808765D01*
X139049841Y-60807498D01*
X139265821Y-60806490D01*
X139514736Y-60805711D01*
X139798921Y-60805133D01*
X140120715Y-60804725D01*
X140482455Y-60804457D01*
X140886476Y-60804301D01*
X141335116Y-60804225D01*
X141830713Y-60804201D01*
X142176300Y-60804200D01*
X142703415Y-60804206D01*
X142703415Y-60804206D01*
G37*
X142703415Y-60804206D02*
X143182068Y-60804245D01*
X143614595Y-60804345D01*
X144003333Y-60804538D01*
X144350618Y-60804852D01*
X144658789Y-60805317D01*
X144930181Y-60805963D01*
X145167131Y-60806820D01*
X145371978Y-60807917D01*
X145547057Y-60809283D01*
X145694706Y-60810949D01*
X145817261Y-60812944D01*
X145917059Y-60815298D01*
X145996439Y-60818041D01*
X146057735Y-60821202D01*
X146103286Y-60824811D01*
X146135428Y-60828897D01*
X146156499Y-60833490D01*
X146168835Y-60838621D01*
X146174773Y-60844318D01*
X146176650Y-60850611D01*
X146176800Y-60855000D01*
X146176302Y-60861693D01*
X146173250Y-60867771D01*
X146165307Y-60873264D01*
X146150137Y-60878200D01*
X146125402Y-60882610D01*
X146088765Y-60886523D01*
X146037890Y-60889969D01*
X145970439Y-60892978D01*
X145884076Y-60895580D01*
X145776463Y-60897803D01*
X145645264Y-60899678D01*
X145488141Y-60901234D01*
X145302758Y-60902501D01*
X145086778Y-60903509D01*
X144837863Y-60904288D01*
X144553678Y-60904866D01*
X144231884Y-60905274D01*
X143870144Y-60905542D01*
X143466123Y-60905698D01*
X143017483Y-60905774D01*
X142521886Y-60905798D01*
X142176300Y-60905800D01*
X141649184Y-60905793D01*
X141170531Y-60905754D01*
X140738004Y-60905654D01*
X140349266Y-60905461D01*
X140001981Y-60905147D01*
X139693810Y-60904682D01*
X139422418Y-60904036D01*
X139185468Y-60903179D01*
X138980621Y-60902082D01*
X138805542Y-60900716D01*
X138657893Y-60899050D01*
X138535338Y-60897055D01*
X138435540Y-60894701D01*
X138356160Y-60891958D01*
X138294864Y-60888797D01*
X138249313Y-60885188D01*
X138217171Y-60881102D01*
X138196100Y-60876509D01*
X138183764Y-60871378D01*
X138177826Y-60865681D01*
X138175949Y-60859388D01*
X138175800Y-60855000D01*
X138176297Y-60848306D01*
X138179349Y-60842228D01*
X138187292Y-60836735D01*
X138202462Y-60831799D01*
X138227197Y-60827389D01*
X138263834Y-60823476D01*
X138314709Y-60820030D01*
X138382160Y-60817021D01*
X138468523Y-60814419D01*
X138576136Y-60812196D01*
X138707335Y-60810321D01*
X138864458Y-60808765D01*
X139049841Y-60807498D01*
X139265821Y-60806490D01*
X139514736Y-60805711D01*
X139798921Y-60805133D01*
X140120715Y-60804725D01*
X140482455Y-60804457D01*
X140886476Y-60804301D01*
X141335116Y-60804225D01*
X141830713Y-60804201D01*
X142176300Y-60804200D01*
X142703415Y-60804206D01*
G36*
X146598254Y-60562158D02*
X146679314Y-60584902D01*
X146732290Y-60621903D01*
X146737489Y-60629931D01*
X146758233Y-60686821D01*
X146744683Y-60724084D01*
X146692043Y-60745047D01*
X146595514Y-60753035D01*
X146559394Y-60753400D01*
X146465452Y-60755180D01*
X146413360Y-60761876D01*
X146394251Y-60775517D01*
X146395949Y-60790809D01*
X146433789Y-60826460D01*
X146501903Y-60845836D01*
X146581765Y-60846764D01*
X146654848Y-60827074D01*
X146664068Y-60822216D01*
X146721277Y-60799046D01*
X146749611Y-60807293D01*
X146742029Y-60844274D01*
X146738360Y-60850534D01*
X146700802Y-60872641D01*
X146630851Y-60888311D01*
X146546693Y-60895825D01*
X146466513Y-60893461D01*
X146412509Y-60881350D01*
X146357701Y-60833862D01*
X146332739Y-60762432D01*
X146336940Y-60683717D01*
X146345997Y-60664500D01*
X146396214Y-60664500D01*
X146396613Y-60686018D01*
X146424972Y-60697731D01*
X146490621Y-60702234D01*
X146533197Y-60702600D01*
X146621426Y-60699646D01*
X146668683Y-60689183D01*
X146684537Y-60668804D01*
X146684800Y-60664500D01*
X146672053Y-60641325D01*
X146627439Y-60629514D01*
X146547817Y-60626400D01*
X146457299Y-60631564D01*
X146408574Y-60648410D01*
X146396214Y-60664500D01*
X146345997Y-60664500D01*
X146369621Y-60614378D01*
X146425159Y-60572838D01*
X146507429Y-60557021D01*
X146598254Y-60562158D01*
X146598254Y-60562158D01*
G37*
X146598254Y-60562158D02*
X146679314Y-60584902D01*
X146732290Y-60621903D01*
X146737489Y-60629931D01*
X146758233Y-60686821D01*
X146744683Y-60724084D01*
X146692043Y-60745047D01*
X146595514Y-60753035D01*
X146559394Y-60753400D01*
X146465452Y-60755180D01*
X146413360Y-60761876D01*
X146394251Y-60775517D01*
X146395949Y-60790809D01*
X146433789Y-60826460D01*
X146501903Y-60845836D01*
X146581765Y-60846764D01*
X146654848Y-60827074D01*
X146664068Y-60822216D01*
X146721277Y-60799046D01*
X146749611Y-60807293D01*
X146742029Y-60844274D01*
X146738360Y-60850534D01*
X146700802Y-60872641D01*
X146630851Y-60888311D01*
X146546693Y-60895825D01*
X146466513Y-60893461D01*
X146412509Y-60881350D01*
X146357701Y-60833862D01*
X146332739Y-60762432D01*
X146336940Y-60683717D01*
X146345997Y-60664500D01*
X146396214Y-60664500D01*
X146396613Y-60686018D01*
X146424972Y-60697731D01*
X146490621Y-60702234D01*
X146533197Y-60702600D01*
X146621426Y-60699646D01*
X146668683Y-60689183D01*
X146684537Y-60668804D01*
X146684800Y-60664500D01*
X146672053Y-60641325D01*
X146627439Y-60629514D01*
X146547817Y-60626400D01*
X146457299Y-60631564D01*
X146408574Y-60648410D01*
X146396214Y-60664500D01*
X146345997Y-60664500D01*
X146369621Y-60614378D01*
X146425159Y-60572838D01*
X146507429Y-60557021D01*
X146598254Y-60562158D01*
G36*
X147468369Y-60571460D02*
X147517718Y-60592450D01*
X147541428Y-60642390D01*
X147548279Y-60731091D01*
X147548400Y-60752602D01*
X147543430Y-60846012D01*
X147531235Y-60895005D01*
X147515883Y-60898134D01*
X147501440Y-60853953D01*
X147492577Y-60772450D01*
X147484900Y-60639100D01*
X147365623Y-60631414D01*
X147246347Y-60623728D01*
X147238623Y-60752397D01*
X147227497Y-60840707D01*
X147210616Y-60880772D01*
X147192504Y-60872182D01*
X147177683Y-60814524D01*
X147172376Y-60758414D01*
X147164652Y-60623728D01*
X146926100Y-60639100D01*
X146918146Y-60753400D01*
X146905822Y-60844095D01*
X146885408Y-60891774D01*
X146858566Y-60892885D01*
X146854556Y-60889289D01*
X146845174Y-60856279D01*
X146838871Y-60788861D01*
X146837200Y-60724051D01*
X146838909Y-60640847D01*
X146847131Y-60596299D01*
X146866502Y-60578298D01*
X146894350Y-60574843D01*
X147032075Y-60572210D01*
X147144253Y-60571524D01*
X147205500Y-60571904D01*
X147294584Y-60571723D01*
X147377139Y-60569910D01*
X147384601Y-60569612D01*
X147468369Y-60571460D01*
X147468369Y-60571460D01*
G37*
X147468369Y-60571460D02*
X147517718Y-60592450D01*
X147541428Y-60642390D01*
X147548279Y-60731091D01*
X147548400Y-60752602D01*
X147543430Y-60846012D01*
X147531235Y-60895005D01*
X147515883Y-60898134D01*
X147501440Y-60853953D01*
X147492577Y-60772450D01*
X147484900Y-60639100D01*
X147365623Y-60631414D01*
X147246347Y-60623728D01*
X147238623Y-60752397D01*
X147227497Y-60840707D01*
X147210616Y-60880772D01*
X147192504Y-60872182D01*
X147177683Y-60814524D01*
X147172376Y-60758414D01*
X147164652Y-60623728D01*
X146926100Y-60639100D01*
X146918146Y-60753400D01*
X146905822Y-60844095D01*
X146885408Y-60891774D01*
X146858566Y-60892885D01*
X146854556Y-60889289D01*
X146845174Y-60856279D01*
X146838871Y-60788861D01*
X146837200Y-60724051D01*
X146838909Y-60640847D01*
X146847131Y-60596299D01*
X146866502Y-60578298D01*
X146894350Y-60574843D01*
X147032075Y-60572210D01*
X147144253Y-60571524D01*
X147205500Y-60571904D01*
X147294584Y-60571723D01*
X147377139Y-60569910D01*
X147384601Y-60569612D01*
X147468369Y-60571460D01*
G36*
X148431653Y-60566527D02*
X148495815Y-60594180D01*
X148527957Y-60631621D01*
X148530276Y-60683955D01*
X148518646Y-60707713D01*
X148492648Y-60710973D01*
X148475881Y-60678401D01*
X148456608Y-60643525D01*
X148418308Y-60630099D01*
X148352708Y-60631394D01*
X148246900Y-60639100D01*
X148239222Y-60772450D01*
X148229465Y-60860178D01*
X148215490Y-60899834D01*
X148200819Y-60893555D01*
X148188971Y-60843475D01*
X148183467Y-60751729D01*
X148183400Y-60738583D01*
X148186219Y-60644344D01*
X148195542Y-60594281D01*
X148212664Y-60582037D01*
X148215150Y-60582751D01*
X148262725Y-60581650D01*
X148291705Y-60571083D01*
X148356800Y-60557081D01*
X148431653Y-60566527D01*
X148431653Y-60566527D01*
G37*
X148431653Y-60566527D02*
X148495815Y-60594180D01*
X148527957Y-60631621D01*
X148530276Y-60683955D01*
X148518646Y-60707713D01*
X148492648Y-60710973D01*
X148475881Y-60678401D01*
X148456608Y-60643525D01*
X148418308Y-60630099D01*
X148352708Y-60631394D01*
X148246900Y-60639100D01*
X148239222Y-60772450D01*
X148229465Y-60860178D01*
X148215490Y-60899834D01*
X148200819Y-60893555D01*
X148188971Y-60843475D01*
X148183467Y-60751729D01*
X148183400Y-60738583D01*
X148186219Y-60644344D01*
X148195542Y-60594281D01*
X148212664Y-60582037D01*
X148215150Y-60582751D01*
X148262725Y-60581650D01*
X148291705Y-60571083D01*
X148356800Y-60557081D01*
X148431653Y-60566527D01*
G36*
X148847054Y-60559439D02*
X148930821Y-60579812D01*
X148988794Y-60616725D01*
X148998089Y-60629931D01*
X149018856Y-60686552D01*
X149005704Y-60723714D01*
X148953766Y-60744736D01*
X148858175Y-60752940D01*
X148817080Y-60753400D01*
X148714894Y-60758596D01*
X148656786Y-60772605D01*
X148644480Y-60793055D01*
X148679700Y-60817573D01*
X148753332Y-60841126D01*
X148833802Y-60852569D01*
X148899322Y-60835690D01*
X148922285Y-60823583D01*
X148977711Y-60801412D01*
X149008899Y-60805453D01*
X149006441Y-60830642D01*
X148982377Y-60855931D01*
X148916375Y-60885817D01*
X148824808Y-60899214D01*
X148730412Y-60895372D01*
X148655926Y-60873536D01*
X148645605Y-60867078D01*
X148607028Y-60828088D01*
X148593418Y-60774557D01*
X148594805Y-60719457D01*
X148602632Y-60670850D01*
X148646950Y-60670850D01*
X148656309Y-60689486D01*
X148704029Y-60699624D01*
X148793000Y-60702600D01*
X148883886Y-60699443D01*
X148930447Y-60689085D01*
X148939050Y-60670850D01*
X148906670Y-60650165D01*
X148830872Y-60639944D01*
X148793000Y-60639100D01*
X148702754Y-60645073D01*
X148653487Y-60662039D01*
X148646950Y-60670850D01*
X148602632Y-60670850D01*
X148606660Y-60645839D01*
X148635773Y-60602969D01*
X148674730Y-60579612D01*
X148755641Y-60558431D01*
X148847054Y-60559439D01*
X148847054Y-60559439D01*
G37*
X148847054Y-60559439D02*
X148930821Y-60579812D01*
X148988794Y-60616725D01*
X148998089Y-60629931D01*
X149018856Y-60686552D01*
X149005704Y-60723714D01*
X148953766Y-60744736D01*
X148858175Y-60752940D01*
X148817080Y-60753400D01*
X148714894Y-60758596D01*
X148656786Y-60772605D01*
X148644480Y-60793055D01*
X148679700Y-60817573D01*
X148753332Y-60841126D01*
X148833802Y-60852569D01*
X148899322Y-60835690D01*
X148922285Y-60823583D01*
X148977711Y-60801412D01*
X149008899Y-60805453D01*
X149006441Y-60830642D01*
X148982377Y-60855931D01*
X148916375Y-60885817D01*
X148824808Y-60899214D01*
X148730412Y-60895372D01*
X148655926Y-60873536D01*
X148645605Y-60867078D01*
X148607028Y-60828088D01*
X148593418Y-60774557D01*
X148594805Y-60719457D01*
X148602632Y-60670850D01*
X148646950Y-60670850D01*
X148656309Y-60689486D01*
X148704029Y-60699624D01*
X148793000Y-60702600D01*
X148883886Y-60699443D01*
X148930447Y-60689085D01*
X148939050Y-60670850D01*
X148906670Y-60650165D01*
X148830872Y-60639944D01*
X148793000Y-60639100D01*
X148702754Y-60645073D01*
X148653487Y-60662039D01*
X148646950Y-60670850D01*
X148602632Y-60670850D01*
X148606660Y-60645839D01*
X148635773Y-60602969D01*
X148674730Y-60579612D01*
X148755641Y-60558431D01*
X148847054Y-60559439D01*
G36*
X149380426Y-60560034D02*
X149448524Y-60577604D01*
X149490615Y-60605060D01*
X149496634Y-60639187D01*
X149484533Y-60656226D01*
X149453529Y-60666083D01*
X149442067Y-60654013D01*
X149407567Y-60634827D01*
X149346159Y-60625910D01*
X149275515Y-60626650D01*
X149213306Y-60636435D01*
X149177203Y-60654654D01*
X149174000Y-60663287D01*
X149188445Y-60685550D01*
X149237146Y-60699541D01*
X149328147Y-60707513D01*
X149332750Y-60707737D01*
X149419386Y-60712953D01*
X149467560Y-60722397D01*
X149489565Y-60742476D01*
X149497690Y-60779602D01*
X149499211Y-60794531D01*
X149497357Y-60853496D01*
X149469828Y-60882159D01*
X149448411Y-60889434D01*
X149364234Y-60902308D01*
X149269095Y-60903241D01*
X149185048Y-60893033D01*
X149142250Y-60878365D01*
X149105338Y-60840489D01*
X149097800Y-60815637D01*
X149107163Y-60782256D01*
X149137499Y-60792280D01*
X149164928Y-60816900D01*
X149217807Y-60842496D01*
X149295817Y-60853713D01*
X149374975Y-60849154D01*
X149424904Y-60832050D01*
X149450305Y-60801684D01*
X149430813Y-60776044D01*
X149372322Y-60758664D01*
X149293150Y-60753011D01*
X149188926Y-60746999D01*
X149127532Y-60727211D01*
X149101993Y-60689880D01*
X149101927Y-60649779D01*
X149121943Y-60604501D01*
X149174375Y-60576134D01*
X149206465Y-60567409D01*
X149296385Y-60555565D01*
X149380426Y-60560034D01*
X149380426Y-60560034D01*
G37*
X149380426Y-60560034D02*
X149448524Y-60577604D01*
X149490615Y-60605060D01*
X149496634Y-60639187D01*
X149484533Y-60656226D01*
X149453529Y-60666083D01*
X149442067Y-60654013D01*
X149407567Y-60634827D01*
X149346159Y-60625910D01*
X149275515Y-60626650D01*
X149213306Y-60636435D01*
X149177203Y-60654654D01*
X149174000Y-60663287D01*
X149188445Y-60685550D01*
X149237146Y-60699541D01*
X149328147Y-60707513D01*
X149332750Y-60707737D01*
X149419386Y-60712953D01*
X149467560Y-60722397D01*
X149489565Y-60742476D01*
X149497690Y-60779602D01*
X149499211Y-60794531D01*
X149497357Y-60853496D01*
X149469828Y-60882159D01*
X149448411Y-60889434D01*
X149364234Y-60902308D01*
X149269095Y-60903241D01*
X149185048Y-60893033D01*
X149142250Y-60878365D01*
X149105338Y-60840489D01*
X149097800Y-60815637D01*
X149107163Y-60782256D01*
X149137499Y-60792280D01*
X149164928Y-60816900D01*
X149217807Y-60842496D01*
X149295817Y-60853713D01*
X149374975Y-60849154D01*
X149424904Y-60832050D01*
X149450305Y-60801684D01*
X149430813Y-60776044D01*
X149372322Y-60758664D01*
X149293150Y-60753011D01*
X149188926Y-60746999D01*
X149127532Y-60727211D01*
X149101993Y-60689880D01*
X149101927Y-60649779D01*
X149121943Y-60604501D01*
X149174375Y-60576134D01*
X149206465Y-60567409D01*
X149296385Y-60555565D01*
X149380426Y-60560034D01*
G36*
X149880315Y-60566365D02*
X149912055Y-60576202D01*
X149954750Y-60597753D01*
X149977054Y-60626955D01*
X149985519Y-60679070D01*
X149986730Y-60750131D01*
X149986660Y-60893100D01*
X149840680Y-60897050D01*
X149752639Y-60897230D01*
X149680905Y-60893500D01*
X149651443Y-60889068D01*
X149608531Y-60856911D01*
X149592194Y-60826748D01*
X149590526Y-60789383D01*
X149656600Y-60789383D01*
X149678392Y-60827760D01*
X149733055Y-60849774D01*
X149804519Y-60852681D01*
X149876716Y-60833737D01*
X149886869Y-60828706D01*
X149930551Y-60795903D01*
X149925381Y-60771674D01*
X149872764Y-60757188D01*
X149796300Y-60753400D01*
X149710525Y-60757221D01*
X149666826Y-60770104D01*
X149656600Y-60789383D01*
X149590526Y-60789383D01*
X149589489Y-60766182D01*
X149628362Y-60726489D01*
X149711211Y-60706154D01*
X149788826Y-60702600D01*
X149877914Y-60699272D01*
X149922603Y-60688385D01*
X149929792Y-60670850D01*
X149899091Y-60648135D01*
X149837518Y-60634489D01*
X149764393Y-60631162D01*
X149699039Y-60639400D01*
X149666808Y-60653867D01*
X149625295Y-60671853D01*
X149607310Y-60649300D01*
X149613593Y-60617326D01*
X149649310Y-60586357D01*
X149717473Y-60565914D01*
X149800376Y-60558437D01*
X149880315Y-60566365D01*
X149880315Y-60566365D01*
G37*
X149880315Y-60566365D02*
X149912055Y-60576202D01*
X149954750Y-60597753D01*
X149977054Y-60626955D01*
X149985519Y-60679070D01*
X149986730Y-60750131D01*
X149986660Y-60893100D01*
X149840680Y-60897050D01*
X149752639Y-60897230D01*
X149680905Y-60893500D01*
X149651443Y-60889068D01*
X149608531Y-60856911D01*
X149592194Y-60826748D01*
X149590526Y-60789383D01*
X149656600Y-60789383D01*
X149678392Y-60827760D01*
X149733055Y-60849774D01*
X149804519Y-60852681D01*
X149876716Y-60833737D01*
X149886869Y-60828706D01*
X149930551Y-60795903D01*
X149925381Y-60771674D01*
X149872764Y-60757188D01*
X149796300Y-60753400D01*
X149710525Y-60757221D01*
X149666826Y-60770104D01*
X149656600Y-60789383D01*
X149590526Y-60789383D01*
X149589489Y-60766182D01*
X149628362Y-60726489D01*
X149711211Y-60706154D01*
X149788826Y-60702600D01*
X149877914Y-60699272D01*
X149922603Y-60688385D01*
X149929792Y-60670850D01*
X149899091Y-60648135D01*
X149837518Y-60634489D01*
X149764393Y-60631162D01*
X149699039Y-60639400D01*
X149666808Y-60653867D01*
X149625295Y-60671853D01*
X149607310Y-60649300D01*
X149613593Y-60617326D01*
X149649310Y-60586357D01*
X149717473Y-60565914D01*
X149800376Y-60558437D01*
X149880315Y-60566365D01*
G36*
X150386178Y-60577905D02*
X150431509Y-60611284D01*
X150438100Y-60672413D01*
X150436675Y-60680620D01*
X150425049Y-60740700D01*
X150406162Y-60683550D01*
X150385269Y-60646814D01*
X150344438Y-60630093D01*
X150275937Y-60626400D01*
X150164600Y-60626400D01*
X150164600Y-60751900D01*
X150158298Y-60841654D01*
X150140664Y-60890956D01*
X150113603Y-60895477D01*
X150104642Y-60888176D01*
X150095868Y-60855811D01*
X150089971Y-60788886D01*
X150088400Y-60724051D01*
X150088002Y-60651076D01*
X150093495Y-60606637D01*
X150114911Y-60583356D01*
X150162280Y-60573857D01*
X150245634Y-60570763D01*
X150298613Y-60569466D01*
X150386178Y-60577905D01*
X150386178Y-60577905D01*
G37*
X150386178Y-60577905D02*
X150431509Y-60611284D01*
X150438100Y-60672413D01*
X150436675Y-60680620D01*
X150425049Y-60740700D01*
X150406162Y-60683550D01*
X150385269Y-60646814D01*
X150344438Y-60630093D01*
X150275937Y-60626400D01*
X150164600Y-60626400D01*
X150164600Y-60751900D01*
X150158298Y-60841654D01*
X150140664Y-60890956D01*
X150113603Y-60895477D01*
X150104642Y-60888176D01*
X150095868Y-60855811D01*
X150089971Y-60788886D01*
X150088400Y-60724051D01*
X150088002Y-60651076D01*
X150093495Y-60606637D01*
X150114911Y-60583356D01*
X150162280Y-60573857D01*
X150245634Y-60570763D01*
X150298613Y-60569466D01*
X150386178Y-60577905D01*
G36*
X150558873Y-60598927D02*
X150567960Y-60660721D01*
X150571000Y-60740700D01*
X150567411Y-60826974D01*
X150557904Y-60886042D01*
X150545600Y-60905800D01*
X150532326Y-60882472D01*
X150523239Y-60820678D01*
X150520200Y-60740700D01*
X150523788Y-60654425D01*
X150533295Y-60595357D01*
X150545600Y-60575600D01*
X150558873Y-60598927D01*
X150558873Y-60598927D01*
G37*
X150558873Y-60598927D02*
X150567960Y-60660721D01*
X150571000Y-60740700D01*
X150567411Y-60826974D01*
X150557904Y-60886042D01*
X150545600Y-60905800D01*
X150532326Y-60882472D01*
X150523239Y-60820678D01*
X150520200Y-60740700D01*
X150523788Y-60654425D01*
X150533295Y-60595357D01*
X150545600Y-60575600D01*
X150558873Y-60598927D01*
G36*
X150944860Y-60562941D02*
X150983040Y-60572838D01*
X151044716Y-60618650D01*
X151074276Y-60698893D01*
X151074521Y-60804646D01*
X151067977Y-60850560D01*
X151051539Y-60876518D01*
X151012826Y-60889579D01*
X150939458Y-60896808D01*
X150909349Y-60898860D01*
X150817203Y-60902272D01*
X150758963Y-60894913D01*
X150718287Y-60873469D01*
X150699217Y-60856217D01*
X150663735Y-60808834D01*
X150665095Y-60789383D01*
X150723400Y-60789383D01*
X150742604Y-60830170D01*
X150755150Y-60838178D01*
X150821694Y-60850991D01*
X150903662Y-60850882D01*
X150962622Y-60839582D01*
X150997657Y-60808021D01*
X151002800Y-60788782D01*
X150987169Y-60766919D01*
X150935116Y-60755831D01*
X150863100Y-60753400D01*
X150777325Y-60757221D01*
X150733626Y-60770104D01*
X150723400Y-60789383D01*
X150665095Y-60789383D01*
X150666765Y-60765529D01*
X150672911Y-60752817D01*
X150697609Y-60723706D01*
X150740937Y-60708348D01*
X150816589Y-60702887D01*
X150851293Y-60702600D01*
X150939491Y-60699643D01*
X150986717Y-60689168D01*
X151002542Y-60668769D01*
X151002800Y-60664500D01*
X150980662Y-60641833D01*
X150925713Y-60628617D01*
X150855147Y-60625356D01*
X150786158Y-60632557D01*
X150735941Y-60650723D01*
X150728903Y-60656456D01*
X150692885Y-60673613D01*
X150674920Y-60651191D01*
X150680682Y-60616573D01*
X150715295Y-60587827D01*
X150782660Y-60567600D01*
X150865081Y-60558451D01*
X150944860Y-60562941D01*
X150944860Y-60562941D01*
G37*
X150944860Y-60562941D02*
X150983040Y-60572838D01*
X151044716Y-60618650D01*
X151074276Y-60698893D01*
X151074521Y-60804646D01*
X151067977Y-60850560D01*
X151051539Y-60876518D01*
X151012826Y-60889579D01*
X150939458Y-60896808D01*
X150909349Y-60898860D01*
X150817203Y-60902272D01*
X150758963Y-60894913D01*
X150718287Y-60873469D01*
X150699217Y-60856217D01*
X150663735Y-60808834D01*
X150665095Y-60789383D01*
X150723400Y-60789383D01*
X150742604Y-60830170D01*
X150755150Y-60838178D01*
X150821694Y-60850991D01*
X150903662Y-60850882D01*
X150962622Y-60839582D01*
X150997657Y-60808021D01*
X151002800Y-60788782D01*
X150987169Y-60766919D01*
X150935116Y-60755831D01*
X150863100Y-60753400D01*
X150777325Y-60757221D01*
X150733626Y-60770104D01*
X150723400Y-60789383D01*
X150665095Y-60789383D01*
X150666765Y-60765529D01*
X150672911Y-60752817D01*
X150697609Y-60723706D01*
X150740937Y-60708348D01*
X150816589Y-60702887D01*
X150851293Y-60702600D01*
X150939491Y-60699643D01*
X150986717Y-60689168D01*
X151002542Y-60668769D01*
X151002800Y-60664500D01*
X150980662Y-60641833D01*
X150925713Y-60628617D01*
X150855147Y-60625356D01*
X150786158Y-60632557D01*
X150735941Y-60650723D01*
X150728903Y-60656456D01*
X150692885Y-60673613D01*
X150674920Y-60651191D01*
X150680682Y-60616573D01*
X150715295Y-60587827D01*
X150782660Y-60567600D01*
X150865081Y-60558451D01*
X150944860Y-60562941D01*
G36*
X151155583Y-60462087D02*
X151168920Y-60545055D01*
X151175341Y-60651482D01*
X151175614Y-60780829D01*
X151165897Y-60863610D01*
X151146455Y-60898646D01*
X151121756Y-60889289D01*
X151114020Y-60857665D01*
X151108060Y-60787826D01*
X151104770Y-60692350D01*
X151104400Y-60645450D01*
X151106292Y-60532138D01*
X151112594Y-60463131D01*
X151124243Y-60432055D01*
X151136150Y-60429477D01*
X151155583Y-60462087D01*
X151155583Y-60462087D01*
G37*
X151155583Y-60462087D02*
X151168920Y-60545055D01*
X151175341Y-60651482D01*
X151175614Y-60780829D01*
X151165897Y-60863610D01*
X151146455Y-60898646D01*
X151121756Y-60889289D01*
X151114020Y-60857665D01*
X151108060Y-60787826D01*
X151104770Y-60692350D01*
X151104400Y-60645450D01*
X151106292Y-60532138D01*
X151112594Y-60463131D01*
X151124243Y-60432055D01*
X151136150Y-60429477D01*
X151155583Y-60462087D01*
G36*
X137617000Y-60512100D02*
X137604300Y-60524800D01*
X137591600Y-60512100D01*
X137604300Y-60499400D01*
X137617000Y-60512100D01*
X137617000Y-60512100D01*
G37*
X137617000Y-60512100D02*
X137604300Y-60524800D01*
X137591600Y-60512100D01*
X137604300Y-60499400D01*
X137617000Y-60512100D01*
G36*
X150568134Y-60443772D02*
X150571000Y-60461300D01*
X150557284Y-60495101D01*
X150545600Y-60499400D01*
X150523065Y-60478827D01*
X150520200Y-60461300D01*
X150533915Y-60427498D01*
X150545600Y-60423200D01*
X150568134Y-60443772D01*
X150568134Y-60443772D01*
G37*
X150568134Y-60443772D02*
X150571000Y-60461300D01*
X150557284Y-60495101D01*
X150545600Y-60499400D01*
X150523065Y-60478827D01*
X150520200Y-60461300D01*
X150533915Y-60427498D01*
X150545600Y-60423200D01*
X150568134Y-60443772D01*
G36*
X146728331Y-59790201D02*
X146747108Y-59802935D01*
X146756820Y-59836490D01*
X146760455Y-59900959D01*
X146761000Y-60002659D01*
X146759687Y-60109426D01*
X146753955Y-60177522D01*
X146741116Y-60219047D01*
X146718479Y-60246100D01*
X146704548Y-60256659D01*
X146641996Y-60280295D01*
X146550542Y-60293126D01*
X146451060Y-60294491D01*
X146364426Y-60283727D01*
X146322850Y-60268765D01*
X146285877Y-60229457D01*
X146278400Y-60203076D01*
X146290529Y-60176360D01*
X146334568Y-60176520D01*
X146348250Y-60179444D01*
X146466049Y-60204843D01*
X146543008Y-60215747D01*
X146587019Y-60212015D01*
X146605972Y-60193504D01*
X146608600Y-60174750D01*
X146603481Y-60140835D01*
X146578465Y-60136320D01*
X146533411Y-60151193D01*
X146468930Y-60165985D01*
X146405110Y-60152805D01*
X146368978Y-60137015D01*
X146293987Y-60081276D01*
X146259882Y-60012800D01*
X146261747Y-59940831D01*
X146264830Y-59934629D01*
X146411058Y-59934629D01*
X146411818Y-60000101D01*
X146420817Y-60027422D01*
X146455921Y-60057765D01*
X146514935Y-60066669D01*
X146575533Y-60053740D01*
X146607588Y-60030718D01*
X146628792Y-59975763D01*
X146611037Y-59924984D01*
X146565798Y-59888622D01*
X146504554Y-59876916D01*
X146452093Y-59891997D01*
X146411058Y-59934629D01*
X146264830Y-59934629D01*
X146294669Y-59874611D01*
X146353735Y-59823384D01*
X146434030Y-59796394D01*
X146530641Y-59802882D01*
X146544535Y-59806787D01*
X146603003Y-59819278D01*
X146632812Y-59814704D01*
X146634000Y-59811222D01*
X146655750Y-59793911D01*
X146697500Y-59788200D01*
X146728331Y-59790201D01*
X146728331Y-59790201D01*
G37*
X146728331Y-59790201D02*
X146747108Y-59802935D01*
X146756820Y-59836490D01*
X146760455Y-59900959D01*
X146761000Y-60002659D01*
X146759687Y-60109426D01*
X146753955Y-60177522D01*
X146741116Y-60219047D01*
X146718479Y-60246100D01*
X146704548Y-60256659D01*
X146641996Y-60280295D01*
X146550542Y-60293126D01*
X146451060Y-60294491D01*
X146364426Y-60283727D01*
X146322850Y-60268765D01*
X146285877Y-60229457D01*
X146278400Y-60203076D01*
X146290529Y-60176360D01*
X146334568Y-60176520D01*
X146348250Y-60179444D01*
X146466049Y-60204843D01*
X146543008Y-60215747D01*
X146587019Y-60212015D01*
X146605972Y-60193504D01*
X146608600Y-60174750D01*
X146603481Y-60140835D01*
X146578465Y-60136320D01*
X146533411Y-60151193D01*
X146468930Y-60165985D01*
X146405110Y-60152805D01*
X146368978Y-60137015D01*
X146293987Y-60081276D01*
X146259882Y-60012800D01*
X146261747Y-59940831D01*
X146264830Y-59934629D01*
X146411058Y-59934629D01*
X146411818Y-60000101D01*
X146420817Y-60027422D01*
X146455921Y-60057765D01*
X146514935Y-60066669D01*
X146575533Y-60053740D01*
X146607588Y-60030718D01*
X146628792Y-59975763D01*
X146611037Y-59924984D01*
X146565798Y-59888622D01*
X146504554Y-59876916D01*
X146452093Y-59891997D01*
X146411058Y-59934629D01*
X146264830Y-59934629D01*
X146294669Y-59874611D01*
X146353735Y-59823384D01*
X146434030Y-59796394D01*
X146530641Y-59802882D01*
X146544535Y-59806787D01*
X146603003Y-59819278D01*
X146632812Y-59814704D01*
X146634000Y-59811222D01*
X146655750Y-59793911D01*
X146697500Y-59788200D01*
X146728331Y-59790201D01*
G36*
X147989837Y-59796681D02*
X148005600Y-59812971D01*
X148025973Y-59824202D01*
X148075185Y-59811286D01*
X148175611Y-59792488D01*
X148263265Y-59810024D01*
X148331287Y-59855563D01*
X148372817Y-59920779D01*
X148380994Y-59997341D01*
X148348960Y-60076922D01*
X148321168Y-60109940D01*
X148270016Y-60151765D01*
X148215887Y-60166580D01*
X148144740Y-60162860D01*
X148075570Y-60157457D01*
X148041861Y-60166427D01*
X148028851Y-60196492D01*
X148026021Y-60216924D01*
X148007064Y-60269294D01*
X147956746Y-60290452D01*
X147948450Y-60291537D01*
X147878600Y-60299574D01*
X147878600Y-59961048D01*
X148035400Y-59961048D01*
X148044708Y-60031732D01*
X148086711Y-60080351D01*
X148132600Y-60093000D01*
X148186348Y-60074680D01*
X148207639Y-60056298D01*
X148228762Y-60002875D01*
X148229799Y-59961048D01*
X148214861Y-59920650D01*
X148175304Y-59904504D01*
X148132600Y-59902500D01*
X148070399Y-59908566D01*
X148042404Y-59933110D01*
X148035400Y-59961048D01*
X147878600Y-59961048D01*
X147878600Y-59788200D01*
X147942100Y-59788200D01*
X147989837Y-59796681D01*
X147989837Y-59796681D01*
G37*
X147989837Y-59796681D02*
X148005600Y-59812971D01*
X148025973Y-59824202D01*
X148075185Y-59811286D01*
X148175611Y-59792488D01*
X148263265Y-59810024D01*
X148331287Y-59855563D01*
X148372817Y-59920779D01*
X148380994Y-59997341D01*
X148348960Y-60076922D01*
X148321168Y-60109940D01*
X148270016Y-60151765D01*
X148215887Y-60166580D01*
X148144740Y-60162860D01*
X148075570Y-60157457D01*
X148041861Y-60166427D01*
X148028851Y-60196492D01*
X148026021Y-60216924D01*
X148007064Y-60269294D01*
X147956746Y-60290452D01*
X147948450Y-60291537D01*
X147878600Y-60299574D01*
X147878600Y-59961048D01*
X148035400Y-59961048D01*
X148044708Y-60031732D01*
X148086711Y-60080351D01*
X148132600Y-60093000D01*
X148186348Y-60074680D01*
X148207639Y-60056298D01*
X148228762Y-60002875D01*
X148229799Y-59961048D01*
X148214861Y-59920650D01*
X148175304Y-59904504D01*
X148132600Y-59902500D01*
X148070399Y-59908566D01*
X148042404Y-59933110D01*
X148035400Y-59961048D01*
X147878600Y-59961048D01*
X147878600Y-59788200D01*
X147942100Y-59788200D01*
X147989837Y-59796681D01*
G36*
X146999237Y-59796709D02*
X147015000Y-59813055D01*
X147034340Y-59823407D01*
X147076880Y-59809716D01*
X147138848Y-59794350D01*
X147189618Y-59802308D01*
X147213528Y-59829454D01*
X147211866Y-59845363D01*
X147181601Y-59872086D01*
X147127204Y-59889923D01*
X147082508Y-59902269D01*
X147058272Y-59928896D01*
X147045518Y-59984249D01*
X147040400Y-60029623D01*
X147030146Y-60105618D01*
X147013565Y-60144714D01*
X146982178Y-60160769D01*
X146957850Y-60164537D01*
X146888000Y-60172574D01*
X146888000Y-59980387D01*
X146888774Y-59882968D01*
X146893445Y-59825693D01*
X146905532Y-59797909D01*
X146928556Y-59788961D01*
X146951500Y-59788200D01*
X146999237Y-59796709D01*
X146999237Y-59796709D01*
G37*
X146999237Y-59796709D02*
X147015000Y-59813055D01*
X147034340Y-59823407D01*
X147076880Y-59809716D01*
X147138848Y-59794350D01*
X147189618Y-59802308D01*
X147213528Y-59829454D01*
X147211866Y-59845363D01*
X147181601Y-59872086D01*
X147127204Y-59889923D01*
X147082508Y-59902269D01*
X147058272Y-59928896D01*
X147045518Y-59984249D01*
X147040400Y-60029623D01*
X147030146Y-60105618D01*
X147013565Y-60144714D01*
X146982178Y-60160769D01*
X146957850Y-60164537D01*
X146888000Y-60172574D01*
X146888000Y-59980387D01*
X146888774Y-59882968D01*
X146893445Y-59825693D01*
X146905532Y-59797909D01*
X146928556Y-59788961D01*
X146951500Y-59788200D01*
X146999237Y-59796709D01*
G36*
X147708597Y-59803520D02*
X147727584Y-59818768D01*
X147736327Y-59857723D01*
X147738786Y-59931462D01*
X147738900Y-59978397D01*
X147738900Y-60155895D01*
X147557934Y-60160819D01*
X147436626Y-60158784D01*
X147356117Y-60143983D01*
X147321784Y-60127091D01*
X147289917Y-60097238D01*
X147274842Y-60055431D01*
X147272411Y-59985790D01*
X147274150Y-59944669D01*
X147280172Y-59863114D01*
X147291249Y-59820125D01*
X147313421Y-59803475D01*
X147345200Y-59800900D01*
X147382047Y-59805327D01*
X147402987Y-59826830D01*
X147414745Y-59877738D01*
X147421400Y-59940600D01*
X147431901Y-60023053D01*
X147447883Y-60067171D01*
X147474906Y-60085417D01*
X147487122Y-60087875D01*
X147544767Y-60079247D01*
X147582039Y-60030956D01*
X147601722Y-59938868D01*
X147603803Y-59914701D01*
X147611880Y-59844127D01*
X147628458Y-59810805D01*
X147662060Y-59801189D01*
X147675400Y-59800900D01*
X147708597Y-59803520D01*
X147708597Y-59803520D01*
G37*
X147708597Y-59803520D02*
X147727584Y-59818768D01*
X147736327Y-59857723D01*
X147738786Y-59931462D01*
X147738900Y-59978397D01*
X147738900Y-60155895D01*
X147557934Y-60160819D01*
X147436626Y-60158784D01*
X147356117Y-60143983D01*
X147321784Y-60127091D01*
X147289917Y-60097238D01*
X147274842Y-60055431D01*
X147272411Y-59985790D01*
X147274150Y-59944669D01*
X147280172Y-59863114D01*
X147291249Y-59820125D01*
X147313421Y-59803475D01*
X147345200Y-59800900D01*
X147382047Y-59805327D01*
X147402987Y-59826830D01*
X147414745Y-59877738D01*
X147421400Y-59940600D01*
X147431901Y-60023053D01*
X147447883Y-60067171D01*
X147474906Y-60085417D01*
X147487122Y-60087875D01*
X147544767Y-60079247D01*
X147582039Y-60030956D01*
X147601722Y-59938868D01*
X147603803Y-59914701D01*
X147611880Y-59844127D01*
X147628458Y-59810805D01*
X147662060Y-59801189D01*
X147675400Y-59800900D01*
X147708597Y-59803520D01*
G36*
X148800760Y-59803643D02*
X148888557Y-59843151D01*
X148955064Y-59896540D01*
X148974346Y-59925539D01*
X148985340Y-59999644D01*
X148955190Y-60066083D01*
X148893478Y-60119916D01*
X148809786Y-60156206D01*
X148713698Y-60170014D01*
X148614794Y-60156399D01*
X148564900Y-60136574D01*
X148497339Y-60081279D01*
X148459400Y-60007498D01*
X148459854Y-59950322D01*
X148608752Y-59950322D01*
X148614749Y-60006917D01*
X148640017Y-60041617D01*
X148705052Y-60086581D01*
X148764730Y-60082410D01*
X148803885Y-60053085D01*
X148839506Y-59992879D01*
X148830064Y-59938982D01*
X148781160Y-59901412D01*
X148712613Y-59889799D01*
X148643399Y-59907048D01*
X148608752Y-59950322D01*
X148459854Y-59950322D01*
X148459993Y-59932863D01*
X148460777Y-59930577D01*
X148499755Y-59880080D01*
X148569504Y-59832300D01*
X148650674Y-59798232D01*
X148711265Y-59788239D01*
X148800760Y-59803643D01*
X148800760Y-59803643D01*
G37*
X148800760Y-59803643D02*
X148888557Y-59843151D01*
X148955064Y-59896540D01*
X148974346Y-59925539D01*
X148985340Y-59999644D01*
X148955190Y-60066083D01*
X148893478Y-60119916D01*
X148809786Y-60156206D01*
X148713698Y-60170014D01*
X148614794Y-60156399D01*
X148564900Y-60136574D01*
X148497339Y-60081279D01*
X148459400Y-60007498D01*
X148459854Y-59950322D01*
X148608752Y-59950322D01*
X148614749Y-60006917D01*
X148640017Y-60041617D01*
X148705052Y-60086581D01*
X148764730Y-60082410D01*
X148803885Y-60053085D01*
X148839506Y-59992879D01*
X148830064Y-59938982D01*
X148781160Y-59901412D01*
X148712613Y-59889799D01*
X148643399Y-59907048D01*
X148608752Y-59950322D01*
X148459854Y-59950322D01*
X148459993Y-59932863D01*
X148460777Y-59930577D01*
X148499755Y-59880080D01*
X148569504Y-59832300D01*
X148650674Y-59798232D01*
X148711265Y-59788239D01*
X148800760Y-59803643D01*
D13*
X118136000Y-62750000D02*
G75*
G03X118136000Y-62750000I-2286000J0D01*
G01*
D14*
X168690000Y-81980000D02*
X168690000Y-69620000D01*
D13*
X141090000Y-72150000D02*
X141090000Y-72850000D01*
X139890000Y-72850000D02*
X139890000Y-72150000D01*
X141130000Y-76220000D02*
X141130000Y-76920000D01*
X139930000Y-76920000D02*
X139930000Y-76220000D01*
X139880000Y-81290000D02*
X139880000Y-80590000D01*
X141080000Y-80590000D02*
X141080000Y-81290000D01*
X145190000Y-67490000D02*
X145890000Y-67490000D01*
X145890000Y-68690000D02*
X145190000Y-68690000D01*
X132450000Y-87190000D02*
X133450000Y-87190000D01*
X133450000Y-87190000D02*
X133450000Y-85090000D01*
X132450000Y-87190000D02*
X132450000Y-85090000D01*
X126850000Y-66060000D02*
X131990000Y-66060000D01*
X131990000Y-66060000D02*
X131990000Y-63400000D01*
X131990000Y-63400000D02*
X126850000Y-63400000D01*
X126850000Y-63400000D02*
X126850000Y-66060000D01*
X125580000Y-66060000D02*
X124250000Y-66060000D01*
X124250000Y-66060000D02*
X124250000Y-64730000D01*
X164084000Y-86808000D02*
X161484000Y-86808000D01*
X161484000Y-86808000D02*
X161484000Y-89468000D01*
X161484000Y-89468000D02*
X164084000Y-89468000D01*
X164084000Y-89468000D02*
X164084000Y-86808000D01*
X165354000Y-86808000D02*
X166684000Y-86808000D01*
X166684000Y-86808000D02*
X166684000Y-88138000D01*
X119888000Y-88198000D02*
X122488000Y-88198000D01*
X122488000Y-88198000D02*
X122488000Y-85538000D01*
X122488000Y-85538000D02*
X119888000Y-85538000D01*
X119888000Y-85538000D02*
X119888000Y-88198000D01*
X118618000Y-88198000D02*
X117288000Y-88198000D01*
X117288000Y-88198000D02*
X117288000Y-86868000D01*
D15*
X116489815Y-82169000D02*
G75*
G03X116489815Y-82169000I-538815J0D01*
G01*
X125349000Y-83439000D02*
X114554000Y-83439000D01*
X114554000Y-83439000D02*
X114554000Y-80391000D01*
X130683000Y-80137000D02*
X130683000Y-83439000D01*
X130683000Y-83439000D02*
X128905000Y-83439000D01*
X130683000Y-67437000D02*
X130683000Y-70739000D01*
X116713000Y-67437000D02*
X114554000Y-67437000D01*
X114554000Y-67437000D02*
X114554000Y-70358000D01*
X128905000Y-83438000D02*
X125349000Y-83438000D01*
X130683000Y-67438000D02*
X116586000Y-67438000D01*
D13*
X138570000Y-82050000D02*
X138570000Y-76910000D01*
X138570000Y-76910000D02*
X135910000Y-76910000D01*
X135910000Y-76910000D02*
X135910000Y-82050000D01*
X135910000Y-82050000D02*
X138570000Y-82050000D01*
X138570000Y-83320000D02*
X138570000Y-84650000D01*
X138570000Y-84650000D02*
X137240000Y-84650000D01*
X138190000Y-71080000D02*
X138190000Y-65940000D01*
X138190000Y-65940000D02*
X135530000Y-65940000D01*
X135530000Y-65940000D02*
X135530000Y-71080000D01*
X135530000Y-71080000D02*
X138190000Y-71080000D01*
X138190000Y-72350000D02*
X138190000Y-73680000D01*
X138190000Y-73680000D02*
X136860000Y-73680000D01*
X156120000Y-71930000D02*
X156120000Y-66790000D01*
X156120000Y-66790000D02*
X153460000Y-66790000D01*
X153460000Y-66790000D02*
X153460000Y-71930000D01*
X153460000Y-71930000D02*
X156120000Y-71930000D01*
X156120000Y-73200000D02*
X156120000Y-74530000D01*
X156120000Y-74530000D02*
X154790000Y-74530000D01*
X156016000Y-82296000D02*
X156016000Y-77156000D01*
X156016000Y-77156000D02*
X153356000Y-77156000D01*
X153356000Y-77156000D02*
X153356000Y-82296000D01*
X153356000Y-82296000D02*
X156016000Y-82296000D01*
X156016000Y-83566000D02*
X156016000Y-84896000D01*
X156016000Y-84896000D02*
X154686000Y-84896000D01*
X145290000Y-83510000D02*
X145290000Y-84440000D01*
X145290000Y-86670000D02*
X145290000Y-85740000D01*
X145290000Y-86670000D02*
X148450000Y-86670000D01*
X145290000Y-83510000D02*
X146750000Y-83510000D01*
X158910000Y-82980000D02*
X158910000Y-83980000D01*
X157550000Y-83980000D02*
X157550000Y-82980000D01*
X162570000Y-83510000D02*
X163570000Y-83510000D01*
X163570000Y-84870000D02*
X162570000Y-84870000D01*
X129532000Y-85770000D02*
X128532000Y-85770000D01*
X128532000Y-84410000D02*
X129532000Y-84410000D01*
D14*
X143805000Y-70665000D02*
X143805000Y-70690000D01*
X147955000Y-70665000D02*
X147955000Y-70770000D01*
X147955000Y-80815000D02*
X147955000Y-80710000D01*
X143805000Y-80815000D02*
X143805000Y-80710000D01*
X143805000Y-70665000D02*
X147955000Y-70665000D01*
X143805000Y-80815000D02*
X147955000Y-80815000D01*
X143805000Y-70690000D02*
X142430000Y-70690000D01*
D13*
X169816000Y-62470000D02*
G75*
G03X169816000Y-62470000I-2286000J0D01*
G01*
D12*
G36*
X162619867Y-65914938D02*
X162789253Y-66047243D01*
X162983062Y-66196061D01*
X163193016Y-66355238D01*
X163410839Y-66518623D01*
X163628254Y-66680062D01*
X163836986Y-66833404D01*
X164028757Y-66972496D01*
X164195291Y-67091186D01*
X164302350Y-67165646D01*
X164425156Y-67250057D01*
X164512176Y-67311936D01*
X164569573Y-67357398D01*
X164603511Y-67392560D01*
X164620154Y-67423542D01*
X164625664Y-67456458D01*
X164626200Y-67487063D01*
X164622717Y-67550019D01*
X164614037Y-67584548D01*
X164610782Y-67586800D01*
X164583170Y-67572214D01*
X164519266Y-67530631D01*
X164423580Y-67465313D01*
X164300626Y-67379522D01*
X164154914Y-67276519D01*
X163990959Y-67159566D01*
X163813270Y-67031926D01*
X163626361Y-66896860D01*
X163434743Y-66757631D01*
X163242929Y-66617499D01*
X163055430Y-66479726D01*
X162876758Y-66347576D01*
X162711427Y-66224308D01*
X162563946Y-66113186D01*
X162438830Y-66017471D01*
X162422750Y-66005017D01*
X162396386Y-65997229D01*
X162391000Y-66021031D01*
X162401361Y-66046664D01*
X162434227Y-66086146D01*
X162492270Y-66141693D01*
X162578162Y-66215525D01*
X162694576Y-66309858D01*
X162844184Y-66426910D01*
X163029658Y-66568900D01*
X163253672Y-66738045D01*
X163267300Y-66748282D01*
X163405880Y-66850975D01*
X163559090Y-66962143D01*
X163720967Y-67077687D01*
X163885549Y-67193508D01*
X164046875Y-67305505D01*
X164198982Y-67409580D01*
X164335908Y-67501632D01*
X164451692Y-67577563D01*
X164540371Y-67633273D01*
X164595984Y-67664662D01*
X164606497Y-67669132D01*
X164616372Y-67696180D01*
X164621699Y-67760544D01*
X164621446Y-67848865D01*
X164621082Y-67858305D01*
X164613500Y-68040089D01*
X164397600Y-67970107D01*
X164179167Y-67891753D01*
X163985047Y-67803730D01*
X163791585Y-67694703D01*
X163694323Y-67633088D01*
X163556796Y-67539137D01*
X163390699Y-67418641D01*
X163205425Y-67278813D01*
X163010368Y-67126864D01*
X162814919Y-66970006D01*
X162628474Y-66815451D01*
X162619600Y-66807950D01*
X162352900Y-66582284D01*
X162284882Y-66252692D01*
X162252610Y-66093018D01*
X162231233Y-65974944D01*
X162220528Y-65890501D01*
X162220276Y-65831719D01*
X162230255Y-65790630D01*
X162250244Y-65759263D01*
X162270617Y-65738314D01*
X162328034Y-65684374D01*
X162619867Y-65914938D01*
X162619867Y-65914938D01*
G37*
X162619867Y-65914938D02*
X162789253Y-66047243D01*
X162983062Y-66196061D01*
X163193016Y-66355238D01*
X163410839Y-66518623D01*
X163628254Y-66680062D01*
X163836986Y-66833404D01*
X164028757Y-66972496D01*
X164195291Y-67091186D01*
X164302350Y-67165646D01*
X164425156Y-67250057D01*
X164512176Y-67311936D01*
X164569573Y-67357398D01*
X164603511Y-67392560D01*
X164620154Y-67423542D01*
X164625664Y-67456458D01*
X164626200Y-67487063D01*
X164622717Y-67550019D01*
X164614037Y-67584548D01*
X164610782Y-67586800D01*
X164583170Y-67572214D01*
X164519266Y-67530631D01*
X164423580Y-67465313D01*
X164300626Y-67379522D01*
X164154914Y-67276519D01*
X163990959Y-67159566D01*
X163813270Y-67031926D01*
X163626361Y-66896860D01*
X163434743Y-66757631D01*
X163242929Y-66617499D01*
X163055430Y-66479726D01*
X162876758Y-66347576D01*
X162711427Y-66224308D01*
X162563946Y-66113186D01*
X162438830Y-66017471D01*
X162422750Y-66005017D01*
X162396386Y-65997229D01*
X162391000Y-66021031D01*
X162401361Y-66046664D01*
X162434227Y-66086146D01*
X162492270Y-66141693D01*
X162578162Y-66215525D01*
X162694576Y-66309858D01*
X162844184Y-66426910D01*
X163029658Y-66568900D01*
X163253672Y-66738045D01*
X163267300Y-66748282D01*
X163405880Y-66850975D01*
X163559090Y-66962143D01*
X163720967Y-67077687D01*
X163885549Y-67193508D01*
X164046875Y-67305505D01*
X164198982Y-67409580D01*
X164335908Y-67501632D01*
X164451692Y-67577563D01*
X164540371Y-67633273D01*
X164595984Y-67664662D01*
X164606497Y-67669132D01*
X164616372Y-67696180D01*
X164621699Y-67760544D01*
X164621446Y-67848865D01*
X164621082Y-67858305D01*
X164613500Y-68040089D01*
X164397600Y-67970107D01*
X164179167Y-67891753D01*
X163985047Y-67803730D01*
X163791585Y-67694703D01*
X163694323Y-67633088D01*
X163556796Y-67539137D01*
X163390699Y-67418641D01*
X163205425Y-67278813D01*
X163010368Y-67126864D01*
X162814919Y-66970006D01*
X162628474Y-66815451D01*
X162619600Y-66807950D01*
X162352900Y-66582284D01*
X162284882Y-66252692D01*
X162252610Y-66093018D01*
X162231233Y-65974944D01*
X162220528Y-65890501D01*
X162220276Y-65831719D01*
X162230255Y-65790630D01*
X162250244Y-65759263D01*
X162270617Y-65738314D01*
X162328034Y-65684374D01*
X162619867Y-65914938D01*
G36*
X161009699Y-60127292D02*
X161133591Y-60167085D01*
X161133700Y-60167135D01*
X161226890Y-60218698D01*
X161323394Y-60290254D01*
X161425409Y-60384661D01*
X161535130Y-60504775D01*
X161654755Y-60653455D01*
X161786480Y-60833558D01*
X161932501Y-61047941D01*
X162095016Y-61299463D01*
X162276221Y-61590981D01*
X162453863Y-61884500D01*
X162630365Y-62175957D01*
X162785696Y-62425346D01*
X162922127Y-62635665D01*
X163041929Y-62809913D01*
X163147377Y-62951087D01*
X163240741Y-63062186D01*
X163324295Y-63146208D01*
X163400309Y-63206151D01*
X163471058Y-63245014D01*
X163490773Y-63252719D01*
X163561105Y-63271230D01*
X163665969Y-63290959D01*
X163789253Y-63309126D01*
X163876900Y-63319325D01*
X164042261Y-63338797D01*
X164202718Y-63362281D01*
X164348183Y-63387909D01*
X164468567Y-63413812D01*
X164553784Y-63438124D01*
X164581246Y-63449728D01*
X164601818Y-63467343D01*
X164615080Y-63500161D01*
X164622542Y-63557850D01*
X164625718Y-63650079D01*
X164626200Y-63737265D01*
X164626200Y-64000743D01*
X164511577Y-64141454D01*
X164348207Y-64316225D01*
X164141868Y-64494917D01*
X163899669Y-64672916D01*
X163628717Y-64845604D01*
X163336120Y-65008366D01*
X163028987Y-65156585D01*
X162800751Y-65252530D01*
X162556100Y-65348877D01*
X162536337Y-65242288D01*
X162526523Y-65116676D01*
X162534341Y-64955984D01*
X162557742Y-64771967D01*
X162594678Y-64576380D01*
X162643103Y-64380976D01*
X162700968Y-64197510D01*
X162732970Y-64113512D01*
X162766966Y-64025547D01*
X162781921Y-63967207D01*
X162779865Y-63921894D01*
X162762830Y-63873010D01*
X162762491Y-63872212D01*
X162748508Y-63838771D01*
X162737334Y-63818509D01*
X162726345Y-63816837D01*
X162712916Y-63839167D01*
X162694423Y-63890910D01*
X162668244Y-63977478D01*
X162631753Y-64104283D01*
X162605546Y-64195900D01*
X162547446Y-64400066D01*
X162502477Y-64562605D01*
X162469238Y-64690566D01*
X162446328Y-64790998D01*
X162432346Y-64870950D01*
X162425889Y-64937471D01*
X162425558Y-64997611D01*
X162429951Y-65058420D01*
X162431371Y-65072200D01*
X162441574Y-65185755D01*
X162449163Y-65303020D01*
X162451742Y-65369857D01*
X162451314Y-65437238D01*
X162441852Y-65486989D01*
X162416138Y-65533220D01*
X162366954Y-65590044D01*
X162308450Y-65649994D01*
X162240824Y-65720594D01*
X162195908Y-65779059D01*
X162171628Y-65836898D01*
X162165911Y-65905622D01*
X162176685Y-65996741D01*
X162201876Y-66121763D01*
X162213749Y-66175813D01*
X162243547Y-66318036D01*
X162259052Y-66423403D01*
X162258693Y-66504235D01*
X162240901Y-66572857D01*
X162204108Y-66641591D01*
X162146744Y-66722761D01*
X162143557Y-66727033D01*
X162037618Y-66860982D01*
X161928211Y-66981026D01*
X161804291Y-67097824D01*
X161654816Y-67222032D01*
X161533705Y-67315587D01*
X161431127Y-67395503D01*
X161340870Y-67470137D01*
X161272296Y-67531455D01*
X161234769Y-67571420D01*
X161233579Y-67573161D01*
X161190345Y-67620367D01*
X161127282Y-67653564D01*
X161036523Y-67674677D01*
X160910199Y-67685632D01*
X160762806Y-67688400D01*
X160488393Y-67688400D01*
X160405315Y-67585019D01*
X160351988Y-67527243D01*
X160270327Y-67448914D01*
X160171966Y-67360833D01*
X160080268Y-67283364D01*
X159888238Y-67119679D01*
X159736766Y-66976740D01*
X159626839Y-66855615D01*
X159559446Y-66757374D01*
X159536714Y-66695299D01*
X159530103Y-66634900D01*
X159522427Y-66538115D01*
X159514729Y-66419315D01*
X159509196Y-66316800D01*
X159492574Y-66086468D01*
X159487548Y-66050100D01*
X159600307Y-66050100D01*
X159612697Y-66316800D01*
X159619074Y-66437266D01*
X159626265Y-66546783D01*
X159633209Y-66630268D01*
X159637032Y-66663051D01*
X159661983Y-66743241D01*
X159715960Y-66830655D01*
X159802802Y-66929669D01*
X159926345Y-67044659D01*
X160090354Y-67179943D01*
X160199232Y-67267912D01*
X160297611Y-67350642D01*
X160376580Y-67420405D01*
X160427227Y-67469473D01*
X160436334Y-67479970D01*
X160485670Y-67532556D01*
X160530993Y-67565301D01*
X160532546Y-67565964D01*
X160589000Y-67577171D01*
X160679528Y-67583216D01*
X160787681Y-67584239D01*
X160897010Y-67580377D01*
X160991067Y-67571767D01*
X161043805Y-67561685D01*
X161110011Y-67530140D01*
X161189986Y-67474757D01*
X161246838Y-67425684D01*
X161318946Y-67360977D01*
X161416320Y-67279651D01*
X161523037Y-67194825D01*
X161576630Y-67153918D01*
X161732000Y-67032885D01*
X161853429Y-66926940D01*
X161951136Y-66826055D01*
X162035340Y-66720206D01*
X162071433Y-66668455D01*
X162129490Y-66566538D01*
X162158326Y-66468236D01*
X162159709Y-66358390D01*
X162135405Y-66221838D01*
X162127313Y-66188786D01*
X162103756Y-66090310D01*
X162083049Y-65994813D01*
X162075362Y-65954850D01*
X162053844Y-65885126D01*
X162020252Y-65860076D01*
X162015199Y-65859817D01*
X161982462Y-65883229D01*
X161949001Y-65945004D01*
X161918733Y-66032919D01*
X161895575Y-66134747D01*
X161883445Y-66238266D01*
X161882532Y-66273849D01*
X161877973Y-66351382D01*
X161863761Y-66380913D01*
X161855890Y-66379243D01*
X161829543Y-66386251D01*
X161814721Y-66416252D01*
X161792359Y-66457501D01*
X161771980Y-66466599D01*
X161698022Y-66466504D01*
X161661842Y-66492197D01*
X161654400Y-66532700D01*
X161643997Y-66582265D01*
X161620765Y-66595546D01*
X161596662Y-66566035D01*
X161596062Y-66564450D01*
X161576697Y-66549842D01*
X161538634Y-66576268D01*
X161537611Y-66577241D01*
X161507249Y-66617275D01*
X161508238Y-66663687D01*
X161519618Y-66697781D01*
X161533703Y-66753601D01*
X161528861Y-66785665D01*
X161527813Y-66786444D01*
X161502803Y-66778421D01*
X161492758Y-66761154D01*
X161462320Y-66726204D01*
X161416663Y-66739579D01*
X161390469Y-66762159D01*
X161365064Y-66807827D01*
X161375955Y-66865412D01*
X161395997Y-66922566D01*
X161396791Y-66946728D01*
X161378625Y-66951797D01*
X161377753Y-66951800D01*
X161355393Y-66930273D01*
X161339169Y-66888300D01*
X161313025Y-66836594D01*
X161278022Y-66825240D01*
X161243396Y-66847120D01*
X161218381Y-66895117D01*
X161212215Y-66962113D01*
X161215221Y-66983820D01*
X161216740Y-67037996D01*
X161200097Y-67051923D01*
X161176349Y-67026904D01*
X161159100Y-66977200D01*
X161141275Y-66923894D01*
X161121492Y-66901015D01*
X161121059Y-66901000D01*
X161054334Y-66920710D01*
X161021904Y-66977088D01*
X161019400Y-67005317D01*
X161011792Y-67057633D01*
X160994000Y-67078800D01*
X160972932Y-67057669D01*
X160968600Y-67031110D01*
X160948260Y-66969886D01*
X160891868Y-66939871D01*
X160819836Y-66942182D01*
X160762146Y-66962469D01*
X160741214Y-67000077D01*
X160740000Y-67019974D01*
X160731566Y-67061194D01*
X160714600Y-67066100D01*
X160692818Y-67030064D01*
X160689200Y-67004063D01*
X160667067Y-66960887D01*
X160632050Y-66942409D01*
X160570593Y-66929210D01*
X160543491Y-66938698D01*
X160536882Y-66977566D01*
X160536800Y-66988400D01*
X160527434Y-67042182D01*
X160511400Y-67066100D01*
X160493306Y-67056292D01*
X160486003Y-67007228D01*
X160486000Y-67005810D01*
X160473162Y-66942309D01*
X160433285Y-66913092D01*
X160391234Y-66902765D01*
X160369959Y-66914632D01*
X160359587Y-66959900D01*
X160355074Y-67001863D01*
X160352467Y-67056261D01*
X160367210Y-67084972D01*
X160411798Y-67100778D01*
X160460600Y-67109825D01*
X160537080Y-67119733D01*
X160646060Y-67129665D01*
X160769261Y-67138067D01*
X160828506Y-67141119D01*
X160987526Y-67142465D01*
X161113244Y-67126406D01*
X161221750Y-67087413D01*
X161329134Y-67019957D01*
X161435679Y-66932487D01*
X161500576Y-66878564D01*
X161549609Y-66843574D01*
X161571579Y-66835112D01*
X161565151Y-66860486D01*
X161533541Y-66907822D01*
X161488061Y-66963745D01*
X161440024Y-67014880D01*
X161400744Y-67047852D01*
X161386941Y-67053400D01*
X161350415Y-67068190D01*
X161292303Y-67105709D01*
X161260645Y-67129643D01*
X161177131Y-67183491D01*
X161085643Y-67224943D01*
X161060303Y-67232726D01*
X160973165Y-67256205D01*
X160892759Y-67279531D01*
X160881084Y-67283150D01*
X160805917Y-67292559D01*
X160748628Y-67268967D01*
X160679860Y-67240917D01*
X160612843Y-67231200D01*
X160538410Y-67221771D01*
X160459686Y-67197228D01*
X160386083Y-67163186D01*
X160327011Y-67125260D01*
X160291881Y-67089064D01*
X160290104Y-67060215D01*
X160307749Y-67049166D01*
X160322067Y-67022115D01*
X160314527Y-66972679D01*
X160291906Y-66920436D01*
X160260981Y-66884963D01*
X160249223Y-66880087D01*
X160217149Y-66887863D01*
X160206028Y-66934347D01*
X160205802Y-66943587D01*
X160202833Y-66977351D01*
X160191899Y-66977754D01*
X160168326Y-66940313D01*
X160134972Y-66875600D01*
X160069967Y-66752007D01*
X160041367Y-66706416D01*
X160477914Y-66706416D01*
X160508499Y-66751869D01*
X160574683Y-66768795D01*
X160625700Y-66767518D01*
X160671958Y-66760362D01*
X160694034Y-66739362D01*
X160700487Y-66690236D01*
X160700438Y-66642792D01*
X160695887Y-66609367D01*
X160765611Y-66609367D01*
X160771507Y-66685335D01*
X160784394Y-66740342D01*
X160797150Y-66756924D01*
X160854716Y-66760215D01*
X160921149Y-66741620D01*
X160953814Y-66721160D01*
X160967336Y-66679594D01*
X160955405Y-66617280D01*
X160925401Y-66547522D01*
X160922726Y-66543322D01*
X160994000Y-66543322D01*
X161004105Y-66633342D01*
X161031253Y-66686489D01*
X161070690Y-66698153D01*
X161117660Y-66663723D01*
X161117879Y-66663460D01*
X161132805Y-66613170D01*
X161120784Y-66550578D01*
X161089693Y-66495941D01*
X161047413Y-66469514D01*
X161042315Y-66469200D01*
X161006246Y-66482828D01*
X160994202Y-66531446D01*
X160994000Y-66543322D01*
X160922726Y-66543322D01*
X160884702Y-66483625D01*
X160840688Y-66438895D01*
X160830165Y-66435666D01*
X161139312Y-66435666D01*
X161146099Y-66492878D01*
X161164369Y-66555789D01*
X161181372Y-66591139D01*
X161209531Y-66603916D01*
X161261244Y-66611960D01*
X161314454Y-66613662D01*
X161347099Y-66607413D01*
X161349600Y-66603405D01*
X161339145Y-66576531D01*
X161313728Y-66524330D01*
X161311237Y-66519491D01*
X161265385Y-66455743D01*
X161210533Y-66412588D01*
X161161083Y-66400127D01*
X161147746Y-66404867D01*
X161139312Y-66435666D01*
X160830165Y-66435666D01*
X160800737Y-66426636D01*
X160792400Y-66430110D01*
X160775804Y-66464312D01*
X160766959Y-66529878D01*
X160765611Y-66609367D01*
X160695887Y-66609367D01*
X160687657Y-66548933D01*
X160656828Y-66481044D01*
X160615327Y-66444305D01*
X160570532Y-66443897D01*
X160529818Y-66485000D01*
X160516546Y-66513650D01*
X160481180Y-66628366D01*
X160477914Y-66706416D01*
X160041367Y-66706416D01*
X160015471Y-66665138D01*
X159963466Y-66604416D01*
X159905933Y-66559262D01*
X159885730Y-66546777D01*
X159821676Y-66495042D01*
X159777311Y-66434529D01*
X159772969Y-66424065D01*
X159748730Y-66363736D01*
X159710625Y-66278341D01*
X159674310Y-66201718D01*
X159654107Y-66160324D01*
X159833196Y-66160324D01*
X159839435Y-66193378D01*
X159865319Y-66235492D01*
X159895090Y-66229427D01*
X159911782Y-66200422D01*
X159927338Y-66134742D01*
X159924595Y-66080303D01*
X159905686Y-66052294D01*
X159891063Y-66052861D01*
X159846537Y-66094104D01*
X159833196Y-66160324D01*
X159654107Y-66160324D01*
X159600307Y-66050100D01*
X159487548Y-66050100D01*
X159467570Y-65905540D01*
X159434025Y-65773287D01*
X159391778Y-65688983D01*
X159364770Y-65662787D01*
X159296476Y-65608166D01*
X159223102Y-65536246D01*
X159155723Y-65459600D01*
X159105414Y-65390801D01*
X159083383Y-65343353D01*
X159083516Y-65280697D01*
X159084606Y-65273772D01*
X159141144Y-65273772D01*
X159166401Y-65360861D01*
X159233987Y-65453046D01*
X159346478Y-65554629D01*
X159400307Y-65595686D01*
X159483317Y-65654183D01*
X159545886Y-65687653D01*
X159607084Y-65702996D01*
X159685982Y-65707114D01*
X159708438Y-65707200D01*
X159798503Y-65704732D01*
X159855629Y-65693288D01*
X159897593Y-65666808D01*
X159931951Y-65631000D01*
X160004605Y-65570208D01*
X160074962Y-65558968D01*
X160144595Y-65594096D01*
X160174083Y-65620003D01*
X160165593Y-65626473D01*
X160113286Y-65617896D01*
X160113017Y-65617845D01*
X160050429Y-65613965D01*
X160009112Y-65640730D01*
X159988041Y-65669593D01*
X159960177Y-65724650D01*
X159960928Y-65777638D01*
X159975037Y-65822871D01*
X159990206Y-65892718D01*
X159999448Y-65991189D01*
X160000822Y-66090560D01*
X160000265Y-66190683D01*
X160007164Y-66251704D01*
X160023562Y-66285031D01*
X160037558Y-66295796D01*
X160072196Y-66325803D01*
X160076797Y-66350424D01*
X160050212Y-66354283D01*
X160041714Y-66351467D01*
X160003840Y-66356838D01*
X159983383Y-66399472D01*
X159985226Y-66467401D01*
X159988444Y-66481956D01*
X160013720Y-66528984D01*
X160047636Y-66544273D01*
X160074057Y-66525322D01*
X160079600Y-66496099D01*
X160087294Y-66443564D01*
X160104764Y-66434062D01*
X160123592Y-66463194D01*
X160135261Y-66525177D01*
X160147829Y-66601900D01*
X160177311Y-66646447D01*
X160206600Y-66665059D01*
X160267697Y-66687970D01*
X160304803Y-66676275D01*
X160326157Y-66623799D01*
X160335006Y-66568827D01*
X160345003Y-66509831D01*
X160355841Y-66495185D01*
X160369140Y-66526759D01*
X160386522Y-66606422D01*
X160391737Y-66634300D01*
X160402270Y-66649351D01*
X160419561Y-66614940D01*
X160433189Y-66570800D01*
X160461294Y-66491288D01*
X160493725Y-66427316D01*
X160504999Y-66412050D01*
X160565435Y-66374742D01*
X160635011Y-66371853D01*
X160683519Y-66397479D01*
X160716076Y-66411552D01*
X160758737Y-66386238D01*
X160764149Y-66381432D01*
X160805713Y-66351174D01*
X160842425Y-66355460D01*
X160874779Y-66374740D01*
X160935815Y-66398766D01*
X160969467Y-66392463D01*
X161011872Y-66380561D01*
X161025814Y-66384264D01*
X161060994Y-66382592D01*
X161119308Y-66362342D01*
X161181079Y-66332284D01*
X161226631Y-66301186D01*
X161235720Y-66290720D01*
X161263071Y-66265563D01*
X161279749Y-66284184D01*
X161279666Y-66336421D01*
X161284821Y-66399887D01*
X161312460Y-66450150D01*
X161351645Y-66475954D01*
X161391439Y-66466038D01*
X161398520Y-66458764D01*
X161416258Y-66413163D01*
X161401268Y-66369223D01*
X161388690Y-66326578D01*
X161407905Y-66319101D01*
X161445043Y-66346203D01*
X161485681Y-66363447D01*
X161520498Y-66340705D01*
X161541317Y-66288741D01*
X161540421Y-66220678D01*
X161534596Y-66161764D01*
X161548086Y-66149054D01*
X161551179Y-66150698D01*
X161576070Y-66188480D01*
X161578200Y-66203999D01*
X161586512Y-66239535D01*
X161605338Y-66235571D01*
X161625508Y-66199437D01*
X161635653Y-66158050D01*
X161626932Y-66052643D01*
X161590866Y-65961200D01*
X161552571Y-65875188D01*
X161523147Y-65792461D01*
X161516121Y-65765762D01*
X161487986Y-65704277D01*
X161435026Y-65634029D01*
X161370266Y-65568363D01*
X161306729Y-65520621D01*
X161260626Y-65504000D01*
X161226872Y-65490261D01*
X161222600Y-65478600D01*
X161240177Y-65450410D01*
X161289999Y-65455621D01*
X161367694Y-65492417D01*
X161468895Y-65558983D01*
X161532852Y-65607516D01*
X161616041Y-65666003D01*
X161700470Y-65714061D01*
X161745898Y-65733457D01*
X161887570Y-65755635D01*
X162033886Y-65736391D01*
X162171261Y-65680546D01*
X162286109Y-65592921D01*
X162341736Y-65522033D01*
X162371914Y-65451036D01*
X162387116Y-65369464D01*
X162387770Y-65290785D01*
X162374301Y-65228468D01*
X162347136Y-65195981D01*
X162331361Y-65194534D01*
X162275615Y-65185041D01*
X162241950Y-65164131D01*
X162212715Y-65144622D01*
X162183231Y-65150557D01*
X162139796Y-65187202D01*
X162113757Y-65213363D01*
X162006045Y-65292283D01*
X161863961Y-65351421D01*
X161700834Y-65388462D01*
X161529994Y-65401091D01*
X161364770Y-65386993D01*
X161262887Y-65361115D01*
X161121249Y-65286953D01*
X161007218Y-65173832D01*
X160928542Y-65029554D01*
X160925691Y-65021706D01*
X160897492Y-64950670D01*
X160873450Y-64904459D01*
X160863142Y-64894400D01*
X160849475Y-64916742D01*
X160831439Y-64972924D01*
X160813021Y-65046676D01*
X160798207Y-65121730D01*
X160790986Y-65181816D01*
X160790800Y-65189612D01*
X160771467Y-65218928D01*
X160747979Y-65220078D01*
X160725079Y-65207375D01*
X160712368Y-65173173D01*
X160707502Y-65106709D01*
X160707524Y-65034179D01*
X160707244Y-64943359D01*
X160704261Y-64873528D01*
X160699214Y-64839296D01*
X160698983Y-64838880D01*
X160670289Y-64834181D01*
X160615322Y-64846637D01*
X160610514Y-64848272D01*
X160543774Y-64862583D01*
X160504395Y-64846755D01*
X160460228Y-64826480D01*
X160395542Y-64818200D01*
X160340754Y-64823029D01*
X160323354Y-64845025D01*
X160326603Y-64877621D01*
X160323732Y-64920886D01*
X160293438Y-64969159D01*
X160228631Y-65033205D01*
X160217905Y-65042721D01*
X160152045Y-65097852D01*
X160100203Y-65136087D01*
X160076023Y-65148400D01*
X160054856Y-65134035D01*
X160070122Y-65097286D01*
X160105000Y-65059500D01*
X160142378Y-65012709D01*
X160155868Y-64969698D01*
X160141501Y-64946193D01*
X160133847Y-64945200D01*
X160102003Y-64962415D01*
X160050153Y-65006531D01*
X159989101Y-65066256D01*
X159929650Y-65130295D01*
X159882605Y-65187355D01*
X159858767Y-65226142D01*
X159857984Y-65233577D01*
X159885873Y-65264864D01*
X159935425Y-65295835D01*
X159989878Y-65332347D01*
X159998480Y-65363109D01*
X159966088Y-65385489D01*
X159897555Y-65396855D01*
X159797735Y-65394575D01*
X159760634Y-65390615D01*
X159641716Y-65365586D01*
X159547778Y-65318705D01*
X159468868Y-65241786D01*
X159395034Y-65126642D01*
X159362084Y-65062763D01*
X159319120Y-64969328D01*
X159288693Y-64891209D01*
X159275399Y-64840762D01*
X159275920Y-64831069D01*
X159314101Y-64790708D01*
X159390831Y-64750221D01*
X159494069Y-64714076D01*
X159611770Y-64686741D01*
X159695789Y-64675291D01*
X159883270Y-64657866D01*
X159759185Y-64548509D01*
X159688887Y-64483964D01*
X159659120Y-64449062D01*
X159670044Y-64442607D01*
X159721822Y-64463400D01*
X159767667Y-64485964D01*
X159864456Y-64532035D01*
X159977257Y-64581028D01*
X160094349Y-64628415D01*
X160204008Y-64669664D01*
X160294511Y-64700244D01*
X160354135Y-64715626D01*
X160364438Y-64716600D01*
X160415753Y-64699591D01*
X160479710Y-64656747D01*
X160505037Y-64634257D01*
X160589992Y-64551915D01*
X160673071Y-64650871D01*
X160728627Y-64710545D01*
X160771376Y-64735757D01*
X160816045Y-64734734D01*
X160821034Y-64733543D01*
X160873856Y-64697069D01*
X160892331Y-64657195D01*
X162247632Y-64657195D01*
X162253930Y-64682666D01*
X162271698Y-64702526D01*
X162305352Y-64745072D01*
X162314800Y-64769214D01*
X162332070Y-64792387D01*
X162336020Y-64792800D01*
X162353526Y-64770399D01*
X162377404Y-64712257D01*
X162397784Y-64647131D01*
X162417956Y-64568343D01*
X162429090Y-64511945D01*
X162429395Y-64492528D01*
X162407456Y-64502960D01*
X162360936Y-64539385D01*
X162324528Y-64571509D01*
X162269428Y-64624451D01*
X162247632Y-64657195D01*
X160892331Y-64657195D01*
X160904330Y-64631299D01*
X160906476Y-64555029D01*
X160891586Y-64511880D01*
X160851873Y-64449931D01*
X160786714Y-64361922D01*
X160702562Y-64255366D01*
X160605869Y-64137776D01*
X160503086Y-64016666D01*
X160400666Y-63899550D01*
X160305061Y-63793940D01*
X160222723Y-63707351D01*
X160160104Y-63647296D01*
X160128702Y-63623491D01*
X160100198Y-63619150D01*
X160055667Y-63632718D01*
X159988301Y-63667538D01*
X159891289Y-63726955D01*
X159808635Y-63780662D01*
X159693335Y-63857921D01*
X159583271Y-63933997D01*
X159490970Y-64000092D01*
X159429336Y-64047097D01*
X159325173Y-64132313D01*
X159346501Y-64265706D01*
X159357492Y-64418621D01*
X159333756Y-64549552D01*
X159271751Y-64676619D01*
X159263704Y-64689204D01*
X159206629Y-64815881D01*
X159189928Y-64949827D01*
X159214849Y-65076070D01*
X159228856Y-65106853D01*
X159259755Y-65176145D01*
X159263192Y-65210196D01*
X159239552Y-65205730D01*
X159219138Y-65189340D01*
X159182562Y-65160923D01*
X159164180Y-65168404D01*
X159155638Y-65187480D01*
X159141144Y-65273772D01*
X159084606Y-65273772D01*
X159095614Y-65203902D01*
X159096748Y-65199200D01*
X159110841Y-65128776D01*
X159115821Y-65075688D01*
X159115636Y-65072200D01*
X159113123Y-65029821D01*
X159109285Y-64951884D01*
X159104863Y-64853588D01*
X159103892Y-64830900D01*
X159097232Y-64736384D01*
X159083676Y-64648959D01*
X159059811Y-64555221D01*
X159022229Y-64441764D01*
X158983605Y-64338263D01*
X159096533Y-64338263D01*
X159135046Y-64476631D01*
X159157508Y-64551659D01*
X159175576Y-64601908D01*
X159183375Y-64615000D01*
X159198442Y-64594093D01*
X159223415Y-64542302D01*
X159229996Y-64526915D01*
X159252019Y-64447628D01*
X159265167Y-64348972D01*
X159266800Y-64306033D01*
X159266800Y-64173234D01*
X159181666Y-64255748D01*
X159096533Y-64338263D01*
X158983605Y-64338263D01*
X158967805Y-64295924D01*
X158879380Y-64056267D01*
X158810966Y-63850188D01*
X158763492Y-63680869D01*
X158737886Y-63551491D01*
X158733400Y-63492557D01*
X158737502Y-63437235D01*
X158757899Y-63401662D01*
X158806725Y-63371544D01*
X158854050Y-63350430D01*
X159081435Y-63269125D01*
X159344407Y-63201929D01*
X159629244Y-63150745D01*
X159922220Y-63117473D01*
X160209611Y-63104018D01*
X160477695Y-63112279D01*
X160535151Y-63117448D01*
X160653958Y-63131831D01*
X160761265Y-63148739D01*
X160842132Y-63165625D01*
X160872413Y-63174956D01*
X160902660Y-63188631D01*
X160913638Y-63201361D01*
X160899557Y-63217161D01*
X160854629Y-63240044D01*
X160773064Y-63274025D01*
X160671451Y-63314299D01*
X160554708Y-63361822D01*
X160449408Y-63407421D01*
X160368200Y-63445456D01*
X160327558Y-63467632D01*
X160259598Y-63512213D01*
X161032100Y-64459413D01*
X161235300Y-64445727D01*
X161387617Y-64445079D01*
X161570533Y-64459509D01*
X161766788Y-64487054D01*
X161959124Y-64525752D01*
X161977203Y-64530093D01*
X162033306Y-64543781D01*
X161981861Y-64397412D01*
X161952519Y-64301942D01*
X161929658Y-64205171D01*
X161914843Y-64117891D01*
X161909636Y-64050896D01*
X161915600Y-64014978D01*
X161926243Y-64013429D01*
X161945165Y-64046464D01*
X161962382Y-64110833D01*
X161967504Y-64141764D01*
X161984723Y-64219866D01*
X162014483Y-64313244D01*
X162050905Y-64407219D01*
X162088107Y-64487112D01*
X162120208Y-64538244D01*
X162129891Y-64547106D01*
X162161939Y-64542379D01*
X162224467Y-64516250D01*
X162304808Y-64474132D01*
X162316877Y-64467198D01*
X162479900Y-64372480D01*
X162539127Y-64169890D01*
X162570279Y-64048773D01*
X162596340Y-63921334D01*
X162611949Y-63813990D01*
X162612455Y-63808550D01*
X162623596Y-63726333D01*
X162638704Y-63668966D01*
X162652932Y-63649800D01*
X162704071Y-63663638D01*
X162787058Y-63701523D01*
X162892379Y-63758007D01*
X163010520Y-63827645D01*
X163131966Y-63904991D01*
X163247204Y-63984598D01*
X163280000Y-64008750D01*
X163425853Y-64114425D01*
X163539298Y-64187877D01*
X163625026Y-64231582D01*
X163687727Y-64248018D01*
X163724153Y-64243318D01*
X163755129Y-64216582D01*
X163743935Y-64186077D01*
X163696588Y-64164118D01*
X163684410Y-64161984D01*
X163636192Y-64143422D01*
X163561605Y-64101450D01*
X163474273Y-64043981D01*
X163445100Y-64023051D01*
X163123022Y-63797682D01*
X162819881Y-63609817D01*
X162525883Y-63455062D01*
X162231237Y-63329025D01*
X161926151Y-63227313D01*
X161600831Y-63145533D01*
X161400400Y-63105754D01*
X160963857Y-63038232D01*
X160566373Y-63001688D01*
X160206798Y-62996055D01*
X159914500Y-63017373D01*
X159668128Y-63058496D01*
X159390219Y-63124340D01*
X159091556Y-63211530D01*
X158782925Y-63316692D01*
X158475110Y-63436449D01*
X158223543Y-63546560D01*
X158135635Y-63589079D01*
X158094841Y-63613416D01*
X158100842Y-63619567D01*
X158153314Y-63607528D01*
X158251938Y-63577294D01*
X158339700Y-63548199D01*
X158462073Y-63507634D01*
X158544441Y-63483946D01*
X158594698Y-63477097D01*
X158620741Y-63487051D01*
X158630464Y-63513771D01*
X158631800Y-63546826D01*
X158633668Y-63573888D01*
X158640382Y-63609994D01*
X158653603Y-63660153D01*
X158674992Y-63729375D01*
X158706212Y-63822670D01*
X158748923Y-63945045D01*
X158804788Y-64101512D01*
X158875468Y-64297079D01*
X158935017Y-64460932D01*
X158976713Y-64583305D01*
X159009052Y-64693478D01*
X159028797Y-64779394D01*
X159033110Y-64826125D01*
X159028922Y-64853445D01*
X159019396Y-64866510D01*
X158998947Y-64861610D01*
X158961989Y-64835038D01*
X158902937Y-64783085D01*
X158816204Y-64702042D01*
X158746100Y-64635580D01*
X158476028Y-64381771D01*
X158233790Y-64160101D01*
X158013007Y-63965162D01*
X157807295Y-63791544D01*
X157610273Y-63633839D01*
X157415560Y-63486637D01*
X157251861Y-63369075D01*
X157132587Y-63284828D01*
X157048571Y-63223115D01*
X156993412Y-63177400D01*
X156960706Y-63141146D01*
X156944052Y-63107818D01*
X156937047Y-63070880D01*
X156934903Y-63045516D01*
X156935016Y-63040200D01*
X157768200Y-63040200D01*
X157791002Y-63057619D01*
X157851227Y-63065231D01*
X157936597Y-63063753D01*
X158034836Y-63053904D01*
X158133670Y-63036401D01*
X158214829Y-63014067D01*
X158330765Y-62968537D01*
X158449523Y-62909614D01*
X158575096Y-62834213D01*
X158711478Y-62739249D01*
X158862663Y-62621639D01*
X159032645Y-62478298D01*
X159225417Y-62306142D01*
X159444973Y-62102086D01*
X159654955Y-61901911D01*
X159749485Y-61811760D01*
X160297194Y-61811760D01*
X160330870Y-61872288D01*
X160396217Y-61896941D01*
X160405211Y-61897200D01*
X160459648Y-61910802D01*
X160525966Y-61955365D01*
X160609315Y-62033168D01*
X160743595Y-62169137D01*
X160580686Y-62297162D01*
X160496618Y-62362159D01*
X160421578Y-62418298D01*
X160369490Y-62455204D01*
X160362989Y-62459403D01*
X160321474Y-62492234D01*
X160308200Y-62513393D01*
X160328971Y-62522180D01*
X160380095Y-62515492D01*
X160444782Y-62496793D01*
X160497126Y-62474436D01*
X160541191Y-62444115D01*
X160606254Y-62390758D01*
X160666919Y-62336324D01*
X160787485Y-62223548D01*
X160956002Y-62362549D01*
X161063662Y-62443398D01*
X161157008Y-62498139D01*
X161229026Y-62523401D01*
X161272703Y-62515809D01*
X161273360Y-62515180D01*
X161265366Y-62493253D01*
X161235260Y-62466581D01*
X161130921Y-62390290D01*
X161033922Y-62315504D01*
X160952427Y-62248930D01*
X160894597Y-62197273D01*
X160868596Y-62167242D01*
X160867929Y-62164772D01*
X160884090Y-62135451D01*
X160927308Y-62082408D01*
X160986695Y-62018722D01*
X161073656Y-61940425D01*
X161142137Y-61902412D01*
X161174085Y-61897200D01*
X161246584Y-61880224D01*
X161285464Y-61827463D01*
X161292745Y-61736160D01*
X161292705Y-61735590D01*
X161286300Y-61675468D01*
X161278886Y-61644413D01*
X161277437Y-61643250D01*
X161250999Y-61658847D01*
X161203610Y-61697667D01*
X161148428Y-61747554D01*
X161098609Y-61796350D01*
X161067312Y-61831897D01*
X161062804Y-61841571D01*
X161049436Y-61868794D01*
X161009558Y-61917380D01*
X160954860Y-61975200D01*
X160897028Y-62030127D01*
X160847751Y-62070032D01*
X160834842Y-62078122D01*
X160802406Y-62084426D01*
X160759287Y-62066848D01*
X160695790Y-62020348D01*
X160650687Y-61982363D01*
X160577907Y-61914110D01*
X160540461Y-61866403D01*
X160540145Y-61844332D01*
X160543039Y-61820247D01*
X160500799Y-61783285D01*
X160495700Y-61779985D01*
X160431309Y-61733339D01*
X160381420Y-61688304D01*
X160341460Y-61650745D01*
X160318531Y-61654649D01*
X160302500Y-61704090D01*
X160298894Y-61721479D01*
X160297194Y-61811760D01*
X159749485Y-61811760D01*
X159845756Y-61719950D01*
X160006644Y-61570381D01*
X160142875Y-61448942D01*
X160259709Y-61351370D01*
X160362403Y-61273403D01*
X160456217Y-61210778D01*
X160546409Y-61159233D01*
X160610580Y-61127284D01*
X160782243Y-61065893D01*
X160944812Y-61050445D01*
X161104238Y-61081821D01*
X161266474Y-61160902D01*
X161379757Y-61241053D01*
X161464577Y-61321113D01*
X161565511Y-61440945D01*
X161683715Y-61602136D01*
X161820347Y-61806274D01*
X161976562Y-62054947D01*
X161996584Y-62087700D01*
X162165118Y-62358003D01*
X162316393Y-62586383D01*
X162454273Y-62777118D01*
X162582620Y-62934486D01*
X162705299Y-63062764D01*
X162826171Y-63166231D01*
X162949100Y-63249164D01*
X163077949Y-63315841D01*
X163123301Y-63335366D01*
X163226426Y-63375064D01*
X163290990Y-63392413D01*
X163323499Y-63388513D01*
X163330800Y-63370400D01*
X163309855Y-63348806D01*
X163286714Y-63345000D01*
X163209456Y-63326910D01*
X163109882Y-63277309D01*
X162998803Y-63203195D01*
X162887032Y-63111568D01*
X162810080Y-63036441D01*
X162730417Y-62948427D01*
X162653515Y-62855014D01*
X162574958Y-62749729D01*
X162490324Y-62626099D01*
X162395197Y-62477649D01*
X162285156Y-62297906D01*
X162155782Y-62080396D01*
X162145129Y-62062300D01*
X162028601Y-61864992D01*
X161932869Y-61704994D01*
X161853542Y-61575499D01*
X161786231Y-61469698D01*
X161726547Y-61380785D01*
X161670100Y-61301951D01*
X161612500Y-61226389D01*
X161578250Y-61183147D01*
X161416605Y-61003151D01*
X161259356Y-60873019D01*
X161105440Y-60792110D01*
X160953790Y-60759782D01*
X160878852Y-60761598D01*
X160786145Y-60777293D01*
X160692112Y-60807027D01*
X160593052Y-60853656D01*
X160485268Y-60920035D01*
X160365059Y-61009020D01*
X160228727Y-61123465D01*
X160072572Y-61266227D01*
X159892895Y-61440161D01*
X159685997Y-61648121D01*
X159551011Y-61786543D01*
X159339965Y-62002732D01*
X159158332Y-62185310D01*
X159001552Y-62338434D01*
X158865069Y-62466263D01*
X158744324Y-62572958D01*
X158634761Y-62662677D01*
X158531820Y-62739580D01*
X158434152Y-62805757D01*
X158295813Y-62883385D01*
X158146188Y-62947805D01*
X158001172Y-62993288D01*
X157876658Y-63014100D01*
X157854424Y-63014800D01*
X157796735Y-63021363D01*
X157768709Y-63037439D01*
X157768200Y-63040200D01*
X156935016Y-63040200D01*
X156936601Y-62965674D01*
X156962255Y-62908147D01*
X156993643Y-62872647D01*
X157060180Y-62806110D01*
X157704700Y-62841522D01*
X157857100Y-62761204D01*
X157974993Y-62694915D01*
X158091837Y-62619848D01*
X158211706Y-62532330D01*
X158338673Y-62428685D01*
X158476813Y-62305239D01*
X158630199Y-62158317D01*
X158802907Y-61984244D01*
X158999010Y-61779347D01*
X159222582Y-61539950D01*
X159279722Y-61478100D01*
X159519531Y-61219954D01*
X159729998Y-60997802D01*
X159914408Y-60808701D01*
X160076048Y-60649708D01*
X160218203Y-60517881D01*
X160344160Y-60410276D01*
X160457205Y-60323952D01*
X160560623Y-60255964D01*
X160657701Y-60203372D01*
X160745266Y-60165662D01*
X160885606Y-60126837D01*
X161009699Y-60127292D01*
X161009699Y-60127292D01*
G37*
X161009699Y-60127292D02*
X161133591Y-60167085D01*
X161133700Y-60167135D01*
X161226890Y-60218698D01*
X161323394Y-60290254D01*
X161425409Y-60384661D01*
X161535130Y-60504775D01*
X161654755Y-60653455D01*
X161786480Y-60833558D01*
X161932501Y-61047941D01*
X162095016Y-61299463D01*
X162276221Y-61590981D01*
X162453863Y-61884500D01*
X162630365Y-62175957D01*
X162785696Y-62425346D01*
X162922127Y-62635665D01*
X163041929Y-62809913D01*
X163147377Y-62951087D01*
X163240741Y-63062186D01*
X163324295Y-63146208D01*
X163400309Y-63206151D01*
X163471058Y-63245014D01*
X163490773Y-63252719D01*
X163561105Y-63271230D01*
X163665969Y-63290959D01*
X163789253Y-63309126D01*
X163876900Y-63319325D01*
X164042261Y-63338797D01*
X164202718Y-63362281D01*
X164348183Y-63387909D01*
X164468567Y-63413812D01*
X164553784Y-63438124D01*
X164581246Y-63449728D01*
X164601818Y-63467343D01*
X164615080Y-63500161D01*
X164622542Y-63557850D01*
X164625718Y-63650079D01*
X164626200Y-63737265D01*
X164626200Y-64000743D01*
X164511577Y-64141454D01*
X164348207Y-64316225D01*
X164141868Y-64494917D01*
X163899669Y-64672916D01*
X163628717Y-64845604D01*
X163336120Y-65008366D01*
X163028987Y-65156585D01*
X162800751Y-65252530D01*
X162556100Y-65348877D01*
X162536337Y-65242288D01*
X162526523Y-65116676D01*
X162534341Y-64955984D01*
X162557742Y-64771967D01*
X162594678Y-64576380D01*
X162643103Y-64380976D01*
X162700968Y-64197510D01*
X162732970Y-64113512D01*
X162766966Y-64025547D01*
X162781921Y-63967207D01*
X162779865Y-63921894D01*
X162762830Y-63873010D01*
X162762491Y-63872212D01*
X162748508Y-63838771D01*
X162737334Y-63818509D01*
X162726345Y-63816837D01*
X162712916Y-63839167D01*
X162694423Y-63890910D01*
X162668244Y-63977478D01*
X162631753Y-64104283D01*
X162605546Y-64195900D01*
X162547446Y-64400066D01*
X162502477Y-64562605D01*
X162469238Y-64690566D01*
X162446328Y-64790998D01*
X162432346Y-64870950D01*
X162425889Y-64937471D01*
X162425558Y-64997611D01*
X162429951Y-65058420D01*
X162431371Y-65072200D01*
X162441574Y-65185755D01*
X162449163Y-65303020D01*
X162451742Y-65369857D01*
X162451314Y-65437238D01*
X162441852Y-65486989D01*
X162416138Y-65533220D01*
X162366954Y-65590044D01*
X162308450Y-65649994D01*
X162240824Y-65720594D01*
X162195908Y-65779059D01*
X162171628Y-65836898D01*
X162165911Y-65905622D01*
X162176685Y-65996741D01*
X162201876Y-66121763D01*
X162213749Y-66175813D01*
X162243547Y-66318036D01*
X162259052Y-66423403D01*
X162258693Y-66504235D01*
X162240901Y-66572857D01*
X162204108Y-66641591D01*
X162146744Y-66722761D01*
X162143557Y-66727033D01*
X162037618Y-66860982D01*
X161928211Y-66981026D01*
X161804291Y-67097824D01*
X161654816Y-67222032D01*
X161533705Y-67315587D01*
X161431127Y-67395503D01*
X161340870Y-67470137D01*
X161272296Y-67531455D01*
X161234769Y-67571420D01*
X161233579Y-67573161D01*
X161190345Y-67620367D01*
X161127282Y-67653564D01*
X161036523Y-67674677D01*
X160910199Y-67685632D01*
X160762806Y-67688400D01*
X160488393Y-67688400D01*
X160405315Y-67585019D01*
X160351988Y-67527243D01*
X160270327Y-67448914D01*
X160171966Y-67360833D01*
X160080268Y-67283364D01*
X159888238Y-67119679D01*
X159736766Y-66976740D01*
X159626839Y-66855615D01*
X159559446Y-66757374D01*
X159536714Y-66695299D01*
X159530103Y-66634900D01*
X159522427Y-66538115D01*
X159514729Y-66419315D01*
X159509196Y-66316800D01*
X159492574Y-66086468D01*
X159487548Y-66050100D01*
X159600307Y-66050100D01*
X159612697Y-66316800D01*
X159619074Y-66437266D01*
X159626265Y-66546783D01*
X159633209Y-66630268D01*
X159637032Y-66663051D01*
X159661983Y-66743241D01*
X159715960Y-66830655D01*
X159802802Y-66929669D01*
X159926345Y-67044659D01*
X160090354Y-67179943D01*
X160199232Y-67267912D01*
X160297611Y-67350642D01*
X160376580Y-67420405D01*
X160427227Y-67469473D01*
X160436334Y-67479970D01*
X160485670Y-67532556D01*
X160530993Y-67565301D01*
X160532546Y-67565964D01*
X160589000Y-67577171D01*
X160679528Y-67583216D01*
X160787681Y-67584239D01*
X160897010Y-67580377D01*
X160991067Y-67571767D01*
X161043805Y-67561685D01*
X161110011Y-67530140D01*
X161189986Y-67474757D01*
X161246838Y-67425684D01*
X161318946Y-67360977D01*
X161416320Y-67279651D01*
X161523037Y-67194825D01*
X161576630Y-67153918D01*
X161732000Y-67032885D01*
X161853429Y-66926940D01*
X161951136Y-66826055D01*
X162035340Y-66720206D01*
X162071433Y-66668455D01*
X162129490Y-66566538D01*
X162158326Y-66468236D01*
X162159709Y-66358390D01*
X162135405Y-66221838D01*
X162127313Y-66188786D01*
X162103756Y-66090310D01*
X162083049Y-65994813D01*
X162075362Y-65954850D01*
X162053844Y-65885126D01*
X162020252Y-65860076D01*
X162015199Y-65859817D01*
X161982462Y-65883229D01*
X161949001Y-65945004D01*
X161918733Y-66032919D01*
X161895575Y-66134747D01*
X161883445Y-66238266D01*
X161882532Y-66273849D01*
X161877973Y-66351382D01*
X161863761Y-66380913D01*
X161855890Y-66379243D01*
X161829543Y-66386251D01*
X161814721Y-66416252D01*
X161792359Y-66457501D01*
X161771980Y-66466599D01*
X161698022Y-66466504D01*
X161661842Y-66492197D01*
X161654400Y-66532700D01*
X161643997Y-66582265D01*
X161620765Y-66595546D01*
X161596662Y-66566035D01*
X161596062Y-66564450D01*
X161576697Y-66549842D01*
X161538634Y-66576268D01*
X161537611Y-66577241D01*
X161507249Y-66617275D01*
X161508238Y-66663687D01*
X161519618Y-66697781D01*
X161533703Y-66753601D01*
X161528861Y-66785665D01*
X161527813Y-66786444D01*
X161502803Y-66778421D01*
X161492758Y-66761154D01*
X161462320Y-66726204D01*
X161416663Y-66739579D01*
X161390469Y-66762159D01*
X161365064Y-66807827D01*
X161375955Y-66865412D01*
X161395997Y-66922566D01*
X161396791Y-66946728D01*
X161378625Y-66951797D01*
X161377753Y-66951800D01*
X161355393Y-66930273D01*
X161339169Y-66888300D01*
X161313025Y-66836594D01*
X161278022Y-66825240D01*
X161243396Y-66847120D01*
X161218381Y-66895117D01*
X161212215Y-66962113D01*
X161215221Y-66983820D01*
X161216740Y-67037996D01*
X161200097Y-67051923D01*
X161176349Y-67026904D01*
X161159100Y-66977200D01*
X161141275Y-66923894D01*
X161121492Y-66901015D01*
X161121059Y-66901000D01*
X161054334Y-66920710D01*
X161021904Y-66977088D01*
X161019400Y-67005317D01*
X161011792Y-67057633D01*
X160994000Y-67078800D01*
X160972932Y-67057669D01*
X160968600Y-67031110D01*
X160948260Y-66969886D01*
X160891868Y-66939871D01*
X160819836Y-66942182D01*
X160762146Y-66962469D01*
X160741214Y-67000077D01*
X160740000Y-67019974D01*
X160731566Y-67061194D01*
X160714600Y-67066100D01*
X160692818Y-67030064D01*
X160689200Y-67004063D01*
X160667067Y-66960887D01*
X160632050Y-66942409D01*
X160570593Y-66929210D01*
X160543491Y-66938698D01*
X160536882Y-66977566D01*
X160536800Y-66988400D01*
X160527434Y-67042182D01*
X160511400Y-67066100D01*
X160493306Y-67056292D01*
X160486003Y-67007228D01*
X160486000Y-67005810D01*
X160473162Y-66942309D01*
X160433285Y-66913092D01*
X160391234Y-66902765D01*
X160369959Y-66914632D01*
X160359587Y-66959900D01*
X160355074Y-67001863D01*
X160352467Y-67056261D01*
X160367210Y-67084972D01*
X160411798Y-67100778D01*
X160460600Y-67109825D01*
X160537080Y-67119733D01*
X160646060Y-67129665D01*
X160769261Y-67138067D01*
X160828506Y-67141119D01*
X160987526Y-67142465D01*
X161113244Y-67126406D01*
X161221750Y-67087413D01*
X161329134Y-67019957D01*
X161435679Y-66932487D01*
X161500576Y-66878564D01*
X161549609Y-66843574D01*
X161571579Y-66835112D01*
X161565151Y-66860486D01*
X161533541Y-66907822D01*
X161488061Y-66963745D01*
X161440024Y-67014880D01*
X161400744Y-67047852D01*
X161386941Y-67053400D01*
X161350415Y-67068190D01*
X161292303Y-67105709D01*
X161260645Y-67129643D01*
X161177131Y-67183491D01*
X161085643Y-67224943D01*
X161060303Y-67232726D01*
X160973165Y-67256205D01*
X160892759Y-67279531D01*
X160881084Y-67283150D01*
X160805917Y-67292559D01*
X160748628Y-67268967D01*
X160679860Y-67240917D01*
X160612843Y-67231200D01*
X160538410Y-67221771D01*
X160459686Y-67197228D01*
X160386083Y-67163186D01*
X160327011Y-67125260D01*
X160291881Y-67089064D01*
X160290104Y-67060215D01*
X160307749Y-67049166D01*
X160322067Y-67022115D01*
X160314527Y-66972679D01*
X160291906Y-66920436D01*
X160260981Y-66884963D01*
X160249223Y-66880087D01*
X160217149Y-66887863D01*
X160206028Y-66934347D01*
X160205802Y-66943587D01*
X160202833Y-66977351D01*
X160191899Y-66977754D01*
X160168326Y-66940313D01*
X160134972Y-66875600D01*
X160069967Y-66752007D01*
X160041367Y-66706416D01*
X160477914Y-66706416D01*
X160508499Y-66751869D01*
X160574683Y-66768795D01*
X160625700Y-66767518D01*
X160671958Y-66760362D01*
X160694034Y-66739362D01*
X160700487Y-66690236D01*
X160700438Y-66642792D01*
X160695887Y-66609367D01*
X160765611Y-66609367D01*
X160771507Y-66685335D01*
X160784394Y-66740342D01*
X160797150Y-66756924D01*
X160854716Y-66760215D01*
X160921149Y-66741620D01*
X160953814Y-66721160D01*
X160967336Y-66679594D01*
X160955405Y-66617280D01*
X160925401Y-66547522D01*
X160922726Y-66543322D01*
X160994000Y-66543322D01*
X161004105Y-66633342D01*
X161031253Y-66686489D01*
X161070690Y-66698153D01*
X161117660Y-66663723D01*
X161117879Y-66663460D01*
X161132805Y-66613170D01*
X161120784Y-66550578D01*
X161089693Y-66495941D01*
X161047413Y-66469514D01*
X161042315Y-66469200D01*
X161006246Y-66482828D01*
X160994202Y-66531446D01*
X160994000Y-66543322D01*
X160922726Y-66543322D01*
X160884702Y-66483625D01*
X160840688Y-66438895D01*
X160830165Y-66435666D01*
X161139312Y-66435666D01*
X161146099Y-66492878D01*
X161164369Y-66555789D01*
X161181372Y-66591139D01*
X161209531Y-66603916D01*
X161261244Y-66611960D01*
X161314454Y-66613662D01*
X161347099Y-66607413D01*
X161349600Y-66603405D01*
X161339145Y-66576531D01*
X161313728Y-66524330D01*
X161311237Y-66519491D01*
X161265385Y-66455743D01*
X161210533Y-66412588D01*
X161161083Y-66400127D01*
X161147746Y-66404867D01*
X161139312Y-66435666D01*
X160830165Y-66435666D01*
X160800737Y-66426636D01*
X160792400Y-66430110D01*
X160775804Y-66464312D01*
X160766959Y-66529878D01*
X160765611Y-66609367D01*
X160695887Y-66609367D01*
X160687657Y-66548933D01*
X160656828Y-66481044D01*
X160615327Y-66444305D01*
X160570532Y-66443897D01*
X160529818Y-66485000D01*
X160516546Y-66513650D01*
X160481180Y-66628366D01*
X160477914Y-66706416D01*
X160041367Y-66706416D01*
X160015471Y-66665138D01*
X159963466Y-66604416D01*
X159905933Y-66559262D01*
X159885730Y-66546777D01*
X159821676Y-66495042D01*
X159777311Y-66434529D01*
X159772969Y-66424065D01*
X159748730Y-66363736D01*
X159710625Y-66278341D01*
X159674310Y-66201718D01*
X159654107Y-66160324D01*
X159833196Y-66160324D01*
X159839435Y-66193378D01*
X159865319Y-66235492D01*
X159895090Y-66229427D01*
X159911782Y-66200422D01*
X159927338Y-66134742D01*
X159924595Y-66080303D01*
X159905686Y-66052294D01*
X159891063Y-66052861D01*
X159846537Y-66094104D01*
X159833196Y-66160324D01*
X159654107Y-66160324D01*
X159600307Y-66050100D01*
X159487548Y-66050100D01*
X159467570Y-65905540D01*
X159434025Y-65773287D01*
X159391778Y-65688983D01*
X159364770Y-65662787D01*
X159296476Y-65608166D01*
X159223102Y-65536246D01*
X159155723Y-65459600D01*
X159105414Y-65390801D01*
X159083383Y-65343353D01*
X159083516Y-65280697D01*
X159084606Y-65273772D01*
X159141144Y-65273772D01*
X159166401Y-65360861D01*
X159233987Y-65453046D01*
X159346478Y-65554629D01*
X159400307Y-65595686D01*
X159483317Y-65654183D01*
X159545886Y-65687653D01*
X159607084Y-65702996D01*
X159685982Y-65707114D01*
X159708438Y-65707200D01*
X159798503Y-65704732D01*
X159855629Y-65693288D01*
X159897593Y-65666808D01*
X159931951Y-65631000D01*
X160004605Y-65570208D01*
X160074962Y-65558968D01*
X160144595Y-65594096D01*
X160174083Y-65620003D01*
X160165593Y-65626473D01*
X160113286Y-65617896D01*
X160113017Y-65617845D01*
X160050429Y-65613965D01*
X160009112Y-65640730D01*
X159988041Y-65669593D01*
X159960177Y-65724650D01*
X159960928Y-65777638D01*
X159975037Y-65822871D01*
X159990206Y-65892718D01*
X159999448Y-65991189D01*
X160000822Y-66090560D01*
X160000265Y-66190683D01*
X160007164Y-66251704D01*
X160023562Y-66285031D01*
X160037558Y-66295796D01*
X160072196Y-66325803D01*
X160076797Y-66350424D01*
X160050212Y-66354283D01*
X160041714Y-66351467D01*
X160003840Y-66356838D01*
X159983383Y-66399472D01*
X159985226Y-66467401D01*
X159988444Y-66481956D01*
X160013720Y-66528984D01*
X160047636Y-66544273D01*
X160074057Y-66525322D01*
X160079600Y-66496099D01*
X160087294Y-66443564D01*
X160104764Y-66434062D01*
X160123592Y-66463194D01*
X160135261Y-66525177D01*
X160147829Y-66601900D01*
X160177311Y-66646447D01*
X160206600Y-66665059D01*
X160267697Y-66687970D01*
X160304803Y-66676275D01*
X160326157Y-66623799D01*
X160335006Y-66568827D01*
X160345003Y-66509831D01*
X160355841Y-66495185D01*
X160369140Y-66526759D01*
X160386522Y-66606422D01*
X160391737Y-66634300D01*
X160402270Y-66649351D01*
X160419561Y-66614940D01*
X160433189Y-66570800D01*
X160461294Y-66491288D01*
X160493725Y-66427316D01*
X160504999Y-66412050D01*
X160565435Y-66374742D01*
X160635011Y-66371853D01*
X160683519Y-66397479D01*
X160716076Y-66411552D01*
X160758737Y-66386238D01*
X160764149Y-66381432D01*
X160805713Y-66351174D01*
X160842425Y-66355460D01*
X160874779Y-66374740D01*
X160935815Y-66398766D01*
X160969467Y-66392463D01*
X161011872Y-66380561D01*
X161025814Y-66384264D01*
X161060994Y-66382592D01*
X161119308Y-66362342D01*
X161181079Y-66332284D01*
X161226631Y-66301186D01*
X161235720Y-66290720D01*
X161263071Y-66265563D01*
X161279749Y-66284184D01*
X161279666Y-66336421D01*
X161284821Y-66399887D01*
X161312460Y-66450150D01*
X161351645Y-66475954D01*
X161391439Y-66466038D01*
X161398520Y-66458764D01*
X161416258Y-66413163D01*
X161401268Y-66369223D01*
X161388690Y-66326578D01*
X161407905Y-66319101D01*
X161445043Y-66346203D01*
X161485681Y-66363447D01*
X161520498Y-66340705D01*
X161541317Y-66288741D01*
X161540421Y-66220678D01*
X161534596Y-66161764D01*
X161548086Y-66149054D01*
X161551179Y-66150698D01*
X161576070Y-66188480D01*
X161578200Y-66203999D01*
X161586512Y-66239535D01*
X161605338Y-66235571D01*
X161625508Y-66199437D01*
X161635653Y-66158050D01*
X161626932Y-66052643D01*
X161590866Y-65961200D01*
X161552571Y-65875188D01*
X161523147Y-65792461D01*
X161516121Y-65765762D01*
X161487986Y-65704277D01*
X161435026Y-65634029D01*
X161370266Y-65568363D01*
X161306729Y-65520621D01*
X161260626Y-65504000D01*
X161226872Y-65490261D01*
X161222600Y-65478600D01*
X161240177Y-65450410D01*
X161289999Y-65455621D01*
X161367694Y-65492417D01*
X161468895Y-65558983D01*
X161532852Y-65607516D01*
X161616041Y-65666003D01*
X161700470Y-65714061D01*
X161745898Y-65733457D01*
X161887570Y-65755635D01*
X162033886Y-65736391D01*
X162171261Y-65680546D01*
X162286109Y-65592921D01*
X162341736Y-65522033D01*
X162371914Y-65451036D01*
X162387116Y-65369464D01*
X162387770Y-65290785D01*
X162374301Y-65228468D01*
X162347136Y-65195981D01*
X162331361Y-65194534D01*
X162275615Y-65185041D01*
X162241950Y-65164131D01*
X162212715Y-65144622D01*
X162183231Y-65150557D01*
X162139796Y-65187202D01*
X162113757Y-65213363D01*
X162006045Y-65292283D01*
X161863961Y-65351421D01*
X161700834Y-65388462D01*
X161529994Y-65401091D01*
X161364770Y-65386993D01*
X161262887Y-65361115D01*
X161121249Y-65286953D01*
X161007218Y-65173832D01*
X160928542Y-65029554D01*
X160925691Y-65021706D01*
X160897492Y-64950670D01*
X160873450Y-64904459D01*
X160863142Y-64894400D01*
X160849475Y-64916742D01*
X160831439Y-64972924D01*
X160813021Y-65046676D01*
X160798207Y-65121730D01*
X160790986Y-65181816D01*
X160790800Y-65189612D01*
X160771467Y-65218928D01*
X160747979Y-65220078D01*
X160725079Y-65207375D01*
X160712368Y-65173173D01*
X160707502Y-65106709D01*
X160707524Y-65034179D01*
X160707244Y-64943359D01*
X160704261Y-64873528D01*
X160699214Y-64839296D01*
X160698983Y-64838880D01*
X160670289Y-64834181D01*
X160615322Y-64846637D01*
X160610514Y-64848272D01*
X160543774Y-64862583D01*
X160504395Y-64846755D01*
X160460228Y-64826480D01*
X160395542Y-64818200D01*
X160340754Y-64823029D01*
X160323354Y-64845025D01*
X160326603Y-64877621D01*
X160323732Y-64920886D01*
X160293438Y-64969159D01*
X160228631Y-65033205D01*
X160217905Y-65042721D01*
X160152045Y-65097852D01*
X160100203Y-65136087D01*
X160076023Y-65148400D01*
X160054856Y-65134035D01*
X160070122Y-65097286D01*
X160105000Y-65059500D01*
X160142378Y-65012709D01*
X160155868Y-64969698D01*
X160141501Y-64946193D01*
X160133847Y-64945200D01*
X160102003Y-64962415D01*
X160050153Y-65006531D01*
X159989101Y-65066256D01*
X159929650Y-65130295D01*
X159882605Y-65187355D01*
X159858767Y-65226142D01*
X159857984Y-65233577D01*
X159885873Y-65264864D01*
X159935425Y-65295835D01*
X159989878Y-65332347D01*
X159998480Y-65363109D01*
X159966088Y-65385489D01*
X159897555Y-65396855D01*
X159797735Y-65394575D01*
X159760634Y-65390615D01*
X159641716Y-65365586D01*
X159547778Y-65318705D01*
X159468868Y-65241786D01*
X159395034Y-65126642D01*
X159362084Y-65062763D01*
X159319120Y-64969328D01*
X159288693Y-64891209D01*
X159275399Y-64840762D01*
X159275920Y-64831069D01*
X159314101Y-64790708D01*
X159390831Y-64750221D01*
X159494069Y-64714076D01*
X159611770Y-64686741D01*
X159695789Y-64675291D01*
X159883270Y-64657866D01*
X159759185Y-64548509D01*
X159688887Y-64483964D01*
X159659120Y-64449062D01*
X159670044Y-64442607D01*
X159721822Y-64463400D01*
X159767667Y-64485964D01*
X159864456Y-64532035D01*
X159977257Y-64581028D01*
X160094349Y-64628415D01*
X160204008Y-64669664D01*
X160294511Y-64700244D01*
X160354135Y-64715626D01*
X160364438Y-64716600D01*
X160415753Y-64699591D01*
X160479710Y-64656747D01*
X160505037Y-64634257D01*
X160589992Y-64551915D01*
X160673071Y-64650871D01*
X160728627Y-64710545D01*
X160771376Y-64735757D01*
X160816045Y-64734734D01*
X160821034Y-64733543D01*
X160873856Y-64697069D01*
X160892331Y-64657195D01*
X162247632Y-64657195D01*
X162253930Y-64682666D01*
X162271698Y-64702526D01*
X162305352Y-64745072D01*
X162314800Y-64769214D01*
X162332070Y-64792387D01*
X162336020Y-64792800D01*
X162353526Y-64770399D01*
X162377404Y-64712257D01*
X162397784Y-64647131D01*
X162417956Y-64568343D01*
X162429090Y-64511945D01*
X162429395Y-64492528D01*
X162407456Y-64502960D01*
X162360936Y-64539385D01*
X162324528Y-64571509D01*
X162269428Y-64624451D01*
X162247632Y-64657195D01*
X160892331Y-64657195D01*
X160904330Y-64631299D01*
X160906476Y-64555029D01*
X160891586Y-64511880D01*
X160851873Y-64449931D01*
X160786714Y-64361922D01*
X160702562Y-64255366D01*
X160605869Y-64137776D01*
X160503086Y-64016666D01*
X160400666Y-63899550D01*
X160305061Y-63793940D01*
X160222723Y-63707351D01*
X160160104Y-63647296D01*
X160128702Y-63623491D01*
X160100198Y-63619150D01*
X160055667Y-63632718D01*
X159988301Y-63667538D01*
X159891289Y-63726955D01*
X159808635Y-63780662D01*
X159693335Y-63857921D01*
X159583271Y-63933997D01*
X159490970Y-64000092D01*
X159429336Y-64047097D01*
X159325173Y-64132313D01*
X159346501Y-64265706D01*
X159357492Y-64418621D01*
X159333756Y-64549552D01*
X159271751Y-64676619D01*
X159263704Y-64689204D01*
X159206629Y-64815881D01*
X159189928Y-64949827D01*
X159214849Y-65076070D01*
X159228856Y-65106853D01*
X159259755Y-65176145D01*
X159263192Y-65210196D01*
X159239552Y-65205730D01*
X159219138Y-65189340D01*
X159182562Y-65160923D01*
X159164180Y-65168404D01*
X159155638Y-65187480D01*
X159141144Y-65273772D01*
X159084606Y-65273772D01*
X159095614Y-65203902D01*
X159096748Y-65199200D01*
X159110841Y-65128776D01*
X159115821Y-65075688D01*
X159115636Y-65072200D01*
X159113123Y-65029821D01*
X159109285Y-64951884D01*
X159104863Y-64853588D01*
X159103892Y-64830900D01*
X159097232Y-64736384D01*
X159083676Y-64648959D01*
X159059811Y-64555221D01*
X159022229Y-64441764D01*
X158983605Y-64338263D01*
X159096533Y-64338263D01*
X159135046Y-64476631D01*
X159157508Y-64551659D01*
X159175576Y-64601908D01*
X159183375Y-64615000D01*
X159198442Y-64594093D01*
X159223415Y-64542302D01*
X159229996Y-64526915D01*
X159252019Y-64447628D01*
X159265167Y-64348972D01*
X159266800Y-64306033D01*
X159266800Y-64173234D01*
X159181666Y-64255748D01*
X159096533Y-64338263D01*
X158983605Y-64338263D01*
X158967805Y-64295924D01*
X158879380Y-64056267D01*
X158810966Y-63850188D01*
X158763492Y-63680869D01*
X158737886Y-63551491D01*
X158733400Y-63492557D01*
X158737502Y-63437235D01*
X158757899Y-63401662D01*
X158806725Y-63371544D01*
X158854050Y-63350430D01*
X159081435Y-63269125D01*
X159344407Y-63201929D01*
X159629244Y-63150745D01*
X159922220Y-63117473D01*
X160209611Y-63104018D01*
X160477695Y-63112279D01*
X160535151Y-63117448D01*
X160653958Y-63131831D01*
X160761265Y-63148739D01*
X160842132Y-63165625D01*
X160872413Y-63174956D01*
X160902660Y-63188631D01*
X160913638Y-63201361D01*
X160899557Y-63217161D01*
X160854629Y-63240044D01*
X160773064Y-63274025D01*
X160671451Y-63314299D01*
X160554708Y-63361822D01*
X160449408Y-63407421D01*
X160368200Y-63445456D01*
X160327558Y-63467632D01*
X160259598Y-63512213D01*
X161032100Y-64459413D01*
X161235300Y-64445727D01*
X161387617Y-64445079D01*
X161570533Y-64459509D01*
X161766788Y-64487054D01*
X161959124Y-64525752D01*
X161977203Y-64530093D01*
X162033306Y-64543781D01*
X161981861Y-64397412D01*
X161952519Y-64301942D01*
X161929658Y-64205171D01*
X161914843Y-64117891D01*
X161909636Y-64050896D01*
X161915600Y-64014978D01*
X161926243Y-64013429D01*
X161945165Y-64046464D01*
X161962382Y-64110833D01*
X161967504Y-64141764D01*
X161984723Y-64219866D01*
X162014483Y-64313244D01*
X162050905Y-64407219D01*
X162088107Y-64487112D01*
X162120208Y-64538244D01*
X162129891Y-64547106D01*
X162161939Y-64542379D01*
X162224467Y-64516250D01*
X162304808Y-64474132D01*
X162316877Y-64467198D01*
X162479900Y-64372480D01*
X162539127Y-64169890D01*
X162570279Y-64048773D01*
X162596340Y-63921334D01*
X162611949Y-63813990D01*
X162612455Y-63808550D01*
X162623596Y-63726333D01*
X162638704Y-63668966D01*
X162652932Y-63649800D01*
X162704071Y-63663638D01*
X162787058Y-63701523D01*
X162892379Y-63758007D01*
X163010520Y-63827645D01*
X163131966Y-63904991D01*
X163247204Y-63984598D01*
X163280000Y-64008750D01*
X163425853Y-64114425D01*
X163539298Y-64187877D01*
X163625026Y-64231582D01*
X163687727Y-64248018D01*
X163724153Y-64243318D01*
X163755129Y-64216582D01*
X163743935Y-64186077D01*
X163696588Y-64164118D01*
X163684410Y-64161984D01*
X163636192Y-64143422D01*
X163561605Y-64101450D01*
X163474273Y-64043981D01*
X163445100Y-64023051D01*
X163123022Y-63797682D01*
X162819881Y-63609817D01*
X162525883Y-63455062D01*
X162231237Y-63329025D01*
X161926151Y-63227313D01*
X161600831Y-63145533D01*
X161400400Y-63105754D01*
X160963857Y-63038232D01*
X160566373Y-63001688D01*
X160206798Y-62996055D01*
X159914500Y-63017373D01*
X159668128Y-63058496D01*
X159390219Y-63124340D01*
X159091556Y-63211530D01*
X158782925Y-63316692D01*
X158475110Y-63436449D01*
X158223543Y-63546560D01*
X158135635Y-63589079D01*
X158094841Y-63613416D01*
X158100842Y-63619567D01*
X158153314Y-63607528D01*
X158251938Y-63577294D01*
X158339700Y-63548199D01*
X158462073Y-63507634D01*
X158544441Y-63483946D01*
X158594698Y-63477097D01*
X158620741Y-63487051D01*
X158630464Y-63513771D01*
X158631800Y-63546826D01*
X158633668Y-63573888D01*
X158640382Y-63609994D01*
X158653603Y-63660153D01*
X158674992Y-63729375D01*
X158706212Y-63822670D01*
X158748923Y-63945045D01*
X158804788Y-64101512D01*
X158875468Y-64297079D01*
X158935017Y-64460932D01*
X158976713Y-64583305D01*
X159009052Y-64693478D01*
X159028797Y-64779394D01*
X159033110Y-64826125D01*
X159028922Y-64853445D01*
X159019396Y-64866510D01*
X158998947Y-64861610D01*
X158961989Y-64835038D01*
X158902937Y-64783085D01*
X158816204Y-64702042D01*
X158746100Y-64635580D01*
X158476028Y-64381771D01*
X158233790Y-64160101D01*
X158013007Y-63965162D01*
X157807295Y-63791544D01*
X157610273Y-63633839D01*
X157415560Y-63486637D01*
X157251861Y-63369075D01*
X157132587Y-63284828D01*
X157048571Y-63223115D01*
X156993412Y-63177400D01*
X156960706Y-63141146D01*
X156944052Y-63107818D01*
X156937047Y-63070880D01*
X156934903Y-63045516D01*
X156935016Y-63040200D01*
X157768200Y-63040200D01*
X157791002Y-63057619D01*
X157851227Y-63065231D01*
X157936597Y-63063753D01*
X158034836Y-63053904D01*
X158133670Y-63036401D01*
X158214829Y-63014067D01*
X158330765Y-62968537D01*
X158449523Y-62909614D01*
X158575096Y-62834213D01*
X158711478Y-62739249D01*
X158862663Y-62621639D01*
X159032645Y-62478298D01*
X159225417Y-62306142D01*
X159444973Y-62102086D01*
X159654955Y-61901911D01*
X159749485Y-61811760D01*
X160297194Y-61811760D01*
X160330870Y-61872288D01*
X160396217Y-61896941D01*
X160405211Y-61897200D01*
X160459648Y-61910802D01*
X160525966Y-61955365D01*
X160609315Y-62033168D01*
X160743595Y-62169137D01*
X160580686Y-62297162D01*
X160496618Y-62362159D01*
X160421578Y-62418298D01*
X160369490Y-62455204D01*
X160362989Y-62459403D01*
X160321474Y-62492234D01*
X160308200Y-62513393D01*
X160328971Y-62522180D01*
X160380095Y-62515492D01*
X160444782Y-62496793D01*
X160497126Y-62474436D01*
X160541191Y-62444115D01*
X160606254Y-62390758D01*
X160666919Y-62336324D01*
X160787485Y-62223548D01*
X160956002Y-62362549D01*
X161063662Y-62443398D01*
X161157008Y-62498139D01*
X161229026Y-62523401D01*
X161272703Y-62515809D01*
X161273360Y-62515180D01*
X161265366Y-62493253D01*
X161235260Y-62466581D01*
X161130921Y-62390290D01*
X161033922Y-62315504D01*
X160952427Y-62248930D01*
X160894597Y-62197273D01*
X160868596Y-62167242D01*
X160867929Y-62164772D01*
X160884090Y-62135451D01*
X160927308Y-62082408D01*
X160986695Y-62018722D01*
X161073656Y-61940425D01*
X161142137Y-61902412D01*
X161174085Y-61897200D01*
X161246584Y-61880224D01*
X161285464Y-61827463D01*
X161292745Y-61736160D01*
X161292705Y-61735590D01*
X161286300Y-61675468D01*
X161278886Y-61644413D01*
X161277437Y-61643250D01*
X161250999Y-61658847D01*
X161203610Y-61697667D01*
X161148428Y-61747554D01*
X161098609Y-61796350D01*
X161067312Y-61831897D01*
X161062804Y-61841571D01*
X161049436Y-61868794D01*
X161009558Y-61917380D01*
X160954860Y-61975200D01*
X160897028Y-62030127D01*
X160847751Y-62070032D01*
X160834842Y-62078122D01*
X160802406Y-62084426D01*
X160759287Y-62066848D01*
X160695790Y-62020348D01*
X160650687Y-61982363D01*
X160577907Y-61914110D01*
X160540461Y-61866403D01*
X160540145Y-61844332D01*
X160543039Y-61820247D01*
X160500799Y-61783285D01*
X160495700Y-61779985D01*
X160431309Y-61733339D01*
X160381420Y-61688304D01*
X160341460Y-61650745D01*
X160318531Y-61654649D01*
X160302500Y-61704090D01*
X160298894Y-61721479D01*
X160297194Y-61811760D01*
X159749485Y-61811760D01*
X159845756Y-61719950D01*
X160006644Y-61570381D01*
X160142875Y-61448942D01*
X160259709Y-61351370D01*
X160362403Y-61273403D01*
X160456217Y-61210778D01*
X160546409Y-61159233D01*
X160610580Y-61127284D01*
X160782243Y-61065893D01*
X160944812Y-61050445D01*
X161104238Y-61081821D01*
X161266474Y-61160902D01*
X161379757Y-61241053D01*
X161464577Y-61321113D01*
X161565511Y-61440945D01*
X161683715Y-61602136D01*
X161820347Y-61806274D01*
X161976562Y-62054947D01*
X161996584Y-62087700D01*
X162165118Y-62358003D01*
X162316393Y-62586383D01*
X162454273Y-62777118D01*
X162582620Y-62934486D01*
X162705299Y-63062764D01*
X162826171Y-63166231D01*
X162949100Y-63249164D01*
X163077949Y-63315841D01*
X163123301Y-63335366D01*
X163226426Y-63375064D01*
X163290990Y-63392413D01*
X163323499Y-63388513D01*
X163330800Y-63370400D01*
X163309855Y-63348806D01*
X163286714Y-63345000D01*
X163209456Y-63326910D01*
X163109882Y-63277309D01*
X162998803Y-63203195D01*
X162887032Y-63111568D01*
X162810080Y-63036441D01*
X162730417Y-62948427D01*
X162653515Y-62855014D01*
X162574958Y-62749729D01*
X162490324Y-62626099D01*
X162395197Y-62477649D01*
X162285156Y-62297906D01*
X162155782Y-62080396D01*
X162145129Y-62062300D01*
X162028601Y-61864992D01*
X161932869Y-61704994D01*
X161853542Y-61575499D01*
X161786231Y-61469698D01*
X161726547Y-61380785D01*
X161670100Y-61301951D01*
X161612500Y-61226389D01*
X161578250Y-61183147D01*
X161416605Y-61003151D01*
X161259356Y-60873019D01*
X161105440Y-60792110D01*
X160953790Y-60759782D01*
X160878852Y-60761598D01*
X160786145Y-60777293D01*
X160692112Y-60807027D01*
X160593052Y-60853656D01*
X160485268Y-60920035D01*
X160365059Y-61009020D01*
X160228727Y-61123465D01*
X160072572Y-61266227D01*
X159892895Y-61440161D01*
X159685997Y-61648121D01*
X159551011Y-61786543D01*
X159339965Y-62002732D01*
X159158332Y-62185310D01*
X159001552Y-62338434D01*
X158865069Y-62466263D01*
X158744324Y-62572958D01*
X158634761Y-62662677D01*
X158531820Y-62739580D01*
X158434152Y-62805757D01*
X158295813Y-62883385D01*
X158146188Y-62947805D01*
X158001172Y-62993288D01*
X157876658Y-63014100D01*
X157854424Y-63014800D01*
X157796735Y-63021363D01*
X157768709Y-63037439D01*
X157768200Y-63040200D01*
X156935016Y-63040200D01*
X156936601Y-62965674D01*
X156962255Y-62908147D01*
X156993643Y-62872647D01*
X157060180Y-62806110D01*
X157704700Y-62841522D01*
X157857100Y-62761204D01*
X157974993Y-62694915D01*
X158091837Y-62619848D01*
X158211706Y-62532330D01*
X158338673Y-62428685D01*
X158476813Y-62305239D01*
X158630199Y-62158317D01*
X158802907Y-61984244D01*
X158999010Y-61779347D01*
X159222582Y-61539950D01*
X159279722Y-61478100D01*
X159519531Y-61219954D01*
X159729998Y-60997802D01*
X159914408Y-60808701D01*
X160076048Y-60649708D01*
X160218203Y-60517881D01*
X160344160Y-60410276D01*
X160457205Y-60323952D01*
X160560623Y-60255964D01*
X160657701Y-60203372D01*
X160745266Y-60165662D01*
X160885606Y-60126837D01*
X161009699Y-60127292D01*
G36*
X159239872Y-66199992D02*
X159241350Y-66274605D01*
X159230938Y-66362569D01*
X159210325Y-66446332D01*
X159192752Y-66489261D01*
X159121814Y-66594366D01*
X159025298Y-66695614D01*
X158920387Y-66776533D01*
X158858977Y-66809141D01*
X158791378Y-66831138D01*
X158692122Y-66856120D01*
X158579789Y-66879533D01*
X158549639Y-66884992D01*
X158421749Y-66910033D01*
X158321101Y-66938913D01*
X158234471Y-66978680D01*
X158148636Y-67036380D01*
X158050371Y-67119062D01*
X157967491Y-67195218D01*
X157872572Y-67281659D01*
X157803493Y-67337539D01*
X157750930Y-67368960D01*
X157705562Y-67382025D01*
X157679726Y-67383600D01*
X157616839Y-67376788D01*
X157579195Y-67360191D01*
X157577700Y-67358200D01*
X157583189Y-67336236D01*
X157600184Y-67332800D01*
X157662484Y-67309721D01*
X157729978Y-67246441D01*
X157794958Y-67151892D01*
X157843625Y-67050707D01*
X157880187Y-66964227D01*
X157913630Y-66910176D01*
X157958753Y-66873448D01*
X158030356Y-66838936D01*
X158065678Y-66824057D01*
X158185485Y-66769084D01*
X158263613Y-66718682D01*
X158307737Y-66665389D01*
X158325531Y-66601742D01*
X158327000Y-66569973D01*
X158337898Y-66484259D01*
X158374407Y-66439401D01*
X158442246Y-66431405D01*
X158506905Y-66444366D01*
X158658009Y-66459187D01*
X158813941Y-66424564D01*
X158972281Y-66341335D01*
X159100338Y-66239142D01*
X159160827Y-66188395D01*
X159206738Y-66159052D01*
X159224813Y-66156280D01*
X159239872Y-66199992D01*
X159239872Y-66199992D01*
G37*
X159239872Y-66199992D02*
X159241350Y-66274605D01*
X159230938Y-66362569D01*
X159210325Y-66446332D01*
X159192752Y-66489261D01*
X159121814Y-66594366D01*
X159025298Y-66695614D01*
X158920387Y-66776533D01*
X158858977Y-66809141D01*
X158791378Y-66831138D01*
X158692122Y-66856120D01*
X158579789Y-66879533D01*
X158549639Y-66884992D01*
X158421749Y-66910033D01*
X158321101Y-66938913D01*
X158234471Y-66978680D01*
X158148636Y-67036380D01*
X158050371Y-67119062D01*
X157967491Y-67195218D01*
X157872572Y-67281659D01*
X157803493Y-67337539D01*
X157750930Y-67368960D01*
X157705562Y-67382025D01*
X157679726Y-67383600D01*
X157616839Y-67376788D01*
X157579195Y-67360191D01*
X157577700Y-67358200D01*
X157583189Y-67336236D01*
X157600184Y-67332800D01*
X157662484Y-67309721D01*
X157729978Y-67246441D01*
X157794958Y-67151892D01*
X157843625Y-67050707D01*
X157880187Y-66964227D01*
X157913630Y-66910176D01*
X157958753Y-66873448D01*
X158030356Y-66838936D01*
X158065678Y-66824057D01*
X158185485Y-66769084D01*
X158263613Y-66718682D01*
X158307737Y-66665389D01*
X158325531Y-66601742D01*
X158327000Y-66569973D01*
X158337898Y-66484259D01*
X158374407Y-66439401D01*
X158442246Y-66431405D01*
X158506905Y-66444366D01*
X158658009Y-66459187D01*
X158813941Y-66424564D01*
X158972281Y-66341335D01*
X159100338Y-66239142D01*
X159160827Y-66188395D01*
X159206738Y-66159052D01*
X159224813Y-66156280D01*
X159239872Y-66199992D01*
G36*
X159042165Y-65510477D02*
X159071783Y-65527943D01*
X159085310Y-65547906D01*
X159118354Y-65588142D01*
X159179222Y-65645563D01*
X159252806Y-65706202D01*
X159322859Y-65763651D01*
X159373332Y-65811535D01*
X159393755Y-65839878D01*
X159393799Y-65840560D01*
X159375674Y-65877834D01*
X159326498Y-65939513D01*
X159254071Y-66017275D01*
X159166193Y-66102794D01*
X159070665Y-66187748D01*
X159060213Y-66196543D01*
X158930137Y-66295780D01*
X158813840Y-66358788D01*
X158699047Y-66387516D01*
X158573485Y-66383915D01*
X158424879Y-66349934D01*
X158316435Y-66314689D01*
X158091889Y-66236379D01*
X157854116Y-66327389D01*
X157693828Y-66382593D01*
X157567490Y-66410812D01*
X157466495Y-66412799D01*
X157382234Y-66389309D01*
X157349100Y-66371621D01*
X157284732Y-66325600D01*
X157235457Y-66279397D01*
X157234800Y-66278603D01*
X157212282Y-66246964D01*
X157225681Y-66240690D01*
X157267501Y-66249809D01*
X157367481Y-66254372D01*
X157480232Y-66219442D01*
X157610317Y-66143171D01*
X157703077Y-66073180D01*
X157813506Y-65987137D01*
X157897487Y-65931632D01*
X157965680Y-65902512D01*
X158028744Y-65895621D01*
X158097341Y-65906807D01*
X158116736Y-65911978D01*
X158217497Y-65927225D01*
X158304684Y-65907751D01*
X158388804Y-65849008D01*
X158470532Y-65758860D01*
X158571961Y-65645164D01*
X158667330Y-65570761D01*
X158769843Y-65527938D01*
X158892707Y-65508983D01*
X158899116Y-65508555D01*
X158989104Y-65504965D01*
X159042165Y-65510477D01*
X159042165Y-65510477D01*
G37*
X159042165Y-65510477D02*
X159071783Y-65527943D01*
X159085310Y-65547906D01*
X159118354Y-65588142D01*
X159179222Y-65645563D01*
X159252806Y-65706202D01*
X159322859Y-65763651D01*
X159373332Y-65811535D01*
X159393755Y-65839878D01*
X159393799Y-65840560D01*
X159375674Y-65877834D01*
X159326498Y-65939513D01*
X159254071Y-66017275D01*
X159166193Y-66102794D01*
X159070665Y-66187748D01*
X159060213Y-66196543D01*
X158930137Y-66295780D01*
X158813840Y-66358788D01*
X158699047Y-66387516D01*
X158573485Y-66383915D01*
X158424879Y-66349934D01*
X158316435Y-66314689D01*
X158091889Y-66236379D01*
X157854116Y-66327389D01*
X157693828Y-66382593D01*
X157567490Y-66410812D01*
X157466495Y-66412799D01*
X157382234Y-66389309D01*
X157349100Y-66371621D01*
X157284732Y-66325600D01*
X157235457Y-66279397D01*
X157234800Y-66278603D01*
X157212282Y-66246964D01*
X157225681Y-66240690D01*
X157267501Y-66249809D01*
X157367481Y-66254372D01*
X157480232Y-66219442D01*
X157610317Y-66143171D01*
X157703077Y-66073180D01*
X157813506Y-65987137D01*
X157897487Y-65931632D01*
X157965680Y-65902512D01*
X158028744Y-65895621D01*
X158097341Y-65906807D01*
X158116736Y-65911978D01*
X158217497Y-65927225D01*
X158304684Y-65907751D01*
X158388804Y-65849008D01*
X158470532Y-65758860D01*
X158571961Y-65645164D01*
X158667330Y-65570761D01*
X158769843Y-65527938D01*
X158892707Y-65508983D01*
X158899116Y-65508555D01*
X158989104Y-65504965D01*
X159042165Y-65510477D01*
G36*
X158328660Y-62115246D02*
X158390318Y-62179739D01*
X158434857Y-62230143D01*
X158452895Y-62255822D01*
X158452928Y-62256098D01*
X158434675Y-62278724D01*
X158387087Y-62320127D01*
X158322934Y-62370662D01*
X158254983Y-62420683D01*
X158196005Y-62460545D01*
X158158769Y-62480602D01*
X158154662Y-62481400D01*
X158128992Y-62463040D01*
X158081624Y-62414575D01*
X158022148Y-62345920D01*
X158013472Y-62335350D01*
X157953358Y-62259095D01*
X157922908Y-62211439D01*
X157917917Y-62183114D01*
X157934183Y-62164854D01*
X157935704Y-62163900D01*
X157980228Y-62135826D01*
X158048329Y-62092175D01*
X158091237Y-62064446D01*
X158205463Y-61990393D01*
X158328660Y-62115246D01*
X158328660Y-62115246D01*
G37*
X158328660Y-62115246D02*
X158390318Y-62179739D01*
X158434857Y-62230143D01*
X158452895Y-62255822D01*
X158452928Y-62256098D01*
X158434675Y-62278724D01*
X158387087Y-62320127D01*
X158322934Y-62370662D01*
X158254983Y-62420683D01*
X158196005Y-62460545D01*
X158158769Y-62480602D01*
X158154662Y-62481400D01*
X158128992Y-62463040D01*
X158081624Y-62414575D01*
X158022148Y-62345920D01*
X158013472Y-62335350D01*
X157953358Y-62259095D01*
X157922908Y-62211439D01*
X157917917Y-62183114D01*
X157934183Y-62164854D01*
X157935704Y-62163900D01*
X157980228Y-62135826D01*
X158048329Y-62092175D01*
X158091237Y-62064446D01*
X158205463Y-61990393D01*
X158328660Y-62115246D01*
G36*
X158079166Y-61200826D02*
X158173247Y-61236110D01*
X158265071Y-61309507D01*
X158323900Y-61411809D01*
X158343884Y-61528982D01*
X158330978Y-61614537D01*
X158267232Y-61753678D01*
X158160172Y-61885324D01*
X158006482Y-62013328D01*
X157959854Y-62045567D01*
X157761809Y-62156418D01*
X157550284Y-62236393D01*
X157337037Y-62282615D01*
X157133824Y-62292209D01*
X157012159Y-62277335D01*
X156926015Y-62257094D01*
X156878566Y-62232867D01*
X156858331Y-62192742D01*
X156853828Y-62124804D01*
X156853800Y-62113029D01*
X156853800Y-62001656D01*
X156972134Y-62054001D01*
X157045680Y-62081605D01*
X157119459Y-62095508D01*
X157212104Y-62098035D01*
X157295984Y-62094408D01*
X157424969Y-62081507D01*
X157531042Y-62060421D01*
X157605564Y-62033602D01*
X157639896Y-62003501D01*
X157641200Y-61996434D01*
X157617458Y-61969565D01*
X157548732Y-61957328D01*
X157438771Y-61960010D01*
X157328078Y-61972462D01*
X157204260Y-61986585D01*
X157110458Y-61988027D01*
X157027438Y-61976558D01*
X156993500Y-61968449D01*
X156866500Y-61935300D01*
X156860772Y-61824457D01*
X157232938Y-61824457D01*
X157247050Y-61833669D01*
X157308508Y-61833962D01*
X157364730Y-61829745D01*
X157506607Y-61826679D01*
X157639305Y-61841894D01*
X157749956Y-61872785D01*
X157825693Y-61916749D01*
X157833536Y-61924629D01*
X157879822Y-61965341D01*
X157919711Y-61964927D01*
X157970871Y-61923127D01*
X157971400Y-61922600D01*
X158014226Y-61868444D01*
X158012397Y-61826886D01*
X157965018Y-61784719D01*
X157961912Y-61782669D01*
X157861721Y-61742472D01*
X157727492Y-61726500D01*
X157570163Y-61735360D01*
X157459949Y-61754887D01*
X157340861Y-61783907D01*
X157264700Y-61807483D01*
X157232938Y-61824457D01*
X156860772Y-61824457D01*
X156858785Y-61786008D01*
X156855966Y-61703325D01*
X156860460Y-61661098D01*
X156875217Y-61649173D01*
X156896885Y-61654819D01*
X156999468Y-61683045D01*
X157098133Y-61681131D01*
X157200791Y-61646230D01*
X157216865Y-61636305D01*
X157466405Y-61636305D01*
X157476233Y-61643443D01*
X157514200Y-61634567D01*
X157674747Y-61605184D01*
X157824844Y-61601256D01*
X157954277Y-61621722D01*
X158052832Y-61665523D01*
X158085603Y-61693892D01*
X158131244Y-61735821D01*
X158165430Y-61735609D01*
X158203530Y-61691539D01*
X158211324Y-61679834D01*
X158245531Y-61592964D01*
X158234784Y-61515200D01*
X158184829Y-61452508D01*
X158101414Y-61410852D01*
X157990288Y-61396196D01*
X157940764Y-61399077D01*
X157840254Y-61420814D01*
X157726454Y-61461774D01*
X157616994Y-61513986D01*
X157529507Y-61569482D01*
X157495521Y-61600327D01*
X157466405Y-61636305D01*
X157216865Y-61636305D01*
X157315351Y-61575497D01*
X157449723Y-61466086D01*
X157468858Y-61449053D01*
X157638310Y-61315204D01*
X157795317Y-61229577D01*
X157941671Y-61191632D01*
X158079166Y-61200826D01*
X158079166Y-61200826D01*
G37*
X158079166Y-61200826D02*
X158173247Y-61236110D01*
X158265071Y-61309507D01*
X158323900Y-61411809D01*
X158343884Y-61528982D01*
X158330978Y-61614537D01*
X158267232Y-61753678D01*
X158160172Y-61885324D01*
X158006482Y-62013328D01*
X157959854Y-62045567D01*
X157761809Y-62156418D01*
X157550284Y-62236393D01*
X157337037Y-62282615D01*
X157133824Y-62292209D01*
X157012159Y-62277335D01*
X156926015Y-62257094D01*
X156878566Y-62232867D01*
X156858331Y-62192742D01*
X156853828Y-62124804D01*
X156853800Y-62113029D01*
X156853800Y-62001656D01*
X156972134Y-62054001D01*
X157045680Y-62081605D01*
X157119459Y-62095508D01*
X157212104Y-62098035D01*
X157295984Y-62094408D01*
X157424969Y-62081507D01*
X157531042Y-62060421D01*
X157605564Y-62033602D01*
X157639896Y-62003501D01*
X157641200Y-61996434D01*
X157617458Y-61969565D01*
X157548732Y-61957328D01*
X157438771Y-61960010D01*
X157328078Y-61972462D01*
X157204260Y-61986585D01*
X157110458Y-61988027D01*
X157027438Y-61976558D01*
X156993500Y-61968449D01*
X156866500Y-61935300D01*
X156860772Y-61824457D01*
X157232938Y-61824457D01*
X157247050Y-61833669D01*
X157308508Y-61833962D01*
X157364730Y-61829745D01*
X157506607Y-61826679D01*
X157639305Y-61841894D01*
X157749956Y-61872785D01*
X157825693Y-61916749D01*
X157833536Y-61924629D01*
X157879822Y-61965341D01*
X157919711Y-61964927D01*
X157970871Y-61923127D01*
X157971400Y-61922600D01*
X158014226Y-61868444D01*
X158012397Y-61826886D01*
X157965018Y-61784719D01*
X157961912Y-61782669D01*
X157861721Y-61742472D01*
X157727492Y-61726500D01*
X157570163Y-61735360D01*
X157459949Y-61754887D01*
X157340861Y-61783907D01*
X157264700Y-61807483D01*
X157232938Y-61824457D01*
X156860772Y-61824457D01*
X156858785Y-61786008D01*
X156855966Y-61703325D01*
X156860460Y-61661098D01*
X156875217Y-61649173D01*
X156896885Y-61654819D01*
X156999468Y-61683045D01*
X157098133Y-61681131D01*
X157200791Y-61646230D01*
X157216865Y-61636305D01*
X157466405Y-61636305D01*
X157476233Y-61643443D01*
X157514200Y-61634567D01*
X157674747Y-61605184D01*
X157824844Y-61601256D01*
X157954277Y-61621722D01*
X158052832Y-61665523D01*
X158085603Y-61693892D01*
X158131244Y-61735821D01*
X158165430Y-61735609D01*
X158203530Y-61691539D01*
X158211324Y-61679834D01*
X158245531Y-61592964D01*
X158234784Y-61515200D01*
X158184829Y-61452508D01*
X158101414Y-61410852D01*
X157990288Y-61396196D01*
X157940764Y-61399077D01*
X157840254Y-61420814D01*
X157726454Y-61461774D01*
X157616994Y-61513986D01*
X157529507Y-61569482D01*
X157495521Y-61600327D01*
X157466405Y-61636305D01*
X157216865Y-61636305D01*
X157315351Y-61575497D01*
X157449723Y-61466086D01*
X157468858Y-61449053D01*
X157638310Y-61315204D01*
X157795317Y-61229577D01*
X157941671Y-61191632D01*
X158079166Y-61200826D01*
G36*
X158295663Y-61924498D02*
X158340981Y-61964514D01*
X158397414Y-62021273D01*
X158454398Y-62083516D01*
X158501368Y-62139987D01*
X158527762Y-62179428D01*
X158530200Y-62187604D01*
X158518084Y-62202184D01*
X158480731Y-62178072D01*
X158416633Y-62114091D01*
X158371276Y-62063585D01*
X158315381Y-61995053D01*
X158279635Y-61941639D01*
X158270839Y-61913698D01*
X158272024Y-61912480D01*
X158295663Y-61924498D01*
X158295663Y-61924498D01*
G37*
X158295663Y-61924498D02*
X158340981Y-61964514D01*
X158397414Y-62021273D01*
X158454398Y-62083516D01*
X158501368Y-62139987D01*
X158527762Y-62179428D01*
X158530200Y-62187604D01*
X158518084Y-62202184D01*
X158480731Y-62178072D01*
X158416633Y-62114091D01*
X158371276Y-62063585D01*
X158315381Y-61995053D01*
X158279635Y-61941639D01*
X158270839Y-61913698D01*
X158272024Y-61912480D01*
X158295663Y-61924498D01*
G36*
X158569562Y-61536109D02*
X158657395Y-61588206D01*
X158724469Y-61661267D01*
X158757442Y-61743727D01*
X158758800Y-61763151D01*
X158747947Y-61811869D01*
X158717870Y-61814439D01*
X158680598Y-61780488D01*
X158650996Y-61758153D01*
X158602702Y-61749744D01*
X158522128Y-61753555D01*
X158490872Y-61756694D01*
X158334768Y-61773411D01*
X158375334Y-61645145D01*
X158403963Y-61567628D01*
X158432096Y-61528623D01*
X158468530Y-61516697D01*
X158474311Y-61516539D01*
X158569562Y-61536109D01*
X158569562Y-61536109D01*
G37*
X158569562Y-61536109D02*
X158657395Y-61588206D01*
X158724469Y-61661267D01*
X158757442Y-61743727D01*
X158758800Y-61763151D01*
X158747947Y-61811869D01*
X158717870Y-61814439D01*
X158680598Y-61780488D01*
X158650996Y-61758153D01*
X158602702Y-61749744D01*
X158522128Y-61753555D01*
X158490872Y-61756694D01*
X158334768Y-61773411D01*
X158375334Y-61645145D01*
X158403963Y-61567628D01*
X158432096Y-61528623D01*
X158468530Y-61516697D01*
X158474311Y-61516539D01*
X158569562Y-61536109D01*
G36*
X157551514Y-60842372D02*
X157591548Y-60879259D01*
X157601184Y-60889432D01*
X157660723Y-60957300D01*
X157717322Y-61027788D01*
X157762694Y-61089770D01*
X157788551Y-61132120D01*
X157790792Y-61144002D01*
X157764631Y-61160053D01*
X157710312Y-61191799D01*
X157683061Y-61207481D01*
X157607360Y-61256471D01*
X157518545Y-61321769D01*
X157465527Y-61364470D01*
X157392297Y-61424867D01*
X157347849Y-61455386D01*
X157322755Y-61459626D01*
X157307585Y-61441181D01*
X157301684Y-61426960D01*
X157305820Y-61386759D01*
X157330672Y-61317565D01*
X157370937Y-61234012D01*
X157373047Y-61230110D01*
X157422974Y-61130016D01*
X157466628Y-61028238D01*
X157491261Y-60957400D01*
X157511835Y-60887606D01*
X157527251Y-60841496D01*
X157531228Y-60832768D01*
X157551514Y-60842372D01*
X157551514Y-60842372D01*
G37*
X157551514Y-60842372D02*
X157591548Y-60879259D01*
X157601184Y-60889432D01*
X157660723Y-60957300D01*
X157717322Y-61027788D01*
X157762694Y-61089770D01*
X157788551Y-61132120D01*
X157790792Y-61144002D01*
X157764631Y-61160053D01*
X157710312Y-61191799D01*
X157683061Y-61207481D01*
X157607360Y-61256471D01*
X157518545Y-61321769D01*
X157465527Y-61364470D01*
X157392297Y-61424867D01*
X157347849Y-61455386D01*
X157322755Y-61459626D01*
X157307585Y-61441181D01*
X157301684Y-61426960D01*
X157305820Y-61386759D01*
X157330672Y-61317565D01*
X157370937Y-61234012D01*
X157373047Y-61230110D01*
X157422974Y-61130016D01*
X157466628Y-61028238D01*
X157491261Y-60957400D01*
X157511835Y-60887606D01*
X157527251Y-60841496D01*
X157531228Y-60832768D01*
X157551514Y-60842372D01*
G36*
X157308415Y-60617100D02*
X157353152Y-60653245D01*
X157399987Y-60695604D01*
X157432360Y-60729544D01*
X157438000Y-60739334D01*
X157426434Y-60791299D01*
X157395995Y-60868129D01*
X157353069Y-60957997D01*
X157304043Y-61049077D01*
X157255302Y-61129542D01*
X157213233Y-61187566D01*
X157184223Y-61211322D01*
X157183081Y-61211400D01*
X157155739Y-61192649D01*
X157116096Y-61146643D01*
X157109741Y-61137926D01*
X157057423Y-61064452D01*
X157145762Y-60917749D01*
X157194612Y-60827858D01*
X157232824Y-60741600D01*
X157249978Y-60686423D01*
X157264945Y-60629567D01*
X157280595Y-60602229D01*
X157282336Y-60601800D01*
X157308415Y-60617100D01*
X157308415Y-60617100D01*
G37*
X157308415Y-60617100D02*
X157353152Y-60653245D01*
X157399987Y-60695604D01*
X157432360Y-60729544D01*
X157438000Y-60739334D01*
X157426434Y-60791299D01*
X157395995Y-60868129D01*
X157353069Y-60957997D01*
X157304043Y-61049077D01*
X157255302Y-61129542D01*
X157213233Y-61187566D01*
X157184223Y-61211322D01*
X157183081Y-61211400D01*
X157155739Y-61192649D01*
X157116096Y-61146643D01*
X157109741Y-61137926D01*
X157057423Y-61064452D01*
X157145762Y-60917749D01*
X157194612Y-60827858D01*
X157232824Y-60741600D01*
X157249978Y-60686423D01*
X157264945Y-60629567D01*
X157280595Y-60602229D01*
X157282336Y-60601800D01*
X157308415Y-60617100D01*
G36*
X157218740Y-60519214D02*
X157175101Y-60633479D01*
X157129435Y-60726171D01*
X157068245Y-60819204D01*
X157048171Y-60844099D01*
X156964879Y-60940454D01*
X156909339Y-60862456D01*
X156857988Y-60753338D01*
X156857130Y-60642495D01*
X156906582Y-60531712D01*
X156949050Y-60478073D01*
X157044300Y-60373212D01*
X157218740Y-60519214D01*
X157218740Y-60519214D01*
G37*
X157218740Y-60519214D02*
X157175101Y-60633479D01*
X157129435Y-60726171D01*
X157068245Y-60819204D01*
X157048171Y-60844099D01*
X156964879Y-60940454D01*
X156909339Y-60862456D01*
X156857988Y-60753338D01*
X156857130Y-60642495D01*
X156906582Y-60531712D01*
X156949050Y-60478073D01*
X157044300Y-60373212D01*
X157218740Y-60519214D01*
G36*
X156904599Y-60233500D02*
X156941839Y-60293402D01*
X156950903Y-60331804D01*
X156931896Y-60369407D01*
X156905445Y-60402136D01*
X156855490Y-60462100D01*
X156854134Y-60157300D01*
X156904599Y-60233500D01*
X156904599Y-60233500D01*
G37*
X156904599Y-60233500D02*
X156941839Y-60293402D01*
X156950903Y-60331804D01*
X156931896Y-60369407D01*
X156905445Y-60402136D01*
X156855490Y-60462100D01*
X156854134Y-60157300D01*
X156904599Y-60233500D01*
G36*
X160280797Y-66337261D02*
X160308200Y-66367600D01*
X160326548Y-66405540D01*
X160328143Y-66414828D01*
X160301633Y-66405326D01*
X160246408Y-66386825D01*
X160238350Y-66384175D01*
X160176441Y-66356937D01*
X160158399Y-66333433D01*
X160185797Y-66318977D01*
X160218406Y-66316800D01*
X160280797Y-66337261D01*
X160280797Y-66337261D01*
G37*
X160280797Y-66337261D02*
X160308200Y-66367600D01*
X160326548Y-66405540D01*
X160328143Y-66414828D01*
X160301633Y-66405326D01*
X160246408Y-66386825D01*
X160238350Y-66384175D01*
X160176441Y-66356937D01*
X160158399Y-66333433D01*
X160185797Y-66318977D01*
X160218406Y-66316800D01*
X160280797Y-66337261D01*
G36*
X160655872Y-65304509D02*
X160662546Y-65311990D01*
X160702005Y-65337769D01*
X160722807Y-65337657D01*
X160772939Y-65345229D01*
X160826579Y-65403344D01*
X160883758Y-65512046D01*
X160933149Y-65638508D01*
X160953654Y-65703487D01*
X160952573Y-65745714D01*
X160924628Y-65787290D01*
X160888471Y-65825552D01*
X160823126Y-65877323D01*
X160774126Y-65884158D01*
X160745471Y-65846761D01*
X160739653Y-65799339D01*
X160730321Y-65713862D01*
X160707863Y-65656522D01*
X160678701Y-65632592D01*
X160649257Y-65647345D01*
X160625961Y-65706007D01*
X160598147Y-65780675D01*
X160554197Y-65849691D01*
X160505681Y-65897604D01*
X160472896Y-65910400D01*
X160433545Y-65891361D01*
X160398540Y-65853948D01*
X160367117Y-65779520D01*
X160359873Y-65689605D01*
X160372874Y-65592272D01*
X160402190Y-65495593D01*
X160443889Y-65407640D01*
X160494038Y-65336484D01*
X160548706Y-65290196D01*
X160603962Y-65276847D01*
X160655872Y-65304509D01*
X160655872Y-65304509D01*
G37*
X160655872Y-65304509D02*
X160662546Y-65311990D01*
X160702005Y-65337769D01*
X160722807Y-65337657D01*
X160772939Y-65345229D01*
X160826579Y-65403344D01*
X160883758Y-65512046D01*
X160933149Y-65638508D01*
X160953654Y-65703487D01*
X160952573Y-65745714D01*
X160924628Y-65787290D01*
X160888471Y-65825552D01*
X160823126Y-65877323D01*
X160774126Y-65884158D01*
X160745471Y-65846761D01*
X160739653Y-65799339D01*
X160730321Y-65713862D01*
X160707863Y-65656522D01*
X160678701Y-65632592D01*
X160649257Y-65647345D01*
X160625961Y-65706007D01*
X160598147Y-65780675D01*
X160554197Y-65849691D01*
X160505681Y-65897604D01*
X160472896Y-65910400D01*
X160433545Y-65891361D01*
X160398540Y-65853948D01*
X160367117Y-65779520D01*
X160359873Y-65689605D01*
X160372874Y-65592272D01*
X160402190Y-65495593D01*
X160443889Y-65407640D01*
X160494038Y-65336484D01*
X160548706Y-65290196D01*
X160603962Y-65276847D01*
X160655872Y-65304509D01*
G36*
X160378871Y-61757403D02*
X160403979Y-61790837D01*
X160392924Y-61816747D01*
X160373816Y-61821000D01*
X160338827Y-61800549D01*
X160333600Y-61780783D01*
X160348406Y-61752967D01*
X160378871Y-61757403D01*
X160378871Y-61757403D01*
G37*
X160378871Y-61757403D02*
X160403979Y-61790837D01*
X160392924Y-61816747D01*
X160373816Y-61821000D01*
X160338827Y-61800549D01*
X160333600Y-61780783D01*
X160348406Y-61752967D01*
X160378871Y-61757403D01*
G36*
X160486000Y-61808300D02*
X160473300Y-61821000D01*
X160460600Y-61808300D01*
X160473300Y-61795600D01*
X160486000Y-61808300D01*
X160486000Y-61808300D01*
G37*
X160486000Y-61808300D02*
X160473300Y-61821000D01*
X160460600Y-61808300D01*
X160473300Y-61795600D01*
X160486000Y-61808300D01*
G36*
X161137933Y-61804066D02*
X161134446Y-61819166D01*
X161121000Y-61821000D01*
X161100092Y-61811706D01*
X161104066Y-61804066D01*
X161134210Y-61801026D01*
X161137933Y-61804066D01*
X161137933Y-61804066D01*
G37*
X161137933Y-61804066D02*
X161134446Y-61819166D01*
X161121000Y-61821000D01*
X161100092Y-61811706D01*
X161104066Y-61804066D01*
X161134210Y-61801026D01*
X161137933Y-61804066D01*
G36*
X161270028Y-61756496D02*
X161268637Y-61771787D01*
X161236478Y-61810281D01*
X161224187Y-61816237D01*
X161200571Y-61809303D01*
X161201962Y-61794012D01*
X161234121Y-61755518D01*
X161246412Y-61749562D01*
X161270028Y-61756496D01*
X161270028Y-61756496D01*
G37*
X161270028Y-61756496D02*
X161268637Y-61771787D01*
X161236478Y-61810281D01*
X161224187Y-61816237D01*
X161200571Y-61809303D01*
X161201962Y-61794012D01*
X161234121Y-61755518D01*
X161246412Y-61749562D01*
X161270028Y-61756496D01*
D11*
X133918287Y-63793429D02*
X134208573Y-64809429D01*
X134498859Y-64083714D01*
X134789144Y-64809429D01*
X135079430Y-63793429D01*
X135514858Y-63793429D02*
X135805144Y-64809429D01*
X136095430Y-64083714D01*
X136385715Y-64809429D01*
X136676001Y-63793429D01*
X137111429Y-63793429D02*
X137401715Y-64809429D01*
X137692001Y-64083714D01*
X137982286Y-64809429D01*
X138272572Y-63793429D01*
X138853143Y-64664286D02*
X138925715Y-64736857D01*
X138853143Y-64809429D01*
X138780572Y-64736857D01*
X138853143Y-64664286D01*
X138853143Y-64809429D01*
X139578857Y-64809429D02*
X139578857Y-63793429D01*
X139578857Y-63285429D02*
X139506286Y-63358000D01*
X139578857Y-63430571D01*
X139651429Y-63358000D01*
X139578857Y-63285429D01*
X139578857Y-63430571D01*
X140304571Y-63793429D02*
X140304571Y-64809429D01*
X140304571Y-63938571D02*
X140377143Y-63866000D01*
X140522285Y-63793429D01*
X140740000Y-63793429D01*
X140885143Y-63866000D01*
X140957714Y-64011143D01*
X140957714Y-64809429D01*
X141610857Y-64736857D02*
X141756000Y-64809429D01*
X142046285Y-64809429D01*
X142191428Y-64736857D01*
X142264000Y-64591714D01*
X142264000Y-64519143D01*
X142191428Y-64374000D01*
X142046285Y-64301429D01*
X141828571Y-64301429D01*
X141683428Y-64228857D01*
X141610857Y-64083714D01*
X141610857Y-64011143D01*
X141683428Y-63866000D01*
X141828571Y-63793429D01*
X142046285Y-63793429D01*
X142191428Y-63866000D01*
X143497714Y-64736857D02*
X143352571Y-64809429D01*
X143062285Y-64809429D01*
X142917142Y-64736857D01*
X142844571Y-64591714D01*
X142844571Y-64011143D01*
X142917142Y-63866000D01*
X143062285Y-63793429D01*
X143352571Y-63793429D01*
X143497714Y-63866000D01*
X143570285Y-64011143D01*
X143570285Y-64156286D01*
X142844571Y-64301429D01*
X144223428Y-63793429D02*
X144223428Y-65317429D01*
X144223428Y-63866000D02*
X144368571Y-63793429D01*
X144658857Y-63793429D01*
X144804000Y-63866000D01*
X144876571Y-63938571D01*
X144949142Y-64083714D01*
X144949142Y-64519143D01*
X144876571Y-64664286D01*
X144804000Y-64736857D01*
X144658857Y-64809429D01*
X144368571Y-64809429D01*
X144223428Y-64736857D01*
X146182857Y-64736857D02*
X146037714Y-64809429D01*
X145747428Y-64809429D01*
X145602285Y-64736857D01*
X145529714Y-64591714D01*
X145529714Y-64011143D01*
X145602285Y-63866000D01*
X145747428Y-63793429D01*
X146037714Y-63793429D01*
X146182857Y-63866000D01*
X146255428Y-64011143D01*
X146255428Y-64156286D01*
X145529714Y-64301429D01*
X146690857Y-63793429D02*
X147271428Y-63793429D01*
X146908571Y-63285429D02*
X146908571Y-64591714D01*
X146981143Y-64736857D01*
X147126285Y-64809429D01*
X147271428Y-64809429D01*
X147779428Y-64664286D02*
X147852000Y-64736857D01*
X147779428Y-64809429D01*
X147706857Y-64736857D01*
X147779428Y-64664286D01*
X147779428Y-64809429D01*
X149158285Y-64736857D02*
X149013142Y-64809429D01*
X148722856Y-64809429D01*
X148577714Y-64736857D01*
X148505142Y-64664286D01*
X148432571Y-64519143D01*
X148432571Y-64083714D01*
X148505142Y-63938571D01*
X148577714Y-63866000D01*
X148722856Y-63793429D01*
X149013142Y-63793429D01*
X149158285Y-63866000D01*
X150029142Y-64809429D02*
X149884000Y-64736857D01*
X149811428Y-64664286D01*
X149738857Y-64519143D01*
X149738857Y-64083714D01*
X149811428Y-63938571D01*
X149884000Y-63866000D01*
X150029142Y-63793429D01*
X150246857Y-63793429D01*
X150392000Y-63866000D01*
X150464571Y-63938571D01*
X150537142Y-64083714D01*
X150537142Y-64519143D01*
X150464571Y-64664286D01*
X150392000Y-64736857D01*
X150246857Y-64809429D01*
X150029142Y-64809429D01*
X151190285Y-64809429D02*
X151190285Y-63793429D01*
X151190285Y-63938571D02*
X151262857Y-63866000D01*
X151407999Y-63793429D01*
X151625714Y-63793429D01*
X151770857Y-63866000D01*
X151843428Y-64011143D01*
X151843428Y-64809429D01*
X151843428Y-64011143D02*
X151915999Y-63866000D01*
X152061142Y-63793429D01*
X152278857Y-63793429D01*
X152423999Y-63866000D01*
X152496571Y-64011143D01*
X152496571Y-64809429D01*
D14*
X114506667Y-63202381D02*
X114173333Y-62726190D01*
X113935238Y-63202381D02*
X113935238Y-62202381D01*
X114316191Y-62202381D01*
X114411429Y-62250000D01*
X114459048Y-62297619D01*
X114506667Y-62392857D01*
X114506667Y-62535714D01*
X114459048Y-62630952D01*
X114411429Y-62678571D01*
X114316191Y-62726190D01*
X113935238Y-62726190D01*
X114935238Y-62678571D02*
X115268572Y-62678571D01*
X115411429Y-63202381D02*
X114935238Y-63202381D01*
X114935238Y-62202381D01*
X115411429Y-62202381D01*
X116173334Y-62678571D02*
X115840000Y-62678571D01*
X115840000Y-63202381D02*
X115840000Y-62202381D01*
X116316191Y-62202381D01*
X116840000Y-62202381D02*
X116840000Y-62440476D01*
X116601905Y-62345238D02*
X116840000Y-62440476D01*
X117078096Y-62345238D01*
X116697143Y-62630952D02*
X116840000Y-62440476D01*
X116982858Y-62630952D01*
X117601905Y-62202381D02*
X117601905Y-62440476D01*
X117363810Y-62345238D02*
X117601905Y-62440476D01*
X117840001Y-62345238D01*
X117459048Y-62630952D02*
X117601905Y-62440476D01*
X117744763Y-62630952D01*
X167306667Y-83132381D02*
X167306667Y-83846667D01*
X167259047Y-83989524D01*
X167163809Y-84084762D01*
X167020952Y-84132381D01*
X166925714Y-84132381D01*
X167687619Y-83132381D02*
X168354286Y-83132381D01*
X167925714Y-84132381D01*
X140333334Y-70167143D02*
X140285715Y-70214762D01*
X140142858Y-70262381D01*
X140047620Y-70262381D01*
X139904762Y-70214762D01*
X139809524Y-70119524D01*
X139761905Y-70024286D01*
X139714286Y-69833810D01*
X139714286Y-69690952D01*
X139761905Y-69500476D01*
X139809524Y-69405238D01*
X139904762Y-69310000D01*
X140047620Y-69262381D01*
X140142858Y-69262381D01*
X140285715Y-69310000D01*
X140333334Y-69357619D01*
X141285715Y-70262381D02*
X140714286Y-70262381D01*
X141000000Y-70262381D02*
X141000000Y-69262381D01*
X140904762Y-69405238D01*
X140809524Y-69500476D01*
X140714286Y-69548095D01*
X138733334Y-76027143D02*
X138685715Y-76074762D01*
X138542858Y-76122381D01*
X138447620Y-76122381D01*
X138304762Y-76074762D01*
X138209524Y-75979524D01*
X138161905Y-75884286D01*
X138114286Y-75693810D01*
X138114286Y-75550952D01*
X138161905Y-75360476D01*
X138209524Y-75265238D01*
X138304762Y-75170000D01*
X138447620Y-75122381D01*
X138542858Y-75122381D01*
X138685715Y-75170000D01*
X138733334Y-75217619D01*
X139114286Y-75217619D02*
X139161905Y-75170000D01*
X139257143Y-75122381D01*
X139495239Y-75122381D01*
X139590477Y-75170000D01*
X139638096Y-75217619D01*
X139685715Y-75312857D01*
X139685715Y-75408095D01*
X139638096Y-75550952D01*
X139066667Y-76122381D01*
X139685715Y-76122381D01*
X140263334Y-84077143D02*
X140215715Y-84124762D01*
X140072858Y-84172381D01*
X139977620Y-84172381D01*
X139834762Y-84124762D01*
X139739524Y-84029524D01*
X139691905Y-83934286D01*
X139644286Y-83743810D01*
X139644286Y-83600952D01*
X139691905Y-83410476D01*
X139739524Y-83315238D01*
X139834762Y-83220000D01*
X139977620Y-83172381D01*
X140072858Y-83172381D01*
X140215715Y-83220000D01*
X140263334Y-83267619D01*
X140596667Y-83172381D02*
X141215715Y-83172381D01*
X140882381Y-83553333D01*
X141025239Y-83553333D01*
X141120477Y-83600952D01*
X141168096Y-83648571D01*
X141215715Y-83743810D01*
X141215715Y-83981905D01*
X141168096Y-84077143D01*
X141120477Y-84124762D01*
X141025239Y-84172381D01*
X140739524Y-84172381D01*
X140644286Y-84124762D01*
X140596667Y-84077143D01*
X145303334Y-66917143D02*
X145255715Y-66964762D01*
X145112858Y-67012381D01*
X145017620Y-67012381D01*
X144874762Y-66964762D01*
X144779524Y-66869524D01*
X144731905Y-66774286D01*
X144684286Y-66583810D01*
X144684286Y-66440952D01*
X144731905Y-66250476D01*
X144779524Y-66155238D01*
X144874762Y-66060000D01*
X145017620Y-66012381D01*
X145112858Y-66012381D01*
X145255715Y-66060000D01*
X145303334Y-66107619D01*
X146160477Y-66345714D02*
X146160477Y-67012381D01*
X145922381Y-65964762D02*
X145684286Y-66679048D01*
X146303334Y-66679048D01*
X132281905Y-88942381D02*
X132281905Y-87942381D01*
X132520000Y-87942381D01*
X132662858Y-87990000D01*
X132758096Y-88085238D01*
X132805715Y-88180476D01*
X132853334Y-88370952D01*
X132853334Y-88513810D01*
X132805715Y-88704286D01*
X132758096Y-88799524D01*
X132662858Y-88894762D01*
X132520000Y-88942381D01*
X132281905Y-88942381D01*
X133805715Y-88942381D02*
X133234286Y-88942381D01*
X133520000Y-88942381D02*
X133520000Y-87942381D01*
X133424762Y-88085238D01*
X133329524Y-88180476D01*
X133234286Y-88228095D01*
X122286667Y-64222381D02*
X122286667Y-64936667D01*
X122239047Y-65079524D01*
X122143809Y-65174762D01*
X122000952Y-65222381D01*
X121905714Y-65222381D01*
X123286667Y-65222381D02*
X122715238Y-65222381D01*
X123000952Y-65222381D02*
X123000952Y-64222381D01*
X122905714Y-64365238D01*
X122810476Y-64460476D01*
X122715238Y-64508095D01*
X159496667Y-87622381D02*
X159496667Y-88336667D01*
X159449047Y-88479524D01*
X159353809Y-88574762D01*
X159210952Y-88622381D01*
X159115714Y-88622381D01*
X159925238Y-87717619D02*
X159972857Y-87670000D01*
X160068095Y-87622381D01*
X160306191Y-87622381D01*
X160401429Y-87670000D01*
X160449048Y-87717619D01*
X160496667Y-87812857D01*
X160496667Y-87908095D01*
X160449048Y-88050952D01*
X159877619Y-88622381D01*
X160496667Y-88622381D01*
X115226667Y-86572381D02*
X115226667Y-87286667D01*
X115179047Y-87429524D01*
X115083809Y-87524762D01*
X114940952Y-87572381D01*
X114845714Y-87572381D01*
X115607619Y-86572381D02*
X116226667Y-86572381D01*
X115893333Y-86953333D01*
X116036191Y-86953333D01*
X116131429Y-87000952D01*
X116179048Y-87048571D01*
X116226667Y-87143810D01*
X116226667Y-87381905D01*
X116179048Y-87477143D01*
X116131429Y-87524762D01*
X116036191Y-87572381D01*
X115750476Y-87572381D01*
X115655238Y-87524762D01*
X115607619Y-87477143D01*
X112766667Y-66672381D02*
X112766667Y-67386667D01*
X112719047Y-67529524D01*
X112623809Y-67624762D01*
X112480952Y-67672381D01*
X112385714Y-67672381D01*
X113671429Y-67005714D02*
X113671429Y-67672381D01*
X113433333Y-66624762D02*
X113195238Y-67339048D01*
X113814286Y-67339048D01*
X135646667Y-85452381D02*
X135646667Y-86166667D01*
X135599047Y-86309524D01*
X135503809Y-86404762D01*
X135360952Y-86452381D01*
X135265714Y-86452381D01*
X136599048Y-85452381D02*
X136122857Y-85452381D01*
X136075238Y-85928571D01*
X136122857Y-85880952D01*
X136218095Y-85833333D01*
X136456191Y-85833333D01*
X136551429Y-85880952D01*
X136599048Y-85928571D01*
X136646667Y-86023810D01*
X136646667Y-86261905D01*
X136599048Y-86357143D01*
X136551429Y-86404762D01*
X136456191Y-86452381D01*
X136218095Y-86452381D01*
X136122857Y-86404762D01*
X136075238Y-86357143D01*
X135166667Y-74432381D02*
X135166667Y-75146667D01*
X135119047Y-75289524D01*
X135023809Y-75384762D01*
X134880952Y-75432381D01*
X134785714Y-75432381D01*
X136071429Y-74432381D02*
X135880952Y-74432381D01*
X135785714Y-74480000D01*
X135738095Y-74527619D01*
X135642857Y-74670476D01*
X135595238Y-74860952D01*
X135595238Y-75241905D01*
X135642857Y-75337143D01*
X135690476Y-75384762D01*
X135785714Y-75432381D01*
X135976191Y-75432381D01*
X136071429Y-75384762D01*
X136119048Y-75337143D01*
X136166667Y-75241905D01*
X136166667Y-75003810D01*
X136119048Y-74908571D01*
X136071429Y-74860952D01*
X135976191Y-74813333D01*
X135785714Y-74813333D01*
X135690476Y-74860952D01*
X135642857Y-74908571D01*
X135595238Y-75003810D01*
X153426667Y-74962381D02*
X153426667Y-75676667D01*
X153379047Y-75819524D01*
X153283809Y-75914762D01*
X153140952Y-75962381D01*
X153045714Y-75962381D01*
X154045714Y-75390952D02*
X153950476Y-75343333D01*
X153902857Y-75295714D01*
X153855238Y-75200476D01*
X153855238Y-75152857D01*
X153902857Y-75057619D01*
X153950476Y-75010000D01*
X154045714Y-74962381D01*
X154236191Y-74962381D01*
X154331429Y-75010000D01*
X154379048Y-75057619D01*
X154426667Y-75152857D01*
X154426667Y-75200476D01*
X154379048Y-75295714D01*
X154331429Y-75343333D01*
X154236191Y-75390952D01*
X154045714Y-75390952D01*
X153950476Y-75438571D01*
X153902857Y-75486190D01*
X153855238Y-75581429D01*
X153855238Y-75771905D01*
X153902857Y-75867143D01*
X153950476Y-75914762D01*
X154045714Y-75962381D01*
X154236191Y-75962381D01*
X154331429Y-75914762D01*
X154379048Y-75867143D01*
X154426667Y-75771905D01*
X154426667Y-75581429D01*
X154379048Y-75486190D01*
X154331429Y-75438571D01*
X154236191Y-75390952D01*
X152976667Y-85622381D02*
X152976667Y-86336667D01*
X152929047Y-86479524D01*
X152833809Y-86574762D01*
X152690952Y-86622381D01*
X152595714Y-86622381D01*
X153500476Y-86622381D02*
X153690952Y-86622381D01*
X153786191Y-86574762D01*
X153833810Y-86527143D01*
X153929048Y-86384286D01*
X153976667Y-86193810D01*
X153976667Y-85812857D01*
X153929048Y-85717619D01*
X153881429Y-85670000D01*
X153786191Y-85622381D01*
X153595714Y-85622381D01*
X153500476Y-85670000D01*
X153452857Y-85717619D01*
X153405238Y-85812857D01*
X153405238Y-86050952D01*
X153452857Y-86146190D01*
X153500476Y-86193810D01*
X153595714Y-86241429D01*
X153786191Y-86241429D01*
X153881429Y-86193810D01*
X153929048Y-86146190D01*
X153976667Y-86050952D01*
X143954762Y-88347619D02*
X143859524Y-88300000D01*
X143764286Y-88204762D01*
X143621429Y-88061905D01*
X143526190Y-88014286D01*
X143430952Y-88014286D01*
X143478571Y-88252381D02*
X143383333Y-88204762D01*
X143288095Y-88109524D01*
X143240476Y-87919048D01*
X143240476Y-87585714D01*
X143288095Y-87395238D01*
X143383333Y-87300000D01*
X143478571Y-87252381D01*
X143669048Y-87252381D01*
X143764286Y-87300000D01*
X143859524Y-87395238D01*
X143907143Y-87585714D01*
X143907143Y-87919048D01*
X143859524Y-88109524D01*
X143764286Y-88204762D01*
X143669048Y-88252381D01*
X143478571Y-88252381D01*
X144859524Y-88252381D02*
X144288095Y-88252381D01*
X144573809Y-88252381D02*
X144573809Y-87252381D01*
X144478571Y-87395238D01*
X144383333Y-87490476D01*
X144288095Y-87538095D01*
X158063334Y-86772381D02*
X157730000Y-86296190D01*
X157491905Y-86772381D02*
X157491905Y-85772381D01*
X157872858Y-85772381D01*
X157968096Y-85820000D01*
X158015715Y-85867619D01*
X158063334Y-85962857D01*
X158063334Y-86105714D01*
X158015715Y-86200952D01*
X157968096Y-86248571D01*
X157872858Y-86296190D01*
X157491905Y-86296190D01*
X159015715Y-86772381D02*
X158444286Y-86772381D01*
X158730000Y-86772381D02*
X158730000Y-85772381D01*
X158634762Y-85915238D01*
X158539524Y-86010476D01*
X158444286Y-86058095D01*
X162903334Y-86092381D02*
X162570000Y-85616190D01*
X162331905Y-86092381D02*
X162331905Y-85092381D01*
X162712858Y-85092381D01*
X162808096Y-85140000D01*
X162855715Y-85187619D01*
X162903334Y-85282857D01*
X162903334Y-85425714D01*
X162855715Y-85520952D01*
X162808096Y-85568571D01*
X162712858Y-85616190D01*
X162331905Y-85616190D01*
X163284286Y-85187619D02*
X163331905Y-85140000D01*
X163427143Y-85092381D01*
X163665239Y-85092381D01*
X163760477Y-85140000D01*
X163808096Y-85187619D01*
X163855715Y-85282857D01*
X163855715Y-85378095D01*
X163808096Y-85520952D01*
X163236667Y-86092381D01*
X163855715Y-86092381D01*
X128843334Y-87202381D02*
X128510000Y-86726190D01*
X128271905Y-87202381D02*
X128271905Y-86202381D01*
X128652858Y-86202381D01*
X128748096Y-86250000D01*
X128795715Y-86297619D01*
X128843334Y-86392857D01*
X128843334Y-86535714D01*
X128795715Y-86630952D01*
X128748096Y-86678571D01*
X128652858Y-86726190D01*
X128271905Y-86726190D01*
X129176667Y-86202381D02*
X129795715Y-86202381D01*
X129462381Y-86583333D01*
X129605239Y-86583333D01*
X129700477Y-86630952D01*
X129748096Y-86678571D01*
X129795715Y-86773810D01*
X129795715Y-87011905D01*
X129748096Y-87107143D01*
X129700477Y-87154762D01*
X129605239Y-87202381D01*
X129319524Y-87202381D01*
X129224286Y-87154762D01*
X129176667Y-87107143D01*
X147628095Y-68992381D02*
X147628095Y-69801905D01*
X147675714Y-69897143D01*
X147723333Y-69944762D01*
X147818571Y-69992381D01*
X148009048Y-69992381D01*
X148104286Y-69944762D01*
X148151905Y-69897143D01*
X148199524Y-69801905D01*
X148199524Y-68992381D01*
X149199524Y-69992381D02*
X148628095Y-69992381D01*
X148913809Y-69992381D02*
X148913809Y-68992381D01*
X148818571Y-69135238D01*
X148723333Y-69230476D01*
X148628095Y-69278095D01*
X166456667Y-62902381D02*
X166123333Y-62426190D01*
X165885238Y-62902381D02*
X165885238Y-61902381D01*
X166266191Y-61902381D01*
X166361429Y-61950000D01*
X166409048Y-61997619D01*
X166456667Y-62092857D01*
X166456667Y-62235714D01*
X166409048Y-62330952D01*
X166361429Y-62378571D01*
X166266191Y-62426190D01*
X165885238Y-62426190D01*
X166885238Y-62378571D02*
X167218572Y-62378571D01*
X167361429Y-62902381D02*
X166885238Y-62902381D01*
X166885238Y-61902381D01*
X167361429Y-61902381D01*
X168123334Y-62378571D02*
X167790000Y-62378571D01*
X167790000Y-62902381D02*
X167790000Y-61902381D01*
X168266191Y-61902381D01*
X168790000Y-61902381D02*
X168790000Y-62140476D01*
X168551905Y-62045238D02*
X168790000Y-62140476D01*
X169028096Y-62045238D01*
X168647143Y-62330952D02*
X168790000Y-62140476D01*
X168932858Y-62330952D01*
X169551905Y-61902381D02*
X169551905Y-62140476D01*
X169313810Y-62045238D02*
X169551905Y-62140476D01*
X169790001Y-62045238D01*
X169409048Y-62330952D02*
X169551905Y-62140476D01*
X169694763Y-62330952D01*
M02*
