M48
;DRILL file {KiCad 4.0.6} date 07/05/17 09:07:12
;FORMAT={-:-/ absolute / metric / decimal}
FMAT,2
METRIC,TZ
T1C0.600
T2C1.000
T3C4.000
%
G90
G05
M71
T1
X118.06Y-77.58
X122.54Y-81.72
X122.57Y-79.71
X124.72Y-81.72
X126.46Y-77.81
X126.88Y-75.19
X142.62Y-81.87
X145.79Y-78.51
X147.58Y-81.95
X150.23Y-84.16
X150.68Y-77.19
X150.71Y-75.13
X150.72Y-71.77
X160.94Y-73.05
X161.Y-70.88
X161.06Y-69.03
X165.26Y-85.91
X165.38Y-75.16
X165.85Y-76.59
X168.55Y-88.13
X168.57Y-86.37
T2
X118.618Y-86.868
X121.158Y-86.868
X125.58Y-64.73
X128.12Y-64.73
X130.66Y-64.73
X136.86Y-67.27
X136.86Y-69.81
X136.86Y-72.35
X137.24Y-78.24
X137.24Y-80.78
X137.24Y-83.32
X154.686Y-78.486
X154.686Y-81.026
X154.686Y-83.566
X154.79Y-68.12
X154.79Y-70.66
X154.79Y-73.2
X162.814Y-88.138
X165.354Y-88.138
T3
X115.85Y-62.75
X167.53Y-62.47
T0
M30
