G04 #@! TF.FileFunction,Legend,Bot*
%FSLAX46Y46*%
G04 Gerber Fmt 4.6, Leading zero omitted, Abs format (unit mm)*
G04 Created by KiCad (PCBNEW 4.0.6) date 06/30/17 11:01:05*
%MOMM*%
%LPD*%
G01*
G04 APERTURE LIST*
%ADD10C,0.100000*%
%ADD11C,0.120000*%
%ADD12C,0.250000*%
%ADD13C,0.150000*%
G04 APERTURE END LIST*
D10*
D11*
X137270000Y-49420000D02*
X137270000Y-48720000D01*
X136070000Y-48720000D02*
X136070000Y-49420000D01*
X155865000Y-50185000D02*
X155865000Y-49485000D01*
X154665000Y-49485000D02*
X154665000Y-50185000D01*
X137920000Y-48720000D02*
X137920000Y-49420000D01*
X139120000Y-49420000D02*
X139120000Y-48720000D01*
X158415000Y-49535000D02*
X158415000Y-50235000D01*
X159615000Y-50235000D02*
X159615000Y-49535000D01*
X145100000Y-54325000D02*
X145800000Y-54325000D01*
X145800000Y-53125000D02*
X145100000Y-53125000D01*
X163560000Y-54260000D02*
X164260000Y-54260000D01*
X164260000Y-53060000D02*
X163560000Y-53060000D01*
X142740000Y-41340000D02*
X143440000Y-41340000D01*
X143440000Y-40140000D02*
X142740000Y-40140000D01*
X166165000Y-40635000D02*
X166865000Y-40635000D01*
X166865000Y-39435000D02*
X166165000Y-39435000D01*
X142740000Y-39880000D02*
X143440000Y-39880000D01*
X143440000Y-38680000D02*
X142740000Y-38680000D01*
X166140000Y-38810000D02*
X166840000Y-38810000D01*
X166840000Y-37610000D02*
X166140000Y-37610000D01*
X95510000Y-79180000D02*
X94810000Y-79180000D01*
X94810000Y-80380000D02*
X95510000Y-80380000D01*
X107970000Y-70840000D02*
X107970000Y-70140000D01*
X106770000Y-70140000D02*
X106770000Y-70840000D01*
X118810000Y-79950000D02*
X119510000Y-79950000D01*
X119510000Y-78750000D02*
X118810000Y-78750000D01*
X118840000Y-82500000D02*
X119540000Y-82500000D01*
X119540000Y-81300000D02*
X118840000Y-81300000D01*
X107860000Y-92240000D02*
X107860000Y-92940000D01*
X109060000Y-92940000D02*
X109060000Y-92240000D01*
X95500000Y-83730000D02*
X94800000Y-83730000D01*
X94800000Y-84930000D02*
X95500000Y-84930000D01*
X73330000Y-76550000D02*
X78830000Y-76550000D01*
X73330000Y-74450000D02*
X78830000Y-74450000D01*
X73330000Y-76550000D02*
X73330000Y-74450000D01*
X73170000Y-73080000D02*
X78670000Y-73080000D01*
X73170000Y-70980000D02*
X78670000Y-70980000D01*
X73170000Y-73080000D02*
X73170000Y-70980000D01*
X72920000Y-68990000D02*
X78420000Y-68990000D01*
X72920000Y-66890000D02*
X78420000Y-66890000D01*
X72920000Y-68990000D02*
X72920000Y-66890000D01*
X71100000Y-80360000D02*
X71100000Y-85860000D01*
X73200000Y-80360000D02*
X73200000Y-85860000D01*
X71100000Y-80360000D02*
X73200000Y-80360000D01*
X76392000Y-117856000D02*
X70892000Y-117856000D01*
X76392000Y-119956000D02*
X70892000Y-119956000D01*
X76392000Y-117856000D02*
X76392000Y-119956000D01*
X76392000Y-113581000D02*
X70892000Y-113581000D01*
X76392000Y-115681000D02*
X70892000Y-115681000D01*
X76392000Y-113581000D02*
X76392000Y-115681000D01*
X68667000Y-112006000D02*
X74167000Y-112006000D01*
X68667000Y-109906000D02*
X74167000Y-109906000D01*
X68667000Y-112006000D02*
X68667000Y-109906000D01*
X74467000Y-123756000D02*
X79967000Y-123756000D01*
X74467000Y-121656000D02*
X79967000Y-121656000D01*
X74467000Y-123756000D02*
X74467000Y-121656000D01*
X187985000Y-56310000D02*
X189985000Y-56310000D01*
X189985000Y-56310000D02*
X189985000Y-60160000D01*
X187985000Y-56310000D02*
X187985000Y-60160000D01*
X193910000Y-49460000D02*
X195910000Y-49460000D01*
X195910000Y-49460000D02*
X195910000Y-53310000D01*
X193910000Y-49460000D02*
X193910000Y-53310000D01*
X195635000Y-60710000D02*
X193635000Y-60710000D01*
X193635000Y-60710000D02*
X193635000Y-56860000D01*
X195635000Y-60710000D02*
X195635000Y-56860000D01*
D12*
X140134000Y-38126000D02*
X132006000Y-38126000D01*
X132006000Y-38126000D02*
X132006000Y-46381000D01*
X132006000Y-46381000D02*
X140134000Y-46381000D01*
X140134000Y-46381000D02*
X140134000Y-38126000D01*
X163029000Y-37496000D02*
X154901000Y-37496000D01*
X154901000Y-37496000D02*
X154901000Y-45751000D01*
X154901000Y-45751000D02*
X163029000Y-45751000D01*
X163029000Y-45751000D02*
X163029000Y-37496000D01*
D11*
X142820000Y-44110000D02*
X142820000Y-43110000D01*
X141460000Y-43110000D02*
X141460000Y-44110000D01*
X143360000Y-43100000D02*
X143360000Y-44100000D01*
X144720000Y-44100000D02*
X144720000Y-43100000D01*
X166095000Y-43935000D02*
X166095000Y-42935000D01*
X164735000Y-42935000D02*
X164735000Y-43935000D01*
X166860000Y-42985000D02*
X166860000Y-43985000D01*
X168220000Y-43985000D02*
X168220000Y-42985000D01*
X119642000Y-71800000D02*
X120642000Y-71800000D01*
X120642000Y-70440000D02*
X119642000Y-70440000D01*
X111080000Y-70112000D02*
X111080000Y-71112000D01*
X112440000Y-71112000D02*
X112440000Y-70112000D01*
X148150000Y-121000000D02*
X147150000Y-121000000D01*
X147150000Y-122360000D02*
X148150000Y-122360000D01*
X152646000Y-94570000D02*
X151646000Y-94570000D01*
X151646000Y-95930000D02*
X152646000Y-95930000D01*
X148240000Y-88330000D02*
X147240000Y-88330000D01*
X147240000Y-89690000D02*
X148240000Y-89690000D01*
X152330000Y-60500000D02*
X151330000Y-60500000D01*
X151330000Y-61860000D02*
X152330000Y-61860000D01*
X141790000Y-47460000D02*
X143590000Y-47460000D01*
X143590000Y-50680000D02*
X140640000Y-50680000D01*
X162915000Y-47875000D02*
X164715000Y-47875000D01*
X164715000Y-51095000D02*
X161765000Y-51095000D01*
D13*
X102035000Y-86255000D02*
X102035000Y-85255000D01*
X112385000Y-86255000D02*
X112385000Y-85180000D01*
X112385000Y-75905000D02*
X112385000Y-76980000D01*
X102035000Y-75905000D02*
X102035000Y-76980000D01*
X102035000Y-86255000D02*
X103110000Y-86255000D01*
X102035000Y-75905000D02*
X103110000Y-75905000D01*
X112385000Y-75905000D02*
X111310000Y-75905000D01*
X112385000Y-86255000D02*
X111310000Y-86255000D01*
X102035000Y-85255000D02*
X101010000Y-85255000D01*
X105286000Y-49660000D02*
X100460000Y-49660000D01*
X100460000Y-49660000D02*
X100460000Y-59820000D01*
X100460000Y-59820000D02*
X105286000Y-59820000D01*
X105286000Y-59820000D02*
X105286000Y-49660000D01*
X103508000Y-59820000D02*
X103508000Y-59185000D01*
X103508000Y-59185000D02*
X102238000Y-59185000D01*
X102238000Y-59185000D02*
X102238000Y-59820000D01*
X119126000Y-49530000D02*
X114300000Y-49530000D01*
X114300000Y-49530000D02*
X114300000Y-59690000D01*
X114300000Y-59690000D02*
X119126000Y-59690000D01*
X119126000Y-59690000D02*
X119126000Y-49530000D01*
X117348000Y-59690000D02*
X117348000Y-59055000D01*
X117348000Y-59055000D02*
X116078000Y-59055000D01*
X116078000Y-59055000D02*
X116078000Y-59690000D01*
X103864000Y-113980000D02*
X108690000Y-113980000D01*
X108690000Y-113980000D02*
X108690000Y-103820000D01*
X108690000Y-103820000D02*
X103864000Y-103820000D01*
X103864000Y-103820000D02*
X103864000Y-113980000D01*
X105642000Y-103820000D02*
X105642000Y-104455000D01*
X105642000Y-104455000D02*
X106912000Y-104455000D01*
X106912000Y-104455000D02*
X106912000Y-103820000D01*
X119504000Y-114430000D02*
X124330000Y-114430000D01*
X124330000Y-114430000D02*
X124330000Y-104270000D01*
X124330000Y-104270000D02*
X119504000Y-104270000D01*
X119504000Y-104270000D02*
X119504000Y-114430000D01*
X121282000Y-104270000D02*
X121282000Y-104905000D01*
X121282000Y-104905000D02*
X122552000Y-104905000D01*
X122552000Y-104905000D02*
X122552000Y-104270000D01*
X139585511Y-101396000D02*
G75*
G03X139585511Y-101396000I-772511J0D01*
G01*
X137670000Y-97840000D02*
X137670000Y-125780000D01*
X137670000Y-125780000D02*
X175770000Y-125780000D01*
X175770000Y-125780000D02*
X175770000Y-97840000D01*
X175770000Y-97840000D02*
X137670000Y-97840000D01*
X139655511Y-67896000D02*
G75*
G03X139655511Y-67896000I-772511J0D01*
G01*
X137740000Y-64340000D02*
X137740000Y-92280000D01*
X137740000Y-92280000D02*
X175840000Y-92280000D01*
X175840000Y-92280000D02*
X175840000Y-64340000D01*
X175840000Y-64340000D02*
X137740000Y-64340000D01*
X85328000Y-102608000D02*
X84566000Y-102608000D01*
X84566000Y-102608000D02*
X84566000Y-104132000D01*
X84566000Y-104132000D02*
X85328000Y-104132000D01*
X74152000Y-101084000D02*
X74152000Y-105656000D01*
X74152000Y-105656000D02*
X85328000Y-105656000D01*
X85328000Y-105656000D02*
X85328000Y-101084000D01*
X85328000Y-101084000D02*
X74152000Y-101084000D01*
X75842000Y-84922000D02*
X76604000Y-84922000D01*
X76604000Y-84922000D02*
X76604000Y-83398000D01*
X76604000Y-83398000D02*
X75842000Y-83398000D01*
X87018000Y-86446000D02*
X87018000Y-81874000D01*
X87018000Y-81874000D02*
X75842000Y-81874000D01*
X75842000Y-81874000D02*
X75842000Y-86446000D01*
X75842000Y-86446000D02*
X87018000Y-86446000D01*
D11*
X189910000Y-53670000D02*
X187910000Y-53670000D01*
X187910000Y-53670000D02*
X187910000Y-49820000D01*
X189910000Y-53670000D02*
X189910000Y-49820000D01*
X110500000Y-71120000D02*
X110500000Y-70120000D01*
X109140000Y-70120000D02*
X109140000Y-71120000D01*
X85920000Y-42790000D02*
X84920000Y-42790000D01*
X84920000Y-44150000D02*
X85920000Y-44150000D01*
X103260000Y-42790000D02*
X102260000Y-42790000D01*
X102260000Y-44150000D02*
X103260000Y-44150000D01*
X120970000Y-75920000D02*
X121970000Y-75920000D01*
X121970000Y-74560000D02*
X120970000Y-74560000D01*
D13*
X137147143Y-51813334D02*
X137194762Y-51765715D01*
X137242381Y-51622858D01*
X137242381Y-51527620D01*
X137194762Y-51384762D01*
X137099524Y-51289524D01*
X137004286Y-51241905D01*
X136813810Y-51194286D01*
X136670952Y-51194286D01*
X136480476Y-51241905D01*
X136385238Y-51289524D01*
X136290000Y-51384762D01*
X136242381Y-51527620D01*
X136242381Y-51622858D01*
X136290000Y-51765715D01*
X136337619Y-51813334D01*
X137242381Y-52765715D02*
X137242381Y-52194286D01*
X137242381Y-52480000D02*
X136242381Y-52480000D01*
X136385238Y-52384762D01*
X136480476Y-52289524D01*
X136528095Y-52194286D01*
X154072143Y-49668334D02*
X154119762Y-49620715D01*
X154167381Y-49477858D01*
X154167381Y-49382620D01*
X154119762Y-49239762D01*
X154024524Y-49144524D01*
X153929286Y-49096905D01*
X153738810Y-49049286D01*
X153595952Y-49049286D01*
X153405476Y-49096905D01*
X153310238Y-49144524D01*
X153215000Y-49239762D01*
X153167381Y-49382620D01*
X153167381Y-49477858D01*
X153215000Y-49620715D01*
X153262619Y-49668334D01*
X153262619Y-50049286D02*
X153215000Y-50096905D01*
X153167381Y-50192143D01*
X153167381Y-50430239D01*
X153215000Y-50525477D01*
X153262619Y-50573096D01*
X153357857Y-50620715D01*
X153453095Y-50620715D01*
X153595952Y-50573096D01*
X154167381Y-50001667D01*
X154167381Y-50620715D01*
X139147143Y-51813334D02*
X139194762Y-51765715D01*
X139242381Y-51622858D01*
X139242381Y-51527620D01*
X139194762Y-51384762D01*
X139099524Y-51289524D01*
X139004286Y-51241905D01*
X138813810Y-51194286D01*
X138670952Y-51194286D01*
X138480476Y-51241905D01*
X138385238Y-51289524D01*
X138290000Y-51384762D01*
X138242381Y-51527620D01*
X138242381Y-51622858D01*
X138290000Y-51765715D01*
X138337619Y-51813334D01*
X138242381Y-52146667D02*
X138242381Y-52765715D01*
X138623333Y-52432381D01*
X138623333Y-52575239D01*
X138670952Y-52670477D01*
X138718571Y-52718096D01*
X138813810Y-52765715D01*
X139051905Y-52765715D01*
X139147143Y-52718096D01*
X139194762Y-52670477D01*
X139242381Y-52575239D01*
X139242381Y-52289524D01*
X139194762Y-52194286D01*
X139147143Y-52146667D01*
X157872143Y-49718334D02*
X157919762Y-49670715D01*
X157967381Y-49527858D01*
X157967381Y-49432620D01*
X157919762Y-49289762D01*
X157824524Y-49194524D01*
X157729286Y-49146905D01*
X157538810Y-49099286D01*
X157395952Y-49099286D01*
X157205476Y-49146905D01*
X157110238Y-49194524D01*
X157015000Y-49289762D01*
X156967381Y-49432620D01*
X156967381Y-49527858D01*
X157015000Y-49670715D01*
X157062619Y-49718334D01*
X157300714Y-50575477D02*
X157967381Y-50575477D01*
X156919762Y-50337381D02*
X157634048Y-50099286D01*
X157634048Y-50718334D01*
X148666666Y-54132143D02*
X148714285Y-54179762D01*
X148857142Y-54227381D01*
X148952380Y-54227381D01*
X149095238Y-54179762D01*
X149190476Y-54084524D01*
X149238095Y-53989286D01*
X149285714Y-53798810D01*
X149285714Y-53655952D01*
X149238095Y-53465476D01*
X149190476Y-53370238D01*
X149095238Y-53275000D01*
X148952380Y-53227381D01*
X148857142Y-53227381D01*
X148714285Y-53275000D01*
X148666666Y-53322619D01*
X147761904Y-53227381D02*
X148238095Y-53227381D01*
X148285714Y-53703571D01*
X148238095Y-53655952D01*
X148142857Y-53608333D01*
X147904761Y-53608333D01*
X147809523Y-53655952D01*
X147761904Y-53703571D01*
X147714285Y-53798810D01*
X147714285Y-54036905D01*
X147761904Y-54132143D01*
X147809523Y-54179762D01*
X147904761Y-54227381D01*
X148142857Y-54227381D01*
X148238095Y-54179762D01*
X148285714Y-54132143D01*
X164076666Y-55567143D02*
X164124285Y-55614762D01*
X164267142Y-55662381D01*
X164362380Y-55662381D01*
X164505238Y-55614762D01*
X164600476Y-55519524D01*
X164648095Y-55424286D01*
X164695714Y-55233810D01*
X164695714Y-55090952D01*
X164648095Y-54900476D01*
X164600476Y-54805238D01*
X164505238Y-54710000D01*
X164362380Y-54662381D01*
X164267142Y-54662381D01*
X164124285Y-54710000D01*
X164076666Y-54757619D01*
X163219523Y-54662381D02*
X163410000Y-54662381D01*
X163505238Y-54710000D01*
X163552857Y-54757619D01*
X163648095Y-54900476D01*
X163695714Y-55090952D01*
X163695714Y-55471905D01*
X163648095Y-55567143D01*
X163600476Y-55614762D01*
X163505238Y-55662381D01*
X163314761Y-55662381D01*
X163219523Y-55614762D01*
X163171904Y-55567143D01*
X163124285Y-55471905D01*
X163124285Y-55233810D01*
X163171904Y-55138571D01*
X163219523Y-55090952D01*
X163314761Y-55043333D01*
X163505238Y-55043333D01*
X163600476Y-55090952D01*
X163648095Y-55138571D01*
X163695714Y-55233810D01*
X146556666Y-41022143D02*
X146604285Y-41069762D01*
X146747142Y-41117381D01*
X146842380Y-41117381D01*
X146985238Y-41069762D01*
X147080476Y-40974524D01*
X147128095Y-40879286D01*
X147175714Y-40688810D01*
X147175714Y-40545952D01*
X147128095Y-40355476D01*
X147080476Y-40260238D01*
X146985238Y-40165000D01*
X146842380Y-40117381D01*
X146747142Y-40117381D01*
X146604285Y-40165000D01*
X146556666Y-40212619D01*
X146223333Y-40117381D02*
X145556666Y-40117381D01*
X145985238Y-41117381D01*
X169956666Y-40367143D02*
X170004285Y-40414762D01*
X170147142Y-40462381D01*
X170242380Y-40462381D01*
X170385238Y-40414762D01*
X170480476Y-40319524D01*
X170528095Y-40224286D01*
X170575714Y-40033810D01*
X170575714Y-39890952D01*
X170528095Y-39700476D01*
X170480476Y-39605238D01*
X170385238Y-39510000D01*
X170242380Y-39462381D01*
X170147142Y-39462381D01*
X170004285Y-39510000D01*
X169956666Y-39557619D01*
X169385238Y-39890952D02*
X169480476Y-39843333D01*
X169528095Y-39795714D01*
X169575714Y-39700476D01*
X169575714Y-39652857D01*
X169528095Y-39557619D01*
X169480476Y-39510000D01*
X169385238Y-39462381D01*
X169194761Y-39462381D01*
X169099523Y-39510000D01*
X169051904Y-39557619D01*
X169004285Y-39652857D01*
X169004285Y-39700476D01*
X169051904Y-39795714D01*
X169099523Y-39843333D01*
X169194761Y-39890952D01*
X169385238Y-39890952D01*
X169480476Y-39938571D01*
X169528095Y-39986190D01*
X169575714Y-40081429D01*
X169575714Y-40271905D01*
X169528095Y-40367143D01*
X169480476Y-40414762D01*
X169385238Y-40462381D01*
X169194761Y-40462381D01*
X169099523Y-40414762D01*
X169051904Y-40367143D01*
X169004285Y-40271905D01*
X169004285Y-40081429D01*
X169051904Y-39986190D01*
X169099523Y-39938571D01*
X169194761Y-39890952D01*
X146481666Y-39637143D02*
X146529285Y-39684762D01*
X146672142Y-39732381D01*
X146767380Y-39732381D01*
X146910238Y-39684762D01*
X147005476Y-39589524D01*
X147053095Y-39494286D01*
X147100714Y-39303810D01*
X147100714Y-39160952D01*
X147053095Y-38970476D01*
X147005476Y-38875238D01*
X146910238Y-38780000D01*
X146767380Y-38732381D01*
X146672142Y-38732381D01*
X146529285Y-38780000D01*
X146481666Y-38827619D01*
X146005476Y-39732381D02*
X145815000Y-39732381D01*
X145719761Y-39684762D01*
X145672142Y-39637143D01*
X145576904Y-39494286D01*
X145529285Y-39303810D01*
X145529285Y-38922857D01*
X145576904Y-38827619D01*
X145624523Y-38780000D01*
X145719761Y-38732381D01*
X145910238Y-38732381D01*
X146005476Y-38780000D01*
X146053095Y-38827619D01*
X146100714Y-38922857D01*
X146100714Y-39160952D01*
X146053095Y-39256190D01*
X146005476Y-39303810D01*
X145910238Y-39351429D01*
X145719761Y-39351429D01*
X145624523Y-39303810D01*
X145576904Y-39256190D01*
X145529285Y-39160952D01*
X170582857Y-38467143D02*
X170630476Y-38514762D01*
X170773333Y-38562381D01*
X170868571Y-38562381D01*
X171011429Y-38514762D01*
X171106667Y-38419524D01*
X171154286Y-38324286D01*
X171201905Y-38133810D01*
X171201905Y-37990952D01*
X171154286Y-37800476D01*
X171106667Y-37705238D01*
X171011429Y-37610000D01*
X170868571Y-37562381D01*
X170773333Y-37562381D01*
X170630476Y-37610000D01*
X170582857Y-37657619D01*
X169630476Y-38562381D02*
X170201905Y-38562381D01*
X169916191Y-38562381D02*
X169916191Y-37562381D01*
X170011429Y-37705238D01*
X170106667Y-37800476D01*
X170201905Y-37848095D01*
X169011429Y-37562381D02*
X168916190Y-37562381D01*
X168820952Y-37610000D01*
X168773333Y-37657619D01*
X168725714Y-37752857D01*
X168678095Y-37943333D01*
X168678095Y-38181429D01*
X168725714Y-38371905D01*
X168773333Y-38467143D01*
X168820952Y-38514762D01*
X168916190Y-38562381D01*
X169011429Y-38562381D01*
X169106667Y-38514762D01*
X169154286Y-38467143D01*
X169201905Y-38371905D01*
X169249524Y-38181429D01*
X169249524Y-37943333D01*
X169201905Y-37752857D01*
X169154286Y-37657619D01*
X169106667Y-37610000D01*
X169011429Y-37562381D01*
X92687143Y-79097143D02*
X92734762Y-79049524D01*
X92782381Y-78906667D01*
X92782381Y-78811429D01*
X92734762Y-78668571D01*
X92639524Y-78573333D01*
X92544286Y-78525714D01*
X92353810Y-78478095D01*
X92210952Y-78478095D01*
X92020476Y-78525714D01*
X91925238Y-78573333D01*
X91830000Y-78668571D01*
X91782381Y-78811429D01*
X91782381Y-78906667D01*
X91830000Y-79049524D01*
X91877619Y-79097143D01*
X92782381Y-80049524D02*
X92782381Y-79478095D01*
X92782381Y-79763809D02*
X91782381Y-79763809D01*
X91925238Y-79668571D01*
X92020476Y-79573333D01*
X92068095Y-79478095D01*
X92782381Y-80525714D02*
X92782381Y-80716190D01*
X92734762Y-80811429D01*
X92687143Y-80859048D01*
X92544286Y-80954286D01*
X92353810Y-81001905D01*
X91972857Y-81001905D01*
X91877619Y-80954286D01*
X91830000Y-80906667D01*
X91782381Y-80811429D01*
X91782381Y-80620952D01*
X91830000Y-80525714D01*
X91877619Y-80478095D01*
X91972857Y-80430476D01*
X92210952Y-80430476D01*
X92306190Y-80478095D01*
X92353810Y-80525714D01*
X92401429Y-80620952D01*
X92401429Y-80811429D01*
X92353810Y-80906667D01*
X92306190Y-80954286D01*
X92210952Y-81001905D01*
X107717143Y-66263143D02*
X107764762Y-66215524D01*
X107812381Y-66072667D01*
X107812381Y-65977429D01*
X107764762Y-65834571D01*
X107669524Y-65739333D01*
X107574286Y-65691714D01*
X107383810Y-65644095D01*
X107240952Y-65644095D01*
X107050476Y-65691714D01*
X106955238Y-65739333D01*
X106860000Y-65834571D01*
X106812381Y-65977429D01*
X106812381Y-66072667D01*
X106860000Y-66215524D01*
X106907619Y-66263143D01*
X106907619Y-66644095D02*
X106860000Y-66691714D01*
X106812381Y-66786952D01*
X106812381Y-67025048D01*
X106860000Y-67120286D01*
X106907619Y-67167905D01*
X107002857Y-67215524D01*
X107098095Y-67215524D01*
X107240952Y-67167905D01*
X107812381Y-66596476D01*
X107812381Y-67215524D01*
X106812381Y-67834571D02*
X106812381Y-67929810D01*
X106860000Y-68025048D01*
X106907619Y-68072667D01*
X107002857Y-68120286D01*
X107193333Y-68167905D01*
X107431429Y-68167905D01*
X107621905Y-68120286D01*
X107717143Y-68072667D01*
X107764762Y-68025048D01*
X107812381Y-67929810D01*
X107812381Y-67834571D01*
X107764762Y-67739333D01*
X107717143Y-67691714D01*
X107621905Y-67644095D01*
X107431429Y-67596476D01*
X107193333Y-67596476D01*
X107002857Y-67644095D01*
X106907619Y-67691714D01*
X106860000Y-67739333D01*
X106812381Y-67834571D01*
X123322857Y-79757143D02*
X123370476Y-79804762D01*
X123513333Y-79852381D01*
X123608571Y-79852381D01*
X123751429Y-79804762D01*
X123846667Y-79709524D01*
X123894286Y-79614286D01*
X123941905Y-79423810D01*
X123941905Y-79280952D01*
X123894286Y-79090476D01*
X123846667Y-78995238D01*
X123751429Y-78900000D01*
X123608571Y-78852381D01*
X123513333Y-78852381D01*
X123370476Y-78900000D01*
X123322857Y-78947619D01*
X122941905Y-78947619D02*
X122894286Y-78900000D01*
X122799048Y-78852381D01*
X122560952Y-78852381D01*
X122465714Y-78900000D01*
X122418095Y-78947619D01*
X122370476Y-79042857D01*
X122370476Y-79138095D01*
X122418095Y-79280952D01*
X122989524Y-79852381D01*
X122370476Y-79852381D01*
X121418095Y-79852381D02*
X121989524Y-79852381D01*
X121703810Y-79852381D02*
X121703810Y-78852381D01*
X121799048Y-78995238D01*
X121894286Y-79090476D01*
X121989524Y-79138095D01*
X123172857Y-82127143D02*
X123220476Y-82174762D01*
X123363333Y-82222381D01*
X123458571Y-82222381D01*
X123601429Y-82174762D01*
X123696667Y-82079524D01*
X123744286Y-81984286D01*
X123791905Y-81793810D01*
X123791905Y-81650952D01*
X123744286Y-81460476D01*
X123696667Y-81365238D01*
X123601429Y-81270000D01*
X123458571Y-81222381D01*
X123363333Y-81222381D01*
X123220476Y-81270000D01*
X123172857Y-81317619D01*
X122791905Y-81317619D02*
X122744286Y-81270000D01*
X122649048Y-81222381D01*
X122410952Y-81222381D01*
X122315714Y-81270000D01*
X122268095Y-81317619D01*
X122220476Y-81412857D01*
X122220476Y-81508095D01*
X122268095Y-81650952D01*
X122839524Y-82222381D01*
X122220476Y-82222381D01*
X121839524Y-81317619D02*
X121791905Y-81270000D01*
X121696667Y-81222381D01*
X121458571Y-81222381D01*
X121363333Y-81270000D01*
X121315714Y-81317619D01*
X121268095Y-81412857D01*
X121268095Y-81508095D01*
X121315714Y-81650952D01*
X121887143Y-82222381D01*
X121268095Y-82222381D01*
X108877143Y-95437143D02*
X108924762Y-95389524D01*
X108972381Y-95246667D01*
X108972381Y-95151429D01*
X108924762Y-95008571D01*
X108829524Y-94913333D01*
X108734286Y-94865714D01*
X108543810Y-94818095D01*
X108400952Y-94818095D01*
X108210476Y-94865714D01*
X108115238Y-94913333D01*
X108020000Y-95008571D01*
X107972381Y-95151429D01*
X107972381Y-95246667D01*
X108020000Y-95389524D01*
X108067619Y-95437143D01*
X108067619Y-95818095D02*
X108020000Y-95865714D01*
X107972381Y-95960952D01*
X107972381Y-96199048D01*
X108020000Y-96294286D01*
X108067619Y-96341905D01*
X108162857Y-96389524D01*
X108258095Y-96389524D01*
X108400952Y-96341905D01*
X108972381Y-95770476D01*
X108972381Y-96389524D01*
X107972381Y-96722857D02*
X107972381Y-97341905D01*
X108353333Y-97008571D01*
X108353333Y-97151429D01*
X108400952Y-97246667D01*
X108448571Y-97294286D01*
X108543810Y-97341905D01*
X108781905Y-97341905D01*
X108877143Y-97294286D01*
X108924762Y-97246667D01*
X108972381Y-97151429D01*
X108972381Y-96865714D01*
X108924762Y-96770476D01*
X108877143Y-96722857D01*
X95792857Y-83437143D02*
X95840476Y-83484762D01*
X95983333Y-83532381D01*
X96078571Y-83532381D01*
X96221429Y-83484762D01*
X96316667Y-83389524D01*
X96364286Y-83294286D01*
X96411905Y-83103810D01*
X96411905Y-82960952D01*
X96364286Y-82770476D01*
X96316667Y-82675238D01*
X96221429Y-82580000D01*
X96078571Y-82532381D01*
X95983333Y-82532381D01*
X95840476Y-82580000D01*
X95792857Y-82627619D01*
X95411905Y-82627619D02*
X95364286Y-82580000D01*
X95269048Y-82532381D01*
X95030952Y-82532381D01*
X94935714Y-82580000D01*
X94888095Y-82627619D01*
X94840476Y-82722857D01*
X94840476Y-82818095D01*
X94888095Y-82960952D01*
X95459524Y-83532381D01*
X94840476Y-83532381D01*
X93983333Y-82865714D02*
X93983333Y-83532381D01*
X94221429Y-82484762D02*
X94459524Y-83199048D01*
X93840476Y-83199048D01*
X83897857Y-75857143D02*
X83945476Y-75904762D01*
X84088333Y-75952381D01*
X84183571Y-75952381D01*
X84326429Y-75904762D01*
X84421667Y-75809524D01*
X84469286Y-75714286D01*
X84516905Y-75523810D01*
X84516905Y-75380952D01*
X84469286Y-75190476D01*
X84421667Y-75095238D01*
X84326429Y-75000000D01*
X84183571Y-74952381D01*
X84088333Y-74952381D01*
X83945476Y-75000000D01*
X83897857Y-75047619D01*
X83516905Y-75047619D02*
X83469286Y-75000000D01*
X83374048Y-74952381D01*
X83135952Y-74952381D01*
X83040714Y-75000000D01*
X82993095Y-75047619D01*
X82945476Y-75142857D01*
X82945476Y-75238095D01*
X82993095Y-75380952D01*
X83564524Y-75952381D01*
X82945476Y-75952381D01*
X82040714Y-74952381D02*
X82516905Y-74952381D01*
X82564524Y-75428571D01*
X82516905Y-75380952D01*
X82421667Y-75333333D01*
X82183571Y-75333333D01*
X82088333Y-75380952D01*
X82040714Y-75428571D01*
X81993095Y-75523810D01*
X81993095Y-75761905D01*
X82040714Y-75857143D01*
X82088333Y-75904762D01*
X82183571Y-75952381D01*
X82421667Y-75952381D01*
X82516905Y-75904762D01*
X82564524Y-75857143D01*
X83637857Y-72387143D02*
X83685476Y-72434762D01*
X83828333Y-72482381D01*
X83923571Y-72482381D01*
X84066429Y-72434762D01*
X84161667Y-72339524D01*
X84209286Y-72244286D01*
X84256905Y-72053810D01*
X84256905Y-71910952D01*
X84209286Y-71720476D01*
X84161667Y-71625238D01*
X84066429Y-71530000D01*
X83923571Y-71482381D01*
X83828333Y-71482381D01*
X83685476Y-71530000D01*
X83637857Y-71577619D01*
X83256905Y-71577619D02*
X83209286Y-71530000D01*
X83114048Y-71482381D01*
X82875952Y-71482381D01*
X82780714Y-71530000D01*
X82733095Y-71577619D01*
X82685476Y-71672857D01*
X82685476Y-71768095D01*
X82733095Y-71910952D01*
X83304524Y-72482381D01*
X82685476Y-72482381D01*
X81828333Y-71482381D02*
X82018810Y-71482381D01*
X82114048Y-71530000D01*
X82161667Y-71577619D01*
X82256905Y-71720476D01*
X82304524Y-71910952D01*
X82304524Y-72291905D01*
X82256905Y-72387143D01*
X82209286Y-72434762D01*
X82114048Y-72482381D01*
X81923571Y-72482381D01*
X81828333Y-72434762D01*
X81780714Y-72387143D01*
X81733095Y-72291905D01*
X81733095Y-72053810D01*
X81780714Y-71958571D01*
X81828333Y-71910952D01*
X81923571Y-71863333D01*
X82114048Y-71863333D01*
X82209286Y-71910952D01*
X82256905Y-71958571D01*
X82304524Y-72053810D01*
X71562857Y-68297143D02*
X71610476Y-68344762D01*
X71753333Y-68392381D01*
X71848571Y-68392381D01*
X71991429Y-68344762D01*
X72086667Y-68249524D01*
X72134286Y-68154286D01*
X72181905Y-67963810D01*
X72181905Y-67820952D01*
X72134286Y-67630476D01*
X72086667Y-67535238D01*
X71991429Y-67440000D01*
X71848571Y-67392381D01*
X71753333Y-67392381D01*
X71610476Y-67440000D01*
X71562857Y-67487619D01*
X71181905Y-67487619D02*
X71134286Y-67440000D01*
X71039048Y-67392381D01*
X70800952Y-67392381D01*
X70705714Y-67440000D01*
X70658095Y-67487619D01*
X70610476Y-67582857D01*
X70610476Y-67678095D01*
X70658095Y-67820952D01*
X71229524Y-68392381D01*
X70610476Y-68392381D01*
X70277143Y-67392381D02*
X69610476Y-67392381D01*
X70039048Y-68392381D01*
X69957143Y-83617143D02*
X70004762Y-83569524D01*
X70052381Y-83426667D01*
X70052381Y-83331429D01*
X70004762Y-83188571D01*
X69909524Y-83093333D01*
X69814286Y-83045714D01*
X69623810Y-82998095D01*
X69480952Y-82998095D01*
X69290476Y-83045714D01*
X69195238Y-83093333D01*
X69100000Y-83188571D01*
X69052381Y-83331429D01*
X69052381Y-83426667D01*
X69100000Y-83569524D01*
X69147619Y-83617143D01*
X69147619Y-83998095D02*
X69100000Y-84045714D01*
X69052381Y-84140952D01*
X69052381Y-84379048D01*
X69100000Y-84474286D01*
X69147619Y-84521905D01*
X69242857Y-84569524D01*
X69338095Y-84569524D01*
X69480952Y-84521905D01*
X70052381Y-83950476D01*
X70052381Y-84569524D01*
X69480952Y-85140952D02*
X69433333Y-85045714D01*
X69385714Y-84998095D01*
X69290476Y-84950476D01*
X69242857Y-84950476D01*
X69147619Y-84998095D01*
X69100000Y-85045714D01*
X69052381Y-85140952D01*
X69052381Y-85331429D01*
X69100000Y-85426667D01*
X69147619Y-85474286D01*
X69242857Y-85521905D01*
X69290476Y-85521905D01*
X69385714Y-85474286D01*
X69433333Y-85426667D01*
X69480952Y-85331429D01*
X69480952Y-85140952D01*
X69528571Y-85045714D01*
X69576190Y-84998095D01*
X69671429Y-84950476D01*
X69861905Y-84950476D01*
X69957143Y-84998095D01*
X70004762Y-85045714D01*
X70052381Y-85140952D01*
X70052381Y-85331429D01*
X70004762Y-85426667D01*
X69957143Y-85474286D01*
X69861905Y-85521905D01*
X69671429Y-85521905D01*
X69576190Y-85474286D01*
X69528571Y-85426667D01*
X69480952Y-85331429D01*
X66984857Y-119338143D02*
X67032476Y-119385762D01*
X67175333Y-119433381D01*
X67270571Y-119433381D01*
X67413429Y-119385762D01*
X67508667Y-119290524D01*
X67556286Y-119195286D01*
X67603905Y-119004810D01*
X67603905Y-118861952D01*
X67556286Y-118671476D01*
X67508667Y-118576238D01*
X67413429Y-118481000D01*
X67270571Y-118433381D01*
X67175333Y-118433381D01*
X67032476Y-118481000D01*
X66984857Y-118528619D01*
X66603905Y-118528619D02*
X66556286Y-118481000D01*
X66461048Y-118433381D01*
X66222952Y-118433381D01*
X66127714Y-118481000D01*
X66080095Y-118528619D01*
X66032476Y-118623857D01*
X66032476Y-118719095D01*
X66080095Y-118861952D01*
X66651524Y-119433381D01*
X66032476Y-119433381D01*
X65556286Y-119433381D02*
X65365810Y-119433381D01*
X65270571Y-119385762D01*
X65222952Y-119338143D01*
X65127714Y-119195286D01*
X65080095Y-119004810D01*
X65080095Y-118623857D01*
X65127714Y-118528619D01*
X65175333Y-118481000D01*
X65270571Y-118433381D01*
X65461048Y-118433381D01*
X65556286Y-118481000D01*
X65603905Y-118528619D01*
X65651524Y-118623857D01*
X65651524Y-118861952D01*
X65603905Y-118957190D01*
X65556286Y-119004810D01*
X65461048Y-119052429D01*
X65270571Y-119052429D01*
X65175333Y-119004810D01*
X65127714Y-118957190D01*
X65080095Y-118861952D01*
X79259857Y-115088143D02*
X79307476Y-115135762D01*
X79450333Y-115183381D01*
X79545571Y-115183381D01*
X79688429Y-115135762D01*
X79783667Y-115040524D01*
X79831286Y-114945286D01*
X79878905Y-114754810D01*
X79878905Y-114611952D01*
X79831286Y-114421476D01*
X79783667Y-114326238D01*
X79688429Y-114231000D01*
X79545571Y-114183381D01*
X79450333Y-114183381D01*
X79307476Y-114231000D01*
X79259857Y-114278619D01*
X78926524Y-114183381D02*
X78307476Y-114183381D01*
X78640810Y-114564333D01*
X78497952Y-114564333D01*
X78402714Y-114611952D01*
X78355095Y-114659571D01*
X78307476Y-114754810D01*
X78307476Y-114992905D01*
X78355095Y-115088143D01*
X78402714Y-115135762D01*
X78497952Y-115183381D01*
X78783667Y-115183381D01*
X78878905Y-115135762D01*
X78926524Y-115088143D01*
X77688429Y-114183381D02*
X77593190Y-114183381D01*
X77497952Y-114231000D01*
X77450333Y-114278619D01*
X77402714Y-114373857D01*
X77355095Y-114564333D01*
X77355095Y-114802429D01*
X77402714Y-114992905D01*
X77450333Y-115088143D01*
X77497952Y-115135762D01*
X77593190Y-115183381D01*
X77688429Y-115183381D01*
X77783667Y-115135762D01*
X77831286Y-115088143D01*
X77878905Y-114992905D01*
X77926524Y-114802429D01*
X77926524Y-114564333D01*
X77878905Y-114373857D01*
X77831286Y-114278619D01*
X77783667Y-114231000D01*
X77688429Y-114183381D01*
X67284857Y-111438143D02*
X67332476Y-111485762D01*
X67475333Y-111533381D01*
X67570571Y-111533381D01*
X67713429Y-111485762D01*
X67808667Y-111390524D01*
X67856286Y-111295286D01*
X67903905Y-111104810D01*
X67903905Y-110961952D01*
X67856286Y-110771476D01*
X67808667Y-110676238D01*
X67713429Y-110581000D01*
X67570571Y-110533381D01*
X67475333Y-110533381D01*
X67332476Y-110581000D01*
X67284857Y-110628619D01*
X66951524Y-110533381D02*
X66332476Y-110533381D01*
X66665810Y-110914333D01*
X66522952Y-110914333D01*
X66427714Y-110961952D01*
X66380095Y-111009571D01*
X66332476Y-111104810D01*
X66332476Y-111342905D01*
X66380095Y-111438143D01*
X66427714Y-111485762D01*
X66522952Y-111533381D01*
X66808667Y-111533381D01*
X66903905Y-111485762D01*
X66951524Y-111438143D01*
X65380095Y-111533381D02*
X65951524Y-111533381D01*
X65665810Y-111533381D02*
X65665810Y-110533381D01*
X65761048Y-110676238D01*
X65856286Y-110771476D01*
X65951524Y-110819095D01*
X79009857Y-125613143D02*
X79057476Y-125660762D01*
X79200333Y-125708381D01*
X79295571Y-125708381D01*
X79438429Y-125660762D01*
X79533667Y-125565524D01*
X79581286Y-125470286D01*
X79628905Y-125279810D01*
X79628905Y-125136952D01*
X79581286Y-124946476D01*
X79533667Y-124851238D01*
X79438429Y-124756000D01*
X79295571Y-124708381D01*
X79200333Y-124708381D01*
X79057476Y-124756000D01*
X79009857Y-124803619D01*
X78676524Y-124708381D02*
X78057476Y-124708381D01*
X78390810Y-125089333D01*
X78247952Y-125089333D01*
X78152714Y-125136952D01*
X78105095Y-125184571D01*
X78057476Y-125279810D01*
X78057476Y-125517905D01*
X78105095Y-125613143D01*
X78152714Y-125660762D01*
X78247952Y-125708381D01*
X78533667Y-125708381D01*
X78628905Y-125660762D01*
X78676524Y-125613143D01*
X77676524Y-124803619D02*
X77628905Y-124756000D01*
X77533667Y-124708381D01*
X77295571Y-124708381D01*
X77200333Y-124756000D01*
X77152714Y-124803619D01*
X77105095Y-124898857D01*
X77105095Y-124994095D01*
X77152714Y-125136952D01*
X77724143Y-125708381D01*
X77105095Y-125708381D01*
X187532381Y-57644905D02*
X186532381Y-57644905D01*
X186532381Y-57883000D01*
X186580000Y-58025858D01*
X186675238Y-58121096D01*
X186770476Y-58168715D01*
X186960952Y-58216334D01*
X187103810Y-58216334D01*
X187294286Y-58168715D01*
X187389524Y-58121096D01*
X187484762Y-58025858D01*
X187532381Y-57883000D01*
X187532381Y-57644905D01*
X186627619Y-58597286D02*
X186580000Y-58644905D01*
X186532381Y-58740143D01*
X186532381Y-58978239D01*
X186580000Y-59073477D01*
X186627619Y-59121096D01*
X186722857Y-59168715D01*
X186818095Y-59168715D01*
X186960952Y-59121096D01*
X187532381Y-58549667D01*
X187532381Y-59168715D01*
X193457381Y-50794905D02*
X192457381Y-50794905D01*
X192457381Y-51033000D01*
X192505000Y-51175858D01*
X192600238Y-51271096D01*
X192695476Y-51318715D01*
X192885952Y-51366334D01*
X193028810Y-51366334D01*
X193219286Y-51318715D01*
X193314524Y-51271096D01*
X193409762Y-51175858D01*
X193457381Y-51033000D01*
X193457381Y-50794905D01*
X192457381Y-51699667D02*
X192457381Y-52318715D01*
X192838333Y-51985381D01*
X192838333Y-52128239D01*
X192885952Y-52223477D01*
X192933571Y-52271096D01*
X193028810Y-52318715D01*
X193266905Y-52318715D01*
X193362143Y-52271096D01*
X193409762Y-52223477D01*
X193457381Y-52128239D01*
X193457381Y-51842524D01*
X193409762Y-51747286D01*
X193362143Y-51699667D01*
X193037381Y-57821905D02*
X192037381Y-57821905D01*
X192037381Y-58060000D01*
X192085000Y-58202858D01*
X192180238Y-58298096D01*
X192275476Y-58345715D01*
X192465952Y-58393334D01*
X192608810Y-58393334D01*
X192799286Y-58345715D01*
X192894524Y-58298096D01*
X192989762Y-58202858D01*
X193037381Y-58060000D01*
X193037381Y-57821905D01*
X192370714Y-59250477D02*
X193037381Y-59250477D01*
X191989762Y-59012381D02*
X192704048Y-58774286D01*
X192704048Y-59393334D01*
X133536666Y-48192381D02*
X134012857Y-48192381D01*
X134012857Y-47192381D01*
X132679523Y-48192381D02*
X133250952Y-48192381D01*
X132965238Y-48192381D02*
X132965238Y-47192381D01*
X133060476Y-47335238D01*
X133155714Y-47430476D01*
X133250952Y-47478095D01*
X153531666Y-46587381D02*
X154007857Y-46587381D01*
X154007857Y-45587381D01*
X153245952Y-45682619D02*
X153198333Y-45635000D01*
X153103095Y-45587381D01*
X152864999Y-45587381D01*
X152769761Y-45635000D01*
X152722142Y-45682619D01*
X152674523Y-45777857D01*
X152674523Y-45873095D01*
X152722142Y-46015952D01*
X153293571Y-46587381D01*
X152674523Y-46587381D01*
X141142381Y-43443334D02*
X140666190Y-43110000D01*
X141142381Y-42871905D02*
X140142381Y-42871905D01*
X140142381Y-43252858D01*
X140190000Y-43348096D01*
X140237619Y-43395715D01*
X140332857Y-43443334D01*
X140475714Y-43443334D01*
X140570952Y-43395715D01*
X140618571Y-43348096D01*
X140666190Y-43252858D01*
X140666190Y-42871905D01*
X141142381Y-44395715D02*
X141142381Y-43824286D01*
X141142381Y-44110000D02*
X140142381Y-44110000D01*
X140285238Y-44014762D01*
X140380476Y-43919524D01*
X140428095Y-43824286D01*
X146292381Y-43508334D02*
X145816190Y-43175000D01*
X146292381Y-42936905D02*
X145292381Y-42936905D01*
X145292381Y-43317858D01*
X145340000Y-43413096D01*
X145387619Y-43460715D01*
X145482857Y-43508334D01*
X145625714Y-43508334D01*
X145720952Y-43460715D01*
X145768571Y-43413096D01*
X145816190Y-43317858D01*
X145816190Y-42936905D01*
X145387619Y-43889286D02*
X145340000Y-43936905D01*
X145292381Y-44032143D01*
X145292381Y-44270239D01*
X145340000Y-44365477D01*
X145387619Y-44413096D01*
X145482857Y-44460715D01*
X145578095Y-44460715D01*
X145720952Y-44413096D01*
X146292381Y-43841667D01*
X146292381Y-44460715D01*
X164417381Y-43268334D02*
X163941190Y-42935000D01*
X164417381Y-42696905D02*
X163417381Y-42696905D01*
X163417381Y-43077858D01*
X163465000Y-43173096D01*
X163512619Y-43220715D01*
X163607857Y-43268334D01*
X163750714Y-43268334D01*
X163845952Y-43220715D01*
X163893571Y-43173096D01*
X163941190Y-43077858D01*
X163941190Y-42696905D01*
X163417381Y-43601667D02*
X163417381Y-44220715D01*
X163798333Y-43887381D01*
X163798333Y-44030239D01*
X163845952Y-44125477D01*
X163893571Y-44173096D01*
X163988810Y-44220715D01*
X164226905Y-44220715D01*
X164322143Y-44173096D01*
X164369762Y-44125477D01*
X164417381Y-44030239D01*
X164417381Y-43744524D01*
X164369762Y-43649286D01*
X164322143Y-43601667D01*
X169767381Y-43318334D02*
X169291190Y-42985000D01*
X169767381Y-42746905D02*
X168767381Y-42746905D01*
X168767381Y-43127858D01*
X168815000Y-43223096D01*
X168862619Y-43270715D01*
X168957857Y-43318334D01*
X169100714Y-43318334D01*
X169195952Y-43270715D01*
X169243571Y-43223096D01*
X169291190Y-43127858D01*
X169291190Y-42746905D01*
X169100714Y-44175477D02*
X169767381Y-44175477D01*
X168719762Y-43937381D02*
X169434048Y-43699286D01*
X169434048Y-44318334D01*
X120308666Y-70122381D02*
X120642000Y-69646190D01*
X120880095Y-70122381D02*
X120880095Y-69122381D01*
X120499142Y-69122381D01*
X120403904Y-69170000D01*
X120356285Y-69217619D01*
X120308666Y-69312857D01*
X120308666Y-69455714D01*
X120356285Y-69550952D01*
X120403904Y-69598571D01*
X120499142Y-69646190D01*
X120880095Y-69646190D01*
X119403904Y-69122381D02*
X119880095Y-69122381D01*
X119927714Y-69598571D01*
X119880095Y-69550952D01*
X119784857Y-69503333D01*
X119546761Y-69503333D01*
X119451523Y-69550952D01*
X119403904Y-69598571D01*
X119356285Y-69693810D01*
X119356285Y-69931905D01*
X119403904Y-70027143D01*
X119451523Y-70074762D01*
X119546761Y-70122381D01*
X119784857Y-70122381D01*
X119880095Y-70074762D01*
X119927714Y-70027143D01*
X112212381Y-67397334D02*
X111736190Y-67064000D01*
X112212381Y-66825905D02*
X111212381Y-66825905D01*
X111212381Y-67206858D01*
X111260000Y-67302096D01*
X111307619Y-67349715D01*
X111402857Y-67397334D01*
X111545714Y-67397334D01*
X111640952Y-67349715D01*
X111688571Y-67302096D01*
X111736190Y-67206858D01*
X111736190Y-66825905D01*
X111212381Y-68254477D02*
X111212381Y-68064000D01*
X111260000Y-67968762D01*
X111307619Y-67921143D01*
X111450476Y-67825905D01*
X111640952Y-67778286D01*
X112021905Y-67778286D01*
X112117143Y-67825905D01*
X112164762Y-67873524D01*
X112212381Y-67968762D01*
X112212381Y-68159239D01*
X112164762Y-68254477D01*
X112117143Y-68302096D01*
X112021905Y-68349715D01*
X111783810Y-68349715D01*
X111688571Y-68302096D01*
X111640952Y-68254477D01*
X111593333Y-68159239D01*
X111593333Y-67968762D01*
X111640952Y-67873524D01*
X111688571Y-67825905D01*
X111783810Y-67778286D01*
X151848857Y-122132381D02*
X152182191Y-121656190D01*
X152420286Y-122132381D02*
X152420286Y-121132381D01*
X152039333Y-121132381D01*
X151944095Y-121180000D01*
X151896476Y-121227619D01*
X151848857Y-121322857D01*
X151848857Y-121465714D01*
X151896476Y-121560952D01*
X151944095Y-121608571D01*
X152039333Y-121656190D01*
X152420286Y-121656190D01*
X150896476Y-122132381D02*
X151467905Y-122132381D01*
X151182191Y-122132381D02*
X151182191Y-121132381D01*
X151277429Y-121275238D01*
X151372667Y-121370476D01*
X151467905Y-121418095D01*
X150277429Y-121132381D02*
X150182190Y-121132381D01*
X150086952Y-121180000D01*
X150039333Y-121227619D01*
X149991714Y-121322857D01*
X149944095Y-121513333D01*
X149944095Y-121751429D01*
X149991714Y-121941905D01*
X150039333Y-122037143D01*
X150086952Y-122084762D01*
X150182190Y-122132381D01*
X150277429Y-122132381D01*
X150372667Y-122084762D01*
X150420286Y-122037143D01*
X150467905Y-121941905D01*
X150515524Y-121751429D01*
X150515524Y-121513333D01*
X150467905Y-121322857D01*
X150420286Y-121227619D01*
X150372667Y-121180000D01*
X150277429Y-121132381D01*
X152788857Y-94152381D02*
X153122191Y-93676190D01*
X153360286Y-94152381D02*
X153360286Y-93152381D01*
X152979333Y-93152381D01*
X152884095Y-93200000D01*
X152836476Y-93247619D01*
X152788857Y-93342857D01*
X152788857Y-93485714D01*
X152836476Y-93580952D01*
X152884095Y-93628571D01*
X152979333Y-93676190D01*
X153360286Y-93676190D01*
X151836476Y-94152381D02*
X152407905Y-94152381D01*
X152122191Y-94152381D02*
X152122191Y-93152381D01*
X152217429Y-93295238D01*
X152312667Y-93390476D01*
X152407905Y-93438095D01*
X150884095Y-94152381D02*
X151455524Y-94152381D01*
X151169810Y-94152381D02*
X151169810Y-93152381D01*
X151265048Y-93295238D01*
X151360286Y-93390476D01*
X151455524Y-93438095D01*
X148382857Y-90912381D02*
X148716191Y-90436190D01*
X148954286Y-90912381D02*
X148954286Y-89912381D01*
X148573333Y-89912381D01*
X148478095Y-89960000D01*
X148430476Y-90007619D01*
X148382857Y-90102857D01*
X148382857Y-90245714D01*
X148430476Y-90340952D01*
X148478095Y-90388571D01*
X148573333Y-90436190D01*
X148954286Y-90436190D01*
X147430476Y-90912381D02*
X148001905Y-90912381D01*
X147716191Y-90912381D02*
X147716191Y-89912381D01*
X147811429Y-90055238D01*
X147906667Y-90150476D01*
X148001905Y-90198095D01*
X147049524Y-90007619D02*
X147001905Y-89960000D01*
X146906667Y-89912381D01*
X146668571Y-89912381D01*
X146573333Y-89960000D01*
X146525714Y-90007619D01*
X146478095Y-90102857D01*
X146478095Y-90198095D01*
X146525714Y-90340952D01*
X147097143Y-90912381D01*
X146478095Y-90912381D01*
X152472857Y-63332381D02*
X152806191Y-62856190D01*
X153044286Y-63332381D02*
X153044286Y-62332381D01*
X152663333Y-62332381D01*
X152568095Y-62380000D01*
X152520476Y-62427619D01*
X152472857Y-62522857D01*
X152472857Y-62665714D01*
X152520476Y-62760952D01*
X152568095Y-62808571D01*
X152663333Y-62856190D01*
X153044286Y-62856190D01*
X151520476Y-63332381D02*
X152091905Y-63332381D01*
X151806191Y-63332381D02*
X151806191Y-62332381D01*
X151901429Y-62475238D01*
X151996667Y-62570476D01*
X152091905Y-62618095D01*
X151187143Y-62332381D02*
X150568095Y-62332381D01*
X150901429Y-62713333D01*
X150758571Y-62713333D01*
X150663333Y-62760952D01*
X150615714Y-62808571D01*
X150568095Y-62903810D01*
X150568095Y-63141905D01*
X150615714Y-63237143D01*
X150663333Y-63284762D01*
X150758571Y-63332381D01*
X151044286Y-63332381D01*
X151139524Y-63284762D01*
X151187143Y-63237143D01*
X142001905Y-51172381D02*
X142001905Y-51981905D01*
X141954286Y-52077143D01*
X141906667Y-52124762D01*
X141811429Y-52172381D01*
X141620952Y-52172381D01*
X141525714Y-52124762D01*
X141478095Y-52077143D01*
X141430476Y-51981905D01*
X141430476Y-51172381D01*
X140430476Y-52172381D02*
X141001905Y-52172381D01*
X140716191Y-52172381D02*
X140716191Y-51172381D01*
X140811429Y-51315238D01*
X140906667Y-51410476D01*
X141001905Y-51458095D01*
X161626905Y-51787381D02*
X161626905Y-52596905D01*
X161579286Y-52692143D01*
X161531667Y-52739762D01*
X161436429Y-52787381D01*
X161245952Y-52787381D01*
X161150714Y-52739762D01*
X161103095Y-52692143D01*
X161055476Y-52596905D01*
X161055476Y-51787381D01*
X160626905Y-51882619D02*
X160579286Y-51835000D01*
X160484048Y-51787381D01*
X160245952Y-51787381D01*
X160150714Y-51835000D01*
X160103095Y-51882619D01*
X160055476Y-51977857D01*
X160055476Y-52073095D01*
X160103095Y-52215952D01*
X160674524Y-52787381D01*
X160055476Y-52787381D01*
X107971905Y-87732381D02*
X107971905Y-88541905D01*
X107924286Y-88637143D01*
X107876667Y-88684762D01*
X107781429Y-88732381D01*
X107590952Y-88732381D01*
X107495714Y-88684762D01*
X107448095Y-88637143D01*
X107400476Y-88541905D01*
X107400476Y-87732381D01*
X107019524Y-87732381D02*
X106400476Y-87732381D01*
X106733810Y-88113333D01*
X106590952Y-88113333D01*
X106495714Y-88160952D01*
X106448095Y-88208571D01*
X106400476Y-88303810D01*
X106400476Y-88541905D01*
X106448095Y-88637143D01*
X106495714Y-88684762D01*
X106590952Y-88732381D01*
X106876667Y-88732381D01*
X106971905Y-88684762D01*
X107019524Y-88637143D01*
X103722381Y-53978095D02*
X104531905Y-53978095D01*
X104627143Y-54025714D01*
X104674762Y-54073333D01*
X104722381Y-54168571D01*
X104722381Y-54359048D01*
X104674762Y-54454286D01*
X104627143Y-54501905D01*
X104531905Y-54549524D01*
X103722381Y-54549524D01*
X104055714Y-55454286D02*
X104722381Y-55454286D01*
X103674762Y-55216190D02*
X104389048Y-54978095D01*
X104389048Y-55597143D01*
X117562381Y-53848095D02*
X118371905Y-53848095D01*
X118467143Y-53895714D01*
X118514762Y-53943333D01*
X118562381Y-54038571D01*
X118562381Y-54229048D01*
X118514762Y-54324286D01*
X118467143Y-54371905D01*
X118371905Y-54419524D01*
X117562381Y-54419524D01*
X117562381Y-55371905D02*
X117562381Y-54895714D01*
X118038571Y-54848095D01*
X117990952Y-54895714D01*
X117943333Y-54990952D01*
X117943333Y-55229048D01*
X117990952Y-55324286D01*
X118038571Y-55371905D01*
X118133810Y-55419524D01*
X118371905Y-55419524D01*
X118467143Y-55371905D01*
X118514762Y-55324286D01*
X118562381Y-55229048D01*
X118562381Y-54990952D01*
X118514762Y-54895714D01*
X118467143Y-54848095D01*
X105541905Y-102392381D02*
X105541905Y-103201905D01*
X105494286Y-103297143D01*
X105446667Y-103344762D01*
X105351429Y-103392381D01*
X105160952Y-103392381D01*
X105065714Y-103344762D01*
X105018095Y-103297143D01*
X104970476Y-103201905D01*
X104970476Y-102392381D01*
X104065714Y-102392381D02*
X104256191Y-102392381D01*
X104351429Y-102440000D01*
X104399048Y-102487619D01*
X104494286Y-102630476D01*
X104541905Y-102820952D01*
X104541905Y-103201905D01*
X104494286Y-103297143D01*
X104446667Y-103344762D01*
X104351429Y-103392381D01*
X104160952Y-103392381D01*
X104065714Y-103344762D01*
X104018095Y-103297143D01*
X103970476Y-103201905D01*
X103970476Y-102963810D01*
X104018095Y-102868571D01*
X104065714Y-102820952D01*
X104160952Y-102773333D01*
X104351429Y-102773333D01*
X104446667Y-102820952D01*
X104494286Y-102868571D01*
X104541905Y-102963810D01*
X119972381Y-108588095D02*
X120781905Y-108588095D01*
X120877143Y-108635714D01*
X120924762Y-108683333D01*
X120972381Y-108778571D01*
X120972381Y-108969048D01*
X120924762Y-109064286D01*
X120877143Y-109111905D01*
X120781905Y-109159524D01*
X119972381Y-109159524D01*
X119972381Y-109540476D02*
X119972381Y-110207143D01*
X120972381Y-109778571D01*
X134582381Y-100888095D02*
X135391905Y-100888095D01*
X135487143Y-100935714D01*
X135534762Y-100983333D01*
X135582381Y-101078571D01*
X135582381Y-101269048D01*
X135534762Y-101364286D01*
X135487143Y-101411905D01*
X135391905Y-101459524D01*
X134582381Y-101459524D01*
X135010952Y-102078571D02*
X134963333Y-101983333D01*
X134915714Y-101935714D01*
X134820476Y-101888095D01*
X134772857Y-101888095D01*
X134677619Y-101935714D01*
X134630000Y-101983333D01*
X134582381Y-102078571D01*
X134582381Y-102269048D01*
X134630000Y-102364286D01*
X134677619Y-102411905D01*
X134772857Y-102459524D01*
X134820476Y-102459524D01*
X134915714Y-102411905D01*
X134963333Y-102364286D01*
X135010952Y-102269048D01*
X135010952Y-102078571D01*
X135058571Y-101983333D01*
X135106190Y-101935714D01*
X135201429Y-101888095D01*
X135391905Y-101888095D01*
X135487143Y-101935714D01*
X135534762Y-101983333D01*
X135582381Y-102078571D01*
X135582381Y-102269048D01*
X135534762Y-102364286D01*
X135487143Y-102411905D01*
X135391905Y-102459524D01*
X135201429Y-102459524D01*
X135106190Y-102411905D01*
X135058571Y-102364286D01*
X135010952Y-102269048D01*
X140932381Y-126708809D02*
X140932381Y-126899286D01*
X140980000Y-126994524D01*
X141075238Y-127089762D01*
X141265714Y-127137381D01*
X141599048Y-127137381D01*
X141789524Y-127089762D01*
X141884762Y-126994524D01*
X141932381Y-126899286D01*
X141932381Y-126708809D01*
X141884762Y-126613571D01*
X141789524Y-126518333D01*
X141599048Y-126470714D01*
X141265714Y-126470714D01*
X141075238Y-126518333D01*
X140980000Y-126613571D01*
X140932381Y-126708809D01*
X141932381Y-127565952D02*
X140932381Y-127565952D01*
X141932381Y-128137381D02*
X141360952Y-127708809D01*
X140932381Y-128137381D02*
X141503810Y-127565952D01*
X140932381Y-128423095D02*
X140932381Y-128994524D01*
X141932381Y-128708809D02*
X140932381Y-128708809D01*
X146139381Y-126375476D02*
X147139381Y-126613571D01*
X146425095Y-126804048D01*
X147139381Y-126994524D01*
X146139381Y-127232619D01*
X147139381Y-128089762D02*
X147139381Y-127613571D01*
X146139381Y-127613571D01*
X147091762Y-128375476D02*
X147139381Y-128518333D01*
X147139381Y-128756429D01*
X147091762Y-128851667D01*
X147044143Y-128899286D01*
X146948905Y-128946905D01*
X146853667Y-128946905D01*
X146758429Y-128899286D01*
X146710810Y-128851667D01*
X146663190Y-128756429D01*
X146615571Y-128565952D01*
X146567952Y-128470714D01*
X146520333Y-128423095D01*
X146425095Y-128375476D01*
X146329857Y-128375476D01*
X146234619Y-128423095D01*
X146187000Y-128470714D01*
X146139381Y-128565952D01*
X146139381Y-128804048D01*
X146187000Y-128946905D01*
X149457143Y-126994524D02*
X149504762Y-126946905D01*
X149552381Y-126804048D01*
X149552381Y-126708810D01*
X149504762Y-126565952D01*
X149409524Y-126470714D01*
X149314286Y-126423095D01*
X149123810Y-126375476D01*
X148980952Y-126375476D01*
X148790476Y-126423095D01*
X148695238Y-126470714D01*
X148600000Y-126565952D01*
X148552381Y-126708810D01*
X148552381Y-126804048D01*
X148600000Y-126946905D01*
X148647619Y-126994524D01*
X149552381Y-127994524D02*
X149076190Y-127661190D01*
X149552381Y-127423095D02*
X148552381Y-127423095D01*
X148552381Y-127804048D01*
X148600000Y-127899286D01*
X148647619Y-127946905D01*
X148742857Y-127994524D01*
X148885714Y-127994524D01*
X148980952Y-127946905D01*
X149028571Y-127899286D01*
X149076190Y-127804048D01*
X149076190Y-127423095D01*
X149552381Y-128423095D02*
X148552381Y-128423095D01*
X148552381Y-128661190D01*
X148600000Y-128804048D01*
X148695238Y-128899286D01*
X148790476Y-128946905D01*
X148980952Y-128994524D01*
X149123810Y-128994524D01*
X149314286Y-128946905D01*
X149409524Y-128899286D01*
X149504762Y-128804048D01*
X149552381Y-128661190D01*
X149552381Y-128423095D01*
X151013000Y-126923096D02*
X150965381Y-126827858D01*
X150965381Y-126685001D01*
X151013000Y-126542143D01*
X151108238Y-126446905D01*
X151203476Y-126399286D01*
X151393952Y-126351667D01*
X151536810Y-126351667D01*
X151727286Y-126399286D01*
X151822524Y-126446905D01*
X151917762Y-126542143D01*
X151965381Y-126685001D01*
X151965381Y-126780239D01*
X151917762Y-126923096D01*
X151870143Y-126970715D01*
X151536810Y-126970715D01*
X151536810Y-126780239D01*
X151965381Y-127399286D02*
X150965381Y-127399286D01*
X151965381Y-127970715D01*
X150965381Y-127970715D01*
X151965381Y-128446905D02*
X150965381Y-128446905D01*
X150965381Y-128685000D01*
X151013000Y-128827858D01*
X151108238Y-128923096D01*
X151203476Y-128970715D01*
X151393952Y-129018334D01*
X151536810Y-129018334D01*
X151727286Y-128970715D01*
X151822524Y-128923096D01*
X151917762Y-128827858D01*
X151965381Y-128685000D01*
X151965381Y-128446905D01*
X153632381Y-126343714D02*
X154632381Y-126677047D01*
X153632381Y-127010381D01*
X154584762Y-127296095D02*
X154632381Y-127438952D01*
X154632381Y-127677048D01*
X154584762Y-127772286D01*
X154537143Y-127819905D01*
X154441905Y-127867524D01*
X154346667Y-127867524D01*
X154251429Y-127819905D01*
X154203810Y-127772286D01*
X154156190Y-127677048D01*
X154108571Y-127486571D01*
X154060952Y-127391333D01*
X154013333Y-127343714D01*
X153918095Y-127296095D01*
X153822857Y-127296095D01*
X153727619Y-127343714D01*
X153680000Y-127391333D01*
X153632381Y-127486571D01*
X153632381Y-127724667D01*
X153680000Y-127867524D01*
X154632381Y-128772286D02*
X154632381Y-128296095D01*
X153632381Y-128296095D01*
X158839381Y-126375476D02*
X159839381Y-126708809D01*
X158839381Y-127042143D01*
X159791762Y-127327857D02*
X159839381Y-127470714D01*
X159839381Y-127708810D01*
X159791762Y-127804048D01*
X159744143Y-127851667D01*
X159648905Y-127899286D01*
X159553667Y-127899286D01*
X159458429Y-127851667D01*
X159410810Y-127804048D01*
X159363190Y-127708810D01*
X159315571Y-127518333D01*
X159267952Y-127423095D01*
X159220333Y-127375476D01*
X159125095Y-127327857D01*
X159029857Y-127327857D01*
X158934619Y-127375476D01*
X158887000Y-127423095D01*
X158839381Y-127518333D01*
X158839381Y-127756429D01*
X158887000Y-127899286D01*
X159839381Y-128327857D02*
X158839381Y-128327857D01*
X158839381Y-128708810D01*
X158887000Y-128804048D01*
X158934619Y-128851667D01*
X159029857Y-128899286D01*
X159172714Y-128899286D01*
X159267952Y-128851667D01*
X159315571Y-128804048D01*
X159363190Y-128708810D01*
X159363190Y-128327857D01*
X161300000Y-126931096D02*
X161252381Y-126835858D01*
X161252381Y-126693001D01*
X161300000Y-126550143D01*
X161395238Y-126454905D01*
X161490476Y-126407286D01*
X161680952Y-126359667D01*
X161823810Y-126359667D01*
X162014286Y-126407286D01*
X162109524Y-126454905D01*
X162204762Y-126550143D01*
X162252381Y-126693001D01*
X162252381Y-126788239D01*
X162204762Y-126931096D01*
X162157143Y-126978715D01*
X161823810Y-126978715D01*
X161823810Y-126788239D01*
X162252381Y-127407286D02*
X161252381Y-127407286D01*
X162252381Y-127978715D01*
X161252381Y-127978715D01*
X162252381Y-128454905D02*
X161252381Y-128454905D01*
X161252381Y-128693000D01*
X161300000Y-128835858D01*
X161395238Y-128931096D01*
X161490476Y-128978715D01*
X161680952Y-129026334D01*
X161823810Y-129026334D01*
X162014286Y-128978715D01*
X162109524Y-128931096D01*
X162204762Y-128835858D01*
X162252381Y-128693000D01*
X162252381Y-128454905D01*
X162252381Y-129454905D02*
X161252381Y-129454905D01*
X161252381Y-129835858D01*
X161300000Y-129931096D01*
X161347619Y-129978715D01*
X161442857Y-130026334D01*
X161585714Y-130026334D01*
X161680952Y-129978715D01*
X161728571Y-129931096D01*
X161776190Y-129835858D01*
X161776190Y-129454905D01*
X174127000Y-95173096D02*
X174079381Y-95077858D01*
X174079381Y-94935001D01*
X174127000Y-94792143D01*
X174222238Y-94696905D01*
X174317476Y-94649286D01*
X174507952Y-94601667D01*
X174650810Y-94601667D01*
X174841286Y-94649286D01*
X174936524Y-94696905D01*
X175031762Y-94792143D01*
X175079381Y-94935001D01*
X175079381Y-95030239D01*
X175031762Y-95173096D01*
X174984143Y-95220715D01*
X174650810Y-95220715D01*
X174650810Y-95030239D01*
X175079381Y-95649286D02*
X174079381Y-95649286D01*
X175079381Y-96220715D01*
X174079381Y-96220715D01*
X175079381Y-96696905D02*
X174079381Y-96696905D01*
X174079381Y-96935000D01*
X174127000Y-97077858D01*
X174222238Y-97173096D01*
X174317476Y-97220715D01*
X174507952Y-97268334D01*
X174650810Y-97268334D01*
X174841286Y-97220715D01*
X174936524Y-97173096D01*
X175031762Y-97077858D01*
X175079381Y-96935000D01*
X175079381Y-96696905D01*
X148679381Y-94800095D02*
X148679381Y-95371524D01*
X149679381Y-95085809D02*
X148679381Y-95085809D01*
X148679381Y-95609619D02*
X149679381Y-96276286D01*
X148679381Y-96276286D02*
X149679381Y-95609619D01*
X149679381Y-96657238D02*
X148679381Y-96657238D01*
X148679381Y-96895333D01*
X148727000Y-97038191D01*
X148822238Y-97133429D01*
X148917476Y-97181048D01*
X149107952Y-97228667D01*
X149250810Y-97228667D01*
X149441286Y-97181048D01*
X149536524Y-97133429D01*
X149631762Y-97038191D01*
X149679381Y-96895333D01*
X149679381Y-96657238D01*
X147012381Y-95268334D02*
X146536190Y-94935000D01*
X147012381Y-94696905D02*
X146012381Y-94696905D01*
X146012381Y-95077858D01*
X146060000Y-95173096D01*
X146107619Y-95220715D01*
X146202857Y-95268334D01*
X146345714Y-95268334D01*
X146440952Y-95220715D01*
X146488571Y-95173096D01*
X146536190Y-95077858D01*
X146536190Y-94696905D01*
X146012381Y-95601667D02*
X147012381Y-96268334D01*
X146012381Y-96268334D02*
X147012381Y-95601667D01*
X147012381Y-96649286D02*
X146012381Y-96649286D01*
X146012381Y-96887381D01*
X146060000Y-97030239D01*
X146155238Y-97125477D01*
X146250476Y-97173096D01*
X146440952Y-97220715D01*
X146583810Y-97220715D01*
X146774286Y-97173096D01*
X146869524Y-97125477D01*
X146964762Y-97030239D01*
X147012381Y-96887381D01*
X147012381Y-96649286D01*
X144472381Y-92847572D02*
X143996190Y-92514238D01*
X144472381Y-92276143D02*
X143472381Y-92276143D01*
X143472381Y-92657096D01*
X143520000Y-92752334D01*
X143567619Y-92799953D01*
X143662857Y-92847572D01*
X143805714Y-92847572D01*
X143900952Y-92799953D01*
X143948571Y-92752334D01*
X143996190Y-92657096D01*
X143996190Y-92276143D01*
X143948571Y-93276143D02*
X143948571Y-93609477D01*
X144472381Y-93752334D02*
X144472381Y-93276143D01*
X143472381Y-93276143D01*
X143472381Y-93752334D01*
X144424762Y-94133286D02*
X144472381Y-94276143D01*
X144472381Y-94514239D01*
X144424762Y-94609477D01*
X144377143Y-94657096D01*
X144281905Y-94704715D01*
X144186667Y-94704715D01*
X144091429Y-94657096D01*
X144043810Y-94609477D01*
X143996190Y-94514239D01*
X143948571Y-94323762D01*
X143900952Y-94228524D01*
X143853333Y-94180905D01*
X143758095Y-94133286D01*
X143662857Y-94133286D01*
X143567619Y-94180905D01*
X143520000Y-94228524D01*
X143472381Y-94323762D01*
X143472381Y-94561858D01*
X143520000Y-94704715D01*
X143948571Y-95133286D02*
X143948571Y-95466620D01*
X144472381Y-95609477D02*
X144472381Y-95133286D01*
X143472381Y-95133286D01*
X143472381Y-95609477D01*
X143472381Y-95895191D02*
X143472381Y-96466620D01*
X144472381Y-96180905D02*
X143472381Y-96180905D01*
X144091429Y-96799953D02*
X144091429Y-97561858D01*
X142059381Y-93387286D02*
X141583190Y-93053952D01*
X142059381Y-92815857D02*
X141059381Y-92815857D01*
X141059381Y-93196810D01*
X141107000Y-93292048D01*
X141154619Y-93339667D01*
X141249857Y-93387286D01*
X141392714Y-93387286D01*
X141487952Y-93339667D01*
X141535571Y-93292048D01*
X141583190Y-93196810D01*
X141583190Y-92815857D01*
X142059381Y-93815857D02*
X141059381Y-93815857D01*
X141059381Y-94053952D01*
X141107000Y-94196810D01*
X141202238Y-94292048D01*
X141297476Y-94339667D01*
X141487952Y-94387286D01*
X141630810Y-94387286D01*
X141821286Y-94339667D01*
X141916524Y-94292048D01*
X142011762Y-94196810D01*
X142059381Y-94053952D01*
X142059381Y-93815857D01*
X141535571Y-94815857D02*
X141535571Y-95149191D01*
X142059381Y-95292048D02*
X142059381Y-94815857D01*
X141059381Y-94815857D01*
X141059381Y-95292048D01*
X142059381Y-95720619D02*
X141059381Y-95720619D01*
X142059381Y-96292048D01*
X141059381Y-96292048D01*
X141678429Y-96768238D02*
X141678429Y-97530143D01*
X139344762Y-93307905D02*
X139392381Y-93450762D01*
X139392381Y-93688858D01*
X139344762Y-93784096D01*
X139297143Y-93831715D01*
X139201905Y-93879334D01*
X139106667Y-93879334D01*
X139011429Y-93831715D01*
X138963810Y-93784096D01*
X138916190Y-93688858D01*
X138868571Y-93498381D01*
X138820952Y-93403143D01*
X138773333Y-93355524D01*
X138678095Y-93307905D01*
X138582857Y-93307905D01*
X138487619Y-93355524D01*
X138440000Y-93403143D01*
X138392381Y-93498381D01*
X138392381Y-93736477D01*
X138440000Y-93879334D01*
X138916190Y-94498381D02*
X139392381Y-94498381D01*
X138392381Y-94165048D02*
X138916190Y-94498381D01*
X138392381Y-94831715D01*
X139392381Y-95165048D02*
X138392381Y-95165048D01*
X139392381Y-95736477D01*
X138392381Y-95736477D01*
X139297143Y-96784096D02*
X139344762Y-96736477D01*
X139392381Y-96593620D01*
X139392381Y-96498382D01*
X139344762Y-96355524D01*
X139249524Y-96260286D01*
X139154286Y-96212667D01*
X138963810Y-96165048D01*
X138820952Y-96165048D01*
X138630476Y-96212667D01*
X138535238Y-96260286D01*
X138440000Y-96355524D01*
X138392381Y-96498382D01*
X138392381Y-96593620D01*
X138440000Y-96736477D01*
X138487619Y-96784096D01*
X134652381Y-67388095D02*
X135461905Y-67388095D01*
X135557143Y-67435714D01*
X135604762Y-67483333D01*
X135652381Y-67578571D01*
X135652381Y-67769048D01*
X135604762Y-67864286D01*
X135557143Y-67911905D01*
X135461905Y-67959524D01*
X134652381Y-67959524D01*
X135652381Y-68483333D02*
X135652381Y-68673809D01*
X135604762Y-68769048D01*
X135557143Y-68816667D01*
X135414286Y-68911905D01*
X135223810Y-68959524D01*
X134842857Y-68959524D01*
X134747619Y-68911905D01*
X134700000Y-68864286D01*
X134652381Y-68769048D01*
X134652381Y-68578571D01*
X134700000Y-68483333D01*
X134747619Y-68435714D01*
X134842857Y-68388095D01*
X135080952Y-68388095D01*
X135176190Y-68435714D01*
X135223810Y-68483333D01*
X135271429Y-68578571D01*
X135271429Y-68769048D01*
X135223810Y-68864286D01*
X135176190Y-68911905D01*
X135080952Y-68959524D01*
X141002381Y-93208809D02*
X141002381Y-93399286D01*
X141050000Y-93494524D01*
X141145238Y-93589762D01*
X141335714Y-93637381D01*
X141669048Y-93637381D01*
X141859524Y-93589762D01*
X141954762Y-93494524D01*
X142002381Y-93399286D01*
X142002381Y-93208809D01*
X141954762Y-93113571D01*
X141859524Y-93018333D01*
X141669048Y-92970714D01*
X141335714Y-92970714D01*
X141145238Y-93018333D01*
X141050000Y-93113571D01*
X141002381Y-93208809D01*
X142002381Y-94065952D02*
X141002381Y-94065952D01*
X142002381Y-94637381D02*
X141430952Y-94208809D01*
X141002381Y-94637381D02*
X141573810Y-94065952D01*
X141002381Y-94923095D02*
X141002381Y-95494524D01*
X142002381Y-95208809D02*
X141002381Y-95208809D01*
X146209381Y-92875476D02*
X147209381Y-93113571D01*
X146495095Y-93304048D01*
X147209381Y-93494524D01*
X146209381Y-93732619D01*
X147209381Y-94589762D02*
X147209381Y-94113571D01*
X146209381Y-94113571D01*
X147161762Y-94875476D02*
X147209381Y-95018333D01*
X147209381Y-95256429D01*
X147161762Y-95351667D01*
X147114143Y-95399286D01*
X147018905Y-95446905D01*
X146923667Y-95446905D01*
X146828429Y-95399286D01*
X146780810Y-95351667D01*
X146733190Y-95256429D01*
X146685571Y-95065952D01*
X146637952Y-94970714D01*
X146590333Y-94923095D01*
X146495095Y-94875476D01*
X146399857Y-94875476D01*
X146304619Y-94923095D01*
X146257000Y-94970714D01*
X146209381Y-95065952D01*
X146209381Y-95304048D01*
X146257000Y-95446905D01*
X149527143Y-93494524D02*
X149574762Y-93446905D01*
X149622381Y-93304048D01*
X149622381Y-93208810D01*
X149574762Y-93065952D01*
X149479524Y-92970714D01*
X149384286Y-92923095D01*
X149193810Y-92875476D01*
X149050952Y-92875476D01*
X148860476Y-92923095D01*
X148765238Y-92970714D01*
X148670000Y-93065952D01*
X148622381Y-93208810D01*
X148622381Y-93304048D01*
X148670000Y-93446905D01*
X148717619Y-93494524D01*
X149622381Y-94494524D02*
X149146190Y-94161190D01*
X149622381Y-93923095D02*
X148622381Y-93923095D01*
X148622381Y-94304048D01*
X148670000Y-94399286D01*
X148717619Y-94446905D01*
X148812857Y-94494524D01*
X148955714Y-94494524D01*
X149050952Y-94446905D01*
X149098571Y-94399286D01*
X149146190Y-94304048D01*
X149146190Y-93923095D01*
X149622381Y-94923095D02*
X148622381Y-94923095D01*
X148622381Y-95161190D01*
X148670000Y-95304048D01*
X148765238Y-95399286D01*
X148860476Y-95446905D01*
X149050952Y-95494524D01*
X149193810Y-95494524D01*
X149384286Y-95446905D01*
X149479524Y-95399286D01*
X149574762Y-95304048D01*
X149622381Y-95161190D01*
X149622381Y-94923095D01*
X151083000Y-93423096D02*
X151035381Y-93327858D01*
X151035381Y-93185001D01*
X151083000Y-93042143D01*
X151178238Y-92946905D01*
X151273476Y-92899286D01*
X151463952Y-92851667D01*
X151606810Y-92851667D01*
X151797286Y-92899286D01*
X151892524Y-92946905D01*
X151987762Y-93042143D01*
X152035381Y-93185001D01*
X152035381Y-93280239D01*
X151987762Y-93423096D01*
X151940143Y-93470715D01*
X151606810Y-93470715D01*
X151606810Y-93280239D01*
X152035381Y-93899286D02*
X151035381Y-93899286D01*
X152035381Y-94470715D01*
X151035381Y-94470715D01*
X152035381Y-94946905D02*
X151035381Y-94946905D01*
X151035381Y-95185000D01*
X151083000Y-95327858D01*
X151178238Y-95423096D01*
X151273476Y-95470715D01*
X151463952Y-95518334D01*
X151606810Y-95518334D01*
X151797286Y-95470715D01*
X151892524Y-95423096D01*
X151987762Y-95327858D01*
X152035381Y-95185000D01*
X152035381Y-94946905D01*
X153702381Y-92843714D02*
X154702381Y-93177047D01*
X153702381Y-93510381D01*
X154654762Y-93796095D02*
X154702381Y-93938952D01*
X154702381Y-94177048D01*
X154654762Y-94272286D01*
X154607143Y-94319905D01*
X154511905Y-94367524D01*
X154416667Y-94367524D01*
X154321429Y-94319905D01*
X154273810Y-94272286D01*
X154226190Y-94177048D01*
X154178571Y-93986571D01*
X154130952Y-93891333D01*
X154083333Y-93843714D01*
X153988095Y-93796095D01*
X153892857Y-93796095D01*
X153797619Y-93843714D01*
X153750000Y-93891333D01*
X153702381Y-93986571D01*
X153702381Y-94224667D01*
X153750000Y-94367524D01*
X154702381Y-95272286D02*
X154702381Y-94796095D01*
X153702381Y-94796095D01*
X158909381Y-92875476D02*
X159909381Y-93208809D01*
X158909381Y-93542143D01*
X159861762Y-93827857D02*
X159909381Y-93970714D01*
X159909381Y-94208810D01*
X159861762Y-94304048D01*
X159814143Y-94351667D01*
X159718905Y-94399286D01*
X159623667Y-94399286D01*
X159528429Y-94351667D01*
X159480810Y-94304048D01*
X159433190Y-94208810D01*
X159385571Y-94018333D01*
X159337952Y-93923095D01*
X159290333Y-93875476D01*
X159195095Y-93827857D01*
X159099857Y-93827857D01*
X159004619Y-93875476D01*
X158957000Y-93923095D01*
X158909381Y-94018333D01*
X158909381Y-94256429D01*
X158957000Y-94399286D01*
X159909381Y-94827857D02*
X158909381Y-94827857D01*
X158909381Y-95208810D01*
X158957000Y-95304048D01*
X159004619Y-95351667D01*
X159099857Y-95399286D01*
X159242714Y-95399286D01*
X159337952Y-95351667D01*
X159385571Y-95304048D01*
X159433190Y-95208810D01*
X159433190Y-94827857D01*
X161370000Y-93431096D02*
X161322381Y-93335858D01*
X161322381Y-93193001D01*
X161370000Y-93050143D01*
X161465238Y-92954905D01*
X161560476Y-92907286D01*
X161750952Y-92859667D01*
X161893810Y-92859667D01*
X162084286Y-92907286D01*
X162179524Y-92954905D01*
X162274762Y-93050143D01*
X162322381Y-93193001D01*
X162322381Y-93288239D01*
X162274762Y-93431096D01*
X162227143Y-93478715D01*
X161893810Y-93478715D01*
X161893810Y-93288239D01*
X162322381Y-93907286D02*
X161322381Y-93907286D01*
X162322381Y-94478715D01*
X161322381Y-94478715D01*
X162322381Y-94954905D02*
X161322381Y-94954905D01*
X161322381Y-95193000D01*
X161370000Y-95335858D01*
X161465238Y-95431096D01*
X161560476Y-95478715D01*
X161750952Y-95526334D01*
X161893810Y-95526334D01*
X162084286Y-95478715D01*
X162179524Y-95431096D01*
X162274762Y-95335858D01*
X162322381Y-95193000D01*
X162322381Y-94954905D01*
X162322381Y-95954905D02*
X161322381Y-95954905D01*
X161322381Y-96335858D01*
X161370000Y-96431096D01*
X161417619Y-96478715D01*
X161512857Y-96526334D01*
X161655714Y-96526334D01*
X161750952Y-96478715D01*
X161798571Y-96431096D01*
X161846190Y-96335858D01*
X161846190Y-95954905D01*
X174197000Y-61673096D02*
X174149381Y-61577858D01*
X174149381Y-61435001D01*
X174197000Y-61292143D01*
X174292238Y-61196905D01*
X174387476Y-61149286D01*
X174577952Y-61101667D01*
X174720810Y-61101667D01*
X174911286Y-61149286D01*
X175006524Y-61196905D01*
X175101762Y-61292143D01*
X175149381Y-61435001D01*
X175149381Y-61530239D01*
X175101762Y-61673096D01*
X175054143Y-61720715D01*
X174720810Y-61720715D01*
X174720810Y-61530239D01*
X175149381Y-62149286D02*
X174149381Y-62149286D01*
X175149381Y-62720715D01*
X174149381Y-62720715D01*
X175149381Y-63196905D02*
X174149381Y-63196905D01*
X174149381Y-63435000D01*
X174197000Y-63577858D01*
X174292238Y-63673096D01*
X174387476Y-63720715D01*
X174577952Y-63768334D01*
X174720810Y-63768334D01*
X174911286Y-63720715D01*
X175006524Y-63673096D01*
X175101762Y-63577858D01*
X175149381Y-63435000D01*
X175149381Y-63196905D01*
X148749381Y-61300095D02*
X148749381Y-61871524D01*
X149749381Y-61585809D02*
X148749381Y-61585809D01*
X148749381Y-62109619D02*
X149749381Y-62776286D01*
X148749381Y-62776286D02*
X149749381Y-62109619D01*
X149749381Y-63157238D02*
X148749381Y-63157238D01*
X148749381Y-63395333D01*
X148797000Y-63538191D01*
X148892238Y-63633429D01*
X148987476Y-63681048D01*
X149177952Y-63728667D01*
X149320810Y-63728667D01*
X149511286Y-63681048D01*
X149606524Y-63633429D01*
X149701762Y-63538191D01*
X149749381Y-63395333D01*
X149749381Y-63157238D01*
X147082381Y-61768334D02*
X146606190Y-61435000D01*
X147082381Y-61196905D02*
X146082381Y-61196905D01*
X146082381Y-61577858D01*
X146130000Y-61673096D01*
X146177619Y-61720715D01*
X146272857Y-61768334D01*
X146415714Y-61768334D01*
X146510952Y-61720715D01*
X146558571Y-61673096D01*
X146606190Y-61577858D01*
X146606190Y-61196905D01*
X146082381Y-62101667D02*
X147082381Y-62768334D01*
X146082381Y-62768334D02*
X147082381Y-62101667D01*
X147082381Y-63149286D02*
X146082381Y-63149286D01*
X146082381Y-63387381D01*
X146130000Y-63530239D01*
X146225238Y-63625477D01*
X146320476Y-63673096D01*
X146510952Y-63720715D01*
X146653810Y-63720715D01*
X146844286Y-63673096D01*
X146939524Y-63625477D01*
X147034762Y-63530239D01*
X147082381Y-63387381D01*
X147082381Y-63149286D01*
X144542381Y-59347572D02*
X144066190Y-59014238D01*
X144542381Y-58776143D02*
X143542381Y-58776143D01*
X143542381Y-59157096D01*
X143590000Y-59252334D01*
X143637619Y-59299953D01*
X143732857Y-59347572D01*
X143875714Y-59347572D01*
X143970952Y-59299953D01*
X144018571Y-59252334D01*
X144066190Y-59157096D01*
X144066190Y-58776143D01*
X144018571Y-59776143D02*
X144018571Y-60109477D01*
X144542381Y-60252334D02*
X144542381Y-59776143D01*
X143542381Y-59776143D01*
X143542381Y-60252334D01*
X144494762Y-60633286D02*
X144542381Y-60776143D01*
X144542381Y-61014239D01*
X144494762Y-61109477D01*
X144447143Y-61157096D01*
X144351905Y-61204715D01*
X144256667Y-61204715D01*
X144161429Y-61157096D01*
X144113810Y-61109477D01*
X144066190Y-61014239D01*
X144018571Y-60823762D01*
X143970952Y-60728524D01*
X143923333Y-60680905D01*
X143828095Y-60633286D01*
X143732857Y-60633286D01*
X143637619Y-60680905D01*
X143590000Y-60728524D01*
X143542381Y-60823762D01*
X143542381Y-61061858D01*
X143590000Y-61204715D01*
X144018571Y-61633286D02*
X144018571Y-61966620D01*
X144542381Y-62109477D02*
X144542381Y-61633286D01*
X143542381Y-61633286D01*
X143542381Y-62109477D01*
X143542381Y-62395191D02*
X143542381Y-62966620D01*
X144542381Y-62680905D02*
X143542381Y-62680905D01*
X144161429Y-63299953D02*
X144161429Y-64061858D01*
X142129381Y-59887286D02*
X141653190Y-59553952D01*
X142129381Y-59315857D02*
X141129381Y-59315857D01*
X141129381Y-59696810D01*
X141177000Y-59792048D01*
X141224619Y-59839667D01*
X141319857Y-59887286D01*
X141462714Y-59887286D01*
X141557952Y-59839667D01*
X141605571Y-59792048D01*
X141653190Y-59696810D01*
X141653190Y-59315857D01*
X142129381Y-60315857D02*
X141129381Y-60315857D01*
X141129381Y-60553952D01*
X141177000Y-60696810D01*
X141272238Y-60792048D01*
X141367476Y-60839667D01*
X141557952Y-60887286D01*
X141700810Y-60887286D01*
X141891286Y-60839667D01*
X141986524Y-60792048D01*
X142081762Y-60696810D01*
X142129381Y-60553952D01*
X142129381Y-60315857D01*
X141605571Y-61315857D02*
X141605571Y-61649191D01*
X142129381Y-61792048D02*
X142129381Y-61315857D01*
X141129381Y-61315857D01*
X141129381Y-61792048D01*
X142129381Y-62220619D02*
X141129381Y-62220619D01*
X142129381Y-62792048D01*
X141129381Y-62792048D01*
X141748429Y-63268238D02*
X141748429Y-64030143D01*
X139414762Y-59807905D02*
X139462381Y-59950762D01*
X139462381Y-60188858D01*
X139414762Y-60284096D01*
X139367143Y-60331715D01*
X139271905Y-60379334D01*
X139176667Y-60379334D01*
X139081429Y-60331715D01*
X139033810Y-60284096D01*
X138986190Y-60188858D01*
X138938571Y-59998381D01*
X138890952Y-59903143D01*
X138843333Y-59855524D01*
X138748095Y-59807905D01*
X138652857Y-59807905D01*
X138557619Y-59855524D01*
X138510000Y-59903143D01*
X138462381Y-59998381D01*
X138462381Y-60236477D01*
X138510000Y-60379334D01*
X138986190Y-60998381D02*
X139462381Y-60998381D01*
X138462381Y-60665048D02*
X138986190Y-60998381D01*
X138462381Y-61331715D01*
X139462381Y-61665048D02*
X138462381Y-61665048D01*
X139462381Y-62236477D01*
X138462381Y-62236477D01*
X139367143Y-63284096D02*
X139414762Y-63236477D01*
X139462381Y-63093620D01*
X139462381Y-62998382D01*
X139414762Y-62855524D01*
X139319524Y-62760286D01*
X139224286Y-62712667D01*
X139033810Y-62665048D01*
X138890952Y-62665048D01*
X138700476Y-62712667D01*
X138605238Y-62760286D01*
X138510000Y-62855524D01*
X138462381Y-62998382D01*
X138462381Y-63093620D01*
X138510000Y-63236477D01*
X138557619Y-63284096D01*
X80851095Y-101552381D02*
X80851095Y-102361905D01*
X80803476Y-102457143D01*
X80755857Y-102504762D01*
X80660619Y-102552381D01*
X80470142Y-102552381D01*
X80374904Y-102504762D01*
X80327285Y-102457143D01*
X80279666Y-102361905D01*
X80279666Y-101552381D01*
X79279666Y-102552381D02*
X79851095Y-102552381D01*
X79565381Y-102552381D02*
X79565381Y-101552381D01*
X79660619Y-101695238D01*
X79755857Y-101790476D01*
X79851095Y-101838095D01*
X78660619Y-101552381D02*
X78565380Y-101552381D01*
X78470142Y-101600000D01*
X78422523Y-101647619D01*
X78374904Y-101742857D01*
X78327285Y-101933333D01*
X78327285Y-102171429D01*
X78374904Y-102361905D01*
X78422523Y-102457143D01*
X78470142Y-102504762D01*
X78565380Y-102552381D01*
X78660619Y-102552381D01*
X78755857Y-102504762D01*
X78803476Y-102457143D01*
X78851095Y-102361905D01*
X78898714Y-102171429D01*
X78898714Y-101933333D01*
X78851095Y-101742857D01*
X78803476Y-101647619D01*
X78755857Y-101600000D01*
X78660619Y-101552381D01*
X82795095Y-84882381D02*
X82795095Y-85691905D01*
X82747476Y-85787143D01*
X82699857Y-85834762D01*
X82604619Y-85882381D01*
X82414142Y-85882381D01*
X82318904Y-85834762D01*
X82271285Y-85787143D01*
X82223666Y-85691905D01*
X82223666Y-84882381D01*
X81223666Y-85882381D02*
X81795095Y-85882381D01*
X81509381Y-85882381D02*
X81509381Y-84882381D01*
X81604619Y-85025238D01*
X81699857Y-85120476D01*
X81795095Y-85168095D01*
X80271285Y-85882381D02*
X80842714Y-85882381D01*
X80557000Y-85882381D02*
X80557000Y-84882381D01*
X80652238Y-85025238D01*
X80747476Y-85120476D01*
X80842714Y-85168095D01*
X187412381Y-50831905D02*
X186412381Y-50831905D01*
X186412381Y-51070000D01*
X186460000Y-51212858D01*
X186555238Y-51308096D01*
X186650476Y-51355715D01*
X186840952Y-51403334D01*
X186983810Y-51403334D01*
X187174286Y-51355715D01*
X187269524Y-51308096D01*
X187364762Y-51212858D01*
X187412381Y-51070000D01*
X187412381Y-50831905D01*
X187412381Y-52355715D02*
X187412381Y-51784286D01*
X187412381Y-52070000D02*
X186412381Y-52070000D01*
X186555238Y-51974762D01*
X186650476Y-51879524D01*
X186698095Y-51784286D01*
X110272381Y-66421143D02*
X109796190Y-66087809D01*
X110272381Y-65849714D02*
X109272381Y-65849714D01*
X109272381Y-66230667D01*
X109320000Y-66325905D01*
X109367619Y-66373524D01*
X109462857Y-66421143D01*
X109605714Y-66421143D01*
X109700952Y-66373524D01*
X109748571Y-66325905D01*
X109796190Y-66230667D01*
X109796190Y-65849714D01*
X109367619Y-66802095D02*
X109320000Y-66849714D01*
X109272381Y-66944952D01*
X109272381Y-67183048D01*
X109320000Y-67278286D01*
X109367619Y-67325905D01*
X109462857Y-67373524D01*
X109558095Y-67373524D01*
X109700952Y-67325905D01*
X110272381Y-66754476D01*
X110272381Y-67373524D01*
X109367619Y-67754476D02*
X109320000Y-67802095D01*
X109272381Y-67897333D01*
X109272381Y-68135429D01*
X109320000Y-68230667D01*
X109367619Y-68278286D01*
X109462857Y-68325905D01*
X109558095Y-68325905D01*
X109700952Y-68278286D01*
X110272381Y-67706857D01*
X110272381Y-68325905D01*
X86062857Y-45372381D02*
X86396191Y-44896190D01*
X86634286Y-45372381D02*
X86634286Y-44372381D01*
X86253333Y-44372381D01*
X86158095Y-44420000D01*
X86110476Y-44467619D01*
X86062857Y-44562857D01*
X86062857Y-44705714D01*
X86110476Y-44800952D01*
X86158095Y-44848571D01*
X86253333Y-44896190D01*
X86634286Y-44896190D01*
X85681905Y-44467619D02*
X85634286Y-44420000D01*
X85539048Y-44372381D01*
X85300952Y-44372381D01*
X85205714Y-44420000D01*
X85158095Y-44467619D01*
X85110476Y-44562857D01*
X85110476Y-44658095D01*
X85158095Y-44800952D01*
X85729524Y-45372381D01*
X85110476Y-45372381D01*
X84777143Y-44372381D02*
X84158095Y-44372381D01*
X84491429Y-44753333D01*
X84348571Y-44753333D01*
X84253333Y-44800952D01*
X84205714Y-44848571D01*
X84158095Y-44943810D01*
X84158095Y-45181905D01*
X84205714Y-45277143D01*
X84253333Y-45324762D01*
X84348571Y-45372381D01*
X84634286Y-45372381D01*
X84729524Y-45324762D01*
X84777143Y-45277143D01*
X103402857Y-45372381D02*
X103736191Y-44896190D01*
X103974286Y-45372381D02*
X103974286Y-44372381D01*
X103593333Y-44372381D01*
X103498095Y-44420000D01*
X103450476Y-44467619D01*
X103402857Y-44562857D01*
X103402857Y-44705714D01*
X103450476Y-44800952D01*
X103498095Y-44848571D01*
X103593333Y-44896190D01*
X103974286Y-44896190D01*
X103021905Y-44467619D02*
X102974286Y-44420000D01*
X102879048Y-44372381D01*
X102640952Y-44372381D01*
X102545714Y-44420000D01*
X102498095Y-44467619D01*
X102450476Y-44562857D01*
X102450476Y-44658095D01*
X102498095Y-44800952D01*
X103069524Y-45372381D01*
X102450476Y-45372381D01*
X101593333Y-44705714D02*
X101593333Y-45372381D01*
X101831429Y-44324762D02*
X102069524Y-45039048D01*
X101450476Y-45039048D01*
X122112857Y-74242381D02*
X122446191Y-73766190D01*
X122684286Y-74242381D02*
X122684286Y-73242381D01*
X122303333Y-73242381D01*
X122208095Y-73290000D01*
X122160476Y-73337619D01*
X122112857Y-73432857D01*
X122112857Y-73575714D01*
X122160476Y-73670952D01*
X122208095Y-73718571D01*
X122303333Y-73766190D01*
X122684286Y-73766190D01*
X121731905Y-73337619D02*
X121684286Y-73290000D01*
X121589048Y-73242381D01*
X121350952Y-73242381D01*
X121255714Y-73290000D01*
X121208095Y-73337619D01*
X121160476Y-73432857D01*
X121160476Y-73528095D01*
X121208095Y-73670952D01*
X121779524Y-74242381D01*
X121160476Y-74242381D01*
X120255714Y-73242381D02*
X120731905Y-73242381D01*
X120779524Y-73718571D01*
X120731905Y-73670952D01*
X120636667Y-73623333D01*
X120398571Y-73623333D01*
X120303333Y-73670952D01*
X120255714Y-73718571D01*
X120208095Y-73813810D01*
X120208095Y-74051905D01*
X120255714Y-74147143D01*
X120303333Y-74194762D01*
X120398571Y-74242381D01*
X120636667Y-74242381D01*
X120731905Y-74194762D01*
X120779524Y-74147143D01*
M02*
