M48
;DRILL file {KiCad 4.0.6} date 07/05/17 10:03:58
;FORMAT={-:-/ absolute / metric / decimal}
FMAT,2
METRIC,TZ
T1C0.600
T2C1.000
T3C4.000
%
G90
G05
M71
T1
X39.22Y-47.1
X39.22Y-82.84
X43.7Y-51.24
X43.7Y-86.98
X43.73Y-49.23
X43.73Y-84.97
X45.88Y-51.24
X45.88Y-86.98
X47.62Y-47.33
X47.62Y-83.07
X48.04Y-44.71
X48.04Y-80.45
X63.78Y-51.39
X63.78Y-87.13
X66.95Y-48.03
X66.95Y-83.77
X68.74Y-51.47
X68.74Y-87.21
X71.39Y-53.68
X71.39Y-89.42
X71.84Y-46.71
X71.84Y-82.45
X71.87Y-44.65
X71.87Y-80.39
X71.88Y-41.29
X71.88Y-77.03
X82.1Y-42.57
X82.1Y-78.31
X82.16Y-40.4
X82.16Y-76.14
X82.22Y-38.55
X82.22Y-74.29
X86.42Y-55.43
X86.42Y-91.17
X86.54Y-44.68
X86.54Y-80.42
X87.01Y-46.11
X87.01Y-81.85
X89.71Y-57.65
X89.71Y-93.39
X89.73Y-55.89
X89.73Y-91.63
T2
X39.778Y-56.388
X39.778Y-92.128
X42.318Y-56.388
X42.318Y-92.128
X46.74Y-34.25
X46.74Y-69.99
X49.28Y-34.25
X49.28Y-69.99
X51.82Y-34.25
X51.82Y-69.99
X58.02Y-36.79
X58.02Y-39.33
X58.02Y-41.87
X58.02Y-72.53
X58.02Y-75.07
X58.02Y-77.61
X58.4Y-47.76
X58.4Y-50.3
X58.4Y-52.84
X58.4Y-83.5
X58.4Y-86.04
X58.4Y-88.58
X75.846Y-48.006
X75.846Y-50.546
X75.846Y-53.086
X75.846Y-83.746
X75.846Y-86.286
X75.846Y-88.826
X75.95Y-37.64
X75.95Y-40.18
X75.95Y-42.72
X75.95Y-73.38
X75.95Y-75.92
X75.95Y-78.46
X83.974Y-57.658
X83.974Y-93.398
X86.514Y-57.658
X86.514Y-93.398
T3
X37.01Y-32.27
X37.01Y-68.01
X88.69Y-31.99
X88.69Y-67.73
T0
M30
