G04 #@! TF.FileFunction,Legend,Bot*
%FSLAX46Y46*%
G04 Gerber Fmt 4.6, Leading zero omitted, Abs format (unit mm)*
G04 Created by KiCad (PCBNEW 4.0.6) date 07/10/17 08:35:26*
%MOMM*%
%LPD*%
G01*
G04 APERTURE LIST*
%ADD10C,0.100000*%
%ADD11C,0.300000*%
%ADD12C,0.250000*%
%ADD13C,0.150000*%
%ADD14C,0.120000*%
G04 APERTURE END LIST*
D10*
D11*
X173297142Y-54308571D02*
X174011428Y-54308571D01*
X174082857Y-55022857D01*
X174011428Y-54951429D01*
X173868571Y-54880000D01*
X173511428Y-54880000D01*
X173368571Y-54951429D01*
X173297142Y-55022857D01*
X173225714Y-55165714D01*
X173225714Y-55522857D01*
X173297142Y-55665714D01*
X173368571Y-55737143D01*
X173511428Y-55808571D01*
X173868571Y-55808571D01*
X174011428Y-55737143D01*
X174082857Y-55665714D01*
X171654286Y-54308571D02*
X171154286Y-55808571D01*
X170654286Y-54308571D01*
X170154286Y-55808571D02*
X170154286Y-54308571D01*
X169797143Y-54308571D01*
X169582858Y-54380000D01*
X169440000Y-54522857D01*
X169368572Y-54665714D01*
X169297143Y-54951429D01*
X169297143Y-55165714D01*
X169368572Y-55451429D01*
X169440000Y-55594286D01*
X169582858Y-55737143D01*
X169797143Y-55808571D01*
X170154286Y-55808571D01*
X167797143Y-55665714D02*
X167868572Y-55737143D01*
X168082858Y-55808571D01*
X168225715Y-55808571D01*
X168440000Y-55737143D01*
X168582858Y-55594286D01*
X168654286Y-55451429D01*
X168725715Y-55165714D01*
X168725715Y-54951429D01*
X168654286Y-54665714D01*
X168582858Y-54522857D01*
X168440000Y-54380000D01*
X168225715Y-54308571D01*
X168082858Y-54308571D01*
X167868572Y-54380000D01*
X167797143Y-54451429D01*
X171441428Y-52507143D02*
X170298571Y-52507143D01*
X171611428Y-57717143D02*
X170468571Y-57717143D01*
X171040000Y-58288571D02*
X171040000Y-57145714D01*
D12*
X176347381Y-76596192D02*
X176347381Y-77167621D01*
X177347381Y-76881906D02*
X176347381Y-76881906D01*
X177347381Y-77500954D02*
X176347381Y-77500954D01*
X176966429Y-77977144D02*
X176966429Y-78739049D01*
X177347381Y-79786668D02*
X176871190Y-79453334D01*
X177347381Y-79215239D02*
X176347381Y-79215239D01*
X176347381Y-79596192D01*
X176395000Y-79691430D01*
X176442619Y-79739049D01*
X176537857Y-79786668D01*
X176680714Y-79786668D01*
X176775952Y-79739049D01*
X176823571Y-79691430D01*
X176871190Y-79596192D01*
X176871190Y-79215239D01*
X176823571Y-80548573D02*
X176823571Y-80215239D01*
X177347381Y-80215239D02*
X176347381Y-80215239D01*
X176347381Y-80691430D01*
X177347381Y-81072382D02*
X176347381Y-81072382D01*
X177347381Y-81548572D02*
X176347381Y-81548572D01*
X176347381Y-81786667D01*
X176395000Y-81929525D01*
X176490238Y-82024763D01*
X176585476Y-82072382D01*
X176775952Y-82120001D01*
X176918810Y-82120001D01*
X177109286Y-82072382D01*
X177204524Y-82024763D01*
X177299762Y-81929525D01*
X177347381Y-81786667D01*
X177347381Y-81548572D01*
X178097381Y-69834285D02*
X178097381Y-70453333D01*
X178478333Y-70119999D01*
X178478333Y-70262857D01*
X178525952Y-70358095D01*
X178573571Y-70405714D01*
X178668810Y-70453333D01*
X178906905Y-70453333D01*
X179002143Y-70405714D01*
X179049762Y-70358095D01*
X179097381Y-70262857D01*
X179097381Y-69977142D01*
X179049762Y-69881904D01*
X179002143Y-69834285D01*
X179097381Y-71405714D02*
X179097381Y-70834285D01*
X179097381Y-71119999D02*
X178097381Y-71119999D01*
X178240238Y-71024761D01*
X178335476Y-70929523D01*
X178383095Y-70834285D01*
X178097381Y-72786666D02*
X178097381Y-72881905D01*
X178145000Y-72977143D01*
X178192619Y-73024762D01*
X178287857Y-73072381D01*
X178478333Y-73120000D01*
X178716429Y-73120000D01*
X178906905Y-73072381D01*
X179002143Y-73024762D01*
X179049762Y-72977143D01*
X179097381Y-72881905D01*
X179097381Y-72786666D01*
X179049762Y-72691428D01*
X179002143Y-72643809D01*
X178906905Y-72596190D01*
X178716429Y-72548571D01*
X178478333Y-72548571D01*
X178287857Y-72596190D01*
X178192619Y-72643809D01*
X178145000Y-72691428D01*
X178097381Y-72786666D01*
X178097381Y-74500952D02*
X178097381Y-74596191D01*
X178145000Y-74691429D01*
X178192619Y-74739048D01*
X178287857Y-74786667D01*
X178478333Y-74834286D01*
X178716429Y-74834286D01*
X178906905Y-74786667D01*
X179002143Y-74739048D01*
X179049762Y-74691429D01*
X179097381Y-74596191D01*
X179097381Y-74500952D01*
X179049762Y-74405714D01*
X179002143Y-74358095D01*
X178906905Y-74310476D01*
X178716429Y-74262857D01*
X178478333Y-74262857D01*
X178287857Y-74310476D01*
X178192619Y-74358095D01*
X178145000Y-74405714D01*
X178097381Y-74500952D01*
X178097381Y-76215238D02*
X178097381Y-76310477D01*
X178145000Y-76405715D01*
X178192619Y-76453334D01*
X178287857Y-76500953D01*
X178478333Y-76548572D01*
X178716429Y-76548572D01*
X178906905Y-76500953D01*
X179002143Y-76453334D01*
X179049762Y-76405715D01*
X179097381Y-76310477D01*
X179097381Y-76215238D01*
X179049762Y-76120000D01*
X179002143Y-76072381D01*
X178906905Y-76024762D01*
X178716429Y-75977143D01*
X178478333Y-75977143D01*
X178287857Y-76024762D01*
X178192619Y-76072381D01*
X178145000Y-76120000D01*
X178097381Y-76215238D01*
X178097381Y-77929524D02*
X178097381Y-78024763D01*
X178145000Y-78120001D01*
X178192619Y-78167620D01*
X178287857Y-78215239D01*
X178478333Y-78262858D01*
X178716429Y-78262858D01*
X178906905Y-78215239D01*
X179002143Y-78167620D01*
X179049762Y-78120001D01*
X179097381Y-78024763D01*
X179097381Y-77929524D01*
X179049762Y-77834286D01*
X179002143Y-77786667D01*
X178906905Y-77739048D01*
X178716429Y-77691429D01*
X178478333Y-77691429D01*
X178287857Y-77739048D01*
X178192619Y-77786667D01*
X178145000Y-77834286D01*
X178097381Y-77929524D01*
X178097381Y-79643810D02*
X178097381Y-79739049D01*
X178145000Y-79834287D01*
X178192619Y-79881906D01*
X178287857Y-79929525D01*
X178478333Y-79977144D01*
X178716429Y-79977144D01*
X178906905Y-79929525D01*
X179002143Y-79881906D01*
X179049762Y-79834287D01*
X179097381Y-79739049D01*
X179097381Y-79643810D01*
X179049762Y-79548572D01*
X179002143Y-79500953D01*
X178906905Y-79453334D01*
X178716429Y-79405715D01*
X178478333Y-79405715D01*
X178287857Y-79453334D01*
X178192619Y-79500953D01*
X178145000Y-79548572D01*
X178097381Y-79643810D01*
X178097381Y-81358096D02*
X178097381Y-81453335D01*
X178145000Y-81548573D01*
X178192619Y-81596192D01*
X178287857Y-81643811D01*
X178478333Y-81691430D01*
X178716429Y-81691430D01*
X178906905Y-81643811D01*
X179002143Y-81596192D01*
X179049762Y-81548573D01*
X179097381Y-81453335D01*
X179097381Y-81358096D01*
X179049762Y-81262858D01*
X179002143Y-81215239D01*
X178906905Y-81167620D01*
X178716429Y-81120001D01*
X178478333Y-81120001D01*
X178287857Y-81167620D01*
X178192619Y-81215239D01*
X178145000Y-81262858D01*
X178097381Y-81358096D01*
X178097381Y-82786668D02*
X178097381Y-83405716D01*
X178478333Y-83072382D01*
X178478333Y-83215240D01*
X178525952Y-83310478D01*
X178573571Y-83358097D01*
X178668810Y-83405716D01*
X178906905Y-83405716D01*
X179002143Y-83358097D01*
X179049762Y-83310478D01*
X179097381Y-83215240D01*
X179097381Y-82929525D01*
X179049762Y-82834287D01*
X179002143Y-82786668D01*
X178097381Y-84262859D02*
X178097381Y-84072382D01*
X178145000Y-83977144D01*
X178192619Y-83929525D01*
X178335476Y-83834287D01*
X178525952Y-83786668D01*
X178906905Y-83786668D01*
X179002143Y-83834287D01*
X179049762Y-83881906D01*
X179097381Y-83977144D01*
X179097381Y-84167621D01*
X179049762Y-84262859D01*
X179002143Y-84310478D01*
X178906905Y-84358097D01*
X178668810Y-84358097D01*
X178573571Y-84310478D01*
X178525952Y-84262859D01*
X178478333Y-84167621D01*
X178478333Y-83977144D01*
X178525952Y-83881906D01*
X178573571Y-83834287D01*
X178668810Y-83786668D01*
X176377381Y-111596192D02*
X176377381Y-112167621D01*
X177377381Y-111881906D02*
X176377381Y-111881906D01*
X177377381Y-112500954D02*
X176377381Y-112500954D01*
X176996429Y-112977144D02*
X176996429Y-113739049D01*
X177377381Y-114786668D02*
X176901190Y-114453334D01*
X177377381Y-114215239D02*
X176377381Y-114215239D01*
X176377381Y-114596192D01*
X176425000Y-114691430D01*
X176472619Y-114739049D01*
X176567857Y-114786668D01*
X176710714Y-114786668D01*
X176805952Y-114739049D01*
X176853571Y-114691430D01*
X176901190Y-114596192D01*
X176901190Y-114215239D01*
X176853571Y-115548573D02*
X176853571Y-115215239D01*
X177377381Y-115215239D02*
X176377381Y-115215239D01*
X176377381Y-115691430D01*
X177377381Y-116072382D02*
X176377381Y-116072382D01*
X177377381Y-116548572D02*
X176377381Y-116548572D01*
X176377381Y-116786667D01*
X176425000Y-116929525D01*
X176520238Y-117024763D01*
X176615476Y-117072382D01*
X176805952Y-117120001D01*
X176948810Y-117120001D01*
X177139286Y-117072382D01*
X177234524Y-117024763D01*
X177329762Y-116929525D01*
X177377381Y-116786667D01*
X177377381Y-116548572D01*
X178127381Y-104834285D02*
X178127381Y-105453333D01*
X178508333Y-105119999D01*
X178508333Y-105262857D01*
X178555952Y-105358095D01*
X178603571Y-105405714D01*
X178698810Y-105453333D01*
X178936905Y-105453333D01*
X179032143Y-105405714D01*
X179079762Y-105358095D01*
X179127381Y-105262857D01*
X179127381Y-104977142D01*
X179079762Y-104881904D01*
X179032143Y-104834285D01*
X179127381Y-106405714D02*
X179127381Y-105834285D01*
X179127381Y-106119999D02*
X178127381Y-106119999D01*
X178270238Y-106024761D01*
X178365476Y-105929523D01*
X178413095Y-105834285D01*
X178127381Y-107786666D02*
X178127381Y-107881905D01*
X178175000Y-107977143D01*
X178222619Y-108024762D01*
X178317857Y-108072381D01*
X178508333Y-108120000D01*
X178746429Y-108120000D01*
X178936905Y-108072381D01*
X179032143Y-108024762D01*
X179079762Y-107977143D01*
X179127381Y-107881905D01*
X179127381Y-107786666D01*
X179079762Y-107691428D01*
X179032143Y-107643809D01*
X178936905Y-107596190D01*
X178746429Y-107548571D01*
X178508333Y-107548571D01*
X178317857Y-107596190D01*
X178222619Y-107643809D01*
X178175000Y-107691428D01*
X178127381Y-107786666D01*
X178127381Y-109500952D02*
X178127381Y-109596191D01*
X178175000Y-109691429D01*
X178222619Y-109739048D01*
X178317857Y-109786667D01*
X178508333Y-109834286D01*
X178746429Y-109834286D01*
X178936905Y-109786667D01*
X179032143Y-109739048D01*
X179079762Y-109691429D01*
X179127381Y-109596191D01*
X179127381Y-109500952D01*
X179079762Y-109405714D01*
X179032143Y-109358095D01*
X178936905Y-109310476D01*
X178746429Y-109262857D01*
X178508333Y-109262857D01*
X178317857Y-109310476D01*
X178222619Y-109358095D01*
X178175000Y-109405714D01*
X178127381Y-109500952D01*
X178127381Y-111215238D02*
X178127381Y-111310477D01*
X178175000Y-111405715D01*
X178222619Y-111453334D01*
X178317857Y-111500953D01*
X178508333Y-111548572D01*
X178746429Y-111548572D01*
X178936905Y-111500953D01*
X179032143Y-111453334D01*
X179079762Y-111405715D01*
X179127381Y-111310477D01*
X179127381Y-111215238D01*
X179079762Y-111120000D01*
X179032143Y-111072381D01*
X178936905Y-111024762D01*
X178746429Y-110977143D01*
X178508333Y-110977143D01*
X178317857Y-111024762D01*
X178222619Y-111072381D01*
X178175000Y-111120000D01*
X178127381Y-111215238D01*
X178127381Y-112929524D02*
X178127381Y-113024763D01*
X178175000Y-113120001D01*
X178222619Y-113167620D01*
X178317857Y-113215239D01*
X178508333Y-113262858D01*
X178746429Y-113262858D01*
X178936905Y-113215239D01*
X179032143Y-113167620D01*
X179079762Y-113120001D01*
X179127381Y-113024763D01*
X179127381Y-112929524D01*
X179079762Y-112834286D01*
X179032143Y-112786667D01*
X178936905Y-112739048D01*
X178746429Y-112691429D01*
X178508333Y-112691429D01*
X178317857Y-112739048D01*
X178222619Y-112786667D01*
X178175000Y-112834286D01*
X178127381Y-112929524D01*
X178127381Y-114643810D02*
X178127381Y-114739049D01*
X178175000Y-114834287D01*
X178222619Y-114881906D01*
X178317857Y-114929525D01*
X178508333Y-114977144D01*
X178746429Y-114977144D01*
X178936905Y-114929525D01*
X179032143Y-114881906D01*
X179079762Y-114834287D01*
X179127381Y-114739049D01*
X179127381Y-114643810D01*
X179079762Y-114548572D01*
X179032143Y-114500953D01*
X178936905Y-114453334D01*
X178746429Y-114405715D01*
X178508333Y-114405715D01*
X178317857Y-114453334D01*
X178222619Y-114500953D01*
X178175000Y-114548572D01*
X178127381Y-114643810D01*
X178127381Y-116358096D02*
X178127381Y-116453335D01*
X178175000Y-116548573D01*
X178222619Y-116596192D01*
X178317857Y-116643811D01*
X178508333Y-116691430D01*
X178746429Y-116691430D01*
X178936905Y-116643811D01*
X179032143Y-116596192D01*
X179079762Y-116548573D01*
X179127381Y-116453335D01*
X179127381Y-116358096D01*
X179079762Y-116262858D01*
X179032143Y-116215239D01*
X178936905Y-116167620D01*
X178746429Y-116120001D01*
X178508333Y-116120001D01*
X178317857Y-116167620D01*
X178222619Y-116215239D01*
X178175000Y-116262858D01*
X178127381Y-116358096D01*
X178127381Y-117786668D02*
X178127381Y-118405716D01*
X178508333Y-118072382D01*
X178508333Y-118215240D01*
X178555952Y-118310478D01*
X178603571Y-118358097D01*
X178698810Y-118405716D01*
X178936905Y-118405716D01*
X179032143Y-118358097D01*
X179079762Y-118310478D01*
X179127381Y-118215240D01*
X179127381Y-117929525D01*
X179079762Y-117834287D01*
X179032143Y-117786668D01*
X178127381Y-119262859D02*
X178127381Y-119072382D01*
X178175000Y-118977144D01*
X178222619Y-118929525D01*
X178365476Y-118834287D01*
X178555952Y-118786668D01*
X178936905Y-118786668D01*
X179032143Y-118834287D01*
X179079762Y-118881906D01*
X179127381Y-118977144D01*
X179127381Y-119167621D01*
X179079762Y-119262859D01*
X179032143Y-119310478D01*
X178936905Y-119358097D01*
X178698810Y-119358097D01*
X178603571Y-119310478D01*
X178555952Y-119262859D01*
X178508333Y-119167621D01*
X178508333Y-118977144D01*
X178555952Y-118881906D01*
X178603571Y-118834287D01*
X178698810Y-118786668D01*
D11*
X117094285Y-75978571D02*
X116165714Y-75978571D01*
X116665714Y-76550000D01*
X116451428Y-76550000D01*
X116308571Y-76621429D01*
X116237142Y-76692857D01*
X116165714Y-76835714D01*
X116165714Y-77192857D01*
X116237142Y-77335714D01*
X116308571Y-77407143D01*
X116451428Y-77478571D01*
X116880000Y-77478571D01*
X117022857Y-77407143D01*
X117094285Y-77335714D01*
X115665714Y-75978571D02*
X114737143Y-75978571D01*
X115237143Y-76550000D01*
X115022857Y-76550000D01*
X114880000Y-76621429D01*
X114808571Y-76692857D01*
X114737143Y-76835714D01*
X114737143Y-77192857D01*
X114808571Y-77335714D01*
X114880000Y-77407143D01*
X115022857Y-77478571D01*
X115451429Y-77478571D01*
X115594286Y-77407143D01*
X115665714Y-77335714D01*
X115031428Y-58068571D02*
X115888571Y-58068571D01*
X115459999Y-58068571D02*
X115459999Y-56568571D01*
X115602856Y-56782857D01*
X115745714Y-56925714D01*
X115888571Y-56997143D01*
X95411428Y-57048571D02*
X96268571Y-57048571D01*
X95839999Y-57048571D02*
X95839999Y-55548571D01*
X95982856Y-55762857D01*
X96125714Y-55905714D01*
X96268571Y-55977143D01*
X110671428Y-106368571D02*
X111528571Y-106368571D01*
X111099999Y-106368571D02*
X111099999Y-104868571D01*
X111242856Y-105082857D01*
X111385714Y-105225714D01*
X111528571Y-105297143D01*
X124791428Y-106338571D02*
X125648571Y-106338571D01*
X125219999Y-106338571D02*
X125219999Y-104838571D01*
X125362856Y-105052857D01*
X125505714Y-105195714D01*
X125648571Y-105267143D01*
X83721428Y-109208571D02*
X84578571Y-109208571D01*
X84149999Y-109208571D02*
X84149999Y-107708571D01*
X84292856Y-107922857D01*
X84435714Y-108065714D01*
X84578571Y-108137143D01*
X75101428Y-80478571D02*
X75958571Y-80478571D01*
X75529999Y-80478571D02*
X75529999Y-78978571D01*
X75672856Y-79192857D01*
X75815714Y-79335714D01*
X75958571Y-79407143D01*
X98981428Y-85808571D02*
X99838571Y-85808571D01*
X99409999Y-85808571D02*
X99409999Y-84308571D01*
X99552856Y-84522857D01*
X99695714Y-84665714D01*
X99838571Y-84737143D01*
X138291428Y-96648571D02*
X139148571Y-96648571D01*
X138719999Y-96648571D02*
X138719999Y-95148571D01*
X138862856Y-95362857D01*
X139005714Y-95505714D01*
X139148571Y-95577143D01*
X137581428Y-63638571D02*
X138438571Y-63638571D01*
X138009999Y-63638571D02*
X138009999Y-62138571D01*
X138152856Y-62352857D01*
X138295714Y-62495714D01*
X138438571Y-62567143D01*
D13*
X66000000Y-35000000D02*
X66000000Y-135000000D01*
X66000000Y-135000000D02*
X181000000Y-135000000D01*
X181000000Y-35000000D02*
X181000000Y-135000000D01*
X66000000Y-35000000D02*
X181000000Y-35000000D01*
X118095000Y-58150000D02*
X118095000Y-58125000D01*
X122245000Y-58150000D02*
X122245000Y-58035000D01*
X122245000Y-49250000D02*
X122245000Y-49365000D01*
X118095000Y-49250000D02*
X118095000Y-49365000D01*
X118095000Y-58150000D02*
X122245000Y-58150000D01*
X118095000Y-49250000D02*
X122245000Y-49250000D01*
X118095000Y-58125000D02*
X116720000Y-58125000D01*
X122015000Y-105020000D02*
X122015000Y-105045000D01*
X117865000Y-105020000D02*
X117865000Y-105135000D01*
X117865000Y-113920000D02*
X117865000Y-113805000D01*
X122015000Y-113920000D02*
X122015000Y-113805000D01*
X122015000Y-105020000D02*
X117865000Y-105020000D01*
X122015000Y-113920000D02*
X117865000Y-113920000D01*
X122015000Y-105045000D02*
X123390000Y-105045000D01*
X108065000Y-105100000D02*
X108065000Y-105125000D01*
X103915000Y-105100000D02*
X103915000Y-105215000D01*
X103915000Y-114000000D02*
X103915000Y-113885000D01*
X108065000Y-114000000D02*
X108065000Y-113885000D01*
X108065000Y-105100000D02*
X103915000Y-105100000D01*
X108065000Y-114000000D02*
X103915000Y-114000000D01*
X108065000Y-105125000D02*
X109440000Y-105125000D01*
X102035000Y-86255000D02*
X102035000Y-85255000D01*
X112385000Y-86255000D02*
X112385000Y-85180000D01*
X112385000Y-75905000D02*
X112385000Y-76980000D01*
X102035000Y-75905000D02*
X102035000Y-76980000D01*
X102035000Y-86255000D02*
X103110000Y-86255000D01*
X102035000Y-75905000D02*
X103110000Y-75905000D01*
X112385000Y-75905000D02*
X111310000Y-75905000D01*
X112385000Y-86255000D02*
X111310000Y-86255000D01*
X102035000Y-85255000D02*
X101010000Y-85255000D01*
D14*
X143990000Y-52890000D02*
X144690000Y-52890000D01*
X144690000Y-51690000D02*
X143990000Y-51690000D01*
X144690000Y-53660000D02*
X143990000Y-53660000D01*
X143990000Y-54860000D02*
X144690000Y-54860000D01*
X144710000Y-45880000D02*
X144010000Y-45880000D01*
X144010000Y-47080000D02*
X144710000Y-47080000D01*
X136870000Y-50110000D02*
X137570000Y-50110000D01*
X137570000Y-48910000D02*
X136870000Y-48910000D01*
X136870000Y-48650000D02*
X137570000Y-48650000D01*
X137570000Y-47450000D02*
X136870000Y-47450000D01*
X107970000Y-70840000D02*
X107970000Y-70140000D01*
X106770000Y-70140000D02*
X106770000Y-70840000D01*
X118810000Y-79950000D02*
X119510000Y-79950000D01*
X119510000Y-78750000D02*
X118810000Y-78750000D01*
X120150000Y-83110000D02*
X120850000Y-83110000D01*
X120850000Y-81910000D02*
X120150000Y-81910000D01*
X109050000Y-92340000D02*
X109750000Y-92340000D01*
X109750000Y-91140000D02*
X109050000Y-91140000D01*
X95500000Y-83730000D02*
X94800000Y-83730000D01*
X94800000Y-84930000D02*
X95500000Y-84930000D01*
X73330000Y-76550000D02*
X78830000Y-76550000D01*
X73330000Y-74450000D02*
X78830000Y-74450000D01*
X73330000Y-76550000D02*
X73330000Y-74450000D01*
X73170000Y-73080000D02*
X78670000Y-73080000D01*
X73170000Y-70980000D02*
X78670000Y-70980000D01*
X73170000Y-73080000D02*
X73170000Y-70980000D01*
X72920000Y-68990000D02*
X78420000Y-68990000D01*
X72920000Y-66890000D02*
X78420000Y-66890000D01*
X72920000Y-68990000D02*
X72920000Y-66890000D01*
X71100000Y-80360000D02*
X71100000Y-85860000D01*
X73200000Y-80360000D02*
X73200000Y-85860000D01*
X71100000Y-80360000D02*
X73200000Y-80360000D01*
X79730000Y-116690000D02*
X74230000Y-116690000D01*
X79730000Y-118790000D02*
X74230000Y-118790000D01*
X79730000Y-116690000D02*
X79730000Y-118790000D01*
X79810000Y-112920000D02*
X74310000Y-112920000D01*
X79810000Y-115020000D02*
X74310000Y-115020000D01*
X79810000Y-112920000D02*
X79810000Y-115020000D01*
X71960000Y-111500000D02*
X77460000Y-111500000D01*
X71960000Y-109400000D02*
X77460000Y-109400000D01*
X71960000Y-111500000D02*
X71960000Y-109400000D01*
X87580000Y-108410000D02*
X87580000Y-102910000D01*
X85480000Y-108410000D02*
X85480000Y-102910000D01*
X87580000Y-108410000D02*
X85480000Y-108410000D01*
D12*
X137626000Y-37116000D02*
X137626000Y-45244000D01*
X137626000Y-45244000D02*
X145881000Y-45244000D01*
X145881000Y-45244000D02*
X145881000Y-37116000D01*
X145881000Y-37116000D02*
X137626000Y-37116000D01*
D14*
X136950000Y-52880000D02*
X136950000Y-51880000D01*
X135590000Y-51880000D02*
X135590000Y-52880000D01*
X137490000Y-51870000D02*
X137490000Y-52870000D01*
X138850000Y-52870000D02*
X138850000Y-51870000D01*
X119642000Y-71800000D02*
X120642000Y-71800000D01*
X120642000Y-70440000D02*
X119642000Y-70440000D01*
X111080000Y-70112000D02*
X111080000Y-71112000D01*
X112440000Y-71112000D02*
X112440000Y-70112000D01*
X128630000Y-126950000D02*
X129630000Y-126950000D01*
X129630000Y-125590000D02*
X128630000Y-125590000D01*
X133310000Y-126950000D02*
X134310000Y-126950000D01*
X134310000Y-125590000D02*
X133310000Y-125590000D01*
X148150000Y-121000000D02*
X147150000Y-121000000D01*
X147150000Y-122360000D02*
X148150000Y-122360000D01*
X152646000Y-94570000D02*
X151646000Y-94570000D01*
X151646000Y-95930000D02*
X152646000Y-95930000D01*
X148240000Y-88330000D02*
X147240000Y-88330000D01*
X147240000Y-89690000D02*
X148240000Y-89690000D01*
X152330000Y-60500000D02*
X151330000Y-60500000D01*
X151330000Y-61860000D02*
X152330000Y-61860000D01*
X144870000Y-50680000D02*
X143070000Y-50680000D01*
X143070000Y-47460000D02*
X146020000Y-47460000D01*
D13*
X139585511Y-101396000D02*
G75*
G03X139585511Y-101396000I-772511J0D01*
G01*
X137670000Y-97840000D02*
X137670000Y-125780000D01*
X137670000Y-125780000D02*
X175770000Y-125780000D01*
X175770000Y-125780000D02*
X175770000Y-97840000D01*
X175770000Y-97840000D02*
X137670000Y-97840000D01*
X139655511Y-67896000D02*
G75*
G03X139655511Y-67896000I-772511J0D01*
G01*
X137740000Y-64340000D02*
X137740000Y-92280000D01*
X137740000Y-92280000D02*
X175840000Y-92280000D01*
X175840000Y-92280000D02*
X175840000Y-64340000D01*
X175840000Y-64340000D02*
X137740000Y-64340000D01*
D14*
X110500000Y-71120000D02*
X110500000Y-70120000D01*
X109140000Y-70120000D02*
X109140000Y-71120000D01*
X84750000Y-44330000D02*
X85750000Y-44330000D01*
X85750000Y-42970000D02*
X84750000Y-42970000D01*
X103260000Y-42790000D02*
X102260000Y-42790000D01*
X102260000Y-44150000D02*
X103260000Y-44150000D01*
X120970000Y-75920000D02*
X121970000Y-75920000D01*
X121970000Y-74560000D02*
X120970000Y-74560000D01*
D13*
X84815000Y-105455000D02*
X84790000Y-105455000D01*
X84815000Y-101305000D02*
X84710000Y-101305000D01*
X74665000Y-101305000D02*
X74770000Y-101305000D01*
X74665000Y-105455000D02*
X74770000Y-105455000D01*
X84815000Y-105455000D02*
X84815000Y-101305000D01*
X74665000Y-105455000D02*
X74665000Y-101305000D01*
X84790000Y-105455000D02*
X84790000Y-106830000D01*
X76365000Y-81625000D02*
X76390000Y-81625000D01*
X76365000Y-85775000D02*
X76470000Y-85775000D01*
X86515000Y-85775000D02*
X86410000Y-85775000D01*
X86515000Y-81625000D02*
X86410000Y-81625000D01*
X76365000Y-81625000D02*
X76365000Y-85775000D01*
X86515000Y-81625000D02*
X86515000Y-85775000D01*
X76390000Y-81625000D02*
X76390000Y-80250000D01*
X99105000Y-57920000D02*
X99105000Y-57895000D01*
X103255000Y-57920000D02*
X103255000Y-57805000D01*
X103255000Y-49020000D02*
X103255000Y-49135000D01*
X99105000Y-49020000D02*
X99105000Y-49135000D01*
X99105000Y-57920000D02*
X103255000Y-57920000D01*
X99105000Y-49020000D02*
X103255000Y-49020000D01*
X99105000Y-57895000D02*
X97730000Y-57895000D01*
X120931905Y-58527381D02*
X120931905Y-59336905D01*
X120884286Y-59432143D01*
X120836667Y-59479762D01*
X120741429Y-59527381D01*
X120550952Y-59527381D01*
X120455714Y-59479762D01*
X120408095Y-59432143D01*
X120360476Y-59336905D01*
X120360476Y-58527381D01*
X119455714Y-58860714D02*
X119455714Y-59527381D01*
X119693810Y-58479762D02*
X119931905Y-59194048D01*
X119312857Y-59194048D01*
X119401905Y-103392381D02*
X119401905Y-104201905D01*
X119354286Y-104297143D01*
X119306667Y-104344762D01*
X119211429Y-104392381D01*
X119020952Y-104392381D01*
X118925714Y-104344762D01*
X118878095Y-104297143D01*
X118830476Y-104201905D01*
X118830476Y-103392381D01*
X117925714Y-103392381D02*
X118116191Y-103392381D01*
X118211429Y-103440000D01*
X118259048Y-103487619D01*
X118354286Y-103630476D01*
X118401905Y-103820952D01*
X118401905Y-104201905D01*
X118354286Y-104297143D01*
X118306667Y-104344762D01*
X118211429Y-104392381D01*
X118020952Y-104392381D01*
X117925714Y-104344762D01*
X117878095Y-104297143D01*
X117830476Y-104201905D01*
X117830476Y-103963810D01*
X117878095Y-103868571D01*
X117925714Y-103820952D01*
X118020952Y-103773333D01*
X118211429Y-103773333D01*
X118306667Y-103820952D01*
X118354286Y-103868571D01*
X118401905Y-103963810D01*
X106751905Y-103627381D02*
X106751905Y-104436905D01*
X106704286Y-104532143D01*
X106656667Y-104579762D01*
X106561429Y-104627381D01*
X106370952Y-104627381D01*
X106275714Y-104579762D01*
X106228095Y-104532143D01*
X106180476Y-104436905D01*
X106180476Y-103627381D01*
X105799524Y-103627381D02*
X105132857Y-103627381D01*
X105561429Y-104627381D01*
X113351905Y-88072381D02*
X113351905Y-88881905D01*
X113304286Y-88977143D01*
X113256667Y-89024762D01*
X113161429Y-89072381D01*
X112970952Y-89072381D01*
X112875714Y-89024762D01*
X112828095Y-88977143D01*
X112780476Y-88881905D01*
X112780476Y-88072381D01*
X112399524Y-88072381D02*
X111780476Y-88072381D01*
X112113810Y-88453333D01*
X111970952Y-88453333D01*
X111875714Y-88500952D01*
X111828095Y-88548571D01*
X111780476Y-88643810D01*
X111780476Y-88881905D01*
X111828095Y-88977143D01*
X111875714Y-89024762D01*
X111970952Y-89072381D01*
X112256667Y-89072381D01*
X112351905Y-89024762D01*
X112399524Y-88977143D01*
X147346666Y-52637143D02*
X147394285Y-52684762D01*
X147537142Y-52732381D01*
X147632380Y-52732381D01*
X147775238Y-52684762D01*
X147870476Y-52589524D01*
X147918095Y-52494286D01*
X147965714Y-52303810D01*
X147965714Y-52160952D01*
X147918095Y-51970476D01*
X147870476Y-51875238D01*
X147775238Y-51780000D01*
X147632380Y-51732381D01*
X147537142Y-51732381D01*
X147394285Y-51780000D01*
X147346666Y-51827619D01*
X146394285Y-52732381D02*
X146965714Y-52732381D01*
X146680000Y-52732381D02*
X146680000Y-51732381D01*
X146775238Y-51875238D01*
X146870476Y-51970476D01*
X146965714Y-52018095D01*
X147526666Y-54627143D02*
X147574285Y-54674762D01*
X147717142Y-54722381D01*
X147812380Y-54722381D01*
X147955238Y-54674762D01*
X148050476Y-54579524D01*
X148098095Y-54484286D01*
X148145714Y-54293810D01*
X148145714Y-54150952D01*
X148098095Y-53960476D01*
X148050476Y-53865238D01*
X147955238Y-53770000D01*
X147812380Y-53722381D01*
X147717142Y-53722381D01*
X147574285Y-53770000D01*
X147526666Y-53817619D01*
X147193333Y-53722381D02*
X146574285Y-53722381D01*
X146907619Y-54103333D01*
X146764761Y-54103333D01*
X146669523Y-54150952D01*
X146621904Y-54198571D01*
X146574285Y-54293810D01*
X146574285Y-54531905D01*
X146621904Y-54627143D01*
X146669523Y-54674762D01*
X146764761Y-54722381D01*
X147050476Y-54722381D01*
X147145714Y-54674762D01*
X147193333Y-54627143D01*
X141476666Y-46787143D02*
X141524285Y-46834762D01*
X141667142Y-46882381D01*
X141762380Y-46882381D01*
X141905238Y-46834762D01*
X142000476Y-46739524D01*
X142048095Y-46644286D01*
X142095714Y-46453810D01*
X142095714Y-46310952D01*
X142048095Y-46120476D01*
X142000476Y-46025238D01*
X141905238Y-45930000D01*
X141762380Y-45882381D01*
X141667142Y-45882381D01*
X141524285Y-45930000D01*
X141476666Y-45977619D01*
X140571904Y-45882381D02*
X141048095Y-45882381D01*
X141095714Y-46358571D01*
X141048095Y-46310952D01*
X140952857Y-46263333D01*
X140714761Y-46263333D01*
X140619523Y-46310952D01*
X140571904Y-46358571D01*
X140524285Y-46453810D01*
X140524285Y-46691905D01*
X140571904Y-46787143D01*
X140619523Y-46834762D01*
X140714761Y-46882381D01*
X140952857Y-46882381D01*
X141048095Y-46834762D01*
X141095714Y-46787143D01*
X134396666Y-50257143D02*
X134444285Y-50304762D01*
X134587142Y-50352381D01*
X134682380Y-50352381D01*
X134825238Y-50304762D01*
X134920476Y-50209524D01*
X134968095Y-50114286D01*
X135015714Y-49923810D01*
X135015714Y-49780952D01*
X134968095Y-49590476D01*
X134920476Y-49495238D01*
X134825238Y-49400000D01*
X134682380Y-49352381D01*
X134587142Y-49352381D01*
X134444285Y-49400000D01*
X134396666Y-49447619D01*
X134063333Y-49352381D02*
X133396666Y-49352381D01*
X133825238Y-50352381D01*
X134326666Y-48787143D02*
X134374285Y-48834762D01*
X134517142Y-48882381D01*
X134612380Y-48882381D01*
X134755238Y-48834762D01*
X134850476Y-48739524D01*
X134898095Y-48644286D01*
X134945714Y-48453810D01*
X134945714Y-48310952D01*
X134898095Y-48120476D01*
X134850476Y-48025238D01*
X134755238Y-47930000D01*
X134612380Y-47882381D01*
X134517142Y-47882381D01*
X134374285Y-47930000D01*
X134326666Y-47977619D01*
X133850476Y-48882381D02*
X133660000Y-48882381D01*
X133564761Y-48834762D01*
X133517142Y-48787143D01*
X133421904Y-48644286D01*
X133374285Y-48453810D01*
X133374285Y-48072857D01*
X133421904Y-47977619D01*
X133469523Y-47930000D01*
X133564761Y-47882381D01*
X133755238Y-47882381D01*
X133850476Y-47930000D01*
X133898095Y-47977619D01*
X133945714Y-48072857D01*
X133945714Y-48310952D01*
X133898095Y-48406190D01*
X133850476Y-48453810D01*
X133755238Y-48501429D01*
X133564761Y-48501429D01*
X133469523Y-48453810D01*
X133421904Y-48406190D01*
X133374285Y-48310952D01*
X106582857Y-68407143D02*
X106630476Y-68454762D01*
X106773333Y-68502381D01*
X106868571Y-68502381D01*
X107011429Y-68454762D01*
X107106667Y-68359524D01*
X107154286Y-68264286D01*
X107201905Y-68073810D01*
X107201905Y-67930952D01*
X107154286Y-67740476D01*
X107106667Y-67645238D01*
X107011429Y-67550000D01*
X106868571Y-67502381D01*
X106773333Y-67502381D01*
X106630476Y-67550000D01*
X106582857Y-67597619D01*
X106201905Y-67597619D02*
X106154286Y-67550000D01*
X106059048Y-67502381D01*
X105820952Y-67502381D01*
X105725714Y-67550000D01*
X105678095Y-67597619D01*
X105630476Y-67692857D01*
X105630476Y-67788095D01*
X105678095Y-67930952D01*
X106249524Y-68502381D01*
X105630476Y-68502381D01*
X105011429Y-67502381D02*
X104916190Y-67502381D01*
X104820952Y-67550000D01*
X104773333Y-67597619D01*
X104725714Y-67692857D01*
X104678095Y-67883333D01*
X104678095Y-68121429D01*
X104725714Y-68311905D01*
X104773333Y-68407143D01*
X104820952Y-68454762D01*
X104916190Y-68502381D01*
X105011429Y-68502381D01*
X105106667Y-68454762D01*
X105154286Y-68407143D01*
X105201905Y-68311905D01*
X105249524Y-68121429D01*
X105249524Y-67883333D01*
X105201905Y-67692857D01*
X105154286Y-67597619D01*
X105106667Y-67550000D01*
X105011429Y-67502381D01*
X119612857Y-77907143D02*
X119660476Y-77954762D01*
X119803333Y-78002381D01*
X119898571Y-78002381D01*
X120041429Y-77954762D01*
X120136667Y-77859524D01*
X120184286Y-77764286D01*
X120231905Y-77573810D01*
X120231905Y-77430952D01*
X120184286Y-77240476D01*
X120136667Y-77145238D01*
X120041429Y-77050000D01*
X119898571Y-77002381D01*
X119803333Y-77002381D01*
X119660476Y-77050000D01*
X119612857Y-77097619D01*
X119231905Y-77097619D02*
X119184286Y-77050000D01*
X119089048Y-77002381D01*
X118850952Y-77002381D01*
X118755714Y-77050000D01*
X118708095Y-77097619D01*
X118660476Y-77192857D01*
X118660476Y-77288095D01*
X118708095Y-77430952D01*
X119279524Y-78002381D01*
X118660476Y-78002381D01*
X117708095Y-78002381D02*
X118279524Y-78002381D01*
X117993810Y-78002381D02*
X117993810Y-77002381D01*
X118089048Y-77145238D01*
X118184286Y-77240476D01*
X118279524Y-77288095D01*
X121462857Y-84827143D02*
X121510476Y-84874762D01*
X121653333Y-84922381D01*
X121748571Y-84922381D01*
X121891429Y-84874762D01*
X121986667Y-84779524D01*
X122034286Y-84684286D01*
X122081905Y-84493810D01*
X122081905Y-84350952D01*
X122034286Y-84160476D01*
X121986667Y-84065238D01*
X121891429Y-83970000D01*
X121748571Y-83922381D01*
X121653333Y-83922381D01*
X121510476Y-83970000D01*
X121462857Y-84017619D01*
X121081905Y-84017619D02*
X121034286Y-83970000D01*
X120939048Y-83922381D01*
X120700952Y-83922381D01*
X120605714Y-83970000D01*
X120558095Y-84017619D01*
X120510476Y-84112857D01*
X120510476Y-84208095D01*
X120558095Y-84350952D01*
X121129524Y-84922381D01*
X120510476Y-84922381D01*
X120129524Y-84017619D02*
X120081905Y-83970000D01*
X119986667Y-83922381D01*
X119748571Y-83922381D01*
X119653333Y-83970000D01*
X119605714Y-84017619D01*
X119558095Y-84112857D01*
X119558095Y-84208095D01*
X119605714Y-84350952D01*
X120177143Y-84922381D01*
X119558095Y-84922381D01*
X110232857Y-93867143D02*
X110280476Y-93914762D01*
X110423333Y-93962381D01*
X110518571Y-93962381D01*
X110661429Y-93914762D01*
X110756667Y-93819524D01*
X110804286Y-93724286D01*
X110851905Y-93533810D01*
X110851905Y-93390952D01*
X110804286Y-93200476D01*
X110756667Y-93105238D01*
X110661429Y-93010000D01*
X110518571Y-92962381D01*
X110423333Y-92962381D01*
X110280476Y-93010000D01*
X110232857Y-93057619D01*
X109851905Y-93057619D02*
X109804286Y-93010000D01*
X109709048Y-92962381D01*
X109470952Y-92962381D01*
X109375714Y-93010000D01*
X109328095Y-93057619D01*
X109280476Y-93152857D01*
X109280476Y-93248095D01*
X109328095Y-93390952D01*
X109899524Y-93962381D01*
X109280476Y-93962381D01*
X108947143Y-92962381D02*
X108328095Y-92962381D01*
X108661429Y-93343333D01*
X108518571Y-93343333D01*
X108423333Y-93390952D01*
X108375714Y-93438571D01*
X108328095Y-93533810D01*
X108328095Y-93771905D01*
X108375714Y-93867143D01*
X108423333Y-93914762D01*
X108518571Y-93962381D01*
X108804286Y-93962381D01*
X108899524Y-93914762D01*
X108947143Y-93867143D01*
X95912857Y-83197143D02*
X95960476Y-83244762D01*
X96103333Y-83292381D01*
X96198571Y-83292381D01*
X96341429Y-83244762D01*
X96436667Y-83149524D01*
X96484286Y-83054286D01*
X96531905Y-82863810D01*
X96531905Y-82720952D01*
X96484286Y-82530476D01*
X96436667Y-82435238D01*
X96341429Y-82340000D01*
X96198571Y-82292381D01*
X96103333Y-82292381D01*
X95960476Y-82340000D01*
X95912857Y-82387619D01*
X95531905Y-82387619D02*
X95484286Y-82340000D01*
X95389048Y-82292381D01*
X95150952Y-82292381D01*
X95055714Y-82340000D01*
X95008095Y-82387619D01*
X94960476Y-82482857D01*
X94960476Y-82578095D01*
X95008095Y-82720952D01*
X95579524Y-83292381D01*
X94960476Y-83292381D01*
X94103333Y-82625714D02*
X94103333Y-83292381D01*
X94341429Y-82244762D02*
X94579524Y-82959048D01*
X93960476Y-82959048D01*
X83432857Y-75827143D02*
X83480476Y-75874762D01*
X83623333Y-75922381D01*
X83718571Y-75922381D01*
X83861429Y-75874762D01*
X83956667Y-75779524D01*
X84004286Y-75684286D01*
X84051905Y-75493810D01*
X84051905Y-75350952D01*
X84004286Y-75160476D01*
X83956667Y-75065238D01*
X83861429Y-74970000D01*
X83718571Y-74922381D01*
X83623333Y-74922381D01*
X83480476Y-74970000D01*
X83432857Y-75017619D01*
X83051905Y-75017619D02*
X83004286Y-74970000D01*
X82909048Y-74922381D01*
X82670952Y-74922381D01*
X82575714Y-74970000D01*
X82528095Y-75017619D01*
X82480476Y-75112857D01*
X82480476Y-75208095D01*
X82528095Y-75350952D01*
X83099524Y-75922381D01*
X82480476Y-75922381D01*
X81575714Y-74922381D02*
X82051905Y-74922381D01*
X82099524Y-75398571D01*
X82051905Y-75350952D01*
X81956667Y-75303333D01*
X81718571Y-75303333D01*
X81623333Y-75350952D01*
X81575714Y-75398571D01*
X81528095Y-75493810D01*
X81528095Y-75731905D01*
X81575714Y-75827143D01*
X81623333Y-75874762D01*
X81718571Y-75922381D01*
X81956667Y-75922381D01*
X82051905Y-75874762D01*
X82099524Y-75827143D01*
X71862857Y-72357143D02*
X71910476Y-72404762D01*
X72053333Y-72452381D01*
X72148571Y-72452381D01*
X72291429Y-72404762D01*
X72386667Y-72309524D01*
X72434286Y-72214286D01*
X72481905Y-72023810D01*
X72481905Y-71880952D01*
X72434286Y-71690476D01*
X72386667Y-71595238D01*
X72291429Y-71500000D01*
X72148571Y-71452381D01*
X72053333Y-71452381D01*
X71910476Y-71500000D01*
X71862857Y-71547619D01*
X71481905Y-71547619D02*
X71434286Y-71500000D01*
X71339048Y-71452381D01*
X71100952Y-71452381D01*
X71005714Y-71500000D01*
X70958095Y-71547619D01*
X70910476Y-71642857D01*
X70910476Y-71738095D01*
X70958095Y-71880952D01*
X71529524Y-72452381D01*
X70910476Y-72452381D01*
X70053333Y-71452381D02*
X70243810Y-71452381D01*
X70339048Y-71500000D01*
X70386667Y-71547619D01*
X70481905Y-71690476D01*
X70529524Y-71880952D01*
X70529524Y-72261905D01*
X70481905Y-72357143D01*
X70434286Y-72404762D01*
X70339048Y-72452381D01*
X70148571Y-72452381D01*
X70053333Y-72404762D01*
X70005714Y-72357143D01*
X69958095Y-72261905D01*
X69958095Y-72023810D01*
X70005714Y-71928571D01*
X70053333Y-71880952D01*
X70148571Y-71833333D01*
X70339048Y-71833333D01*
X70434286Y-71880952D01*
X70481905Y-71928571D01*
X70529524Y-72023810D01*
X71562857Y-68297143D02*
X71610476Y-68344762D01*
X71753333Y-68392381D01*
X71848571Y-68392381D01*
X71991429Y-68344762D01*
X72086667Y-68249524D01*
X72134286Y-68154286D01*
X72181905Y-67963810D01*
X72181905Y-67820952D01*
X72134286Y-67630476D01*
X72086667Y-67535238D01*
X71991429Y-67440000D01*
X71848571Y-67392381D01*
X71753333Y-67392381D01*
X71610476Y-67440000D01*
X71562857Y-67487619D01*
X71181905Y-67487619D02*
X71134286Y-67440000D01*
X71039048Y-67392381D01*
X70800952Y-67392381D01*
X70705714Y-67440000D01*
X70658095Y-67487619D01*
X70610476Y-67582857D01*
X70610476Y-67678095D01*
X70658095Y-67820952D01*
X71229524Y-68392381D01*
X70610476Y-68392381D01*
X70277143Y-67392381D02*
X69610476Y-67392381D01*
X70039048Y-68392381D01*
X73032857Y-89927143D02*
X73080476Y-89974762D01*
X73223333Y-90022381D01*
X73318571Y-90022381D01*
X73461429Y-89974762D01*
X73556667Y-89879524D01*
X73604286Y-89784286D01*
X73651905Y-89593810D01*
X73651905Y-89450952D01*
X73604286Y-89260476D01*
X73556667Y-89165238D01*
X73461429Y-89070000D01*
X73318571Y-89022381D01*
X73223333Y-89022381D01*
X73080476Y-89070000D01*
X73032857Y-89117619D01*
X72651905Y-89117619D02*
X72604286Y-89070000D01*
X72509048Y-89022381D01*
X72270952Y-89022381D01*
X72175714Y-89070000D01*
X72128095Y-89117619D01*
X72080476Y-89212857D01*
X72080476Y-89308095D01*
X72128095Y-89450952D01*
X72699524Y-90022381D01*
X72080476Y-90022381D01*
X71509048Y-89450952D02*
X71604286Y-89403333D01*
X71651905Y-89355714D01*
X71699524Y-89260476D01*
X71699524Y-89212857D01*
X71651905Y-89117619D01*
X71604286Y-89070000D01*
X71509048Y-89022381D01*
X71318571Y-89022381D01*
X71223333Y-89070000D01*
X71175714Y-89117619D01*
X71128095Y-89212857D01*
X71128095Y-89260476D01*
X71175714Y-89355714D01*
X71223333Y-89403333D01*
X71318571Y-89450952D01*
X71509048Y-89450952D01*
X71604286Y-89498571D01*
X71651905Y-89546190D01*
X71699524Y-89641429D01*
X71699524Y-89831905D01*
X71651905Y-89927143D01*
X71604286Y-89974762D01*
X71509048Y-90022381D01*
X71318571Y-90022381D01*
X71223333Y-89974762D01*
X71175714Y-89927143D01*
X71128095Y-89831905D01*
X71128095Y-89641429D01*
X71175714Y-89546190D01*
X71223333Y-89498571D01*
X71318571Y-89450952D01*
X82422857Y-118097143D02*
X82470476Y-118144762D01*
X82613333Y-118192381D01*
X82708571Y-118192381D01*
X82851429Y-118144762D01*
X82946667Y-118049524D01*
X82994286Y-117954286D01*
X83041905Y-117763810D01*
X83041905Y-117620952D01*
X82994286Y-117430476D01*
X82946667Y-117335238D01*
X82851429Y-117240000D01*
X82708571Y-117192381D01*
X82613333Y-117192381D01*
X82470476Y-117240000D01*
X82422857Y-117287619D01*
X82041905Y-117287619D02*
X81994286Y-117240000D01*
X81899048Y-117192381D01*
X81660952Y-117192381D01*
X81565714Y-117240000D01*
X81518095Y-117287619D01*
X81470476Y-117382857D01*
X81470476Y-117478095D01*
X81518095Y-117620952D01*
X82089524Y-118192381D01*
X81470476Y-118192381D01*
X80994286Y-118192381D02*
X80803810Y-118192381D01*
X80708571Y-118144762D01*
X80660952Y-118097143D01*
X80565714Y-117954286D01*
X80518095Y-117763810D01*
X80518095Y-117382857D01*
X80565714Y-117287619D01*
X80613333Y-117240000D01*
X80708571Y-117192381D01*
X80899048Y-117192381D01*
X80994286Y-117240000D01*
X81041905Y-117287619D01*
X81089524Y-117382857D01*
X81089524Y-117620952D01*
X81041905Y-117716190D01*
X80994286Y-117763810D01*
X80899048Y-117811429D01*
X80708571Y-117811429D01*
X80613333Y-117763810D01*
X80565714Y-117716190D01*
X80518095Y-117620952D01*
X82392857Y-114287143D02*
X82440476Y-114334762D01*
X82583333Y-114382381D01*
X82678571Y-114382381D01*
X82821429Y-114334762D01*
X82916667Y-114239524D01*
X82964286Y-114144286D01*
X83011905Y-113953810D01*
X83011905Y-113810952D01*
X82964286Y-113620476D01*
X82916667Y-113525238D01*
X82821429Y-113430000D01*
X82678571Y-113382381D01*
X82583333Y-113382381D01*
X82440476Y-113430000D01*
X82392857Y-113477619D01*
X82059524Y-113382381D02*
X81440476Y-113382381D01*
X81773810Y-113763333D01*
X81630952Y-113763333D01*
X81535714Y-113810952D01*
X81488095Y-113858571D01*
X81440476Y-113953810D01*
X81440476Y-114191905D01*
X81488095Y-114287143D01*
X81535714Y-114334762D01*
X81630952Y-114382381D01*
X81916667Y-114382381D01*
X82011905Y-114334762D01*
X82059524Y-114287143D01*
X80821429Y-113382381D02*
X80726190Y-113382381D01*
X80630952Y-113430000D01*
X80583333Y-113477619D01*
X80535714Y-113572857D01*
X80488095Y-113763333D01*
X80488095Y-114001429D01*
X80535714Y-114191905D01*
X80583333Y-114287143D01*
X80630952Y-114334762D01*
X80726190Y-114382381D01*
X80821429Y-114382381D01*
X80916667Y-114334762D01*
X80964286Y-114287143D01*
X81011905Y-114191905D01*
X81059524Y-114001429D01*
X81059524Y-113763333D01*
X81011905Y-113572857D01*
X80964286Y-113477619D01*
X80916667Y-113430000D01*
X80821429Y-113382381D01*
X82482857Y-110997143D02*
X82530476Y-111044762D01*
X82673333Y-111092381D01*
X82768571Y-111092381D01*
X82911429Y-111044762D01*
X83006667Y-110949524D01*
X83054286Y-110854286D01*
X83101905Y-110663810D01*
X83101905Y-110520952D01*
X83054286Y-110330476D01*
X83006667Y-110235238D01*
X82911429Y-110140000D01*
X82768571Y-110092381D01*
X82673333Y-110092381D01*
X82530476Y-110140000D01*
X82482857Y-110187619D01*
X82149524Y-110092381D02*
X81530476Y-110092381D01*
X81863810Y-110473333D01*
X81720952Y-110473333D01*
X81625714Y-110520952D01*
X81578095Y-110568571D01*
X81530476Y-110663810D01*
X81530476Y-110901905D01*
X81578095Y-110997143D01*
X81625714Y-111044762D01*
X81720952Y-111092381D01*
X82006667Y-111092381D01*
X82101905Y-111044762D01*
X82149524Y-110997143D01*
X80578095Y-111092381D02*
X81149524Y-111092381D01*
X80863810Y-111092381D02*
X80863810Y-110092381D01*
X80959048Y-110235238D01*
X81054286Y-110330476D01*
X81149524Y-110378095D01*
X90022857Y-105687143D02*
X90070476Y-105734762D01*
X90213333Y-105782381D01*
X90308571Y-105782381D01*
X90451429Y-105734762D01*
X90546667Y-105639524D01*
X90594286Y-105544286D01*
X90641905Y-105353810D01*
X90641905Y-105210952D01*
X90594286Y-105020476D01*
X90546667Y-104925238D01*
X90451429Y-104830000D01*
X90308571Y-104782381D01*
X90213333Y-104782381D01*
X90070476Y-104830000D01*
X90022857Y-104877619D01*
X89689524Y-104782381D02*
X89070476Y-104782381D01*
X89403810Y-105163333D01*
X89260952Y-105163333D01*
X89165714Y-105210952D01*
X89118095Y-105258571D01*
X89070476Y-105353810D01*
X89070476Y-105591905D01*
X89118095Y-105687143D01*
X89165714Y-105734762D01*
X89260952Y-105782381D01*
X89546667Y-105782381D01*
X89641905Y-105734762D01*
X89689524Y-105687143D01*
X88689524Y-104877619D02*
X88641905Y-104830000D01*
X88546667Y-104782381D01*
X88308571Y-104782381D01*
X88213333Y-104830000D01*
X88165714Y-104877619D01*
X88118095Y-104972857D01*
X88118095Y-105068095D01*
X88165714Y-105210952D01*
X88737143Y-105782381D01*
X88118095Y-105782381D01*
X136416666Y-38022381D02*
X136892857Y-38022381D01*
X136892857Y-37022381D01*
X135559523Y-38022381D02*
X136130952Y-38022381D01*
X135845238Y-38022381D02*
X135845238Y-37022381D01*
X135940476Y-37165238D01*
X136035714Y-37260476D01*
X136130952Y-37308095D01*
X136206666Y-55682381D02*
X136540000Y-55206190D01*
X136778095Y-55682381D02*
X136778095Y-54682381D01*
X136397142Y-54682381D01*
X136301904Y-54730000D01*
X136254285Y-54777619D01*
X136206666Y-54872857D01*
X136206666Y-55015714D01*
X136254285Y-55110952D01*
X136301904Y-55158571D01*
X136397142Y-55206190D01*
X136778095Y-55206190D01*
X135254285Y-55682381D02*
X135825714Y-55682381D01*
X135540000Y-55682381D02*
X135540000Y-54682381D01*
X135635238Y-54825238D01*
X135730476Y-54920476D01*
X135825714Y-54968095D01*
X138446666Y-55682381D02*
X138780000Y-55206190D01*
X139018095Y-55682381D02*
X139018095Y-54682381D01*
X138637142Y-54682381D01*
X138541904Y-54730000D01*
X138494285Y-54777619D01*
X138446666Y-54872857D01*
X138446666Y-55015714D01*
X138494285Y-55110952D01*
X138541904Y-55158571D01*
X138637142Y-55206190D01*
X139018095Y-55206190D01*
X138065714Y-54777619D02*
X138018095Y-54730000D01*
X137922857Y-54682381D01*
X137684761Y-54682381D01*
X137589523Y-54730000D01*
X137541904Y-54777619D01*
X137494285Y-54872857D01*
X137494285Y-54968095D01*
X137541904Y-55110952D01*
X138113333Y-55682381D01*
X137494285Y-55682381D01*
X120316666Y-69912381D02*
X120650000Y-69436190D01*
X120888095Y-69912381D02*
X120888095Y-68912381D01*
X120507142Y-68912381D01*
X120411904Y-68960000D01*
X120364285Y-69007619D01*
X120316666Y-69102857D01*
X120316666Y-69245714D01*
X120364285Y-69340952D01*
X120411904Y-69388571D01*
X120507142Y-69436190D01*
X120888095Y-69436190D01*
X119411904Y-68912381D02*
X119888095Y-68912381D01*
X119935714Y-69388571D01*
X119888095Y-69340952D01*
X119792857Y-69293333D01*
X119554761Y-69293333D01*
X119459523Y-69340952D01*
X119411904Y-69388571D01*
X119364285Y-69483810D01*
X119364285Y-69721905D01*
X119411904Y-69817143D01*
X119459523Y-69864762D01*
X119554761Y-69912381D01*
X119792857Y-69912381D01*
X119888095Y-69864762D01*
X119935714Y-69817143D01*
X111816666Y-68222381D02*
X112150000Y-67746190D01*
X112388095Y-68222381D02*
X112388095Y-67222381D01*
X112007142Y-67222381D01*
X111911904Y-67270000D01*
X111864285Y-67317619D01*
X111816666Y-67412857D01*
X111816666Y-67555714D01*
X111864285Y-67650952D01*
X111911904Y-67698571D01*
X112007142Y-67746190D01*
X112388095Y-67746190D01*
X110959523Y-67222381D02*
X111150000Y-67222381D01*
X111245238Y-67270000D01*
X111292857Y-67317619D01*
X111388095Y-67460476D01*
X111435714Y-67650952D01*
X111435714Y-68031905D01*
X111388095Y-68127143D01*
X111340476Y-68174762D01*
X111245238Y-68222381D01*
X111054761Y-68222381D01*
X110959523Y-68174762D01*
X110911904Y-68127143D01*
X110864285Y-68031905D01*
X110864285Y-67793810D01*
X110911904Y-67698571D01*
X110959523Y-67650952D01*
X111054761Y-67603333D01*
X111245238Y-67603333D01*
X111340476Y-67650952D01*
X111388095Y-67698571D01*
X111435714Y-67793810D01*
X129096666Y-125112381D02*
X129430000Y-124636190D01*
X129668095Y-125112381D02*
X129668095Y-124112381D01*
X129287142Y-124112381D01*
X129191904Y-124160000D01*
X129144285Y-124207619D01*
X129096666Y-124302857D01*
X129096666Y-124445714D01*
X129144285Y-124540952D01*
X129191904Y-124588571D01*
X129287142Y-124636190D01*
X129668095Y-124636190D01*
X128525238Y-124540952D02*
X128620476Y-124493333D01*
X128668095Y-124445714D01*
X128715714Y-124350476D01*
X128715714Y-124302857D01*
X128668095Y-124207619D01*
X128620476Y-124160000D01*
X128525238Y-124112381D01*
X128334761Y-124112381D01*
X128239523Y-124160000D01*
X128191904Y-124207619D01*
X128144285Y-124302857D01*
X128144285Y-124350476D01*
X128191904Y-124445714D01*
X128239523Y-124493333D01*
X128334761Y-124540952D01*
X128525238Y-124540952D01*
X128620476Y-124588571D01*
X128668095Y-124636190D01*
X128715714Y-124731429D01*
X128715714Y-124921905D01*
X128668095Y-125017143D01*
X128620476Y-125064762D01*
X128525238Y-125112381D01*
X128334761Y-125112381D01*
X128239523Y-125064762D01*
X128191904Y-125017143D01*
X128144285Y-124921905D01*
X128144285Y-124731429D01*
X128191904Y-124636190D01*
X128239523Y-124588571D01*
X128334761Y-124540952D01*
X134006666Y-125052381D02*
X134340000Y-124576190D01*
X134578095Y-125052381D02*
X134578095Y-124052381D01*
X134197142Y-124052381D01*
X134101904Y-124100000D01*
X134054285Y-124147619D01*
X134006666Y-124242857D01*
X134006666Y-124385714D01*
X134054285Y-124480952D01*
X134101904Y-124528571D01*
X134197142Y-124576190D01*
X134578095Y-124576190D01*
X133530476Y-125052381D02*
X133340000Y-125052381D01*
X133244761Y-125004762D01*
X133197142Y-124957143D01*
X133101904Y-124814286D01*
X133054285Y-124623810D01*
X133054285Y-124242857D01*
X133101904Y-124147619D01*
X133149523Y-124100000D01*
X133244761Y-124052381D01*
X133435238Y-124052381D01*
X133530476Y-124100000D01*
X133578095Y-124147619D01*
X133625714Y-124242857D01*
X133625714Y-124480952D01*
X133578095Y-124576190D01*
X133530476Y-124623810D01*
X133435238Y-124671429D01*
X133244761Y-124671429D01*
X133149523Y-124623810D01*
X133101904Y-124576190D01*
X133054285Y-124480952D01*
X151848857Y-122132381D02*
X152182191Y-121656190D01*
X152420286Y-122132381D02*
X152420286Y-121132381D01*
X152039333Y-121132381D01*
X151944095Y-121180000D01*
X151896476Y-121227619D01*
X151848857Y-121322857D01*
X151848857Y-121465714D01*
X151896476Y-121560952D01*
X151944095Y-121608571D01*
X152039333Y-121656190D01*
X152420286Y-121656190D01*
X150896476Y-122132381D02*
X151467905Y-122132381D01*
X151182191Y-122132381D02*
X151182191Y-121132381D01*
X151277429Y-121275238D01*
X151372667Y-121370476D01*
X151467905Y-121418095D01*
X150277429Y-121132381D02*
X150182190Y-121132381D01*
X150086952Y-121180000D01*
X150039333Y-121227619D01*
X149991714Y-121322857D01*
X149944095Y-121513333D01*
X149944095Y-121751429D01*
X149991714Y-121941905D01*
X150039333Y-122037143D01*
X150086952Y-122084762D01*
X150182190Y-122132381D01*
X150277429Y-122132381D01*
X150372667Y-122084762D01*
X150420286Y-122037143D01*
X150467905Y-121941905D01*
X150515524Y-121751429D01*
X150515524Y-121513333D01*
X150467905Y-121322857D01*
X150420286Y-121227619D01*
X150372667Y-121180000D01*
X150277429Y-121132381D01*
X152788857Y-94152381D02*
X153122191Y-93676190D01*
X153360286Y-94152381D02*
X153360286Y-93152381D01*
X152979333Y-93152381D01*
X152884095Y-93200000D01*
X152836476Y-93247619D01*
X152788857Y-93342857D01*
X152788857Y-93485714D01*
X152836476Y-93580952D01*
X152884095Y-93628571D01*
X152979333Y-93676190D01*
X153360286Y-93676190D01*
X151836476Y-94152381D02*
X152407905Y-94152381D01*
X152122191Y-94152381D02*
X152122191Y-93152381D01*
X152217429Y-93295238D01*
X152312667Y-93390476D01*
X152407905Y-93438095D01*
X150884095Y-94152381D02*
X151455524Y-94152381D01*
X151169810Y-94152381D02*
X151169810Y-93152381D01*
X151265048Y-93295238D01*
X151360286Y-93390476D01*
X151455524Y-93438095D01*
X152012857Y-89452381D02*
X152346191Y-88976190D01*
X152584286Y-89452381D02*
X152584286Y-88452381D01*
X152203333Y-88452381D01*
X152108095Y-88500000D01*
X152060476Y-88547619D01*
X152012857Y-88642857D01*
X152012857Y-88785714D01*
X152060476Y-88880952D01*
X152108095Y-88928571D01*
X152203333Y-88976190D01*
X152584286Y-88976190D01*
X151060476Y-89452381D02*
X151631905Y-89452381D01*
X151346191Y-89452381D02*
X151346191Y-88452381D01*
X151441429Y-88595238D01*
X151536667Y-88690476D01*
X151631905Y-88738095D01*
X150679524Y-88547619D02*
X150631905Y-88500000D01*
X150536667Y-88452381D01*
X150298571Y-88452381D01*
X150203333Y-88500000D01*
X150155714Y-88547619D01*
X150108095Y-88642857D01*
X150108095Y-88738095D01*
X150155714Y-88880952D01*
X150727143Y-89452381D01*
X150108095Y-89452381D01*
X156272857Y-61642381D02*
X156606191Y-61166190D01*
X156844286Y-61642381D02*
X156844286Y-60642381D01*
X156463333Y-60642381D01*
X156368095Y-60690000D01*
X156320476Y-60737619D01*
X156272857Y-60832857D01*
X156272857Y-60975714D01*
X156320476Y-61070952D01*
X156368095Y-61118571D01*
X156463333Y-61166190D01*
X156844286Y-61166190D01*
X155320476Y-61642381D02*
X155891905Y-61642381D01*
X155606191Y-61642381D02*
X155606191Y-60642381D01*
X155701429Y-60785238D01*
X155796667Y-60880476D01*
X155891905Y-60928095D01*
X154987143Y-60642381D02*
X154368095Y-60642381D01*
X154701429Y-61023333D01*
X154558571Y-61023333D01*
X154463333Y-61070952D01*
X154415714Y-61118571D01*
X154368095Y-61213810D01*
X154368095Y-61451905D01*
X154415714Y-61547143D01*
X154463333Y-61594762D01*
X154558571Y-61642381D01*
X154844286Y-61642381D01*
X154939524Y-61594762D01*
X154987143Y-61547143D01*
X148211905Y-49512381D02*
X148211905Y-50321905D01*
X148164286Y-50417143D01*
X148116667Y-50464762D01*
X148021429Y-50512381D01*
X147830952Y-50512381D01*
X147735714Y-50464762D01*
X147688095Y-50417143D01*
X147640476Y-50321905D01*
X147640476Y-49512381D01*
X146640476Y-50512381D02*
X147211905Y-50512381D01*
X146926191Y-50512381D02*
X146926191Y-49512381D01*
X147021429Y-49655238D01*
X147116667Y-49750476D01*
X147211905Y-49798095D01*
X134582381Y-100888095D02*
X135391905Y-100888095D01*
X135487143Y-100935714D01*
X135534762Y-100983333D01*
X135582381Y-101078571D01*
X135582381Y-101269048D01*
X135534762Y-101364286D01*
X135487143Y-101411905D01*
X135391905Y-101459524D01*
X134582381Y-101459524D01*
X135010952Y-102078571D02*
X134963333Y-101983333D01*
X134915714Y-101935714D01*
X134820476Y-101888095D01*
X134772857Y-101888095D01*
X134677619Y-101935714D01*
X134630000Y-101983333D01*
X134582381Y-102078571D01*
X134582381Y-102269048D01*
X134630000Y-102364286D01*
X134677619Y-102411905D01*
X134772857Y-102459524D01*
X134820476Y-102459524D01*
X134915714Y-102411905D01*
X134963333Y-102364286D01*
X135010952Y-102269048D01*
X135010952Y-102078571D01*
X135058571Y-101983333D01*
X135106190Y-101935714D01*
X135201429Y-101888095D01*
X135391905Y-101888095D01*
X135487143Y-101935714D01*
X135534762Y-101983333D01*
X135582381Y-102078571D01*
X135582381Y-102269048D01*
X135534762Y-102364286D01*
X135487143Y-102411905D01*
X135391905Y-102459524D01*
X135201429Y-102459524D01*
X135106190Y-102411905D01*
X135058571Y-102364286D01*
X135010952Y-102269048D01*
X140922381Y-120673809D02*
X140922381Y-120864286D01*
X140970000Y-120959524D01*
X141065238Y-121054762D01*
X141255714Y-121102381D01*
X141589048Y-121102381D01*
X141779524Y-121054762D01*
X141874762Y-120959524D01*
X141922381Y-120864286D01*
X141922381Y-120673809D01*
X141874762Y-120578571D01*
X141779524Y-120483333D01*
X141589048Y-120435714D01*
X141255714Y-120435714D01*
X141065238Y-120483333D01*
X140970000Y-120578571D01*
X140922381Y-120673809D01*
X141922381Y-121530952D02*
X140922381Y-121530952D01*
X141922381Y-122102381D02*
X141350952Y-121673809D01*
X140922381Y-122102381D02*
X141493810Y-121530952D01*
X140922381Y-122388095D02*
X140922381Y-122959524D01*
X141922381Y-122673809D02*
X140922381Y-122673809D01*
X145872381Y-117750476D02*
X146872381Y-117988571D01*
X146158095Y-118179048D01*
X146872381Y-118369524D01*
X145872381Y-118607619D01*
X146872381Y-119464762D02*
X146872381Y-118988571D01*
X145872381Y-118988571D01*
X146824762Y-119750476D02*
X146872381Y-119893333D01*
X146872381Y-120131429D01*
X146824762Y-120226667D01*
X146777143Y-120274286D01*
X146681905Y-120321905D01*
X146586667Y-120321905D01*
X146491429Y-120274286D01*
X146443810Y-120226667D01*
X146396190Y-120131429D01*
X146348571Y-119940952D01*
X146300952Y-119845714D01*
X146253333Y-119798095D01*
X146158095Y-119750476D01*
X146062857Y-119750476D01*
X145967619Y-119798095D01*
X145920000Y-119845714D01*
X145872381Y-119940952D01*
X145872381Y-120179048D01*
X145920000Y-120321905D01*
X149177143Y-118489524D02*
X149224762Y-118441905D01*
X149272381Y-118299048D01*
X149272381Y-118203810D01*
X149224762Y-118060952D01*
X149129524Y-117965714D01*
X149034286Y-117918095D01*
X148843810Y-117870476D01*
X148700952Y-117870476D01*
X148510476Y-117918095D01*
X148415238Y-117965714D01*
X148320000Y-118060952D01*
X148272381Y-118203810D01*
X148272381Y-118299048D01*
X148320000Y-118441905D01*
X148367619Y-118489524D01*
X149272381Y-119489524D02*
X148796190Y-119156190D01*
X149272381Y-118918095D02*
X148272381Y-118918095D01*
X148272381Y-119299048D01*
X148320000Y-119394286D01*
X148367619Y-119441905D01*
X148462857Y-119489524D01*
X148605714Y-119489524D01*
X148700952Y-119441905D01*
X148748571Y-119394286D01*
X148796190Y-119299048D01*
X148796190Y-118918095D01*
X149272381Y-119918095D02*
X148272381Y-119918095D01*
X148272381Y-120156190D01*
X148320000Y-120299048D01*
X148415238Y-120394286D01*
X148510476Y-120441905D01*
X148700952Y-120489524D01*
X148843810Y-120489524D01*
X149034286Y-120441905D01*
X149129524Y-120394286D01*
X149224762Y-120299048D01*
X149272381Y-120156190D01*
X149272381Y-119918095D01*
X150720000Y-118528096D02*
X150672381Y-118432858D01*
X150672381Y-118290001D01*
X150720000Y-118147143D01*
X150815238Y-118051905D01*
X150910476Y-118004286D01*
X151100952Y-117956667D01*
X151243810Y-117956667D01*
X151434286Y-118004286D01*
X151529524Y-118051905D01*
X151624762Y-118147143D01*
X151672381Y-118290001D01*
X151672381Y-118385239D01*
X151624762Y-118528096D01*
X151577143Y-118575715D01*
X151243810Y-118575715D01*
X151243810Y-118385239D01*
X151672381Y-119004286D02*
X150672381Y-119004286D01*
X151672381Y-119575715D01*
X150672381Y-119575715D01*
X151672381Y-120051905D02*
X150672381Y-120051905D01*
X150672381Y-120290000D01*
X150720000Y-120432858D01*
X150815238Y-120528096D01*
X150910476Y-120575715D01*
X151100952Y-120623334D01*
X151243810Y-120623334D01*
X151434286Y-120575715D01*
X151529524Y-120528096D01*
X151624762Y-120432858D01*
X151672381Y-120290000D01*
X151672381Y-120051905D01*
X152922381Y-118455714D02*
X153922381Y-118789047D01*
X152922381Y-119122381D01*
X153874762Y-119408095D02*
X153922381Y-119550952D01*
X153922381Y-119789048D01*
X153874762Y-119884286D01*
X153827143Y-119931905D01*
X153731905Y-119979524D01*
X153636667Y-119979524D01*
X153541429Y-119931905D01*
X153493810Y-119884286D01*
X153446190Y-119789048D01*
X153398571Y-119598571D01*
X153350952Y-119503333D01*
X153303333Y-119455714D01*
X153208095Y-119408095D01*
X153112857Y-119408095D01*
X153017619Y-119455714D01*
X152970000Y-119503333D01*
X152922381Y-119598571D01*
X152922381Y-119836667D01*
X152970000Y-119979524D01*
X153922381Y-120884286D02*
X153922381Y-120408095D01*
X152922381Y-120408095D01*
X158652381Y-120170476D02*
X159652381Y-120503809D01*
X158652381Y-120837143D01*
X159604762Y-121122857D02*
X159652381Y-121265714D01*
X159652381Y-121503810D01*
X159604762Y-121599048D01*
X159557143Y-121646667D01*
X159461905Y-121694286D01*
X159366667Y-121694286D01*
X159271429Y-121646667D01*
X159223810Y-121599048D01*
X159176190Y-121503810D01*
X159128571Y-121313333D01*
X159080952Y-121218095D01*
X159033333Y-121170476D01*
X158938095Y-121122857D01*
X158842857Y-121122857D01*
X158747619Y-121170476D01*
X158700000Y-121218095D01*
X158652381Y-121313333D01*
X158652381Y-121551429D01*
X158700000Y-121694286D01*
X159652381Y-122122857D02*
X158652381Y-122122857D01*
X158652381Y-122503810D01*
X158700000Y-122599048D01*
X158747619Y-122646667D01*
X158842857Y-122694286D01*
X158985714Y-122694286D01*
X159080952Y-122646667D01*
X159128571Y-122599048D01*
X159176190Y-122503810D01*
X159176190Y-122122857D01*
X161130000Y-119858096D02*
X161082381Y-119762858D01*
X161082381Y-119620001D01*
X161130000Y-119477143D01*
X161225238Y-119381905D01*
X161320476Y-119334286D01*
X161510952Y-119286667D01*
X161653810Y-119286667D01*
X161844286Y-119334286D01*
X161939524Y-119381905D01*
X162034762Y-119477143D01*
X162082381Y-119620001D01*
X162082381Y-119715239D01*
X162034762Y-119858096D01*
X161987143Y-119905715D01*
X161653810Y-119905715D01*
X161653810Y-119715239D01*
X162082381Y-120334286D02*
X161082381Y-120334286D01*
X162082381Y-120905715D01*
X161082381Y-120905715D01*
X162082381Y-121381905D02*
X161082381Y-121381905D01*
X161082381Y-121620000D01*
X161130000Y-121762858D01*
X161225238Y-121858096D01*
X161320476Y-121905715D01*
X161510952Y-121953334D01*
X161653810Y-121953334D01*
X161844286Y-121905715D01*
X161939524Y-121858096D01*
X162034762Y-121762858D01*
X162082381Y-121620000D01*
X162082381Y-121381905D01*
X162082381Y-122381905D02*
X161082381Y-122381905D01*
X161082381Y-122762858D01*
X161130000Y-122858096D01*
X161177619Y-122905715D01*
X161272857Y-122953334D01*
X161415714Y-122953334D01*
X161510952Y-122905715D01*
X161558571Y-122858096D01*
X161606190Y-122762858D01*
X161606190Y-122381905D01*
X174010000Y-101388096D02*
X173962381Y-101292858D01*
X173962381Y-101150001D01*
X174010000Y-101007143D01*
X174105238Y-100911905D01*
X174200476Y-100864286D01*
X174390952Y-100816667D01*
X174533810Y-100816667D01*
X174724286Y-100864286D01*
X174819524Y-100911905D01*
X174914762Y-101007143D01*
X174962381Y-101150001D01*
X174962381Y-101245239D01*
X174914762Y-101388096D01*
X174867143Y-101435715D01*
X174533810Y-101435715D01*
X174533810Y-101245239D01*
X174962381Y-101864286D02*
X173962381Y-101864286D01*
X174962381Y-102435715D01*
X173962381Y-102435715D01*
X174962381Y-102911905D02*
X173962381Y-102911905D01*
X173962381Y-103150000D01*
X174010000Y-103292858D01*
X174105238Y-103388096D01*
X174200476Y-103435715D01*
X174390952Y-103483334D01*
X174533810Y-103483334D01*
X174724286Y-103435715D01*
X174819524Y-103388096D01*
X174914762Y-103292858D01*
X174962381Y-103150000D01*
X174962381Y-102911905D01*
X148712381Y-100798095D02*
X148712381Y-101369524D01*
X149712381Y-101083809D02*
X148712381Y-101083809D01*
X148712381Y-101607619D02*
X149712381Y-102274286D01*
X148712381Y-102274286D02*
X149712381Y-101607619D01*
X149712381Y-102655238D02*
X148712381Y-102655238D01*
X148712381Y-102893333D01*
X148760000Y-103036191D01*
X148855238Y-103131429D01*
X148950476Y-103179048D01*
X149140952Y-103226667D01*
X149283810Y-103226667D01*
X149474286Y-103179048D01*
X149569524Y-103131429D01*
X149664762Y-103036191D01*
X149712381Y-102893333D01*
X149712381Y-102655238D01*
X147482381Y-101783334D02*
X147006190Y-101450000D01*
X147482381Y-101211905D02*
X146482381Y-101211905D01*
X146482381Y-101592858D01*
X146530000Y-101688096D01*
X146577619Y-101735715D01*
X146672857Y-101783334D01*
X146815714Y-101783334D01*
X146910952Y-101735715D01*
X146958571Y-101688096D01*
X147006190Y-101592858D01*
X147006190Y-101211905D01*
X146482381Y-102116667D02*
X147482381Y-102783334D01*
X146482381Y-102783334D02*
X147482381Y-102116667D01*
X147482381Y-103164286D02*
X146482381Y-103164286D01*
X146482381Y-103402381D01*
X146530000Y-103545239D01*
X146625238Y-103640477D01*
X146720476Y-103688096D01*
X146910952Y-103735715D01*
X147053810Y-103735715D01*
X147244286Y-103688096D01*
X147339524Y-103640477D01*
X147434762Y-103545239D01*
X147482381Y-103402381D01*
X147482381Y-103164286D01*
X144662381Y-101488572D02*
X144186190Y-101155238D01*
X144662381Y-100917143D02*
X143662381Y-100917143D01*
X143662381Y-101298096D01*
X143710000Y-101393334D01*
X143757619Y-101440953D01*
X143852857Y-101488572D01*
X143995714Y-101488572D01*
X144090952Y-101440953D01*
X144138571Y-101393334D01*
X144186190Y-101298096D01*
X144186190Y-100917143D01*
X144138571Y-101917143D02*
X144138571Y-102250477D01*
X144662381Y-102393334D02*
X144662381Y-101917143D01*
X143662381Y-101917143D01*
X143662381Y-102393334D01*
X144614762Y-102774286D02*
X144662381Y-102917143D01*
X144662381Y-103155239D01*
X144614762Y-103250477D01*
X144567143Y-103298096D01*
X144471905Y-103345715D01*
X144376667Y-103345715D01*
X144281429Y-103298096D01*
X144233810Y-103250477D01*
X144186190Y-103155239D01*
X144138571Y-102964762D01*
X144090952Y-102869524D01*
X144043333Y-102821905D01*
X143948095Y-102774286D01*
X143852857Y-102774286D01*
X143757619Y-102821905D01*
X143710000Y-102869524D01*
X143662381Y-102964762D01*
X143662381Y-103202858D01*
X143710000Y-103345715D01*
X144138571Y-103774286D02*
X144138571Y-104107620D01*
X144662381Y-104250477D02*
X144662381Y-103774286D01*
X143662381Y-103774286D01*
X143662381Y-104250477D01*
X143662381Y-104536191D02*
X143662381Y-105107620D01*
X144662381Y-104821905D02*
X143662381Y-104821905D01*
X144281429Y-105440953D02*
X144281429Y-106202858D01*
X142142381Y-105724286D02*
X141666190Y-105390952D01*
X142142381Y-105152857D02*
X141142381Y-105152857D01*
X141142381Y-105533810D01*
X141190000Y-105629048D01*
X141237619Y-105676667D01*
X141332857Y-105724286D01*
X141475714Y-105724286D01*
X141570952Y-105676667D01*
X141618571Y-105629048D01*
X141666190Y-105533810D01*
X141666190Y-105152857D01*
X142142381Y-106152857D02*
X141142381Y-106152857D01*
X141142381Y-106390952D01*
X141190000Y-106533810D01*
X141285238Y-106629048D01*
X141380476Y-106676667D01*
X141570952Y-106724286D01*
X141713810Y-106724286D01*
X141904286Y-106676667D01*
X141999524Y-106629048D01*
X142094762Y-106533810D01*
X142142381Y-106390952D01*
X142142381Y-106152857D01*
X141618571Y-107152857D02*
X141618571Y-107486191D01*
X142142381Y-107629048D02*
X142142381Y-107152857D01*
X141142381Y-107152857D01*
X141142381Y-107629048D01*
X142142381Y-108057619D02*
X141142381Y-108057619D01*
X142142381Y-108629048D01*
X141142381Y-108629048D01*
X141761429Y-109105238D02*
X141761429Y-109867143D01*
X139354762Y-102691905D02*
X139402381Y-102834762D01*
X139402381Y-103072858D01*
X139354762Y-103168096D01*
X139307143Y-103215715D01*
X139211905Y-103263334D01*
X139116667Y-103263334D01*
X139021429Y-103215715D01*
X138973810Y-103168096D01*
X138926190Y-103072858D01*
X138878571Y-102882381D01*
X138830952Y-102787143D01*
X138783333Y-102739524D01*
X138688095Y-102691905D01*
X138592857Y-102691905D01*
X138497619Y-102739524D01*
X138450000Y-102787143D01*
X138402381Y-102882381D01*
X138402381Y-103120477D01*
X138450000Y-103263334D01*
X138926190Y-103882381D02*
X139402381Y-103882381D01*
X138402381Y-103549048D02*
X138926190Y-103882381D01*
X138402381Y-104215715D01*
X139402381Y-104549048D02*
X138402381Y-104549048D01*
X139402381Y-105120477D01*
X138402381Y-105120477D01*
X139307143Y-106168096D02*
X139354762Y-106120477D01*
X139402381Y-105977620D01*
X139402381Y-105882382D01*
X139354762Y-105739524D01*
X139259524Y-105644286D01*
X139164286Y-105596667D01*
X138973810Y-105549048D01*
X138830952Y-105549048D01*
X138640476Y-105596667D01*
X138545238Y-105644286D01*
X138450000Y-105739524D01*
X138402381Y-105882382D01*
X138402381Y-105977620D01*
X138450000Y-106120477D01*
X138497619Y-106168096D01*
X134652381Y-67388095D02*
X135461905Y-67388095D01*
X135557143Y-67435714D01*
X135604762Y-67483333D01*
X135652381Y-67578571D01*
X135652381Y-67769048D01*
X135604762Y-67864286D01*
X135557143Y-67911905D01*
X135461905Y-67959524D01*
X134652381Y-67959524D01*
X135652381Y-68483333D02*
X135652381Y-68673809D01*
X135604762Y-68769048D01*
X135557143Y-68816667D01*
X135414286Y-68911905D01*
X135223810Y-68959524D01*
X134842857Y-68959524D01*
X134747619Y-68911905D01*
X134700000Y-68864286D01*
X134652381Y-68769048D01*
X134652381Y-68578571D01*
X134700000Y-68483333D01*
X134747619Y-68435714D01*
X134842857Y-68388095D01*
X135080952Y-68388095D01*
X135176190Y-68435714D01*
X135223810Y-68483333D01*
X135271429Y-68578571D01*
X135271429Y-68769048D01*
X135223810Y-68864286D01*
X135176190Y-68911905D01*
X135080952Y-68959524D01*
X140922381Y-87183809D02*
X140922381Y-87374286D01*
X140970000Y-87469524D01*
X141065238Y-87564762D01*
X141255714Y-87612381D01*
X141589048Y-87612381D01*
X141779524Y-87564762D01*
X141874762Y-87469524D01*
X141922381Y-87374286D01*
X141922381Y-87183809D01*
X141874762Y-87088571D01*
X141779524Y-86993333D01*
X141589048Y-86945714D01*
X141255714Y-86945714D01*
X141065238Y-86993333D01*
X140970000Y-87088571D01*
X140922381Y-87183809D01*
X141922381Y-88040952D02*
X140922381Y-88040952D01*
X141922381Y-88612381D02*
X141350952Y-88183809D01*
X140922381Y-88612381D02*
X141493810Y-88040952D01*
X140922381Y-88898095D02*
X140922381Y-89469524D01*
X141922381Y-89183809D02*
X140922381Y-89183809D01*
X145982381Y-85020476D02*
X146982381Y-85258571D01*
X146268095Y-85449048D01*
X146982381Y-85639524D01*
X145982381Y-85877619D01*
X146982381Y-86734762D02*
X146982381Y-86258571D01*
X145982381Y-86258571D01*
X146934762Y-87020476D02*
X146982381Y-87163333D01*
X146982381Y-87401429D01*
X146934762Y-87496667D01*
X146887143Y-87544286D01*
X146791905Y-87591905D01*
X146696667Y-87591905D01*
X146601429Y-87544286D01*
X146553810Y-87496667D01*
X146506190Y-87401429D01*
X146458571Y-87210952D01*
X146410952Y-87115714D01*
X146363333Y-87068095D01*
X146268095Y-87020476D01*
X146172857Y-87020476D01*
X146077619Y-87068095D01*
X146030000Y-87115714D01*
X145982381Y-87210952D01*
X145982381Y-87449048D01*
X146030000Y-87591905D01*
X149407143Y-85719524D02*
X149454762Y-85671905D01*
X149502381Y-85529048D01*
X149502381Y-85433810D01*
X149454762Y-85290952D01*
X149359524Y-85195714D01*
X149264286Y-85148095D01*
X149073810Y-85100476D01*
X148930952Y-85100476D01*
X148740476Y-85148095D01*
X148645238Y-85195714D01*
X148550000Y-85290952D01*
X148502381Y-85433810D01*
X148502381Y-85529048D01*
X148550000Y-85671905D01*
X148597619Y-85719524D01*
X149502381Y-86719524D02*
X149026190Y-86386190D01*
X149502381Y-86148095D02*
X148502381Y-86148095D01*
X148502381Y-86529048D01*
X148550000Y-86624286D01*
X148597619Y-86671905D01*
X148692857Y-86719524D01*
X148835714Y-86719524D01*
X148930952Y-86671905D01*
X148978571Y-86624286D01*
X149026190Y-86529048D01*
X149026190Y-86148095D01*
X149502381Y-87148095D02*
X148502381Y-87148095D01*
X148502381Y-87386190D01*
X148550000Y-87529048D01*
X148645238Y-87624286D01*
X148740476Y-87671905D01*
X148930952Y-87719524D01*
X149073810Y-87719524D01*
X149264286Y-87671905D01*
X149359524Y-87624286D01*
X149454762Y-87529048D01*
X149502381Y-87386190D01*
X149502381Y-87148095D01*
X151270000Y-101278096D02*
X151222381Y-101182858D01*
X151222381Y-101040001D01*
X151270000Y-100897143D01*
X151365238Y-100801905D01*
X151460476Y-100754286D01*
X151650952Y-100706667D01*
X151793810Y-100706667D01*
X151984286Y-100754286D01*
X152079524Y-100801905D01*
X152174762Y-100897143D01*
X152222381Y-101040001D01*
X152222381Y-101135239D01*
X152174762Y-101278096D01*
X152127143Y-101325715D01*
X151793810Y-101325715D01*
X151793810Y-101135239D01*
X152222381Y-101754286D02*
X151222381Y-101754286D01*
X152222381Y-102325715D01*
X151222381Y-102325715D01*
X152222381Y-102801905D02*
X151222381Y-102801905D01*
X151222381Y-103040000D01*
X151270000Y-103182858D01*
X151365238Y-103278096D01*
X151460476Y-103325715D01*
X151650952Y-103373334D01*
X151793810Y-103373334D01*
X151984286Y-103325715D01*
X152079524Y-103278096D01*
X152174762Y-103182858D01*
X152222381Y-103040000D01*
X152222381Y-102801905D01*
X153622381Y-86625714D02*
X154622381Y-86959047D01*
X153622381Y-87292381D01*
X154574762Y-87578095D02*
X154622381Y-87720952D01*
X154622381Y-87959048D01*
X154574762Y-88054286D01*
X154527143Y-88101905D01*
X154431905Y-88149524D01*
X154336667Y-88149524D01*
X154241429Y-88101905D01*
X154193810Y-88054286D01*
X154146190Y-87959048D01*
X154098571Y-87768571D01*
X154050952Y-87673333D01*
X154003333Y-87625714D01*
X153908095Y-87578095D01*
X153812857Y-87578095D01*
X153717619Y-87625714D01*
X153670000Y-87673333D01*
X153622381Y-87768571D01*
X153622381Y-88006667D01*
X153670000Y-88149524D01*
X154622381Y-89054286D02*
X154622381Y-88578095D01*
X153622381Y-88578095D01*
X158932381Y-87040476D02*
X159932381Y-87373809D01*
X158932381Y-87707143D01*
X159884762Y-87992857D02*
X159932381Y-88135714D01*
X159932381Y-88373810D01*
X159884762Y-88469048D01*
X159837143Y-88516667D01*
X159741905Y-88564286D01*
X159646667Y-88564286D01*
X159551429Y-88516667D01*
X159503810Y-88469048D01*
X159456190Y-88373810D01*
X159408571Y-88183333D01*
X159360952Y-88088095D01*
X159313333Y-88040476D01*
X159218095Y-87992857D01*
X159122857Y-87992857D01*
X159027619Y-88040476D01*
X158980000Y-88088095D01*
X158932381Y-88183333D01*
X158932381Y-88421429D01*
X158980000Y-88564286D01*
X159932381Y-88992857D02*
X158932381Y-88992857D01*
X158932381Y-89373810D01*
X158980000Y-89469048D01*
X159027619Y-89516667D01*
X159122857Y-89564286D01*
X159265714Y-89564286D01*
X159360952Y-89516667D01*
X159408571Y-89469048D01*
X159456190Y-89373810D01*
X159456190Y-88992857D01*
X161330000Y-86418096D02*
X161282381Y-86322858D01*
X161282381Y-86180001D01*
X161330000Y-86037143D01*
X161425238Y-85941905D01*
X161520476Y-85894286D01*
X161710952Y-85846667D01*
X161853810Y-85846667D01*
X162044286Y-85894286D01*
X162139524Y-85941905D01*
X162234762Y-86037143D01*
X162282381Y-86180001D01*
X162282381Y-86275239D01*
X162234762Y-86418096D01*
X162187143Y-86465715D01*
X161853810Y-86465715D01*
X161853810Y-86275239D01*
X162282381Y-86894286D02*
X161282381Y-86894286D01*
X162282381Y-87465715D01*
X161282381Y-87465715D01*
X162282381Y-87941905D02*
X161282381Y-87941905D01*
X161282381Y-88180000D01*
X161330000Y-88322858D01*
X161425238Y-88418096D01*
X161520476Y-88465715D01*
X161710952Y-88513334D01*
X161853810Y-88513334D01*
X162044286Y-88465715D01*
X162139524Y-88418096D01*
X162234762Y-88322858D01*
X162282381Y-88180000D01*
X162282381Y-87941905D01*
X162282381Y-88941905D02*
X161282381Y-88941905D01*
X161282381Y-89322858D01*
X161330000Y-89418096D01*
X161377619Y-89465715D01*
X161472857Y-89513334D01*
X161615714Y-89513334D01*
X161710952Y-89465715D01*
X161758571Y-89418096D01*
X161806190Y-89322858D01*
X161806190Y-88941905D01*
X174180000Y-67688096D02*
X174132381Y-67592858D01*
X174132381Y-67450001D01*
X174180000Y-67307143D01*
X174275238Y-67211905D01*
X174370476Y-67164286D01*
X174560952Y-67116667D01*
X174703810Y-67116667D01*
X174894286Y-67164286D01*
X174989524Y-67211905D01*
X175084762Y-67307143D01*
X175132381Y-67450001D01*
X175132381Y-67545239D01*
X175084762Y-67688096D01*
X175037143Y-67735715D01*
X174703810Y-67735715D01*
X174703810Y-67545239D01*
X175132381Y-68164286D02*
X174132381Y-68164286D01*
X175132381Y-68735715D01*
X174132381Y-68735715D01*
X175132381Y-69211905D02*
X174132381Y-69211905D01*
X174132381Y-69450000D01*
X174180000Y-69592858D01*
X174275238Y-69688096D01*
X174370476Y-69735715D01*
X174560952Y-69783334D01*
X174703810Y-69783334D01*
X174894286Y-69735715D01*
X174989524Y-69688096D01*
X175084762Y-69592858D01*
X175132381Y-69450000D01*
X175132381Y-69211905D01*
X148872381Y-67358095D02*
X148872381Y-67929524D01*
X149872381Y-67643809D02*
X148872381Y-67643809D01*
X148872381Y-68167619D02*
X149872381Y-68834286D01*
X148872381Y-68834286D02*
X149872381Y-68167619D01*
X149872381Y-69215238D02*
X148872381Y-69215238D01*
X148872381Y-69453333D01*
X148920000Y-69596191D01*
X149015238Y-69691429D01*
X149110476Y-69739048D01*
X149300952Y-69786667D01*
X149443810Y-69786667D01*
X149634286Y-69739048D01*
X149729524Y-69691429D01*
X149824762Y-69596191D01*
X149872381Y-69453333D01*
X149872381Y-69215238D01*
X147252381Y-68123334D02*
X146776190Y-67790000D01*
X147252381Y-67551905D02*
X146252381Y-67551905D01*
X146252381Y-67932858D01*
X146300000Y-68028096D01*
X146347619Y-68075715D01*
X146442857Y-68123334D01*
X146585714Y-68123334D01*
X146680952Y-68075715D01*
X146728571Y-68028096D01*
X146776190Y-67932858D01*
X146776190Y-67551905D01*
X146252381Y-68456667D02*
X147252381Y-69123334D01*
X146252381Y-69123334D02*
X147252381Y-68456667D01*
X147252381Y-69504286D02*
X146252381Y-69504286D01*
X146252381Y-69742381D01*
X146300000Y-69885239D01*
X146395238Y-69980477D01*
X146490476Y-70028096D01*
X146680952Y-70075715D01*
X146823810Y-70075715D01*
X147014286Y-70028096D01*
X147109524Y-69980477D01*
X147204762Y-69885239D01*
X147252381Y-69742381D01*
X147252381Y-69504286D01*
X144622381Y-68118572D02*
X144146190Y-67785238D01*
X144622381Y-67547143D02*
X143622381Y-67547143D01*
X143622381Y-67928096D01*
X143670000Y-68023334D01*
X143717619Y-68070953D01*
X143812857Y-68118572D01*
X143955714Y-68118572D01*
X144050952Y-68070953D01*
X144098571Y-68023334D01*
X144146190Y-67928096D01*
X144146190Y-67547143D01*
X144098571Y-68547143D02*
X144098571Y-68880477D01*
X144622381Y-69023334D02*
X144622381Y-68547143D01*
X143622381Y-68547143D01*
X143622381Y-69023334D01*
X144574762Y-69404286D02*
X144622381Y-69547143D01*
X144622381Y-69785239D01*
X144574762Y-69880477D01*
X144527143Y-69928096D01*
X144431905Y-69975715D01*
X144336667Y-69975715D01*
X144241429Y-69928096D01*
X144193810Y-69880477D01*
X144146190Y-69785239D01*
X144098571Y-69594762D01*
X144050952Y-69499524D01*
X144003333Y-69451905D01*
X143908095Y-69404286D01*
X143812857Y-69404286D01*
X143717619Y-69451905D01*
X143670000Y-69499524D01*
X143622381Y-69594762D01*
X143622381Y-69832858D01*
X143670000Y-69975715D01*
X144098571Y-70404286D02*
X144098571Y-70737620D01*
X144622381Y-70880477D02*
X144622381Y-70404286D01*
X143622381Y-70404286D01*
X143622381Y-70880477D01*
X143622381Y-71166191D02*
X143622381Y-71737620D01*
X144622381Y-71451905D02*
X143622381Y-71451905D01*
X144241429Y-72070953D02*
X144241429Y-72832858D01*
X142222381Y-67894286D02*
X141746190Y-67560952D01*
X142222381Y-67322857D02*
X141222381Y-67322857D01*
X141222381Y-67703810D01*
X141270000Y-67799048D01*
X141317619Y-67846667D01*
X141412857Y-67894286D01*
X141555714Y-67894286D01*
X141650952Y-67846667D01*
X141698571Y-67799048D01*
X141746190Y-67703810D01*
X141746190Y-67322857D01*
X142222381Y-68322857D02*
X141222381Y-68322857D01*
X141222381Y-68560952D01*
X141270000Y-68703810D01*
X141365238Y-68799048D01*
X141460476Y-68846667D01*
X141650952Y-68894286D01*
X141793810Y-68894286D01*
X141984286Y-68846667D01*
X142079524Y-68799048D01*
X142174762Y-68703810D01*
X142222381Y-68560952D01*
X142222381Y-68322857D01*
X141698571Y-69322857D02*
X141698571Y-69656191D01*
X142222381Y-69799048D02*
X142222381Y-69322857D01*
X141222381Y-69322857D01*
X141222381Y-69799048D01*
X142222381Y-70227619D02*
X141222381Y-70227619D01*
X142222381Y-70799048D01*
X141222381Y-70799048D01*
X141841429Y-71275238D02*
X141841429Y-72037143D01*
X139544762Y-69341905D02*
X139592381Y-69484762D01*
X139592381Y-69722858D01*
X139544762Y-69818096D01*
X139497143Y-69865715D01*
X139401905Y-69913334D01*
X139306667Y-69913334D01*
X139211429Y-69865715D01*
X139163810Y-69818096D01*
X139116190Y-69722858D01*
X139068571Y-69532381D01*
X139020952Y-69437143D01*
X138973333Y-69389524D01*
X138878095Y-69341905D01*
X138782857Y-69341905D01*
X138687619Y-69389524D01*
X138640000Y-69437143D01*
X138592381Y-69532381D01*
X138592381Y-69770477D01*
X138640000Y-69913334D01*
X139116190Y-70532381D02*
X139592381Y-70532381D01*
X138592381Y-70199048D02*
X139116190Y-70532381D01*
X138592381Y-70865715D01*
X139592381Y-71199048D02*
X138592381Y-71199048D01*
X139592381Y-71770477D01*
X138592381Y-71770477D01*
X139497143Y-72818096D02*
X139544762Y-72770477D01*
X139592381Y-72627620D01*
X139592381Y-72532382D01*
X139544762Y-72389524D01*
X139449524Y-72294286D01*
X139354286Y-72246667D01*
X139163810Y-72199048D01*
X139020952Y-72199048D01*
X138830476Y-72246667D01*
X138735238Y-72294286D01*
X138640000Y-72389524D01*
X138592381Y-72532382D01*
X138592381Y-72627620D01*
X138640000Y-72770477D01*
X138687619Y-72818096D01*
X110402857Y-73812381D02*
X110736191Y-73336190D01*
X110974286Y-73812381D02*
X110974286Y-72812381D01*
X110593333Y-72812381D01*
X110498095Y-72860000D01*
X110450476Y-72907619D01*
X110402857Y-73002857D01*
X110402857Y-73145714D01*
X110450476Y-73240952D01*
X110498095Y-73288571D01*
X110593333Y-73336190D01*
X110974286Y-73336190D01*
X110021905Y-72907619D02*
X109974286Y-72860000D01*
X109879048Y-72812381D01*
X109640952Y-72812381D01*
X109545714Y-72860000D01*
X109498095Y-72907619D01*
X109450476Y-73002857D01*
X109450476Y-73098095D01*
X109498095Y-73240952D01*
X110069524Y-73812381D01*
X109450476Y-73812381D01*
X109069524Y-72907619D02*
X109021905Y-72860000D01*
X108926667Y-72812381D01*
X108688571Y-72812381D01*
X108593333Y-72860000D01*
X108545714Y-72907619D01*
X108498095Y-73002857D01*
X108498095Y-73098095D01*
X108545714Y-73240952D01*
X109117143Y-73812381D01*
X108498095Y-73812381D01*
X85662857Y-42532381D02*
X85996191Y-42056190D01*
X86234286Y-42532381D02*
X86234286Y-41532381D01*
X85853333Y-41532381D01*
X85758095Y-41580000D01*
X85710476Y-41627619D01*
X85662857Y-41722857D01*
X85662857Y-41865714D01*
X85710476Y-41960952D01*
X85758095Y-42008571D01*
X85853333Y-42056190D01*
X86234286Y-42056190D01*
X85281905Y-41627619D02*
X85234286Y-41580000D01*
X85139048Y-41532381D01*
X84900952Y-41532381D01*
X84805714Y-41580000D01*
X84758095Y-41627619D01*
X84710476Y-41722857D01*
X84710476Y-41818095D01*
X84758095Y-41960952D01*
X85329524Y-42532381D01*
X84710476Y-42532381D01*
X84377143Y-41532381D02*
X83758095Y-41532381D01*
X84091429Y-41913333D01*
X83948571Y-41913333D01*
X83853333Y-41960952D01*
X83805714Y-42008571D01*
X83758095Y-42103810D01*
X83758095Y-42341905D01*
X83805714Y-42437143D01*
X83853333Y-42484762D01*
X83948571Y-42532381D01*
X84234286Y-42532381D01*
X84329524Y-42484762D01*
X84377143Y-42437143D01*
X103402857Y-42472381D02*
X103736191Y-41996190D01*
X103974286Y-42472381D02*
X103974286Y-41472381D01*
X103593333Y-41472381D01*
X103498095Y-41520000D01*
X103450476Y-41567619D01*
X103402857Y-41662857D01*
X103402857Y-41805714D01*
X103450476Y-41900952D01*
X103498095Y-41948571D01*
X103593333Y-41996190D01*
X103974286Y-41996190D01*
X103021905Y-41567619D02*
X102974286Y-41520000D01*
X102879048Y-41472381D01*
X102640952Y-41472381D01*
X102545714Y-41520000D01*
X102498095Y-41567619D01*
X102450476Y-41662857D01*
X102450476Y-41758095D01*
X102498095Y-41900952D01*
X103069524Y-42472381D01*
X102450476Y-42472381D01*
X101593333Y-41805714D02*
X101593333Y-42472381D01*
X101831429Y-41424762D02*
X102069524Y-42139048D01*
X101450476Y-42139048D01*
X122272857Y-73912381D02*
X122606191Y-73436190D01*
X122844286Y-73912381D02*
X122844286Y-72912381D01*
X122463333Y-72912381D01*
X122368095Y-72960000D01*
X122320476Y-73007619D01*
X122272857Y-73102857D01*
X122272857Y-73245714D01*
X122320476Y-73340952D01*
X122368095Y-73388571D01*
X122463333Y-73436190D01*
X122844286Y-73436190D01*
X121891905Y-73007619D02*
X121844286Y-72960000D01*
X121749048Y-72912381D01*
X121510952Y-72912381D01*
X121415714Y-72960000D01*
X121368095Y-73007619D01*
X121320476Y-73102857D01*
X121320476Y-73198095D01*
X121368095Y-73340952D01*
X121939524Y-73912381D01*
X121320476Y-73912381D01*
X120415714Y-72912381D02*
X120891905Y-72912381D01*
X120939524Y-73388571D01*
X120891905Y-73340952D01*
X120796667Y-73293333D01*
X120558571Y-73293333D01*
X120463333Y-73340952D01*
X120415714Y-73388571D01*
X120368095Y-73483810D01*
X120368095Y-73721905D01*
X120415714Y-73817143D01*
X120463333Y-73864762D01*
X120558571Y-73912381D01*
X120796667Y-73912381D01*
X120891905Y-73864762D01*
X120939524Y-73817143D01*
X72962381Y-101911905D02*
X73771905Y-101911905D01*
X73867143Y-101959524D01*
X73914762Y-102007143D01*
X73962381Y-102102381D01*
X73962381Y-102292858D01*
X73914762Y-102388096D01*
X73867143Y-102435715D01*
X73771905Y-102483334D01*
X72962381Y-102483334D01*
X73962381Y-103483334D02*
X73962381Y-102911905D01*
X73962381Y-103197619D02*
X72962381Y-103197619D01*
X73105238Y-103102381D01*
X73200476Y-103007143D01*
X73248095Y-102911905D01*
X72962381Y-104102381D02*
X72962381Y-104197620D01*
X73010000Y-104292858D01*
X73057619Y-104340477D01*
X73152857Y-104388096D01*
X73343333Y-104435715D01*
X73581429Y-104435715D01*
X73771905Y-104388096D01*
X73867143Y-104340477D01*
X73914762Y-104292858D01*
X73962381Y-104197620D01*
X73962381Y-104102381D01*
X73914762Y-104007143D01*
X73867143Y-103959524D01*
X73771905Y-103911905D01*
X73581429Y-103864286D01*
X73343333Y-103864286D01*
X73152857Y-103911905D01*
X73057619Y-103959524D01*
X73010000Y-104007143D01*
X72962381Y-104102381D01*
X74892381Y-82461905D02*
X75701905Y-82461905D01*
X75797143Y-82509524D01*
X75844762Y-82557143D01*
X75892381Y-82652381D01*
X75892381Y-82842858D01*
X75844762Y-82938096D01*
X75797143Y-82985715D01*
X75701905Y-83033334D01*
X74892381Y-83033334D01*
X75892381Y-84033334D02*
X75892381Y-83461905D01*
X75892381Y-83747619D02*
X74892381Y-83747619D01*
X75035238Y-83652381D01*
X75130476Y-83557143D01*
X75178095Y-83461905D01*
X75892381Y-84985715D02*
X75892381Y-84414286D01*
X75892381Y-84700000D02*
X74892381Y-84700000D01*
X75035238Y-84604762D01*
X75130476Y-84509524D01*
X75178095Y-84414286D01*
X101941905Y-58297381D02*
X101941905Y-59106905D01*
X101894286Y-59202143D01*
X101846667Y-59249762D01*
X101751429Y-59297381D01*
X101560952Y-59297381D01*
X101465714Y-59249762D01*
X101418095Y-59202143D01*
X101370476Y-59106905D01*
X101370476Y-58297381D01*
X100418095Y-58297381D02*
X100894286Y-58297381D01*
X100941905Y-58773571D01*
X100894286Y-58725952D01*
X100799048Y-58678333D01*
X100560952Y-58678333D01*
X100465714Y-58725952D01*
X100418095Y-58773571D01*
X100370476Y-58868810D01*
X100370476Y-59106905D01*
X100418095Y-59202143D01*
X100465714Y-59249762D01*
X100560952Y-59297381D01*
X100799048Y-59297381D01*
X100894286Y-59249762D01*
X100941905Y-59202143D01*
M02*
