G04 #@! TF.FileFunction,Soldermask,Bot*
%FSLAX46Y46*%
G04 Gerber Fmt 4.6, Leading zero omitted, Abs format (unit mm)*
G04 Created by KiCad (PCBNEW 4.0.6) date 07/10/17 08:35:26*
%MOMM*%
%LPD*%
G01*
G04 APERTURE LIST*
%ADD10C,0.100000*%
%ADD11C,0.150000*%
%ADD12R,2.400000X1.000000*%
%ADD13R,4.000000X2.200000*%
%ADD14O,4.000000X2.200000*%
%ADD15R,2.100000X2.100000*%
%ADD16O,2.100000X2.100000*%
%ADD17R,1.900000X0.650000*%
%ADD18R,0.650000X1.900000*%
%ADD19C,5.400000*%
%ADD20R,1.600000X1.150000*%
%ADD21R,1.150000X1.600000*%
%ADD22R,3.600000X1.900000*%
%ADD23R,1.900000X3.600000*%
%ADD24R,3.000000X7.700000*%
%ADD25R,1.300000X1.600000*%
%ADD26R,1.600000X1.300000*%
%ADD27R,1.960000X1.050000*%
%ADD28C,1.924000*%
%ADD29R,1.000000X2.400000*%
G04 APERTURE END LIST*
D10*
D11*
X66000000Y-35000000D02*
X66000000Y-135000000D01*
X66000000Y-135000000D02*
X181000000Y-135000000D01*
X181000000Y-35000000D02*
X181000000Y-135000000D01*
X66000000Y-35000000D02*
X181000000Y-35000000D01*
D12*
X117220000Y-57510000D03*
X117220000Y-56240000D03*
X117220000Y-54970000D03*
X117220000Y-53700000D03*
X117220000Y-52430000D03*
X117220000Y-51160000D03*
X117220000Y-49890000D03*
X123120000Y-49890000D03*
X123120000Y-51160000D03*
X123120000Y-52430000D03*
X123120000Y-53700000D03*
X123120000Y-54970000D03*
X123120000Y-56240000D03*
X123120000Y-57510000D03*
X122890000Y-105660000D03*
X122890000Y-106930000D03*
X122890000Y-108200000D03*
X122890000Y-109470000D03*
X122890000Y-110740000D03*
X122890000Y-112010000D03*
X122890000Y-113280000D03*
X116990000Y-113280000D03*
X116990000Y-112010000D03*
X116990000Y-110740000D03*
X116990000Y-109470000D03*
X116990000Y-108200000D03*
X116990000Y-106930000D03*
X116990000Y-105660000D03*
X108940000Y-105740000D03*
X108940000Y-107010000D03*
X108940000Y-108280000D03*
X108940000Y-109550000D03*
X108940000Y-110820000D03*
X108940000Y-112090000D03*
X108940000Y-113360000D03*
X103040000Y-113360000D03*
X103040000Y-112090000D03*
X103040000Y-110820000D03*
X103040000Y-109550000D03*
X103040000Y-108280000D03*
X103040000Y-107010000D03*
X103040000Y-105740000D03*
D13*
X174880000Y-52580000D03*
D14*
X174880000Y-57660000D03*
D15*
X71300000Y-52480000D03*
D16*
X71300000Y-49940000D03*
X71300000Y-47400000D03*
D17*
X101260000Y-84830000D03*
X101260000Y-84330000D03*
X101260000Y-83830000D03*
X101260000Y-83330000D03*
X101260000Y-82830000D03*
X101260000Y-82330000D03*
X101260000Y-81830000D03*
X101260000Y-81330000D03*
X101260000Y-80830000D03*
X101260000Y-80330000D03*
X101260000Y-79830000D03*
X101260000Y-79330000D03*
X101260000Y-78830000D03*
X101260000Y-78330000D03*
X101260000Y-77830000D03*
X101260000Y-77330000D03*
D18*
X103460000Y-75130000D03*
X103960000Y-75130000D03*
X104460000Y-75130000D03*
X104960000Y-75130000D03*
X105460000Y-75130000D03*
X105960000Y-75130000D03*
X106460000Y-75130000D03*
X106960000Y-75130000D03*
X107460000Y-75130000D03*
X107960000Y-75130000D03*
X108460000Y-75130000D03*
X108960000Y-75130000D03*
X109460000Y-75130000D03*
X109960000Y-75130000D03*
X110460000Y-75130000D03*
X110960000Y-75130000D03*
D17*
X113160000Y-77330000D03*
X113160000Y-77830000D03*
X113160000Y-78330000D03*
X113160000Y-78830000D03*
X113160000Y-79330000D03*
X113160000Y-79830000D03*
X113160000Y-80330000D03*
X113160000Y-80830000D03*
X113160000Y-81330000D03*
X113160000Y-81830000D03*
X113160000Y-82330000D03*
X113160000Y-82830000D03*
X113160000Y-83330000D03*
X113160000Y-83830000D03*
X113160000Y-84330000D03*
X113160000Y-84830000D03*
D18*
X110960000Y-87030000D03*
X110460000Y-87030000D03*
X109960000Y-87030000D03*
X109460000Y-87030000D03*
X108960000Y-87030000D03*
X108460000Y-87030000D03*
X107960000Y-87030000D03*
X107460000Y-87030000D03*
X106960000Y-87030000D03*
X106460000Y-87030000D03*
X105960000Y-87030000D03*
X105460000Y-87030000D03*
X104960000Y-87030000D03*
X104460000Y-87030000D03*
X103960000Y-87030000D03*
X103460000Y-87030000D03*
D10*
G36*
X105810000Y-84240000D02*
X105810000Y-82340000D01*
X107710000Y-82340000D01*
X107710000Y-84240000D01*
X105810000Y-84240000D01*
X105810000Y-84240000D01*
G37*
D19*
X71630000Y-40510000D03*
X93980000Y-130050000D03*
X177170000Y-130430000D03*
D20*
X143390000Y-52290000D03*
X145290000Y-52290000D03*
X145290000Y-54260000D03*
X143390000Y-54260000D03*
X145310000Y-46480000D03*
X143410000Y-46480000D03*
X136270000Y-49510000D03*
X138170000Y-49510000D03*
X136270000Y-48050000D03*
X138170000Y-48050000D03*
D21*
X107370000Y-71440000D03*
X107370000Y-69540000D03*
D20*
X118210000Y-79350000D03*
X120110000Y-79350000D03*
X119550000Y-82510000D03*
X121450000Y-82510000D03*
X108450000Y-91740000D03*
X110350000Y-91740000D03*
X96100000Y-84330000D03*
X94200000Y-84330000D03*
D22*
X75230000Y-75500000D03*
X79230000Y-75500000D03*
X75070000Y-72030000D03*
X79070000Y-72030000D03*
X74820000Y-67940000D03*
X78820000Y-67940000D03*
D23*
X72150000Y-82260000D03*
X72150000Y-86260000D03*
D22*
X77830000Y-117740000D03*
X73830000Y-117740000D03*
X77910000Y-113970000D03*
X73910000Y-113970000D03*
X73860000Y-110450000D03*
X77860000Y-110450000D03*
D23*
X86530000Y-106510000D03*
X86530000Y-102510000D03*
D15*
X115062000Y-68580000D03*
D16*
X115062000Y-71120000D03*
D15*
X131840000Y-102590000D03*
D16*
X131840000Y-100050000D03*
X131840000Y-97510000D03*
X131840000Y-94970000D03*
X131840000Y-92430000D03*
X131840000Y-89890000D03*
D15*
X102320000Y-129620000D03*
D16*
X104860000Y-129620000D03*
X107400000Y-129620000D03*
X109940000Y-129620000D03*
X112480000Y-129620000D03*
X115020000Y-129620000D03*
X117560000Y-129620000D03*
D15*
X137270000Y-129650000D03*
D16*
X134730000Y-129650000D03*
X132190000Y-129650000D03*
X129650000Y-129650000D03*
X127110000Y-129650000D03*
D15*
X126510000Y-62470000D03*
D16*
X123970000Y-62470000D03*
X121430000Y-62470000D03*
D15*
X97900000Y-63480000D03*
D16*
X95360000Y-63480000D03*
X92820000Y-63480000D03*
D15*
X146570000Y-95050000D03*
D16*
X144030000Y-95050000D03*
X141490000Y-95050000D03*
D15*
X159310000Y-128320000D03*
D16*
X161850000Y-128320000D03*
X164390000Y-128320000D03*
D15*
X146590000Y-61170000D03*
D16*
X144050000Y-61170000D03*
X141510000Y-61170000D03*
D15*
X159350000Y-94850000D03*
D16*
X161890000Y-94850000D03*
X164430000Y-94850000D03*
D15*
X90640000Y-116680000D03*
D16*
X93180000Y-116680000D03*
X95720000Y-116680000D03*
D15*
X90770000Y-121970000D03*
D16*
X93310000Y-121970000D03*
X95850000Y-121970000D03*
D15*
X91140000Y-97450000D03*
D16*
X93680000Y-97450000D03*
X96220000Y-97450000D03*
D15*
X91140000Y-103150000D03*
D16*
X93680000Y-103150000D03*
X96220000Y-103150000D03*
D24*
X144040000Y-41180000D03*
X139340000Y-41180000D03*
D25*
X136270000Y-51280000D03*
X136270000Y-53480000D03*
X138170000Y-53470000D03*
X138170000Y-51270000D03*
D26*
X121242000Y-71120000D03*
X119042000Y-71120000D03*
D25*
X111760000Y-71712000D03*
X111760000Y-69512000D03*
D26*
X130230000Y-126270000D03*
X128030000Y-126270000D03*
X134910000Y-126270000D03*
X132710000Y-126270000D03*
X146550000Y-121680000D03*
X148750000Y-121680000D03*
X151046000Y-95250000D03*
X153246000Y-95250000D03*
X146640000Y-89010000D03*
X148840000Y-89010000D03*
X150730000Y-61180000D03*
X152930000Y-61180000D03*
D27*
X145320000Y-48120000D03*
X145320000Y-49070000D03*
X145320000Y-50020000D03*
X142620000Y-50020000D03*
X142620000Y-48120000D03*
X142620000Y-49070000D03*
D28*
X138940000Y-99110000D03*
X141480000Y-99110000D03*
X144020000Y-99110000D03*
X146560000Y-99110000D03*
X149100000Y-99110000D03*
X151640000Y-99110000D03*
X154180000Y-99110000D03*
X156720000Y-99110000D03*
X159260000Y-99110000D03*
X161800000Y-99110000D03*
X164340000Y-99110000D03*
X166880000Y-99110000D03*
X169420000Y-99110000D03*
X171960000Y-99110000D03*
X174500000Y-99110000D03*
X174500000Y-124510000D03*
X171960000Y-124510000D03*
X169420000Y-124510000D03*
X166880000Y-124510000D03*
X164340000Y-124510000D03*
X161800000Y-124510000D03*
X159260000Y-124510000D03*
X156720000Y-124510000D03*
X154180000Y-124510000D03*
X151640000Y-124510000D03*
X149100000Y-124510000D03*
X146560000Y-124510000D03*
X144020000Y-124510000D03*
X141480000Y-124510000D03*
X138940000Y-124510000D03*
X139010000Y-65610000D03*
X141550000Y-65610000D03*
X144090000Y-65610000D03*
X146630000Y-65610000D03*
X149170000Y-65610000D03*
X151710000Y-65610000D03*
X154250000Y-65610000D03*
X156790000Y-65610000D03*
X159330000Y-65610000D03*
X161870000Y-65610000D03*
X164410000Y-65610000D03*
X166950000Y-65610000D03*
X169490000Y-65610000D03*
X172030000Y-65610000D03*
X174570000Y-65610000D03*
X174570000Y-91010000D03*
X172030000Y-91010000D03*
X169490000Y-91010000D03*
X166950000Y-91010000D03*
X164410000Y-91010000D03*
X161870000Y-91010000D03*
X159330000Y-91010000D03*
X156790000Y-91010000D03*
X154250000Y-91010000D03*
X151710000Y-91010000D03*
X149170000Y-91010000D03*
X146630000Y-91010000D03*
X144090000Y-91010000D03*
X141550000Y-91010000D03*
X139010000Y-91010000D03*
D25*
X109820000Y-69520000D03*
X109820000Y-71720000D03*
D19*
X176240000Y-38960000D03*
D26*
X86350000Y-43650000D03*
X84150000Y-43650000D03*
X101660000Y-43470000D03*
X103860000Y-43470000D03*
X122570000Y-75240000D03*
X120370000Y-75240000D03*
D29*
X84185000Y-106330000D03*
X82915000Y-106330000D03*
X81645000Y-106330000D03*
X80375000Y-106330000D03*
X79105000Y-106330000D03*
X77835000Y-106330000D03*
X76565000Y-106330000D03*
X75295000Y-106330000D03*
X75295000Y-100430000D03*
X76565000Y-100430000D03*
X77835000Y-100430000D03*
X79105000Y-100430000D03*
X80375000Y-100430000D03*
X81645000Y-100430000D03*
X82915000Y-100430000D03*
X84185000Y-100430000D03*
X76995000Y-80750000D03*
X78265000Y-80750000D03*
X79535000Y-80750000D03*
X80805000Y-80750000D03*
X82075000Y-80750000D03*
X83345000Y-80750000D03*
X84615000Y-80750000D03*
X85885000Y-80750000D03*
X85885000Y-86650000D03*
X84615000Y-86650000D03*
X83345000Y-86650000D03*
X82075000Y-86650000D03*
X80805000Y-86650000D03*
X79535000Y-86650000D03*
X78265000Y-86650000D03*
X76995000Y-86650000D03*
D12*
X98230000Y-57280000D03*
X98230000Y-56010000D03*
X98230000Y-54740000D03*
X98230000Y-53470000D03*
X98230000Y-52200000D03*
X98230000Y-50930000D03*
X98230000Y-49660000D03*
X104130000Y-49660000D03*
X104130000Y-50930000D03*
X104130000Y-52200000D03*
X104130000Y-53470000D03*
X104130000Y-54740000D03*
X104130000Y-56010000D03*
X104130000Y-57280000D03*
M02*
