G04 #@! TF.FileFunction,Copper,L1,Top,Signal*
%FSLAX46Y46*%
G04 Gerber Fmt 4.6, Leading zero omitted, Abs format (unit mm)*
G04 Created by KiCad (PCBNEW 4.0.6) date 07/10/17 08:56:55*
%MOMM*%
%LPD*%
G01*
G04 APERTURE LIST*
%ADD10C,0.100000*%
%ADD11C,0.150000*%
%ADD12C,5.000000*%
%ADD13R,2.000000X0.600000*%
%ADD14R,1.200000X0.900000*%
%ADD15R,0.900000X1.200000*%
%ADD16R,1.900000X0.800000*%
%ADD17R,1.700000X1.700000*%
%ADD18O,1.700000X1.700000*%
%ADD19R,3.400000X0.600000*%
%ADD20R,3.000000X9.000000*%
%ADD21R,0.800000X0.800000*%
%ADD22R,1.200000X0.750000*%
%ADD23R,0.750000X1.200000*%
%ADD24R,3.000000X2.700000*%
%ADD25R,1.400000X0.300000*%
%ADD26C,1.200000*%
%ADD27C,0.500000*%
%ADD28C,0.254000*%
G04 APERTURE END LIST*
D10*
D11*
X92102000Y-60452000D02*
X32666000Y-60452000D01*
X92102000Y-28702000D02*
X92102000Y-60452000D01*
X32666000Y-60452000D02*
X32666000Y-28702000D01*
X32666000Y-28702000D02*
X33428000Y-28702000D01*
X33428000Y-28702000D02*
X92102000Y-28702000D01*
D12*
X88690000Y-31990000D03*
D13*
X64090000Y-40815000D03*
X64090000Y-42085000D03*
X64090000Y-43355000D03*
X64090000Y-44625000D03*
X64090000Y-45895000D03*
X64090000Y-47165000D03*
X64090000Y-48435000D03*
X64090000Y-49705000D03*
X69990000Y-49705000D03*
X69990000Y-48435000D03*
X69990000Y-47165000D03*
X69990000Y-45895000D03*
X69990000Y-44625000D03*
X69990000Y-43355000D03*
X69990000Y-42085000D03*
X69990000Y-40815000D03*
D14*
X49092000Y-54610000D03*
X51292000Y-54610000D03*
X85330000Y-53710000D03*
X83130000Y-53710000D03*
D15*
X79390000Y-54100000D03*
X79390000Y-51900000D03*
D16*
X68710000Y-55560000D03*
X68710000Y-53660000D03*
X65710000Y-54610000D03*
D17*
X75846000Y-53086000D03*
D18*
X75846000Y-50546000D03*
X75846000Y-48006000D03*
D17*
X75950000Y-42720000D03*
D18*
X75950000Y-40180000D03*
X75950000Y-37640000D03*
D17*
X58020000Y-41870000D03*
D18*
X58020000Y-39330000D03*
X58020000Y-36790000D03*
D17*
X58400000Y-52840000D03*
D18*
X58400000Y-50300000D03*
X58400000Y-47760000D03*
D19*
X35714000Y-49403000D03*
X35714000Y-48133000D03*
X35714000Y-46863000D03*
X35714000Y-45593000D03*
X35714000Y-44323000D03*
X35714000Y-43053000D03*
X35714000Y-41783000D03*
X35714000Y-40513000D03*
D20*
X51714000Y-44958000D03*
D17*
X39778000Y-56388000D03*
D18*
X42318000Y-56388000D03*
D17*
X86514000Y-57658000D03*
D18*
X83974000Y-57658000D03*
D17*
X46740000Y-34250000D03*
D18*
X49280000Y-34250000D03*
X51820000Y-34250000D03*
D21*
X54110000Y-54610000D03*
X54110000Y-56210000D03*
D22*
X65750000Y-37610000D03*
X67650000Y-37610000D03*
D23*
X61640000Y-51410000D03*
X61640000Y-49510000D03*
X61690000Y-45140000D03*
X61690000Y-47040000D03*
X61650000Y-41070000D03*
X61650000Y-42970000D03*
D24*
X86350000Y-40640000D03*
X86350000Y-50300000D03*
D25*
X84350000Y-48220000D03*
X84350000Y-47720000D03*
X84350000Y-47220000D03*
X84350000Y-46720000D03*
X84350000Y-46220000D03*
X84350000Y-45720000D03*
X84350000Y-45220000D03*
X84350000Y-44720000D03*
X84350000Y-44220000D03*
X84350000Y-43720000D03*
X84350000Y-43220000D03*
X84350000Y-42720000D03*
D12*
X37010000Y-32270000D03*
D26*
X71390000Y-53680000D03*
X68740000Y-51470000D03*
X63780000Y-51390000D03*
X39220000Y-47100000D03*
X71880000Y-41290000D03*
X71870000Y-44650000D03*
X71840000Y-46710000D03*
X43730000Y-49230000D03*
X43700000Y-51240000D03*
X47620000Y-47330000D03*
X45880000Y-51240000D03*
X48040000Y-44710000D03*
X82100000Y-42570000D03*
X82160000Y-40400000D03*
X82220000Y-38550000D03*
X87010000Y-46110000D03*
X86420000Y-55430000D03*
X89710000Y-57650000D03*
X89730000Y-55890000D03*
X86540000Y-44680000D03*
X66950000Y-48030000D03*
D27*
X64315000Y-40840000D02*
X62740000Y-40840000D01*
D28*
X64340000Y-40815000D02*
X64315000Y-40840000D01*
D27*
X61880000Y-40840000D02*
X62740000Y-40840000D01*
X61650000Y-41070000D02*
X61880000Y-40840000D01*
D28*
X64265000Y-43280000D02*
X64340000Y-43355000D01*
D27*
X61960000Y-43280000D02*
X64265000Y-43280000D01*
X61650000Y-42970000D02*
X61960000Y-43280000D01*
X62205000Y-44625000D02*
X64340000Y-44625000D01*
X61690000Y-45140000D02*
X62205000Y-44625000D01*
D28*
X64340000Y-45895000D02*
X64325000Y-45910000D01*
X62980000Y-45910000D02*
X62970000Y-45910000D01*
D27*
X64325000Y-45910000D02*
X62980000Y-45910000D01*
D28*
X64340000Y-45895000D02*
X64325000Y-45910000D01*
D27*
X61850000Y-47040000D02*
X61690000Y-47040000D01*
X62980000Y-45910000D02*
X61850000Y-47040000D01*
X68730000Y-53680000D02*
X71390000Y-53680000D01*
X68710000Y-53660000D02*
X68730000Y-53680000D01*
X68740000Y-53630000D02*
X68740000Y-51470000D01*
X68710000Y-53660000D02*
X68740000Y-53630000D01*
X61660000Y-51390000D02*
X63780000Y-51390000D01*
X61640000Y-51410000D02*
X61660000Y-51390000D01*
X38940000Y-46820000D02*
X39220000Y-47100000D01*
X35757000Y-46820000D02*
X38940000Y-46820000D01*
X35714000Y-46863000D02*
X35757000Y-46820000D01*
X71080000Y-42090000D02*
X71880000Y-41290000D01*
X69745000Y-42090000D02*
X71080000Y-42090000D01*
X69740000Y-42085000D02*
X69745000Y-42090000D01*
X71870000Y-41300000D02*
X71870000Y-44650000D01*
X71880000Y-41290000D02*
X71870000Y-41300000D01*
X41350000Y-49230000D02*
X43730000Y-49230000D01*
X39220000Y-47100000D02*
X41350000Y-49230000D01*
X43700000Y-51240000D02*
X45880000Y-51240000D01*
X48040000Y-46910000D02*
X48040000Y-44710000D01*
X47620000Y-47330000D02*
X48040000Y-46910000D01*
D28*
X82820000Y-43700000D02*
X82100000Y-42980000D01*
X82830000Y-43700000D02*
X82820000Y-43700000D01*
X82830000Y-43720000D02*
X82830000Y-43700000D01*
X84350000Y-43720000D02*
X82830000Y-43720000D01*
X82100000Y-42980000D02*
X82100000Y-42570000D01*
X82160000Y-42510000D02*
X82160000Y-40400000D01*
X82100000Y-42570000D02*
X82160000Y-42510000D01*
X82220000Y-40340000D02*
X82220000Y-38550000D01*
X82160000Y-40400000D02*
X82220000Y-40340000D01*
X84360000Y-43710000D02*
X87090000Y-43710000D01*
X84350000Y-43720000D02*
X84360000Y-43710000D01*
X87010000Y-43790000D02*
X87010000Y-46110000D01*
X87025000Y-43775000D02*
X87010000Y-43790000D01*
X87090000Y-43710000D02*
X87025000Y-43775000D01*
X86420000Y-57564000D02*
X86420000Y-55430000D01*
X86514000Y-57658000D02*
X86420000Y-57564000D01*
X89710000Y-57650000D02*
X89730000Y-57650000D01*
X89730000Y-57630000D02*
X89730000Y-55890000D01*
X89710000Y-57650000D02*
X89730000Y-57630000D01*
X86540000Y-44260000D02*
X86540000Y-44680000D01*
X87025000Y-43775000D02*
X86540000Y-44260000D01*
D27*
X61640000Y-49510000D02*
X62220000Y-48930000D01*
X64340000Y-47165000D02*
X63155000Y-47165000D01*
X63155000Y-47165000D02*
X62610000Y-47710000D01*
X62610000Y-47710000D02*
X62610000Y-48540000D01*
X62610000Y-48540000D02*
X62220000Y-48930000D01*
D28*
X63165000Y-47205000D02*
X63170000Y-47200000D01*
D27*
X62740000Y-47630000D02*
X63165000Y-47205000D01*
D28*
X62730000Y-47630000D02*
X62740000Y-47630000D01*
X62730000Y-47700000D02*
X62730000Y-47630000D01*
X62710000Y-47700000D02*
X62730000Y-47700000D01*
D27*
X63205000Y-47165000D02*
X64340000Y-47165000D01*
D28*
X63165000Y-47205000D02*
X63205000Y-47165000D01*
D27*
X65960000Y-42090000D02*
X66730000Y-41320000D01*
X65640000Y-42090000D02*
X65960000Y-42090000D01*
X64345000Y-42090000D02*
X65640000Y-42090000D01*
D28*
X64340000Y-42085000D02*
X64345000Y-42090000D01*
D27*
X66750000Y-41300000D02*
X66750000Y-39330000D01*
D28*
X66730000Y-41320000D02*
X66750000Y-41300000D01*
D27*
X65750000Y-38330000D02*
X65750000Y-37610000D01*
X66750000Y-39330000D02*
X65750000Y-38330000D01*
X68140000Y-40810000D02*
X67660000Y-40330000D01*
X69735000Y-40810000D02*
X68140000Y-40810000D01*
D28*
X69740000Y-40815000D02*
X69735000Y-40810000D01*
D27*
X67650000Y-40320000D02*
X67650000Y-37610000D01*
D28*
X67660000Y-40330000D02*
X67650000Y-40320000D01*
D27*
X65490000Y-33780000D02*
X67660000Y-35950000D01*
X56860000Y-33780000D02*
X65490000Y-33780000D01*
X67650000Y-35960000D02*
X67650000Y-37610000D01*
D28*
X67660000Y-35950000D02*
X67650000Y-35960000D01*
D27*
X87710000Y-53620000D02*
X89580000Y-51750000D01*
D28*
X85420000Y-53620000D02*
X87710000Y-53620000D01*
X85330000Y-53710000D02*
X85420000Y-53620000D01*
D27*
X89680000Y-42280000D02*
X89680000Y-38020000D01*
X89680000Y-51650000D02*
X89680000Y-42280000D01*
D28*
X89580000Y-51750000D02*
X89680000Y-51650000D01*
D27*
X85440000Y-33780000D02*
X65490000Y-33780000D01*
X89680000Y-38020000D02*
X85440000Y-33780000D01*
X85420000Y-53620000D02*
X87710000Y-53620000D01*
D28*
X85330000Y-53710000D02*
X85420000Y-53620000D01*
D27*
X54940000Y-31860000D02*
X56860000Y-33780000D01*
X51670000Y-31860000D02*
X54940000Y-31860000D01*
X49280000Y-34250000D02*
X51670000Y-31860000D01*
D28*
X88730000Y-43230000D02*
X89680000Y-42280000D01*
X84360000Y-43230000D02*
X88730000Y-43230000D01*
X84350000Y-43220000D02*
X84360000Y-43230000D01*
D27*
X51292000Y-54610000D02*
X54110000Y-54610000D01*
X42496000Y-56210000D02*
X54110000Y-56210000D01*
D28*
X42318000Y-56388000D02*
X42496000Y-56210000D01*
D27*
X62430000Y-56010000D02*
X63580000Y-54860000D01*
X62280000Y-56010000D02*
X62430000Y-56010000D01*
X54310000Y-56010000D02*
X62280000Y-56010000D01*
D28*
X54110000Y-56210000D02*
X54310000Y-56010000D01*
D27*
X63830000Y-54610000D02*
X65710000Y-54610000D01*
X63580000Y-54860000D02*
X63830000Y-54610000D01*
D28*
X35714000Y-40513000D02*
X35727000Y-40500000D01*
D27*
X43340000Y-40540000D02*
X46720000Y-37160000D01*
X35741000Y-40540000D02*
X43340000Y-40540000D01*
X35714000Y-40513000D02*
X35741000Y-40540000D01*
X46740000Y-37140000D02*
X46740000Y-34250000D01*
X46720000Y-37160000D02*
X46740000Y-37140000D01*
D28*
X35714000Y-43053000D02*
X35721000Y-43060000D01*
D27*
X41556000Y-54610000D02*
X49092000Y-54610000D01*
X39778000Y-56388000D02*
X41556000Y-54610000D01*
X51580000Y-34480000D02*
X44220000Y-41840000D01*
X51580000Y-34260000D02*
X51580000Y-34480000D01*
X51810000Y-34260000D02*
X51580000Y-34260000D01*
X51820000Y-34250000D02*
X51810000Y-34260000D01*
X42493000Y-43053000D02*
X35714000Y-43053000D01*
X44220000Y-41830000D02*
X44220000Y-41840000D01*
X42997000Y-43053000D02*
X44220000Y-41830000D01*
X42493000Y-43053000D02*
X42997000Y-43053000D01*
X35714000Y-43053000D02*
X42493000Y-43053000D01*
D28*
X82940000Y-48210000D02*
X82950000Y-48200000D01*
X81670000Y-52250000D02*
X81670000Y-49780000D01*
X83130000Y-53710000D02*
X81670000Y-52250000D01*
X84340000Y-48210000D02*
X82940000Y-48210000D01*
X84350000Y-48220000D02*
X84340000Y-48210000D01*
X81670000Y-49480000D02*
X81670000Y-49780000D01*
X82940000Y-48210000D02*
X81670000Y-49480000D01*
X83410000Y-53990000D02*
X83130000Y-53710000D01*
D27*
X83410000Y-57094000D02*
X83410000Y-53990000D01*
X83974000Y-57658000D02*
X83410000Y-57094000D01*
X35690000Y-56620000D02*
X37210000Y-58140000D01*
X35690000Y-49427000D02*
X35690000Y-56620000D01*
D28*
X35714000Y-49403000D02*
X35690000Y-49427000D01*
D27*
X49290000Y-57658000D02*
X83974000Y-57658000D01*
X48808000Y-58140000D02*
X37210000Y-58140000D01*
X49290000Y-57658000D02*
X48808000Y-58140000D01*
X48120000Y-50430000D02*
X43290000Y-45600000D01*
D28*
X48170000Y-50430000D02*
X48120000Y-50430000D01*
D27*
X58270000Y-50430000D02*
X48170000Y-50430000D01*
D28*
X58400000Y-50300000D02*
X58270000Y-50430000D01*
D27*
X43283000Y-45593000D02*
X35714000Y-45593000D01*
D28*
X43290000Y-45600000D02*
X43283000Y-45593000D01*
D27*
X35791000Y-44400000D02*
X44080000Y-44400000D01*
D28*
X35714000Y-44323000D02*
X35791000Y-44400000D01*
D27*
X44080000Y-44400000D02*
X48890000Y-39590000D01*
X57760000Y-39590000D02*
X48890000Y-39590000D01*
X58020000Y-39330000D02*
X57760000Y-39590000D01*
X65920000Y-49750000D02*
X66670000Y-50500000D01*
D28*
X65920000Y-49740000D02*
X65920000Y-49750000D01*
D27*
X64375000Y-49740000D02*
X65920000Y-49740000D01*
D28*
X64340000Y-49705000D02*
X64375000Y-49740000D01*
D27*
X66670000Y-50500000D02*
X66670000Y-51590000D01*
X65420000Y-52840000D02*
X58400000Y-52840000D01*
X66670000Y-51590000D02*
X65420000Y-52840000D01*
X64340000Y-48435000D02*
X65865000Y-48435000D01*
X65865000Y-48435000D02*
X65880000Y-48450000D01*
X66300000Y-48030000D02*
X65880000Y-48450000D01*
X66600000Y-48030000D02*
X66300000Y-48030000D01*
X66950000Y-48030000D02*
X66600000Y-48030000D01*
X64355000Y-48450000D02*
X65880000Y-48450000D01*
D28*
X64340000Y-48435000D02*
X64355000Y-48450000D01*
X82020000Y-46710000D02*
X79390000Y-49340000D01*
X84340000Y-46710000D02*
X82020000Y-46710000D01*
X84350000Y-46720000D02*
X84340000Y-46710000D01*
X79390000Y-49340000D02*
X79390000Y-51900000D01*
X75950000Y-50490000D02*
X81710000Y-44730000D01*
X75950000Y-50540000D02*
X75950000Y-50490000D01*
X75860000Y-50540000D02*
X75950000Y-50540000D01*
X75860000Y-50560000D02*
X75860000Y-50540000D01*
X75846000Y-50546000D02*
X75860000Y-50560000D01*
X81720000Y-44720000D02*
X84350000Y-44720000D01*
X81710000Y-44730000D02*
X81720000Y-44720000D01*
X78220000Y-40390000D02*
X78150000Y-40320000D01*
X82040000Y-44210000D02*
X78220000Y-40390000D01*
X82050000Y-44210000D02*
X82040000Y-44210000D01*
X84340000Y-44210000D02*
X82050000Y-44210000D01*
X84350000Y-44220000D02*
X84340000Y-44210000D01*
X78010000Y-40180000D02*
X75950000Y-40180000D01*
X78220000Y-40390000D02*
X78010000Y-40180000D01*
D27*
X73121000Y-53086000D02*
X75846000Y-53086000D01*
X69740000Y-49705000D02*
X73121000Y-53086000D01*
X75417000Y-48435000D02*
X69740000Y-48435000D01*
X75846000Y-48006000D02*
X75417000Y-48435000D01*
X77930000Y-55560000D02*
X68710000Y-55560000D01*
X79390000Y-54100000D02*
X77930000Y-55560000D01*
D28*
G36*
X87060177Y-29546183D02*
X86249031Y-30355914D01*
X85809501Y-31414420D01*
X85808501Y-32560552D01*
X86246183Y-33619823D01*
X87055914Y-34430969D01*
X88114420Y-34870499D01*
X89260552Y-34871499D01*
X90319823Y-34433817D01*
X91130969Y-33624086D01*
X91570499Y-32565580D01*
X91571499Y-31419448D01*
X91133817Y-30360177D01*
X90324086Y-29549031D01*
X89382379Y-29158000D01*
X91646000Y-29158000D01*
X91646000Y-59996000D01*
X33122000Y-59996000D01*
X33122000Y-46436691D01*
X33379000Y-46436691D01*
X33379000Y-46577250D01*
X33537750Y-46736000D01*
X35587000Y-46736000D01*
X35587000Y-46716000D01*
X35841000Y-46716000D01*
X35841000Y-46736000D01*
X37890250Y-46736000D01*
X38049000Y-46577250D01*
X38049000Y-46436691D01*
X37960900Y-46224000D01*
X43021632Y-46224000D01*
X47673816Y-50876185D01*
X47878527Y-51012968D01*
X48120000Y-51061000D01*
X48145000Y-51056027D01*
X48170000Y-51061000D01*
X57432304Y-51061000D01*
X57505435Y-51170448D01*
X57904800Y-51437296D01*
X58375883Y-51531000D01*
X58424117Y-51531000D01*
X58895200Y-51437296D01*
X59294565Y-51170448D01*
X59561413Y-50771083D01*
X59655117Y-50300000D01*
X59561413Y-49828917D01*
X59294565Y-49429552D01*
X58895200Y-49162704D01*
X58424117Y-49069000D01*
X58375883Y-49069000D01*
X57904800Y-49162704D01*
X57505435Y-49429552D01*
X57258577Y-49799000D01*
X53387665Y-49799000D01*
X53484865Y-49736454D01*
X53571859Y-49609134D01*
X53602464Y-49458000D01*
X53602464Y-47760000D01*
X57144883Y-47760000D01*
X57238587Y-48231083D01*
X57505435Y-48630448D01*
X57904800Y-48897296D01*
X58375883Y-48991000D01*
X58424117Y-48991000D01*
X58895200Y-48897296D01*
X59294565Y-48630448D01*
X59561413Y-48231083D01*
X59655117Y-47760000D01*
X59561413Y-47288917D01*
X59294565Y-46889552D01*
X58895200Y-46622704D01*
X58424117Y-46529000D01*
X58375883Y-46529000D01*
X57904800Y-46622704D01*
X57505435Y-46889552D01*
X57238587Y-47288917D01*
X57144883Y-47760000D01*
X53602464Y-47760000D01*
X53602464Y-41020000D01*
X56781536Y-41020000D01*
X56781536Y-42720000D01*
X56808103Y-42861190D01*
X56891546Y-42990865D01*
X57018866Y-43077859D01*
X57170000Y-43108464D01*
X58870000Y-43108464D01*
X59011190Y-43081897D01*
X59140865Y-42998454D01*
X59227859Y-42871134D01*
X59258464Y-42720000D01*
X59258464Y-41020000D01*
X59231897Y-40878810D01*
X59148454Y-40749135D01*
X59021134Y-40662141D01*
X58870000Y-40631536D01*
X57170000Y-40631536D01*
X57028810Y-40658103D01*
X56899135Y-40741546D01*
X56812141Y-40868866D01*
X56781536Y-41020000D01*
X53602464Y-41020000D01*
X53602464Y-40458000D01*
X53575897Y-40316810D01*
X53514245Y-40221000D01*
X57156193Y-40221000D01*
X57524800Y-40467296D01*
X57995883Y-40561000D01*
X58044117Y-40561000D01*
X58515200Y-40467296D01*
X58914565Y-40200448D01*
X59181413Y-39801083D01*
X59275117Y-39330000D01*
X59181413Y-38858917D01*
X58914565Y-38459552D01*
X58515200Y-38192704D01*
X58044117Y-38099000D01*
X57995883Y-38099000D01*
X57524800Y-38192704D01*
X57125435Y-38459552D01*
X56858587Y-38858917D01*
X56838679Y-38959000D01*
X48890000Y-38959000D01*
X48688589Y-38999063D01*
X48648526Y-39007032D01*
X48443815Y-39143816D01*
X43818632Y-43769000D01*
X37703306Y-43769000D01*
X37692454Y-43752135D01*
X37597813Y-43687470D01*
X37603206Y-43684000D01*
X42997000Y-43684000D01*
X43238473Y-43635968D01*
X43443184Y-43499184D01*
X44636050Y-42306319D01*
X44666184Y-42286184D01*
X50162368Y-36790000D01*
X56764883Y-36790000D01*
X56858587Y-37261083D01*
X57125435Y-37660448D01*
X57524800Y-37927296D01*
X57995883Y-38021000D01*
X58044117Y-38021000D01*
X58515200Y-37927296D01*
X58914565Y-37660448D01*
X59181413Y-37261083D01*
X59275117Y-36790000D01*
X59181413Y-36318917D01*
X58914565Y-35919552D01*
X58515200Y-35652704D01*
X58044117Y-35559000D01*
X57995883Y-35559000D01*
X57524800Y-35652704D01*
X57125435Y-35919552D01*
X56858587Y-36318917D01*
X56764883Y-36790000D01*
X50162368Y-36790000D01*
X51509095Y-35443274D01*
X51820000Y-35505117D01*
X52291083Y-35411413D01*
X52690448Y-35144565D01*
X52957296Y-34745200D01*
X53051000Y-34274117D01*
X53051000Y-34225883D01*
X52957296Y-33754800D01*
X52690448Y-33355435D01*
X52291083Y-33088587D01*
X51820000Y-32994883D01*
X51348917Y-33088587D01*
X51303304Y-33119065D01*
X51931369Y-32491000D01*
X54678632Y-32491000D01*
X56413816Y-34226184D01*
X56618527Y-34362968D01*
X56860000Y-34411000D01*
X65228632Y-34411000D01*
X67019000Y-36201369D01*
X67019000Y-36852369D01*
X66908810Y-36873103D01*
X66779135Y-36956546D01*
X66699020Y-37073798D01*
X66628454Y-36964135D01*
X66501134Y-36877141D01*
X66350000Y-36846536D01*
X65150000Y-36846536D01*
X65008810Y-36873103D01*
X64879135Y-36956546D01*
X64792141Y-37083866D01*
X64761536Y-37235000D01*
X64761536Y-37985000D01*
X64788103Y-38126190D01*
X64871546Y-38255865D01*
X64998866Y-38342859D01*
X65126707Y-38368747D01*
X65167032Y-38571473D01*
X65303816Y-38776184D01*
X66119000Y-39591369D01*
X66119000Y-41038631D01*
X65698632Y-41459000D01*
X65287761Y-41459000D01*
X65273813Y-41449470D01*
X65360865Y-41393454D01*
X65447859Y-41266134D01*
X65478464Y-41115000D01*
X65478464Y-40515000D01*
X65451897Y-40373810D01*
X65368454Y-40244135D01*
X65241134Y-40157141D01*
X65090000Y-40126536D01*
X63090000Y-40126536D01*
X62948810Y-40153103D01*
X62861943Y-40209000D01*
X62309802Y-40209000D01*
X62303454Y-40199135D01*
X62176134Y-40112141D01*
X62025000Y-40081536D01*
X61275000Y-40081536D01*
X61133810Y-40108103D01*
X61004135Y-40191546D01*
X60917141Y-40318866D01*
X60886536Y-40470000D01*
X60886536Y-41670000D01*
X60913103Y-41811190D01*
X60996546Y-41940865D01*
X61113798Y-42020980D01*
X61004135Y-42091546D01*
X60917141Y-42218866D01*
X60886536Y-42370000D01*
X60886536Y-43570000D01*
X60913103Y-43711190D01*
X60996546Y-43840865D01*
X61123866Y-43927859D01*
X61275000Y-43958464D01*
X62025000Y-43958464D01*
X62166190Y-43931897D01*
X62198665Y-43911000D01*
X62801981Y-43911000D01*
X62811546Y-43925865D01*
X62906187Y-43990530D01*
X62900794Y-43994000D01*
X62205000Y-43994000D01*
X61969776Y-44040789D01*
X61963527Y-44042032D01*
X61799643Y-44151536D01*
X61315000Y-44151536D01*
X61173810Y-44178103D01*
X61044135Y-44261546D01*
X60957141Y-44388866D01*
X60926536Y-44540000D01*
X60926536Y-45740000D01*
X60953103Y-45881190D01*
X61036546Y-46010865D01*
X61153798Y-46090980D01*
X61044135Y-46161546D01*
X60957141Y-46288866D01*
X60926536Y-46440000D01*
X60926536Y-47640000D01*
X60953103Y-47781190D01*
X61036546Y-47910865D01*
X61163866Y-47997859D01*
X61315000Y-48028464D01*
X61979000Y-48028464D01*
X61979000Y-48278631D01*
X61773816Y-48483816D01*
X61736096Y-48521536D01*
X61265000Y-48521536D01*
X61123810Y-48548103D01*
X60994135Y-48631546D01*
X60907141Y-48758866D01*
X60876536Y-48910000D01*
X60876536Y-50110000D01*
X60903103Y-50251190D01*
X60913972Y-50268081D01*
X60905301Y-50271673D01*
X60726673Y-50450302D01*
X60630000Y-50683691D01*
X60630000Y-51124250D01*
X60788750Y-51283000D01*
X61513000Y-51283000D01*
X61513000Y-51263000D01*
X61767000Y-51263000D01*
X61767000Y-51283000D01*
X62491250Y-51283000D01*
X62650000Y-51124250D01*
X62650000Y-50683691D01*
X62553327Y-50450302D01*
X62374699Y-50271673D01*
X62367652Y-50268754D01*
X62372859Y-50261134D01*
X62403464Y-50110000D01*
X62403464Y-49638904D01*
X62717830Y-49324538D01*
X62701536Y-49405000D01*
X62701536Y-50005000D01*
X62728103Y-50146190D01*
X62811546Y-50275865D01*
X62938866Y-50362859D01*
X63090000Y-50393464D01*
X65090000Y-50393464D01*
X65209385Y-50371000D01*
X65648632Y-50371000D01*
X66039000Y-50761369D01*
X66039000Y-51328632D01*
X65158632Y-52209000D01*
X62619890Y-52209000D01*
X62650000Y-52136309D01*
X62650000Y-51695750D01*
X62491250Y-51537000D01*
X61767000Y-51537000D01*
X61767000Y-51557000D01*
X61513000Y-51557000D01*
X61513000Y-51537000D01*
X60788750Y-51537000D01*
X60630000Y-51695750D01*
X60630000Y-52136309D01*
X60660110Y-52209000D01*
X59638464Y-52209000D01*
X59638464Y-51990000D01*
X59611897Y-51848810D01*
X59528454Y-51719135D01*
X59401134Y-51632141D01*
X59250000Y-51601536D01*
X57550000Y-51601536D01*
X57408810Y-51628103D01*
X57279135Y-51711546D01*
X57192141Y-51838866D01*
X57161536Y-51990000D01*
X57161536Y-53690000D01*
X57188103Y-53831190D01*
X57271546Y-53960865D01*
X57398866Y-54047859D01*
X57550000Y-54078464D01*
X59250000Y-54078464D01*
X59391190Y-54051897D01*
X59520865Y-53968454D01*
X59607859Y-53841134D01*
X59638464Y-53690000D01*
X59638464Y-53471000D01*
X65420000Y-53471000D01*
X65661473Y-53422968D01*
X65866184Y-53286184D01*
X66018678Y-53133690D01*
X67125000Y-53133690D01*
X67125000Y-53374250D01*
X67283750Y-53533000D01*
X68583000Y-53533000D01*
X68583000Y-52783750D01*
X68837000Y-52783750D01*
X68837000Y-53533000D01*
X70136250Y-53533000D01*
X70295000Y-53374250D01*
X70295000Y-53133690D01*
X70198327Y-52900301D01*
X70019698Y-52721673D01*
X69786309Y-52625000D01*
X68995750Y-52625000D01*
X68837000Y-52783750D01*
X68583000Y-52783750D01*
X68424250Y-52625000D01*
X67633691Y-52625000D01*
X67400302Y-52721673D01*
X67221673Y-52900301D01*
X67125000Y-53133690D01*
X66018678Y-53133690D01*
X67116184Y-52036184D01*
X67252968Y-51831473D01*
X67301000Y-51590000D01*
X67301000Y-50500000D01*
X67252968Y-50258527D01*
X67252968Y-50258526D01*
X67116184Y-50053815D01*
X66386321Y-49323953D01*
X66366184Y-49293816D01*
X66161473Y-49157032D01*
X65920000Y-49109000D01*
X65331668Y-49109000D01*
X65290688Y-49081000D01*
X65880000Y-49081000D01*
X66121473Y-49032968D01*
X66326184Y-48896184D01*
X66377407Y-48844961D01*
X66393583Y-48861166D01*
X66754011Y-49010829D01*
X67144277Y-49011170D01*
X67504966Y-48862136D01*
X67781166Y-48586417D01*
X67930829Y-48225989D01*
X67931170Y-47835723D01*
X67782136Y-47475034D01*
X67506417Y-47198834D01*
X67145989Y-47049171D01*
X66755723Y-47048830D01*
X66395034Y-47197864D01*
X66167057Y-47425444D01*
X66058527Y-47447032D01*
X65853816Y-47583815D01*
X65633632Y-47804000D01*
X65280443Y-47804000D01*
X65273813Y-47799470D01*
X65360865Y-47743454D01*
X65447859Y-47616134D01*
X65478464Y-47465000D01*
X65478464Y-46865000D01*
X65451897Y-46723810D01*
X65368454Y-46594135D01*
X65273813Y-46529470D01*
X65360865Y-46473454D01*
X65447859Y-46346134D01*
X65478464Y-46195000D01*
X65478464Y-45595000D01*
X65451897Y-45453810D01*
X65368454Y-45324135D01*
X65273813Y-45259470D01*
X65360865Y-45203454D01*
X65447859Y-45076134D01*
X65478464Y-44925000D01*
X65478464Y-44325000D01*
X65451897Y-44183810D01*
X65368454Y-44054135D01*
X65273813Y-43989470D01*
X65360865Y-43933454D01*
X65447859Y-43806134D01*
X65478464Y-43655000D01*
X65478464Y-43055000D01*
X65451897Y-42913810D01*
X65368454Y-42784135D01*
X65276053Y-42721000D01*
X65960000Y-42721000D01*
X66201473Y-42672968D01*
X66406184Y-42536184D01*
X66571618Y-42370750D01*
X68355000Y-42370750D01*
X68355000Y-42511310D01*
X68451673Y-42744699D01*
X68628554Y-42921579D01*
X68601536Y-43055000D01*
X68601536Y-43655000D01*
X68628103Y-43796190D01*
X68711546Y-43925865D01*
X68806187Y-43990530D01*
X68719135Y-44046546D01*
X68632141Y-44173866D01*
X68601536Y-44325000D01*
X68601536Y-44925000D01*
X68628103Y-45066190D01*
X68711546Y-45195865D01*
X68806187Y-45260530D01*
X68719135Y-45316546D01*
X68632141Y-45443866D01*
X68601536Y-45595000D01*
X68601536Y-46195000D01*
X68628103Y-46336190D01*
X68711546Y-46465865D01*
X68806187Y-46530530D01*
X68719135Y-46586546D01*
X68632141Y-46713866D01*
X68601536Y-46865000D01*
X68601536Y-47465000D01*
X68628103Y-47606190D01*
X68711546Y-47735865D01*
X68806187Y-47800530D01*
X68719135Y-47856546D01*
X68632141Y-47983866D01*
X68601536Y-48135000D01*
X68601536Y-48735000D01*
X68628103Y-48876190D01*
X68711546Y-49005865D01*
X68806187Y-49070530D01*
X68719135Y-49126546D01*
X68632141Y-49253866D01*
X68601536Y-49405000D01*
X68601536Y-50005000D01*
X68628103Y-50146190D01*
X68711546Y-50275865D01*
X68838866Y-50362859D01*
X68990000Y-50393464D01*
X69536096Y-50393464D01*
X72674816Y-53532184D01*
X72879527Y-53668968D01*
X73121000Y-53717000D01*
X74607536Y-53717000D01*
X74607536Y-53936000D01*
X74634103Y-54077190D01*
X74717546Y-54206865D01*
X74844866Y-54293859D01*
X74996000Y-54324464D01*
X76696000Y-54324464D01*
X76837190Y-54297897D01*
X76966865Y-54214454D01*
X77053859Y-54087134D01*
X77084464Y-53936000D01*
X77084464Y-52236000D01*
X77057897Y-52094810D01*
X76974454Y-51965135D01*
X76847134Y-51878141D01*
X76696000Y-51847536D01*
X74996000Y-51847536D01*
X74854810Y-51874103D01*
X74725135Y-51957546D01*
X74638141Y-52084866D01*
X74607536Y-52236000D01*
X74607536Y-52455000D01*
X73382368Y-52455000D01*
X71230416Y-50303048D01*
X71260865Y-50283454D01*
X71347859Y-50156134D01*
X71378464Y-50005000D01*
X71378464Y-49405000D01*
X71351897Y-49263810D01*
X71268454Y-49134135D01*
X71173813Y-49069470D01*
X71179206Y-49066000D01*
X75235119Y-49066000D01*
X75350800Y-49143296D01*
X75821883Y-49237000D01*
X75870117Y-49237000D01*
X76341200Y-49143296D01*
X76740565Y-48876448D01*
X77007413Y-48477083D01*
X77101117Y-48006000D01*
X77007413Y-47534917D01*
X76740565Y-47135552D01*
X76341200Y-46868704D01*
X75870117Y-46775000D01*
X75821883Y-46775000D01*
X75350800Y-46868704D01*
X74951435Y-47135552D01*
X74684587Y-47534917D01*
X74631063Y-47804000D01*
X71180443Y-47804000D01*
X71173813Y-47799470D01*
X71260865Y-47743454D01*
X71347859Y-47616134D01*
X71378464Y-47465000D01*
X71378464Y-46865000D01*
X71351897Y-46723810D01*
X71268454Y-46594135D01*
X71173813Y-46529470D01*
X71260865Y-46473454D01*
X71347859Y-46346134D01*
X71378464Y-46195000D01*
X71378464Y-45595000D01*
X71351897Y-45453810D01*
X71268454Y-45324135D01*
X71173813Y-45259470D01*
X71260865Y-45203454D01*
X71347859Y-45076134D01*
X71378464Y-44925000D01*
X71378464Y-44325000D01*
X71351897Y-44183810D01*
X71268454Y-44054135D01*
X71173813Y-43989470D01*
X71260865Y-43933454D01*
X71347859Y-43806134D01*
X71378464Y-43655000D01*
X71378464Y-43055000D01*
X71353056Y-42919969D01*
X71528327Y-42744699D01*
X71625000Y-42511310D01*
X71625000Y-42370750D01*
X71466250Y-42212000D01*
X70117000Y-42212000D01*
X70117000Y-42232000D01*
X69863000Y-42232000D01*
X69863000Y-42212000D01*
X68513750Y-42212000D01*
X68355000Y-42370750D01*
X66571618Y-42370750D01*
X67176184Y-41766185D01*
X67184196Y-41754194D01*
X67196184Y-41746184D01*
X67332968Y-41541473D01*
X67381000Y-41300000D01*
X67381000Y-40943368D01*
X67693816Y-41256185D01*
X67884830Y-41383816D01*
X67898527Y-41392968D01*
X68140000Y-41441000D01*
X68445170Y-41441000D01*
X68355000Y-41658690D01*
X68355000Y-41799250D01*
X68513750Y-41958000D01*
X69863000Y-41958000D01*
X69863000Y-41938000D01*
X70117000Y-41938000D01*
X70117000Y-41958000D01*
X71466250Y-41958000D01*
X71554250Y-41870000D01*
X74711536Y-41870000D01*
X74711536Y-43570000D01*
X74738103Y-43711190D01*
X74821546Y-43840865D01*
X74948866Y-43927859D01*
X75100000Y-43958464D01*
X76800000Y-43958464D01*
X76941190Y-43931897D01*
X77070865Y-43848454D01*
X77157859Y-43721134D01*
X77188464Y-43570000D01*
X77188464Y-41870000D01*
X77161897Y-41728810D01*
X77078454Y-41599135D01*
X76951134Y-41512141D01*
X76800000Y-41481536D01*
X75100000Y-41481536D01*
X74958810Y-41508103D01*
X74829135Y-41591546D01*
X74742141Y-41718866D01*
X74711536Y-41870000D01*
X71554250Y-41870000D01*
X71625000Y-41799250D01*
X71625000Y-41658690D01*
X71528327Y-41425301D01*
X71351446Y-41248421D01*
X71378464Y-41115000D01*
X71378464Y-40515000D01*
X71351897Y-40373810D01*
X71268454Y-40244135D01*
X71141134Y-40157141D01*
X70990000Y-40126536D01*
X68990000Y-40126536D01*
X68848810Y-40153103D01*
X68808565Y-40179000D01*
X68401369Y-40179000D01*
X68281000Y-40058632D01*
X68281000Y-38367631D01*
X68391190Y-38346897D01*
X68520865Y-38263454D01*
X68607859Y-38136134D01*
X68638464Y-37985000D01*
X68638464Y-37640000D01*
X74694883Y-37640000D01*
X74788587Y-38111083D01*
X75055435Y-38510448D01*
X75454800Y-38777296D01*
X75925883Y-38871000D01*
X75974117Y-38871000D01*
X76445200Y-38777296D01*
X76844565Y-38510448D01*
X77111413Y-38111083D01*
X77205117Y-37640000D01*
X77111413Y-37168917D01*
X76844565Y-36769552D01*
X76445200Y-36502704D01*
X75974117Y-36409000D01*
X75925883Y-36409000D01*
X75454800Y-36502704D01*
X75055435Y-36769552D01*
X74788587Y-37168917D01*
X74694883Y-37640000D01*
X68638464Y-37640000D01*
X68638464Y-37235000D01*
X68611897Y-37093810D01*
X68528454Y-36964135D01*
X68401134Y-36877141D01*
X68281000Y-36852814D01*
X68281000Y-36000269D01*
X68290999Y-35950000D01*
X68242968Y-35708526D01*
X68106184Y-35503815D01*
X67013368Y-34411000D01*
X85178632Y-34411000D01*
X89049000Y-38281369D01*
X89049000Y-42192580D01*
X88519580Y-42722000D01*
X85438464Y-42722000D01*
X85438464Y-42625000D01*
X86064250Y-42625000D01*
X86223000Y-42466250D01*
X86223000Y-40767000D01*
X86477000Y-40767000D01*
X86477000Y-42466250D01*
X86635750Y-42625000D01*
X87976310Y-42625000D01*
X88209699Y-42528327D01*
X88388327Y-42349698D01*
X88485000Y-42116309D01*
X88485000Y-40925750D01*
X88326250Y-40767000D01*
X86477000Y-40767000D01*
X86223000Y-40767000D01*
X84373750Y-40767000D01*
X84215000Y-40925750D01*
X84215000Y-42116309D01*
X84242018Y-42181536D01*
X83650000Y-42181536D01*
X83508810Y-42208103D01*
X83379135Y-42291546D01*
X83292141Y-42418866D01*
X83261536Y-42570000D01*
X83261536Y-42870000D01*
X83281043Y-42973670D01*
X83263964Y-43058010D01*
X83111673Y-43210302D01*
X83015000Y-43443691D01*
X83015000Y-43486250D01*
X83121748Y-43592998D01*
X83015000Y-43592998D01*
X83015000Y-43702000D01*
X82250420Y-43702000D01*
X78369210Y-39820790D01*
X78204403Y-39710669D01*
X78010000Y-39672000D01*
X77086746Y-39672000D01*
X76844565Y-39309552D01*
X76626270Y-39163691D01*
X84215000Y-39163691D01*
X84215000Y-40354250D01*
X84373750Y-40513000D01*
X86223000Y-40513000D01*
X86223000Y-38813750D01*
X86477000Y-38813750D01*
X86477000Y-40513000D01*
X88326250Y-40513000D01*
X88485000Y-40354250D01*
X88485000Y-39163691D01*
X88388327Y-38930302D01*
X88209699Y-38751673D01*
X87976310Y-38655000D01*
X86635750Y-38655000D01*
X86477000Y-38813750D01*
X86223000Y-38813750D01*
X86064250Y-38655000D01*
X84723690Y-38655000D01*
X84490301Y-38751673D01*
X84311673Y-38930302D01*
X84215000Y-39163691D01*
X76626270Y-39163691D01*
X76445200Y-39042704D01*
X75974117Y-38949000D01*
X75925883Y-38949000D01*
X75454800Y-39042704D01*
X75055435Y-39309552D01*
X74788587Y-39708917D01*
X74694883Y-40180000D01*
X74788587Y-40651083D01*
X75055435Y-41050448D01*
X75454800Y-41317296D01*
X75925883Y-41411000D01*
X75974117Y-41411000D01*
X76445200Y-41317296D01*
X76844565Y-41050448D01*
X77086746Y-40688000D01*
X77799580Y-40688000D01*
X81427677Y-44316097D01*
X81360790Y-44360790D01*
X76317575Y-49404005D01*
X75870117Y-49315000D01*
X75821883Y-49315000D01*
X75350800Y-49408704D01*
X74951435Y-49675552D01*
X74684587Y-50074917D01*
X74590883Y-50546000D01*
X74684587Y-51017083D01*
X74951435Y-51416448D01*
X75350800Y-51683296D01*
X75821883Y-51777000D01*
X75870117Y-51777000D01*
X76341200Y-51683296D01*
X76740565Y-51416448D01*
X77007413Y-51017083D01*
X77101117Y-50546000D01*
X77020037Y-50138383D01*
X81930420Y-45228000D01*
X83261536Y-45228000D01*
X83261536Y-45370000D01*
X83281043Y-45473670D01*
X83261536Y-45570000D01*
X83261536Y-45870000D01*
X83281043Y-45973670D01*
X83261536Y-46070000D01*
X83261536Y-46202000D01*
X82020000Y-46202000D01*
X81825597Y-46240669D01*
X81660790Y-46350790D01*
X79030790Y-48980790D01*
X78920669Y-49145597D01*
X78882000Y-49340000D01*
X78882000Y-50922450D01*
X78798810Y-50938103D01*
X78669135Y-51021546D01*
X78582141Y-51148866D01*
X78551536Y-51300000D01*
X78551536Y-52500000D01*
X78578103Y-52641190D01*
X78661546Y-52770865D01*
X78788866Y-52857859D01*
X78940000Y-52888464D01*
X79840000Y-52888464D01*
X79981190Y-52861897D01*
X80110865Y-52778454D01*
X80197859Y-52651134D01*
X80228464Y-52500000D01*
X80228464Y-51300000D01*
X80201897Y-51158810D01*
X80118454Y-51029135D01*
X79991134Y-50942141D01*
X79898000Y-50923281D01*
X79898000Y-49550420D01*
X82230420Y-47218000D01*
X83261536Y-47218000D01*
X83261536Y-47370000D01*
X83281043Y-47473670D01*
X83261536Y-47570000D01*
X83261536Y-47702000D01*
X83000274Y-47702000D01*
X82950000Y-47692000D01*
X82755596Y-47730669D01*
X82590790Y-47840790D01*
X81310790Y-49120790D01*
X81200669Y-49285597D01*
X81162000Y-49480000D01*
X81162000Y-52250000D01*
X81200669Y-52444403D01*
X81310790Y-52609210D01*
X82141536Y-53439956D01*
X82141536Y-54160000D01*
X82168103Y-54301190D01*
X82251546Y-54430865D01*
X82378866Y-54517859D01*
X82530000Y-54548464D01*
X82779000Y-54548464D01*
X82779000Y-57027000D01*
X49290000Y-57027000D01*
X49048527Y-57075032D01*
X48843816Y-57211816D01*
X48546632Y-57509000D01*
X42849565Y-57509000D01*
X43188448Y-57282565D01*
X43455296Y-56883200D01*
X43463690Y-56841000D01*
X53405894Y-56841000D01*
X53431546Y-56880865D01*
X53558866Y-56967859D01*
X53710000Y-56998464D01*
X54510000Y-56998464D01*
X54651190Y-56971897D01*
X54780865Y-56888454D01*
X54867859Y-56761134D01*
X54892186Y-56641000D01*
X62430000Y-56641000D01*
X62671473Y-56592968D01*
X62876184Y-56456184D01*
X64026185Y-55306184D01*
X64026187Y-55306181D01*
X64091368Y-55241000D01*
X64455894Y-55241000D01*
X64481546Y-55280865D01*
X64608866Y-55367859D01*
X64760000Y-55398464D01*
X66660000Y-55398464D01*
X66801190Y-55371897D01*
X66930865Y-55288454D01*
X67017859Y-55161134D01*
X67018088Y-55160000D01*
X67371536Y-55160000D01*
X67371536Y-55960000D01*
X67398103Y-56101190D01*
X67481546Y-56230865D01*
X67608866Y-56317859D01*
X67760000Y-56348464D01*
X69660000Y-56348464D01*
X69801190Y-56321897D01*
X69930865Y-56238454D01*
X69963289Y-56191000D01*
X77930000Y-56191000D01*
X78171473Y-56142968D01*
X78376184Y-56006184D01*
X79293905Y-55088464D01*
X79840000Y-55088464D01*
X79981190Y-55061897D01*
X80110865Y-54978454D01*
X80197859Y-54851134D01*
X80228464Y-54700000D01*
X80228464Y-53500000D01*
X80201897Y-53358810D01*
X80118454Y-53229135D01*
X79991134Y-53142141D01*
X79840000Y-53111536D01*
X78940000Y-53111536D01*
X78798810Y-53138103D01*
X78669135Y-53221546D01*
X78582141Y-53348866D01*
X78551536Y-53500000D01*
X78551536Y-54046095D01*
X77668632Y-54929000D01*
X69964106Y-54929000D01*
X69938454Y-54889135D01*
X69811134Y-54802141D01*
X69660000Y-54771536D01*
X67760000Y-54771536D01*
X67618810Y-54798103D01*
X67489135Y-54881546D01*
X67402141Y-55008866D01*
X67371536Y-55160000D01*
X67018088Y-55160000D01*
X67048464Y-55010000D01*
X67048464Y-54210000D01*
X67021897Y-54068810D01*
X66942711Y-53945750D01*
X67125000Y-53945750D01*
X67125000Y-54186310D01*
X67221673Y-54419699D01*
X67400302Y-54598327D01*
X67633691Y-54695000D01*
X68424250Y-54695000D01*
X68583000Y-54536250D01*
X68583000Y-53787000D01*
X68837000Y-53787000D01*
X68837000Y-54536250D01*
X68995750Y-54695000D01*
X69786309Y-54695000D01*
X70019698Y-54598327D01*
X70198327Y-54419699D01*
X70295000Y-54186310D01*
X70295000Y-53945750D01*
X70136250Y-53787000D01*
X68837000Y-53787000D01*
X68583000Y-53787000D01*
X67283750Y-53787000D01*
X67125000Y-53945750D01*
X66942711Y-53945750D01*
X66938454Y-53939135D01*
X66811134Y-53852141D01*
X66660000Y-53821536D01*
X64760000Y-53821536D01*
X64618810Y-53848103D01*
X64489135Y-53931546D01*
X64456711Y-53979000D01*
X63830000Y-53979000D01*
X63629862Y-54018810D01*
X63588526Y-54027032D01*
X63383815Y-54163816D01*
X63133819Y-54413813D01*
X63133816Y-54413815D01*
X62168632Y-55379000D01*
X54613441Y-55379000D01*
X54651190Y-55371897D01*
X54780865Y-55288454D01*
X54867859Y-55161134D01*
X54898464Y-55010000D01*
X54898464Y-54210000D01*
X54871897Y-54068810D01*
X54788454Y-53939135D01*
X54661134Y-53852141D01*
X54510000Y-53821536D01*
X53710000Y-53821536D01*
X53568810Y-53848103D01*
X53439135Y-53931546D01*
X53406711Y-53979000D01*
X52228280Y-53979000D01*
X52170454Y-53889135D01*
X52043134Y-53802141D01*
X51892000Y-53771536D01*
X50692000Y-53771536D01*
X50550810Y-53798103D01*
X50421135Y-53881546D01*
X50334141Y-54008866D01*
X50303536Y-54160000D01*
X50303536Y-55060000D01*
X50330103Y-55201190D01*
X50413546Y-55330865D01*
X50540866Y-55417859D01*
X50692000Y-55448464D01*
X51892000Y-55448464D01*
X52033190Y-55421897D01*
X52162865Y-55338454D01*
X52229452Y-55241000D01*
X53405894Y-55241000D01*
X53431546Y-55280865D01*
X53558866Y-55367859D01*
X53710000Y-55398464D01*
X54212148Y-55398464D01*
X54096157Y-55421536D01*
X53710000Y-55421536D01*
X53568810Y-55448103D01*
X53439135Y-55531546D01*
X53406711Y-55579000D01*
X43245621Y-55579000D01*
X43188448Y-55493435D01*
X42810654Y-55241000D01*
X48155720Y-55241000D01*
X48213546Y-55330865D01*
X48340866Y-55417859D01*
X48492000Y-55448464D01*
X49692000Y-55448464D01*
X49833190Y-55421897D01*
X49962865Y-55338454D01*
X50049859Y-55211134D01*
X50080464Y-55060000D01*
X50080464Y-54160000D01*
X50053897Y-54018810D01*
X49970454Y-53889135D01*
X49843134Y-53802141D01*
X49692000Y-53771536D01*
X48492000Y-53771536D01*
X48350810Y-53798103D01*
X48221135Y-53881546D01*
X48154548Y-53979000D01*
X41556000Y-53979000D01*
X41314527Y-54027032D01*
X41109816Y-54163815D01*
X40124096Y-55149536D01*
X38928000Y-55149536D01*
X38786810Y-55176103D01*
X38657135Y-55259546D01*
X38570141Y-55386866D01*
X38539536Y-55538000D01*
X38539536Y-57238000D01*
X38566103Y-57379190D01*
X38649546Y-57508865D01*
X38649744Y-57509000D01*
X37471369Y-57509000D01*
X36321000Y-56358632D01*
X36321000Y-50091464D01*
X37414000Y-50091464D01*
X37555190Y-50064897D01*
X37684865Y-49981454D01*
X37771859Y-49854134D01*
X37802464Y-49703000D01*
X37802464Y-49103000D01*
X37775897Y-48961810D01*
X37692454Y-48832135D01*
X37597813Y-48767470D01*
X37684865Y-48711454D01*
X37771859Y-48584134D01*
X37802464Y-48433000D01*
X37802464Y-47833000D01*
X37777056Y-47697970D01*
X37952327Y-47522698D01*
X38049000Y-47289309D01*
X38049000Y-47148750D01*
X37890250Y-46990000D01*
X35841000Y-46990000D01*
X35841000Y-47010000D01*
X35587000Y-47010000D01*
X35587000Y-46990000D01*
X33537750Y-46990000D01*
X33379000Y-47148750D01*
X33379000Y-47289309D01*
X33475673Y-47522698D01*
X33652554Y-47699580D01*
X33625536Y-47833000D01*
X33625536Y-48433000D01*
X33652103Y-48574190D01*
X33735546Y-48703865D01*
X33830187Y-48768530D01*
X33743135Y-48824546D01*
X33656141Y-48951866D01*
X33625536Y-49103000D01*
X33625536Y-49703000D01*
X33652103Y-49844190D01*
X33735546Y-49973865D01*
X33862866Y-50060859D01*
X34014000Y-50091464D01*
X35059000Y-50091464D01*
X35059000Y-56620000D01*
X35101604Y-56834184D01*
X35107032Y-56861473D01*
X35243816Y-57066184D01*
X36763816Y-58586185D01*
X36968527Y-58722968D01*
X37210000Y-58771000D01*
X48808000Y-58771000D01*
X49049473Y-58722968D01*
X49254184Y-58586184D01*
X49551368Y-58289000D01*
X82927443Y-58289000D01*
X83103552Y-58552565D01*
X83502917Y-58819413D01*
X83974000Y-58913117D01*
X84445083Y-58819413D01*
X84844448Y-58552565D01*
X85029000Y-58276364D01*
X85029000Y-58634309D01*
X85125673Y-58867698D01*
X85304301Y-59046327D01*
X85537690Y-59143000D01*
X86228250Y-59143000D01*
X86387000Y-58984250D01*
X86387000Y-57785000D01*
X86641000Y-57785000D01*
X86641000Y-58984250D01*
X86799750Y-59143000D01*
X87490310Y-59143000D01*
X87723699Y-59046327D01*
X87902327Y-58867698D01*
X87999000Y-58634309D01*
X87999000Y-57943750D01*
X87840250Y-57785000D01*
X86641000Y-57785000D01*
X86387000Y-57785000D01*
X86367000Y-57785000D01*
X86367000Y-57531000D01*
X86387000Y-57531000D01*
X86387000Y-56331750D01*
X86641000Y-56331750D01*
X86641000Y-57531000D01*
X87840250Y-57531000D01*
X87999000Y-57372250D01*
X87999000Y-56681691D01*
X87902327Y-56448302D01*
X87723699Y-56269673D01*
X87490310Y-56173000D01*
X86799750Y-56173000D01*
X86641000Y-56331750D01*
X86387000Y-56331750D01*
X86228250Y-56173000D01*
X85537690Y-56173000D01*
X85304301Y-56269673D01*
X85125673Y-56448302D01*
X85029000Y-56681691D01*
X85029000Y-57039636D01*
X84844448Y-56763435D01*
X84445083Y-56496587D01*
X84041000Y-56416210D01*
X84041000Y-54379714D01*
X84087859Y-54311134D01*
X84118464Y-54160000D01*
X84118464Y-53260000D01*
X84091897Y-53118810D01*
X84008454Y-52989135D01*
X83881134Y-52902141D01*
X83730000Y-52871536D01*
X83009956Y-52871536D01*
X82178000Y-52039580D01*
X82178000Y-50585750D01*
X84215000Y-50585750D01*
X84215000Y-51776309D01*
X84311673Y-52009698D01*
X84490301Y-52188327D01*
X84723690Y-52285000D01*
X86064250Y-52285000D01*
X86223000Y-52126250D01*
X86223000Y-50427000D01*
X86477000Y-50427000D01*
X86477000Y-52126250D01*
X86635750Y-52285000D01*
X87976310Y-52285000D01*
X88209699Y-52188327D01*
X88388327Y-52009698D01*
X88485000Y-51776309D01*
X88485000Y-50585750D01*
X88326250Y-50427000D01*
X86477000Y-50427000D01*
X86223000Y-50427000D01*
X84373750Y-50427000D01*
X84215000Y-50585750D01*
X82178000Y-50585750D01*
X82178000Y-49690420D01*
X83150420Y-48718000D01*
X83484437Y-48718000D01*
X83498866Y-48727859D01*
X83650000Y-48758464D01*
X84242018Y-48758464D01*
X84215000Y-48823691D01*
X84215000Y-50014250D01*
X84373750Y-50173000D01*
X86223000Y-50173000D01*
X86223000Y-48473750D01*
X86477000Y-48473750D01*
X86477000Y-50173000D01*
X88326250Y-50173000D01*
X88485000Y-50014250D01*
X88485000Y-48823691D01*
X88388327Y-48590302D01*
X88209699Y-48411673D01*
X87976310Y-48315000D01*
X86635750Y-48315000D01*
X86477000Y-48473750D01*
X86223000Y-48473750D01*
X86064250Y-48315000D01*
X85438464Y-48315000D01*
X85438464Y-48070000D01*
X85418957Y-47966330D01*
X85438464Y-47870000D01*
X85438464Y-47570000D01*
X85418957Y-47466330D01*
X85438464Y-47370000D01*
X85438464Y-47070000D01*
X85418957Y-46966330D01*
X85438464Y-46870000D01*
X85438464Y-46570000D01*
X85418957Y-46466330D01*
X85438464Y-46370000D01*
X85438464Y-46070000D01*
X85418957Y-45966330D01*
X85438464Y-45870000D01*
X85438464Y-45570000D01*
X85418957Y-45466330D01*
X85438464Y-45370000D01*
X85438464Y-45070000D01*
X85418957Y-44966330D01*
X85438464Y-44870000D01*
X85438464Y-44570000D01*
X85418957Y-44466330D01*
X85436036Y-44381990D01*
X85588327Y-44229698D01*
X85685000Y-43996309D01*
X85685000Y-43953750D01*
X85578252Y-43847002D01*
X85685000Y-43847002D01*
X85685000Y-43738000D01*
X88730000Y-43738000D01*
X88924403Y-43699331D01*
X89049000Y-43616078D01*
X89049000Y-51388631D01*
X87448632Y-52989000D01*
X86208256Y-52989000D01*
X86081134Y-52902141D01*
X85930000Y-52871536D01*
X84730000Y-52871536D01*
X84588810Y-52898103D01*
X84459135Y-52981546D01*
X84372141Y-53108866D01*
X84341536Y-53260000D01*
X84341536Y-54160000D01*
X84368103Y-54301190D01*
X84451546Y-54430865D01*
X84578866Y-54517859D01*
X84730000Y-54548464D01*
X85930000Y-54548464D01*
X86071190Y-54521897D01*
X86200865Y-54438454D01*
X86287859Y-54311134D01*
X86300036Y-54251000D01*
X87710000Y-54251000D01*
X87951473Y-54202968D01*
X88156184Y-54066184D01*
X90026184Y-52196185D01*
X90066240Y-52136238D01*
X90126184Y-52096184D01*
X90262968Y-51891473D01*
X90311000Y-51650000D01*
X90311000Y-38020000D01*
X90262968Y-37778527D01*
X90225845Y-37722968D01*
X90126185Y-37573816D01*
X85886184Y-33333816D01*
X85681473Y-33197032D01*
X85440000Y-33149000D01*
X57121368Y-33149000D01*
X55386184Y-31413816D01*
X55181473Y-31277032D01*
X54940000Y-31229000D01*
X51670000Y-31229000D01*
X51468589Y-31269063D01*
X51428526Y-31277032D01*
X51223815Y-31413816D01*
X49582565Y-33055067D01*
X49280000Y-32994883D01*
X48808917Y-33088587D01*
X48409552Y-33355435D01*
X48142704Y-33754800D01*
X48049000Y-34225883D01*
X48049000Y-34274117D01*
X48142704Y-34745200D01*
X48409552Y-35144565D01*
X48808917Y-35411413D01*
X49280000Y-35505117D01*
X49751083Y-35411413D01*
X49766559Y-35401072D01*
X43803955Y-41363677D01*
X43773815Y-41383816D01*
X42735632Y-42422000D01*
X37604443Y-42422000D01*
X37597813Y-42417470D01*
X37684865Y-42361454D01*
X37771859Y-42234134D01*
X37802464Y-42083000D01*
X37802464Y-41483000D01*
X37775897Y-41341810D01*
X37692454Y-41212135D01*
X37632251Y-41171000D01*
X43340000Y-41171000D01*
X43581473Y-41122968D01*
X43786184Y-40986184D01*
X47166184Y-37606184D01*
X47186184Y-37586185D01*
X47322968Y-37381474D01*
X47352103Y-37235000D01*
X47371000Y-37140000D01*
X47371000Y-35488464D01*
X47590000Y-35488464D01*
X47731190Y-35461897D01*
X47860865Y-35378454D01*
X47947859Y-35251134D01*
X47978464Y-35100000D01*
X47978464Y-33400000D01*
X47951897Y-33258810D01*
X47868454Y-33129135D01*
X47741134Y-33042141D01*
X47590000Y-33011536D01*
X45890000Y-33011536D01*
X45748810Y-33038103D01*
X45619135Y-33121546D01*
X45532141Y-33248866D01*
X45501536Y-33400000D01*
X45501536Y-35100000D01*
X45528103Y-35241190D01*
X45611546Y-35370865D01*
X45738866Y-35457859D01*
X45890000Y-35488464D01*
X46109000Y-35488464D01*
X46109000Y-36878632D01*
X43078632Y-39909000D01*
X37643959Y-39909000D01*
X37565134Y-39855141D01*
X37414000Y-39824536D01*
X34014000Y-39824536D01*
X33872810Y-39851103D01*
X33743135Y-39934546D01*
X33656141Y-40061866D01*
X33625536Y-40213000D01*
X33625536Y-40813000D01*
X33652103Y-40954190D01*
X33735546Y-41083865D01*
X33830187Y-41148530D01*
X33743135Y-41204546D01*
X33656141Y-41331866D01*
X33625536Y-41483000D01*
X33625536Y-42083000D01*
X33652103Y-42224190D01*
X33735546Y-42353865D01*
X33830187Y-42418530D01*
X33743135Y-42474546D01*
X33656141Y-42601866D01*
X33625536Y-42753000D01*
X33625536Y-43353000D01*
X33652103Y-43494190D01*
X33735546Y-43623865D01*
X33830187Y-43688530D01*
X33743135Y-43744546D01*
X33656141Y-43871866D01*
X33625536Y-44023000D01*
X33625536Y-44623000D01*
X33652103Y-44764190D01*
X33735546Y-44893865D01*
X33830187Y-44958530D01*
X33743135Y-45014546D01*
X33656141Y-45141866D01*
X33625536Y-45293000D01*
X33625536Y-45893000D01*
X33650944Y-46028030D01*
X33475673Y-46203302D01*
X33379000Y-46436691D01*
X33122000Y-46436691D01*
X33122000Y-32840552D01*
X34128501Y-32840552D01*
X34566183Y-33899823D01*
X35375914Y-34710969D01*
X36434420Y-35150499D01*
X37580552Y-35151499D01*
X38639823Y-34713817D01*
X39450969Y-33904086D01*
X39890499Y-32845580D01*
X39891499Y-31699448D01*
X39453817Y-30640177D01*
X38644086Y-29829031D01*
X37585580Y-29389501D01*
X36439448Y-29388501D01*
X35380177Y-29826183D01*
X34569031Y-30635914D01*
X34129501Y-31694420D01*
X34128501Y-32840552D01*
X33122000Y-32840552D01*
X33122000Y-29158000D01*
X87999651Y-29158000D01*
X87060177Y-29546183D01*
X87060177Y-29546183D01*
G37*
X87060177Y-29546183D02*
X86249031Y-30355914D01*
X85809501Y-31414420D01*
X85808501Y-32560552D01*
X86246183Y-33619823D01*
X87055914Y-34430969D01*
X88114420Y-34870499D01*
X89260552Y-34871499D01*
X90319823Y-34433817D01*
X91130969Y-33624086D01*
X91570499Y-32565580D01*
X91571499Y-31419448D01*
X91133817Y-30360177D01*
X90324086Y-29549031D01*
X89382379Y-29158000D01*
X91646000Y-29158000D01*
X91646000Y-59996000D01*
X33122000Y-59996000D01*
X33122000Y-46436691D01*
X33379000Y-46436691D01*
X33379000Y-46577250D01*
X33537750Y-46736000D01*
X35587000Y-46736000D01*
X35587000Y-46716000D01*
X35841000Y-46716000D01*
X35841000Y-46736000D01*
X37890250Y-46736000D01*
X38049000Y-46577250D01*
X38049000Y-46436691D01*
X37960900Y-46224000D01*
X43021632Y-46224000D01*
X47673816Y-50876185D01*
X47878527Y-51012968D01*
X48120000Y-51061000D01*
X48145000Y-51056027D01*
X48170000Y-51061000D01*
X57432304Y-51061000D01*
X57505435Y-51170448D01*
X57904800Y-51437296D01*
X58375883Y-51531000D01*
X58424117Y-51531000D01*
X58895200Y-51437296D01*
X59294565Y-51170448D01*
X59561413Y-50771083D01*
X59655117Y-50300000D01*
X59561413Y-49828917D01*
X59294565Y-49429552D01*
X58895200Y-49162704D01*
X58424117Y-49069000D01*
X58375883Y-49069000D01*
X57904800Y-49162704D01*
X57505435Y-49429552D01*
X57258577Y-49799000D01*
X53387665Y-49799000D01*
X53484865Y-49736454D01*
X53571859Y-49609134D01*
X53602464Y-49458000D01*
X53602464Y-47760000D01*
X57144883Y-47760000D01*
X57238587Y-48231083D01*
X57505435Y-48630448D01*
X57904800Y-48897296D01*
X58375883Y-48991000D01*
X58424117Y-48991000D01*
X58895200Y-48897296D01*
X59294565Y-48630448D01*
X59561413Y-48231083D01*
X59655117Y-47760000D01*
X59561413Y-47288917D01*
X59294565Y-46889552D01*
X58895200Y-46622704D01*
X58424117Y-46529000D01*
X58375883Y-46529000D01*
X57904800Y-46622704D01*
X57505435Y-46889552D01*
X57238587Y-47288917D01*
X57144883Y-47760000D01*
X53602464Y-47760000D01*
X53602464Y-41020000D01*
X56781536Y-41020000D01*
X56781536Y-42720000D01*
X56808103Y-42861190D01*
X56891546Y-42990865D01*
X57018866Y-43077859D01*
X57170000Y-43108464D01*
X58870000Y-43108464D01*
X59011190Y-43081897D01*
X59140865Y-42998454D01*
X59227859Y-42871134D01*
X59258464Y-42720000D01*
X59258464Y-41020000D01*
X59231897Y-40878810D01*
X59148454Y-40749135D01*
X59021134Y-40662141D01*
X58870000Y-40631536D01*
X57170000Y-40631536D01*
X57028810Y-40658103D01*
X56899135Y-40741546D01*
X56812141Y-40868866D01*
X56781536Y-41020000D01*
X53602464Y-41020000D01*
X53602464Y-40458000D01*
X53575897Y-40316810D01*
X53514245Y-40221000D01*
X57156193Y-40221000D01*
X57524800Y-40467296D01*
X57995883Y-40561000D01*
X58044117Y-40561000D01*
X58515200Y-40467296D01*
X58914565Y-40200448D01*
X59181413Y-39801083D01*
X59275117Y-39330000D01*
X59181413Y-38858917D01*
X58914565Y-38459552D01*
X58515200Y-38192704D01*
X58044117Y-38099000D01*
X57995883Y-38099000D01*
X57524800Y-38192704D01*
X57125435Y-38459552D01*
X56858587Y-38858917D01*
X56838679Y-38959000D01*
X48890000Y-38959000D01*
X48688589Y-38999063D01*
X48648526Y-39007032D01*
X48443815Y-39143816D01*
X43818632Y-43769000D01*
X37703306Y-43769000D01*
X37692454Y-43752135D01*
X37597813Y-43687470D01*
X37603206Y-43684000D01*
X42997000Y-43684000D01*
X43238473Y-43635968D01*
X43443184Y-43499184D01*
X44636050Y-42306319D01*
X44666184Y-42286184D01*
X50162368Y-36790000D01*
X56764883Y-36790000D01*
X56858587Y-37261083D01*
X57125435Y-37660448D01*
X57524800Y-37927296D01*
X57995883Y-38021000D01*
X58044117Y-38021000D01*
X58515200Y-37927296D01*
X58914565Y-37660448D01*
X59181413Y-37261083D01*
X59275117Y-36790000D01*
X59181413Y-36318917D01*
X58914565Y-35919552D01*
X58515200Y-35652704D01*
X58044117Y-35559000D01*
X57995883Y-35559000D01*
X57524800Y-35652704D01*
X57125435Y-35919552D01*
X56858587Y-36318917D01*
X56764883Y-36790000D01*
X50162368Y-36790000D01*
X51509095Y-35443274D01*
X51820000Y-35505117D01*
X52291083Y-35411413D01*
X52690448Y-35144565D01*
X52957296Y-34745200D01*
X53051000Y-34274117D01*
X53051000Y-34225883D01*
X52957296Y-33754800D01*
X52690448Y-33355435D01*
X52291083Y-33088587D01*
X51820000Y-32994883D01*
X51348917Y-33088587D01*
X51303304Y-33119065D01*
X51931369Y-32491000D01*
X54678632Y-32491000D01*
X56413816Y-34226184D01*
X56618527Y-34362968D01*
X56860000Y-34411000D01*
X65228632Y-34411000D01*
X67019000Y-36201369D01*
X67019000Y-36852369D01*
X66908810Y-36873103D01*
X66779135Y-36956546D01*
X66699020Y-37073798D01*
X66628454Y-36964135D01*
X66501134Y-36877141D01*
X66350000Y-36846536D01*
X65150000Y-36846536D01*
X65008810Y-36873103D01*
X64879135Y-36956546D01*
X64792141Y-37083866D01*
X64761536Y-37235000D01*
X64761536Y-37985000D01*
X64788103Y-38126190D01*
X64871546Y-38255865D01*
X64998866Y-38342859D01*
X65126707Y-38368747D01*
X65167032Y-38571473D01*
X65303816Y-38776184D01*
X66119000Y-39591369D01*
X66119000Y-41038631D01*
X65698632Y-41459000D01*
X65287761Y-41459000D01*
X65273813Y-41449470D01*
X65360865Y-41393454D01*
X65447859Y-41266134D01*
X65478464Y-41115000D01*
X65478464Y-40515000D01*
X65451897Y-40373810D01*
X65368454Y-40244135D01*
X65241134Y-40157141D01*
X65090000Y-40126536D01*
X63090000Y-40126536D01*
X62948810Y-40153103D01*
X62861943Y-40209000D01*
X62309802Y-40209000D01*
X62303454Y-40199135D01*
X62176134Y-40112141D01*
X62025000Y-40081536D01*
X61275000Y-40081536D01*
X61133810Y-40108103D01*
X61004135Y-40191546D01*
X60917141Y-40318866D01*
X60886536Y-40470000D01*
X60886536Y-41670000D01*
X60913103Y-41811190D01*
X60996546Y-41940865D01*
X61113798Y-42020980D01*
X61004135Y-42091546D01*
X60917141Y-42218866D01*
X60886536Y-42370000D01*
X60886536Y-43570000D01*
X60913103Y-43711190D01*
X60996546Y-43840865D01*
X61123866Y-43927859D01*
X61275000Y-43958464D01*
X62025000Y-43958464D01*
X62166190Y-43931897D01*
X62198665Y-43911000D01*
X62801981Y-43911000D01*
X62811546Y-43925865D01*
X62906187Y-43990530D01*
X62900794Y-43994000D01*
X62205000Y-43994000D01*
X61969776Y-44040789D01*
X61963527Y-44042032D01*
X61799643Y-44151536D01*
X61315000Y-44151536D01*
X61173810Y-44178103D01*
X61044135Y-44261546D01*
X60957141Y-44388866D01*
X60926536Y-44540000D01*
X60926536Y-45740000D01*
X60953103Y-45881190D01*
X61036546Y-46010865D01*
X61153798Y-46090980D01*
X61044135Y-46161546D01*
X60957141Y-46288866D01*
X60926536Y-46440000D01*
X60926536Y-47640000D01*
X60953103Y-47781190D01*
X61036546Y-47910865D01*
X61163866Y-47997859D01*
X61315000Y-48028464D01*
X61979000Y-48028464D01*
X61979000Y-48278631D01*
X61773816Y-48483816D01*
X61736096Y-48521536D01*
X61265000Y-48521536D01*
X61123810Y-48548103D01*
X60994135Y-48631546D01*
X60907141Y-48758866D01*
X60876536Y-48910000D01*
X60876536Y-50110000D01*
X60903103Y-50251190D01*
X60913972Y-50268081D01*
X60905301Y-50271673D01*
X60726673Y-50450302D01*
X60630000Y-50683691D01*
X60630000Y-51124250D01*
X60788750Y-51283000D01*
X61513000Y-51283000D01*
X61513000Y-51263000D01*
X61767000Y-51263000D01*
X61767000Y-51283000D01*
X62491250Y-51283000D01*
X62650000Y-51124250D01*
X62650000Y-50683691D01*
X62553327Y-50450302D01*
X62374699Y-50271673D01*
X62367652Y-50268754D01*
X62372859Y-50261134D01*
X62403464Y-50110000D01*
X62403464Y-49638904D01*
X62717830Y-49324538D01*
X62701536Y-49405000D01*
X62701536Y-50005000D01*
X62728103Y-50146190D01*
X62811546Y-50275865D01*
X62938866Y-50362859D01*
X63090000Y-50393464D01*
X65090000Y-50393464D01*
X65209385Y-50371000D01*
X65648632Y-50371000D01*
X66039000Y-50761369D01*
X66039000Y-51328632D01*
X65158632Y-52209000D01*
X62619890Y-52209000D01*
X62650000Y-52136309D01*
X62650000Y-51695750D01*
X62491250Y-51537000D01*
X61767000Y-51537000D01*
X61767000Y-51557000D01*
X61513000Y-51557000D01*
X61513000Y-51537000D01*
X60788750Y-51537000D01*
X60630000Y-51695750D01*
X60630000Y-52136309D01*
X60660110Y-52209000D01*
X59638464Y-52209000D01*
X59638464Y-51990000D01*
X59611897Y-51848810D01*
X59528454Y-51719135D01*
X59401134Y-51632141D01*
X59250000Y-51601536D01*
X57550000Y-51601536D01*
X57408810Y-51628103D01*
X57279135Y-51711546D01*
X57192141Y-51838866D01*
X57161536Y-51990000D01*
X57161536Y-53690000D01*
X57188103Y-53831190D01*
X57271546Y-53960865D01*
X57398866Y-54047859D01*
X57550000Y-54078464D01*
X59250000Y-54078464D01*
X59391190Y-54051897D01*
X59520865Y-53968454D01*
X59607859Y-53841134D01*
X59638464Y-53690000D01*
X59638464Y-53471000D01*
X65420000Y-53471000D01*
X65661473Y-53422968D01*
X65866184Y-53286184D01*
X66018678Y-53133690D01*
X67125000Y-53133690D01*
X67125000Y-53374250D01*
X67283750Y-53533000D01*
X68583000Y-53533000D01*
X68583000Y-52783750D01*
X68837000Y-52783750D01*
X68837000Y-53533000D01*
X70136250Y-53533000D01*
X70295000Y-53374250D01*
X70295000Y-53133690D01*
X70198327Y-52900301D01*
X70019698Y-52721673D01*
X69786309Y-52625000D01*
X68995750Y-52625000D01*
X68837000Y-52783750D01*
X68583000Y-52783750D01*
X68424250Y-52625000D01*
X67633691Y-52625000D01*
X67400302Y-52721673D01*
X67221673Y-52900301D01*
X67125000Y-53133690D01*
X66018678Y-53133690D01*
X67116184Y-52036184D01*
X67252968Y-51831473D01*
X67301000Y-51590000D01*
X67301000Y-50500000D01*
X67252968Y-50258527D01*
X67252968Y-50258526D01*
X67116184Y-50053815D01*
X66386321Y-49323953D01*
X66366184Y-49293816D01*
X66161473Y-49157032D01*
X65920000Y-49109000D01*
X65331668Y-49109000D01*
X65290688Y-49081000D01*
X65880000Y-49081000D01*
X66121473Y-49032968D01*
X66326184Y-48896184D01*
X66377407Y-48844961D01*
X66393583Y-48861166D01*
X66754011Y-49010829D01*
X67144277Y-49011170D01*
X67504966Y-48862136D01*
X67781166Y-48586417D01*
X67930829Y-48225989D01*
X67931170Y-47835723D01*
X67782136Y-47475034D01*
X67506417Y-47198834D01*
X67145989Y-47049171D01*
X66755723Y-47048830D01*
X66395034Y-47197864D01*
X66167057Y-47425444D01*
X66058527Y-47447032D01*
X65853816Y-47583815D01*
X65633632Y-47804000D01*
X65280443Y-47804000D01*
X65273813Y-47799470D01*
X65360865Y-47743454D01*
X65447859Y-47616134D01*
X65478464Y-47465000D01*
X65478464Y-46865000D01*
X65451897Y-46723810D01*
X65368454Y-46594135D01*
X65273813Y-46529470D01*
X65360865Y-46473454D01*
X65447859Y-46346134D01*
X65478464Y-46195000D01*
X65478464Y-45595000D01*
X65451897Y-45453810D01*
X65368454Y-45324135D01*
X65273813Y-45259470D01*
X65360865Y-45203454D01*
X65447859Y-45076134D01*
X65478464Y-44925000D01*
X65478464Y-44325000D01*
X65451897Y-44183810D01*
X65368454Y-44054135D01*
X65273813Y-43989470D01*
X65360865Y-43933454D01*
X65447859Y-43806134D01*
X65478464Y-43655000D01*
X65478464Y-43055000D01*
X65451897Y-42913810D01*
X65368454Y-42784135D01*
X65276053Y-42721000D01*
X65960000Y-42721000D01*
X66201473Y-42672968D01*
X66406184Y-42536184D01*
X66571618Y-42370750D01*
X68355000Y-42370750D01*
X68355000Y-42511310D01*
X68451673Y-42744699D01*
X68628554Y-42921579D01*
X68601536Y-43055000D01*
X68601536Y-43655000D01*
X68628103Y-43796190D01*
X68711546Y-43925865D01*
X68806187Y-43990530D01*
X68719135Y-44046546D01*
X68632141Y-44173866D01*
X68601536Y-44325000D01*
X68601536Y-44925000D01*
X68628103Y-45066190D01*
X68711546Y-45195865D01*
X68806187Y-45260530D01*
X68719135Y-45316546D01*
X68632141Y-45443866D01*
X68601536Y-45595000D01*
X68601536Y-46195000D01*
X68628103Y-46336190D01*
X68711546Y-46465865D01*
X68806187Y-46530530D01*
X68719135Y-46586546D01*
X68632141Y-46713866D01*
X68601536Y-46865000D01*
X68601536Y-47465000D01*
X68628103Y-47606190D01*
X68711546Y-47735865D01*
X68806187Y-47800530D01*
X68719135Y-47856546D01*
X68632141Y-47983866D01*
X68601536Y-48135000D01*
X68601536Y-48735000D01*
X68628103Y-48876190D01*
X68711546Y-49005865D01*
X68806187Y-49070530D01*
X68719135Y-49126546D01*
X68632141Y-49253866D01*
X68601536Y-49405000D01*
X68601536Y-50005000D01*
X68628103Y-50146190D01*
X68711546Y-50275865D01*
X68838866Y-50362859D01*
X68990000Y-50393464D01*
X69536096Y-50393464D01*
X72674816Y-53532184D01*
X72879527Y-53668968D01*
X73121000Y-53717000D01*
X74607536Y-53717000D01*
X74607536Y-53936000D01*
X74634103Y-54077190D01*
X74717546Y-54206865D01*
X74844866Y-54293859D01*
X74996000Y-54324464D01*
X76696000Y-54324464D01*
X76837190Y-54297897D01*
X76966865Y-54214454D01*
X77053859Y-54087134D01*
X77084464Y-53936000D01*
X77084464Y-52236000D01*
X77057897Y-52094810D01*
X76974454Y-51965135D01*
X76847134Y-51878141D01*
X76696000Y-51847536D01*
X74996000Y-51847536D01*
X74854810Y-51874103D01*
X74725135Y-51957546D01*
X74638141Y-52084866D01*
X74607536Y-52236000D01*
X74607536Y-52455000D01*
X73382368Y-52455000D01*
X71230416Y-50303048D01*
X71260865Y-50283454D01*
X71347859Y-50156134D01*
X71378464Y-50005000D01*
X71378464Y-49405000D01*
X71351897Y-49263810D01*
X71268454Y-49134135D01*
X71173813Y-49069470D01*
X71179206Y-49066000D01*
X75235119Y-49066000D01*
X75350800Y-49143296D01*
X75821883Y-49237000D01*
X75870117Y-49237000D01*
X76341200Y-49143296D01*
X76740565Y-48876448D01*
X77007413Y-48477083D01*
X77101117Y-48006000D01*
X77007413Y-47534917D01*
X76740565Y-47135552D01*
X76341200Y-46868704D01*
X75870117Y-46775000D01*
X75821883Y-46775000D01*
X75350800Y-46868704D01*
X74951435Y-47135552D01*
X74684587Y-47534917D01*
X74631063Y-47804000D01*
X71180443Y-47804000D01*
X71173813Y-47799470D01*
X71260865Y-47743454D01*
X71347859Y-47616134D01*
X71378464Y-47465000D01*
X71378464Y-46865000D01*
X71351897Y-46723810D01*
X71268454Y-46594135D01*
X71173813Y-46529470D01*
X71260865Y-46473454D01*
X71347859Y-46346134D01*
X71378464Y-46195000D01*
X71378464Y-45595000D01*
X71351897Y-45453810D01*
X71268454Y-45324135D01*
X71173813Y-45259470D01*
X71260865Y-45203454D01*
X71347859Y-45076134D01*
X71378464Y-44925000D01*
X71378464Y-44325000D01*
X71351897Y-44183810D01*
X71268454Y-44054135D01*
X71173813Y-43989470D01*
X71260865Y-43933454D01*
X71347859Y-43806134D01*
X71378464Y-43655000D01*
X71378464Y-43055000D01*
X71353056Y-42919969D01*
X71528327Y-42744699D01*
X71625000Y-42511310D01*
X71625000Y-42370750D01*
X71466250Y-42212000D01*
X70117000Y-42212000D01*
X70117000Y-42232000D01*
X69863000Y-42232000D01*
X69863000Y-42212000D01*
X68513750Y-42212000D01*
X68355000Y-42370750D01*
X66571618Y-42370750D01*
X67176184Y-41766185D01*
X67184196Y-41754194D01*
X67196184Y-41746184D01*
X67332968Y-41541473D01*
X67381000Y-41300000D01*
X67381000Y-40943368D01*
X67693816Y-41256185D01*
X67884830Y-41383816D01*
X67898527Y-41392968D01*
X68140000Y-41441000D01*
X68445170Y-41441000D01*
X68355000Y-41658690D01*
X68355000Y-41799250D01*
X68513750Y-41958000D01*
X69863000Y-41958000D01*
X69863000Y-41938000D01*
X70117000Y-41938000D01*
X70117000Y-41958000D01*
X71466250Y-41958000D01*
X71554250Y-41870000D01*
X74711536Y-41870000D01*
X74711536Y-43570000D01*
X74738103Y-43711190D01*
X74821546Y-43840865D01*
X74948866Y-43927859D01*
X75100000Y-43958464D01*
X76800000Y-43958464D01*
X76941190Y-43931897D01*
X77070865Y-43848454D01*
X77157859Y-43721134D01*
X77188464Y-43570000D01*
X77188464Y-41870000D01*
X77161897Y-41728810D01*
X77078454Y-41599135D01*
X76951134Y-41512141D01*
X76800000Y-41481536D01*
X75100000Y-41481536D01*
X74958810Y-41508103D01*
X74829135Y-41591546D01*
X74742141Y-41718866D01*
X74711536Y-41870000D01*
X71554250Y-41870000D01*
X71625000Y-41799250D01*
X71625000Y-41658690D01*
X71528327Y-41425301D01*
X71351446Y-41248421D01*
X71378464Y-41115000D01*
X71378464Y-40515000D01*
X71351897Y-40373810D01*
X71268454Y-40244135D01*
X71141134Y-40157141D01*
X70990000Y-40126536D01*
X68990000Y-40126536D01*
X68848810Y-40153103D01*
X68808565Y-40179000D01*
X68401369Y-40179000D01*
X68281000Y-40058632D01*
X68281000Y-38367631D01*
X68391190Y-38346897D01*
X68520865Y-38263454D01*
X68607859Y-38136134D01*
X68638464Y-37985000D01*
X68638464Y-37640000D01*
X74694883Y-37640000D01*
X74788587Y-38111083D01*
X75055435Y-38510448D01*
X75454800Y-38777296D01*
X75925883Y-38871000D01*
X75974117Y-38871000D01*
X76445200Y-38777296D01*
X76844565Y-38510448D01*
X77111413Y-38111083D01*
X77205117Y-37640000D01*
X77111413Y-37168917D01*
X76844565Y-36769552D01*
X76445200Y-36502704D01*
X75974117Y-36409000D01*
X75925883Y-36409000D01*
X75454800Y-36502704D01*
X75055435Y-36769552D01*
X74788587Y-37168917D01*
X74694883Y-37640000D01*
X68638464Y-37640000D01*
X68638464Y-37235000D01*
X68611897Y-37093810D01*
X68528454Y-36964135D01*
X68401134Y-36877141D01*
X68281000Y-36852814D01*
X68281000Y-36000269D01*
X68290999Y-35950000D01*
X68242968Y-35708526D01*
X68106184Y-35503815D01*
X67013368Y-34411000D01*
X85178632Y-34411000D01*
X89049000Y-38281369D01*
X89049000Y-42192580D01*
X88519580Y-42722000D01*
X85438464Y-42722000D01*
X85438464Y-42625000D01*
X86064250Y-42625000D01*
X86223000Y-42466250D01*
X86223000Y-40767000D01*
X86477000Y-40767000D01*
X86477000Y-42466250D01*
X86635750Y-42625000D01*
X87976310Y-42625000D01*
X88209699Y-42528327D01*
X88388327Y-42349698D01*
X88485000Y-42116309D01*
X88485000Y-40925750D01*
X88326250Y-40767000D01*
X86477000Y-40767000D01*
X86223000Y-40767000D01*
X84373750Y-40767000D01*
X84215000Y-40925750D01*
X84215000Y-42116309D01*
X84242018Y-42181536D01*
X83650000Y-42181536D01*
X83508810Y-42208103D01*
X83379135Y-42291546D01*
X83292141Y-42418866D01*
X83261536Y-42570000D01*
X83261536Y-42870000D01*
X83281043Y-42973670D01*
X83263964Y-43058010D01*
X83111673Y-43210302D01*
X83015000Y-43443691D01*
X83015000Y-43486250D01*
X83121748Y-43592998D01*
X83015000Y-43592998D01*
X83015000Y-43702000D01*
X82250420Y-43702000D01*
X78369210Y-39820790D01*
X78204403Y-39710669D01*
X78010000Y-39672000D01*
X77086746Y-39672000D01*
X76844565Y-39309552D01*
X76626270Y-39163691D01*
X84215000Y-39163691D01*
X84215000Y-40354250D01*
X84373750Y-40513000D01*
X86223000Y-40513000D01*
X86223000Y-38813750D01*
X86477000Y-38813750D01*
X86477000Y-40513000D01*
X88326250Y-40513000D01*
X88485000Y-40354250D01*
X88485000Y-39163691D01*
X88388327Y-38930302D01*
X88209699Y-38751673D01*
X87976310Y-38655000D01*
X86635750Y-38655000D01*
X86477000Y-38813750D01*
X86223000Y-38813750D01*
X86064250Y-38655000D01*
X84723690Y-38655000D01*
X84490301Y-38751673D01*
X84311673Y-38930302D01*
X84215000Y-39163691D01*
X76626270Y-39163691D01*
X76445200Y-39042704D01*
X75974117Y-38949000D01*
X75925883Y-38949000D01*
X75454800Y-39042704D01*
X75055435Y-39309552D01*
X74788587Y-39708917D01*
X74694883Y-40180000D01*
X74788587Y-40651083D01*
X75055435Y-41050448D01*
X75454800Y-41317296D01*
X75925883Y-41411000D01*
X75974117Y-41411000D01*
X76445200Y-41317296D01*
X76844565Y-41050448D01*
X77086746Y-40688000D01*
X77799580Y-40688000D01*
X81427677Y-44316097D01*
X81360790Y-44360790D01*
X76317575Y-49404005D01*
X75870117Y-49315000D01*
X75821883Y-49315000D01*
X75350800Y-49408704D01*
X74951435Y-49675552D01*
X74684587Y-50074917D01*
X74590883Y-50546000D01*
X74684587Y-51017083D01*
X74951435Y-51416448D01*
X75350800Y-51683296D01*
X75821883Y-51777000D01*
X75870117Y-51777000D01*
X76341200Y-51683296D01*
X76740565Y-51416448D01*
X77007413Y-51017083D01*
X77101117Y-50546000D01*
X77020037Y-50138383D01*
X81930420Y-45228000D01*
X83261536Y-45228000D01*
X83261536Y-45370000D01*
X83281043Y-45473670D01*
X83261536Y-45570000D01*
X83261536Y-45870000D01*
X83281043Y-45973670D01*
X83261536Y-46070000D01*
X83261536Y-46202000D01*
X82020000Y-46202000D01*
X81825597Y-46240669D01*
X81660790Y-46350790D01*
X79030790Y-48980790D01*
X78920669Y-49145597D01*
X78882000Y-49340000D01*
X78882000Y-50922450D01*
X78798810Y-50938103D01*
X78669135Y-51021546D01*
X78582141Y-51148866D01*
X78551536Y-51300000D01*
X78551536Y-52500000D01*
X78578103Y-52641190D01*
X78661546Y-52770865D01*
X78788866Y-52857859D01*
X78940000Y-52888464D01*
X79840000Y-52888464D01*
X79981190Y-52861897D01*
X80110865Y-52778454D01*
X80197859Y-52651134D01*
X80228464Y-52500000D01*
X80228464Y-51300000D01*
X80201897Y-51158810D01*
X80118454Y-51029135D01*
X79991134Y-50942141D01*
X79898000Y-50923281D01*
X79898000Y-49550420D01*
X82230420Y-47218000D01*
X83261536Y-47218000D01*
X83261536Y-47370000D01*
X83281043Y-47473670D01*
X83261536Y-47570000D01*
X83261536Y-47702000D01*
X83000274Y-47702000D01*
X82950000Y-47692000D01*
X82755596Y-47730669D01*
X82590790Y-47840790D01*
X81310790Y-49120790D01*
X81200669Y-49285597D01*
X81162000Y-49480000D01*
X81162000Y-52250000D01*
X81200669Y-52444403D01*
X81310790Y-52609210D01*
X82141536Y-53439956D01*
X82141536Y-54160000D01*
X82168103Y-54301190D01*
X82251546Y-54430865D01*
X82378866Y-54517859D01*
X82530000Y-54548464D01*
X82779000Y-54548464D01*
X82779000Y-57027000D01*
X49290000Y-57027000D01*
X49048527Y-57075032D01*
X48843816Y-57211816D01*
X48546632Y-57509000D01*
X42849565Y-57509000D01*
X43188448Y-57282565D01*
X43455296Y-56883200D01*
X43463690Y-56841000D01*
X53405894Y-56841000D01*
X53431546Y-56880865D01*
X53558866Y-56967859D01*
X53710000Y-56998464D01*
X54510000Y-56998464D01*
X54651190Y-56971897D01*
X54780865Y-56888454D01*
X54867859Y-56761134D01*
X54892186Y-56641000D01*
X62430000Y-56641000D01*
X62671473Y-56592968D01*
X62876184Y-56456184D01*
X64026185Y-55306184D01*
X64026187Y-55306181D01*
X64091368Y-55241000D01*
X64455894Y-55241000D01*
X64481546Y-55280865D01*
X64608866Y-55367859D01*
X64760000Y-55398464D01*
X66660000Y-55398464D01*
X66801190Y-55371897D01*
X66930865Y-55288454D01*
X67017859Y-55161134D01*
X67018088Y-55160000D01*
X67371536Y-55160000D01*
X67371536Y-55960000D01*
X67398103Y-56101190D01*
X67481546Y-56230865D01*
X67608866Y-56317859D01*
X67760000Y-56348464D01*
X69660000Y-56348464D01*
X69801190Y-56321897D01*
X69930865Y-56238454D01*
X69963289Y-56191000D01*
X77930000Y-56191000D01*
X78171473Y-56142968D01*
X78376184Y-56006184D01*
X79293905Y-55088464D01*
X79840000Y-55088464D01*
X79981190Y-55061897D01*
X80110865Y-54978454D01*
X80197859Y-54851134D01*
X80228464Y-54700000D01*
X80228464Y-53500000D01*
X80201897Y-53358810D01*
X80118454Y-53229135D01*
X79991134Y-53142141D01*
X79840000Y-53111536D01*
X78940000Y-53111536D01*
X78798810Y-53138103D01*
X78669135Y-53221546D01*
X78582141Y-53348866D01*
X78551536Y-53500000D01*
X78551536Y-54046095D01*
X77668632Y-54929000D01*
X69964106Y-54929000D01*
X69938454Y-54889135D01*
X69811134Y-54802141D01*
X69660000Y-54771536D01*
X67760000Y-54771536D01*
X67618810Y-54798103D01*
X67489135Y-54881546D01*
X67402141Y-55008866D01*
X67371536Y-55160000D01*
X67018088Y-55160000D01*
X67048464Y-55010000D01*
X67048464Y-54210000D01*
X67021897Y-54068810D01*
X66942711Y-53945750D01*
X67125000Y-53945750D01*
X67125000Y-54186310D01*
X67221673Y-54419699D01*
X67400302Y-54598327D01*
X67633691Y-54695000D01*
X68424250Y-54695000D01*
X68583000Y-54536250D01*
X68583000Y-53787000D01*
X68837000Y-53787000D01*
X68837000Y-54536250D01*
X68995750Y-54695000D01*
X69786309Y-54695000D01*
X70019698Y-54598327D01*
X70198327Y-54419699D01*
X70295000Y-54186310D01*
X70295000Y-53945750D01*
X70136250Y-53787000D01*
X68837000Y-53787000D01*
X68583000Y-53787000D01*
X67283750Y-53787000D01*
X67125000Y-53945750D01*
X66942711Y-53945750D01*
X66938454Y-53939135D01*
X66811134Y-53852141D01*
X66660000Y-53821536D01*
X64760000Y-53821536D01*
X64618810Y-53848103D01*
X64489135Y-53931546D01*
X64456711Y-53979000D01*
X63830000Y-53979000D01*
X63629862Y-54018810D01*
X63588526Y-54027032D01*
X63383815Y-54163816D01*
X63133819Y-54413813D01*
X63133816Y-54413815D01*
X62168632Y-55379000D01*
X54613441Y-55379000D01*
X54651190Y-55371897D01*
X54780865Y-55288454D01*
X54867859Y-55161134D01*
X54898464Y-55010000D01*
X54898464Y-54210000D01*
X54871897Y-54068810D01*
X54788454Y-53939135D01*
X54661134Y-53852141D01*
X54510000Y-53821536D01*
X53710000Y-53821536D01*
X53568810Y-53848103D01*
X53439135Y-53931546D01*
X53406711Y-53979000D01*
X52228280Y-53979000D01*
X52170454Y-53889135D01*
X52043134Y-53802141D01*
X51892000Y-53771536D01*
X50692000Y-53771536D01*
X50550810Y-53798103D01*
X50421135Y-53881546D01*
X50334141Y-54008866D01*
X50303536Y-54160000D01*
X50303536Y-55060000D01*
X50330103Y-55201190D01*
X50413546Y-55330865D01*
X50540866Y-55417859D01*
X50692000Y-55448464D01*
X51892000Y-55448464D01*
X52033190Y-55421897D01*
X52162865Y-55338454D01*
X52229452Y-55241000D01*
X53405894Y-55241000D01*
X53431546Y-55280865D01*
X53558866Y-55367859D01*
X53710000Y-55398464D01*
X54212148Y-55398464D01*
X54096157Y-55421536D01*
X53710000Y-55421536D01*
X53568810Y-55448103D01*
X53439135Y-55531546D01*
X53406711Y-55579000D01*
X43245621Y-55579000D01*
X43188448Y-55493435D01*
X42810654Y-55241000D01*
X48155720Y-55241000D01*
X48213546Y-55330865D01*
X48340866Y-55417859D01*
X48492000Y-55448464D01*
X49692000Y-55448464D01*
X49833190Y-55421897D01*
X49962865Y-55338454D01*
X50049859Y-55211134D01*
X50080464Y-55060000D01*
X50080464Y-54160000D01*
X50053897Y-54018810D01*
X49970454Y-53889135D01*
X49843134Y-53802141D01*
X49692000Y-53771536D01*
X48492000Y-53771536D01*
X48350810Y-53798103D01*
X48221135Y-53881546D01*
X48154548Y-53979000D01*
X41556000Y-53979000D01*
X41314527Y-54027032D01*
X41109816Y-54163815D01*
X40124096Y-55149536D01*
X38928000Y-55149536D01*
X38786810Y-55176103D01*
X38657135Y-55259546D01*
X38570141Y-55386866D01*
X38539536Y-55538000D01*
X38539536Y-57238000D01*
X38566103Y-57379190D01*
X38649546Y-57508865D01*
X38649744Y-57509000D01*
X37471369Y-57509000D01*
X36321000Y-56358632D01*
X36321000Y-50091464D01*
X37414000Y-50091464D01*
X37555190Y-50064897D01*
X37684865Y-49981454D01*
X37771859Y-49854134D01*
X37802464Y-49703000D01*
X37802464Y-49103000D01*
X37775897Y-48961810D01*
X37692454Y-48832135D01*
X37597813Y-48767470D01*
X37684865Y-48711454D01*
X37771859Y-48584134D01*
X37802464Y-48433000D01*
X37802464Y-47833000D01*
X37777056Y-47697970D01*
X37952327Y-47522698D01*
X38049000Y-47289309D01*
X38049000Y-47148750D01*
X37890250Y-46990000D01*
X35841000Y-46990000D01*
X35841000Y-47010000D01*
X35587000Y-47010000D01*
X35587000Y-46990000D01*
X33537750Y-46990000D01*
X33379000Y-47148750D01*
X33379000Y-47289309D01*
X33475673Y-47522698D01*
X33652554Y-47699580D01*
X33625536Y-47833000D01*
X33625536Y-48433000D01*
X33652103Y-48574190D01*
X33735546Y-48703865D01*
X33830187Y-48768530D01*
X33743135Y-48824546D01*
X33656141Y-48951866D01*
X33625536Y-49103000D01*
X33625536Y-49703000D01*
X33652103Y-49844190D01*
X33735546Y-49973865D01*
X33862866Y-50060859D01*
X34014000Y-50091464D01*
X35059000Y-50091464D01*
X35059000Y-56620000D01*
X35101604Y-56834184D01*
X35107032Y-56861473D01*
X35243816Y-57066184D01*
X36763816Y-58586185D01*
X36968527Y-58722968D01*
X37210000Y-58771000D01*
X48808000Y-58771000D01*
X49049473Y-58722968D01*
X49254184Y-58586184D01*
X49551368Y-58289000D01*
X82927443Y-58289000D01*
X83103552Y-58552565D01*
X83502917Y-58819413D01*
X83974000Y-58913117D01*
X84445083Y-58819413D01*
X84844448Y-58552565D01*
X85029000Y-58276364D01*
X85029000Y-58634309D01*
X85125673Y-58867698D01*
X85304301Y-59046327D01*
X85537690Y-59143000D01*
X86228250Y-59143000D01*
X86387000Y-58984250D01*
X86387000Y-57785000D01*
X86641000Y-57785000D01*
X86641000Y-58984250D01*
X86799750Y-59143000D01*
X87490310Y-59143000D01*
X87723699Y-59046327D01*
X87902327Y-58867698D01*
X87999000Y-58634309D01*
X87999000Y-57943750D01*
X87840250Y-57785000D01*
X86641000Y-57785000D01*
X86387000Y-57785000D01*
X86367000Y-57785000D01*
X86367000Y-57531000D01*
X86387000Y-57531000D01*
X86387000Y-56331750D01*
X86641000Y-56331750D01*
X86641000Y-57531000D01*
X87840250Y-57531000D01*
X87999000Y-57372250D01*
X87999000Y-56681691D01*
X87902327Y-56448302D01*
X87723699Y-56269673D01*
X87490310Y-56173000D01*
X86799750Y-56173000D01*
X86641000Y-56331750D01*
X86387000Y-56331750D01*
X86228250Y-56173000D01*
X85537690Y-56173000D01*
X85304301Y-56269673D01*
X85125673Y-56448302D01*
X85029000Y-56681691D01*
X85029000Y-57039636D01*
X84844448Y-56763435D01*
X84445083Y-56496587D01*
X84041000Y-56416210D01*
X84041000Y-54379714D01*
X84087859Y-54311134D01*
X84118464Y-54160000D01*
X84118464Y-53260000D01*
X84091897Y-53118810D01*
X84008454Y-52989135D01*
X83881134Y-52902141D01*
X83730000Y-52871536D01*
X83009956Y-52871536D01*
X82178000Y-52039580D01*
X82178000Y-50585750D01*
X84215000Y-50585750D01*
X84215000Y-51776309D01*
X84311673Y-52009698D01*
X84490301Y-52188327D01*
X84723690Y-52285000D01*
X86064250Y-52285000D01*
X86223000Y-52126250D01*
X86223000Y-50427000D01*
X86477000Y-50427000D01*
X86477000Y-52126250D01*
X86635750Y-52285000D01*
X87976310Y-52285000D01*
X88209699Y-52188327D01*
X88388327Y-52009698D01*
X88485000Y-51776309D01*
X88485000Y-50585750D01*
X88326250Y-50427000D01*
X86477000Y-50427000D01*
X86223000Y-50427000D01*
X84373750Y-50427000D01*
X84215000Y-50585750D01*
X82178000Y-50585750D01*
X82178000Y-49690420D01*
X83150420Y-48718000D01*
X83484437Y-48718000D01*
X83498866Y-48727859D01*
X83650000Y-48758464D01*
X84242018Y-48758464D01*
X84215000Y-48823691D01*
X84215000Y-50014250D01*
X84373750Y-50173000D01*
X86223000Y-50173000D01*
X86223000Y-48473750D01*
X86477000Y-48473750D01*
X86477000Y-50173000D01*
X88326250Y-50173000D01*
X88485000Y-50014250D01*
X88485000Y-48823691D01*
X88388327Y-48590302D01*
X88209699Y-48411673D01*
X87976310Y-48315000D01*
X86635750Y-48315000D01*
X86477000Y-48473750D01*
X86223000Y-48473750D01*
X86064250Y-48315000D01*
X85438464Y-48315000D01*
X85438464Y-48070000D01*
X85418957Y-47966330D01*
X85438464Y-47870000D01*
X85438464Y-47570000D01*
X85418957Y-47466330D01*
X85438464Y-47370000D01*
X85438464Y-47070000D01*
X85418957Y-46966330D01*
X85438464Y-46870000D01*
X85438464Y-46570000D01*
X85418957Y-46466330D01*
X85438464Y-46370000D01*
X85438464Y-46070000D01*
X85418957Y-45966330D01*
X85438464Y-45870000D01*
X85438464Y-45570000D01*
X85418957Y-45466330D01*
X85438464Y-45370000D01*
X85438464Y-45070000D01*
X85418957Y-44966330D01*
X85438464Y-44870000D01*
X85438464Y-44570000D01*
X85418957Y-44466330D01*
X85436036Y-44381990D01*
X85588327Y-44229698D01*
X85685000Y-43996309D01*
X85685000Y-43953750D01*
X85578252Y-43847002D01*
X85685000Y-43847002D01*
X85685000Y-43738000D01*
X88730000Y-43738000D01*
X88924403Y-43699331D01*
X89049000Y-43616078D01*
X89049000Y-51388631D01*
X87448632Y-52989000D01*
X86208256Y-52989000D01*
X86081134Y-52902141D01*
X85930000Y-52871536D01*
X84730000Y-52871536D01*
X84588810Y-52898103D01*
X84459135Y-52981546D01*
X84372141Y-53108866D01*
X84341536Y-53260000D01*
X84341536Y-54160000D01*
X84368103Y-54301190D01*
X84451546Y-54430865D01*
X84578866Y-54517859D01*
X84730000Y-54548464D01*
X85930000Y-54548464D01*
X86071190Y-54521897D01*
X86200865Y-54438454D01*
X86287859Y-54311134D01*
X86300036Y-54251000D01*
X87710000Y-54251000D01*
X87951473Y-54202968D01*
X88156184Y-54066184D01*
X90026184Y-52196185D01*
X90066240Y-52136238D01*
X90126184Y-52096184D01*
X90262968Y-51891473D01*
X90311000Y-51650000D01*
X90311000Y-38020000D01*
X90262968Y-37778527D01*
X90225845Y-37722968D01*
X90126185Y-37573816D01*
X85886184Y-33333816D01*
X85681473Y-33197032D01*
X85440000Y-33149000D01*
X57121368Y-33149000D01*
X55386184Y-31413816D01*
X55181473Y-31277032D01*
X54940000Y-31229000D01*
X51670000Y-31229000D01*
X51468589Y-31269063D01*
X51428526Y-31277032D01*
X51223815Y-31413816D01*
X49582565Y-33055067D01*
X49280000Y-32994883D01*
X48808917Y-33088587D01*
X48409552Y-33355435D01*
X48142704Y-33754800D01*
X48049000Y-34225883D01*
X48049000Y-34274117D01*
X48142704Y-34745200D01*
X48409552Y-35144565D01*
X48808917Y-35411413D01*
X49280000Y-35505117D01*
X49751083Y-35411413D01*
X49766559Y-35401072D01*
X43803955Y-41363677D01*
X43773815Y-41383816D01*
X42735632Y-42422000D01*
X37604443Y-42422000D01*
X37597813Y-42417470D01*
X37684865Y-42361454D01*
X37771859Y-42234134D01*
X37802464Y-42083000D01*
X37802464Y-41483000D01*
X37775897Y-41341810D01*
X37692454Y-41212135D01*
X37632251Y-41171000D01*
X43340000Y-41171000D01*
X43581473Y-41122968D01*
X43786184Y-40986184D01*
X47166184Y-37606184D01*
X47186184Y-37586185D01*
X47322968Y-37381474D01*
X47352103Y-37235000D01*
X47371000Y-37140000D01*
X47371000Y-35488464D01*
X47590000Y-35488464D01*
X47731190Y-35461897D01*
X47860865Y-35378454D01*
X47947859Y-35251134D01*
X47978464Y-35100000D01*
X47978464Y-33400000D01*
X47951897Y-33258810D01*
X47868454Y-33129135D01*
X47741134Y-33042141D01*
X47590000Y-33011536D01*
X45890000Y-33011536D01*
X45748810Y-33038103D01*
X45619135Y-33121546D01*
X45532141Y-33248866D01*
X45501536Y-33400000D01*
X45501536Y-35100000D01*
X45528103Y-35241190D01*
X45611546Y-35370865D01*
X45738866Y-35457859D01*
X45890000Y-35488464D01*
X46109000Y-35488464D01*
X46109000Y-36878632D01*
X43078632Y-39909000D01*
X37643959Y-39909000D01*
X37565134Y-39855141D01*
X37414000Y-39824536D01*
X34014000Y-39824536D01*
X33872810Y-39851103D01*
X33743135Y-39934546D01*
X33656141Y-40061866D01*
X33625536Y-40213000D01*
X33625536Y-40813000D01*
X33652103Y-40954190D01*
X33735546Y-41083865D01*
X33830187Y-41148530D01*
X33743135Y-41204546D01*
X33656141Y-41331866D01*
X33625536Y-41483000D01*
X33625536Y-42083000D01*
X33652103Y-42224190D01*
X33735546Y-42353865D01*
X33830187Y-42418530D01*
X33743135Y-42474546D01*
X33656141Y-42601866D01*
X33625536Y-42753000D01*
X33625536Y-43353000D01*
X33652103Y-43494190D01*
X33735546Y-43623865D01*
X33830187Y-43688530D01*
X33743135Y-43744546D01*
X33656141Y-43871866D01*
X33625536Y-44023000D01*
X33625536Y-44623000D01*
X33652103Y-44764190D01*
X33735546Y-44893865D01*
X33830187Y-44958530D01*
X33743135Y-45014546D01*
X33656141Y-45141866D01*
X33625536Y-45293000D01*
X33625536Y-45893000D01*
X33650944Y-46028030D01*
X33475673Y-46203302D01*
X33379000Y-46436691D01*
X33122000Y-46436691D01*
X33122000Y-32840552D01*
X34128501Y-32840552D01*
X34566183Y-33899823D01*
X35375914Y-34710969D01*
X36434420Y-35150499D01*
X37580552Y-35151499D01*
X38639823Y-34713817D01*
X39450969Y-33904086D01*
X39890499Y-32845580D01*
X39891499Y-31699448D01*
X39453817Y-30640177D01*
X38644086Y-29829031D01*
X37585580Y-29389501D01*
X36439448Y-29388501D01*
X35380177Y-29826183D01*
X34569031Y-30635914D01*
X34129501Y-31694420D01*
X34128501Y-32840552D01*
X33122000Y-32840552D01*
X33122000Y-29158000D01*
X87999651Y-29158000D01*
X87060177Y-29546183D01*
G36*
X49856141Y-40306866D02*
X49825536Y-40458000D01*
X49825536Y-49458000D01*
X49852103Y-49599190D01*
X49935546Y-49728865D01*
X50038192Y-49799000D01*
X48381369Y-49799000D01*
X43736184Y-45153816D01*
X43731988Y-45151012D01*
X43729184Y-45146816D01*
X43555854Y-45031000D01*
X44080000Y-45031000D01*
X44321473Y-44982968D01*
X44526184Y-44846184D01*
X49151369Y-40221000D01*
X49914811Y-40221000D01*
X49856141Y-40306866D01*
X49856141Y-40306866D01*
G37*
X49856141Y-40306866D02*
X49825536Y-40458000D01*
X49825536Y-49458000D01*
X49852103Y-49599190D01*
X49935546Y-49728865D01*
X50038192Y-49799000D01*
X48381369Y-49799000D01*
X43736184Y-45153816D01*
X43731988Y-45151012D01*
X43729184Y-45146816D01*
X43555854Y-45031000D01*
X44080000Y-45031000D01*
X44321473Y-44982968D01*
X44526184Y-44846184D01*
X49151369Y-40221000D01*
X49914811Y-40221000D01*
X49856141Y-40306866D01*
M02*
