G04 #@! TF.FileFunction,Soldermask,Top*
%FSLAX46Y46*%
G04 Gerber Fmt 4.6, Leading zero omitted, Abs format (unit mm)*
G04 Created by KiCad (PCBNEW 4.0.6) date 07/10/17 08:56:55*
%MOMM*%
%LPD*%
G01*
G04 APERTURE LIST*
%ADD10C,0.100000*%
%ADD11C,0.150000*%
%ADD12C,5.400000*%
%ADD13R,2.400000X1.000000*%
%ADD14R,1.600000X1.300000*%
%ADD15R,1.300000X1.600000*%
%ADD16R,2.300000X1.200000*%
%ADD17R,2.100000X2.100000*%
%ADD18O,2.100000X2.100000*%
%ADD19R,3.800000X1.000000*%
%ADD20R,3.400000X9.400000*%
%ADD21R,1.200000X1.200000*%
%ADD22R,1.600000X1.150000*%
%ADD23R,1.150000X1.600000*%
%ADD24R,3.400000X3.100000*%
%ADD25R,1.800000X0.700000*%
G04 APERTURE END LIST*
D10*
D11*
X92102000Y-60452000D02*
X32666000Y-60452000D01*
X92102000Y-28702000D02*
X92102000Y-60452000D01*
X32666000Y-60452000D02*
X32666000Y-28702000D01*
X32666000Y-28702000D02*
X33428000Y-28702000D01*
X33428000Y-28702000D02*
X92102000Y-28702000D01*
D12*
X88690000Y-31990000D03*
D13*
X64090000Y-40815000D03*
X64090000Y-42085000D03*
X64090000Y-43355000D03*
X64090000Y-44625000D03*
X64090000Y-45895000D03*
X64090000Y-47165000D03*
X64090000Y-48435000D03*
X64090000Y-49705000D03*
X69990000Y-49705000D03*
X69990000Y-48435000D03*
X69990000Y-47165000D03*
X69990000Y-45895000D03*
X69990000Y-44625000D03*
X69990000Y-43355000D03*
X69990000Y-42085000D03*
X69990000Y-40815000D03*
D14*
X49092000Y-54610000D03*
X51292000Y-54610000D03*
X85330000Y-53710000D03*
X83130000Y-53710000D03*
D15*
X79390000Y-54100000D03*
X79390000Y-51900000D03*
D16*
X68710000Y-55560000D03*
X68710000Y-53660000D03*
X65710000Y-54610000D03*
D17*
X75846000Y-53086000D03*
D18*
X75846000Y-50546000D03*
X75846000Y-48006000D03*
D17*
X75950000Y-42720000D03*
D18*
X75950000Y-40180000D03*
X75950000Y-37640000D03*
D17*
X58020000Y-41870000D03*
D18*
X58020000Y-39330000D03*
X58020000Y-36790000D03*
D17*
X58400000Y-52840000D03*
D18*
X58400000Y-50300000D03*
X58400000Y-47760000D03*
D19*
X35714000Y-49403000D03*
X35714000Y-48133000D03*
X35714000Y-46863000D03*
X35714000Y-45593000D03*
X35714000Y-44323000D03*
X35714000Y-43053000D03*
X35714000Y-41783000D03*
X35714000Y-40513000D03*
D20*
X51714000Y-44958000D03*
D17*
X39778000Y-56388000D03*
D18*
X42318000Y-56388000D03*
D17*
X86514000Y-57658000D03*
D18*
X83974000Y-57658000D03*
D17*
X46740000Y-34250000D03*
D18*
X49280000Y-34250000D03*
X51820000Y-34250000D03*
D21*
X54110000Y-54610000D03*
X54110000Y-56210000D03*
D22*
X65750000Y-37610000D03*
X67650000Y-37610000D03*
D23*
X61640000Y-51410000D03*
X61640000Y-49510000D03*
X61690000Y-45140000D03*
X61690000Y-47040000D03*
X61650000Y-41070000D03*
X61650000Y-42970000D03*
D24*
X86350000Y-40640000D03*
X86350000Y-50300000D03*
D25*
X84350000Y-48220000D03*
X84350000Y-47720000D03*
X84350000Y-47220000D03*
X84350000Y-46720000D03*
X84350000Y-46220000D03*
X84350000Y-45720000D03*
X84350000Y-45220000D03*
X84350000Y-44720000D03*
X84350000Y-44220000D03*
X84350000Y-43720000D03*
X84350000Y-43220000D03*
X84350000Y-42720000D03*
D12*
X37010000Y-32270000D03*
M02*
