G04 #@! TF.FileFunction,Legend,Top*
%FSLAX46Y46*%
G04 Gerber Fmt 4.6, Leading zero omitted, Abs format (unit mm)*
G04 Created by KiCad (PCBNEW 4.0.6) date 07/10/17 08:56:55*
%MOMM*%
%LPD*%
G01*
G04 APERTURE LIST*
%ADD10C,0.100000*%
%ADD11C,0.300000*%
%ADD12C,0.150000*%
%ADD13C,0.010000*%
%ADD14C,0.120000*%
%ADD15C,0.250000*%
G04 APERTURE END LIST*
D10*
D11*
X55068572Y-54727143D02*
X56211429Y-54727143D01*
X55640000Y-55298571D02*
X55640000Y-54155714D01*
X64422858Y-58735714D02*
X64351429Y-58807143D01*
X64137143Y-58878571D01*
X63994286Y-58878571D01*
X63780001Y-58807143D01*
X63637143Y-58664286D01*
X63565715Y-58521429D01*
X63494286Y-58235714D01*
X63494286Y-58021429D01*
X63565715Y-57735714D01*
X63637143Y-57592857D01*
X63780001Y-57450000D01*
X63994286Y-57378571D01*
X64137143Y-57378571D01*
X64351429Y-57450000D01*
X64422858Y-57521429D01*
X64994286Y-58450000D02*
X65708572Y-58450000D01*
X64851429Y-58878571D02*
X65351429Y-57378571D01*
X65851429Y-58878571D01*
X66351429Y-58878571D02*
X66351429Y-57378571D01*
X66851429Y-58450000D01*
X67351429Y-57378571D01*
X67351429Y-58878571D01*
X68994286Y-57378571D02*
X69494286Y-58878571D01*
X69994286Y-57378571D01*
X70137143Y-59021429D02*
X71280000Y-59021429D01*
X72422857Y-58878571D02*
X71565714Y-58878571D01*
X71994286Y-58878571D02*
X71994286Y-57378571D01*
X71851429Y-57592857D01*
X71708571Y-57735714D01*
X71565714Y-57807143D01*
X73065714Y-58735714D02*
X73137142Y-58807143D01*
X73065714Y-58878571D01*
X72994285Y-58807143D01*
X73065714Y-58735714D01*
X73065714Y-58878571D01*
X74065714Y-57378571D02*
X74208571Y-57378571D01*
X74351428Y-57450000D01*
X74422857Y-57521429D01*
X74494286Y-57664286D01*
X74565714Y-57950000D01*
X74565714Y-58307143D01*
X74494286Y-58592857D01*
X74422857Y-58735714D01*
X74351428Y-58807143D01*
X74208571Y-58878571D01*
X74065714Y-58878571D01*
X73922857Y-58807143D01*
X73851428Y-58735714D01*
X73780000Y-58592857D01*
X73708571Y-58307143D01*
X73708571Y-57950000D01*
X73780000Y-57664286D01*
X73851428Y-57521429D01*
X73922857Y-57450000D01*
X74065714Y-57378571D01*
D12*
X92102000Y-60452000D02*
X32666000Y-60452000D01*
X92102000Y-28702000D02*
X92102000Y-60452000D01*
X32666000Y-60452000D02*
X32666000Y-28702000D01*
X32666000Y-28702000D02*
X33428000Y-28702000D01*
X33428000Y-28702000D02*
X92102000Y-28702000D01*
D11*
X44095715Y-30568571D02*
X45024286Y-30568571D01*
X44524286Y-31140000D01*
X44738572Y-31140000D01*
X44881429Y-31211429D01*
X44952858Y-31282857D01*
X45024286Y-31425714D01*
X45024286Y-31782857D01*
X44952858Y-31925714D01*
X44881429Y-31997143D01*
X44738572Y-32068571D01*
X44310000Y-32068571D01*
X44167143Y-31997143D01*
X44095715Y-31925714D01*
X45667143Y-31925714D02*
X45738571Y-31997143D01*
X45667143Y-32068571D01*
X45595714Y-31997143D01*
X45667143Y-31925714D01*
X45667143Y-32068571D01*
X46238572Y-30568571D02*
X47167143Y-30568571D01*
X46667143Y-31140000D01*
X46881429Y-31140000D01*
X47024286Y-31211429D01*
X47095715Y-31282857D01*
X47167143Y-31425714D01*
X47167143Y-31782857D01*
X47095715Y-31925714D01*
X47024286Y-31997143D01*
X46881429Y-32068571D01*
X46452857Y-32068571D01*
X46310000Y-31997143D01*
X46238572Y-31925714D01*
X47595714Y-30568571D02*
X48095714Y-32068571D01*
X48595714Y-30568571D01*
X51794287Y-30488571D02*
X51080001Y-30488571D01*
X51008572Y-31202857D01*
X51080001Y-31131429D01*
X51222858Y-31060000D01*
X51580001Y-31060000D01*
X51722858Y-31131429D01*
X51794287Y-31202857D01*
X51865715Y-31345714D01*
X51865715Y-31702857D01*
X51794287Y-31845714D01*
X51722858Y-31917143D01*
X51580001Y-31988571D01*
X51222858Y-31988571D01*
X51080001Y-31917143D01*
X51008572Y-31845714D01*
X52294286Y-30488571D02*
X52794286Y-31988571D01*
X53294286Y-30488571D01*
X53637143Y-36138571D02*
X54494286Y-36138571D01*
X54065715Y-37638571D02*
X54065715Y-36138571D01*
X54851429Y-36138571D02*
X55851429Y-37638571D01*
X55851429Y-36138571D02*
X54851429Y-37638571D01*
X54830001Y-42568571D02*
X54330001Y-41854286D01*
X53972858Y-42568571D02*
X53972858Y-41068571D01*
X54544286Y-41068571D01*
X54687144Y-41140000D01*
X54758572Y-41211429D01*
X54830001Y-41354286D01*
X54830001Y-41568571D01*
X54758572Y-41711429D01*
X54687144Y-41782857D01*
X54544286Y-41854286D01*
X53972858Y-41854286D01*
X55330001Y-41068571D02*
X56330001Y-42568571D01*
X56330001Y-41068571D02*
X55330001Y-42568571D01*
X53847143Y-47158571D02*
X54704286Y-47158571D01*
X54275715Y-48658571D02*
X54275715Y-47158571D01*
X55061429Y-47158571D02*
X56061429Y-48658571D01*
X56061429Y-47158571D02*
X55061429Y-48658571D01*
X54570001Y-53548571D02*
X54070001Y-52834286D01*
X53712858Y-53548571D02*
X53712858Y-52048571D01*
X54284286Y-52048571D01*
X54427144Y-52120000D01*
X54498572Y-52191429D01*
X54570001Y-52334286D01*
X54570001Y-52548571D01*
X54498572Y-52691429D01*
X54427144Y-52762857D01*
X54284286Y-52834286D01*
X53712858Y-52834286D01*
X55070001Y-52048571D02*
X56070001Y-53548571D01*
X56070001Y-52048571D02*
X55070001Y-53548571D01*
X71397143Y-36928571D02*
X72254286Y-36928571D01*
X71825715Y-38428571D02*
X71825715Y-36928571D01*
X72611429Y-36928571D02*
X73611429Y-38428571D01*
X73611429Y-36928571D02*
X72611429Y-38428571D01*
X79370001Y-43538571D02*
X78870001Y-42824286D01*
X78512858Y-43538571D02*
X78512858Y-42038571D01*
X79084286Y-42038571D01*
X79227144Y-42110000D01*
X79298572Y-42181429D01*
X79370001Y-42324286D01*
X79370001Y-42538571D01*
X79298572Y-42681429D01*
X79227144Y-42752857D01*
X79084286Y-42824286D01*
X78512858Y-42824286D01*
X79870001Y-42038571D02*
X80870001Y-43538571D01*
X80870001Y-42038571D02*
X79870001Y-43538571D01*
X72150001Y-52618571D02*
X71650001Y-51904286D01*
X71292858Y-52618571D02*
X71292858Y-51118571D01*
X71864286Y-51118571D01*
X72007144Y-51190000D01*
X72078572Y-51261429D01*
X72150001Y-51404286D01*
X72150001Y-51618571D01*
X72078572Y-51761429D01*
X72007144Y-51832857D01*
X71864286Y-51904286D01*
X71292858Y-51904286D01*
X72650001Y-51118571D02*
X73650001Y-52618571D01*
X73650001Y-51118571D02*
X72650001Y-52618571D01*
X78067143Y-46928571D02*
X78924286Y-46928571D01*
X78495715Y-48428571D02*
X78495715Y-46928571D01*
X79281429Y-46928571D02*
X80281429Y-48428571D01*
X80281429Y-46928571D02*
X79281429Y-48428571D01*
D13*
G36*
X83779867Y-35434938D02*
X83949253Y-35567243D01*
X84143062Y-35716061D01*
X84353016Y-35875238D01*
X84570839Y-36038623D01*
X84788254Y-36200062D01*
X84996986Y-36353404D01*
X85188757Y-36492496D01*
X85355291Y-36611186D01*
X85462350Y-36685646D01*
X85585156Y-36770057D01*
X85672176Y-36831936D01*
X85729573Y-36877398D01*
X85763511Y-36912560D01*
X85780154Y-36943542D01*
X85785664Y-36976458D01*
X85786200Y-37007063D01*
X85782717Y-37070019D01*
X85774037Y-37104548D01*
X85770782Y-37106800D01*
X85743170Y-37092214D01*
X85679266Y-37050631D01*
X85583580Y-36985313D01*
X85460626Y-36899522D01*
X85314914Y-36796519D01*
X85150959Y-36679566D01*
X84973270Y-36551926D01*
X84786361Y-36416860D01*
X84594743Y-36277631D01*
X84402929Y-36137499D01*
X84215430Y-35999726D01*
X84036758Y-35867576D01*
X83871427Y-35744308D01*
X83723946Y-35633186D01*
X83598830Y-35537471D01*
X83582750Y-35525017D01*
X83556386Y-35517229D01*
X83551000Y-35541031D01*
X83561361Y-35566664D01*
X83594227Y-35606146D01*
X83652270Y-35661693D01*
X83738162Y-35735525D01*
X83854576Y-35829858D01*
X84004184Y-35946910D01*
X84189658Y-36088900D01*
X84413672Y-36258045D01*
X84427300Y-36268282D01*
X84565880Y-36370975D01*
X84719090Y-36482143D01*
X84880967Y-36597687D01*
X85045549Y-36713508D01*
X85206875Y-36825505D01*
X85358982Y-36929580D01*
X85495908Y-37021632D01*
X85611692Y-37097563D01*
X85700371Y-37153273D01*
X85755984Y-37184662D01*
X85766497Y-37189132D01*
X85776372Y-37216180D01*
X85781699Y-37280544D01*
X85781446Y-37368865D01*
X85781082Y-37378305D01*
X85773500Y-37560089D01*
X85557600Y-37490107D01*
X85339167Y-37411753D01*
X85145047Y-37323730D01*
X84951585Y-37214703D01*
X84854323Y-37153088D01*
X84716796Y-37059137D01*
X84550699Y-36938641D01*
X84365425Y-36798813D01*
X84170368Y-36646864D01*
X83974919Y-36490006D01*
X83788474Y-36335451D01*
X83779600Y-36327950D01*
X83512900Y-36102284D01*
X83444882Y-35772692D01*
X83412610Y-35613018D01*
X83391233Y-35494944D01*
X83380528Y-35410501D01*
X83380276Y-35351719D01*
X83390255Y-35310630D01*
X83410244Y-35279263D01*
X83430617Y-35258314D01*
X83488034Y-35204374D01*
X83779867Y-35434938D01*
X83779867Y-35434938D01*
G37*
X83779867Y-35434938D02*
X83949253Y-35567243D01*
X84143062Y-35716061D01*
X84353016Y-35875238D01*
X84570839Y-36038623D01*
X84788254Y-36200062D01*
X84996986Y-36353404D01*
X85188757Y-36492496D01*
X85355291Y-36611186D01*
X85462350Y-36685646D01*
X85585156Y-36770057D01*
X85672176Y-36831936D01*
X85729573Y-36877398D01*
X85763511Y-36912560D01*
X85780154Y-36943542D01*
X85785664Y-36976458D01*
X85786200Y-37007063D01*
X85782717Y-37070019D01*
X85774037Y-37104548D01*
X85770782Y-37106800D01*
X85743170Y-37092214D01*
X85679266Y-37050631D01*
X85583580Y-36985313D01*
X85460626Y-36899522D01*
X85314914Y-36796519D01*
X85150959Y-36679566D01*
X84973270Y-36551926D01*
X84786361Y-36416860D01*
X84594743Y-36277631D01*
X84402929Y-36137499D01*
X84215430Y-35999726D01*
X84036758Y-35867576D01*
X83871427Y-35744308D01*
X83723946Y-35633186D01*
X83598830Y-35537471D01*
X83582750Y-35525017D01*
X83556386Y-35517229D01*
X83551000Y-35541031D01*
X83561361Y-35566664D01*
X83594227Y-35606146D01*
X83652270Y-35661693D01*
X83738162Y-35735525D01*
X83854576Y-35829858D01*
X84004184Y-35946910D01*
X84189658Y-36088900D01*
X84413672Y-36258045D01*
X84427300Y-36268282D01*
X84565880Y-36370975D01*
X84719090Y-36482143D01*
X84880967Y-36597687D01*
X85045549Y-36713508D01*
X85206875Y-36825505D01*
X85358982Y-36929580D01*
X85495908Y-37021632D01*
X85611692Y-37097563D01*
X85700371Y-37153273D01*
X85755984Y-37184662D01*
X85766497Y-37189132D01*
X85776372Y-37216180D01*
X85781699Y-37280544D01*
X85781446Y-37368865D01*
X85781082Y-37378305D01*
X85773500Y-37560089D01*
X85557600Y-37490107D01*
X85339167Y-37411753D01*
X85145047Y-37323730D01*
X84951585Y-37214703D01*
X84854323Y-37153088D01*
X84716796Y-37059137D01*
X84550699Y-36938641D01*
X84365425Y-36798813D01*
X84170368Y-36646864D01*
X83974919Y-36490006D01*
X83788474Y-36335451D01*
X83779600Y-36327950D01*
X83512900Y-36102284D01*
X83444882Y-35772692D01*
X83412610Y-35613018D01*
X83391233Y-35494944D01*
X83380528Y-35410501D01*
X83380276Y-35351719D01*
X83390255Y-35310630D01*
X83410244Y-35279263D01*
X83430617Y-35258314D01*
X83488034Y-35204374D01*
X83779867Y-35434938D01*
G36*
X82169699Y-29647292D02*
X82293591Y-29687085D01*
X82293700Y-29687135D01*
X82386890Y-29738698D01*
X82483394Y-29810254D01*
X82585409Y-29904661D01*
X82695130Y-30024775D01*
X82814755Y-30173455D01*
X82946480Y-30353558D01*
X83092501Y-30567941D01*
X83255016Y-30819463D01*
X83436221Y-31110981D01*
X83613863Y-31404500D01*
X83790365Y-31695957D01*
X83945696Y-31945346D01*
X84082127Y-32155665D01*
X84201929Y-32329913D01*
X84307377Y-32471087D01*
X84400741Y-32582186D01*
X84484295Y-32666208D01*
X84560309Y-32726151D01*
X84631058Y-32765014D01*
X84650773Y-32772719D01*
X84721105Y-32791230D01*
X84825969Y-32810959D01*
X84949253Y-32829126D01*
X85036900Y-32839325D01*
X85202261Y-32858797D01*
X85362718Y-32882281D01*
X85508183Y-32907909D01*
X85628567Y-32933812D01*
X85713784Y-32958124D01*
X85741246Y-32969728D01*
X85761818Y-32987343D01*
X85775080Y-33020161D01*
X85782542Y-33077850D01*
X85785718Y-33170079D01*
X85786200Y-33257265D01*
X85786200Y-33520743D01*
X85671577Y-33661454D01*
X85508207Y-33836225D01*
X85301868Y-34014917D01*
X85059669Y-34192916D01*
X84788717Y-34365604D01*
X84496120Y-34528366D01*
X84188987Y-34676585D01*
X83960751Y-34772530D01*
X83716100Y-34868877D01*
X83696337Y-34762288D01*
X83686523Y-34636676D01*
X83694341Y-34475984D01*
X83717742Y-34291967D01*
X83754678Y-34096380D01*
X83803103Y-33900976D01*
X83860968Y-33717510D01*
X83892970Y-33633512D01*
X83926966Y-33545547D01*
X83941921Y-33487207D01*
X83939865Y-33441894D01*
X83922830Y-33393010D01*
X83922491Y-33392212D01*
X83908508Y-33358771D01*
X83897334Y-33338509D01*
X83886345Y-33336837D01*
X83872916Y-33359167D01*
X83854423Y-33410910D01*
X83828244Y-33497478D01*
X83791753Y-33624283D01*
X83765546Y-33715900D01*
X83707446Y-33920066D01*
X83662477Y-34082605D01*
X83629238Y-34210566D01*
X83606328Y-34310998D01*
X83592346Y-34390950D01*
X83585889Y-34457471D01*
X83585558Y-34517611D01*
X83589951Y-34578420D01*
X83591371Y-34592200D01*
X83601574Y-34705755D01*
X83609163Y-34823020D01*
X83611742Y-34889857D01*
X83611314Y-34957238D01*
X83601852Y-35006989D01*
X83576138Y-35053220D01*
X83526954Y-35110044D01*
X83468450Y-35169994D01*
X83400824Y-35240594D01*
X83355908Y-35299059D01*
X83331628Y-35356898D01*
X83325911Y-35425622D01*
X83336685Y-35516741D01*
X83361876Y-35641763D01*
X83373749Y-35695813D01*
X83403547Y-35838036D01*
X83419052Y-35943403D01*
X83418693Y-36024235D01*
X83400901Y-36092857D01*
X83364108Y-36161591D01*
X83306744Y-36242761D01*
X83303557Y-36247033D01*
X83197618Y-36380982D01*
X83088211Y-36501026D01*
X82964291Y-36617824D01*
X82814816Y-36742032D01*
X82693705Y-36835587D01*
X82591127Y-36915503D01*
X82500870Y-36990137D01*
X82432296Y-37051455D01*
X82394769Y-37091420D01*
X82393579Y-37093161D01*
X82350345Y-37140367D01*
X82287282Y-37173564D01*
X82196523Y-37194677D01*
X82070199Y-37205632D01*
X81922806Y-37208400D01*
X81648393Y-37208400D01*
X81565315Y-37105019D01*
X81511988Y-37047243D01*
X81430327Y-36968914D01*
X81331966Y-36880833D01*
X81240268Y-36803364D01*
X81048238Y-36639679D01*
X80896766Y-36496740D01*
X80786839Y-36375615D01*
X80719446Y-36277374D01*
X80696714Y-36215299D01*
X80690103Y-36154900D01*
X80682427Y-36058115D01*
X80674729Y-35939315D01*
X80669196Y-35836800D01*
X80652574Y-35606468D01*
X80647548Y-35570100D01*
X80760307Y-35570100D01*
X80772697Y-35836800D01*
X80779074Y-35957266D01*
X80786265Y-36066783D01*
X80793209Y-36150268D01*
X80797032Y-36183051D01*
X80821983Y-36263241D01*
X80875960Y-36350655D01*
X80962802Y-36449669D01*
X81086345Y-36564659D01*
X81250354Y-36699943D01*
X81359232Y-36787912D01*
X81457611Y-36870642D01*
X81536580Y-36940405D01*
X81587227Y-36989473D01*
X81596334Y-36999970D01*
X81645670Y-37052556D01*
X81690993Y-37085301D01*
X81692546Y-37085964D01*
X81749000Y-37097171D01*
X81839528Y-37103216D01*
X81947681Y-37104239D01*
X82057010Y-37100377D01*
X82151067Y-37091767D01*
X82203805Y-37081685D01*
X82270011Y-37050140D01*
X82349986Y-36994757D01*
X82406838Y-36945684D01*
X82478946Y-36880977D01*
X82576320Y-36799651D01*
X82683037Y-36714825D01*
X82736630Y-36673918D01*
X82892000Y-36552885D01*
X83013429Y-36446940D01*
X83111136Y-36346055D01*
X83195340Y-36240206D01*
X83231433Y-36188455D01*
X83289490Y-36086538D01*
X83318326Y-35988236D01*
X83319709Y-35878390D01*
X83295405Y-35741838D01*
X83287313Y-35708786D01*
X83263756Y-35610310D01*
X83243049Y-35514813D01*
X83235362Y-35474850D01*
X83213844Y-35405126D01*
X83180252Y-35380076D01*
X83175199Y-35379817D01*
X83142462Y-35403229D01*
X83109001Y-35465004D01*
X83078733Y-35552919D01*
X83055575Y-35654747D01*
X83043445Y-35758266D01*
X83042532Y-35793849D01*
X83037973Y-35871382D01*
X83023761Y-35900913D01*
X83015890Y-35899243D01*
X82989543Y-35906251D01*
X82974721Y-35936252D01*
X82952359Y-35977501D01*
X82931980Y-35986599D01*
X82858022Y-35986504D01*
X82821842Y-36012197D01*
X82814400Y-36052700D01*
X82803997Y-36102265D01*
X82780765Y-36115546D01*
X82756662Y-36086035D01*
X82756062Y-36084450D01*
X82736697Y-36069842D01*
X82698634Y-36096268D01*
X82697611Y-36097241D01*
X82667249Y-36137275D01*
X82668238Y-36183687D01*
X82679618Y-36217781D01*
X82693703Y-36273601D01*
X82688861Y-36305665D01*
X82687813Y-36306444D01*
X82662803Y-36298421D01*
X82652758Y-36281154D01*
X82622320Y-36246204D01*
X82576663Y-36259579D01*
X82550469Y-36282159D01*
X82525064Y-36327827D01*
X82535955Y-36385412D01*
X82555997Y-36442566D01*
X82556791Y-36466728D01*
X82538625Y-36471797D01*
X82537753Y-36471800D01*
X82515393Y-36450273D01*
X82499169Y-36408300D01*
X82473025Y-36356594D01*
X82438022Y-36345240D01*
X82403396Y-36367120D01*
X82378381Y-36415117D01*
X82372215Y-36482113D01*
X82375221Y-36503820D01*
X82376740Y-36557996D01*
X82360097Y-36571923D01*
X82336349Y-36546904D01*
X82319100Y-36497200D01*
X82301275Y-36443894D01*
X82281492Y-36421015D01*
X82281059Y-36421000D01*
X82214334Y-36440710D01*
X82181904Y-36497088D01*
X82179400Y-36525317D01*
X82171792Y-36577633D01*
X82154000Y-36598800D01*
X82132932Y-36577669D01*
X82128600Y-36551110D01*
X82108260Y-36489886D01*
X82051868Y-36459871D01*
X81979836Y-36462182D01*
X81922146Y-36482469D01*
X81901214Y-36520077D01*
X81900000Y-36539974D01*
X81891566Y-36581194D01*
X81874600Y-36586100D01*
X81852818Y-36550064D01*
X81849200Y-36524063D01*
X81827067Y-36480887D01*
X81792050Y-36462409D01*
X81730593Y-36449210D01*
X81703491Y-36458698D01*
X81696882Y-36497566D01*
X81696800Y-36508400D01*
X81687434Y-36562182D01*
X81671400Y-36586100D01*
X81653306Y-36576292D01*
X81646003Y-36527228D01*
X81646000Y-36525810D01*
X81633162Y-36462309D01*
X81593285Y-36433092D01*
X81551234Y-36422765D01*
X81529959Y-36434632D01*
X81519587Y-36479900D01*
X81515074Y-36521863D01*
X81512467Y-36576261D01*
X81527210Y-36604972D01*
X81571798Y-36620778D01*
X81620600Y-36629825D01*
X81697080Y-36639733D01*
X81806060Y-36649665D01*
X81929261Y-36658067D01*
X81988506Y-36661119D01*
X82147526Y-36662465D01*
X82273244Y-36646406D01*
X82381750Y-36607413D01*
X82489134Y-36539957D01*
X82595679Y-36452487D01*
X82660576Y-36398564D01*
X82709609Y-36363574D01*
X82731579Y-36355112D01*
X82725151Y-36380486D01*
X82693541Y-36427822D01*
X82648061Y-36483745D01*
X82600024Y-36534880D01*
X82560744Y-36567852D01*
X82546941Y-36573400D01*
X82510415Y-36588190D01*
X82452303Y-36625709D01*
X82420645Y-36649643D01*
X82337131Y-36703491D01*
X82245643Y-36744943D01*
X82220303Y-36752726D01*
X82133165Y-36776205D01*
X82052759Y-36799531D01*
X82041084Y-36803150D01*
X81965917Y-36812559D01*
X81908628Y-36788967D01*
X81839860Y-36760917D01*
X81772843Y-36751200D01*
X81698410Y-36741771D01*
X81619686Y-36717228D01*
X81546083Y-36683186D01*
X81487011Y-36645260D01*
X81451881Y-36609064D01*
X81450104Y-36580215D01*
X81467749Y-36569166D01*
X81482067Y-36542115D01*
X81474527Y-36492679D01*
X81451906Y-36440436D01*
X81420981Y-36404963D01*
X81409223Y-36400087D01*
X81377149Y-36407863D01*
X81366028Y-36454347D01*
X81365802Y-36463587D01*
X81362833Y-36497351D01*
X81351899Y-36497754D01*
X81328326Y-36460313D01*
X81294972Y-36395600D01*
X81229967Y-36272007D01*
X81201367Y-36226416D01*
X81637914Y-36226416D01*
X81668499Y-36271869D01*
X81734683Y-36288795D01*
X81785700Y-36287518D01*
X81831958Y-36280362D01*
X81854034Y-36259362D01*
X81860487Y-36210236D01*
X81860438Y-36162792D01*
X81855887Y-36129367D01*
X81925611Y-36129367D01*
X81931507Y-36205335D01*
X81944394Y-36260342D01*
X81957150Y-36276924D01*
X82014716Y-36280215D01*
X82081149Y-36261620D01*
X82113814Y-36241160D01*
X82127336Y-36199594D01*
X82115405Y-36137280D01*
X82085401Y-36067522D01*
X82082726Y-36063322D01*
X82154000Y-36063322D01*
X82164105Y-36153342D01*
X82191253Y-36206489D01*
X82230690Y-36218153D01*
X82277660Y-36183723D01*
X82277879Y-36183460D01*
X82292805Y-36133170D01*
X82280784Y-36070578D01*
X82249693Y-36015941D01*
X82207413Y-35989514D01*
X82202315Y-35989200D01*
X82166246Y-36002828D01*
X82154202Y-36051446D01*
X82154000Y-36063322D01*
X82082726Y-36063322D01*
X82044702Y-36003625D01*
X82000688Y-35958895D01*
X81990165Y-35955666D01*
X82299312Y-35955666D01*
X82306099Y-36012878D01*
X82324369Y-36075789D01*
X82341372Y-36111139D01*
X82369531Y-36123916D01*
X82421244Y-36131960D01*
X82474454Y-36133662D01*
X82507099Y-36127413D01*
X82509600Y-36123405D01*
X82499145Y-36096531D01*
X82473728Y-36044330D01*
X82471237Y-36039491D01*
X82425385Y-35975743D01*
X82370533Y-35932588D01*
X82321083Y-35920127D01*
X82307746Y-35924867D01*
X82299312Y-35955666D01*
X81990165Y-35955666D01*
X81960737Y-35946636D01*
X81952400Y-35950110D01*
X81935804Y-35984312D01*
X81926959Y-36049878D01*
X81925611Y-36129367D01*
X81855887Y-36129367D01*
X81847657Y-36068933D01*
X81816828Y-36001044D01*
X81775327Y-35964305D01*
X81730532Y-35963897D01*
X81689818Y-36005000D01*
X81676546Y-36033650D01*
X81641180Y-36148366D01*
X81637914Y-36226416D01*
X81201367Y-36226416D01*
X81175471Y-36185138D01*
X81123466Y-36124416D01*
X81065933Y-36079262D01*
X81045730Y-36066777D01*
X80981676Y-36015042D01*
X80937311Y-35954529D01*
X80932969Y-35944065D01*
X80908730Y-35883736D01*
X80870625Y-35798341D01*
X80834310Y-35721718D01*
X80814107Y-35680324D01*
X80993196Y-35680324D01*
X80999435Y-35713378D01*
X81025319Y-35755492D01*
X81055090Y-35749427D01*
X81071782Y-35720422D01*
X81087338Y-35654742D01*
X81084595Y-35600303D01*
X81065686Y-35572294D01*
X81051063Y-35572861D01*
X81006537Y-35614104D01*
X80993196Y-35680324D01*
X80814107Y-35680324D01*
X80760307Y-35570100D01*
X80647548Y-35570100D01*
X80627570Y-35425540D01*
X80594025Y-35293287D01*
X80551778Y-35208983D01*
X80524770Y-35182787D01*
X80456476Y-35128166D01*
X80383102Y-35056246D01*
X80315723Y-34979600D01*
X80265414Y-34910801D01*
X80243383Y-34863353D01*
X80243516Y-34800697D01*
X80244606Y-34793772D01*
X80301144Y-34793772D01*
X80326401Y-34880861D01*
X80393987Y-34973046D01*
X80506478Y-35074629D01*
X80560307Y-35115686D01*
X80643317Y-35174183D01*
X80705886Y-35207653D01*
X80767084Y-35222996D01*
X80845982Y-35227114D01*
X80868438Y-35227200D01*
X80958503Y-35224732D01*
X81015629Y-35213288D01*
X81057593Y-35186808D01*
X81091951Y-35151000D01*
X81164605Y-35090208D01*
X81234962Y-35078968D01*
X81304595Y-35114096D01*
X81334083Y-35140003D01*
X81325593Y-35146473D01*
X81273286Y-35137896D01*
X81273017Y-35137845D01*
X81210429Y-35133965D01*
X81169112Y-35160730D01*
X81148041Y-35189593D01*
X81120177Y-35244650D01*
X81120928Y-35297638D01*
X81135037Y-35342871D01*
X81150206Y-35412718D01*
X81159448Y-35511189D01*
X81160822Y-35610560D01*
X81160265Y-35710683D01*
X81167164Y-35771704D01*
X81183562Y-35805031D01*
X81197558Y-35815796D01*
X81232196Y-35845803D01*
X81236797Y-35870424D01*
X81210212Y-35874283D01*
X81201714Y-35871467D01*
X81163840Y-35876838D01*
X81143383Y-35919472D01*
X81145226Y-35987401D01*
X81148444Y-36001956D01*
X81173720Y-36048984D01*
X81207636Y-36064273D01*
X81234057Y-36045322D01*
X81239600Y-36016099D01*
X81247294Y-35963564D01*
X81264764Y-35954062D01*
X81283592Y-35983194D01*
X81295261Y-36045177D01*
X81307829Y-36121900D01*
X81337311Y-36166447D01*
X81366600Y-36185059D01*
X81427697Y-36207970D01*
X81464803Y-36196275D01*
X81486157Y-36143799D01*
X81495006Y-36088827D01*
X81505003Y-36029831D01*
X81515841Y-36015185D01*
X81529140Y-36046759D01*
X81546522Y-36126422D01*
X81551737Y-36154300D01*
X81562270Y-36169351D01*
X81579561Y-36134940D01*
X81593189Y-36090800D01*
X81621294Y-36011288D01*
X81653725Y-35947316D01*
X81664999Y-35932050D01*
X81725435Y-35894742D01*
X81795011Y-35891853D01*
X81843519Y-35917479D01*
X81876076Y-35931552D01*
X81918737Y-35906238D01*
X81924149Y-35901432D01*
X81965713Y-35871174D01*
X82002425Y-35875460D01*
X82034779Y-35894740D01*
X82095815Y-35918766D01*
X82129467Y-35912463D01*
X82171872Y-35900561D01*
X82185814Y-35904264D01*
X82220994Y-35902592D01*
X82279308Y-35882342D01*
X82341079Y-35852284D01*
X82386631Y-35821186D01*
X82395720Y-35810720D01*
X82423071Y-35785563D01*
X82439749Y-35804184D01*
X82439666Y-35856421D01*
X82444821Y-35919887D01*
X82472460Y-35970150D01*
X82511645Y-35995954D01*
X82551439Y-35986038D01*
X82558520Y-35978764D01*
X82576258Y-35933163D01*
X82561268Y-35889223D01*
X82548690Y-35846578D01*
X82567905Y-35839101D01*
X82605043Y-35866203D01*
X82645681Y-35883447D01*
X82680498Y-35860705D01*
X82701317Y-35808741D01*
X82700421Y-35740678D01*
X82694596Y-35681764D01*
X82708086Y-35669054D01*
X82711179Y-35670698D01*
X82736070Y-35708480D01*
X82738200Y-35723999D01*
X82746512Y-35759535D01*
X82765338Y-35755571D01*
X82785508Y-35719437D01*
X82795653Y-35678050D01*
X82786932Y-35572643D01*
X82750866Y-35481200D01*
X82712571Y-35395188D01*
X82683147Y-35312461D01*
X82676121Y-35285762D01*
X82647986Y-35224277D01*
X82595026Y-35154029D01*
X82530266Y-35088363D01*
X82466729Y-35040621D01*
X82420626Y-35024000D01*
X82386872Y-35010261D01*
X82382600Y-34998600D01*
X82400177Y-34970410D01*
X82449999Y-34975621D01*
X82527694Y-35012417D01*
X82628895Y-35078983D01*
X82692852Y-35127516D01*
X82776041Y-35186003D01*
X82860470Y-35234061D01*
X82905898Y-35253457D01*
X83047570Y-35275635D01*
X83193886Y-35256391D01*
X83331261Y-35200546D01*
X83446109Y-35112921D01*
X83501736Y-35042033D01*
X83531914Y-34971036D01*
X83547116Y-34889464D01*
X83547770Y-34810785D01*
X83534301Y-34748468D01*
X83507136Y-34715981D01*
X83491361Y-34714534D01*
X83435615Y-34705041D01*
X83401950Y-34684131D01*
X83372715Y-34664622D01*
X83343231Y-34670557D01*
X83299796Y-34707202D01*
X83273757Y-34733363D01*
X83166045Y-34812283D01*
X83023961Y-34871421D01*
X82860834Y-34908462D01*
X82689994Y-34921091D01*
X82524770Y-34906993D01*
X82422887Y-34881115D01*
X82281249Y-34806953D01*
X82167218Y-34693832D01*
X82088542Y-34549554D01*
X82085691Y-34541706D01*
X82057492Y-34470670D01*
X82033450Y-34424459D01*
X82023142Y-34414400D01*
X82009475Y-34436742D01*
X81991439Y-34492924D01*
X81973021Y-34566676D01*
X81958207Y-34641730D01*
X81950986Y-34701816D01*
X81950800Y-34709612D01*
X81931467Y-34738928D01*
X81907979Y-34740078D01*
X81885079Y-34727375D01*
X81872368Y-34693173D01*
X81867502Y-34626709D01*
X81867524Y-34554179D01*
X81867244Y-34463359D01*
X81864261Y-34393528D01*
X81859214Y-34359296D01*
X81858983Y-34358880D01*
X81830289Y-34354181D01*
X81775322Y-34366637D01*
X81770514Y-34368272D01*
X81703774Y-34382583D01*
X81664395Y-34366755D01*
X81620228Y-34346480D01*
X81555542Y-34338200D01*
X81500754Y-34343029D01*
X81483354Y-34365025D01*
X81486603Y-34397621D01*
X81483732Y-34440886D01*
X81453438Y-34489159D01*
X81388631Y-34553205D01*
X81377905Y-34562721D01*
X81312045Y-34617852D01*
X81260203Y-34656087D01*
X81236023Y-34668400D01*
X81214856Y-34654035D01*
X81230122Y-34617286D01*
X81265000Y-34579500D01*
X81302378Y-34532709D01*
X81315868Y-34489698D01*
X81301501Y-34466193D01*
X81293847Y-34465200D01*
X81262003Y-34482415D01*
X81210153Y-34526531D01*
X81149101Y-34586256D01*
X81089650Y-34650295D01*
X81042605Y-34707355D01*
X81018767Y-34746142D01*
X81017984Y-34753577D01*
X81045873Y-34784864D01*
X81095425Y-34815835D01*
X81149878Y-34852347D01*
X81158480Y-34883109D01*
X81126088Y-34905489D01*
X81057555Y-34916855D01*
X80957735Y-34914575D01*
X80920634Y-34910615D01*
X80801716Y-34885586D01*
X80707778Y-34838705D01*
X80628868Y-34761786D01*
X80555034Y-34646642D01*
X80522084Y-34582763D01*
X80479120Y-34489328D01*
X80448693Y-34411209D01*
X80435399Y-34360762D01*
X80435920Y-34351069D01*
X80474101Y-34310708D01*
X80550831Y-34270221D01*
X80654069Y-34234076D01*
X80771770Y-34206741D01*
X80855789Y-34195291D01*
X81043270Y-34177866D01*
X80919185Y-34068509D01*
X80848887Y-34003964D01*
X80819120Y-33969062D01*
X80830044Y-33962607D01*
X80881822Y-33983400D01*
X80927667Y-34005964D01*
X81024456Y-34052035D01*
X81137257Y-34101028D01*
X81254349Y-34148415D01*
X81364008Y-34189664D01*
X81454511Y-34220244D01*
X81514135Y-34235626D01*
X81524438Y-34236600D01*
X81575753Y-34219591D01*
X81639710Y-34176747D01*
X81665037Y-34154257D01*
X81749992Y-34071915D01*
X81833071Y-34170871D01*
X81888627Y-34230545D01*
X81931376Y-34255757D01*
X81976045Y-34254734D01*
X81981034Y-34253543D01*
X82033856Y-34217069D01*
X82052331Y-34177195D01*
X83407632Y-34177195D01*
X83413930Y-34202666D01*
X83431698Y-34222526D01*
X83465352Y-34265072D01*
X83474800Y-34289214D01*
X83492070Y-34312387D01*
X83496020Y-34312800D01*
X83513526Y-34290399D01*
X83537404Y-34232257D01*
X83557784Y-34167131D01*
X83577956Y-34088343D01*
X83589090Y-34031945D01*
X83589395Y-34012528D01*
X83567456Y-34022960D01*
X83520936Y-34059385D01*
X83484528Y-34091509D01*
X83429428Y-34144451D01*
X83407632Y-34177195D01*
X82052331Y-34177195D01*
X82064330Y-34151299D01*
X82066476Y-34075029D01*
X82051586Y-34031880D01*
X82011873Y-33969931D01*
X81946714Y-33881922D01*
X81862562Y-33775366D01*
X81765869Y-33657776D01*
X81663086Y-33536666D01*
X81560666Y-33419550D01*
X81465061Y-33313940D01*
X81382723Y-33227351D01*
X81320104Y-33167296D01*
X81288702Y-33143491D01*
X81260198Y-33139150D01*
X81215667Y-33152718D01*
X81148301Y-33187538D01*
X81051289Y-33246955D01*
X80968635Y-33300662D01*
X80853335Y-33377921D01*
X80743271Y-33453997D01*
X80650970Y-33520092D01*
X80589336Y-33567097D01*
X80485173Y-33652313D01*
X80506501Y-33785706D01*
X80517492Y-33938621D01*
X80493756Y-34069552D01*
X80431751Y-34196619D01*
X80423704Y-34209204D01*
X80366629Y-34335881D01*
X80349928Y-34469827D01*
X80374849Y-34596070D01*
X80388856Y-34626853D01*
X80419755Y-34696145D01*
X80423192Y-34730196D01*
X80399552Y-34725730D01*
X80379138Y-34709340D01*
X80342562Y-34680923D01*
X80324180Y-34688404D01*
X80315638Y-34707480D01*
X80301144Y-34793772D01*
X80244606Y-34793772D01*
X80255614Y-34723902D01*
X80256748Y-34719200D01*
X80270841Y-34648776D01*
X80275821Y-34595688D01*
X80275636Y-34592200D01*
X80273123Y-34549821D01*
X80269285Y-34471884D01*
X80264863Y-34373588D01*
X80263892Y-34350900D01*
X80257232Y-34256384D01*
X80243676Y-34168959D01*
X80219811Y-34075221D01*
X80182229Y-33961764D01*
X80143605Y-33858263D01*
X80256533Y-33858263D01*
X80295046Y-33996631D01*
X80317508Y-34071659D01*
X80335576Y-34121908D01*
X80343375Y-34135000D01*
X80358442Y-34114093D01*
X80383415Y-34062302D01*
X80389996Y-34046915D01*
X80412019Y-33967628D01*
X80425167Y-33868972D01*
X80426800Y-33826033D01*
X80426800Y-33693234D01*
X80341666Y-33775748D01*
X80256533Y-33858263D01*
X80143605Y-33858263D01*
X80127805Y-33815924D01*
X80039380Y-33576267D01*
X79970966Y-33370188D01*
X79923492Y-33200869D01*
X79897886Y-33071491D01*
X79893400Y-33012557D01*
X79897502Y-32957235D01*
X79917899Y-32921662D01*
X79966725Y-32891544D01*
X80014050Y-32870430D01*
X80241435Y-32789125D01*
X80504407Y-32721929D01*
X80789244Y-32670745D01*
X81082220Y-32637473D01*
X81369611Y-32624018D01*
X81637695Y-32632279D01*
X81695151Y-32637448D01*
X81813958Y-32651831D01*
X81921265Y-32668739D01*
X82002132Y-32685625D01*
X82032413Y-32694956D01*
X82062660Y-32708631D01*
X82073638Y-32721361D01*
X82059557Y-32737161D01*
X82014629Y-32760044D01*
X81933064Y-32794025D01*
X81831451Y-32834299D01*
X81714708Y-32881822D01*
X81609408Y-32927421D01*
X81528200Y-32965456D01*
X81487558Y-32987632D01*
X81419598Y-33032213D01*
X82192100Y-33979413D01*
X82395300Y-33965727D01*
X82547617Y-33965079D01*
X82730533Y-33979509D01*
X82926788Y-34007054D01*
X83119124Y-34045752D01*
X83137203Y-34050093D01*
X83193306Y-34063781D01*
X83141861Y-33917412D01*
X83112519Y-33821942D01*
X83089658Y-33725171D01*
X83074843Y-33637891D01*
X83069636Y-33570896D01*
X83075600Y-33534978D01*
X83086243Y-33533429D01*
X83105165Y-33566464D01*
X83122382Y-33630833D01*
X83127504Y-33661764D01*
X83144723Y-33739866D01*
X83174483Y-33833244D01*
X83210905Y-33927219D01*
X83248107Y-34007112D01*
X83280208Y-34058244D01*
X83289891Y-34067106D01*
X83321939Y-34062379D01*
X83384467Y-34036250D01*
X83464808Y-33994132D01*
X83476877Y-33987198D01*
X83639900Y-33892480D01*
X83699127Y-33689890D01*
X83730279Y-33568773D01*
X83756340Y-33441334D01*
X83771949Y-33333990D01*
X83772455Y-33328550D01*
X83783596Y-33246333D01*
X83798704Y-33188966D01*
X83812932Y-33169800D01*
X83864071Y-33183638D01*
X83947058Y-33221523D01*
X84052379Y-33278007D01*
X84170520Y-33347645D01*
X84291966Y-33424991D01*
X84407204Y-33504598D01*
X84440000Y-33528750D01*
X84585853Y-33634425D01*
X84699298Y-33707877D01*
X84785026Y-33751582D01*
X84847727Y-33768018D01*
X84884153Y-33763318D01*
X84915129Y-33736582D01*
X84903935Y-33706077D01*
X84856588Y-33684118D01*
X84844410Y-33681984D01*
X84796192Y-33663422D01*
X84721605Y-33621450D01*
X84634273Y-33563981D01*
X84605100Y-33543051D01*
X84283022Y-33317682D01*
X83979881Y-33129817D01*
X83685883Y-32975062D01*
X83391237Y-32849025D01*
X83086151Y-32747313D01*
X82760831Y-32665533D01*
X82560400Y-32625754D01*
X82123857Y-32558232D01*
X81726373Y-32521688D01*
X81366798Y-32516055D01*
X81074500Y-32537373D01*
X80828128Y-32578496D01*
X80550219Y-32644340D01*
X80251556Y-32731530D01*
X79942925Y-32836692D01*
X79635110Y-32956449D01*
X79383543Y-33066560D01*
X79295635Y-33109079D01*
X79254841Y-33133416D01*
X79260842Y-33139567D01*
X79313314Y-33127528D01*
X79411938Y-33097294D01*
X79499700Y-33068199D01*
X79622073Y-33027634D01*
X79704441Y-33003946D01*
X79754698Y-32997097D01*
X79780741Y-33007051D01*
X79790464Y-33033771D01*
X79791800Y-33066826D01*
X79793668Y-33093888D01*
X79800382Y-33129994D01*
X79813603Y-33180153D01*
X79834992Y-33249375D01*
X79866212Y-33342670D01*
X79908923Y-33465045D01*
X79964788Y-33621512D01*
X80035468Y-33817079D01*
X80095017Y-33980932D01*
X80136713Y-34103305D01*
X80169052Y-34213478D01*
X80188797Y-34299394D01*
X80193110Y-34346125D01*
X80188922Y-34373445D01*
X80179396Y-34386510D01*
X80158947Y-34381610D01*
X80121989Y-34355038D01*
X80062937Y-34303085D01*
X79976204Y-34222042D01*
X79906100Y-34155580D01*
X79636028Y-33901771D01*
X79393790Y-33680101D01*
X79173007Y-33485162D01*
X78967295Y-33311544D01*
X78770273Y-33153839D01*
X78575560Y-33006637D01*
X78411861Y-32889075D01*
X78292587Y-32804828D01*
X78208571Y-32743115D01*
X78153412Y-32697400D01*
X78120706Y-32661146D01*
X78104052Y-32627818D01*
X78097047Y-32590880D01*
X78094903Y-32565516D01*
X78095016Y-32560200D01*
X78928200Y-32560200D01*
X78951002Y-32577619D01*
X79011227Y-32585231D01*
X79096597Y-32583753D01*
X79194836Y-32573904D01*
X79293670Y-32556401D01*
X79374829Y-32534067D01*
X79490765Y-32488537D01*
X79609523Y-32429614D01*
X79735096Y-32354213D01*
X79871478Y-32259249D01*
X80022663Y-32141639D01*
X80192645Y-31998298D01*
X80385417Y-31826142D01*
X80604973Y-31622086D01*
X80814955Y-31421911D01*
X80909485Y-31331760D01*
X81457194Y-31331760D01*
X81490870Y-31392288D01*
X81556217Y-31416941D01*
X81565211Y-31417200D01*
X81619648Y-31430802D01*
X81685966Y-31475365D01*
X81769315Y-31553168D01*
X81903595Y-31689137D01*
X81740686Y-31817162D01*
X81656618Y-31882159D01*
X81581578Y-31938298D01*
X81529490Y-31975204D01*
X81522989Y-31979403D01*
X81481474Y-32012234D01*
X81468200Y-32033393D01*
X81488971Y-32042180D01*
X81540095Y-32035492D01*
X81604782Y-32016793D01*
X81657126Y-31994436D01*
X81701191Y-31964115D01*
X81766254Y-31910758D01*
X81826919Y-31856324D01*
X81947485Y-31743548D01*
X82116002Y-31882549D01*
X82223662Y-31963398D01*
X82317008Y-32018139D01*
X82389026Y-32043401D01*
X82432703Y-32035809D01*
X82433360Y-32035180D01*
X82425366Y-32013253D01*
X82395260Y-31986581D01*
X82290921Y-31910290D01*
X82193922Y-31835504D01*
X82112427Y-31768930D01*
X82054597Y-31717273D01*
X82028596Y-31687242D01*
X82027929Y-31684772D01*
X82044090Y-31655451D01*
X82087308Y-31602408D01*
X82146695Y-31538722D01*
X82233656Y-31460425D01*
X82302137Y-31422412D01*
X82334085Y-31417200D01*
X82406584Y-31400224D01*
X82445464Y-31347463D01*
X82452745Y-31256160D01*
X82452705Y-31255590D01*
X82446300Y-31195468D01*
X82438886Y-31164413D01*
X82437437Y-31163250D01*
X82410999Y-31178847D01*
X82363610Y-31217667D01*
X82308428Y-31267554D01*
X82258609Y-31316350D01*
X82227312Y-31351897D01*
X82222804Y-31361571D01*
X82209436Y-31388794D01*
X82169558Y-31437380D01*
X82114860Y-31495200D01*
X82057028Y-31550127D01*
X82007751Y-31590032D01*
X81994842Y-31598122D01*
X81962406Y-31604426D01*
X81919287Y-31586848D01*
X81855790Y-31540348D01*
X81810687Y-31502363D01*
X81737907Y-31434110D01*
X81700461Y-31386403D01*
X81700145Y-31364332D01*
X81703039Y-31340247D01*
X81660799Y-31303285D01*
X81655700Y-31299985D01*
X81591309Y-31253339D01*
X81541420Y-31208304D01*
X81501460Y-31170745D01*
X81478531Y-31174649D01*
X81462500Y-31224090D01*
X81458894Y-31241479D01*
X81457194Y-31331760D01*
X80909485Y-31331760D01*
X81005756Y-31239950D01*
X81166644Y-31090381D01*
X81302875Y-30968942D01*
X81419709Y-30871370D01*
X81522403Y-30793403D01*
X81616217Y-30730778D01*
X81706409Y-30679233D01*
X81770580Y-30647284D01*
X81942243Y-30585893D01*
X82104812Y-30570445D01*
X82264238Y-30601821D01*
X82426474Y-30680902D01*
X82539757Y-30761053D01*
X82624577Y-30841113D01*
X82725511Y-30960945D01*
X82843715Y-31122136D01*
X82980347Y-31326274D01*
X83136562Y-31574947D01*
X83156584Y-31607700D01*
X83325118Y-31878003D01*
X83476393Y-32106383D01*
X83614273Y-32297118D01*
X83742620Y-32454486D01*
X83865299Y-32582764D01*
X83986171Y-32686231D01*
X84109100Y-32769164D01*
X84237949Y-32835841D01*
X84283301Y-32855366D01*
X84386426Y-32895064D01*
X84450990Y-32912413D01*
X84483499Y-32908513D01*
X84490800Y-32890400D01*
X84469855Y-32868806D01*
X84446714Y-32865000D01*
X84369456Y-32846910D01*
X84269882Y-32797309D01*
X84158803Y-32723195D01*
X84047032Y-32631568D01*
X83970080Y-32556441D01*
X83890417Y-32468427D01*
X83813515Y-32375014D01*
X83734958Y-32269729D01*
X83650324Y-32146099D01*
X83555197Y-31997649D01*
X83445156Y-31817906D01*
X83315782Y-31600396D01*
X83305129Y-31582300D01*
X83188601Y-31384992D01*
X83092869Y-31224994D01*
X83013542Y-31095499D01*
X82946231Y-30989698D01*
X82886547Y-30900785D01*
X82830100Y-30821951D01*
X82772500Y-30746389D01*
X82738250Y-30703147D01*
X82576605Y-30523151D01*
X82419356Y-30393019D01*
X82265440Y-30312110D01*
X82113790Y-30279782D01*
X82038852Y-30281598D01*
X81946145Y-30297293D01*
X81852112Y-30327027D01*
X81753052Y-30373656D01*
X81645268Y-30440035D01*
X81525059Y-30529020D01*
X81388727Y-30643465D01*
X81232572Y-30786227D01*
X81052895Y-30960161D01*
X80845997Y-31168121D01*
X80711011Y-31306543D01*
X80499965Y-31522732D01*
X80318332Y-31705310D01*
X80161552Y-31858434D01*
X80025069Y-31986263D01*
X79904324Y-32092958D01*
X79794761Y-32182677D01*
X79691820Y-32259580D01*
X79594152Y-32325757D01*
X79455813Y-32403385D01*
X79306188Y-32467805D01*
X79161172Y-32513288D01*
X79036658Y-32534100D01*
X79014424Y-32534800D01*
X78956735Y-32541363D01*
X78928709Y-32557439D01*
X78928200Y-32560200D01*
X78095016Y-32560200D01*
X78096601Y-32485674D01*
X78122255Y-32428147D01*
X78153643Y-32392647D01*
X78220180Y-32326110D01*
X78864700Y-32361522D01*
X79017100Y-32281204D01*
X79134993Y-32214915D01*
X79251837Y-32139848D01*
X79371706Y-32052330D01*
X79498673Y-31948685D01*
X79636813Y-31825239D01*
X79790199Y-31678317D01*
X79962907Y-31504244D01*
X80159010Y-31299347D01*
X80382582Y-31059950D01*
X80439722Y-30998100D01*
X80679531Y-30739954D01*
X80889998Y-30517802D01*
X81074408Y-30328701D01*
X81236048Y-30169708D01*
X81378203Y-30037881D01*
X81504160Y-29930276D01*
X81617205Y-29843952D01*
X81720623Y-29775964D01*
X81817701Y-29723372D01*
X81905266Y-29685662D01*
X82045606Y-29646837D01*
X82169699Y-29647292D01*
X82169699Y-29647292D01*
G37*
X82169699Y-29647292D02*
X82293591Y-29687085D01*
X82293700Y-29687135D01*
X82386890Y-29738698D01*
X82483394Y-29810254D01*
X82585409Y-29904661D01*
X82695130Y-30024775D01*
X82814755Y-30173455D01*
X82946480Y-30353558D01*
X83092501Y-30567941D01*
X83255016Y-30819463D01*
X83436221Y-31110981D01*
X83613863Y-31404500D01*
X83790365Y-31695957D01*
X83945696Y-31945346D01*
X84082127Y-32155665D01*
X84201929Y-32329913D01*
X84307377Y-32471087D01*
X84400741Y-32582186D01*
X84484295Y-32666208D01*
X84560309Y-32726151D01*
X84631058Y-32765014D01*
X84650773Y-32772719D01*
X84721105Y-32791230D01*
X84825969Y-32810959D01*
X84949253Y-32829126D01*
X85036900Y-32839325D01*
X85202261Y-32858797D01*
X85362718Y-32882281D01*
X85508183Y-32907909D01*
X85628567Y-32933812D01*
X85713784Y-32958124D01*
X85741246Y-32969728D01*
X85761818Y-32987343D01*
X85775080Y-33020161D01*
X85782542Y-33077850D01*
X85785718Y-33170079D01*
X85786200Y-33257265D01*
X85786200Y-33520743D01*
X85671577Y-33661454D01*
X85508207Y-33836225D01*
X85301868Y-34014917D01*
X85059669Y-34192916D01*
X84788717Y-34365604D01*
X84496120Y-34528366D01*
X84188987Y-34676585D01*
X83960751Y-34772530D01*
X83716100Y-34868877D01*
X83696337Y-34762288D01*
X83686523Y-34636676D01*
X83694341Y-34475984D01*
X83717742Y-34291967D01*
X83754678Y-34096380D01*
X83803103Y-33900976D01*
X83860968Y-33717510D01*
X83892970Y-33633512D01*
X83926966Y-33545547D01*
X83941921Y-33487207D01*
X83939865Y-33441894D01*
X83922830Y-33393010D01*
X83922491Y-33392212D01*
X83908508Y-33358771D01*
X83897334Y-33338509D01*
X83886345Y-33336837D01*
X83872916Y-33359167D01*
X83854423Y-33410910D01*
X83828244Y-33497478D01*
X83791753Y-33624283D01*
X83765546Y-33715900D01*
X83707446Y-33920066D01*
X83662477Y-34082605D01*
X83629238Y-34210566D01*
X83606328Y-34310998D01*
X83592346Y-34390950D01*
X83585889Y-34457471D01*
X83585558Y-34517611D01*
X83589951Y-34578420D01*
X83591371Y-34592200D01*
X83601574Y-34705755D01*
X83609163Y-34823020D01*
X83611742Y-34889857D01*
X83611314Y-34957238D01*
X83601852Y-35006989D01*
X83576138Y-35053220D01*
X83526954Y-35110044D01*
X83468450Y-35169994D01*
X83400824Y-35240594D01*
X83355908Y-35299059D01*
X83331628Y-35356898D01*
X83325911Y-35425622D01*
X83336685Y-35516741D01*
X83361876Y-35641763D01*
X83373749Y-35695813D01*
X83403547Y-35838036D01*
X83419052Y-35943403D01*
X83418693Y-36024235D01*
X83400901Y-36092857D01*
X83364108Y-36161591D01*
X83306744Y-36242761D01*
X83303557Y-36247033D01*
X83197618Y-36380982D01*
X83088211Y-36501026D01*
X82964291Y-36617824D01*
X82814816Y-36742032D01*
X82693705Y-36835587D01*
X82591127Y-36915503D01*
X82500870Y-36990137D01*
X82432296Y-37051455D01*
X82394769Y-37091420D01*
X82393579Y-37093161D01*
X82350345Y-37140367D01*
X82287282Y-37173564D01*
X82196523Y-37194677D01*
X82070199Y-37205632D01*
X81922806Y-37208400D01*
X81648393Y-37208400D01*
X81565315Y-37105019D01*
X81511988Y-37047243D01*
X81430327Y-36968914D01*
X81331966Y-36880833D01*
X81240268Y-36803364D01*
X81048238Y-36639679D01*
X80896766Y-36496740D01*
X80786839Y-36375615D01*
X80719446Y-36277374D01*
X80696714Y-36215299D01*
X80690103Y-36154900D01*
X80682427Y-36058115D01*
X80674729Y-35939315D01*
X80669196Y-35836800D01*
X80652574Y-35606468D01*
X80647548Y-35570100D01*
X80760307Y-35570100D01*
X80772697Y-35836800D01*
X80779074Y-35957266D01*
X80786265Y-36066783D01*
X80793209Y-36150268D01*
X80797032Y-36183051D01*
X80821983Y-36263241D01*
X80875960Y-36350655D01*
X80962802Y-36449669D01*
X81086345Y-36564659D01*
X81250354Y-36699943D01*
X81359232Y-36787912D01*
X81457611Y-36870642D01*
X81536580Y-36940405D01*
X81587227Y-36989473D01*
X81596334Y-36999970D01*
X81645670Y-37052556D01*
X81690993Y-37085301D01*
X81692546Y-37085964D01*
X81749000Y-37097171D01*
X81839528Y-37103216D01*
X81947681Y-37104239D01*
X82057010Y-37100377D01*
X82151067Y-37091767D01*
X82203805Y-37081685D01*
X82270011Y-37050140D01*
X82349986Y-36994757D01*
X82406838Y-36945684D01*
X82478946Y-36880977D01*
X82576320Y-36799651D01*
X82683037Y-36714825D01*
X82736630Y-36673918D01*
X82892000Y-36552885D01*
X83013429Y-36446940D01*
X83111136Y-36346055D01*
X83195340Y-36240206D01*
X83231433Y-36188455D01*
X83289490Y-36086538D01*
X83318326Y-35988236D01*
X83319709Y-35878390D01*
X83295405Y-35741838D01*
X83287313Y-35708786D01*
X83263756Y-35610310D01*
X83243049Y-35514813D01*
X83235362Y-35474850D01*
X83213844Y-35405126D01*
X83180252Y-35380076D01*
X83175199Y-35379817D01*
X83142462Y-35403229D01*
X83109001Y-35465004D01*
X83078733Y-35552919D01*
X83055575Y-35654747D01*
X83043445Y-35758266D01*
X83042532Y-35793849D01*
X83037973Y-35871382D01*
X83023761Y-35900913D01*
X83015890Y-35899243D01*
X82989543Y-35906251D01*
X82974721Y-35936252D01*
X82952359Y-35977501D01*
X82931980Y-35986599D01*
X82858022Y-35986504D01*
X82821842Y-36012197D01*
X82814400Y-36052700D01*
X82803997Y-36102265D01*
X82780765Y-36115546D01*
X82756662Y-36086035D01*
X82756062Y-36084450D01*
X82736697Y-36069842D01*
X82698634Y-36096268D01*
X82697611Y-36097241D01*
X82667249Y-36137275D01*
X82668238Y-36183687D01*
X82679618Y-36217781D01*
X82693703Y-36273601D01*
X82688861Y-36305665D01*
X82687813Y-36306444D01*
X82662803Y-36298421D01*
X82652758Y-36281154D01*
X82622320Y-36246204D01*
X82576663Y-36259579D01*
X82550469Y-36282159D01*
X82525064Y-36327827D01*
X82535955Y-36385412D01*
X82555997Y-36442566D01*
X82556791Y-36466728D01*
X82538625Y-36471797D01*
X82537753Y-36471800D01*
X82515393Y-36450273D01*
X82499169Y-36408300D01*
X82473025Y-36356594D01*
X82438022Y-36345240D01*
X82403396Y-36367120D01*
X82378381Y-36415117D01*
X82372215Y-36482113D01*
X82375221Y-36503820D01*
X82376740Y-36557996D01*
X82360097Y-36571923D01*
X82336349Y-36546904D01*
X82319100Y-36497200D01*
X82301275Y-36443894D01*
X82281492Y-36421015D01*
X82281059Y-36421000D01*
X82214334Y-36440710D01*
X82181904Y-36497088D01*
X82179400Y-36525317D01*
X82171792Y-36577633D01*
X82154000Y-36598800D01*
X82132932Y-36577669D01*
X82128600Y-36551110D01*
X82108260Y-36489886D01*
X82051868Y-36459871D01*
X81979836Y-36462182D01*
X81922146Y-36482469D01*
X81901214Y-36520077D01*
X81900000Y-36539974D01*
X81891566Y-36581194D01*
X81874600Y-36586100D01*
X81852818Y-36550064D01*
X81849200Y-36524063D01*
X81827067Y-36480887D01*
X81792050Y-36462409D01*
X81730593Y-36449210D01*
X81703491Y-36458698D01*
X81696882Y-36497566D01*
X81696800Y-36508400D01*
X81687434Y-36562182D01*
X81671400Y-36586100D01*
X81653306Y-36576292D01*
X81646003Y-36527228D01*
X81646000Y-36525810D01*
X81633162Y-36462309D01*
X81593285Y-36433092D01*
X81551234Y-36422765D01*
X81529959Y-36434632D01*
X81519587Y-36479900D01*
X81515074Y-36521863D01*
X81512467Y-36576261D01*
X81527210Y-36604972D01*
X81571798Y-36620778D01*
X81620600Y-36629825D01*
X81697080Y-36639733D01*
X81806060Y-36649665D01*
X81929261Y-36658067D01*
X81988506Y-36661119D01*
X82147526Y-36662465D01*
X82273244Y-36646406D01*
X82381750Y-36607413D01*
X82489134Y-36539957D01*
X82595679Y-36452487D01*
X82660576Y-36398564D01*
X82709609Y-36363574D01*
X82731579Y-36355112D01*
X82725151Y-36380486D01*
X82693541Y-36427822D01*
X82648061Y-36483745D01*
X82600024Y-36534880D01*
X82560744Y-36567852D01*
X82546941Y-36573400D01*
X82510415Y-36588190D01*
X82452303Y-36625709D01*
X82420645Y-36649643D01*
X82337131Y-36703491D01*
X82245643Y-36744943D01*
X82220303Y-36752726D01*
X82133165Y-36776205D01*
X82052759Y-36799531D01*
X82041084Y-36803150D01*
X81965917Y-36812559D01*
X81908628Y-36788967D01*
X81839860Y-36760917D01*
X81772843Y-36751200D01*
X81698410Y-36741771D01*
X81619686Y-36717228D01*
X81546083Y-36683186D01*
X81487011Y-36645260D01*
X81451881Y-36609064D01*
X81450104Y-36580215D01*
X81467749Y-36569166D01*
X81482067Y-36542115D01*
X81474527Y-36492679D01*
X81451906Y-36440436D01*
X81420981Y-36404963D01*
X81409223Y-36400087D01*
X81377149Y-36407863D01*
X81366028Y-36454347D01*
X81365802Y-36463587D01*
X81362833Y-36497351D01*
X81351899Y-36497754D01*
X81328326Y-36460313D01*
X81294972Y-36395600D01*
X81229967Y-36272007D01*
X81201367Y-36226416D01*
X81637914Y-36226416D01*
X81668499Y-36271869D01*
X81734683Y-36288795D01*
X81785700Y-36287518D01*
X81831958Y-36280362D01*
X81854034Y-36259362D01*
X81860487Y-36210236D01*
X81860438Y-36162792D01*
X81855887Y-36129367D01*
X81925611Y-36129367D01*
X81931507Y-36205335D01*
X81944394Y-36260342D01*
X81957150Y-36276924D01*
X82014716Y-36280215D01*
X82081149Y-36261620D01*
X82113814Y-36241160D01*
X82127336Y-36199594D01*
X82115405Y-36137280D01*
X82085401Y-36067522D01*
X82082726Y-36063322D01*
X82154000Y-36063322D01*
X82164105Y-36153342D01*
X82191253Y-36206489D01*
X82230690Y-36218153D01*
X82277660Y-36183723D01*
X82277879Y-36183460D01*
X82292805Y-36133170D01*
X82280784Y-36070578D01*
X82249693Y-36015941D01*
X82207413Y-35989514D01*
X82202315Y-35989200D01*
X82166246Y-36002828D01*
X82154202Y-36051446D01*
X82154000Y-36063322D01*
X82082726Y-36063322D01*
X82044702Y-36003625D01*
X82000688Y-35958895D01*
X81990165Y-35955666D01*
X82299312Y-35955666D01*
X82306099Y-36012878D01*
X82324369Y-36075789D01*
X82341372Y-36111139D01*
X82369531Y-36123916D01*
X82421244Y-36131960D01*
X82474454Y-36133662D01*
X82507099Y-36127413D01*
X82509600Y-36123405D01*
X82499145Y-36096531D01*
X82473728Y-36044330D01*
X82471237Y-36039491D01*
X82425385Y-35975743D01*
X82370533Y-35932588D01*
X82321083Y-35920127D01*
X82307746Y-35924867D01*
X82299312Y-35955666D01*
X81990165Y-35955666D01*
X81960737Y-35946636D01*
X81952400Y-35950110D01*
X81935804Y-35984312D01*
X81926959Y-36049878D01*
X81925611Y-36129367D01*
X81855887Y-36129367D01*
X81847657Y-36068933D01*
X81816828Y-36001044D01*
X81775327Y-35964305D01*
X81730532Y-35963897D01*
X81689818Y-36005000D01*
X81676546Y-36033650D01*
X81641180Y-36148366D01*
X81637914Y-36226416D01*
X81201367Y-36226416D01*
X81175471Y-36185138D01*
X81123466Y-36124416D01*
X81065933Y-36079262D01*
X81045730Y-36066777D01*
X80981676Y-36015042D01*
X80937311Y-35954529D01*
X80932969Y-35944065D01*
X80908730Y-35883736D01*
X80870625Y-35798341D01*
X80834310Y-35721718D01*
X80814107Y-35680324D01*
X80993196Y-35680324D01*
X80999435Y-35713378D01*
X81025319Y-35755492D01*
X81055090Y-35749427D01*
X81071782Y-35720422D01*
X81087338Y-35654742D01*
X81084595Y-35600303D01*
X81065686Y-35572294D01*
X81051063Y-35572861D01*
X81006537Y-35614104D01*
X80993196Y-35680324D01*
X80814107Y-35680324D01*
X80760307Y-35570100D01*
X80647548Y-35570100D01*
X80627570Y-35425540D01*
X80594025Y-35293287D01*
X80551778Y-35208983D01*
X80524770Y-35182787D01*
X80456476Y-35128166D01*
X80383102Y-35056246D01*
X80315723Y-34979600D01*
X80265414Y-34910801D01*
X80243383Y-34863353D01*
X80243516Y-34800697D01*
X80244606Y-34793772D01*
X80301144Y-34793772D01*
X80326401Y-34880861D01*
X80393987Y-34973046D01*
X80506478Y-35074629D01*
X80560307Y-35115686D01*
X80643317Y-35174183D01*
X80705886Y-35207653D01*
X80767084Y-35222996D01*
X80845982Y-35227114D01*
X80868438Y-35227200D01*
X80958503Y-35224732D01*
X81015629Y-35213288D01*
X81057593Y-35186808D01*
X81091951Y-35151000D01*
X81164605Y-35090208D01*
X81234962Y-35078968D01*
X81304595Y-35114096D01*
X81334083Y-35140003D01*
X81325593Y-35146473D01*
X81273286Y-35137896D01*
X81273017Y-35137845D01*
X81210429Y-35133965D01*
X81169112Y-35160730D01*
X81148041Y-35189593D01*
X81120177Y-35244650D01*
X81120928Y-35297638D01*
X81135037Y-35342871D01*
X81150206Y-35412718D01*
X81159448Y-35511189D01*
X81160822Y-35610560D01*
X81160265Y-35710683D01*
X81167164Y-35771704D01*
X81183562Y-35805031D01*
X81197558Y-35815796D01*
X81232196Y-35845803D01*
X81236797Y-35870424D01*
X81210212Y-35874283D01*
X81201714Y-35871467D01*
X81163840Y-35876838D01*
X81143383Y-35919472D01*
X81145226Y-35987401D01*
X81148444Y-36001956D01*
X81173720Y-36048984D01*
X81207636Y-36064273D01*
X81234057Y-36045322D01*
X81239600Y-36016099D01*
X81247294Y-35963564D01*
X81264764Y-35954062D01*
X81283592Y-35983194D01*
X81295261Y-36045177D01*
X81307829Y-36121900D01*
X81337311Y-36166447D01*
X81366600Y-36185059D01*
X81427697Y-36207970D01*
X81464803Y-36196275D01*
X81486157Y-36143799D01*
X81495006Y-36088827D01*
X81505003Y-36029831D01*
X81515841Y-36015185D01*
X81529140Y-36046759D01*
X81546522Y-36126422D01*
X81551737Y-36154300D01*
X81562270Y-36169351D01*
X81579561Y-36134940D01*
X81593189Y-36090800D01*
X81621294Y-36011288D01*
X81653725Y-35947316D01*
X81664999Y-35932050D01*
X81725435Y-35894742D01*
X81795011Y-35891853D01*
X81843519Y-35917479D01*
X81876076Y-35931552D01*
X81918737Y-35906238D01*
X81924149Y-35901432D01*
X81965713Y-35871174D01*
X82002425Y-35875460D01*
X82034779Y-35894740D01*
X82095815Y-35918766D01*
X82129467Y-35912463D01*
X82171872Y-35900561D01*
X82185814Y-35904264D01*
X82220994Y-35902592D01*
X82279308Y-35882342D01*
X82341079Y-35852284D01*
X82386631Y-35821186D01*
X82395720Y-35810720D01*
X82423071Y-35785563D01*
X82439749Y-35804184D01*
X82439666Y-35856421D01*
X82444821Y-35919887D01*
X82472460Y-35970150D01*
X82511645Y-35995954D01*
X82551439Y-35986038D01*
X82558520Y-35978764D01*
X82576258Y-35933163D01*
X82561268Y-35889223D01*
X82548690Y-35846578D01*
X82567905Y-35839101D01*
X82605043Y-35866203D01*
X82645681Y-35883447D01*
X82680498Y-35860705D01*
X82701317Y-35808741D01*
X82700421Y-35740678D01*
X82694596Y-35681764D01*
X82708086Y-35669054D01*
X82711179Y-35670698D01*
X82736070Y-35708480D01*
X82738200Y-35723999D01*
X82746512Y-35759535D01*
X82765338Y-35755571D01*
X82785508Y-35719437D01*
X82795653Y-35678050D01*
X82786932Y-35572643D01*
X82750866Y-35481200D01*
X82712571Y-35395188D01*
X82683147Y-35312461D01*
X82676121Y-35285762D01*
X82647986Y-35224277D01*
X82595026Y-35154029D01*
X82530266Y-35088363D01*
X82466729Y-35040621D01*
X82420626Y-35024000D01*
X82386872Y-35010261D01*
X82382600Y-34998600D01*
X82400177Y-34970410D01*
X82449999Y-34975621D01*
X82527694Y-35012417D01*
X82628895Y-35078983D01*
X82692852Y-35127516D01*
X82776041Y-35186003D01*
X82860470Y-35234061D01*
X82905898Y-35253457D01*
X83047570Y-35275635D01*
X83193886Y-35256391D01*
X83331261Y-35200546D01*
X83446109Y-35112921D01*
X83501736Y-35042033D01*
X83531914Y-34971036D01*
X83547116Y-34889464D01*
X83547770Y-34810785D01*
X83534301Y-34748468D01*
X83507136Y-34715981D01*
X83491361Y-34714534D01*
X83435615Y-34705041D01*
X83401950Y-34684131D01*
X83372715Y-34664622D01*
X83343231Y-34670557D01*
X83299796Y-34707202D01*
X83273757Y-34733363D01*
X83166045Y-34812283D01*
X83023961Y-34871421D01*
X82860834Y-34908462D01*
X82689994Y-34921091D01*
X82524770Y-34906993D01*
X82422887Y-34881115D01*
X82281249Y-34806953D01*
X82167218Y-34693832D01*
X82088542Y-34549554D01*
X82085691Y-34541706D01*
X82057492Y-34470670D01*
X82033450Y-34424459D01*
X82023142Y-34414400D01*
X82009475Y-34436742D01*
X81991439Y-34492924D01*
X81973021Y-34566676D01*
X81958207Y-34641730D01*
X81950986Y-34701816D01*
X81950800Y-34709612D01*
X81931467Y-34738928D01*
X81907979Y-34740078D01*
X81885079Y-34727375D01*
X81872368Y-34693173D01*
X81867502Y-34626709D01*
X81867524Y-34554179D01*
X81867244Y-34463359D01*
X81864261Y-34393528D01*
X81859214Y-34359296D01*
X81858983Y-34358880D01*
X81830289Y-34354181D01*
X81775322Y-34366637D01*
X81770514Y-34368272D01*
X81703774Y-34382583D01*
X81664395Y-34366755D01*
X81620228Y-34346480D01*
X81555542Y-34338200D01*
X81500754Y-34343029D01*
X81483354Y-34365025D01*
X81486603Y-34397621D01*
X81483732Y-34440886D01*
X81453438Y-34489159D01*
X81388631Y-34553205D01*
X81377905Y-34562721D01*
X81312045Y-34617852D01*
X81260203Y-34656087D01*
X81236023Y-34668400D01*
X81214856Y-34654035D01*
X81230122Y-34617286D01*
X81265000Y-34579500D01*
X81302378Y-34532709D01*
X81315868Y-34489698D01*
X81301501Y-34466193D01*
X81293847Y-34465200D01*
X81262003Y-34482415D01*
X81210153Y-34526531D01*
X81149101Y-34586256D01*
X81089650Y-34650295D01*
X81042605Y-34707355D01*
X81018767Y-34746142D01*
X81017984Y-34753577D01*
X81045873Y-34784864D01*
X81095425Y-34815835D01*
X81149878Y-34852347D01*
X81158480Y-34883109D01*
X81126088Y-34905489D01*
X81057555Y-34916855D01*
X80957735Y-34914575D01*
X80920634Y-34910615D01*
X80801716Y-34885586D01*
X80707778Y-34838705D01*
X80628868Y-34761786D01*
X80555034Y-34646642D01*
X80522084Y-34582763D01*
X80479120Y-34489328D01*
X80448693Y-34411209D01*
X80435399Y-34360762D01*
X80435920Y-34351069D01*
X80474101Y-34310708D01*
X80550831Y-34270221D01*
X80654069Y-34234076D01*
X80771770Y-34206741D01*
X80855789Y-34195291D01*
X81043270Y-34177866D01*
X80919185Y-34068509D01*
X80848887Y-34003964D01*
X80819120Y-33969062D01*
X80830044Y-33962607D01*
X80881822Y-33983400D01*
X80927667Y-34005964D01*
X81024456Y-34052035D01*
X81137257Y-34101028D01*
X81254349Y-34148415D01*
X81364008Y-34189664D01*
X81454511Y-34220244D01*
X81514135Y-34235626D01*
X81524438Y-34236600D01*
X81575753Y-34219591D01*
X81639710Y-34176747D01*
X81665037Y-34154257D01*
X81749992Y-34071915D01*
X81833071Y-34170871D01*
X81888627Y-34230545D01*
X81931376Y-34255757D01*
X81976045Y-34254734D01*
X81981034Y-34253543D01*
X82033856Y-34217069D01*
X82052331Y-34177195D01*
X83407632Y-34177195D01*
X83413930Y-34202666D01*
X83431698Y-34222526D01*
X83465352Y-34265072D01*
X83474800Y-34289214D01*
X83492070Y-34312387D01*
X83496020Y-34312800D01*
X83513526Y-34290399D01*
X83537404Y-34232257D01*
X83557784Y-34167131D01*
X83577956Y-34088343D01*
X83589090Y-34031945D01*
X83589395Y-34012528D01*
X83567456Y-34022960D01*
X83520936Y-34059385D01*
X83484528Y-34091509D01*
X83429428Y-34144451D01*
X83407632Y-34177195D01*
X82052331Y-34177195D01*
X82064330Y-34151299D01*
X82066476Y-34075029D01*
X82051586Y-34031880D01*
X82011873Y-33969931D01*
X81946714Y-33881922D01*
X81862562Y-33775366D01*
X81765869Y-33657776D01*
X81663086Y-33536666D01*
X81560666Y-33419550D01*
X81465061Y-33313940D01*
X81382723Y-33227351D01*
X81320104Y-33167296D01*
X81288702Y-33143491D01*
X81260198Y-33139150D01*
X81215667Y-33152718D01*
X81148301Y-33187538D01*
X81051289Y-33246955D01*
X80968635Y-33300662D01*
X80853335Y-33377921D01*
X80743271Y-33453997D01*
X80650970Y-33520092D01*
X80589336Y-33567097D01*
X80485173Y-33652313D01*
X80506501Y-33785706D01*
X80517492Y-33938621D01*
X80493756Y-34069552D01*
X80431751Y-34196619D01*
X80423704Y-34209204D01*
X80366629Y-34335881D01*
X80349928Y-34469827D01*
X80374849Y-34596070D01*
X80388856Y-34626853D01*
X80419755Y-34696145D01*
X80423192Y-34730196D01*
X80399552Y-34725730D01*
X80379138Y-34709340D01*
X80342562Y-34680923D01*
X80324180Y-34688404D01*
X80315638Y-34707480D01*
X80301144Y-34793772D01*
X80244606Y-34793772D01*
X80255614Y-34723902D01*
X80256748Y-34719200D01*
X80270841Y-34648776D01*
X80275821Y-34595688D01*
X80275636Y-34592200D01*
X80273123Y-34549821D01*
X80269285Y-34471884D01*
X80264863Y-34373588D01*
X80263892Y-34350900D01*
X80257232Y-34256384D01*
X80243676Y-34168959D01*
X80219811Y-34075221D01*
X80182229Y-33961764D01*
X80143605Y-33858263D01*
X80256533Y-33858263D01*
X80295046Y-33996631D01*
X80317508Y-34071659D01*
X80335576Y-34121908D01*
X80343375Y-34135000D01*
X80358442Y-34114093D01*
X80383415Y-34062302D01*
X80389996Y-34046915D01*
X80412019Y-33967628D01*
X80425167Y-33868972D01*
X80426800Y-33826033D01*
X80426800Y-33693234D01*
X80341666Y-33775748D01*
X80256533Y-33858263D01*
X80143605Y-33858263D01*
X80127805Y-33815924D01*
X80039380Y-33576267D01*
X79970966Y-33370188D01*
X79923492Y-33200869D01*
X79897886Y-33071491D01*
X79893400Y-33012557D01*
X79897502Y-32957235D01*
X79917899Y-32921662D01*
X79966725Y-32891544D01*
X80014050Y-32870430D01*
X80241435Y-32789125D01*
X80504407Y-32721929D01*
X80789244Y-32670745D01*
X81082220Y-32637473D01*
X81369611Y-32624018D01*
X81637695Y-32632279D01*
X81695151Y-32637448D01*
X81813958Y-32651831D01*
X81921265Y-32668739D01*
X82002132Y-32685625D01*
X82032413Y-32694956D01*
X82062660Y-32708631D01*
X82073638Y-32721361D01*
X82059557Y-32737161D01*
X82014629Y-32760044D01*
X81933064Y-32794025D01*
X81831451Y-32834299D01*
X81714708Y-32881822D01*
X81609408Y-32927421D01*
X81528200Y-32965456D01*
X81487558Y-32987632D01*
X81419598Y-33032213D01*
X82192100Y-33979413D01*
X82395300Y-33965727D01*
X82547617Y-33965079D01*
X82730533Y-33979509D01*
X82926788Y-34007054D01*
X83119124Y-34045752D01*
X83137203Y-34050093D01*
X83193306Y-34063781D01*
X83141861Y-33917412D01*
X83112519Y-33821942D01*
X83089658Y-33725171D01*
X83074843Y-33637891D01*
X83069636Y-33570896D01*
X83075600Y-33534978D01*
X83086243Y-33533429D01*
X83105165Y-33566464D01*
X83122382Y-33630833D01*
X83127504Y-33661764D01*
X83144723Y-33739866D01*
X83174483Y-33833244D01*
X83210905Y-33927219D01*
X83248107Y-34007112D01*
X83280208Y-34058244D01*
X83289891Y-34067106D01*
X83321939Y-34062379D01*
X83384467Y-34036250D01*
X83464808Y-33994132D01*
X83476877Y-33987198D01*
X83639900Y-33892480D01*
X83699127Y-33689890D01*
X83730279Y-33568773D01*
X83756340Y-33441334D01*
X83771949Y-33333990D01*
X83772455Y-33328550D01*
X83783596Y-33246333D01*
X83798704Y-33188966D01*
X83812932Y-33169800D01*
X83864071Y-33183638D01*
X83947058Y-33221523D01*
X84052379Y-33278007D01*
X84170520Y-33347645D01*
X84291966Y-33424991D01*
X84407204Y-33504598D01*
X84440000Y-33528750D01*
X84585853Y-33634425D01*
X84699298Y-33707877D01*
X84785026Y-33751582D01*
X84847727Y-33768018D01*
X84884153Y-33763318D01*
X84915129Y-33736582D01*
X84903935Y-33706077D01*
X84856588Y-33684118D01*
X84844410Y-33681984D01*
X84796192Y-33663422D01*
X84721605Y-33621450D01*
X84634273Y-33563981D01*
X84605100Y-33543051D01*
X84283022Y-33317682D01*
X83979881Y-33129817D01*
X83685883Y-32975062D01*
X83391237Y-32849025D01*
X83086151Y-32747313D01*
X82760831Y-32665533D01*
X82560400Y-32625754D01*
X82123857Y-32558232D01*
X81726373Y-32521688D01*
X81366798Y-32516055D01*
X81074500Y-32537373D01*
X80828128Y-32578496D01*
X80550219Y-32644340D01*
X80251556Y-32731530D01*
X79942925Y-32836692D01*
X79635110Y-32956449D01*
X79383543Y-33066560D01*
X79295635Y-33109079D01*
X79254841Y-33133416D01*
X79260842Y-33139567D01*
X79313314Y-33127528D01*
X79411938Y-33097294D01*
X79499700Y-33068199D01*
X79622073Y-33027634D01*
X79704441Y-33003946D01*
X79754698Y-32997097D01*
X79780741Y-33007051D01*
X79790464Y-33033771D01*
X79791800Y-33066826D01*
X79793668Y-33093888D01*
X79800382Y-33129994D01*
X79813603Y-33180153D01*
X79834992Y-33249375D01*
X79866212Y-33342670D01*
X79908923Y-33465045D01*
X79964788Y-33621512D01*
X80035468Y-33817079D01*
X80095017Y-33980932D01*
X80136713Y-34103305D01*
X80169052Y-34213478D01*
X80188797Y-34299394D01*
X80193110Y-34346125D01*
X80188922Y-34373445D01*
X80179396Y-34386510D01*
X80158947Y-34381610D01*
X80121989Y-34355038D01*
X80062937Y-34303085D01*
X79976204Y-34222042D01*
X79906100Y-34155580D01*
X79636028Y-33901771D01*
X79393790Y-33680101D01*
X79173007Y-33485162D01*
X78967295Y-33311544D01*
X78770273Y-33153839D01*
X78575560Y-33006637D01*
X78411861Y-32889075D01*
X78292587Y-32804828D01*
X78208571Y-32743115D01*
X78153412Y-32697400D01*
X78120706Y-32661146D01*
X78104052Y-32627818D01*
X78097047Y-32590880D01*
X78094903Y-32565516D01*
X78095016Y-32560200D01*
X78928200Y-32560200D01*
X78951002Y-32577619D01*
X79011227Y-32585231D01*
X79096597Y-32583753D01*
X79194836Y-32573904D01*
X79293670Y-32556401D01*
X79374829Y-32534067D01*
X79490765Y-32488537D01*
X79609523Y-32429614D01*
X79735096Y-32354213D01*
X79871478Y-32259249D01*
X80022663Y-32141639D01*
X80192645Y-31998298D01*
X80385417Y-31826142D01*
X80604973Y-31622086D01*
X80814955Y-31421911D01*
X80909485Y-31331760D01*
X81457194Y-31331760D01*
X81490870Y-31392288D01*
X81556217Y-31416941D01*
X81565211Y-31417200D01*
X81619648Y-31430802D01*
X81685966Y-31475365D01*
X81769315Y-31553168D01*
X81903595Y-31689137D01*
X81740686Y-31817162D01*
X81656618Y-31882159D01*
X81581578Y-31938298D01*
X81529490Y-31975204D01*
X81522989Y-31979403D01*
X81481474Y-32012234D01*
X81468200Y-32033393D01*
X81488971Y-32042180D01*
X81540095Y-32035492D01*
X81604782Y-32016793D01*
X81657126Y-31994436D01*
X81701191Y-31964115D01*
X81766254Y-31910758D01*
X81826919Y-31856324D01*
X81947485Y-31743548D01*
X82116002Y-31882549D01*
X82223662Y-31963398D01*
X82317008Y-32018139D01*
X82389026Y-32043401D01*
X82432703Y-32035809D01*
X82433360Y-32035180D01*
X82425366Y-32013253D01*
X82395260Y-31986581D01*
X82290921Y-31910290D01*
X82193922Y-31835504D01*
X82112427Y-31768930D01*
X82054597Y-31717273D01*
X82028596Y-31687242D01*
X82027929Y-31684772D01*
X82044090Y-31655451D01*
X82087308Y-31602408D01*
X82146695Y-31538722D01*
X82233656Y-31460425D01*
X82302137Y-31422412D01*
X82334085Y-31417200D01*
X82406584Y-31400224D01*
X82445464Y-31347463D01*
X82452745Y-31256160D01*
X82452705Y-31255590D01*
X82446300Y-31195468D01*
X82438886Y-31164413D01*
X82437437Y-31163250D01*
X82410999Y-31178847D01*
X82363610Y-31217667D01*
X82308428Y-31267554D01*
X82258609Y-31316350D01*
X82227312Y-31351897D01*
X82222804Y-31361571D01*
X82209436Y-31388794D01*
X82169558Y-31437380D01*
X82114860Y-31495200D01*
X82057028Y-31550127D01*
X82007751Y-31590032D01*
X81994842Y-31598122D01*
X81962406Y-31604426D01*
X81919287Y-31586848D01*
X81855790Y-31540348D01*
X81810687Y-31502363D01*
X81737907Y-31434110D01*
X81700461Y-31386403D01*
X81700145Y-31364332D01*
X81703039Y-31340247D01*
X81660799Y-31303285D01*
X81655700Y-31299985D01*
X81591309Y-31253339D01*
X81541420Y-31208304D01*
X81501460Y-31170745D01*
X81478531Y-31174649D01*
X81462500Y-31224090D01*
X81458894Y-31241479D01*
X81457194Y-31331760D01*
X80909485Y-31331760D01*
X81005756Y-31239950D01*
X81166644Y-31090381D01*
X81302875Y-30968942D01*
X81419709Y-30871370D01*
X81522403Y-30793403D01*
X81616217Y-30730778D01*
X81706409Y-30679233D01*
X81770580Y-30647284D01*
X81942243Y-30585893D01*
X82104812Y-30570445D01*
X82264238Y-30601821D01*
X82426474Y-30680902D01*
X82539757Y-30761053D01*
X82624577Y-30841113D01*
X82725511Y-30960945D01*
X82843715Y-31122136D01*
X82980347Y-31326274D01*
X83136562Y-31574947D01*
X83156584Y-31607700D01*
X83325118Y-31878003D01*
X83476393Y-32106383D01*
X83614273Y-32297118D01*
X83742620Y-32454486D01*
X83865299Y-32582764D01*
X83986171Y-32686231D01*
X84109100Y-32769164D01*
X84237949Y-32835841D01*
X84283301Y-32855366D01*
X84386426Y-32895064D01*
X84450990Y-32912413D01*
X84483499Y-32908513D01*
X84490800Y-32890400D01*
X84469855Y-32868806D01*
X84446714Y-32865000D01*
X84369456Y-32846910D01*
X84269882Y-32797309D01*
X84158803Y-32723195D01*
X84047032Y-32631568D01*
X83970080Y-32556441D01*
X83890417Y-32468427D01*
X83813515Y-32375014D01*
X83734958Y-32269729D01*
X83650324Y-32146099D01*
X83555197Y-31997649D01*
X83445156Y-31817906D01*
X83315782Y-31600396D01*
X83305129Y-31582300D01*
X83188601Y-31384992D01*
X83092869Y-31224994D01*
X83013542Y-31095499D01*
X82946231Y-30989698D01*
X82886547Y-30900785D01*
X82830100Y-30821951D01*
X82772500Y-30746389D01*
X82738250Y-30703147D01*
X82576605Y-30523151D01*
X82419356Y-30393019D01*
X82265440Y-30312110D01*
X82113790Y-30279782D01*
X82038852Y-30281598D01*
X81946145Y-30297293D01*
X81852112Y-30327027D01*
X81753052Y-30373656D01*
X81645268Y-30440035D01*
X81525059Y-30529020D01*
X81388727Y-30643465D01*
X81232572Y-30786227D01*
X81052895Y-30960161D01*
X80845997Y-31168121D01*
X80711011Y-31306543D01*
X80499965Y-31522732D01*
X80318332Y-31705310D01*
X80161552Y-31858434D01*
X80025069Y-31986263D01*
X79904324Y-32092958D01*
X79794761Y-32182677D01*
X79691820Y-32259580D01*
X79594152Y-32325757D01*
X79455813Y-32403385D01*
X79306188Y-32467805D01*
X79161172Y-32513288D01*
X79036658Y-32534100D01*
X79014424Y-32534800D01*
X78956735Y-32541363D01*
X78928709Y-32557439D01*
X78928200Y-32560200D01*
X78095016Y-32560200D01*
X78096601Y-32485674D01*
X78122255Y-32428147D01*
X78153643Y-32392647D01*
X78220180Y-32326110D01*
X78864700Y-32361522D01*
X79017100Y-32281204D01*
X79134993Y-32214915D01*
X79251837Y-32139848D01*
X79371706Y-32052330D01*
X79498673Y-31948685D01*
X79636813Y-31825239D01*
X79790199Y-31678317D01*
X79962907Y-31504244D01*
X80159010Y-31299347D01*
X80382582Y-31059950D01*
X80439722Y-30998100D01*
X80679531Y-30739954D01*
X80889998Y-30517802D01*
X81074408Y-30328701D01*
X81236048Y-30169708D01*
X81378203Y-30037881D01*
X81504160Y-29930276D01*
X81617205Y-29843952D01*
X81720623Y-29775964D01*
X81817701Y-29723372D01*
X81905266Y-29685662D01*
X82045606Y-29646837D01*
X82169699Y-29647292D01*
G36*
X80399872Y-35719992D02*
X80401350Y-35794605D01*
X80390938Y-35882569D01*
X80370325Y-35966332D01*
X80352752Y-36009261D01*
X80281814Y-36114366D01*
X80185298Y-36215614D01*
X80080387Y-36296533D01*
X80018977Y-36329141D01*
X79951378Y-36351138D01*
X79852122Y-36376120D01*
X79739789Y-36399533D01*
X79709639Y-36404992D01*
X79581749Y-36430033D01*
X79481101Y-36458913D01*
X79394471Y-36498680D01*
X79308636Y-36556380D01*
X79210371Y-36639062D01*
X79127491Y-36715218D01*
X79032572Y-36801659D01*
X78963493Y-36857539D01*
X78910930Y-36888960D01*
X78865562Y-36902025D01*
X78839726Y-36903600D01*
X78776839Y-36896788D01*
X78739195Y-36880191D01*
X78737700Y-36878200D01*
X78743189Y-36856236D01*
X78760184Y-36852800D01*
X78822484Y-36829721D01*
X78889978Y-36766441D01*
X78954958Y-36671892D01*
X79003625Y-36570707D01*
X79040187Y-36484227D01*
X79073630Y-36430176D01*
X79118753Y-36393448D01*
X79190356Y-36358936D01*
X79225678Y-36344057D01*
X79345485Y-36289084D01*
X79423613Y-36238682D01*
X79467737Y-36185389D01*
X79485531Y-36121742D01*
X79487000Y-36089973D01*
X79497898Y-36004259D01*
X79534407Y-35959401D01*
X79602246Y-35951405D01*
X79666905Y-35964366D01*
X79818009Y-35979187D01*
X79973941Y-35944564D01*
X80132281Y-35861335D01*
X80260338Y-35759142D01*
X80320827Y-35708395D01*
X80366738Y-35679052D01*
X80384813Y-35676280D01*
X80399872Y-35719992D01*
X80399872Y-35719992D01*
G37*
X80399872Y-35719992D02*
X80401350Y-35794605D01*
X80390938Y-35882569D01*
X80370325Y-35966332D01*
X80352752Y-36009261D01*
X80281814Y-36114366D01*
X80185298Y-36215614D01*
X80080387Y-36296533D01*
X80018977Y-36329141D01*
X79951378Y-36351138D01*
X79852122Y-36376120D01*
X79739789Y-36399533D01*
X79709639Y-36404992D01*
X79581749Y-36430033D01*
X79481101Y-36458913D01*
X79394471Y-36498680D01*
X79308636Y-36556380D01*
X79210371Y-36639062D01*
X79127491Y-36715218D01*
X79032572Y-36801659D01*
X78963493Y-36857539D01*
X78910930Y-36888960D01*
X78865562Y-36902025D01*
X78839726Y-36903600D01*
X78776839Y-36896788D01*
X78739195Y-36880191D01*
X78737700Y-36878200D01*
X78743189Y-36856236D01*
X78760184Y-36852800D01*
X78822484Y-36829721D01*
X78889978Y-36766441D01*
X78954958Y-36671892D01*
X79003625Y-36570707D01*
X79040187Y-36484227D01*
X79073630Y-36430176D01*
X79118753Y-36393448D01*
X79190356Y-36358936D01*
X79225678Y-36344057D01*
X79345485Y-36289084D01*
X79423613Y-36238682D01*
X79467737Y-36185389D01*
X79485531Y-36121742D01*
X79487000Y-36089973D01*
X79497898Y-36004259D01*
X79534407Y-35959401D01*
X79602246Y-35951405D01*
X79666905Y-35964366D01*
X79818009Y-35979187D01*
X79973941Y-35944564D01*
X80132281Y-35861335D01*
X80260338Y-35759142D01*
X80320827Y-35708395D01*
X80366738Y-35679052D01*
X80384813Y-35676280D01*
X80399872Y-35719992D01*
G36*
X80202165Y-35030477D02*
X80231783Y-35047943D01*
X80245310Y-35067906D01*
X80278354Y-35108142D01*
X80339222Y-35165563D01*
X80412806Y-35226202D01*
X80482859Y-35283651D01*
X80533332Y-35331535D01*
X80553755Y-35359878D01*
X80553799Y-35360560D01*
X80535674Y-35397834D01*
X80486498Y-35459513D01*
X80414071Y-35537275D01*
X80326193Y-35622794D01*
X80230665Y-35707748D01*
X80220213Y-35716543D01*
X80090137Y-35815780D01*
X79973840Y-35878788D01*
X79859047Y-35907516D01*
X79733485Y-35903915D01*
X79584879Y-35869934D01*
X79476435Y-35834689D01*
X79251889Y-35756379D01*
X79014116Y-35847389D01*
X78853828Y-35902593D01*
X78727490Y-35930812D01*
X78626495Y-35932799D01*
X78542234Y-35909309D01*
X78509100Y-35891621D01*
X78444732Y-35845600D01*
X78395457Y-35799397D01*
X78394800Y-35798603D01*
X78372282Y-35766964D01*
X78385681Y-35760690D01*
X78427501Y-35769809D01*
X78527481Y-35774372D01*
X78640232Y-35739442D01*
X78770317Y-35663171D01*
X78863077Y-35593180D01*
X78973506Y-35507137D01*
X79057487Y-35451632D01*
X79125680Y-35422512D01*
X79188744Y-35415621D01*
X79257341Y-35426807D01*
X79276736Y-35431978D01*
X79377497Y-35447225D01*
X79464684Y-35427751D01*
X79548804Y-35369008D01*
X79630532Y-35278860D01*
X79731961Y-35165164D01*
X79827330Y-35090761D01*
X79929843Y-35047938D01*
X80052707Y-35028983D01*
X80059116Y-35028555D01*
X80149104Y-35024965D01*
X80202165Y-35030477D01*
X80202165Y-35030477D01*
G37*
X80202165Y-35030477D02*
X80231783Y-35047943D01*
X80245310Y-35067906D01*
X80278354Y-35108142D01*
X80339222Y-35165563D01*
X80412806Y-35226202D01*
X80482859Y-35283651D01*
X80533332Y-35331535D01*
X80553755Y-35359878D01*
X80553799Y-35360560D01*
X80535674Y-35397834D01*
X80486498Y-35459513D01*
X80414071Y-35537275D01*
X80326193Y-35622794D01*
X80230665Y-35707748D01*
X80220213Y-35716543D01*
X80090137Y-35815780D01*
X79973840Y-35878788D01*
X79859047Y-35907516D01*
X79733485Y-35903915D01*
X79584879Y-35869934D01*
X79476435Y-35834689D01*
X79251889Y-35756379D01*
X79014116Y-35847389D01*
X78853828Y-35902593D01*
X78727490Y-35930812D01*
X78626495Y-35932799D01*
X78542234Y-35909309D01*
X78509100Y-35891621D01*
X78444732Y-35845600D01*
X78395457Y-35799397D01*
X78394800Y-35798603D01*
X78372282Y-35766964D01*
X78385681Y-35760690D01*
X78427501Y-35769809D01*
X78527481Y-35774372D01*
X78640232Y-35739442D01*
X78770317Y-35663171D01*
X78863077Y-35593180D01*
X78973506Y-35507137D01*
X79057487Y-35451632D01*
X79125680Y-35422512D01*
X79188744Y-35415621D01*
X79257341Y-35426807D01*
X79276736Y-35431978D01*
X79377497Y-35447225D01*
X79464684Y-35427751D01*
X79548804Y-35369008D01*
X79630532Y-35278860D01*
X79731961Y-35165164D01*
X79827330Y-35090761D01*
X79929843Y-35047938D01*
X80052707Y-35028983D01*
X80059116Y-35028555D01*
X80149104Y-35024965D01*
X80202165Y-35030477D01*
G36*
X79488660Y-31635246D02*
X79550318Y-31699739D01*
X79594857Y-31750143D01*
X79612895Y-31775822D01*
X79612928Y-31776098D01*
X79594675Y-31798724D01*
X79547087Y-31840127D01*
X79482934Y-31890662D01*
X79414983Y-31940683D01*
X79356005Y-31980545D01*
X79318769Y-32000602D01*
X79314662Y-32001400D01*
X79288992Y-31983040D01*
X79241624Y-31934575D01*
X79182148Y-31865920D01*
X79173472Y-31855350D01*
X79113358Y-31779095D01*
X79082908Y-31731439D01*
X79077917Y-31703114D01*
X79094183Y-31684854D01*
X79095704Y-31683900D01*
X79140228Y-31655826D01*
X79208329Y-31612175D01*
X79251237Y-31584446D01*
X79365463Y-31510393D01*
X79488660Y-31635246D01*
X79488660Y-31635246D01*
G37*
X79488660Y-31635246D02*
X79550318Y-31699739D01*
X79594857Y-31750143D01*
X79612895Y-31775822D01*
X79612928Y-31776098D01*
X79594675Y-31798724D01*
X79547087Y-31840127D01*
X79482934Y-31890662D01*
X79414983Y-31940683D01*
X79356005Y-31980545D01*
X79318769Y-32000602D01*
X79314662Y-32001400D01*
X79288992Y-31983040D01*
X79241624Y-31934575D01*
X79182148Y-31865920D01*
X79173472Y-31855350D01*
X79113358Y-31779095D01*
X79082908Y-31731439D01*
X79077917Y-31703114D01*
X79094183Y-31684854D01*
X79095704Y-31683900D01*
X79140228Y-31655826D01*
X79208329Y-31612175D01*
X79251237Y-31584446D01*
X79365463Y-31510393D01*
X79488660Y-31635246D01*
G36*
X79239166Y-30720826D02*
X79333247Y-30756110D01*
X79425071Y-30829507D01*
X79483900Y-30931809D01*
X79503884Y-31048982D01*
X79490978Y-31134537D01*
X79427232Y-31273678D01*
X79320172Y-31405324D01*
X79166482Y-31533328D01*
X79119854Y-31565567D01*
X78921809Y-31676418D01*
X78710284Y-31756393D01*
X78497037Y-31802615D01*
X78293824Y-31812209D01*
X78172159Y-31797335D01*
X78086015Y-31777094D01*
X78038566Y-31752867D01*
X78018331Y-31712742D01*
X78013828Y-31644804D01*
X78013800Y-31633029D01*
X78013800Y-31521656D01*
X78132134Y-31574001D01*
X78205680Y-31601605D01*
X78279459Y-31615508D01*
X78372104Y-31618035D01*
X78455984Y-31614408D01*
X78584969Y-31601507D01*
X78691042Y-31580421D01*
X78765564Y-31553602D01*
X78799896Y-31523501D01*
X78801200Y-31516434D01*
X78777458Y-31489565D01*
X78708732Y-31477328D01*
X78598771Y-31480010D01*
X78488078Y-31492462D01*
X78364260Y-31506585D01*
X78270458Y-31508027D01*
X78187438Y-31496558D01*
X78153500Y-31488449D01*
X78026500Y-31455300D01*
X78020772Y-31344457D01*
X78392938Y-31344457D01*
X78407050Y-31353669D01*
X78468508Y-31353962D01*
X78524730Y-31349745D01*
X78666607Y-31346679D01*
X78799305Y-31361894D01*
X78909956Y-31392785D01*
X78985693Y-31436749D01*
X78993536Y-31444629D01*
X79039822Y-31485341D01*
X79079711Y-31484927D01*
X79130871Y-31443127D01*
X79131400Y-31442600D01*
X79174226Y-31388444D01*
X79172397Y-31346886D01*
X79125018Y-31304719D01*
X79121912Y-31302669D01*
X79021721Y-31262472D01*
X78887492Y-31246500D01*
X78730163Y-31255360D01*
X78619949Y-31274887D01*
X78500861Y-31303907D01*
X78424700Y-31327483D01*
X78392938Y-31344457D01*
X78020772Y-31344457D01*
X78018785Y-31306008D01*
X78015966Y-31223325D01*
X78020460Y-31181098D01*
X78035217Y-31169173D01*
X78056885Y-31174819D01*
X78159468Y-31203045D01*
X78258133Y-31201131D01*
X78360791Y-31166230D01*
X78376865Y-31156305D01*
X78626405Y-31156305D01*
X78636233Y-31163443D01*
X78674200Y-31154567D01*
X78834747Y-31125184D01*
X78984844Y-31121256D01*
X79114277Y-31141722D01*
X79212832Y-31185523D01*
X79245603Y-31213892D01*
X79291244Y-31255821D01*
X79325430Y-31255609D01*
X79363530Y-31211539D01*
X79371324Y-31199834D01*
X79405531Y-31112964D01*
X79394784Y-31035200D01*
X79344829Y-30972508D01*
X79261414Y-30930852D01*
X79150288Y-30916196D01*
X79100764Y-30919077D01*
X79000254Y-30940814D01*
X78886454Y-30981774D01*
X78776994Y-31033986D01*
X78689507Y-31089482D01*
X78655521Y-31120327D01*
X78626405Y-31156305D01*
X78376865Y-31156305D01*
X78475351Y-31095497D01*
X78609723Y-30986086D01*
X78628858Y-30969053D01*
X78798310Y-30835204D01*
X78955317Y-30749577D01*
X79101671Y-30711632D01*
X79239166Y-30720826D01*
X79239166Y-30720826D01*
G37*
X79239166Y-30720826D02*
X79333247Y-30756110D01*
X79425071Y-30829507D01*
X79483900Y-30931809D01*
X79503884Y-31048982D01*
X79490978Y-31134537D01*
X79427232Y-31273678D01*
X79320172Y-31405324D01*
X79166482Y-31533328D01*
X79119854Y-31565567D01*
X78921809Y-31676418D01*
X78710284Y-31756393D01*
X78497037Y-31802615D01*
X78293824Y-31812209D01*
X78172159Y-31797335D01*
X78086015Y-31777094D01*
X78038566Y-31752867D01*
X78018331Y-31712742D01*
X78013828Y-31644804D01*
X78013800Y-31633029D01*
X78013800Y-31521656D01*
X78132134Y-31574001D01*
X78205680Y-31601605D01*
X78279459Y-31615508D01*
X78372104Y-31618035D01*
X78455984Y-31614408D01*
X78584969Y-31601507D01*
X78691042Y-31580421D01*
X78765564Y-31553602D01*
X78799896Y-31523501D01*
X78801200Y-31516434D01*
X78777458Y-31489565D01*
X78708732Y-31477328D01*
X78598771Y-31480010D01*
X78488078Y-31492462D01*
X78364260Y-31506585D01*
X78270458Y-31508027D01*
X78187438Y-31496558D01*
X78153500Y-31488449D01*
X78026500Y-31455300D01*
X78020772Y-31344457D01*
X78392938Y-31344457D01*
X78407050Y-31353669D01*
X78468508Y-31353962D01*
X78524730Y-31349745D01*
X78666607Y-31346679D01*
X78799305Y-31361894D01*
X78909956Y-31392785D01*
X78985693Y-31436749D01*
X78993536Y-31444629D01*
X79039822Y-31485341D01*
X79079711Y-31484927D01*
X79130871Y-31443127D01*
X79131400Y-31442600D01*
X79174226Y-31388444D01*
X79172397Y-31346886D01*
X79125018Y-31304719D01*
X79121912Y-31302669D01*
X79021721Y-31262472D01*
X78887492Y-31246500D01*
X78730163Y-31255360D01*
X78619949Y-31274887D01*
X78500861Y-31303907D01*
X78424700Y-31327483D01*
X78392938Y-31344457D01*
X78020772Y-31344457D01*
X78018785Y-31306008D01*
X78015966Y-31223325D01*
X78020460Y-31181098D01*
X78035217Y-31169173D01*
X78056885Y-31174819D01*
X78159468Y-31203045D01*
X78258133Y-31201131D01*
X78360791Y-31166230D01*
X78376865Y-31156305D01*
X78626405Y-31156305D01*
X78636233Y-31163443D01*
X78674200Y-31154567D01*
X78834747Y-31125184D01*
X78984844Y-31121256D01*
X79114277Y-31141722D01*
X79212832Y-31185523D01*
X79245603Y-31213892D01*
X79291244Y-31255821D01*
X79325430Y-31255609D01*
X79363530Y-31211539D01*
X79371324Y-31199834D01*
X79405531Y-31112964D01*
X79394784Y-31035200D01*
X79344829Y-30972508D01*
X79261414Y-30930852D01*
X79150288Y-30916196D01*
X79100764Y-30919077D01*
X79000254Y-30940814D01*
X78886454Y-30981774D01*
X78776994Y-31033986D01*
X78689507Y-31089482D01*
X78655521Y-31120327D01*
X78626405Y-31156305D01*
X78376865Y-31156305D01*
X78475351Y-31095497D01*
X78609723Y-30986086D01*
X78628858Y-30969053D01*
X78798310Y-30835204D01*
X78955317Y-30749577D01*
X79101671Y-30711632D01*
X79239166Y-30720826D01*
G36*
X79455663Y-31444498D02*
X79500981Y-31484514D01*
X79557414Y-31541273D01*
X79614398Y-31603516D01*
X79661368Y-31659987D01*
X79687762Y-31699428D01*
X79690200Y-31707604D01*
X79678084Y-31722184D01*
X79640731Y-31698072D01*
X79576633Y-31634091D01*
X79531276Y-31583585D01*
X79475381Y-31515053D01*
X79439635Y-31461639D01*
X79430839Y-31433698D01*
X79432024Y-31432480D01*
X79455663Y-31444498D01*
X79455663Y-31444498D01*
G37*
X79455663Y-31444498D02*
X79500981Y-31484514D01*
X79557414Y-31541273D01*
X79614398Y-31603516D01*
X79661368Y-31659987D01*
X79687762Y-31699428D01*
X79690200Y-31707604D01*
X79678084Y-31722184D01*
X79640731Y-31698072D01*
X79576633Y-31634091D01*
X79531276Y-31583585D01*
X79475381Y-31515053D01*
X79439635Y-31461639D01*
X79430839Y-31433698D01*
X79432024Y-31432480D01*
X79455663Y-31444498D01*
G36*
X79729562Y-31056109D02*
X79817395Y-31108206D01*
X79884469Y-31181267D01*
X79917442Y-31263727D01*
X79918800Y-31283151D01*
X79907947Y-31331869D01*
X79877870Y-31334439D01*
X79840598Y-31300488D01*
X79810996Y-31278153D01*
X79762702Y-31269744D01*
X79682128Y-31273555D01*
X79650872Y-31276694D01*
X79494768Y-31293411D01*
X79535334Y-31165145D01*
X79563963Y-31087628D01*
X79592096Y-31048623D01*
X79628530Y-31036697D01*
X79634311Y-31036539D01*
X79729562Y-31056109D01*
X79729562Y-31056109D01*
G37*
X79729562Y-31056109D02*
X79817395Y-31108206D01*
X79884469Y-31181267D01*
X79917442Y-31263727D01*
X79918800Y-31283151D01*
X79907947Y-31331869D01*
X79877870Y-31334439D01*
X79840598Y-31300488D01*
X79810996Y-31278153D01*
X79762702Y-31269744D01*
X79682128Y-31273555D01*
X79650872Y-31276694D01*
X79494768Y-31293411D01*
X79535334Y-31165145D01*
X79563963Y-31087628D01*
X79592096Y-31048623D01*
X79628530Y-31036697D01*
X79634311Y-31036539D01*
X79729562Y-31056109D01*
G36*
X78711514Y-30362372D02*
X78751548Y-30399259D01*
X78761184Y-30409432D01*
X78820723Y-30477300D01*
X78877322Y-30547788D01*
X78922694Y-30609770D01*
X78948551Y-30652120D01*
X78950792Y-30664002D01*
X78924631Y-30680053D01*
X78870312Y-30711799D01*
X78843061Y-30727481D01*
X78767360Y-30776471D01*
X78678545Y-30841769D01*
X78625527Y-30884470D01*
X78552297Y-30944867D01*
X78507849Y-30975386D01*
X78482755Y-30979626D01*
X78467585Y-30961181D01*
X78461684Y-30946960D01*
X78465820Y-30906759D01*
X78490672Y-30837565D01*
X78530937Y-30754012D01*
X78533047Y-30750110D01*
X78582974Y-30650016D01*
X78626628Y-30548238D01*
X78651261Y-30477400D01*
X78671835Y-30407606D01*
X78687251Y-30361496D01*
X78691228Y-30352768D01*
X78711514Y-30362372D01*
X78711514Y-30362372D01*
G37*
X78711514Y-30362372D02*
X78751548Y-30399259D01*
X78761184Y-30409432D01*
X78820723Y-30477300D01*
X78877322Y-30547788D01*
X78922694Y-30609770D01*
X78948551Y-30652120D01*
X78950792Y-30664002D01*
X78924631Y-30680053D01*
X78870312Y-30711799D01*
X78843061Y-30727481D01*
X78767360Y-30776471D01*
X78678545Y-30841769D01*
X78625527Y-30884470D01*
X78552297Y-30944867D01*
X78507849Y-30975386D01*
X78482755Y-30979626D01*
X78467585Y-30961181D01*
X78461684Y-30946960D01*
X78465820Y-30906759D01*
X78490672Y-30837565D01*
X78530937Y-30754012D01*
X78533047Y-30750110D01*
X78582974Y-30650016D01*
X78626628Y-30548238D01*
X78651261Y-30477400D01*
X78671835Y-30407606D01*
X78687251Y-30361496D01*
X78691228Y-30352768D01*
X78711514Y-30362372D01*
G36*
X78468415Y-30137100D02*
X78513152Y-30173245D01*
X78559987Y-30215604D01*
X78592360Y-30249544D01*
X78598000Y-30259334D01*
X78586434Y-30311299D01*
X78555995Y-30388129D01*
X78513069Y-30477997D01*
X78464043Y-30569077D01*
X78415302Y-30649542D01*
X78373233Y-30707566D01*
X78344223Y-30731322D01*
X78343081Y-30731400D01*
X78315739Y-30712649D01*
X78276096Y-30666643D01*
X78269741Y-30657926D01*
X78217423Y-30584452D01*
X78305762Y-30437749D01*
X78354612Y-30347858D01*
X78392824Y-30261600D01*
X78409978Y-30206423D01*
X78424945Y-30149567D01*
X78440595Y-30122229D01*
X78442336Y-30121800D01*
X78468415Y-30137100D01*
X78468415Y-30137100D01*
G37*
X78468415Y-30137100D02*
X78513152Y-30173245D01*
X78559987Y-30215604D01*
X78592360Y-30249544D01*
X78598000Y-30259334D01*
X78586434Y-30311299D01*
X78555995Y-30388129D01*
X78513069Y-30477997D01*
X78464043Y-30569077D01*
X78415302Y-30649542D01*
X78373233Y-30707566D01*
X78344223Y-30731322D01*
X78343081Y-30731400D01*
X78315739Y-30712649D01*
X78276096Y-30666643D01*
X78269741Y-30657926D01*
X78217423Y-30584452D01*
X78305762Y-30437749D01*
X78354612Y-30347858D01*
X78392824Y-30261600D01*
X78409978Y-30206423D01*
X78424945Y-30149567D01*
X78440595Y-30122229D01*
X78442336Y-30121800D01*
X78468415Y-30137100D01*
G36*
X78378740Y-30039214D02*
X78335101Y-30153479D01*
X78289435Y-30246171D01*
X78228245Y-30339204D01*
X78208171Y-30364099D01*
X78124879Y-30460454D01*
X78069339Y-30382456D01*
X78017988Y-30273338D01*
X78017130Y-30162495D01*
X78066582Y-30051712D01*
X78109050Y-29998073D01*
X78204300Y-29893212D01*
X78378740Y-30039214D01*
X78378740Y-30039214D01*
G37*
X78378740Y-30039214D02*
X78335101Y-30153479D01*
X78289435Y-30246171D01*
X78228245Y-30339204D01*
X78208171Y-30364099D01*
X78124879Y-30460454D01*
X78069339Y-30382456D01*
X78017988Y-30273338D01*
X78017130Y-30162495D01*
X78066582Y-30051712D01*
X78109050Y-29998073D01*
X78204300Y-29893212D01*
X78378740Y-30039214D01*
G36*
X78064599Y-29753500D02*
X78101839Y-29813402D01*
X78110903Y-29851804D01*
X78091896Y-29889407D01*
X78065445Y-29922136D01*
X78015490Y-29982100D01*
X78014134Y-29677300D01*
X78064599Y-29753500D01*
X78064599Y-29753500D01*
G37*
X78064599Y-29753500D02*
X78101839Y-29813402D01*
X78110903Y-29851804D01*
X78091896Y-29889407D01*
X78065445Y-29922136D01*
X78015490Y-29982100D01*
X78014134Y-29677300D01*
X78064599Y-29753500D01*
G36*
X81440797Y-35857261D02*
X81468200Y-35887600D01*
X81486548Y-35925540D01*
X81488143Y-35934828D01*
X81461633Y-35925326D01*
X81406408Y-35906825D01*
X81398350Y-35904175D01*
X81336441Y-35876937D01*
X81318399Y-35853433D01*
X81345797Y-35838977D01*
X81378406Y-35836800D01*
X81440797Y-35857261D01*
X81440797Y-35857261D01*
G37*
X81440797Y-35857261D02*
X81468200Y-35887600D01*
X81486548Y-35925540D01*
X81488143Y-35934828D01*
X81461633Y-35925326D01*
X81406408Y-35906825D01*
X81398350Y-35904175D01*
X81336441Y-35876937D01*
X81318399Y-35853433D01*
X81345797Y-35838977D01*
X81378406Y-35836800D01*
X81440797Y-35857261D01*
G36*
X81815872Y-34824509D02*
X81822546Y-34831990D01*
X81862005Y-34857769D01*
X81882807Y-34857657D01*
X81932939Y-34865229D01*
X81986579Y-34923344D01*
X82043758Y-35032046D01*
X82093149Y-35158508D01*
X82113654Y-35223487D01*
X82112573Y-35265714D01*
X82084628Y-35307290D01*
X82048471Y-35345552D01*
X81983126Y-35397323D01*
X81934126Y-35404158D01*
X81905471Y-35366761D01*
X81899653Y-35319339D01*
X81890321Y-35233862D01*
X81867863Y-35176522D01*
X81838701Y-35152592D01*
X81809257Y-35167345D01*
X81785961Y-35226007D01*
X81758147Y-35300675D01*
X81714197Y-35369691D01*
X81665681Y-35417604D01*
X81632896Y-35430400D01*
X81593545Y-35411361D01*
X81558540Y-35373948D01*
X81527117Y-35299520D01*
X81519873Y-35209605D01*
X81532874Y-35112272D01*
X81562190Y-35015593D01*
X81603889Y-34927640D01*
X81654038Y-34856484D01*
X81708706Y-34810196D01*
X81763962Y-34796847D01*
X81815872Y-34824509D01*
X81815872Y-34824509D01*
G37*
X81815872Y-34824509D02*
X81822546Y-34831990D01*
X81862005Y-34857769D01*
X81882807Y-34857657D01*
X81932939Y-34865229D01*
X81986579Y-34923344D01*
X82043758Y-35032046D01*
X82093149Y-35158508D01*
X82113654Y-35223487D01*
X82112573Y-35265714D01*
X82084628Y-35307290D01*
X82048471Y-35345552D01*
X81983126Y-35397323D01*
X81934126Y-35404158D01*
X81905471Y-35366761D01*
X81899653Y-35319339D01*
X81890321Y-35233862D01*
X81867863Y-35176522D01*
X81838701Y-35152592D01*
X81809257Y-35167345D01*
X81785961Y-35226007D01*
X81758147Y-35300675D01*
X81714197Y-35369691D01*
X81665681Y-35417604D01*
X81632896Y-35430400D01*
X81593545Y-35411361D01*
X81558540Y-35373948D01*
X81527117Y-35299520D01*
X81519873Y-35209605D01*
X81532874Y-35112272D01*
X81562190Y-35015593D01*
X81603889Y-34927640D01*
X81654038Y-34856484D01*
X81708706Y-34810196D01*
X81763962Y-34796847D01*
X81815872Y-34824509D01*
G36*
X81538871Y-31277403D02*
X81563979Y-31310837D01*
X81552924Y-31336747D01*
X81533816Y-31341000D01*
X81498827Y-31320549D01*
X81493600Y-31300783D01*
X81508406Y-31272967D01*
X81538871Y-31277403D01*
X81538871Y-31277403D01*
G37*
X81538871Y-31277403D02*
X81563979Y-31310837D01*
X81552924Y-31336747D01*
X81533816Y-31341000D01*
X81498827Y-31320549D01*
X81493600Y-31300783D01*
X81508406Y-31272967D01*
X81538871Y-31277403D01*
G36*
X81646000Y-31328300D02*
X81633300Y-31341000D01*
X81620600Y-31328300D01*
X81633300Y-31315600D01*
X81646000Y-31328300D01*
X81646000Y-31328300D01*
G37*
X81646000Y-31328300D02*
X81633300Y-31341000D01*
X81620600Y-31328300D01*
X81633300Y-31315600D01*
X81646000Y-31328300D01*
G36*
X82297933Y-31324066D02*
X82294446Y-31339166D01*
X82281000Y-31341000D01*
X82260092Y-31331706D01*
X82264066Y-31324066D01*
X82294210Y-31321026D01*
X82297933Y-31324066D01*
X82297933Y-31324066D01*
G37*
X82297933Y-31324066D02*
X82294446Y-31339166D01*
X82281000Y-31341000D01*
X82260092Y-31331706D01*
X82264066Y-31324066D01*
X82294210Y-31321026D01*
X82297933Y-31324066D01*
G36*
X82430028Y-31276496D02*
X82428637Y-31291787D01*
X82396478Y-31330281D01*
X82384187Y-31336237D01*
X82360571Y-31329303D01*
X82361962Y-31314012D01*
X82394121Y-31275518D01*
X82406412Y-31269562D01*
X82430028Y-31276496D01*
X82430028Y-31276496D01*
G37*
X82430028Y-31276496D02*
X82428637Y-31291787D01*
X82396478Y-31330281D01*
X82384187Y-31336237D01*
X82360571Y-31329303D01*
X82361962Y-31314012D01*
X82394121Y-31275518D01*
X82406412Y-31269562D01*
X82430028Y-31276496D01*
D14*
X90976000Y-31990000D02*
G75*
G03X90976000Y-31990000I-2286000J0D01*
G01*
D12*
X64965000Y-40185000D02*
X64965000Y-40210000D01*
X69115000Y-40185000D02*
X69115000Y-40290000D01*
X69115000Y-50335000D02*
X69115000Y-50230000D01*
X64965000Y-50335000D02*
X64965000Y-50230000D01*
X64965000Y-40185000D02*
X69115000Y-40185000D01*
X64965000Y-50335000D02*
X69115000Y-50335000D01*
X64965000Y-40210000D02*
X63590000Y-40210000D01*
D14*
X50692000Y-55290000D02*
X49692000Y-55290000D01*
X49692000Y-53930000D02*
X50692000Y-53930000D01*
X83730000Y-53030000D02*
X84730000Y-53030000D01*
X84730000Y-54390000D02*
X83730000Y-54390000D01*
X80070000Y-52500000D02*
X80070000Y-53500000D01*
X78710000Y-53500000D02*
X78710000Y-52500000D01*
X66450000Y-53030000D02*
X66450000Y-53960000D01*
X66450000Y-56190000D02*
X66450000Y-55260000D01*
X66450000Y-56190000D02*
X69610000Y-56190000D01*
X66450000Y-53030000D02*
X67910000Y-53030000D01*
X77176000Y-51816000D02*
X77176000Y-46676000D01*
X77176000Y-46676000D02*
X74516000Y-46676000D01*
X74516000Y-46676000D02*
X74516000Y-51816000D01*
X74516000Y-51816000D02*
X77176000Y-51816000D01*
X77176000Y-53086000D02*
X77176000Y-54416000D01*
X77176000Y-54416000D02*
X75846000Y-54416000D01*
X77280000Y-41450000D02*
X77280000Y-36310000D01*
X77280000Y-36310000D02*
X74620000Y-36310000D01*
X74620000Y-36310000D02*
X74620000Y-41450000D01*
X74620000Y-41450000D02*
X77280000Y-41450000D01*
X77280000Y-42720000D02*
X77280000Y-44050000D01*
X77280000Y-44050000D02*
X75950000Y-44050000D01*
X59350000Y-40600000D02*
X59350000Y-35460000D01*
X59350000Y-35460000D02*
X56690000Y-35460000D01*
X56690000Y-35460000D02*
X56690000Y-40600000D01*
X56690000Y-40600000D02*
X59350000Y-40600000D01*
X59350000Y-41870000D02*
X59350000Y-43200000D01*
X59350000Y-43200000D02*
X58020000Y-43200000D01*
X59730000Y-51570000D02*
X59730000Y-46430000D01*
X59730000Y-46430000D02*
X57070000Y-46430000D01*
X57070000Y-46430000D02*
X57070000Y-51570000D01*
X57070000Y-51570000D02*
X59730000Y-51570000D01*
X59730000Y-52840000D02*
X59730000Y-54170000D01*
X59730000Y-54170000D02*
X58400000Y-54170000D01*
D15*
X37649815Y-51689000D02*
G75*
G03X37649815Y-51689000I-538815J0D01*
G01*
X46509000Y-52959000D02*
X35714000Y-52959000D01*
X35714000Y-52959000D02*
X35714000Y-49911000D01*
X51843000Y-49657000D02*
X51843000Y-52959000D01*
X51843000Y-52959000D02*
X50065000Y-52959000D01*
X51843000Y-36957000D02*
X51843000Y-40259000D01*
X37873000Y-36957000D02*
X35714000Y-36957000D01*
X35714000Y-36957000D02*
X35714000Y-39878000D01*
X50065000Y-52958000D02*
X46509000Y-52958000D01*
X51843000Y-36958000D02*
X37746000Y-36958000D01*
D14*
X41048000Y-57718000D02*
X43648000Y-57718000D01*
X43648000Y-57718000D02*
X43648000Y-55058000D01*
X43648000Y-55058000D02*
X41048000Y-55058000D01*
X41048000Y-55058000D02*
X41048000Y-57718000D01*
X39778000Y-57718000D02*
X38448000Y-57718000D01*
X38448000Y-57718000D02*
X38448000Y-56388000D01*
X85244000Y-56328000D02*
X82644000Y-56328000D01*
X82644000Y-56328000D02*
X82644000Y-58988000D01*
X82644000Y-58988000D02*
X85244000Y-58988000D01*
X85244000Y-58988000D02*
X85244000Y-56328000D01*
X86514000Y-56328000D02*
X87844000Y-56328000D01*
X87844000Y-56328000D02*
X87844000Y-57658000D01*
X48010000Y-35580000D02*
X53150000Y-35580000D01*
X53150000Y-35580000D02*
X53150000Y-32920000D01*
X53150000Y-32920000D02*
X48010000Y-32920000D01*
X48010000Y-32920000D02*
X48010000Y-35580000D01*
X46740000Y-35580000D02*
X45410000Y-35580000D01*
X45410000Y-35580000D02*
X45410000Y-34250000D01*
X53610000Y-56710000D02*
X54610000Y-56710000D01*
X54610000Y-56710000D02*
X54610000Y-54610000D01*
X53610000Y-56710000D02*
X53610000Y-54610000D01*
X66350000Y-37010000D02*
X67050000Y-37010000D01*
X67050000Y-38210000D02*
X66350000Y-38210000D01*
X61040000Y-50810000D02*
X61040000Y-50110000D01*
X62240000Y-50110000D02*
X62240000Y-50810000D01*
X62290000Y-45740000D02*
X62290000Y-46440000D01*
X61090000Y-46440000D02*
X61090000Y-45740000D01*
X62250000Y-41670000D02*
X62250000Y-42370000D01*
X61050000Y-42370000D02*
X61050000Y-41670000D01*
D12*
X89850000Y-51500000D02*
X89850000Y-39140000D01*
D14*
X39296000Y-32270000D02*
G75*
G03X39296000Y-32270000I-2286000J0D01*
G01*
D13*
G36*
X59996200Y-32686400D02*
X59386003Y-32686400D01*
X59392651Y-31702150D01*
X59399300Y-30717900D01*
X59697750Y-30710743D01*
X59996200Y-30703587D01*
X59996200Y-32686400D01*
X59996200Y-32686400D01*
G37*
X59996200Y-32686400D02*
X59386003Y-32686400D01*
X59392651Y-31702150D01*
X59399300Y-30717900D01*
X59697750Y-30710743D01*
X59996200Y-30703587D01*
X59996200Y-32686400D01*
G36*
X63999947Y-30677566D02*
X64072900Y-30685667D01*
X64326900Y-30717900D01*
X64334875Y-30829237D01*
X64337876Y-30897503D01*
X64329592Y-30926768D01*
X64303788Y-30928583D01*
X64284075Y-30923308D01*
X64207903Y-30909326D01*
X64094670Y-30898751D01*
X63958020Y-30891844D01*
X63811595Y-30888868D01*
X63669038Y-30890085D01*
X63543991Y-30895755D01*
X63450096Y-30906142D01*
X63444319Y-30907188D01*
X63291484Y-30945529D01*
X63187997Y-30994070D01*
X63133269Y-31053685D01*
X63126711Y-31125246D01*
X63167734Y-31209625D01*
X63207273Y-31258412D01*
X63252336Y-31304312D01*
X63302883Y-31345412D01*
X63366986Y-31386277D01*
X63452716Y-31431471D01*
X63568146Y-31485559D01*
X63721347Y-31553105D01*
X63751331Y-31566083D01*
X63994301Y-31678088D01*
X64190671Y-31784374D01*
X64344035Y-31887029D01*
X64430544Y-31960532D01*
X64542800Y-32068092D01*
X64542800Y-30705200D01*
X66219200Y-30705200D01*
X66219200Y-30908400D01*
X65076200Y-30908400D01*
X65076200Y-31568800D01*
X66168400Y-31568800D01*
X66168400Y-31772000D01*
X65076200Y-31772000D01*
X65076200Y-32483200D01*
X66219200Y-32483200D01*
X66219200Y-32686400D01*
X64542800Y-32686400D01*
X64542800Y-32298549D01*
X64493367Y-32361392D01*
X64443603Y-32405537D01*
X64365447Y-32455369D01*
X64296017Y-32490616D01*
X64034780Y-32584633D01*
X63745717Y-32647537D01*
X63442570Y-32677416D01*
X63139080Y-32672359D01*
X63050581Y-32663809D01*
X62898316Y-32646128D01*
X62789692Y-32632219D01*
X62717978Y-32619295D01*
X62676440Y-32604569D01*
X62658346Y-32585254D01*
X62656963Y-32558561D01*
X62665559Y-32521705D01*
X62669626Y-32506092D01*
X62690391Y-32443882D01*
X62711553Y-32409433D01*
X62717078Y-32407000D01*
X62750469Y-32411122D01*
X62821526Y-32422179D01*
X62917904Y-32438207D01*
X62974338Y-32447925D01*
X63199456Y-32474031D01*
X63410356Y-32473103D01*
X63599332Y-32446277D01*
X63758681Y-32394689D01*
X63880697Y-32319476D01*
X63887821Y-32313193D01*
X63928815Y-32245678D01*
X63927426Y-32164647D01*
X63885145Y-32082193D01*
X63855373Y-32049881D01*
X63809897Y-32016991D01*
X63726769Y-31966160D01*
X63613924Y-31901866D01*
X63479294Y-31828589D01*
X63330814Y-31750809D01*
X63277189Y-31723426D01*
X63123301Y-31643673D01*
X62978283Y-31565350D01*
X62850663Y-31493308D01*
X62748969Y-31432400D01*
X62681729Y-31387476D01*
X62669215Y-31377556D01*
X62561600Y-31285441D01*
X62561600Y-32686400D01*
X62288550Y-32684783D01*
X62015500Y-32683167D01*
X60770900Y-31244147D01*
X60764160Y-31965273D01*
X60757420Y-32686400D01*
X60198803Y-32686400D01*
X60205451Y-31702150D01*
X60212100Y-30717900D01*
X60748040Y-30703584D01*
X62015500Y-32098016D01*
X62022251Y-31401608D01*
X62029003Y-30705199D01*
X62295301Y-30705199D01*
X62561600Y-30705200D01*
X62561600Y-31011978D01*
X62618750Y-30956901D01*
X62734713Y-30873197D01*
X62891926Y-30801457D01*
X63081908Y-30743262D01*
X63296180Y-30700194D01*
X63526263Y-30673834D01*
X63763679Y-30665764D01*
X63999947Y-30677566D01*
X63999947Y-30677566D01*
G37*
X63999947Y-30677566D02*
X64072900Y-30685667D01*
X64326900Y-30717900D01*
X64334875Y-30829237D01*
X64337876Y-30897503D01*
X64329592Y-30926768D01*
X64303788Y-30928583D01*
X64284075Y-30923308D01*
X64207903Y-30909326D01*
X64094670Y-30898751D01*
X63958020Y-30891844D01*
X63811595Y-30888868D01*
X63669038Y-30890085D01*
X63543991Y-30895755D01*
X63450096Y-30906142D01*
X63444319Y-30907188D01*
X63291484Y-30945529D01*
X63187997Y-30994070D01*
X63133269Y-31053685D01*
X63126711Y-31125246D01*
X63167734Y-31209625D01*
X63207273Y-31258412D01*
X63252336Y-31304312D01*
X63302883Y-31345412D01*
X63366986Y-31386277D01*
X63452716Y-31431471D01*
X63568146Y-31485559D01*
X63721347Y-31553105D01*
X63751331Y-31566083D01*
X63994301Y-31678088D01*
X64190671Y-31784374D01*
X64344035Y-31887029D01*
X64430544Y-31960532D01*
X64542800Y-32068092D01*
X64542800Y-30705200D01*
X66219200Y-30705200D01*
X66219200Y-30908400D01*
X65076200Y-30908400D01*
X65076200Y-31568800D01*
X66168400Y-31568800D01*
X66168400Y-31772000D01*
X65076200Y-31772000D01*
X65076200Y-32483200D01*
X66219200Y-32483200D01*
X66219200Y-32686400D01*
X64542800Y-32686400D01*
X64542800Y-32298549D01*
X64493367Y-32361392D01*
X64443603Y-32405537D01*
X64365447Y-32455369D01*
X64296017Y-32490616D01*
X64034780Y-32584633D01*
X63745717Y-32647537D01*
X63442570Y-32677416D01*
X63139080Y-32672359D01*
X63050581Y-32663809D01*
X62898316Y-32646128D01*
X62789692Y-32632219D01*
X62717978Y-32619295D01*
X62676440Y-32604569D01*
X62658346Y-32585254D01*
X62656963Y-32558561D01*
X62665559Y-32521705D01*
X62669626Y-32506092D01*
X62690391Y-32443882D01*
X62711553Y-32409433D01*
X62717078Y-32407000D01*
X62750469Y-32411122D01*
X62821526Y-32422179D01*
X62917904Y-32438207D01*
X62974338Y-32447925D01*
X63199456Y-32474031D01*
X63410356Y-32473103D01*
X63599332Y-32446277D01*
X63758681Y-32394689D01*
X63880697Y-32319476D01*
X63887821Y-32313193D01*
X63928815Y-32245678D01*
X63927426Y-32164647D01*
X63885145Y-32082193D01*
X63855373Y-32049881D01*
X63809897Y-32016991D01*
X63726769Y-31966160D01*
X63613924Y-31901866D01*
X63479294Y-31828589D01*
X63330814Y-31750809D01*
X63277189Y-31723426D01*
X63123301Y-31643673D01*
X62978283Y-31565350D01*
X62850663Y-31493308D01*
X62748969Y-31432400D01*
X62681729Y-31387476D01*
X62669215Y-31377556D01*
X62561600Y-31285441D01*
X62561600Y-32686400D01*
X62288550Y-32684783D01*
X62015500Y-32683167D01*
X60770900Y-31244147D01*
X60764160Y-31965273D01*
X60757420Y-32686400D01*
X60198803Y-32686400D01*
X60205451Y-31702150D01*
X60212100Y-30717900D01*
X60748040Y-30703584D01*
X62015500Y-32098016D01*
X62022251Y-31401608D01*
X62029003Y-30705199D01*
X62295301Y-30705199D01*
X62561600Y-30705200D01*
X62561600Y-31011978D01*
X62618750Y-30956901D01*
X62734713Y-30873197D01*
X62891926Y-30801457D01*
X63081908Y-30743262D01*
X63296180Y-30700194D01*
X63526263Y-30673834D01*
X63763679Y-30665764D01*
X63999947Y-30677566D01*
G36*
X67228850Y-30711059D02*
X67448370Y-30714325D01*
X67623793Y-30717744D01*
X67761818Y-30721792D01*
X67869146Y-30726945D01*
X67952478Y-30733680D01*
X68018515Y-30742474D01*
X68073956Y-30753801D01*
X68125504Y-30768138D01*
X68152204Y-30776681D01*
X68254573Y-30815293D01*
X68351729Y-30860007D01*
X68412554Y-30894798D01*
X68505200Y-30957669D01*
X68505200Y-30705200D01*
X72315200Y-30705200D01*
X72315200Y-30908400D01*
X71578600Y-30908400D01*
X71578600Y-32686400D01*
X70969000Y-32686400D01*
X70969000Y-30908400D01*
X69038600Y-30908400D01*
X69038600Y-31568800D01*
X70130800Y-31568800D01*
X70130800Y-31772000D01*
X69038600Y-31772000D01*
X69038600Y-32483200D01*
X70181600Y-32483200D01*
X70181600Y-32686400D01*
X68505200Y-32686400D01*
X68505200Y-31542965D01*
X68368473Y-31620129D01*
X68240174Y-31680599D01*
X68093439Y-31725575D01*
X67920369Y-31756478D01*
X67713068Y-31774727D01*
X67470153Y-31781696D01*
X67082807Y-31784700D01*
X67082803Y-32235550D01*
X67082800Y-32686400D01*
X66473200Y-32686400D01*
X66473200Y-30883000D01*
X67082800Y-30883000D01*
X67082800Y-31600858D01*
X67345173Y-31589189D01*
X67488648Y-31579721D01*
X67594939Y-31564541D01*
X67677551Y-31541263D01*
X67720377Y-31522900D01*
X67827646Y-31449392D01*
X67896524Y-31354933D01*
X67920905Y-31247910D01*
X67920905Y-31247380D01*
X67899594Y-31152261D01*
X67844704Y-31058403D01*
X67769447Y-30986843D01*
X67750160Y-30975499D01*
X67658867Y-30941523D01*
X67534016Y-30912774D01*
X67392801Y-30892313D01*
X67252418Y-30883200D01*
X67230535Y-30883000D01*
X67082800Y-30883000D01*
X66473200Y-30883000D01*
X66473200Y-30700683D01*
X67228850Y-30711059D01*
X67228850Y-30711059D01*
G37*
X67228850Y-30711059D02*
X67448370Y-30714325D01*
X67623793Y-30717744D01*
X67761818Y-30721792D01*
X67869146Y-30726945D01*
X67952478Y-30733680D01*
X68018515Y-30742474D01*
X68073956Y-30753801D01*
X68125504Y-30768138D01*
X68152204Y-30776681D01*
X68254573Y-30815293D01*
X68351729Y-30860007D01*
X68412554Y-30894798D01*
X68505200Y-30957669D01*
X68505200Y-30705200D01*
X72315200Y-30705200D01*
X72315200Y-30908400D01*
X71578600Y-30908400D01*
X71578600Y-32686400D01*
X70969000Y-32686400D01*
X70969000Y-30908400D01*
X69038600Y-30908400D01*
X69038600Y-31568800D01*
X70130800Y-31568800D01*
X70130800Y-31772000D01*
X69038600Y-31772000D01*
X69038600Y-32483200D01*
X70181600Y-32483200D01*
X70181600Y-32686400D01*
X68505200Y-32686400D01*
X68505200Y-31542965D01*
X68368473Y-31620129D01*
X68240174Y-31680599D01*
X68093439Y-31725575D01*
X67920369Y-31756478D01*
X67713068Y-31774727D01*
X67470153Y-31781696D01*
X67082807Y-31784700D01*
X67082803Y-32235550D01*
X67082800Y-32686400D01*
X66473200Y-32686400D01*
X66473200Y-30883000D01*
X67082800Y-30883000D01*
X67082800Y-31600858D01*
X67345173Y-31589189D01*
X67488648Y-31579721D01*
X67594939Y-31564541D01*
X67677551Y-31541263D01*
X67720377Y-31522900D01*
X67827646Y-31449392D01*
X67896524Y-31354933D01*
X67920905Y-31247910D01*
X67920905Y-31247380D01*
X67899594Y-31152261D01*
X67844704Y-31058403D01*
X67769447Y-30986843D01*
X67750160Y-30975499D01*
X67658867Y-30941523D01*
X67534016Y-30912774D01*
X67392801Y-30892313D01*
X67252418Y-30883200D01*
X67230535Y-30883000D01*
X67082800Y-30883000D01*
X66473200Y-30883000D01*
X66473200Y-30700683D01*
X67228850Y-30711059D01*
G36*
X56705786Y-29425626D02*
X56754273Y-29445279D01*
X56827690Y-29487985D01*
X56863648Y-29510369D01*
X57029577Y-29614406D01*
X57202919Y-29514467D01*
X57285904Y-29469321D01*
X57351298Y-29438779D01*
X57387623Y-29428057D01*
X57390830Y-29429097D01*
X57401507Y-29462732D01*
X57405400Y-29515117D01*
X57396271Y-29565645D01*
X57360919Y-29604768D01*
X57299997Y-29640340D01*
X57194594Y-29694112D01*
X57431209Y-29819093D01*
X57667825Y-29944074D01*
X57813867Y-29829337D01*
X57888843Y-29773216D01*
X57950219Y-29732332D01*
X57985772Y-29714763D01*
X57987454Y-29714599D01*
X58007053Y-29736599D01*
X58015000Y-29788168D01*
X57998027Y-29855815D01*
X57942178Y-29925019D01*
X57923432Y-29942134D01*
X57871994Y-29990315D01*
X57843241Y-30023245D01*
X57840882Y-30030772D01*
X57865688Y-30044537D01*
X57927374Y-30076505D01*
X58017328Y-30122272D01*
X58126941Y-30177434D01*
X58157253Y-30192599D01*
X58464607Y-30346185D01*
X58600265Y-30208821D01*
X58665625Y-30144446D01*
X58715868Y-30098356D01*
X58741854Y-30078850D01*
X58743350Y-30078883D01*
X58737601Y-30103949D01*
X58717395Y-30170087D01*
X58684982Y-30270394D01*
X58642609Y-30397968D01*
X58592527Y-30545906D01*
X58565460Y-30624881D01*
X58504086Y-30801977D01*
X58455388Y-30938120D01*
X58416057Y-31040574D01*
X58382781Y-31116607D01*
X58352251Y-31173482D01*
X58321155Y-31218467D01*
X58286183Y-31258825D01*
X58267992Y-31277726D01*
X58204873Y-31335372D01*
X58151924Y-31371947D01*
X58123520Y-31379597D01*
X58097606Y-31389404D01*
X58091200Y-31425832D01*
X58071962Y-31476926D01*
X58015844Y-31556917D01*
X57925240Y-31662480D01*
X57904800Y-31684643D01*
X57718401Y-31884816D01*
X57650800Y-31840522D01*
X57583200Y-31796228D01*
X57583200Y-31920747D01*
X57582265Y-31968175D01*
X57576086Y-32007815D01*
X57559601Y-32047201D01*
X57527750Y-32093872D01*
X57475469Y-32155363D01*
X57397698Y-32239212D01*
X57301331Y-32340433D01*
X57205111Y-32440096D01*
X57120915Y-32525236D01*
X57054999Y-32589690D01*
X57013620Y-32627294D01*
X57002881Y-32634421D01*
X56980694Y-32616508D01*
X56929948Y-32567723D01*
X56856829Y-32494254D01*
X56767525Y-32402284D01*
X56700550Y-32332165D01*
X56594533Y-32219953D01*
X56518624Y-32137070D01*
X56467798Y-32076151D01*
X56437029Y-32029833D01*
X56421291Y-31990752D01*
X56415559Y-31951545D01*
X56414800Y-31913483D01*
X56414800Y-31795879D01*
X56340186Y-31851043D01*
X56265572Y-31906208D01*
X56074520Y-31705754D01*
X55980563Y-31603109D01*
X55920472Y-31526725D01*
X55889477Y-31469877D01*
X55882434Y-31434966D01*
X55875404Y-31385519D01*
X55848000Y-31373875D01*
X55824250Y-31377986D01*
X55786712Y-31377100D01*
X55743490Y-31352390D01*
X55685341Y-31297267D01*
X55637909Y-31245120D01*
X55595106Y-31195133D01*
X55574844Y-31168150D01*
X56238628Y-31168150D01*
X56598699Y-31546275D01*
X56707825Y-31659998D01*
X56805402Y-31760029D01*
X56885960Y-31840893D01*
X56944025Y-31897115D01*
X56974125Y-31923220D01*
X56976663Y-31924400D01*
X56998575Y-31906745D01*
X57049972Y-31857310D01*
X57125610Y-31781390D01*
X57220245Y-31684279D01*
X57328634Y-31571272D01*
X57380062Y-31517105D01*
X57765567Y-31109810D01*
X57401333Y-30856470D01*
X57281301Y-30774648D01*
X57174640Y-30705080D01*
X57088641Y-30652271D01*
X57030594Y-30620726D01*
X57008814Y-30613938D01*
X56980055Y-30631824D01*
X56917520Y-30674872D01*
X56828299Y-30738065D01*
X56719480Y-30816387D01*
X56609578Y-30896448D01*
X56238628Y-31168150D01*
X55574844Y-31168150D01*
X55559537Y-31147767D01*
X55527789Y-31095432D01*
X55496447Y-31030538D01*
X55462099Y-30945494D01*
X55421330Y-30832711D01*
X55370727Y-30684598D01*
X55326858Y-30553533D01*
X55309065Y-30500173D01*
X55671611Y-30500173D01*
X55680824Y-30524010D01*
X55719585Y-30577008D01*
X55782050Y-30651886D01*
X55862372Y-30741364D01*
X55883447Y-30763978D01*
X56114572Y-31010240D01*
X56296436Y-30881067D01*
X56410951Y-30799887D01*
X56540091Y-30708576D01*
X56656902Y-30626190D01*
X56662450Y-30622285D01*
X56744325Y-30563102D01*
X56807345Y-30514583D01*
X56842093Y-30484115D01*
X56845998Y-30478287D01*
X56836020Y-30468767D01*
X57196036Y-30468767D01*
X57548368Y-30712406D01*
X57900700Y-30956044D01*
X58134399Y-30709972D01*
X58220092Y-30617541D01*
X58290630Y-30537241D01*
X58339712Y-30476569D01*
X58361040Y-30443018D01*
X58361359Y-30439931D01*
X58337536Y-30420139D01*
X58276740Y-30382225D01*
X58187296Y-30331059D01*
X58077529Y-30271511D01*
X58036810Y-30250091D01*
X57718999Y-30084219D01*
X57517749Y-30230074D01*
X57423533Y-30298638D01*
X57338625Y-30360928D01*
X57275737Y-30407597D01*
X57256268Y-30422348D01*
X57196036Y-30468767D01*
X56836020Y-30468767D01*
X56825857Y-30459071D01*
X56772899Y-30419861D01*
X56697459Y-30367475D01*
X56609866Y-30308733D01*
X56520453Y-30250454D01*
X56439551Y-30199457D01*
X56377492Y-30162562D01*
X56344608Y-30146587D01*
X56343161Y-30146400D01*
X56314813Y-30157724D01*
X56251795Y-30188221D01*
X56164002Y-30232678D01*
X56061329Y-30285884D01*
X55953670Y-30342625D01*
X55850920Y-30397689D01*
X55762973Y-30445864D01*
X55699725Y-30481937D01*
X55671611Y-30500173D01*
X55309065Y-30500173D01*
X55144996Y-30008166D01*
X55513100Y-30372818D01*
X55854662Y-30208029D01*
X55975146Y-30149485D01*
X56078726Y-30098366D01*
X56157060Y-30058851D01*
X56201805Y-30035119D01*
X56208848Y-30030618D01*
X56199467Y-30010610D01*
X56524849Y-30010610D01*
X56554630Y-30033127D01*
X56614404Y-30074998D01*
X56693928Y-30129363D01*
X56782959Y-30189361D01*
X56871254Y-30248134D01*
X56948571Y-30298821D01*
X57004666Y-30334562D01*
X57029297Y-30348497D01*
X57029377Y-30348505D01*
X57055974Y-30335110D01*
X57114819Y-30297913D01*
X57196926Y-30242781D01*
X57283377Y-30182615D01*
X57377897Y-30114726D01*
X57455646Y-30056800D01*
X57508010Y-30015393D01*
X57526309Y-29997687D01*
X57508010Y-29979352D01*
X57453352Y-29943644D01*
X57371318Y-29896098D01*
X57292510Y-29853521D01*
X57052101Y-29727300D01*
X56786350Y-29866982D01*
X56683439Y-29921562D01*
X56599821Y-29966841D01*
X56544094Y-29998100D01*
X56524849Y-30010610D01*
X56199467Y-30010610D01*
X56198633Y-30008833D01*
X56158517Y-29967458D01*
X56127635Y-29940648D01*
X56068669Y-29885593D01*
X56041233Y-29834506D01*
X56033878Y-29764266D01*
X56033800Y-29751147D01*
X56033800Y-29638992D01*
X56213005Y-29777454D01*
X56392211Y-29915916D01*
X56524155Y-29856850D01*
X56663859Y-29792822D01*
X56775783Y-29738500D01*
X56854296Y-29696778D01*
X56893769Y-29670548D01*
X56897366Y-29665088D01*
X56876677Y-29647171D01*
X56822098Y-29612782D01*
X56744803Y-29568896D01*
X56733026Y-29562511D01*
X56649452Y-29516782D01*
X56604813Y-29488061D01*
X56593326Y-29469256D01*
X56609209Y-29453276D01*
X56633221Y-29440127D01*
X56669633Y-29425189D01*
X56705786Y-29425626D01*
X56705786Y-29425626D01*
G37*
X56705786Y-29425626D02*
X56754273Y-29445279D01*
X56827690Y-29487985D01*
X56863648Y-29510369D01*
X57029577Y-29614406D01*
X57202919Y-29514467D01*
X57285904Y-29469321D01*
X57351298Y-29438779D01*
X57387623Y-29428057D01*
X57390830Y-29429097D01*
X57401507Y-29462732D01*
X57405400Y-29515117D01*
X57396271Y-29565645D01*
X57360919Y-29604768D01*
X57299997Y-29640340D01*
X57194594Y-29694112D01*
X57431209Y-29819093D01*
X57667825Y-29944074D01*
X57813867Y-29829337D01*
X57888843Y-29773216D01*
X57950219Y-29732332D01*
X57985772Y-29714763D01*
X57987454Y-29714599D01*
X58007053Y-29736599D01*
X58015000Y-29788168D01*
X57998027Y-29855815D01*
X57942178Y-29925019D01*
X57923432Y-29942134D01*
X57871994Y-29990315D01*
X57843241Y-30023245D01*
X57840882Y-30030772D01*
X57865688Y-30044537D01*
X57927374Y-30076505D01*
X58017328Y-30122272D01*
X58126941Y-30177434D01*
X58157253Y-30192599D01*
X58464607Y-30346185D01*
X58600265Y-30208821D01*
X58665625Y-30144446D01*
X58715868Y-30098356D01*
X58741854Y-30078850D01*
X58743350Y-30078883D01*
X58737601Y-30103949D01*
X58717395Y-30170087D01*
X58684982Y-30270394D01*
X58642609Y-30397968D01*
X58592527Y-30545906D01*
X58565460Y-30624881D01*
X58504086Y-30801977D01*
X58455388Y-30938120D01*
X58416057Y-31040574D01*
X58382781Y-31116607D01*
X58352251Y-31173482D01*
X58321155Y-31218467D01*
X58286183Y-31258825D01*
X58267992Y-31277726D01*
X58204873Y-31335372D01*
X58151924Y-31371947D01*
X58123520Y-31379597D01*
X58097606Y-31389404D01*
X58091200Y-31425832D01*
X58071962Y-31476926D01*
X58015844Y-31556917D01*
X57925240Y-31662480D01*
X57904800Y-31684643D01*
X57718401Y-31884816D01*
X57650800Y-31840522D01*
X57583200Y-31796228D01*
X57583200Y-31920747D01*
X57582265Y-31968175D01*
X57576086Y-32007815D01*
X57559601Y-32047201D01*
X57527750Y-32093872D01*
X57475469Y-32155363D01*
X57397698Y-32239212D01*
X57301331Y-32340433D01*
X57205111Y-32440096D01*
X57120915Y-32525236D01*
X57054999Y-32589690D01*
X57013620Y-32627294D01*
X57002881Y-32634421D01*
X56980694Y-32616508D01*
X56929948Y-32567723D01*
X56856829Y-32494254D01*
X56767525Y-32402284D01*
X56700550Y-32332165D01*
X56594533Y-32219953D01*
X56518624Y-32137070D01*
X56467798Y-32076151D01*
X56437029Y-32029833D01*
X56421291Y-31990752D01*
X56415559Y-31951545D01*
X56414800Y-31913483D01*
X56414800Y-31795879D01*
X56340186Y-31851043D01*
X56265572Y-31906208D01*
X56074520Y-31705754D01*
X55980563Y-31603109D01*
X55920472Y-31526725D01*
X55889477Y-31469877D01*
X55882434Y-31434966D01*
X55875404Y-31385519D01*
X55848000Y-31373875D01*
X55824250Y-31377986D01*
X55786712Y-31377100D01*
X55743490Y-31352390D01*
X55685341Y-31297267D01*
X55637909Y-31245120D01*
X55595106Y-31195133D01*
X55574844Y-31168150D01*
X56238628Y-31168150D01*
X56598699Y-31546275D01*
X56707825Y-31659998D01*
X56805402Y-31760029D01*
X56885960Y-31840893D01*
X56944025Y-31897115D01*
X56974125Y-31923220D01*
X56976663Y-31924400D01*
X56998575Y-31906745D01*
X57049972Y-31857310D01*
X57125610Y-31781390D01*
X57220245Y-31684279D01*
X57328634Y-31571272D01*
X57380062Y-31517105D01*
X57765567Y-31109810D01*
X57401333Y-30856470D01*
X57281301Y-30774648D01*
X57174640Y-30705080D01*
X57088641Y-30652271D01*
X57030594Y-30620726D01*
X57008814Y-30613938D01*
X56980055Y-30631824D01*
X56917520Y-30674872D01*
X56828299Y-30738065D01*
X56719480Y-30816387D01*
X56609578Y-30896448D01*
X56238628Y-31168150D01*
X55574844Y-31168150D01*
X55559537Y-31147767D01*
X55527789Y-31095432D01*
X55496447Y-31030538D01*
X55462099Y-30945494D01*
X55421330Y-30832711D01*
X55370727Y-30684598D01*
X55326858Y-30553533D01*
X55309065Y-30500173D01*
X55671611Y-30500173D01*
X55680824Y-30524010D01*
X55719585Y-30577008D01*
X55782050Y-30651886D01*
X55862372Y-30741364D01*
X55883447Y-30763978D01*
X56114572Y-31010240D01*
X56296436Y-30881067D01*
X56410951Y-30799887D01*
X56540091Y-30708576D01*
X56656902Y-30626190D01*
X56662450Y-30622285D01*
X56744325Y-30563102D01*
X56807345Y-30514583D01*
X56842093Y-30484115D01*
X56845998Y-30478287D01*
X56836020Y-30468767D01*
X57196036Y-30468767D01*
X57548368Y-30712406D01*
X57900700Y-30956044D01*
X58134399Y-30709972D01*
X58220092Y-30617541D01*
X58290630Y-30537241D01*
X58339712Y-30476569D01*
X58361040Y-30443018D01*
X58361359Y-30439931D01*
X58337536Y-30420139D01*
X58276740Y-30382225D01*
X58187296Y-30331059D01*
X58077529Y-30271511D01*
X58036810Y-30250091D01*
X57718999Y-30084219D01*
X57517749Y-30230074D01*
X57423533Y-30298638D01*
X57338625Y-30360928D01*
X57275737Y-30407597D01*
X57256268Y-30422348D01*
X57196036Y-30468767D01*
X56836020Y-30468767D01*
X56825857Y-30459071D01*
X56772899Y-30419861D01*
X56697459Y-30367475D01*
X56609866Y-30308733D01*
X56520453Y-30250454D01*
X56439551Y-30199457D01*
X56377492Y-30162562D01*
X56344608Y-30146587D01*
X56343161Y-30146400D01*
X56314813Y-30157724D01*
X56251795Y-30188221D01*
X56164002Y-30232678D01*
X56061329Y-30285884D01*
X55953670Y-30342625D01*
X55850920Y-30397689D01*
X55762973Y-30445864D01*
X55699725Y-30481937D01*
X55671611Y-30500173D01*
X55309065Y-30500173D01*
X55144996Y-30008166D01*
X55513100Y-30372818D01*
X55854662Y-30208029D01*
X55975146Y-30149485D01*
X56078726Y-30098366D01*
X56157060Y-30058851D01*
X56201805Y-30035119D01*
X56208848Y-30030618D01*
X56199467Y-30010610D01*
X56524849Y-30010610D01*
X56554630Y-30033127D01*
X56614404Y-30074998D01*
X56693928Y-30129363D01*
X56782959Y-30189361D01*
X56871254Y-30248134D01*
X56948571Y-30298821D01*
X57004666Y-30334562D01*
X57029297Y-30348497D01*
X57029377Y-30348505D01*
X57055974Y-30335110D01*
X57114819Y-30297913D01*
X57196926Y-30242781D01*
X57283377Y-30182615D01*
X57377897Y-30114726D01*
X57455646Y-30056800D01*
X57508010Y-30015393D01*
X57526309Y-29997687D01*
X57508010Y-29979352D01*
X57453352Y-29943644D01*
X57371318Y-29896098D01*
X57292510Y-29853521D01*
X57052101Y-29727300D01*
X56786350Y-29866982D01*
X56683439Y-29921562D01*
X56599821Y-29966841D01*
X56544094Y-29998100D01*
X56524849Y-30010610D01*
X56199467Y-30010610D01*
X56198633Y-30008833D01*
X56158517Y-29967458D01*
X56127635Y-29940648D01*
X56068669Y-29885593D01*
X56041233Y-29834506D01*
X56033878Y-29764266D01*
X56033800Y-29751147D01*
X56033800Y-29638992D01*
X56213005Y-29777454D01*
X56392211Y-29915916D01*
X56524155Y-29856850D01*
X56663859Y-29792822D01*
X56775783Y-29738500D01*
X56854296Y-29696778D01*
X56893769Y-29670548D01*
X56897366Y-29665088D01*
X56876677Y-29647171D01*
X56822098Y-29612782D01*
X56744803Y-29568896D01*
X56733026Y-29562511D01*
X56649452Y-29516782D01*
X56604813Y-29488061D01*
X56593326Y-29469256D01*
X56609209Y-29453276D01*
X56633221Y-29440127D01*
X56669633Y-29425189D01*
X56705786Y-29425626D01*
G36*
X69161520Y-30100325D02*
X69219851Y-30151565D01*
X69241237Y-30233567D01*
X69241411Y-30244760D01*
X69234655Y-30329620D01*
X69208738Y-30380467D01*
X69153859Y-30405517D01*
X69060216Y-30412987D01*
X69040600Y-30413100D01*
X68955741Y-30414693D01*
X68909137Y-30422691D01*
X68888270Y-30441918D01*
X68880924Y-30474641D01*
X68863565Y-30525969D01*
X68841750Y-30546607D01*
X68825797Y-30538342D01*
X68815833Y-30496653D01*
X68810926Y-30415170D01*
X68810000Y-30329769D01*
X68810000Y-30252216D01*
X68891143Y-30252216D01*
X68891831Y-30318575D01*
X68912031Y-30350343D01*
X68929243Y-30357220D01*
X69035896Y-30371280D01*
X69123001Y-30356697D01*
X69150224Y-30341997D01*
X69185303Y-30286065D01*
X69186829Y-30234047D01*
X69179117Y-30191156D01*
X69159739Y-30168847D01*
X69115409Y-30160401D01*
X69038600Y-30159100D01*
X68898900Y-30159100D01*
X68891143Y-30252216D01*
X68810000Y-30252216D01*
X68810000Y-30102504D01*
X68926799Y-30086495D01*
X69064438Y-30078938D01*
X69161520Y-30100325D01*
X69161520Y-30100325D01*
G37*
X69161520Y-30100325D02*
X69219851Y-30151565D01*
X69241237Y-30233567D01*
X69241411Y-30244760D01*
X69234655Y-30329620D01*
X69208738Y-30380467D01*
X69153859Y-30405517D01*
X69060216Y-30412987D01*
X69040600Y-30413100D01*
X68955741Y-30414693D01*
X68909137Y-30422691D01*
X68888270Y-30441918D01*
X68880924Y-30474641D01*
X68863565Y-30525969D01*
X68841750Y-30546607D01*
X68825797Y-30538342D01*
X68815833Y-30496653D01*
X68810926Y-30415170D01*
X68810000Y-30329769D01*
X68810000Y-30252216D01*
X68891143Y-30252216D01*
X68891831Y-30318575D01*
X68912031Y-30350343D01*
X68929243Y-30357220D01*
X69035896Y-30371280D01*
X69123001Y-30356697D01*
X69150224Y-30341997D01*
X69185303Y-30286065D01*
X69186829Y-30234047D01*
X69179117Y-30191156D01*
X69159739Y-30168847D01*
X69115409Y-30160401D01*
X69038600Y-30159100D01*
X68898900Y-30159100D01*
X68891143Y-30252216D01*
X68810000Y-30252216D01*
X68810000Y-30102504D01*
X68926799Y-30086495D01*
X69064438Y-30078938D01*
X69161520Y-30100325D01*
G36*
X63863415Y-30324206D02*
X64342068Y-30324245D01*
X64774595Y-30324345D01*
X65163333Y-30324538D01*
X65510618Y-30324852D01*
X65818789Y-30325317D01*
X66090181Y-30325963D01*
X66327131Y-30326820D01*
X66531978Y-30327917D01*
X66707057Y-30329283D01*
X66854706Y-30330949D01*
X66977261Y-30332944D01*
X67077059Y-30335298D01*
X67156439Y-30338041D01*
X67217735Y-30341202D01*
X67263286Y-30344811D01*
X67295428Y-30348897D01*
X67316499Y-30353490D01*
X67328835Y-30358621D01*
X67334773Y-30364318D01*
X67336650Y-30370611D01*
X67336800Y-30375000D01*
X67336302Y-30381693D01*
X67333250Y-30387771D01*
X67325307Y-30393264D01*
X67310137Y-30398200D01*
X67285402Y-30402610D01*
X67248765Y-30406523D01*
X67197890Y-30409969D01*
X67130439Y-30412978D01*
X67044076Y-30415580D01*
X66936463Y-30417803D01*
X66805264Y-30419678D01*
X66648141Y-30421234D01*
X66462758Y-30422501D01*
X66246778Y-30423509D01*
X65997863Y-30424288D01*
X65713678Y-30424866D01*
X65391884Y-30425274D01*
X65030144Y-30425542D01*
X64626123Y-30425698D01*
X64177483Y-30425774D01*
X63681886Y-30425798D01*
X63336300Y-30425800D01*
X62809184Y-30425793D01*
X62330531Y-30425754D01*
X61898004Y-30425654D01*
X61509266Y-30425461D01*
X61161981Y-30425147D01*
X60853810Y-30424682D01*
X60582418Y-30424036D01*
X60345468Y-30423179D01*
X60140621Y-30422082D01*
X59965542Y-30420716D01*
X59817893Y-30419050D01*
X59695338Y-30417055D01*
X59595540Y-30414701D01*
X59516160Y-30411958D01*
X59454864Y-30408797D01*
X59409313Y-30405188D01*
X59377171Y-30401102D01*
X59356100Y-30396509D01*
X59343764Y-30391378D01*
X59337826Y-30385681D01*
X59335949Y-30379388D01*
X59335800Y-30375000D01*
X59336297Y-30368306D01*
X59339349Y-30362228D01*
X59347292Y-30356735D01*
X59362462Y-30351799D01*
X59387197Y-30347389D01*
X59423834Y-30343476D01*
X59474709Y-30340030D01*
X59542160Y-30337021D01*
X59628523Y-30334419D01*
X59736136Y-30332196D01*
X59867335Y-30330321D01*
X60024458Y-30328765D01*
X60209841Y-30327498D01*
X60425821Y-30326490D01*
X60674736Y-30325711D01*
X60958921Y-30325133D01*
X61280715Y-30324725D01*
X61642455Y-30324457D01*
X62046476Y-30324301D01*
X62495116Y-30324225D01*
X62990713Y-30324201D01*
X63336300Y-30324200D01*
X63863415Y-30324206D01*
X63863415Y-30324206D01*
G37*
X63863415Y-30324206D02*
X64342068Y-30324245D01*
X64774595Y-30324345D01*
X65163333Y-30324538D01*
X65510618Y-30324852D01*
X65818789Y-30325317D01*
X66090181Y-30325963D01*
X66327131Y-30326820D01*
X66531978Y-30327917D01*
X66707057Y-30329283D01*
X66854706Y-30330949D01*
X66977261Y-30332944D01*
X67077059Y-30335298D01*
X67156439Y-30338041D01*
X67217735Y-30341202D01*
X67263286Y-30344811D01*
X67295428Y-30348897D01*
X67316499Y-30353490D01*
X67328835Y-30358621D01*
X67334773Y-30364318D01*
X67336650Y-30370611D01*
X67336800Y-30375000D01*
X67336302Y-30381693D01*
X67333250Y-30387771D01*
X67325307Y-30393264D01*
X67310137Y-30398200D01*
X67285402Y-30402610D01*
X67248765Y-30406523D01*
X67197890Y-30409969D01*
X67130439Y-30412978D01*
X67044076Y-30415580D01*
X66936463Y-30417803D01*
X66805264Y-30419678D01*
X66648141Y-30421234D01*
X66462758Y-30422501D01*
X66246778Y-30423509D01*
X65997863Y-30424288D01*
X65713678Y-30424866D01*
X65391884Y-30425274D01*
X65030144Y-30425542D01*
X64626123Y-30425698D01*
X64177483Y-30425774D01*
X63681886Y-30425798D01*
X63336300Y-30425800D01*
X62809184Y-30425793D01*
X62330531Y-30425754D01*
X61898004Y-30425654D01*
X61509266Y-30425461D01*
X61161981Y-30425147D01*
X60853810Y-30424682D01*
X60582418Y-30424036D01*
X60345468Y-30423179D01*
X60140621Y-30422082D01*
X59965542Y-30420716D01*
X59817893Y-30419050D01*
X59695338Y-30417055D01*
X59595540Y-30414701D01*
X59516160Y-30411958D01*
X59454864Y-30408797D01*
X59409313Y-30405188D01*
X59377171Y-30401102D01*
X59356100Y-30396509D01*
X59343764Y-30391378D01*
X59337826Y-30385681D01*
X59335949Y-30379388D01*
X59335800Y-30375000D01*
X59336297Y-30368306D01*
X59339349Y-30362228D01*
X59347292Y-30356735D01*
X59362462Y-30351799D01*
X59387197Y-30347389D01*
X59423834Y-30343476D01*
X59474709Y-30340030D01*
X59542160Y-30337021D01*
X59628523Y-30334419D01*
X59736136Y-30332196D01*
X59867335Y-30330321D01*
X60024458Y-30328765D01*
X60209841Y-30327498D01*
X60425821Y-30326490D01*
X60674736Y-30325711D01*
X60958921Y-30325133D01*
X61280715Y-30324725D01*
X61642455Y-30324457D01*
X62046476Y-30324301D01*
X62495116Y-30324225D01*
X62990713Y-30324201D01*
X63336300Y-30324200D01*
X63863415Y-30324206D01*
G36*
X67758254Y-30082158D02*
X67839314Y-30104902D01*
X67892290Y-30141903D01*
X67897489Y-30149931D01*
X67918233Y-30206821D01*
X67904683Y-30244084D01*
X67852043Y-30265047D01*
X67755514Y-30273035D01*
X67719394Y-30273400D01*
X67625452Y-30275180D01*
X67573360Y-30281876D01*
X67554251Y-30295517D01*
X67555949Y-30310809D01*
X67593789Y-30346460D01*
X67661903Y-30365836D01*
X67741765Y-30366764D01*
X67814848Y-30347074D01*
X67824068Y-30342216D01*
X67881277Y-30319046D01*
X67909611Y-30327293D01*
X67902029Y-30364274D01*
X67898360Y-30370534D01*
X67860802Y-30392641D01*
X67790851Y-30408311D01*
X67706693Y-30415825D01*
X67626513Y-30413461D01*
X67572509Y-30401350D01*
X67517701Y-30353862D01*
X67492739Y-30282432D01*
X67496940Y-30203717D01*
X67505997Y-30184500D01*
X67556214Y-30184500D01*
X67556613Y-30206018D01*
X67584972Y-30217731D01*
X67650621Y-30222234D01*
X67693197Y-30222600D01*
X67781426Y-30219646D01*
X67828683Y-30209183D01*
X67844537Y-30188804D01*
X67844800Y-30184500D01*
X67832053Y-30161325D01*
X67787439Y-30149514D01*
X67707817Y-30146400D01*
X67617299Y-30151564D01*
X67568574Y-30168410D01*
X67556214Y-30184500D01*
X67505997Y-30184500D01*
X67529621Y-30134378D01*
X67585159Y-30092838D01*
X67667429Y-30077021D01*
X67758254Y-30082158D01*
X67758254Y-30082158D01*
G37*
X67758254Y-30082158D02*
X67839314Y-30104902D01*
X67892290Y-30141903D01*
X67897489Y-30149931D01*
X67918233Y-30206821D01*
X67904683Y-30244084D01*
X67852043Y-30265047D01*
X67755514Y-30273035D01*
X67719394Y-30273400D01*
X67625452Y-30275180D01*
X67573360Y-30281876D01*
X67554251Y-30295517D01*
X67555949Y-30310809D01*
X67593789Y-30346460D01*
X67661903Y-30365836D01*
X67741765Y-30366764D01*
X67814848Y-30347074D01*
X67824068Y-30342216D01*
X67881277Y-30319046D01*
X67909611Y-30327293D01*
X67902029Y-30364274D01*
X67898360Y-30370534D01*
X67860802Y-30392641D01*
X67790851Y-30408311D01*
X67706693Y-30415825D01*
X67626513Y-30413461D01*
X67572509Y-30401350D01*
X67517701Y-30353862D01*
X67492739Y-30282432D01*
X67496940Y-30203717D01*
X67505997Y-30184500D01*
X67556214Y-30184500D01*
X67556613Y-30206018D01*
X67584972Y-30217731D01*
X67650621Y-30222234D01*
X67693197Y-30222600D01*
X67781426Y-30219646D01*
X67828683Y-30209183D01*
X67844537Y-30188804D01*
X67844800Y-30184500D01*
X67832053Y-30161325D01*
X67787439Y-30149514D01*
X67707817Y-30146400D01*
X67617299Y-30151564D01*
X67568574Y-30168410D01*
X67556214Y-30184500D01*
X67505997Y-30184500D01*
X67529621Y-30134378D01*
X67585159Y-30092838D01*
X67667429Y-30077021D01*
X67758254Y-30082158D01*
G36*
X68628369Y-30091460D02*
X68677718Y-30112450D01*
X68701428Y-30162390D01*
X68708279Y-30251091D01*
X68708400Y-30272602D01*
X68703430Y-30366012D01*
X68691235Y-30415005D01*
X68675883Y-30418134D01*
X68661440Y-30373953D01*
X68652577Y-30292450D01*
X68644900Y-30159100D01*
X68525623Y-30151414D01*
X68406347Y-30143728D01*
X68398623Y-30272397D01*
X68387497Y-30360707D01*
X68370616Y-30400772D01*
X68352504Y-30392182D01*
X68337683Y-30334524D01*
X68332376Y-30278414D01*
X68324652Y-30143728D01*
X68086100Y-30159100D01*
X68078146Y-30273400D01*
X68065822Y-30364095D01*
X68045408Y-30411774D01*
X68018566Y-30412885D01*
X68014556Y-30409289D01*
X68005174Y-30376279D01*
X67998871Y-30308861D01*
X67997200Y-30244051D01*
X67998909Y-30160847D01*
X68007131Y-30116299D01*
X68026502Y-30098298D01*
X68054350Y-30094843D01*
X68192075Y-30092210D01*
X68304253Y-30091524D01*
X68365500Y-30091904D01*
X68454584Y-30091723D01*
X68537139Y-30089910D01*
X68544601Y-30089612D01*
X68628369Y-30091460D01*
X68628369Y-30091460D01*
G37*
X68628369Y-30091460D02*
X68677718Y-30112450D01*
X68701428Y-30162390D01*
X68708279Y-30251091D01*
X68708400Y-30272602D01*
X68703430Y-30366012D01*
X68691235Y-30415005D01*
X68675883Y-30418134D01*
X68661440Y-30373953D01*
X68652577Y-30292450D01*
X68644900Y-30159100D01*
X68525623Y-30151414D01*
X68406347Y-30143728D01*
X68398623Y-30272397D01*
X68387497Y-30360707D01*
X68370616Y-30400772D01*
X68352504Y-30392182D01*
X68337683Y-30334524D01*
X68332376Y-30278414D01*
X68324652Y-30143728D01*
X68086100Y-30159100D01*
X68078146Y-30273400D01*
X68065822Y-30364095D01*
X68045408Y-30411774D01*
X68018566Y-30412885D01*
X68014556Y-30409289D01*
X68005174Y-30376279D01*
X67998871Y-30308861D01*
X67997200Y-30244051D01*
X67998909Y-30160847D01*
X68007131Y-30116299D01*
X68026502Y-30098298D01*
X68054350Y-30094843D01*
X68192075Y-30092210D01*
X68304253Y-30091524D01*
X68365500Y-30091904D01*
X68454584Y-30091723D01*
X68537139Y-30089910D01*
X68544601Y-30089612D01*
X68628369Y-30091460D01*
G36*
X69591653Y-30086527D02*
X69655815Y-30114180D01*
X69687957Y-30151621D01*
X69690276Y-30203955D01*
X69678646Y-30227713D01*
X69652648Y-30230973D01*
X69635881Y-30198401D01*
X69616608Y-30163525D01*
X69578308Y-30150099D01*
X69512708Y-30151394D01*
X69406900Y-30159100D01*
X69399222Y-30292450D01*
X69389465Y-30380178D01*
X69375490Y-30419834D01*
X69360819Y-30413555D01*
X69348971Y-30363475D01*
X69343467Y-30271729D01*
X69343400Y-30258583D01*
X69346219Y-30164344D01*
X69355542Y-30114281D01*
X69372664Y-30102037D01*
X69375150Y-30102751D01*
X69422725Y-30101650D01*
X69451705Y-30091083D01*
X69516800Y-30077081D01*
X69591653Y-30086527D01*
X69591653Y-30086527D01*
G37*
X69591653Y-30086527D02*
X69655815Y-30114180D01*
X69687957Y-30151621D01*
X69690276Y-30203955D01*
X69678646Y-30227713D01*
X69652648Y-30230973D01*
X69635881Y-30198401D01*
X69616608Y-30163525D01*
X69578308Y-30150099D01*
X69512708Y-30151394D01*
X69406900Y-30159100D01*
X69399222Y-30292450D01*
X69389465Y-30380178D01*
X69375490Y-30419834D01*
X69360819Y-30413555D01*
X69348971Y-30363475D01*
X69343467Y-30271729D01*
X69343400Y-30258583D01*
X69346219Y-30164344D01*
X69355542Y-30114281D01*
X69372664Y-30102037D01*
X69375150Y-30102751D01*
X69422725Y-30101650D01*
X69451705Y-30091083D01*
X69516800Y-30077081D01*
X69591653Y-30086527D01*
G36*
X70007054Y-30079439D02*
X70090821Y-30099812D01*
X70148794Y-30136725D01*
X70158089Y-30149931D01*
X70178856Y-30206552D01*
X70165704Y-30243714D01*
X70113766Y-30264736D01*
X70018175Y-30272940D01*
X69977080Y-30273400D01*
X69874894Y-30278596D01*
X69816786Y-30292605D01*
X69804480Y-30313055D01*
X69839700Y-30337573D01*
X69913332Y-30361126D01*
X69993802Y-30372569D01*
X70059322Y-30355690D01*
X70082285Y-30343583D01*
X70137711Y-30321412D01*
X70168899Y-30325453D01*
X70166441Y-30350642D01*
X70142377Y-30375931D01*
X70076375Y-30405817D01*
X69984808Y-30419214D01*
X69890412Y-30415372D01*
X69815926Y-30393536D01*
X69805605Y-30387078D01*
X69767028Y-30348088D01*
X69753418Y-30294557D01*
X69754805Y-30239457D01*
X69762632Y-30190850D01*
X69806950Y-30190850D01*
X69816309Y-30209486D01*
X69864029Y-30219624D01*
X69953000Y-30222600D01*
X70043886Y-30219443D01*
X70090447Y-30209085D01*
X70099050Y-30190850D01*
X70066670Y-30170165D01*
X69990872Y-30159944D01*
X69953000Y-30159100D01*
X69862754Y-30165073D01*
X69813487Y-30182039D01*
X69806950Y-30190850D01*
X69762632Y-30190850D01*
X69766660Y-30165839D01*
X69795773Y-30122969D01*
X69834730Y-30099612D01*
X69915641Y-30078431D01*
X70007054Y-30079439D01*
X70007054Y-30079439D01*
G37*
X70007054Y-30079439D02*
X70090821Y-30099812D01*
X70148794Y-30136725D01*
X70158089Y-30149931D01*
X70178856Y-30206552D01*
X70165704Y-30243714D01*
X70113766Y-30264736D01*
X70018175Y-30272940D01*
X69977080Y-30273400D01*
X69874894Y-30278596D01*
X69816786Y-30292605D01*
X69804480Y-30313055D01*
X69839700Y-30337573D01*
X69913332Y-30361126D01*
X69993802Y-30372569D01*
X70059322Y-30355690D01*
X70082285Y-30343583D01*
X70137711Y-30321412D01*
X70168899Y-30325453D01*
X70166441Y-30350642D01*
X70142377Y-30375931D01*
X70076375Y-30405817D01*
X69984808Y-30419214D01*
X69890412Y-30415372D01*
X69815926Y-30393536D01*
X69805605Y-30387078D01*
X69767028Y-30348088D01*
X69753418Y-30294557D01*
X69754805Y-30239457D01*
X69762632Y-30190850D01*
X69806950Y-30190850D01*
X69816309Y-30209486D01*
X69864029Y-30219624D01*
X69953000Y-30222600D01*
X70043886Y-30219443D01*
X70090447Y-30209085D01*
X70099050Y-30190850D01*
X70066670Y-30170165D01*
X69990872Y-30159944D01*
X69953000Y-30159100D01*
X69862754Y-30165073D01*
X69813487Y-30182039D01*
X69806950Y-30190850D01*
X69762632Y-30190850D01*
X69766660Y-30165839D01*
X69795773Y-30122969D01*
X69834730Y-30099612D01*
X69915641Y-30078431D01*
X70007054Y-30079439D01*
G36*
X70540426Y-30080034D02*
X70608524Y-30097604D01*
X70650615Y-30125060D01*
X70656634Y-30159187D01*
X70644533Y-30176226D01*
X70613529Y-30186083D01*
X70602067Y-30174013D01*
X70567567Y-30154827D01*
X70506159Y-30145910D01*
X70435515Y-30146650D01*
X70373306Y-30156435D01*
X70337203Y-30174654D01*
X70334000Y-30183287D01*
X70348445Y-30205550D01*
X70397146Y-30219541D01*
X70488147Y-30227513D01*
X70492750Y-30227737D01*
X70579386Y-30232953D01*
X70627560Y-30242397D01*
X70649565Y-30262476D01*
X70657690Y-30299602D01*
X70659211Y-30314531D01*
X70657357Y-30373496D01*
X70629828Y-30402159D01*
X70608411Y-30409434D01*
X70524234Y-30422308D01*
X70429095Y-30423241D01*
X70345048Y-30413033D01*
X70302250Y-30398365D01*
X70265338Y-30360489D01*
X70257800Y-30335637D01*
X70267163Y-30302256D01*
X70297499Y-30312280D01*
X70324928Y-30336900D01*
X70377807Y-30362496D01*
X70455817Y-30373713D01*
X70534975Y-30369154D01*
X70584904Y-30352050D01*
X70610305Y-30321684D01*
X70590813Y-30296044D01*
X70532322Y-30278664D01*
X70453150Y-30273011D01*
X70348926Y-30266999D01*
X70287532Y-30247211D01*
X70261993Y-30209880D01*
X70261927Y-30169779D01*
X70281943Y-30124501D01*
X70334375Y-30096134D01*
X70366465Y-30087409D01*
X70456385Y-30075565D01*
X70540426Y-30080034D01*
X70540426Y-30080034D01*
G37*
X70540426Y-30080034D02*
X70608524Y-30097604D01*
X70650615Y-30125060D01*
X70656634Y-30159187D01*
X70644533Y-30176226D01*
X70613529Y-30186083D01*
X70602067Y-30174013D01*
X70567567Y-30154827D01*
X70506159Y-30145910D01*
X70435515Y-30146650D01*
X70373306Y-30156435D01*
X70337203Y-30174654D01*
X70334000Y-30183287D01*
X70348445Y-30205550D01*
X70397146Y-30219541D01*
X70488147Y-30227513D01*
X70492750Y-30227737D01*
X70579386Y-30232953D01*
X70627560Y-30242397D01*
X70649565Y-30262476D01*
X70657690Y-30299602D01*
X70659211Y-30314531D01*
X70657357Y-30373496D01*
X70629828Y-30402159D01*
X70608411Y-30409434D01*
X70524234Y-30422308D01*
X70429095Y-30423241D01*
X70345048Y-30413033D01*
X70302250Y-30398365D01*
X70265338Y-30360489D01*
X70257800Y-30335637D01*
X70267163Y-30302256D01*
X70297499Y-30312280D01*
X70324928Y-30336900D01*
X70377807Y-30362496D01*
X70455817Y-30373713D01*
X70534975Y-30369154D01*
X70584904Y-30352050D01*
X70610305Y-30321684D01*
X70590813Y-30296044D01*
X70532322Y-30278664D01*
X70453150Y-30273011D01*
X70348926Y-30266999D01*
X70287532Y-30247211D01*
X70261993Y-30209880D01*
X70261927Y-30169779D01*
X70281943Y-30124501D01*
X70334375Y-30096134D01*
X70366465Y-30087409D01*
X70456385Y-30075565D01*
X70540426Y-30080034D01*
G36*
X71040315Y-30086365D02*
X71072055Y-30096202D01*
X71114750Y-30117753D01*
X71137054Y-30146955D01*
X71145519Y-30199070D01*
X71146730Y-30270131D01*
X71146660Y-30413100D01*
X71000680Y-30417050D01*
X70912639Y-30417230D01*
X70840905Y-30413500D01*
X70811443Y-30409068D01*
X70768531Y-30376911D01*
X70752194Y-30346748D01*
X70750526Y-30309383D01*
X70816600Y-30309383D01*
X70838392Y-30347760D01*
X70893055Y-30369774D01*
X70964519Y-30372681D01*
X71036716Y-30353737D01*
X71046869Y-30348706D01*
X71090551Y-30315903D01*
X71085381Y-30291674D01*
X71032764Y-30277188D01*
X70956300Y-30273400D01*
X70870525Y-30277221D01*
X70826826Y-30290104D01*
X70816600Y-30309383D01*
X70750526Y-30309383D01*
X70749489Y-30286182D01*
X70788362Y-30246489D01*
X70871211Y-30226154D01*
X70948826Y-30222600D01*
X71037914Y-30219272D01*
X71082603Y-30208385D01*
X71089792Y-30190850D01*
X71059091Y-30168135D01*
X70997518Y-30154489D01*
X70924393Y-30151162D01*
X70859039Y-30159400D01*
X70826808Y-30173867D01*
X70785295Y-30191853D01*
X70767310Y-30169300D01*
X70773593Y-30137326D01*
X70809310Y-30106357D01*
X70877473Y-30085914D01*
X70960376Y-30078437D01*
X71040315Y-30086365D01*
X71040315Y-30086365D01*
G37*
X71040315Y-30086365D02*
X71072055Y-30096202D01*
X71114750Y-30117753D01*
X71137054Y-30146955D01*
X71145519Y-30199070D01*
X71146730Y-30270131D01*
X71146660Y-30413100D01*
X71000680Y-30417050D01*
X70912639Y-30417230D01*
X70840905Y-30413500D01*
X70811443Y-30409068D01*
X70768531Y-30376911D01*
X70752194Y-30346748D01*
X70750526Y-30309383D01*
X70816600Y-30309383D01*
X70838392Y-30347760D01*
X70893055Y-30369774D01*
X70964519Y-30372681D01*
X71036716Y-30353737D01*
X71046869Y-30348706D01*
X71090551Y-30315903D01*
X71085381Y-30291674D01*
X71032764Y-30277188D01*
X70956300Y-30273400D01*
X70870525Y-30277221D01*
X70826826Y-30290104D01*
X70816600Y-30309383D01*
X70750526Y-30309383D01*
X70749489Y-30286182D01*
X70788362Y-30246489D01*
X70871211Y-30226154D01*
X70948826Y-30222600D01*
X71037914Y-30219272D01*
X71082603Y-30208385D01*
X71089792Y-30190850D01*
X71059091Y-30168135D01*
X70997518Y-30154489D01*
X70924393Y-30151162D01*
X70859039Y-30159400D01*
X70826808Y-30173867D01*
X70785295Y-30191853D01*
X70767310Y-30169300D01*
X70773593Y-30137326D01*
X70809310Y-30106357D01*
X70877473Y-30085914D01*
X70960376Y-30078437D01*
X71040315Y-30086365D01*
G36*
X71546178Y-30097905D02*
X71591509Y-30131284D01*
X71598100Y-30192413D01*
X71596675Y-30200620D01*
X71585049Y-30260700D01*
X71566162Y-30203550D01*
X71545269Y-30166814D01*
X71504438Y-30150093D01*
X71435937Y-30146400D01*
X71324600Y-30146400D01*
X71324600Y-30271900D01*
X71318298Y-30361654D01*
X71300664Y-30410956D01*
X71273603Y-30415477D01*
X71264642Y-30408176D01*
X71255868Y-30375811D01*
X71249971Y-30308886D01*
X71248400Y-30244051D01*
X71248002Y-30171076D01*
X71253495Y-30126637D01*
X71274911Y-30103356D01*
X71322280Y-30093857D01*
X71405634Y-30090763D01*
X71458613Y-30089466D01*
X71546178Y-30097905D01*
X71546178Y-30097905D01*
G37*
X71546178Y-30097905D02*
X71591509Y-30131284D01*
X71598100Y-30192413D01*
X71596675Y-30200620D01*
X71585049Y-30260700D01*
X71566162Y-30203550D01*
X71545269Y-30166814D01*
X71504438Y-30150093D01*
X71435937Y-30146400D01*
X71324600Y-30146400D01*
X71324600Y-30271900D01*
X71318298Y-30361654D01*
X71300664Y-30410956D01*
X71273603Y-30415477D01*
X71264642Y-30408176D01*
X71255868Y-30375811D01*
X71249971Y-30308886D01*
X71248400Y-30244051D01*
X71248002Y-30171076D01*
X71253495Y-30126637D01*
X71274911Y-30103356D01*
X71322280Y-30093857D01*
X71405634Y-30090763D01*
X71458613Y-30089466D01*
X71546178Y-30097905D01*
G36*
X71718873Y-30118927D02*
X71727960Y-30180721D01*
X71731000Y-30260700D01*
X71727411Y-30346974D01*
X71717904Y-30406042D01*
X71705600Y-30425800D01*
X71692326Y-30402472D01*
X71683239Y-30340678D01*
X71680200Y-30260700D01*
X71683788Y-30174425D01*
X71693295Y-30115357D01*
X71705600Y-30095600D01*
X71718873Y-30118927D01*
X71718873Y-30118927D01*
G37*
X71718873Y-30118927D02*
X71727960Y-30180721D01*
X71731000Y-30260700D01*
X71727411Y-30346974D01*
X71717904Y-30406042D01*
X71705600Y-30425800D01*
X71692326Y-30402472D01*
X71683239Y-30340678D01*
X71680200Y-30260700D01*
X71683788Y-30174425D01*
X71693295Y-30115357D01*
X71705600Y-30095600D01*
X71718873Y-30118927D01*
G36*
X72104860Y-30082941D02*
X72143040Y-30092838D01*
X72204716Y-30138650D01*
X72234276Y-30218893D01*
X72234521Y-30324646D01*
X72227977Y-30370560D01*
X72211539Y-30396518D01*
X72172826Y-30409579D01*
X72099458Y-30416808D01*
X72069349Y-30418860D01*
X71977203Y-30422272D01*
X71918963Y-30414913D01*
X71878287Y-30393469D01*
X71859217Y-30376217D01*
X71823735Y-30328834D01*
X71825095Y-30309383D01*
X71883400Y-30309383D01*
X71902604Y-30350170D01*
X71915150Y-30358178D01*
X71981694Y-30370991D01*
X72063662Y-30370882D01*
X72122622Y-30359582D01*
X72157657Y-30328021D01*
X72162800Y-30308782D01*
X72147169Y-30286919D01*
X72095116Y-30275831D01*
X72023100Y-30273400D01*
X71937325Y-30277221D01*
X71893626Y-30290104D01*
X71883400Y-30309383D01*
X71825095Y-30309383D01*
X71826765Y-30285529D01*
X71832911Y-30272817D01*
X71857609Y-30243706D01*
X71900937Y-30228348D01*
X71976589Y-30222887D01*
X72011293Y-30222600D01*
X72099491Y-30219643D01*
X72146717Y-30209168D01*
X72162542Y-30188769D01*
X72162800Y-30184500D01*
X72140662Y-30161833D01*
X72085713Y-30148617D01*
X72015147Y-30145356D01*
X71946158Y-30152557D01*
X71895941Y-30170723D01*
X71888903Y-30176456D01*
X71852885Y-30193613D01*
X71834920Y-30171191D01*
X71840682Y-30136573D01*
X71875295Y-30107827D01*
X71942660Y-30087600D01*
X72025081Y-30078451D01*
X72104860Y-30082941D01*
X72104860Y-30082941D01*
G37*
X72104860Y-30082941D02*
X72143040Y-30092838D01*
X72204716Y-30138650D01*
X72234276Y-30218893D01*
X72234521Y-30324646D01*
X72227977Y-30370560D01*
X72211539Y-30396518D01*
X72172826Y-30409579D01*
X72099458Y-30416808D01*
X72069349Y-30418860D01*
X71977203Y-30422272D01*
X71918963Y-30414913D01*
X71878287Y-30393469D01*
X71859217Y-30376217D01*
X71823735Y-30328834D01*
X71825095Y-30309383D01*
X71883400Y-30309383D01*
X71902604Y-30350170D01*
X71915150Y-30358178D01*
X71981694Y-30370991D01*
X72063662Y-30370882D01*
X72122622Y-30359582D01*
X72157657Y-30328021D01*
X72162800Y-30308782D01*
X72147169Y-30286919D01*
X72095116Y-30275831D01*
X72023100Y-30273400D01*
X71937325Y-30277221D01*
X71893626Y-30290104D01*
X71883400Y-30309383D01*
X71825095Y-30309383D01*
X71826765Y-30285529D01*
X71832911Y-30272817D01*
X71857609Y-30243706D01*
X71900937Y-30228348D01*
X71976589Y-30222887D01*
X72011293Y-30222600D01*
X72099491Y-30219643D01*
X72146717Y-30209168D01*
X72162542Y-30188769D01*
X72162800Y-30184500D01*
X72140662Y-30161833D01*
X72085713Y-30148617D01*
X72015147Y-30145356D01*
X71946158Y-30152557D01*
X71895941Y-30170723D01*
X71888903Y-30176456D01*
X71852885Y-30193613D01*
X71834920Y-30171191D01*
X71840682Y-30136573D01*
X71875295Y-30107827D01*
X71942660Y-30087600D01*
X72025081Y-30078451D01*
X72104860Y-30082941D01*
G36*
X72315583Y-29982087D02*
X72328920Y-30065055D01*
X72335341Y-30171482D01*
X72335614Y-30300829D01*
X72325897Y-30383610D01*
X72306455Y-30418646D01*
X72281756Y-30409289D01*
X72274020Y-30377665D01*
X72268060Y-30307826D01*
X72264770Y-30212350D01*
X72264400Y-30165450D01*
X72266292Y-30052138D01*
X72272594Y-29983131D01*
X72284243Y-29952055D01*
X72296150Y-29949477D01*
X72315583Y-29982087D01*
X72315583Y-29982087D01*
G37*
X72315583Y-29982087D02*
X72328920Y-30065055D01*
X72335341Y-30171482D01*
X72335614Y-30300829D01*
X72325897Y-30383610D01*
X72306455Y-30418646D01*
X72281756Y-30409289D01*
X72274020Y-30377665D01*
X72268060Y-30307826D01*
X72264770Y-30212350D01*
X72264400Y-30165450D01*
X72266292Y-30052138D01*
X72272594Y-29983131D01*
X72284243Y-29952055D01*
X72296150Y-29949477D01*
X72315583Y-29982087D01*
G36*
X58777000Y-30032100D02*
X58764300Y-30044800D01*
X58751600Y-30032100D01*
X58764300Y-30019400D01*
X58777000Y-30032100D01*
X58777000Y-30032100D01*
G37*
X58777000Y-30032100D02*
X58764300Y-30044800D01*
X58751600Y-30032100D01*
X58764300Y-30019400D01*
X58777000Y-30032100D01*
G36*
X71728134Y-29963772D02*
X71731000Y-29981300D01*
X71717284Y-30015101D01*
X71705600Y-30019400D01*
X71683065Y-29998827D01*
X71680200Y-29981300D01*
X71693915Y-29947498D01*
X71705600Y-29943200D01*
X71728134Y-29963772D01*
X71728134Y-29963772D01*
G37*
X71728134Y-29963772D02*
X71731000Y-29981300D01*
X71717284Y-30015101D01*
X71705600Y-30019400D01*
X71683065Y-29998827D01*
X71680200Y-29981300D01*
X71693915Y-29947498D01*
X71705600Y-29943200D01*
X71728134Y-29963772D01*
G36*
X67888331Y-29310201D02*
X67907108Y-29322935D01*
X67916820Y-29356490D01*
X67920455Y-29420959D01*
X67921000Y-29522659D01*
X67919687Y-29629426D01*
X67913955Y-29697522D01*
X67901116Y-29739047D01*
X67878479Y-29766100D01*
X67864548Y-29776659D01*
X67801996Y-29800295D01*
X67710542Y-29813126D01*
X67611060Y-29814491D01*
X67524426Y-29803727D01*
X67482850Y-29788765D01*
X67445877Y-29749457D01*
X67438400Y-29723076D01*
X67450529Y-29696360D01*
X67494568Y-29696520D01*
X67508250Y-29699444D01*
X67626049Y-29724843D01*
X67703008Y-29735747D01*
X67747019Y-29732015D01*
X67765972Y-29713504D01*
X67768600Y-29694750D01*
X67763481Y-29660835D01*
X67738465Y-29656320D01*
X67693411Y-29671193D01*
X67628930Y-29685985D01*
X67565110Y-29672805D01*
X67528978Y-29657015D01*
X67453987Y-29601276D01*
X67419882Y-29532800D01*
X67421747Y-29460831D01*
X67424830Y-29454629D01*
X67571058Y-29454629D01*
X67571818Y-29520101D01*
X67580817Y-29547422D01*
X67615921Y-29577765D01*
X67674935Y-29586669D01*
X67735533Y-29573740D01*
X67767588Y-29550718D01*
X67788792Y-29495763D01*
X67771037Y-29444984D01*
X67725798Y-29408622D01*
X67664554Y-29396916D01*
X67612093Y-29411997D01*
X67571058Y-29454629D01*
X67424830Y-29454629D01*
X67454669Y-29394611D01*
X67513735Y-29343384D01*
X67594030Y-29316394D01*
X67690641Y-29322882D01*
X67704535Y-29326787D01*
X67763003Y-29339278D01*
X67792812Y-29334704D01*
X67794000Y-29331222D01*
X67815750Y-29313911D01*
X67857500Y-29308200D01*
X67888331Y-29310201D01*
X67888331Y-29310201D01*
G37*
X67888331Y-29310201D02*
X67907108Y-29322935D01*
X67916820Y-29356490D01*
X67920455Y-29420959D01*
X67921000Y-29522659D01*
X67919687Y-29629426D01*
X67913955Y-29697522D01*
X67901116Y-29739047D01*
X67878479Y-29766100D01*
X67864548Y-29776659D01*
X67801996Y-29800295D01*
X67710542Y-29813126D01*
X67611060Y-29814491D01*
X67524426Y-29803727D01*
X67482850Y-29788765D01*
X67445877Y-29749457D01*
X67438400Y-29723076D01*
X67450529Y-29696360D01*
X67494568Y-29696520D01*
X67508250Y-29699444D01*
X67626049Y-29724843D01*
X67703008Y-29735747D01*
X67747019Y-29732015D01*
X67765972Y-29713504D01*
X67768600Y-29694750D01*
X67763481Y-29660835D01*
X67738465Y-29656320D01*
X67693411Y-29671193D01*
X67628930Y-29685985D01*
X67565110Y-29672805D01*
X67528978Y-29657015D01*
X67453987Y-29601276D01*
X67419882Y-29532800D01*
X67421747Y-29460831D01*
X67424830Y-29454629D01*
X67571058Y-29454629D01*
X67571818Y-29520101D01*
X67580817Y-29547422D01*
X67615921Y-29577765D01*
X67674935Y-29586669D01*
X67735533Y-29573740D01*
X67767588Y-29550718D01*
X67788792Y-29495763D01*
X67771037Y-29444984D01*
X67725798Y-29408622D01*
X67664554Y-29396916D01*
X67612093Y-29411997D01*
X67571058Y-29454629D01*
X67424830Y-29454629D01*
X67454669Y-29394611D01*
X67513735Y-29343384D01*
X67594030Y-29316394D01*
X67690641Y-29322882D01*
X67704535Y-29326787D01*
X67763003Y-29339278D01*
X67792812Y-29334704D01*
X67794000Y-29331222D01*
X67815750Y-29313911D01*
X67857500Y-29308200D01*
X67888331Y-29310201D01*
G36*
X69149837Y-29316681D02*
X69165600Y-29332971D01*
X69185973Y-29344202D01*
X69235185Y-29331286D01*
X69335611Y-29312488D01*
X69423265Y-29330024D01*
X69491287Y-29375563D01*
X69532817Y-29440779D01*
X69540994Y-29517341D01*
X69508960Y-29596922D01*
X69481168Y-29629940D01*
X69430016Y-29671765D01*
X69375887Y-29686580D01*
X69304740Y-29682860D01*
X69235570Y-29677457D01*
X69201861Y-29686427D01*
X69188851Y-29716492D01*
X69186021Y-29736924D01*
X69167064Y-29789294D01*
X69116746Y-29810452D01*
X69108450Y-29811537D01*
X69038600Y-29819574D01*
X69038600Y-29481048D01*
X69195400Y-29481048D01*
X69204708Y-29551732D01*
X69246711Y-29600351D01*
X69292600Y-29613000D01*
X69346348Y-29594680D01*
X69367639Y-29576298D01*
X69388762Y-29522875D01*
X69389799Y-29481048D01*
X69374861Y-29440650D01*
X69335304Y-29424504D01*
X69292600Y-29422500D01*
X69230399Y-29428566D01*
X69202404Y-29453110D01*
X69195400Y-29481048D01*
X69038600Y-29481048D01*
X69038600Y-29308200D01*
X69102100Y-29308200D01*
X69149837Y-29316681D01*
X69149837Y-29316681D01*
G37*
X69149837Y-29316681D02*
X69165600Y-29332971D01*
X69185973Y-29344202D01*
X69235185Y-29331286D01*
X69335611Y-29312488D01*
X69423265Y-29330024D01*
X69491287Y-29375563D01*
X69532817Y-29440779D01*
X69540994Y-29517341D01*
X69508960Y-29596922D01*
X69481168Y-29629940D01*
X69430016Y-29671765D01*
X69375887Y-29686580D01*
X69304740Y-29682860D01*
X69235570Y-29677457D01*
X69201861Y-29686427D01*
X69188851Y-29716492D01*
X69186021Y-29736924D01*
X69167064Y-29789294D01*
X69116746Y-29810452D01*
X69108450Y-29811537D01*
X69038600Y-29819574D01*
X69038600Y-29481048D01*
X69195400Y-29481048D01*
X69204708Y-29551732D01*
X69246711Y-29600351D01*
X69292600Y-29613000D01*
X69346348Y-29594680D01*
X69367639Y-29576298D01*
X69388762Y-29522875D01*
X69389799Y-29481048D01*
X69374861Y-29440650D01*
X69335304Y-29424504D01*
X69292600Y-29422500D01*
X69230399Y-29428566D01*
X69202404Y-29453110D01*
X69195400Y-29481048D01*
X69038600Y-29481048D01*
X69038600Y-29308200D01*
X69102100Y-29308200D01*
X69149837Y-29316681D01*
G36*
X68159237Y-29316709D02*
X68175000Y-29333055D01*
X68194340Y-29343407D01*
X68236880Y-29329716D01*
X68298848Y-29314350D01*
X68349618Y-29322308D01*
X68373528Y-29349454D01*
X68371866Y-29365363D01*
X68341601Y-29392086D01*
X68287204Y-29409923D01*
X68242508Y-29422269D01*
X68218272Y-29448896D01*
X68205518Y-29504249D01*
X68200400Y-29549623D01*
X68190146Y-29625618D01*
X68173565Y-29664714D01*
X68142178Y-29680769D01*
X68117850Y-29684537D01*
X68048000Y-29692574D01*
X68048000Y-29500387D01*
X68048774Y-29402968D01*
X68053445Y-29345693D01*
X68065532Y-29317909D01*
X68088556Y-29308961D01*
X68111500Y-29308200D01*
X68159237Y-29316709D01*
X68159237Y-29316709D01*
G37*
X68159237Y-29316709D02*
X68175000Y-29333055D01*
X68194340Y-29343407D01*
X68236880Y-29329716D01*
X68298848Y-29314350D01*
X68349618Y-29322308D01*
X68373528Y-29349454D01*
X68371866Y-29365363D01*
X68341601Y-29392086D01*
X68287204Y-29409923D01*
X68242508Y-29422269D01*
X68218272Y-29448896D01*
X68205518Y-29504249D01*
X68200400Y-29549623D01*
X68190146Y-29625618D01*
X68173565Y-29664714D01*
X68142178Y-29680769D01*
X68117850Y-29684537D01*
X68048000Y-29692574D01*
X68048000Y-29500387D01*
X68048774Y-29402968D01*
X68053445Y-29345693D01*
X68065532Y-29317909D01*
X68088556Y-29308961D01*
X68111500Y-29308200D01*
X68159237Y-29316709D01*
G36*
X68868597Y-29323520D02*
X68887584Y-29338768D01*
X68896327Y-29377723D01*
X68898786Y-29451462D01*
X68898900Y-29498397D01*
X68898900Y-29675895D01*
X68717934Y-29680819D01*
X68596626Y-29678784D01*
X68516117Y-29663983D01*
X68481784Y-29647091D01*
X68449917Y-29617238D01*
X68434842Y-29575431D01*
X68432411Y-29505790D01*
X68434150Y-29464669D01*
X68440172Y-29383114D01*
X68451249Y-29340125D01*
X68473421Y-29323475D01*
X68505200Y-29320900D01*
X68542047Y-29325327D01*
X68562987Y-29346830D01*
X68574745Y-29397738D01*
X68581400Y-29460600D01*
X68591901Y-29543053D01*
X68607883Y-29587171D01*
X68634906Y-29605417D01*
X68647122Y-29607875D01*
X68704767Y-29599247D01*
X68742039Y-29550956D01*
X68761722Y-29458868D01*
X68763803Y-29434701D01*
X68771880Y-29364127D01*
X68788458Y-29330805D01*
X68822060Y-29321189D01*
X68835400Y-29320900D01*
X68868597Y-29323520D01*
X68868597Y-29323520D01*
G37*
X68868597Y-29323520D02*
X68887584Y-29338768D01*
X68896327Y-29377723D01*
X68898786Y-29451462D01*
X68898900Y-29498397D01*
X68898900Y-29675895D01*
X68717934Y-29680819D01*
X68596626Y-29678784D01*
X68516117Y-29663983D01*
X68481784Y-29647091D01*
X68449917Y-29617238D01*
X68434842Y-29575431D01*
X68432411Y-29505790D01*
X68434150Y-29464669D01*
X68440172Y-29383114D01*
X68451249Y-29340125D01*
X68473421Y-29323475D01*
X68505200Y-29320900D01*
X68542047Y-29325327D01*
X68562987Y-29346830D01*
X68574745Y-29397738D01*
X68581400Y-29460600D01*
X68591901Y-29543053D01*
X68607883Y-29587171D01*
X68634906Y-29605417D01*
X68647122Y-29607875D01*
X68704767Y-29599247D01*
X68742039Y-29550956D01*
X68761722Y-29458868D01*
X68763803Y-29434701D01*
X68771880Y-29364127D01*
X68788458Y-29330805D01*
X68822060Y-29321189D01*
X68835400Y-29320900D01*
X68868597Y-29323520D01*
G36*
X69960760Y-29323643D02*
X70048557Y-29363151D01*
X70115064Y-29416540D01*
X70134346Y-29445539D01*
X70145340Y-29519644D01*
X70115190Y-29586083D01*
X70053478Y-29639916D01*
X69969786Y-29676206D01*
X69873698Y-29690014D01*
X69774794Y-29676399D01*
X69724900Y-29656574D01*
X69657339Y-29601279D01*
X69619400Y-29527498D01*
X69619854Y-29470322D01*
X69768752Y-29470322D01*
X69774749Y-29526917D01*
X69800017Y-29561617D01*
X69865052Y-29606581D01*
X69924730Y-29602410D01*
X69963885Y-29573085D01*
X69999506Y-29512879D01*
X69990064Y-29458982D01*
X69941160Y-29421412D01*
X69872613Y-29409799D01*
X69803399Y-29427048D01*
X69768752Y-29470322D01*
X69619854Y-29470322D01*
X69619993Y-29452863D01*
X69620777Y-29450577D01*
X69659755Y-29400080D01*
X69729504Y-29352300D01*
X69810674Y-29318232D01*
X69871265Y-29308239D01*
X69960760Y-29323643D01*
X69960760Y-29323643D01*
G37*
X69960760Y-29323643D02*
X70048557Y-29363151D01*
X70115064Y-29416540D01*
X70134346Y-29445539D01*
X70145340Y-29519644D01*
X70115190Y-29586083D01*
X70053478Y-29639916D01*
X69969786Y-29676206D01*
X69873698Y-29690014D01*
X69774794Y-29676399D01*
X69724900Y-29656574D01*
X69657339Y-29601279D01*
X69619400Y-29527498D01*
X69619854Y-29470322D01*
X69768752Y-29470322D01*
X69774749Y-29526917D01*
X69800017Y-29561617D01*
X69865052Y-29606581D01*
X69924730Y-29602410D01*
X69963885Y-29573085D01*
X69999506Y-29512879D01*
X69990064Y-29458982D01*
X69941160Y-29421412D01*
X69872613Y-29409799D01*
X69803399Y-29427048D01*
X69768752Y-29470322D01*
X69619854Y-29470322D01*
X69619993Y-29452863D01*
X69620777Y-29450577D01*
X69659755Y-29400080D01*
X69729504Y-29352300D01*
X69810674Y-29318232D01*
X69871265Y-29308239D01*
X69960760Y-29323643D01*
D12*
X87616667Y-32422381D02*
X87283333Y-31946190D01*
X87045238Y-32422381D02*
X87045238Y-31422381D01*
X87426191Y-31422381D01*
X87521429Y-31470000D01*
X87569048Y-31517619D01*
X87616667Y-31612857D01*
X87616667Y-31755714D01*
X87569048Y-31850952D01*
X87521429Y-31898571D01*
X87426191Y-31946190D01*
X87045238Y-31946190D01*
X88045238Y-31898571D02*
X88378572Y-31898571D01*
X88521429Y-32422381D02*
X88045238Y-32422381D01*
X88045238Y-31422381D01*
X88521429Y-31422381D01*
X89283334Y-31898571D02*
X88950000Y-31898571D01*
X88950000Y-32422381D02*
X88950000Y-31422381D01*
X89426191Y-31422381D01*
X89950000Y-31422381D02*
X89950000Y-31660476D01*
X89711905Y-31565238D02*
X89950000Y-31660476D01*
X90188096Y-31565238D01*
X89807143Y-31850952D02*
X89950000Y-31660476D01*
X90092858Y-31850952D01*
X90711905Y-31422381D02*
X90711905Y-31660476D01*
X90473810Y-31565238D02*
X90711905Y-31660476D01*
X90950001Y-31565238D01*
X90569048Y-31850952D02*
X90711905Y-31660476D01*
X90854763Y-31850952D01*
X68788095Y-38512381D02*
X68788095Y-39321905D01*
X68835714Y-39417143D01*
X68883333Y-39464762D01*
X68978571Y-39512381D01*
X69169048Y-39512381D01*
X69264286Y-39464762D01*
X69311905Y-39417143D01*
X69359524Y-39321905D01*
X69359524Y-38512381D01*
X70359524Y-39512381D02*
X69788095Y-39512381D01*
X70073809Y-39512381D02*
X70073809Y-38512381D01*
X69978571Y-38655238D01*
X69883333Y-38750476D01*
X69788095Y-38798095D01*
X50003334Y-56722381D02*
X49670000Y-56246190D01*
X49431905Y-56722381D02*
X49431905Y-55722381D01*
X49812858Y-55722381D01*
X49908096Y-55770000D01*
X49955715Y-55817619D01*
X50003334Y-55912857D01*
X50003334Y-56055714D01*
X49955715Y-56150952D01*
X49908096Y-56198571D01*
X49812858Y-56246190D01*
X49431905Y-56246190D01*
X50336667Y-55722381D02*
X50955715Y-55722381D01*
X50622381Y-56103333D01*
X50765239Y-56103333D01*
X50860477Y-56150952D01*
X50908096Y-56198571D01*
X50955715Y-56293810D01*
X50955715Y-56531905D01*
X50908096Y-56627143D01*
X50860477Y-56674762D01*
X50765239Y-56722381D01*
X50479524Y-56722381D01*
X50384286Y-56674762D01*
X50336667Y-56627143D01*
X84063334Y-55612381D02*
X83730000Y-55136190D01*
X83491905Y-55612381D02*
X83491905Y-54612381D01*
X83872858Y-54612381D01*
X83968096Y-54660000D01*
X84015715Y-54707619D01*
X84063334Y-54802857D01*
X84063334Y-54945714D01*
X84015715Y-55040952D01*
X83968096Y-55088571D01*
X83872858Y-55136190D01*
X83491905Y-55136190D01*
X84444286Y-54707619D02*
X84491905Y-54660000D01*
X84587143Y-54612381D01*
X84825239Y-54612381D01*
X84920477Y-54660000D01*
X84968096Y-54707619D01*
X85015715Y-54802857D01*
X85015715Y-54898095D01*
X84968096Y-55040952D01*
X84396667Y-55612381D01*
X85015715Y-55612381D01*
X79223334Y-56292381D02*
X78890000Y-55816190D01*
X78651905Y-56292381D02*
X78651905Y-55292381D01*
X79032858Y-55292381D01*
X79128096Y-55340000D01*
X79175715Y-55387619D01*
X79223334Y-55482857D01*
X79223334Y-55625714D01*
X79175715Y-55720952D01*
X79128096Y-55768571D01*
X79032858Y-55816190D01*
X78651905Y-55816190D01*
X80175715Y-56292381D02*
X79604286Y-56292381D01*
X79890000Y-56292381D02*
X79890000Y-55292381D01*
X79794762Y-55435238D01*
X79699524Y-55530476D01*
X79604286Y-55578095D01*
X62994762Y-55847619D02*
X62899524Y-55800000D01*
X62804286Y-55704762D01*
X62661429Y-55561905D01*
X62566190Y-55514286D01*
X62470952Y-55514286D01*
X62518571Y-55752381D02*
X62423333Y-55704762D01*
X62328095Y-55609524D01*
X62280476Y-55419048D01*
X62280476Y-55085714D01*
X62328095Y-54895238D01*
X62423333Y-54800000D01*
X62518571Y-54752381D01*
X62709048Y-54752381D01*
X62804286Y-54800000D01*
X62899524Y-54895238D01*
X62947143Y-55085714D01*
X62947143Y-55419048D01*
X62899524Y-55609524D01*
X62804286Y-55704762D01*
X62709048Y-55752381D01*
X62518571Y-55752381D01*
X63899524Y-55752381D02*
X63328095Y-55752381D01*
X63613809Y-55752381D02*
X63613809Y-54752381D01*
X63518571Y-54895238D01*
X63423333Y-54990476D01*
X63328095Y-55038095D01*
X74136667Y-55142381D02*
X74136667Y-55856667D01*
X74089047Y-55999524D01*
X73993809Y-56094762D01*
X73850952Y-56142381D01*
X73755714Y-56142381D01*
X74660476Y-56142381D02*
X74850952Y-56142381D01*
X74946191Y-56094762D01*
X74993810Y-56047143D01*
X75089048Y-55904286D01*
X75136667Y-55713810D01*
X75136667Y-55332857D01*
X75089048Y-55237619D01*
X75041429Y-55190000D01*
X74946191Y-55142381D01*
X74755714Y-55142381D01*
X74660476Y-55190000D01*
X74612857Y-55237619D01*
X74565238Y-55332857D01*
X74565238Y-55570952D01*
X74612857Y-55666190D01*
X74660476Y-55713810D01*
X74755714Y-55761429D01*
X74946191Y-55761429D01*
X75041429Y-55713810D01*
X75089048Y-55666190D01*
X75136667Y-55570952D01*
X74586667Y-44482381D02*
X74586667Y-45196667D01*
X74539047Y-45339524D01*
X74443809Y-45434762D01*
X74300952Y-45482381D01*
X74205714Y-45482381D01*
X75205714Y-44910952D02*
X75110476Y-44863333D01*
X75062857Y-44815714D01*
X75015238Y-44720476D01*
X75015238Y-44672857D01*
X75062857Y-44577619D01*
X75110476Y-44530000D01*
X75205714Y-44482381D01*
X75396191Y-44482381D01*
X75491429Y-44530000D01*
X75539048Y-44577619D01*
X75586667Y-44672857D01*
X75586667Y-44720476D01*
X75539048Y-44815714D01*
X75491429Y-44863333D01*
X75396191Y-44910952D01*
X75205714Y-44910952D01*
X75110476Y-44958571D01*
X75062857Y-45006190D01*
X75015238Y-45101429D01*
X75015238Y-45291905D01*
X75062857Y-45387143D01*
X75110476Y-45434762D01*
X75205714Y-45482381D01*
X75396191Y-45482381D01*
X75491429Y-45434762D01*
X75539048Y-45387143D01*
X75586667Y-45291905D01*
X75586667Y-45101429D01*
X75539048Y-45006190D01*
X75491429Y-44958571D01*
X75396191Y-44910952D01*
X56326667Y-43952381D02*
X56326667Y-44666667D01*
X56279047Y-44809524D01*
X56183809Y-44904762D01*
X56040952Y-44952381D01*
X55945714Y-44952381D01*
X57231429Y-43952381D02*
X57040952Y-43952381D01*
X56945714Y-44000000D01*
X56898095Y-44047619D01*
X56802857Y-44190476D01*
X56755238Y-44380952D01*
X56755238Y-44761905D01*
X56802857Y-44857143D01*
X56850476Y-44904762D01*
X56945714Y-44952381D01*
X57136191Y-44952381D01*
X57231429Y-44904762D01*
X57279048Y-44857143D01*
X57326667Y-44761905D01*
X57326667Y-44523810D01*
X57279048Y-44428571D01*
X57231429Y-44380952D01*
X57136191Y-44333333D01*
X56945714Y-44333333D01*
X56850476Y-44380952D01*
X56802857Y-44428571D01*
X56755238Y-44523810D01*
X56806667Y-54972381D02*
X56806667Y-55686667D01*
X56759047Y-55829524D01*
X56663809Y-55924762D01*
X56520952Y-55972381D01*
X56425714Y-55972381D01*
X57759048Y-54972381D02*
X57282857Y-54972381D01*
X57235238Y-55448571D01*
X57282857Y-55400952D01*
X57378095Y-55353333D01*
X57616191Y-55353333D01*
X57711429Y-55400952D01*
X57759048Y-55448571D01*
X57806667Y-55543810D01*
X57806667Y-55781905D01*
X57759048Y-55877143D01*
X57711429Y-55924762D01*
X57616191Y-55972381D01*
X57378095Y-55972381D01*
X57282857Y-55924762D01*
X57235238Y-55877143D01*
X33926667Y-36192381D02*
X33926667Y-36906667D01*
X33879047Y-37049524D01*
X33783809Y-37144762D01*
X33640952Y-37192381D01*
X33545714Y-37192381D01*
X34831429Y-36525714D02*
X34831429Y-37192381D01*
X34593333Y-36144762D02*
X34355238Y-36859048D01*
X34974286Y-36859048D01*
X36386667Y-56092381D02*
X36386667Y-56806667D01*
X36339047Y-56949524D01*
X36243809Y-57044762D01*
X36100952Y-57092381D01*
X36005714Y-57092381D01*
X36767619Y-56092381D02*
X37386667Y-56092381D01*
X37053333Y-56473333D01*
X37196191Y-56473333D01*
X37291429Y-56520952D01*
X37339048Y-56568571D01*
X37386667Y-56663810D01*
X37386667Y-56901905D01*
X37339048Y-56997143D01*
X37291429Y-57044762D01*
X37196191Y-57092381D01*
X36910476Y-57092381D01*
X36815238Y-57044762D01*
X36767619Y-56997143D01*
X80656667Y-57142381D02*
X80656667Y-57856667D01*
X80609047Y-57999524D01*
X80513809Y-58094762D01*
X80370952Y-58142381D01*
X80275714Y-58142381D01*
X81085238Y-57237619D02*
X81132857Y-57190000D01*
X81228095Y-57142381D01*
X81466191Y-57142381D01*
X81561429Y-57190000D01*
X81609048Y-57237619D01*
X81656667Y-57332857D01*
X81656667Y-57428095D01*
X81609048Y-57570952D01*
X81037619Y-58142381D01*
X81656667Y-58142381D01*
X43446667Y-33742381D02*
X43446667Y-34456667D01*
X43399047Y-34599524D01*
X43303809Y-34694762D01*
X43160952Y-34742381D01*
X43065714Y-34742381D01*
X44446667Y-34742381D02*
X43875238Y-34742381D01*
X44160952Y-34742381D02*
X44160952Y-33742381D01*
X44065714Y-33885238D01*
X43970476Y-33980476D01*
X43875238Y-34028095D01*
X53441905Y-58462381D02*
X53441905Y-57462381D01*
X53680000Y-57462381D01*
X53822858Y-57510000D01*
X53918096Y-57605238D01*
X53965715Y-57700476D01*
X54013334Y-57890952D01*
X54013334Y-58033810D01*
X53965715Y-58224286D01*
X53918096Y-58319524D01*
X53822858Y-58414762D01*
X53680000Y-58462381D01*
X53441905Y-58462381D01*
X54965715Y-58462381D02*
X54394286Y-58462381D01*
X54680000Y-58462381D02*
X54680000Y-57462381D01*
X54584762Y-57605238D01*
X54489524Y-57700476D01*
X54394286Y-57748095D01*
X66463334Y-36437143D02*
X66415715Y-36484762D01*
X66272858Y-36532381D01*
X66177620Y-36532381D01*
X66034762Y-36484762D01*
X65939524Y-36389524D01*
X65891905Y-36294286D01*
X65844286Y-36103810D01*
X65844286Y-35960952D01*
X65891905Y-35770476D01*
X65939524Y-35675238D01*
X66034762Y-35580000D01*
X66177620Y-35532381D01*
X66272858Y-35532381D01*
X66415715Y-35580000D01*
X66463334Y-35627619D01*
X67320477Y-35865714D02*
X67320477Y-36532381D01*
X67082381Y-35484762D02*
X66844286Y-36199048D01*
X67463334Y-36199048D01*
X61423334Y-53597143D02*
X61375715Y-53644762D01*
X61232858Y-53692381D01*
X61137620Y-53692381D01*
X60994762Y-53644762D01*
X60899524Y-53549524D01*
X60851905Y-53454286D01*
X60804286Y-53263810D01*
X60804286Y-53120952D01*
X60851905Y-52930476D01*
X60899524Y-52835238D01*
X60994762Y-52740000D01*
X61137620Y-52692381D01*
X61232858Y-52692381D01*
X61375715Y-52740000D01*
X61423334Y-52787619D01*
X61756667Y-52692381D02*
X62375715Y-52692381D01*
X62042381Y-53073333D01*
X62185239Y-53073333D01*
X62280477Y-53120952D01*
X62328096Y-53168571D01*
X62375715Y-53263810D01*
X62375715Y-53501905D01*
X62328096Y-53597143D01*
X62280477Y-53644762D01*
X62185239Y-53692381D01*
X61899524Y-53692381D01*
X61804286Y-53644762D01*
X61756667Y-53597143D01*
X59613334Y-45567143D02*
X59565715Y-45614762D01*
X59422858Y-45662381D01*
X59327620Y-45662381D01*
X59184762Y-45614762D01*
X59089524Y-45519524D01*
X59041905Y-45424286D01*
X58994286Y-45233810D01*
X58994286Y-45090952D01*
X59041905Y-44900476D01*
X59089524Y-44805238D01*
X59184762Y-44710000D01*
X59327620Y-44662381D01*
X59422858Y-44662381D01*
X59565715Y-44710000D01*
X59613334Y-44757619D01*
X59994286Y-44757619D02*
X60041905Y-44710000D01*
X60137143Y-44662381D01*
X60375239Y-44662381D01*
X60470477Y-44710000D01*
X60518096Y-44757619D01*
X60565715Y-44852857D01*
X60565715Y-44948095D01*
X60518096Y-45090952D01*
X59946667Y-45662381D01*
X60565715Y-45662381D01*
X61493334Y-39687143D02*
X61445715Y-39734762D01*
X61302858Y-39782381D01*
X61207620Y-39782381D01*
X61064762Y-39734762D01*
X60969524Y-39639524D01*
X60921905Y-39544286D01*
X60874286Y-39353810D01*
X60874286Y-39210952D01*
X60921905Y-39020476D01*
X60969524Y-38925238D01*
X61064762Y-38830000D01*
X61207620Y-38782381D01*
X61302858Y-38782381D01*
X61445715Y-38830000D01*
X61493334Y-38877619D01*
X62445715Y-39782381D02*
X61874286Y-39782381D01*
X62160000Y-39782381D02*
X62160000Y-38782381D01*
X62064762Y-38925238D01*
X61969524Y-39020476D01*
X61874286Y-39068095D01*
X88466667Y-52652381D02*
X88466667Y-53366667D01*
X88419047Y-53509524D01*
X88323809Y-53604762D01*
X88180952Y-53652381D01*
X88085714Y-53652381D01*
X88847619Y-52652381D02*
X89514286Y-52652381D01*
X89085714Y-53652381D01*
X35666667Y-32722381D02*
X35333333Y-32246190D01*
X35095238Y-32722381D02*
X35095238Y-31722381D01*
X35476191Y-31722381D01*
X35571429Y-31770000D01*
X35619048Y-31817619D01*
X35666667Y-31912857D01*
X35666667Y-32055714D01*
X35619048Y-32150952D01*
X35571429Y-32198571D01*
X35476191Y-32246190D01*
X35095238Y-32246190D01*
X36095238Y-32198571D02*
X36428572Y-32198571D01*
X36571429Y-32722381D02*
X36095238Y-32722381D01*
X36095238Y-31722381D01*
X36571429Y-31722381D01*
X37333334Y-32198571D02*
X37000000Y-32198571D01*
X37000000Y-32722381D02*
X37000000Y-31722381D01*
X37476191Y-31722381D01*
X38000000Y-31722381D02*
X38000000Y-31960476D01*
X37761905Y-31865238D02*
X38000000Y-31960476D01*
X38238096Y-31865238D01*
X37857143Y-32150952D02*
X38000000Y-31960476D01*
X38142858Y-32150952D01*
X38761905Y-31722381D02*
X38761905Y-31960476D01*
X38523810Y-31865238D02*
X38761905Y-31960476D01*
X39000001Y-31865238D01*
X38619048Y-32150952D02*
X38761905Y-31960476D01*
X38904763Y-32150952D01*
D11*
X55218287Y-33653429D02*
X55508573Y-34669429D01*
X55798859Y-33943714D01*
X56089144Y-34669429D01*
X56379430Y-33653429D01*
X56814858Y-33653429D02*
X57105144Y-34669429D01*
X57395430Y-33943714D01*
X57685715Y-34669429D01*
X57976001Y-33653429D01*
X58411429Y-33653429D02*
X58701715Y-34669429D01*
X58992001Y-33943714D01*
X59282286Y-34669429D01*
X59572572Y-33653429D01*
X60153143Y-34524286D02*
X60225715Y-34596857D01*
X60153143Y-34669429D01*
X60080572Y-34596857D01*
X60153143Y-34524286D01*
X60153143Y-34669429D01*
X60878857Y-34669429D02*
X60878857Y-33653429D01*
X60878857Y-33145429D02*
X60806286Y-33218000D01*
X60878857Y-33290571D01*
X60951429Y-33218000D01*
X60878857Y-33145429D01*
X60878857Y-33290571D01*
X61604571Y-33653429D02*
X61604571Y-34669429D01*
X61604571Y-33798571D02*
X61677143Y-33726000D01*
X61822285Y-33653429D01*
X62040000Y-33653429D01*
X62185143Y-33726000D01*
X62257714Y-33871143D01*
X62257714Y-34669429D01*
X62910857Y-34596857D02*
X63056000Y-34669429D01*
X63346285Y-34669429D01*
X63491428Y-34596857D01*
X63564000Y-34451714D01*
X63564000Y-34379143D01*
X63491428Y-34234000D01*
X63346285Y-34161429D01*
X63128571Y-34161429D01*
X62983428Y-34088857D01*
X62910857Y-33943714D01*
X62910857Y-33871143D01*
X62983428Y-33726000D01*
X63128571Y-33653429D01*
X63346285Y-33653429D01*
X63491428Y-33726000D01*
X64797714Y-34596857D02*
X64652571Y-34669429D01*
X64362285Y-34669429D01*
X64217142Y-34596857D01*
X64144571Y-34451714D01*
X64144571Y-33871143D01*
X64217142Y-33726000D01*
X64362285Y-33653429D01*
X64652571Y-33653429D01*
X64797714Y-33726000D01*
X64870285Y-33871143D01*
X64870285Y-34016286D01*
X64144571Y-34161429D01*
X65523428Y-33653429D02*
X65523428Y-35177429D01*
X65523428Y-33726000D02*
X65668571Y-33653429D01*
X65958857Y-33653429D01*
X66104000Y-33726000D01*
X66176571Y-33798571D01*
X66249142Y-33943714D01*
X66249142Y-34379143D01*
X66176571Y-34524286D01*
X66104000Y-34596857D01*
X65958857Y-34669429D01*
X65668571Y-34669429D01*
X65523428Y-34596857D01*
X67482857Y-34596857D02*
X67337714Y-34669429D01*
X67047428Y-34669429D01*
X66902285Y-34596857D01*
X66829714Y-34451714D01*
X66829714Y-33871143D01*
X66902285Y-33726000D01*
X67047428Y-33653429D01*
X67337714Y-33653429D01*
X67482857Y-33726000D01*
X67555428Y-33871143D01*
X67555428Y-34016286D01*
X66829714Y-34161429D01*
X67990857Y-33653429D02*
X68571428Y-33653429D01*
X68208571Y-33145429D02*
X68208571Y-34451714D01*
X68281143Y-34596857D01*
X68426285Y-34669429D01*
X68571428Y-34669429D01*
X69079428Y-34524286D02*
X69152000Y-34596857D01*
X69079428Y-34669429D01*
X69006857Y-34596857D01*
X69079428Y-34524286D01*
X69079428Y-34669429D01*
X70458285Y-34596857D02*
X70313142Y-34669429D01*
X70022856Y-34669429D01*
X69877714Y-34596857D01*
X69805142Y-34524286D01*
X69732571Y-34379143D01*
X69732571Y-33943714D01*
X69805142Y-33798571D01*
X69877714Y-33726000D01*
X70022856Y-33653429D01*
X70313142Y-33653429D01*
X70458285Y-33726000D01*
X71329142Y-34669429D02*
X71184000Y-34596857D01*
X71111428Y-34524286D01*
X71038857Y-34379143D01*
X71038857Y-33943714D01*
X71111428Y-33798571D01*
X71184000Y-33726000D01*
X71329142Y-33653429D01*
X71546857Y-33653429D01*
X71692000Y-33726000D01*
X71764571Y-33798571D01*
X71837142Y-33943714D01*
X71837142Y-34379143D01*
X71764571Y-34524286D01*
X71692000Y-34596857D01*
X71546857Y-34669429D01*
X71329142Y-34669429D01*
X72490285Y-34669429D02*
X72490285Y-33653429D01*
X72490285Y-33798571D02*
X72562857Y-33726000D01*
X72707999Y-33653429D01*
X72925714Y-33653429D01*
X73070857Y-33726000D01*
X73143428Y-33871143D01*
X73143428Y-34669429D01*
X73143428Y-33871143D02*
X73215999Y-33726000D01*
X73361142Y-33653429D01*
X73578857Y-33653429D01*
X73723999Y-33726000D01*
X73796571Y-33871143D01*
X73796571Y-34669429D01*
M02*
