M48
;DRILL file {KiCad 4.0.6} date 07/10/17 08:56:58
;FORMAT={-:-/ absolute / metric / decimal}
FMAT,2
METRIC,TZ
T1C0.600
T2C1.000
T3C4.000
%
G90
G05
M71
T1
X39.22Y-47.1
X43.7Y-51.24
X43.73Y-49.23
X45.88Y-51.24
X47.62Y-47.33
X48.04Y-44.71
X63.78Y-51.39
X66.95Y-48.03
X68.74Y-51.47
X71.39Y-53.68
X71.84Y-46.71
X71.87Y-44.65
X71.88Y-41.29
X82.1Y-42.57
X82.16Y-40.4
X82.22Y-38.55
X86.42Y-55.43
X86.54Y-44.68
X87.01Y-46.11
X89.71Y-57.65
X89.73Y-55.89
T2
X39.778Y-56.388
X42.318Y-56.388
X46.74Y-34.25
X49.28Y-34.25
X51.82Y-34.25
X58.02Y-36.79
X58.02Y-39.33
X58.02Y-41.87
X58.4Y-47.76
X58.4Y-50.3
X58.4Y-52.84
X75.846Y-48.006
X75.846Y-50.546
X75.846Y-53.086
X75.95Y-37.64
X75.95Y-40.18
X75.95Y-42.72
X83.974Y-57.658
X86.514Y-57.658
T3
X37.01Y-32.27
X88.69Y-31.99
T0
M30
