G04 #@! TF.FileFunction,Legend,Top*
%FSLAX46Y46*%
G04 Gerber Fmt 4.6, Leading zero omitted, Abs format (unit mm)*
G04 Created by KiCad (PCBNEW 4.0.6) date 06/30/17 11:01:05*
%MOMM*%
%LPD*%
G01*
G04 APERTURE LIST*
%ADD10C,0.100000*%
%ADD11C,0.300000*%
%ADD12C,0.120000*%
%ADD13C,0.250000*%
%ADD14C,0.150000*%
G04 APERTURE END LIST*
D10*
D11*
X61510330Y-79500901D02*
X61510387Y-79786616D01*
X61581844Y-79929459D01*
X61653287Y-80000872D01*
X61867600Y-80143687D01*
X62153330Y-80215058D01*
X62724758Y-80214944D01*
X62867600Y-80143487D01*
X62939015Y-80072044D01*
X63010415Y-79929173D01*
X63010358Y-79643459D01*
X62938901Y-79500615D01*
X62867457Y-79429201D01*
X62724586Y-79357801D01*
X62367443Y-79357872D01*
X62224600Y-79429330D01*
X62153187Y-79500772D01*
X62081786Y-79643645D01*
X62081844Y-79929359D01*
X62153301Y-80072201D01*
X62224743Y-80143616D01*
X62367615Y-80215015D01*
X61510616Y-80929472D02*
X61510673Y-81215187D01*
X61582129Y-81358030D01*
X61653573Y-81429443D01*
X61867886Y-81572258D01*
X62153615Y-81643629D01*
X62725043Y-81643515D01*
X62867886Y-81572058D01*
X62939301Y-81500615D01*
X63010701Y-81357744D01*
X63010644Y-81072030D01*
X62939187Y-80929186D01*
X62867743Y-80857772D01*
X62724872Y-80786372D01*
X62367729Y-80786443D01*
X62224886Y-80857901D01*
X62153473Y-80929343D01*
X62082072Y-81072216D01*
X62082129Y-81357930D01*
X62153587Y-81500772D01*
X62225029Y-81572187D01*
X62367900Y-81643586D01*
X61582329Y-82358029D02*
X61510901Y-82358043D01*
X61368029Y-82286643D01*
X61296587Y-82215229D01*
X61511044Y-83072329D02*
X61511101Y-83358044D01*
X61582558Y-83500886D01*
X61654001Y-83572300D01*
X61868315Y-83715115D01*
X62154044Y-83786486D01*
X62725472Y-83786372D01*
X62868315Y-83714915D01*
X62939730Y-83643472D01*
X63011130Y-83500601D01*
X63011073Y-83214887D01*
X62939615Y-83072043D01*
X62868172Y-83000629D01*
X62725301Y-82929229D01*
X62368158Y-82929300D01*
X62225315Y-83000758D01*
X62153901Y-83072200D01*
X62082501Y-83215072D01*
X62082558Y-83500786D01*
X62154016Y-83643629D01*
X62225458Y-83715044D01*
X62368329Y-83786443D01*
X62368501Y-84643586D02*
X62439901Y-84500714D01*
X62511316Y-84429272D01*
X62654158Y-84357814D01*
X62725586Y-84357800D01*
X62868458Y-84429200D01*
X62939901Y-84500614D01*
X63011359Y-84643458D01*
X63011416Y-84929172D01*
X62940015Y-85072043D01*
X62868601Y-85143486D01*
X62725758Y-85214943D01*
X62654330Y-85214957D01*
X62511459Y-85143558D01*
X62440015Y-85072143D01*
X62368558Y-84929300D01*
X62368501Y-84643586D01*
X62297044Y-84500743D01*
X62225601Y-84429329D01*
X62082729Y-84357928D01*
X61797015Y-84357986D01*
X61654173Y-84429443D01*
X61582758Y-84500885D01*
X61511359Y-84643758D01*
X61511416Y-84929472D01*
X61582872Y-85072314D01*
X61654316Y-85143729D01*
X61797187Y-85215129D01*
X62082901Y-85215071D01*
X62225744Y-85143615D01*
X62297158Y-85072172D01*
X62368558Y-84929300D01*
X63011659Y-86143457D02*
X63011687Y-86286314D01*
X62940287Y-86429185D01*
X62868872Y-86500628D01*
X62726029Y-86572086D01*
X62440330Y-86643571D01*
X62083187Y-86643642D01*
X61797458Y-86572272D01*
X61654587Y-86500871D01*
X61583144Y-86429456D01*
X61511687Y-86286614D01*
X61511659Y-86143757D01*
X61583058Y-86000885D01*
X61654473Y-85929442D01*
X61797315Y-85857986D01*
X62083015Y-85786499D01*
X62440158Y-85786428D01*
X62725886Y-85857800D01*
X62868758Y-85929199D01*
X62940201Y-86000614D01*
X63011659Y-86143457D01*
X61511887Y-87286614D02*
X62511887Y-87286414D01*
X62369029Y-87286442D02*
X62440473Y-87357856D01*
X62511930Y-87500700D01*
X62511973Y-87714985D01*
X62440573Y-87857856D01*
X62297730Y-87929314D01*
X61512016Y-87929471D01*
X62297730Y-87929314D02*
X62440601Y-88000714D01*
X62512059Y-88143557D01*
X62512102Y-88357842D01*
X62440701Y-88500714D01*
X62297858Y-88572170D01*
X61512144Y-88572328D01*
X61512287Y-89286614D02*
X62512287Y-89286414D01*
X62369429Y-89286442D02*
X62440873Y-89357856D01*
X62512330Y-89500700D01*
X62512373Y-89714985D01*
X62440973Y-89857856D01*
X62298130Y-89929313D01*
X61512416Y-89929471D01*
X62298130Y-89929313D02*
X62441001Y-90000714D01*
X62512459Y-90143557D01*
X62512502Y-90357842D01*
X62441101Y-90500714D01*
X62298259Y-90572170D01*
X61512545Y-90572328D01*
X63530001Y-35010494D02*
X63550001Y-134990494D01*
X66000000Y-35010000D02*
X60830001Y-35011034D01*
X66020000Y-134990000D02*
X60850001Y-134991034D01*
X63550001Y-134990494D02*
X62963355Y-133864108D01*
X63550001Y-134990494D02*
X64136196Y-133863873D01*
X63530001Y-35010494D02*
X62943806Y-36137115D01*
X63530001Y-35010494D02*
X64116647Y-36136880D01*
D12*
X73916000Y-40510000D02*
G75*
G03X73916000Y-40510000I-2286000J0D01*
G01*
X96266000Y-130050000D02*
G75*
G03X96266000Y-130050000I-2286000J0D01*
G01*
X179456000Y-130430000D02*
G75*
G03X179456000Y-130430000I-2286000J0D01*
G01*
X124298000Y-77882000D02*
X124298000Y-78582000D01*
X123098000Y-78582000D02*
X123098000Y-77882000D01*
X123098000Y-82900000D02*
X123098000Y-82200000D01*
X124298000Y-82200000D02*
X124298000Y-82900000D01*
X126740000Y-67310000D02*
X126040000Y-67310000D01*
X126040000Y-66110000D02*
X126740000Y-66110000D01*
X126050000Y-74640000D02*
X126750000Y-74640000D01*
X126750000Y-75840000D02*
X126050000Y-75840000D01*
X107346000Y-77378000D02*
X108046000Y-77378000D01*
X108046000Y-78578000D02*
X107346000Y-78578000D01*
X107346000Y-79918000D02*
X108046000Y-79918000D01*
X108046000Y-81118000D02*
X107346000Y-81118000D01*
X107346000Y-82458000D02*
X108046000Y-82458000D01*
X108046000Y-83658000D02*
X107346000Y-83658000D01*
X107346000Y-84998000D02*
X108046000Y-84998000D01*
X108046000Y-86198000D02*
X107346000Y-86198000D01*
X93280000Y-83300000D02*
X93280000Y-82300000D01*
X93280000Y-82300000D02*
X91180000Y-82300000D01*
X93280000Y-83300000D02*
X91180000Y-83300000D01*
X138450000Y-103700000D02*
X139450000Y-103700000D01*
X139450000Y-103700000D02*
X139450000Y-101600000D01*
X138450000Y-103700000D02*
X138450000Y-101600000D01*
X141990000Y-118790000D02*
X140990000Y-118790000D01*
X140990000Y-118790000D02*
X140990000Y-120890000D01*
X141990000Y-118790000D02*
X141990000Y-120890000D01*
X138510000Y-70370000D02*
X139510000Y-70370000D01*
X139510000Y-70370000D02*
X139510000Y-68270000D01*
X138510000Y-70370000D02*
X138510000Y-68270000D01*
X142040000Y-85800000D02*
X141040000Y-85800000D01*
X141040000Y-85800000D02*
X141040000Y-87900000D01*
X142040000Y-85800000D02*
X142040000Y-87900000D01*
X172730155Y-53329647D02*
G75*
G03X172730000Y-51830000I-1700155J749647D01*
G01*
X172730155Y-58409647D02*
G75*
G03X172730000Y-56910000I-1700155J749647D01*
G01*
X179310000Y-49960000D02*
X171900000Y-49960000D01*
X171900000Y-49960000D02*
X171900000Y-60280000D01*
X171900000Y-60280000D02*
X179310000Y-60280000D01*
X179310000Y-60280000D02*
X179310000Y-49960000D01*
X172730000Y-51830000D02*
X172730000Y-51080000D01*
X172730000Y-51080000D02*
X177030000Y-51080000D01*
X177030000Y-51080000D02*
X177030000Y-51830000D01*
X177030000Y-51830000D02*
X177380000Y-51830000D01*
X177380000Y-51830000D02*
X177380000Y-51330000D01*
X177380000Y-51330000D02*
X178380000Y-51080000D01*
X178380000Y-51080000D02*
X178380000Y-54080000D01*
X178380000Y-54080000D02*
X177380000Y-53830000D01*
X177380000Y-53830000D02*
X177380000Y-53330000D01*
X177380000Y-53330000D02*
X177030000Y-53330000D01*
X177030000Y-53330000D02*
X177030000Y-54080000D01*
X177030000Y-54080000D02*
X172730000Y-54080000D01*
X172730000Y-54080000D02*
X172730000Y-53330000D01*
X172730000Y-56910000D02*
X172730000Y-56160000D01*
X172730000Y-56160000D02*
X177030000Y-56160000D01*
X177030000Y-56160000D02*
X177030000Y-56910000D01*
X177030000Y-56910000D02*
X177380000Y-56910000D01*
X177380000Y-56910000D02*
X177380000Y-56410000D01*
X177380000Y-56410000D02*
X178380000Y-56160000D01*
X178380000Y-56160000D02*
X178380000Y-59160000D01*
X178380000Y-59160000D02*
X177380000Y-58910000D01*
X177380000Y-58910000D02*
X177380000Y-58410000D01*
X177380000Y-58410000D02*
X177030000Y-58410000D01*
X177030000Y-58410000D02*
X177030000Y-59160000D01*
X177030000Y-59160000D02*
X172730000Y-59160000D01*
X172730000Y-59160000D02*
X172730000Y-58410000D01*
X178480000Y-49540000D02*
X179730000Y-49540000D01*
X179730000Y-49540000D02*
X179730000Y-51540000D01*
X69960000Y-48740000D02*
X69960000Y-56420000D01*
X69960000Y-56420000D02*
X72620000Y-56420000D01*
X72620000Y-56420000D02*
X72620000Y-48740000D01*
X72620000Y-48740000D02*
X69960000Y-48740000D01*
X69960000Y-47470000D02*
X69960000Y-46140000D01*
X69960000Y-46140000D02*
X71290000Y-46140000D01*
X113732000Y-69850000D02*
X113732000Y-72450000D01*
X113732000Y-72450000D02*
X116392000Y-72450000D01*
X116392000Y-72450000D02*
X116392000Y-69850000D01*
X116392000Y-69850000D02*
X113732000Y-69850000D01*
X113732000Y-68580000D02*
X113732000Y-67250000D01*
X113732000Y-67250000D02*
X115062000Y-67250000D01*
X133170000Y-101320000D02*
X133170000Y-88560000D01*
X133170000Y-88560000D02*
X130510000Y-88560000D01*
X130510000Y-88560000D02*
X130510000Y-101320000D01*
X130510000Y-101320000D02*
X133170000Y-101320000D01*
X133170000Y-102590000D02*
X133170000Y-103920000D01*
X133170000Y-103920000D02*
X131840000Y-103920000D01*
X103590000Y-130950000D02*
X118890000Y-130950000D01*
X118890000Y-130950000D02*
X118890000Y-128290000D01*
X118890000Y-128290000D02*
X103590000Y-128290000D01*
X103590000Y-128290000D02*
X103590000Y-130950000D01*
X102320000Y-130950000D02*
X100990000Y-130950000D01*
X100990000Y-130950000D02*
X100990000Y-129620000D01*
X132280000Y-128340000D02*
X122060000Y-128340000D01*
X122060000Y-128340000D02*
X122060000Y-131000000D01*
X122060000Y-131000000D02*
X132280000Y-131000000D01*
X132280000Y-131000000D02*
X132280000Y-128340000D01*
X133550000Y-128340000D02*
X134880000Y-128340000D01*
X134880000Y-128340000D02*
X134880000Y-129670000D01*
X97790000Y-62424000D02*
X92650000Y-62424000D01*
X92650000Y-62424000D02*
X92650000Y-65084000D01*
X92650000Y-65084000D02*
X97790000Y-65084000D01*
X97790000Y-65084000D02*
X97790000Y-62424000D01*
X99060000Y-62424000D02*
X100390000Y-62424000D01*
X100390000Y-62424000D02*
X100390000Y-63754000D01*
X111760000Y-62424000D02*
X106620000Y-62424000D01*
X106620000Y-62424000D02*
X106620000Y-65084000D01*
X106620000Y-65084000D02*
X111760000Y-65084000D01*
X111760000Y-65084000D02*
X111760000Y-62424000D01*
X113030000Y-62424000D02*
X114360000Y-62424000D01*
X114360000Y-62424000D02*
X114360000Y-63754000D01*
X145300000Y-93720000D02*
X140160000Y-93720000D01*
X140160000Y-93720000D02*
X140160000Y-96380000D01*
X140160000Y-96380000D02*
X145300000Y-96380000D01*
X145300000Y-96380000D02*
X145300000Y-93720000D01*
X146570000Y-93720000D02*
X147900000Y-93720000D01*
X147900000Y-93720000D02*
X147900000Y-95050000D01*
X160580000Y-129650000D02*
X165720000Y-129650000D01*
X165720000Y-129650000D02*
X165720000Y-126990000D01*
X165720000Y-126990000D02*
X160580000Y-126990000D01*
X160580000Y-126990000D02*
X160580000Y-129650000D01*
X159310000Y-129650000D02*
X157980000Y-129650000D01*
X157980000Y-129650000D02*
X157980000Y-128320000D01*
D13*
X175671815Y-105279000D02*
G75*
G03X175671815Y-105279000I-538815J0D01*
G01*
X165735000Y-104009000D02*
X176530000Y-104009000D01*
X176530000Y-104009000D02*
X176530000Y-107057000D01*
X160401000Y-107311000D02*
X160401000Y-104009000D01*
X160401000Y-104009000D02*
X162179000Y-104009000D01*
X160401000Y-120011000D02*
X160401000Y-116709000D01*
X174371000Y-120011000D02*
X176530000Y-120011000D01*
X176530000Y-120011000D02*
X176530000Y-117090000D01*
X162179000Y-104010000D02*
X165735000Y-104010000D01*
X160401000Y-120010000D02*
X174498000Y-120010000D01*
D12*
X145320000Y-59840000D02*
X140180000Y-59840000D01*
X140180000Y-59840000D02*
X140180000Y-62500000D01*
X140180000Y-62500000D02*
X145320000Y-62500000D01*
X145320000Y-62500000D02*
X145320000Y-59840000D01*
X146590000Y-59840000D02*
X147920000Y-59840000D01*
X147920000Y-59840000D02*
X147920000Y-61170000D01*
X160620000Y-96180000D02*
X165760000Y-96180000D01*
X165760000Y-96180000D02*
X165760000Y-93520000D01*
X165760000Y-93520000D02*
X160620000Y-93520000D01*
X160620000Y-93520000D02*
X160620000Y-96180000D01*
X159350000Y-96180000D02*
X158020000Y-96180000D01*
X158020000Y-96180000D02*
X158020000Y-94850000D01*
D13*
X176671815Y-70969000D02*
G75*
G03X176671815Y-70969000I-538815J0D01*
G01*
X166735000Y-69699000D02*
X177530000Y-69699000D01*
X177530000Y-69699000D02*
X177530000Y-72747000D01*
X161401000Y-73001000D02*
X161401000Y-69699000D01*
X161401000Y-69699000D02*
X163179000Y-69699000D01*
X161401000Y-85701000D02*
X161401000Y-82399000D01*
X175371000Y-85701000D02*
X177530000Y-85701000D01*
X177530000Y-85701000D02*
X177530000Y-82780000D01*
X163179000Y-69700000D02*
X166735000Y-69700000D01*
X161401000Y-85700000D02*
X175498000Y-85700000D01*
X117507815Y-40637000D02*
G75*
G03X117507815Y-40637000I-538815J0D01*
G01*
X115699000Y-50035000D02*
X115699000Y-39240000D01*
X115699000Y-39240000D02*
X118747000Y-39240000D01*
X119001000Y-55369000D02*
X115699000Y-55369000D01*
X115699000Y-55369000D02*
X115699000Y-53591000D01*
X131701000Y-55369000D02*
X128399000Y-55369000D01*
X131701000Y-41399000D02*
X131701000Y-39240000D01*
X131701000Y-39240000D02*
X128780000Y-39240000D01*
X115700000Y-53591000D02*
X115700000Y-50035000D01*
X131700000Y-55369000D02*
X131700000Y-41272000D01*
X78767815Y-40897000D02*
G75*
G03X78767815Y-40897000I-538815J0D01*
G01*
X76959000Y-50295000D02*
X76959000Y-39500000D01*
X76959000Y-39500000D02*
X80007000Y-39500000D01*
X80261000Y-55629000D02*
X76959000Y-55629000D01*
X76959000Y-55629000D02*
X76959000Y-53851000D01*
X92961000Y-55629000D02*
X89659000Y-55629000D01*
X92961000Y-41659000D02*
X92961000Y-39500000D01*
X92961000Y-39500000D02*
X90040000Y-39500000D01*
X76960000Y-53851000D02*
X76960000Y-50295000D01*
X92960000Y-55629000D02*
X92960000Y-41532000D01*
X136177815Y-40637000D02*
G75*
G03X136177815Y-40637000I-538815J0D01*
G01*
X134369000Y-50035000D02*
X134369000Y-39240000D01*
X134369000Y-39240000D02*
X137417000Y-39240000D01*
X137671000Y-55369000D02*
X134369000Y-55369000D01*
X134369000Y-55369000D02*
X134369000Y-53591000D01*
X150371000Y-55369000D02*
X147069000Y-55369000D01*
X150371000Y-41399000D02*
X150371000Y-39240000D01*
X150371000Y-39240000D02*
X147450000Y-39240000D01*
X134370000Y-53591000D02*
X134370000Y-50035000D01*
X150370000Y-55369000D02*
X150370000Y-41272000D01*
X71625815Y-132581000D02*
G75*
G03X71625815Y-132581000I-538815J0D01*
G01*
X80485000Y-133851000D02*
X69690000Y-133851000D01*
X69690000Y-133851000D02*
X69690000Y-130803000D01*
X85819000Y-130549000D02*
X85819000Y-133851000D01*
X85819000Y-133851000D02*
X84041000Y-133851000D01*
X85819000Y-117849000D02*
X85819000Y-121151000D01*
X71849000Y-117849000D02*
X69690000Y-117849000D01*
X69690000Y-117849000D02*
X69690000Y-120770000D01*
X84041000Y-133850000D02*
X80485000Y-133850000D01*
X85819000Y-117850000D02*
X71722000Y-117850000D01*
X71715815Y-94981000D02*
G75*
G03X71715815Y-94981000I-538815J0D01*
G01*
X80575000Y-96251000D02*
X69780000Y-96251000D01*
X69780000Y-96251000D02*
X69780000Y-93203000D01*
X85909000Y-92949000D02*
X85909000Y-96251000D01*
X85909000Y-96251000D02*
X84131000Y-96251000D01*
X85909000Y-80249000D02*
X85909000Y-83551000D01*
X71939000Y-80249000D02*
X69780000Y-80249000D01*
X69780000Y-80249000D02*
X69780000Y-83170000D01*
X84131000Y-96250000D02*
X80575000Y-96250000D01*
X85909000Y-80250000D02*
X71812000Y-80250000D01*
X98327815Y-40637000D02*
G75*
G03X98327815Y-40637000I-538815J0D01*
G01*
X96519000Y-50035000D02*
X96519000Y-39240000D01*
X96519000Y-39240000D02*
X99567000Y-39240000D01*
X99821000Y-55369000D02*
X96519000Y-55369000D01*
X96519000Y-55369000D02*
X96519000Y-53591000D01*
X112521000Y-55369000D02*
X109219000Y-55369000D01*
X112521000Y-41399000D02*
X112521000Y-39240000D01*
X112521000Y-39240000D02*
X109600000Y-39240000D01*
X96520000Y-53591000D02*
X96520000Y-50035000D01*
X112520000Y-55369000D02*
X112520000Y-41272000D01*
X155787815Y-40777000D02*
G75*
G03X155787815Y-40777000I-538815J0D01*
G01*
X153979000Y-50175000D02*
X153979000Y-39380000D01*
X153979000Y-39380000D02*
X157027000Y-39380000D01*
X157281000Y-55509000D02*
X153979000Y-55509000D01*
X153979000Y-55509000D02*
X153979000Y-53731000D01*
X169981000Y-55509000D02*
X166679000Y-55509000D01*
X169981000Y-41539000D02*
X169981000Y-39380000D01*
X169981000Y-39380000D02*
X167060000Y-39380000D01*
X153980000Y-53731000D02*
X153980000Y-50175000D01*
X169980000Y-55509000D02*
X169980000Y-41412000D01*
X71715815Y-113021000D02*
G75*
G03X71715815Y-113021000I-538815J0D01*
G01*
X80575000Y-114291000D02*
X69780000Y-114291000D01*
X69780000Y-114291000D02*
X69780000Y-111243000D01*
X85909000Y-110989000D02*
X85909000Y-114291000D01*
X85909000Y-114291000D02*
X84131000Y-114291000D01*
X85909000Y-98289000D02*
X85909000Y-101591000D01*
X71939000Y-98289000D02*
X69780000Y-98289000D01*
X69780000Y-98289000D02*
X69780000Y-101210000D01*
X84131000Y-114290000D02*
X80575000Y-114290000D01*
X85909000Y-98290000D02*
X71812000Y-98290000D01*
X71625815Y-75901000D02*
G75*
G03X71625815Y-75901000I-538815J0D01*
G01*
X80485000Y-77171000D02*
X69690000Y-77171000D01*
X69690000Y-77171000D02*
X69690000Y-74123000D01*
X85819000Y-73869000D02*
X85819000Y-77171000D01*
X85819000Y-77171000D02*
X84041000Y-77171000D01*
X85819000Y-61169000D02*
X85819000Y-64471000D01*
X71849000Y-61169000D02*
X69690000Y-61169000D01*
X69690000Y-61169000D02*
X69690000Y-64090000D01*
X84041000Y-77170000D02*
X80485000Y-77170000D01*
X85819000Y-61170000D02*
X71722000Y-61170000D01*
D12*
X91960000Y-104540000D02*
X97100000Y-104540000D01*
X97100000Y-104540000D02*
X97100000Y-101880000D01*
X97100000Y-101880000D02*
X91960000Y-101880000D01*
X91960000Y-101880000D02*
X91960000Y-104540000D01*
X90690000Y-104540000D02*
X89360000Y-104540000D01*
X89360000Y-104540000D02*
X89360000Y-103210000D01*
X92040000Y-109150000D02*
X97180000Y-109150000D01*
X97180000Y-109150000D02*
X97180000Y-106490000D01*
X97180000Y-106490000D02*
X92040000Y-106490000D01*
X92040000Y-106490000D02*
X92040000Y-109150000D01*
X90770000Y-109150000D02*
X89440000Y-109150000D01*
X89440000Y-109150000D02*
X89440000Y-107820000D01*
X92050000Y-98200000D02*
X97190000Y-98200000D01*
X97190000Y-98200000D02*
X97190000Y-95540000D01*
X97190000Y-95540000D02*
X92050000Y-95540000D01*
X92050000Y-95540000D02*
X92050000Y-98200000D01*
X90780000Y-98200000D02*
X89450000Y-98200000D01*
X89450000Y-98200000D02*
X89450000Y-96870000D01*
X92020000Y-93840000D02*
X97160000Y-93840000D01*
X97160000Y-93840000D02*
X97160000Y-91180000D01*
X97160000Y-91180000D02*
X92020000Y-91180000D01*
X92020000Y-91180000D02*
X92020000Y-93840000D01*
X90750000Y-93840000D02*
X89420000Y-93840000D01*
X89420000Y-93840000D02*
X89420000Y-92510000D01*
X96730000Y-82110000D02*
X97730000Y-82110000D01*
X97730000Y-83470000D02*
X96730000Y-83470000D01*
X130380000Y-126030000D02*
X129380000Y-126030000D01*
X129380000Y-124670000D02*
X130380000Y-124670000D01*
X123800000Y-125140000D02*
X122800000Y-125140000D01*
X122800000Y-123780000D02*
X123800000Y-123780000D01*
X117580000Y-78072000D02*
X117580000Y-85322000D01*
X117580000Y-85322000D02*
X121180000Y-85322000D01*
X121180000Y-85322000D02*
X121180000Y-78072000D01*
X125953333Y-69830000D02*
X119353333Y-69830000D01*
X119353333Y-69830000D02*
X119353333Y-73230000D01*
X119353333Y-73230000D02*
X125953333Y-73230000D01*
X125953333Y-73230000D02*
X125953333Y-69830000D01*
X125953333Y-71030000D02*
X126353333Y-70260000D01*
X126353333Y-70260000D02*
X126353333Y-70260000D01*
X125953333Y-72030000D02*
X126353333Y-72800000D01*
X126353333Y-72800000D02*
X126353333Y-72800000D01*
X142140000Y-115260000D02*
X142140000Y-116260000D01*
X140780000Y-116260000D02*
X140780000Y-115260000D01*
X138320000Y-74210000D02*
X138320000Y-73210000D01*
X139680000Y-73210000D02*
X139680000Y-74210000D01*
X142230000Y-82140000D02*
X142230000Y-83140000D01*
X140870000Y-83140000D02*
X140870000Y-82140000D01*
X138250000Y-106920000D02*
X138250000Y-105920000D01*
X139610000Y-105920000D02*
X139610000Y-106920000D01*
X178526000Y-38960000D02*
G75*
G03X178526000Y-38960000I-2286000J0D01*
G01*
X104886000Y-95170000D02*
G75*
G03X104886000Y-95170000I-2286000J0D01*
G01*
D14*
X125305143Y-78874857D02*
X125352762Y-78922476D01*
X125400381Y-79065333D01*
X125400381Y-79160571D01*
X125352762Y-79303429D01*
X125257524Y-79398667D01*
X125162286Y-79446286D01*
X124971810Y-79493905D01*
X124828952Y-79493905D01*
X124638476Y-79446286D01*
X124543238Y-79398667D01*
X124448000Y-79303429D01*
X124400381Y-79160571D01*
X124400381Y-79065333D01*
X124448000Y-78922476D01*
X124495619Y-78874857D01*
X125400381Y-77922476D02*
X125400381Y-78493905D01*
X125400381Y-78208191D02*
X124400381Y-78208191D01*
X124543238Y-78303429D01*
X124638476Y-78398667D01*
X124686095Y-78493905D01*
X125400381Y-76970095D02*
X125400381Y-77541524D01*
X125400381Y-77255810D02*
X124400381Y-77255810D01*
X124543238Y-77351048D01*
X124638476Y-77446286D01*
X124686095Y-77541524D01*
X125579143Y-83192857D02*
X125626762Y-83240476D01*
X125674381Y-83383333D01*
X125674381Y-83478571D01*
X125626762Y-83621429D01*
X125531524Y-83716667D01*
X125436286Y-83764286D01*
X125245810Y-83811905D01*
X125102952Y-83811905D01*
X124912476Y-83764286D01*
X124817238Y-83716667D01*
X124722000Y-83621429D01*
X124674381Y-83478571D01*
X124674381Y-83383333D01*
X124722000Y-83240476D01*
X124769619Y-83192857D01*
X125674381Y-82240476D02*
X125674381Y-82811905D01*
X125674381Y-82526191D02*
X124674381Y-82526191D01*
X124817238Y-82621429D01*
X124912476Y-82716667D01*
X124960095Y-82811905D01*
X124769619Y-81859524D02*
X124722000Y-81811905D01*
X124674381Y-81716667D01*
X124674381Y-81478571D01*
X124722000Y-81383333D01*
X124769619Y-81335714D01*
X124864857Y-81288095D01*
X124960095Y-81288095D01*
X125102952Y-81335714D01*
X125674381Y-81907143D01*
X125674381Y-81288095D01*
X125627143Y-65607143D02*
X125579524Y-65654762D01*
X125436667Y-65702381D01*
X125341429Y-65702381D01*
X125198571Y-65654762D01*
X125103333Y-65559524D01*
X125055714Y-65464286D01*
X125008095Y-65273810D01*
X125008095Y-65130952D01*
X125055714Y-64940476D01*
X125103333Y-64845238D01*
X125198571Y-64750000D01*
X125341429Y-64702381D01*
X125436667Y-64702381D01*
X125579524Y-64750000D01*
X125627143Y-64797619D01*
X126579524Y-65702381D02*
X126008095Y-65702381D01*
X126293809Y-65702381D02*
X126293809Y-64702381D01*
X126198571Y-64845238D01*
X126103333Y-64940476D01*
X126008095Y-64988095D01*
X126912857Y-64702381D02*
X127531905Y-64702381D01*
X127198571Y-65083333D01*
X127341429Y-65083333D01*
X127436667Y-65130952D01*
X127484286Y-65178571D01*
X127531905Y-65273810D01*
X127531905Y-65511905D01*
X127484286Y-65607143D01*
X127436667Y-65654762D01*
X127341429Y-65702381D01*
X127055714Y-65702381D01*
X126960476Y-65654762D01*
X126912857Y-65607143D01*
X125757143Y-74347143D02*
X125709524Y-74394762D01*
X125566667Y-74442381D01*
X125471429Y-74442381D01*
X125328571Y-74394762D01*
X125233333Y-74299524D01*
X125185714Y-74204286D01*
X125138095Y-74013810D01*
X125138095Y-73870952D01*
X125185714Y-73680476D01*
X125233333Y-73585238D01*
X125328571Y-73490000D01*
X125471429Y-73442381D01*
X125566667Y-73442381D01*
X125709524Y-73490000D01*
X125757143Y-73537619D01*
X126709524Y-74442381D02*
X126138095Y-74442381D01*
X126423809Y-74442381D02*
X126423809Y-73442381D01*
X126328571Y-73585238D01*
X126233333Y-73680476D01*
X126138095Y-73728095D01*
X127566667Y-73775714D02*
X127566667Y-74442381D01*
X127328571Y-73394762D02*
X127090476Y-74109048D01*
X127709524Y-74109048D01*
X107053143Y-77085143D02*
X107005524Y-77132762D01*
X106862667Y-77180381D01*
X106767429Y-77180381D01*
X106624571Y-77132762D01*
X106529333Y-77037524D01*
X106481714Y-76942286D01*
X106434095Y-76751810D01*
X106434095Y-76608952D01*
X106481714Y-76418476D01*
X106529333Y-76323238D01*
X106624571Y-76228000D01*
X106767429Y-76180381D01*
X106862667Y-76180381D01*
X107005524Y-76228000D01*
X107053143Y-76275619D01*
X108005524Y-77180381D02*
X107434095Y-77180381D01*
X107719809Y-77180381D02*
X107719809Y-76180381D01*
X107624571Y-76323238D01*
X107529333Y-76418476D01*
X107434095Y-76466095D01*
X108910286Y-76180381D02*
X108434095Y-76180381D01*
X108386476Y-76656571D01*
X108434095Y-76608952D01*
X108529333Y-76561333D01*
X108767429Y-76561333D01*
X108862667Y-76608952D01*
X108910286Y-76656571D01*
X108957905Y-76751810D01*
X108957905Y-76989905D01*
X108910286Y-77085143D01*
X108862667Y-77132762D01*
X108767429Y-77180381D01*
X108529333Y-77180381D01*
X108434095Y-77132762D01*
X108386476Y-77085143D01*
X107053143Y-79625143D02*
X107005524Y-79672762D01*
X106862667Y-79720381D01*
X106767429Y-79720381D01*
X106624571Y-79672762D01*
X106529333Y-79577524D01*
X106481714Y-79482286D01*
X106434095Y-79291810D01*
X106434095Y-79148952D01*
X106481714Y-78958476D01*
X106529333Y-78863238D01*
X106624571Y-78768000D01*
X106767429Y-78720381D01*
X106862667Y-78720381D01*
X107005524Y-78768000D01*
X107053143Y-78815619D01*
X108005524Y-79720381D02*
X107434095Y-79720381D01*
X107719809Y-79720381D02*
X107719809Y-78720381D01*
X107624571Y-78863238D01*
X107529333Y-78958476D01*
X107434095Y-79006095D01*
X108862667Y-78720381D02*
X108672190Y-78720381D01*
X108576952Y-78768000D01*
X108529333Y-78815619D01*
X108434095Y-78958476D01*
X108386476Y-79148952D01*
X108386476Y-79529905D01*
X108434095Y-79625143D01*
X108481714Y-79672762D01*
X108576952Y-79720381D01*
X108767429Y-79720381D01*
X108862667Y-79672762D01*
X108910286Y-79625143D01*
X108957905Y-79529905D01*
X108957905Y-79291810D01*
X108910286Y-79196571D01*
X108862667Y-79148952D01*
X108767429Y-79101333D01*
X108576952Y-79101333D01*
X108481714Y-79148952D01*
X108434095Y-79196571D01*
X108386476Y-79291810D01*
X107053143Y-82165143D02*
X107005524Y-82212762D01*
X106862667Y-82260381D01*
X106767429Y-82260381D01*
X106624571Y-82212762D01*
X106529333Y-82117524D01*
X106481714Y-82022286D01*
X106434095Y-81831810D01*
X106434095Y-81688952D01*
X106481714Y-81498476D01*
X106529333Y-81403238D01*
X106624571Y-81308000D01*
X106767429Y-81260381D01*
X106862667Y-81260381D01*
X107005524Y-81308000D01*
X107053143Y-81355619D01*
X108005524Y-82260381D02*
X107434095Y-82260381D01*
X107719809Y-82260381D02*
X107719809Y-81260381D01*
X107624571Y-81403238D01*
X107529333Y-81498476D01*
X107434095Y-81546095D01*
X108338857Y-81260381D02*
X109005524Y-81260381D01*
X108576952Y-82260381D01*
X107053143Y-84705143D02*
X107005524Y-84752762D01*
X106862667Y-84800381D01*
X106767429Y-84800381D01*
X106624571Y-84752762D01*
X106529333Y-84657524D01*
X106481714Y-84562286D01*
X106434095Y-84371810D01*
X106434095Y-84228952D01*
X106481714Y-84038476D01*
X106529333Y-83943238D01*
X106624571Y-83848000D01*
X106767429Y-83800381D01*
X106862667Y-83800381D01*
X107005524Y-83848000D01*
X107053143Y-83895619D01*
X108005524Y-84800381D02*
X107434095Y-84800381D01*
X107719809Y-84800381D02*
X107719809Y-83800381D01*
X107624571Y-83943238D01*
X107529333Y-84038476D01*
X107434095Y-84086095D01*
X108576952Y-84228952D02*
X108481714Y-84181333D01*
X108434095Y-84133714D01*
X108386476Y-84038476D01*
X108386476Y-83990857D01*
X108434095Y-83895619D01*
X108481714Y-83848000D01*
X108576952Y-83800381D01*
X108767429Y-83800381D01*
X108862667Y-83848000D01*
X108910286Y-83895619D01*
X108957905Y-83990857D01*
X108957905Y-84038476D01*
X108910286Y-84133714D01*
X108862667Y-84181333D01*
X108767429Y-84228952D01*
X108576952Y-84228952D01*
X108481714Y-84276571D01*
X108434095Y-84324190D01*
X108386476Y-84419429D01*
X108386476Y-84609905D01*
X108434095Y-84705143D01*
X108481714Y-84752762D01*
X108576952Y-84800381D01*
X108767429Y-84800381D01*
X108862667Y-84752762D01*
X108910286Y-84705143D01*
X108957905Y-84609905D01*
X108957905Y-84419429D01*
X108910286Y-84324190D01*
X108862667Y-84276571D01*
X108767429Y-84228952D01*
X91241905Y-84502381D02*
X91241905Y-83502381D01*
X91480000Y-83502381D01*
X91622858Y-83550000D01*
X91718096Y-83645238D01*
X91765715Y-83740476D01*
X91813334Y-83930952D01*
X91813334Y-84073810D01*
X91765715Y-84264286D01*
X91718096Y-84359524D01*
X91622858Y-84454762D01*
X91480000Y-84502381D01*
X91241905Y-84502381D01*
X92718096Y-83502381D02*
X92241905Y-83502381D01*
X92194286Y-83978571D01*
X92241905Y-83930952D01*
X92337143Y-83883333D01*
X92575239Y-83883333D01*
X92670477Y-83930952D01*
X92718096Y-83978571D01*
X92765715Y-84073810D01*
X92765715Y-84311905D01*
X92718096Y-84407143D01*
X92670477Y-84454762D01*
X92575239Y-84502381D01*
X92337143Y-84502381D01*
X92241905Y-84454762D01*
X92194286Y-84407143D01*
X137902381Y-103238095D02*
X136902381Y-103238095D01*
X136902381Y-103000000D01*
X136950000Y-102857142D01*
X137045238Y-102761904D01*
X137140476Y-102714285D01*
X137330952Y-102666666D01*
X137473810Y-102666666D01*
X137664286Y-102714285D01*
X137759524Y-102761904D01*
X137854762Y-102857142D01*
X137902381Y-103000000D01*
X137902381Y-103238095D01*
X136902381Y-101809523D02*
X136902381Y-102000000D01*
X136950000Y-102095238D01*
X136997619Y-102142857D01*
X137140476Y-102238095D01*
X137330952Y-102285714D01*
X137711905Y-102285714D01*
X137807143Y-102238095D01*
X137854762Y-102190476D01*
X137902381Y-102095238D01*
X137902381Y-101904761D01*
X137854762Y-101809523D01*
X137807143Y-101761904D01*
X137711905Y-101714285D01*
X137473810Y-101714285D01*
X137378571Y-101761904D01*
X137330952Y-101809523D01*
X137283333Y-101904761D01*
X137283333Y-102095238D01*
X137330952Y-102190476D01*
X137378571Y-102238095D01*
X137473810Y-102285714D01*
X143542381Y-120878095D02*
X142542381Y-120878095D01*
X142542381Y-120640000D01*
X142590000Y-120497142D01*
X142685238Y-120401904D01*
X142780476Y-120354285D01*
X142970952Y-120306666D01*
X143113810Y-120306666D01*
X143304286Y-120354285D01*
X143399524Y-120401904D01*
X143494762Y-120497142D01*
X143542381Y-120640000D01*
X143542381Y-120878095D01*
X142542381Y-119973333D02*
X142542381Y-119306666D01*
X143542381Y-119735238D01*
X138212381Y-69808095D02*
X137212381Y-69808095D01*
X137212381Y-69570000D01*
X137260000Y-69427142D01*
X137355238Y-69331904D01*
X137450476Y-69284285D01*
X137640952Y-69236666D01*
X137783810Y-69236666D01*
X137974286Y-69284285D01*
X138069524Y-69331904D01*
X138164762Y-69427142D01*
X138212381Y-69570000D01*
X138212381Y-69808095D01*
X137640952Y-68665238D02*
X137593333Y-68760476D01*
X137545714Y-68808095D01*
X137450476Y-68855714D01*
X137402857Y-68855714D01*
X137307619Y-68808095D01*
X137260000Y-68760476D01*
X137212381Y-68665238D01*
X137212381Y-68474761D01*
X137260000Y-68379523D01*
X137307619Y-68331904D01*
X137402857Y-68284285D01*
X137450476Y-68284285D01*
X137545714Y-68331904D01*
X137593333Y-68379523D01*
X137640952Y-68474761D01*
X137640952Y-68665238D01*
X137688571Y-68760476D01*
X137736190Y-68808095D01*
X137831429Y-68855714D01*
X138021905Y-68855714D01*
X138117143Y-68808095D01*
X138164762Y-68760476D01*
X138212381Y-68665238D01*
X138212381Y-68474761D01*
X138164762Y-68379523D01*
X138117143Y-68331904D01*
X138021905Y-68284285D01*
X137831429Y-68284285D01*
X137736190Y-68331904D01*
X137688571Y-68379523D01*
X137640952Y-68474761D01*
X143242381Y-87838095D02*
X142242381Y-87838095D01*
X142242381Y-87600000D01*
X142290000Y-87457142D01*
X142385238Y-87361904D01*
X142480476Y-87314285D01*
X142670952Y-87266666D01*
X142813810Y-87266666D01*
X143004286Y-87314285D01*
X143099524Y-87361904D01*
X143194762Y-87457142D01*
X143242381Y-87600000D01*
X143242381Y-87838095D01*
X143242381Y-86790476D02*
X143242381Y-86600000D01*
X143194762Y-86504761D01*
X143147143Y-86457142D01*
X143004286Y-86361904D01*
X142813810Y-86314285D01*
X142432857Y-86314285D01*
X142337619Y-86361904D01*
X142290000Y-86409523D01*
X142242381Y-86504761D01*
X142242381Y-86695238D01*
X142290000Y-86790476D01*
X142337619Y-86838095D01*
X142432857Y-86885714D01*
X142670952Y-86885714D01*
X142766190Y-86838095D01*
X142813810Y-86790476D01*
X142861429Y-86695238D01*
X142861429Y-86504761D01*
X142813810Y-86409523D01*
X142766190Y-86361904D01*
X142670952Y-86314285D01*
X169932381Y-55413333D02*
X170646667Y-55413333D01*
X170789524Y-55460953D01*
X170884762Y-55556191D01*
X170932381Y-55699048D01*
X170932381Y-55794286D01*
X170932381Y-54413333D02*
X170932381Y-54984762D01*
X170932381Y-54699048D02*
X169932381Y-54699048D01*
X170075238Y-54794286D01*
X170170476Y-54889524D01*
X170218095Y-54984762D01*
X70956667Y-44592381D02*
X70956667Y-45306667D01*
X70909047Y-45449524D01*
X70813809Y-45544762D01*
X70670952Y-45592381D01*
X70575714Y-45592381D01*
X71385238Y-44687619D02*
X71432857Y-44640000D01*
X71528095Y-44592381D01*
X71766191Y-44592381D01*
X71861429Y-44640000D01*
X71909048Y-44687619D01*
X71956667Y-44782857D01*
X71956667Y-44878095D01*
X71909048Y-45020952D01*
X71337619Y-45592381D01*
X71956667Y-45592381D01*
X111934667Y-66000381D02*
X111934667Y-66714667D01*
X111887047Y-66857524D01*
X111791809Y-66952762D01*
X111648952Y-67000381D01*
X111553714Y-67000381D01*
X112315619Y-66000381D02*
X112934667Y-66000381D01*
X112601333Y-66381333D01*
X112744191Y-66381333D01*
X112839429Y-66428952D01*
X112887048Y-66476571D01*
X112934667Y-66571810D01*
X112934667Y-66809905D01*
X112887048Y-66905143D01*
X112839429Y-66952762D01*
X112744191Y-67000381D01*
X112458476Y-67000381D01*
X112363238Y-66952762D01*
X112315619Y-66905143D01*
X131506667Y-104372381D02*
X131506667Y-105086667D01*
X131459047Y-105229524D01*
X131363809Y-105324762D01*
X131220952Y-105372381D01*
X131125714Y-105372381D01*
X132411429Y-104705714D02*
X132411429Y-105372381D01*
X132173333Y-104324762D02*
X131935238Y-105039048D01*
X132554286Y-105039048D01*
X99442381Y-129953333D02*
X100156667Y-129953333D01*
X100299524Y-130000953D01*
X100394762Y-130096191D01*
X100442381Y-130239048D01*
X100442381Y-130334286D01*
X99442381Y-129000952D02*
X99442381Y-129477143D01*
X99918571Y-129524762D01*
X99870952Y-129477143D01*
X99823333Y-129381905D01*
X99823333Y-129143809D01*
X99870952Y-129048571D01*
X99918571Y-129000952D01*
X100013810Y-128953333D01*
X100251905Y-128953333D01*
X100347143Y-129000952D01*
X100394762Y-129048571D01*
X100442381Y-129143809D01*
X100442381Y-129381905D01*
X100394762Y-129477143D01*
X100347143Y-129524762D01*
X135332381Y-130003333D02*
X136046667Y-130003333D01*
X136189524Y-130050953D01*
X136284762Y-130146191D01*
X136332381Y-130289048D01*
X136332381Y-130384286D01*
X135332381Y-129098571D02*
X135332381Y-129289048D01*
X135380000Y-129384286D01*
X135427619Y-129431905D01*
X135570476Y-129527143D01*
X135760952Y-129574762D01*
X136141905Y-129574762D01*
X136237143Y-129527143D01*
X136284762Y-129479524D01*
X136332381Y-129384286D01*
X136332381Y-129193809D01*
X136284762Y-129098571D01*
X136237143Y-129050952D01*
X136141905Y-129003333D01*
X135903810Y-129003333D01*
X135808571Y-129050952D01*
X135760952Y-129098571D01*
X135713333Y-129193809D01*
X135713333Y-129384286D01*
X135760952Y-129479524D01*
X135808571Y-129527143D01*
X135903810Y-129574762D01*
X100842381Y-64087333D02*
X101556667Y-64087333D01*
X101699524Y-64134953D01*
X101794762Y-64230191D01*
X101842381Y-64373048D01*
X101842381Y-64468286D01*
X100842381Y-63706381D02*
X100842381Y-63039714D01*
X101842381Y-63468286D01*
X114812381Y-64087333D02*
X115526667Y-64087333D01*
X115669524Y-64134953D01*
X115764762Y-64230191D01*
X115812381Y-64373048D01*
X115812381Y-64468286D01*
X115240952Y-63468286D02*
X115193333Y-63563524D01*
X115145714Y-63611143D01*
X115050476Y-63658762D01*
X115002857Y-63658762D01*
X114907619Y-63611143D01*
X114860000Y-63563524D01*
X114812381Y-63468286D01*
X114812381Y-63277809D01*
X114860000Y-63182571D01*
X114907619Y-63134952D01*
X115002857Y-63087333D01*
X115050476Y-63087333D01*
X115145714Y-63134952D01*
X115193333Y-63182571D01*
X115240952Y-63277809D01*
X115240952Y-63468286D01*
X115288571Y-63563524D01*
X115336190Y-63611143D01*
X115431429Y-63658762D01*
X115621905Y-63658762D01*
X115717143Y-63611143D01*
X115764762Y-63563524D01*
X115812381Y-63468286D01*
X115812381Y-63277809D01*
X115764762Y-63182571D01*
X115717143Y-63134952D01*
X115621905Y-63087333D01*
X115431429Y-63087333D01*
X115336190Y-63134952D01*
X115288571Y-63182571D01*
X115240952Y-63277809D01*
X148352381Y-95383333D02*
X149066667Y-95383333D01*
X149209524Y-95430953D01*
X149304762Y-95526191D01*
X149352381Y-95669048D01*
X149352381Y-95764286D01*
X149352381Y-94859524D02*
X149352381Y-94669048D01*
X149304762Y-94573809D01*
X149257143Y-94526190D01*
X149114286Y-94430952D01*
X148923810Y-94383333D01*
X148542857Y-94383333D01*
X148447619Y-94430952D01*
X148400000Y-94478571D01*
X148352381Y-94573809D01*
X148352381Y-94764286D01*
X148400000Y-94859524D01*
X148447619Y-94907143D01*
X148542857Y-94954762D01*
X148780952Y-94954762D01*
X148876190Y-94907143D01*
X148923810Y-94859524D01*
X148971429Y-94764286D01*
X148971429Y-94573809D01*
X148923810Y-94478571D01*
X148876190Y-94430952D01*
X148780952Y-94383333D01*
X156432381Y-129129523D02*
X157146667Y-129129523D01*
X157289524Y-129177143D01*
X157384762Y-129272381D01*
X157432381Y-129415238D01*
X157432381Y-129510476D01*
X157432381Y-128129523D02*
X157432381Y-128700952D01*
X157432381Y-128415238D02*
X156432381Y-128415238D01*
X156575238Y-128510476D01*
X156670476Y-128605714D01*
X156718095Y-128700952D01*
X156432381Y-127510476D02*
X156432381Y-127415237D01*
X156480000Y-127319999D01*
X156527619Y-127272380D01*
X156622857Y-127224761D01*
X156813333Y-127177142D01*
X157051429Y-127177142D01*
X157241905Y-127224761D01*
X157337143Y-127272380D01*
X157384762Y-127319999D01*
X157432381Y-127415237D01*
X157432381Y-127510476D01*
X157384762Y-127605714D01*
X157337143Y-127653333D01*
X157241905Y-127700952D01*
X157051429Y-127748571D01*
X156813333Y-127748571D01*
X156622857Y-127700952D01*
X156527619Y-127653333D01*
X156480000Y-127605714D01*
X156432381Y-127510476D01*
X158832381Y-119569523D02*
X159546667Y-119569523D01*
X159689524Y-119617143D01*
X159784762Y-119712381D01*
X159832381Y-119855238D01*
X159832381Y-119950476D01*
X159832381Y-118569523D02*
X159832381Y-119140952D01*
X159832381Y-118855238D02*
X158832381Y-118855238D01*
X158975238Y-118950476D01*
X159070476Y-119045714D01*
X159118095Y-119140952D01*
X159832381Y-117617142D02*
X159832381Y-118188571D01*
X159832381Y-117902857D02*
X158832381Y-117902857D01*
X158975238Y-117998095D01*
X159070476Y-118093333D01*
X159118095Y-118188571D01*
X148372381Y-61979523D02*
X149086667Y-61979523D01*
X149229524Y-62027143D01*
X149324762Y-62122381D01*
X149372381Y-62265238D01*
X149372381Y-62360476D01*
X149372381Y-60979523D02*
X149372381Y-61550952D01*
X149372381Y-61265238D02*
X148372381Y-61265238D01*
X148515238Y-61360476D01*
X148610476Y-61455714D01*
X148658095Y-61550952D01*
X148467619Y-60598571D02*
X148420000Y-60550952D01*
X148372381Y-60455714D01*
X148372381Y-60217618D01*
X148420000Y-60122380D01*
X148467619Y-60074761D01*
X148562857Y-60027142D01*
X148658095Y-60027142D01*
X148800952Y-60074761D01*
X149372381Y-60646190D01*
X149372381Y-60027142D01*
X156472381Y-95659523D02*
X157186667Y-95659523D01*
X157329524Y-95707143D01*
X157424762Y-95802381D01*
X157472381Y-95945238D01*
X157472381Y-96040476D01*
X157472381Y-94659523D02*
X157472381Y-95230952D01*
X157472381Y-94945238D02*
X156472381Y-94945238D01*
X156615238Y-95040476D01*
X156710476Y-95135714D01*
X156758095Y-95230952D01*
X156472381Y-94326190D02*
X156472381Y-93707142D01*
X156853333Y-94040476D01*
X156853333Y-93897618D01*
X156900952Y-93802380D01*
X156948571Y-93754761D01*
X157043810Y-93707142D01*
X157281905Y-93707142D01*
X157377143Y-93754761D01*
X157424762Y-93802380D01*
X157472381Y-93897618D01*
X157472381Y-94183333D01*
X157424762Y-94278571D01*
X157377143Y-94326190D01*
X181808381Y-78382523D02*
X182522667Y-78382523D01*
X182665524Y-78430143D01*
X182760762Y-78525381D01*
X182808381Y-78668238D01*
X182808381Y-78763476D01*
X182808381Y-77382523D02*
X182808381Y-77953952D01*
X182808381Y-77668238D02*
X181808381Y-77668238D01*
X181951238Y-77763476D01*
X182046476Y-77858714D01*
X182094095Y-77953952D01*
X182141714Y-76525380D02*
X182808381Y-76525380D01*
X181760762Y-76763476D02*
X182475048Y-77001571D01*
X182475048Y-76382523D01*
X129715477Y-56742381D02*
X129715477Y-57456667D01*
X129667857Y-57599524D01*
X129572619Y-57694762D01*
X129429762Y-57742381D01*
X129334524Y-57742381D01*
X130715477Y-57742381D02*
X130144048Y-57742381D01*
X130429762Y-57742381D02*
X130429762Y-56742381D01*
X130334524Y-56885238D01*
X130239286Y-56980476D01*
X130144048Y-57028095D01*
X131620239Y-56742381D02*
X131144048Y-56742381D01*
X131096429Y-57218571D01*
X131144048Y-57170952D01*
X131239286Y-57123333D01*
X131477382Y-57123333D01*
X131572620Y-57170952D01*
X131620239Y-57218571D01*
X131667858Y-57313810D01*
X131667858Y-57551905D01*
X131620239Y-57647143D01*
X131572620Y-57694762D01*
X131477382Y-57742381D01*
X131239286Y-57742381D01*
X131144048Y-57694762D01*
X131096429Y-57647143D01*
X77920477Y-35882381D02*
X77920477Y-36596667D01*
X77872857Y-36739524D01*
X77777619Y-36834762D01*
X77634762Y-36882381D01*
X77539524Y-36882381D01*
X78920477Y-36882381D02*
X78349048Y-36882381D01*
X78634762Y-36882381D02*
X78634762Y-35882381D01*
X78539524Y-36025238D01*
X78444286Y-36120476D01*
X78349048Y-36168095D01*
X79777620Y-35882381D02*
X79587143Y-35882381D01*
X79491905Y-35930000D01*
X79444286Y-35977619D01*
X79349048Y-36120476D01*
X79301429Y-36310952D01*
X79301429Y-36691905D01*
X79349048Y-36787143D01*
X79396667Y-36834762D01*
X79491905Y-36882381D01*
X79682382Y-36882381D01*
X79777620Y-36834762D01*
X79825239Y-36787143D01*
X79872858Y-36691905D01*
X79872858Y-36453810D01*
X79825239Y-36358571D01*
X79777620Y-36310952D01*
X79682382Y-36263333D01*
X79491905Y-36263333D01*
X79396667Y-36310952D01*
X79349048Y-36358571D01*
X79301429Y-36453810D01*
X150735477Y-55717381D02*
X150735477Y-56431667D01*
X150687857Y-56574524D01*
X150592619Y-56669762D01*
X150449762Y-56717381D01*
X150354524Y-56717381D01*
X151735477Y-56717381D02*
X151164048Y-56717381D01*
X151449762Y-56717381D02*
X151449762Y-55717381D01*
X151354524Y-55860238D01*
X151259286Y-55955476D01*
X151164048Y-56003095D01*
X152068810Y-55717381D02*
X152735477Y-55717381D01*
X152306905Y-56717381D01*
X86342381Y-116509523D02*
X87056667Y-116509523D01*
X87199524Y-116557143D01*
X87294762Y-116652381D01*
X87342381Y-116795238D01*
X87342381Y-116890476D01*
X87342381Y-115509523D02*
X87342381Y-116080952D01*
X87342381Y-115795238D02*
X86342381Y-115795238D01*
X86485238Y-115890476D01*
X86580476Y-115985714D01*
X86628095Y-116080952D01*
X86770952Y-114938095D02*
X86723333Y-115033333D01*
X86675714Y-115080952D01*
X86580476Y-115128571D01*
X86532857Y-115128571D01*
X86437619Y-115080952D01*
X86390000Y-115033333D01*
X86342381Y-114938095D01*
X86342381Y-114747618D01*
X86390000Y-114652380D01*
X86437619Y-114604761D01*
X86532857Y-114557142D01*
X86580476Y-114557142D01*
X86675714Y-114604761D01*
X86723333Y-114652380D01*
X86770952Y-114747618D01*
X86770952Y-114938095D01*
X86818571Y-115033333D01*
X86866190Y-115080952D01*
X86961429Y-115128571D01*
X87151905Y-115128571D01*
X87247143Y-115080952D01*
X87294762Y-115033333D01*
X87342381Y-114938095D01*
X87342381Y-114747618D01*
X87294762Y-114652380D01*
X87247143Y-114604761D01*
X87151905Y-114557142D01*
X86961429Y-114557142D01*
X86866190Y-114604761D01*
X86818571Y-114652380D01*
X86770952Y-114747618D01*
X64406381Y-89186523D02*
X65120667Y-89186523D01*
X65263524Y-89234143D01*
X65358762Y-89329381D01*
X65406381Y-89472238D01*
X65406381Y-89567476D01*
X64501619Y-88757952D02*
X64454000Y-88710333D01*
X64406381Y-88615095D01*
X64406381Y-88376999D01*
X64454000Y-88281761D01*
X64501619Y-88234142D01*
X64596857Y-88186523D01*
X64692095Y-88186523D01*
X64834952Y-88234142D01*
X65406381Y-88805571D01*
X65406381Y-88186523D01*
X64406381Y-87567476D02*
X64406381Y-87472237D01*
X64454000Y-87376999D01*
X64501619Y-87329380D01*
X64596857Y-87281761D01*
X64787333Y-87234142D01*
X65025429Y-87234142D01*
X65215905Y-87281761D01*
X65311143Y-87329380D01*
X65358762Y-87376999D01*
X65406381Y-87472237D01*
X65406381Y-87567476D01*
X65358762Y-87662714D01*
X65311143Y-87710333D01*
X65215905Y-87757952D01*
X65025429Y-87805571D01*
X64787333Y-87805571D01*
X64596857Y-87757952D01*
X64501619Y-87710333D01*
X64454000Y-87662714D01*
X64406381Y-87567476D01*
X103583477Y-33866381D02*
X103583477Y-34580667D01*
X103535857Y-34723524D01*
X103440619Y-34818762D01*
X103297762Y-34866381D01*
X103202524Y-34866381D01*
X104012048Y-33961619D02*
X104059667Y-33914000D01*
X104154905Y-33866381D01*
X104393001Y-33866381D01*
X104488239Y-33914000D01*
X104535858Y-33961619D01*
X104583477Y-34056857D01*
X104583477Y-34152095D01*
X104535858Y-34294952D01*
X103964429Y-34866381D01*
X104583477Y-34866381D01*
X105535858Y-34866381D02*
X104964429Y-34866381D01*
X105250143Y-34866381D02*
X105250143Y-33866381D01*
X105154905Y-34009238D01*
X105059667Y-34104476D01*
X104964429Y-34152095D01*
X161043477Y-34006381D02*
X161043477Y-34720667D01*
X160995857Y-34863524D01*
X160900619Y-34958762D01*
X160757762Y-35006381D01*
X160662524Y-35006381D01*
X161472048Y-34101619D02*
X161519667Y-34054000D01*
X161614905Y-34006381D01*
X161853001Y-34006381D01*
X161948239Y-34054000D01*
X161995858Y-34101619D01*
X162043477Y-34196857D01*
X162043477Y-34292095D01*
X161995858Y-34434952D01*
X161424429Y-35006381D01*
X162043477Y-35006381D01*
X162424429Y-34101619D02*
X162472048Y-34054000D01*
X162567286Y-34006381D01*
X162805382Y-34006381D01*
X162900620Y-34054000D01*
X162948239Y-34101619D01*
X162995858Y-34196857D01*
X162995858Y-34292095D01*
X162948239Y-34434952D01*
X162376810Y-35006381D01*
X162995858Y-35006381D01*
X64406381Y-107226523D02*
X65120667Y-107226523D01*
X65263524Y-107274143D01*
X65358762Y-107369381D01*
X65406381Y-107512238D01*
X65406381Y-107607476D01*
X64501619Y-106797952D02*
X64454000Y-106750333D01*
X64406381Y-106655095D01*
X64406381Y-106416999D01*
X64454000Y-106321761D01*
X64501619Y-106274142D01*
X64596857Y-106226523D01*
X64692095Y-106226523D01*
X64834952Y-106274142D01*
X65406381Y-106845571D01*
X65406381Y-106226523D01*
X64406381Y-105893190D02*
X64406381Y-105274142D01*
X64787333Y-105607476D01*
X64787333Y-105464618D01*
X64834952Y-105369380D01*
X64882571Y-105321761D01*
X64977810Y-105274142D01*
X65215905Y-105274142D01*
X65311143Y-105321761D01*
X65358762Y-105369380D01*
X65406381Y-105464618D01*
X65406381Y-105750333D01*
X65358762Y-105845571D01*
X65311143Y-105893190D01*
X84517381Y-59854523D02*
X85231667Y-59854523D01*
X85374524Y-59902143D01*
X85469762Y-59997381D01*
X85517381Y-60140238D01*
X85517381Y-60235476D01*
X84612619Y-59425952D02*
X84565000Y-59378333D01*
X84517381Y-59283095D01*
X84517381Y-59044999D01*
X84565000Y-58949761D01*
X84612619Y-58902142D01*
X84707857Y-58854523D01*
X84803095Y-58854523D01*
X84945952Y-58902142D01*
X85517381Y-59473571D01*
X85517381Y-58854523D01*
X84517381Y-57949761D02*
X84517381Y-58425952D01*
X84993571Y-58473571D01*
X84945952Y-58425952D01*
X84898333Y-58330714D01*
X84898333Y-58092618D01*
X84945952Y-57997380D01*
X84993571Y-57949761D01*
X85088810Y-57902142D01*
X85326905Y-57902142D01*
X85422143Y-57949761D01*
X85469762Y-57997380D01*
X85517381Y-58092618D01*
X85517381Y-58330714D01*
X85469762Y-58425952D01*
X85422143Y-58473571D01*
X87042381Y-103969523D02*
X87756667Y-103969523D01*
X87899524Y-104017143D01*
X87994762Y-104112381D01*
X88042381Y-104255238D01*
X88042381Y-104350476D01*
X87137619Y-103540952D02*
X87090000Y-103493333D01*
X87042381Y-103398095D01*
X87042381Y-103159999D01*
X87090000Y-103064761D01*
X87137619Y-103017142D01*
X87232857Y-102969523D01*
X87328095Y-102969523D01*
X87470952Y-103017142D01*
X88042381Y-103588571D01*
X88042381Y-102969523D01*
X87042381Y-102112380D02*
X87042381Y-102302857D01*
X87090000Y-102398095D01*
X87137619Y-102445714D01*
X87280476Y-102540952D01*
X87470952Y-102588571D01*
X87851905Y-102588571D01*
X87947143Y-102540952D01*
X87994762Y-102493333D01*
X88042381Y-102398095D01*
X88042381Y-102207618D01*
X87994762Y-102112380D01*
X87947143Y-102064761D01*
X87851905Y-102017142D01*
X87613810Y-102017142D01*
X87518571Y-102064761D01*
X87470952Y-102112380D01*
X87423333Y-102207618D01*
X87423333Y-102398095D01*
X87470952Y-102493333D01*
X87518571Y-102540952D01*
X87613810Y-102588571D01*
X87432381Y-108629523D02*
X88146667Y-108629523D01*
X88289524Y-108677143D01*
X88384762Y-108772381D01*
X88432381Y-108915238D01*
X88432381Y-109010476D01*
X87527619Y-108200952D02*
X87480000Y-108153333D01*
X87432381Y-108058095D01*
X87432381Y-107819999D01*
X87480000Y-107724761D01*
X87527619Y-107677142D01*
X87622857Y-107629523D01*
X87718095Y-107629523D01*
X87860952Y-107677142D01*
X88432381Y-108248571D01*
X88432381Y-107629523D01*
X87432381Y-107296190D02*
X87432381Y-106629523D01*
X88432381Y-107058095D01*
X89220477Y-99142381D02*
X89220477Y-99856667D01*
X89172857Y-99999524D01*
X89077619Y-100094762D01*
X88934762Y-100142381D01*
X88839524Y-100142381D01*
X89649048Y-99237619D02*
X89696667Y-99190000D01*
X89791905Y-99142381D01*
X90030001Y-99142381D01*
X90125239Y-99190000D01*
X90172858Y-99237619D01*
X90220477Y-99332857D01*
X90220477Y-99428095D01*
X90172858Y-99570952D01*
X89601429Y-100142381D01*
X90220477Y-100142381D01*
X90791905Y-99570952D02*
X90696667Y-99523333D01*
X90649048Y-99475714D01*
X90601429Y-99380476D01*
X90601429Y-99332857D01*
X90649048Y-99237619D01*
X90696667Y-99190000D01*
X90791905Y-99142381D01*
X90982382Y-99142381D01*
X91077620Y-99190000D01*
X91125239Y-99237619D01*
X91172858Y-99332857D01*
X91172858Y-99380476D01*
X91125239Y-99475714D01*
X91077620Y-99523333D01*
X90982382Y-99570952D01*
X90791905Y-99570952D01*
X90696667Y-99618571D01*
X90649048Y-99666190D01*
X90601429Y-99761429D01*
X90601429Y-99951905D01*
X90649048Y-100047143D01*
X90696667Y-100094762D01*
X90791905Y-100142381D01*
X90982382Y-100142381D01*
X91077620Y-100094762D01*
X91125239Y-100047143D01*
X91172858Y-99951905D01*
X91172858Y-99761429D01*
X91125239Y-99666190D01*
X91077620Y-99618571D01*
X90982382Y-99570952D01*
X89320477Y-89252381D02*
X89320477Y-89966667D01*
X89272857Y-90109524D01*
X89177619Y-90204762D01*
X89034762Y-90252381D01*
X88939524Y-90252381D01*
X89749048Y-89347619D02*
X89796667Y-89300000D01*
X89891905Y-89252381D01*
X90130001Y-89252381D01*
X90225239Y-89300000D01*
X90272858Y-89347619D01*
X90320477Y-89442857D01*
X90320477Y-89538095D01*
X90272858Y-89680952D01*
X89701429Y-90252381D01*
X90320477Y-90252381D01*
X90796667Y-90252381D02*
X90987143Y-90252381D01*
X91082382Y-90204762D01*
X91130001Y-90157143D01*
X91225239Y-90014286D01*
X91272858Y-89823810D01*
X91272858Y-89442857D01*
X91225239Y-89347619D01*
X91177620Y-89300000D01*
X91082382Y-89252381D01*
X90891905Y-89252381D01*
X90796667Y-89300000D01*
X90749048Y-89347619D01*
X90701429Y-89442857D01*
X90701429Y-89680952D01*
X90749048Y-89776190D01*
X90796667Y-89823810D01*
X90891905Y-89871429D01*
X91082382Y-89871429D01*
X91177620Y-89823810D01*
X91225239Y-89776190D01*
X91272858Y-89680952D01*
X97063334Y-84692381D02*
X96730000Y-84216190D01*
X96491905Y-84692381D02*
X96491905Y-83692381D01*
X96872858Y-83692381D01*
X96968096Y-83740000D01*
X97015715Y-83787619D01*
X97063334Y-83882857D01*
X97063334Y-84025714D01*
X97015715Y-84120952D01*
X96968096Y-84168571D01*
X96872858Y-84216190D01*
X96491905Y-84216190D01*
X97396667Y-83692381D02*
X98063334Y-83692381D01*
X97634762Y-84692381D01*
X129713334Y-127562381D02*
X129380000Y-127086190D01*
X129141905Y-127562381D02*
X129141905Y-126562381D01*
X129522858Y-126562381D01*
X129618096Y-126610000D01*
X129665715Y-126657619D01*
X129713334Y-126752857D01*
X129713334Y-126895714D01*
X129665715Y-126990952D01*
X129618096Y-127038571D01*
X129522858Y-127086190D01*
X129141905Y-127086190D01*
X130284762Y-126990952D02*
X130189524Y-126943333D01*
X130141905Y-126895714D01*
X130094286Y-126800476D01*
X130094286Y-126752857D01*
X130141905Y-126657619D01*
X130189524Y-126610000D01*
X130284762Y-126562381D01*
X130475239Y-126562381D01*
X130570477Y-126610000D01*
X130618096Y-126657619D01*
X130665715Y-126752857D01*
X130665715Y-126800476D01*
X130618096Y-126895714D01*
X130570477Y-126943333D01*
X130475239Y-126990952D01*
X130284762Y-126990952D01*
X130189524Y-127038571D01*
X130141905Y-127086190D01*
X130094286Y-127181429D01*
X130094286Y-127371905D01*
X130141905Y-127467143D01*
X130189524Y-127514762D01*
X130284762Y-127562381D01*
X130475239Y-127562381D01*
X130570477Y-127514762D01*
X130618096Y-127467143D01*
X130665715Y-127371905D01*
X130665715Y-127181429D01*
X130618096Y-127086190D01*
X130570477Y-127038571D01*
X130475239Y-126990952D01*
X123103334Y-123242381D02*
X122770000Y-122766190D01*
X122531905Y-123242381D02*
X122531905Y-122242381D01*
X122912858Y-122242381D01*
X123008096Y-122290000D01*
X123055715Y-122337619D01*
X123103334Y-122432857D01*
X123103334Y-122575714D01*
X123055715Y-122670952D01*
X123008096Y-122718571D01*
X122912858Y-122766190D01*
X122531905Y-122766190D01*
X123579524Y-123242381D02*
X123770000Y-123242381D01*
X123865239Y-123194762D01*
X123912858Y-123147143D01*
X124008096Y-123004286D01*
X124055715Y-122813810D01*
X124055715Y-122432857D01*
X124008096Y-122337619D01*
X123960477Y-122290000D01*
X123865239Y-122242381D01*
X123674762Y-122242381D01*
X123579524Y-122290000D01*
X123531905Y-122337619D01*
X123484286Y-122432857D01*
X123484286Y-122670952D01*
X123531905Y-122766190D01*
X123579524Y-122813810D01*
X123674762Y-122861429D01*
X123865239Y-122861429D01*
X123960477Y-122813810D01*
X124008096Y-122766190D01*
X124055715Y-122670952D01*
X116556190Y-81248191D02*
X117032381Y-81248191D01*
X116032381Y-81581524D02*
X116556190Y-81248191D01*
X116032381Y-80914857D01*
X117032381Y-80057714D02*
X117032381Y-80629143D01*
X117032381Y-80343429D02*
X116032381Y-80343429D01*
X116175238Y-80438667D01*
X116270476Y-80533905D01*
X116318095Y-80629143D01*
X125539642Y-68486190D02*
X125539642Y-68962381D01*
X125206309Y-67962381D02*
X125539642Y-68486190D01*
X125872976Y-67962381D01*
X126158690Y-68057619D02*
X126206309Y-68010000D01*
X126301547Y-67962381D01*
X126539643Y-67962381D01*
X126634881Y-68010000D01*
X126682500Y-68057619D01*
X126730119Y-68152857D01*
X126730119Y-68248095D01*
X126682500Y-68390952D01*
X126111071Y-68962381D01*
X126730119Y-68962381D01*
X143662381Y-116402857D02*
X143186190Y-116736191D01*
X143662381Y-116974286D02*
X142662381Y-116974286D01*
X142662381Y-116593333D01*
X142710000Y-116498095D01*
X142757619Y-116450476D01*
X142852857Y-116402857D01*
X142995714Y-116402857D01*
X143090952Y-116450476D01*
X143138571Y-116498095D01*
X143186190Y-116593333D01*
X143186190Y-116974286D01*
X143662381Y-115450476D02*
X143662381Y-116021905D01*
X143662381Y-115736191D02*
X142662381Y-115736191D01*
X142805238Y-115831429D01*
X142900476Y-115926667D01*
X142948095Y-116021905D01*
X143090952Y-114879048D02*
X143043333Y-114974286D01*
X142995714Y-115021905D01*
X142900476Y-115069524D01*
X142852857Y-115069524D01*
X142757619Y-115021905D01*
X142710000Y-114974286D01*
X142662381Y-114879048D01*
X142662381Y-114688571D01*
X142710000Y-114593333D01*
X142757619Y-114545714D01*
X142852857Y-114498095D01*
X142900476Y-114498095D01*
X142995714Y-114545714D01*
X143043333Y-114593333D01*
X143090952Y-114688571D01*
X143090952Y-114879048D01*
X143138571Y-114974286D01*
X143186190Y-115021905D01*
X143281429Y-115069524D01*
X143471905Y-115069524D01*
X143567143Y-115021905D01*
X143614762Y-114974286D01*
X143662381Y-114879048D01*
X143662381Y-114688571D01*
X143614762Y-114593333D01*
X143567143Y-114545714D01*
X143471905Y-114498095D01*
X143281429Y-114498095D01*
X143186190Y-114545714D01*
X143138571Y-114593333D01*
X143090952Y-114688571D01*
X140902381Y-74352857D02*
X140426190Y-74686191D01*
X140902381Y-74924286D02*
X139902381Y-74924286D01*
X139902381Y-74543333D01*
X139950000Y-74448095D01*
X139997619Y-74400476D01*
X140092857Y-74352857D01*
X140235714Y-74352857D01*
X140330952Y-74400476D01*
X140378571Y-74448095D01*
X140426190Y-74543333D01*
X140426190Y-74924286D01*
X140902381Y-73400476D02*
X140902381Y-73971905D01*
X140902381Y-73686191D02*
X139902381Y-73686191D01*
X140045238Y-73781429D01*
X140140476Y-73876667D01*
X140188095Y-73971905D01*
X140902381Y-72924286D02*
X140902381Y-72733810D01*
X140854762Y-72638571D01*
X140807143Y-72590952D01*
X140664286Y-72495714D01*
X140473810Y-72448095D01*
X140092857Y-72448095D01*
X139997619Y-72495714D01*
X139950000Y-72543333D01*
X139902381Y-72638571D01*
X139902381Y-72829048D01*
X139950000Y-72924286D01*
X139997619Y-72971905D01*
X140092857Y-73019524D01*
X140330952Y-73019524D01*
X140426190Y-72971905D01*
X140473810Y-72924286D01*
X140521429Y-72829048D01*
X140521429Y-72638571D01*
X140473810Y-72543333D01*
X140426190Y-72495714D01*
X140330952Y-72448095D01*
X140552381Y-83282857D02*
X140076190Y-83616191D01*
X140552381Y-83854286D02*
X139552381Y-83854286D01*
X139552381Y-83473333D01*
X139600000Y-83378095D01*
X139647619Y-83330476D01*
X139742857Y-83282857D01*
X139885714Y-83282857D01*
X139980952Y-83330476D01*
X140028571Y-83378095D01*
X140076190Y-83473333D01*
X140076190Y-83854286D01*
X139647619Y-82901905D02*
X139600000Y-82854286D01*
X139552381Y-82759048D01*
X139552381Y-82520952D01*
X139600000Y-82425714D01*
X139647619Y-82378095D01*
X139742857Y-82330476D01*
X139838095Y-82330476D01*
X139980952Y-82378095D01*
X140552381Y-82949524D01*
X140552381Y-82330476D01*
X139552381Y-81711429D02*
X139552381Y-81616190D01*
X139600000Y-81520952D01*
X139647619Y-81473333D01*
X139742857Y-81425714D01*
X139933333Y-81378095D01*
X140171429Y-81378095D01*
X140361905Y-81425714D01*
X140457143Y-81473333D01*
X140504762Y-81520952D01*
X140552381Y-81616190D01*
X140552381Y-81711429D01*
X140504762Y-81806667D01*
X140457143Y-81854286D01*
X140361905Y-81901905D01*
X140171429Y-81949524D01*
X139933333Y-81949524D01*
X139742857Y-81901905D01*
X139647619Y-81854286D01*
X139600000Y-81806667D01*
X139552381Y-81711429D01*
X137882381Y-107162857D02*
X137406190Y-107496191D01*
X137882381Y-107734286D02*
X136882381Y-107734286D01*
X136882381Y-107353333D01*
X136930000Y-107258095D01*
X136977619Y-107210476D01*
X137072857Y-107162857D01*
X137215714Y-107162857D01*
X137310952Y-107210476D01*
X137358571Y-107258095D01*
X137406190Y-107353333D01*
X137406190Y-107734286D01*
X136977619Y-106781905D02*
X136930000Y-106734286D01*
X136882381Y-106639048D01*
X136882381Y-106400952D01*
X136930000Y-106305714D01*
X136977619Y-106258095D01*
X137072857Y-106210476D01*
X137168095Y-106210476D01*
X137310952Y-106258095D01*
X137882381Y-106829524D01*
X137882381Y-106210476D01*
X137882381Y-105258095D02*
X137882381Y-105829524D01*
X137882381Y-105543810D02*
X136882381Y-105543810D01*
X137025238Y-105639048D01*
X137120476Y-105734286D01*
X137168095Y-105829524D01*
X100290476Y-91574381D02*
X100623809Y-92574381D01*
X100957143Y-91574381D01*
X101290476Y-92574381D02*
X101290476Y-91574381D01*
X101528571Y-91574381D01*
X101671429Y-91622000D01*
X101766667Y-91717238D01*
X101814286Y-91812476D01*
X101861905Y-92002952D01*
X101861905Y-92145810D01*
X101814286Y-92336286D01*
X101766667Y-92431524D01*
X101671429Y-92526762D01*
X101528571Y-92574381D01*
X101290476Y-92574381D01*
X102290476Y-92574381D02*
X102290476Y-91574381D01*
X102528571Y-91574381D01*
X102671429Y-91622000D01*
X102766667Y-91717238D01*
X102814286Y-91812476D01*
X102861905Y-92002952D01*
X102861905Y-92145810D01*
X102814286Y-92336286D01*
X102766667Y-92431524D01*
X102671429Y-92526762D01*
X102528571Y-92574381D01*
X102290476Y-92574381D01*
X103861905Y-92479143D02*
X103814286Y-92526762D01*
X103671429Y-92574381D01*
X103576191Y-92574381D01*
X103433333Y-92526762D01*
X103338095Y-92431524D01*
X103290476Y-92336286D01*
X103242857Y-92145810D01*
X103242857Y-92002952D01*
X103290476Y-91812476D01*
X103338095Y-91717238D01*
X103433333Y-91622000D01*
X103576191Y-91574381D01*
X103671429Y-91574381D01*
X103814286Y-91622000D01*
X103861905Y-91669619D01*
X104814286Y-92574381D02*
X104242857Y-92574381D01*
X104528571Y-92574381D02*
X104528571Y-91574381D01*
X104433333Y-91717238D01*
X104338095Y-91812476D01*
X104242857Y-91860095D01*
M02*
