G04 #@! TF.FileFunction,Copper,L2,Bot,Signal*
%FSLAX46Y46*%
G04 Gerber Fmt 4.6, Leading zero omitted, Abs format (unit mm)*
G04 Created by KiCad (PCBNEW 4.0.6) date 06/30/17 11:01:05*
%MOMM*%
%LPD*%
G01*
G04 APERTURE LIST*
%ADD10C,0.100000*%
%ADD11C,5.000000*%
%ADD12R,0.750000X1.200000*%
%ADD13R,1.200000X0.750000*%
%ADD14R,3.200000X1.500000*%
%ADD15R,1.500000X3.200000*%
%ADD16R,1.100000X1.100000*%
%ADD17R,3.600000X1.800000*%
%ADD18O,3.600000X1.800000*%
%ADD19R,1.700000X1.700000*%
%ADD20O,1.700000X1.700000*%
%ADD21R,7.300000X2.600000*%
%ADD22R,0.900000X1.200000*%
%ADD23R,1.200000X0.900000*%
%ADD24R,1.560000X0.650000*%
%ADD25R,1.000000X0.250000*%
%ADD26R,0.250000X1.000000*%
%ADD27R,1.143000X0.508000*%
%ADD28C,1.524000*%
%ADD29R,0.508000X1.143000*%
G04 APERTURE END LIST*
D10*
D11*
X71630000Y-40510000D03*
X93980000Y-130050000D03*
X177170000Y-130430000D03*
D12*
X136670000Y-50020000D03*
X136670000Y-48120000D03*
X155265000Y-50785000D03*
X155265000Y-48885000D03*
X138520000Y-48120000D03*
X138520000Y-50020000D03*
X159015000Y-48935000D03*
X159015000Y-50835000D03*
D13*
X144500000Y-53725000D03*
X146400000Y-53725000D03*
X162960000Y-53660000D03*
X164860000Y-53660000D03*
X142140000Y-40740000D03*
X144040000Y-40740000D03*
X165565000Y-40035000D03*
X167465000Y-40035000D03*
X142140000Y-39280000D03*
X144040000Y-39280000D03*
X165540000Y-38210000D03*
X167440000Y-38210000D03*
X96110000Y-79780000D03*
X94210000Y-79780000D03*
D12*
X107370000Y-71440000D03*
X107370000Y-69540000D03*
D13*
X118210000Y-79350000D03*
X120110000Y-79350000D03*
X118240000Y-81900000D03*
X120140000Y-81900000D03*
D12*
X108460000Y-91640000D03*
X108460000Y-93540000D03*
D13*
X96100000Y-84330000D03*
X94200000Y-84330000D03*
D14*
X75230000Y-75500000D03*
X79230000Y-75500000D03*
X75070000Y-72030000D03*
X79070000Y-72030000D03*
X74820000Y-67940000D03*
X78820000Y-67940000D03*
D15*
X72150000Y-82260000D03*
X72150000Y-86260000D03*
D14*
X74492000Y-118906000D03*
X70492000Y-118906000D03*
X74492000Y-114631000D03*
X70492000Y-114631000D03*
X70567000Y-110956000D03*
X74567000Y-110956000D03*
X76367000Y-122706000D03*
X80367000Y-122706000D03*
D16*
X188985000Y-57110000D03*
X188985000Y-59910000D03*
X194910000Y-50260000D03*
X194910000Y-53060000D03*
X194635000Y-59910000D03*
X194635000Y-57110000D03*
D17*
X174880000Y-52580000D03*
D18*
X174880000Y-57660000D03*
D19*
X71290000Y-47470000D03*
D20*
X71290000Y-50010000D03*
X71290000Y-52550000D03*
X71290000Y-55090000D03*
D19*
X115062000Y-68580000D03*
D20*
X115062000Y-71120000D03*
D19*
X131840000Y-102590000D03*
D20*
X131840000Y-100050000D03*
X131840000Y-97510000D03*
X131840000Y-94970000D03*
X131840000Y-92430000D03*
X131840000Y-89890000D03*
D19*
X102320000Y-129620000D03*
D20*
X104860000Y-129620000D03*
X107400000Y-129620000D03*
X109940000Y-129620000D03*
X112480000Y-129620000D03*
X115020000Y-129620000D03*
X117560000Y-129620000D03*
D19*
X133550000Y-129670000D03*
D20*
X131010000Y-129670000D03*
X128470000Y-129670000D03*
X125930000Y-129670000D03*
X123390000Y-129670000D03*
D19*
X99060000Y-63754000D03*
D20*
X96520000Y-63754000D03*
X93980000Y-63754000D03*
D19*
X113030000Y-63754000D03*
D20*
X110490000Y-63754000D03*
X107950000Y-63754000D03*
D19*
X146570000Y-95050000D03*
D20*
X144030000Y-95050000D03*
X141490000Y-95050000D03*
D19*
X159310000Y-128320000D03*
D20*
X161850000Y-128320000D03*
X164390000Y-128320000D03*
D19*
X146590000Y-61170000D03*
D20*
X144050000Y-61170000D03*
X141510000Y-61170000D03*
D19*
X159350000Y-94850000D03*
D20*
X161890000Y-94850000D03*
X164430000Y-94850000D03*
D19*
X90690000Y-103210000D03*
D20*
X93230000Y-103210000D03*
X95770000Y-103210000D03*
D19*
X90770000Y-107820000D03*
D20*
X93310000Y-107820000D03*
X95850000Y-107820000D03*
D19*
X90780000Y-96870000D03*
D20*
X93320000Y-96870000D03*
X95860000Y-96870000D03*
D19*
X90750000Y-92510000D03*
D20*
X93290000Y-92510000D03*
X95830000Y-92510000D03*
D21*
X136070000Y-44540000D03*
X136070000Y-39840000D03*
X158965000Y-43910000D03*
X158965000Y-39210000D03*
D22*
X142140000Y-42510000D03*
X142140000Y-44710000D03*
X144040000Y-44700000D03*
X144040000Y-42500000D03*
X165415000Y-42335000D03*
X165415000Y-44535000D03*
X167540000Y-44585000D03*
X167540000Y-42385000D03*
D23*
X121242000Y-71120000D03*
X119042000Y-71120000D03*
D22*
X111760000Y-71712000D03*
X111760000Y-69512000D03*
D23*
X146550000Y-121680000D03*
X148750000Y-121680000D03*
X151046000Y-95250000D03*
X153246000Y-95250000D03*
X146640000Y-89010000D03*
X148840000Y-89010000D03*
X150730000Y-61180000D03*
X152930000Y-61180000D03*
D24*
X141340000Y-50020000D03*
X141340000Y-49070000D03*
X141340000Y-48120000D03*
X144040000Y-48120000D03*
X144040000Y-50020000D03*
X144040000Y-49070000D03*
X162465000Y-50435000D03*
X162465000Y-49485000D03*
X162465000Y-48535000D03*
X165165000Y-48535000D03*
X165165000Y-50435000D03*
X165165000Y-49485000D03*
D25*
X101510000Y-84830000D03*
X101510000Y-84330000D03*
X101510000Y-83830000D03*
X101510000Y-83330000D03*
X101510000Y-82830000D03*
X101510000Y-82330000D03*
X101510000Y-81830000D03*
X101510000Y-81330000D03*
X101510000Y-80830000D03*
X101510000Y-80330000D03*
X101510000Y-79830000D03*
X101510000Y-79330000D03*
X101510000Y-78830000D03*
X101510000Y-78330000D03*
X101510000Y-77830000D03*
X101510000Y-77330000D03*
D26*
X103460000Y-75380000D03*
X103960000Y-75380000D03*
X104460000Y-75380000D03*
X104960000Y-75380000D03*
X105460000Y-75380000D03*
X105960000Y-75380000D03*
X106460000Y-75380000D03*
X106960000Y-75380000D03*
X107460000Y-75380000D03*
X107960000Y-75380000D03*
X108460000Y-75380000D03*
X108960000Y-75380000D03*
X109460000Y-75380000D03*
X109960000Y-75380000D03*
X110460000Y-75380000D03*
X110960000Y-75380000D03*
D25*
X112910000Y-77330000D03*
X112910000Y-77830000D03*
X112910000Y-78330000D03*
X112910000Y-78830000D03*
X112910000Y-79330000D03*
X112910000Y-79830000D03*
X112910000Y-80330000D03*
X112910000Y-80830000D03*
X112910000Y-81330000D03*
X112910000Y-81830000D03*
X112910000Y-82330000D03*
X112910000Y-82830000D03*
X112910000Y-83330000D03*
X112910000Y-83830000D03*
X112910000Y-84330000D03*
X112910000Y-84830000D03*
D26*
X110960000Y-86780000D03*
X110460000Y-86780000D03*
X109960000Y-86780000D03*
X109460000Y-86780000D03*
X108960000Y-86780000D03*
X108460000Y-86780000D03*
X107960000Y-86780000D03*
X107460000Y-86780000D03*
X106960000Y-86780000D03*
X106460000Y-86780000D03*
X105960000Y-86780000D03*
X105460000Y-86780000D03*
X104960000Y-86780000D03*
X104460000Y-86780000D03*
X103960000Y-86780000D03*
X103460000Y-86780000D03*
D27*
X99698000Y-58550000D03*
X99698000Y-57280000D03*
X99698000Y-56010000D03*
X99698000Y-54740000D03*
X99698000Y-53470000D03*
X99698000Y-52200000D03*
X99698000Y-50930000D03*
X106048000Y-50930000D03*
X106048000Y-52200000D03*
X106048000Y-54740000D03*
X106048000Y-56010000D03*
X106048000Y-57280000D03*
X106048000Y-58550000D03*
X106048000Y-53470000D03*
X113538000Y-58420000D03*
X113538000Y-57150000D03*
X113538000Y-55880000D03*
X113538000Y-54610000D03*
X113538000Y-53340000D03*
X113538000Y-52070000D03*
X113538000Y-50800000D03*
X119888000Y-50800000D03*
X119888000Y-52070000D03*
X119888000Y-54610000D03*
X119888000Y-55880000D03*
X119888000Y-57150000D03*
X119888000Y-58420000D03*
X119888000Y-53340000D03*
X109452000Y-105090000D03*
X109452000Y-106360000D03*
X109452000Y-107630000D03*
X109452000Y-108900000D03*
X109452000Y-110170000D03*
X109452000Y-111440000D03*
X109452000Y-112710000D03*
X103102000Y-112710000D03*
X103102000Y-111440000D03*
X103102000Y-108900000D03*
X103102000Y-107630000D03*
X103102000Y-106360000D03*
X103102000Y-105090000D03*
X103102000Y-110170000D03*
X125092000Y-105540000D03*
X125092000Y-106810000D03*
X125092000Y-108080000D03*
X125092000Y-109350000D03*
X125092000Y-110620000D03*
X125092000Y-111890000D03*
X125092000Y-113160000D03*
X118742000Y-113160000D03*
X118742000Y-111890000D03*
X118742000Y-109350000D03*
X118742000Y-108080000D03*
X118742000Y-106810000D03*
X118742000Y-105540000D03*
X118742000Y-110620000D03*
D28*
X138940000Y-99110000D03*
X141480000Y-99110000D03*
X144020000Y-99110000D03*
X146560000Y-99110000D03*
X149100000Y-99110000D03*
X151640000Y-99110000D03*
X154180000Y-99110000D03*
X156720000Y-99110000D03*
X159260000Y-99110000D03*
X161800000Y-99110000D03*
X164340000Y-99110000D03*
X166880000Y-99110000D03*
X169420000Y-99110000D03*
X171960000Y-99110000D03*
X174500000Y-99110000D03*
X174500000Y-124510000D03*
X171960000Y-124510000D03*
X169420000Y-124510000D03*
X166880000Y-124510000D03*
X164340000Y-124510000D03*
X161800000Y-124510000D03*
X159260000Y-124510000D03*
X156720000Y-124510000D03*
X154180000Y-124510000D03*
X151640000Y-124510000D03*
X149100000Y-124510000D03*
X146560000Y-124510000D03*
X144020000Y-124510000D03*
X141480000Y-124510000D03*
X138940000Y-124510000D03*
X139010000Y-65610000D03*
X141550000Y-65610000D03*
X144090000Y-65610000D03*
X146630000Y-65610000D03*
X149170000Y-65610000D03*
X151710000Y-65610000D03*
X154250000Y-65610000D03*
X156790000Y-65610000D03*
X159330000Y-65610000D03*
X161870000Y-65610000D03*
X164410000Y-65610000D03*
X166950000Y-65610000D03*
X169490000Y-65610000D03*
X172030000Y-65610000D03*
X174570000Y-65610000D03*
X174570000Y-91010000D03*
X172030000Y-91010000D03*
X169490000Y-91010000D03*
X166950000Y-91010000D03*
X164410000Y-91010000D03*
X161870000Y-91010000D03*
X159330000Y-91010000D03*
X156790000Y-91010000D03*
X154250000Y-91010000D03*
X151710000Y-91010000D03*
X149170000Y-91010000D03*
X146630000Y-91010000D03*
X144090000Y-91010000D03*
X141550000Y-91010000D03*
X139010000Y-91010000D03*
D29*
X84185000Y-100195000D03*
X81645000Y-100195000D03*
X80375000Y-100195000D03*
X79105000Y-100195000D03*
X77835000Y-100195000D03*
X76565000Y-100195000D03*
X75295000Y-100195000D03*
X75295000Y-106545000D03*
X76565000Y-106545000D03*
X77835000Y-106545000D03*
X79105000Y-106545000D03*
X80375000Y-106545000D03*
X81645000Y-106545000D03*
X82915000Y-106545000D03*
X84185000Y-106545000D03*
X82915000Y-100195000D03*
X76985000Y-87335000D03*
X79525000Y-87335000D03*
X80795000Y-87335000D03*
X82065000Y-87335000D03*
X83335000Y-87335000D03*
X84605000Y-87335000D03*
X85875000Y-87335000D03*
X85875000Y-80985000D03*
X84605000Y-80985000D03*
X83335000Y-80985000D03*
X82065000Y-80985000D03*
X80795000Y-80985000D03*
X79525000Y-80985000D03*
X78255000Y-80985000D03*
X76985000Y-80985000D03*
X78255000Y-87335000D03*
D16*
X188910000Y-52870000D03*
X188910000Y-50070000D03*
D22*
X109820000Y-69520000D03*
X109820000Y-71720000D03*
D11*
X176240000Y-38960000D03*
D23*
X84320000Y-43470000D03*
X86520000Y-43470000D03*
X101660000Y-43470000D03*
X103860000Y-43470000D03*
X122570000Y-75240000D03*
X120370000Y-75240000D03*
D10*
G36*
X101750000Y-96020000D02*
X101750000Y-94320000D01*
X103450000Y-94320000D01*
X103450000Y-96020000D01*
X101750000Y-96020000D01*
X101750000Y-96020000D01*
G37*
M02*
