G04 #@! TF.FileFunction,Copper,L1,Top,Signal*
%FSLAX46Y46*%
G04 Gerber Fmt 4.6, Leading zero omitted, Abs format (unit mm)*
G04 Created by KiCad (PCBNEW 4.0.6) date 06/30/17 11:01:05*
%MOMM*%
%LPD*%
G01*
G04 APERTURE LIST*
%ADD10C,0.100000*%
%ADD11C,5.000000*%
%ADD12R,0.750000X1.200000*%
%ADD13R,1.200000X0.750000*%
%ADD14R,0.800000X0.800000*%
%ADD15R,3.600000X1.800000*%
%ADD16O,3.600000X1.800000*%
%ADD17R,1.700000X1.700000*%
%ADD18O,1.700000X1.700000*%
%ADD19R,3.400000X0.600000*%
%ADD20R,3.000000X9.000000*%
%ADD21R,0.600000X3.400000*%
%ADD22R,9.000000X3.000000*%
%ADD23R,1.200000X0.900000*%
%ADD24C,1.524000*%
%ADD25R,2.400000X3.500000*%
%ADD26R,1.600000X1.000000*%
%ADD27R,2.500000X3.000000*%
%ADD28R,0.900000X1.200000*%
G04 APERTURE END LIST*
D10*
D11*
X71630000Y-40510000D03*
X93980000Y-130050000D03*
X177170000Y-130430000D03*
D12*
X123698000Y-77282000D03*
X123698000Y-79182000D03*
X123698000Y-83500000D03*
X123698000Y-81600000D03*
D13*
X127340000Y-66710000D03*
X125440000Y-66710000D03*
X125450000Y-75240000D03*
X127350000Y-75240000D03*
X106746000Y-77978000D03*
X108646000Y-77978000D03*
X106746000Y-80518000D03*
X108646000Y-80518000D03*
X106746000Y-83058000D03*
X108646000Y-83058000D03*
X106746000Y-85598000D03*
X108646000Y-85598000D03*
D14*
X91180000Y-82800000D03*
X92780000Y-82800000D03*
X138950000Y-101600000D03*
X138950000Y-103200000D03*
X141490000Y-120890000D03*
X141490000Y-119290000D03*
X139010000Y-68270000D03*
X139010000Y-69870000D03*
X141540000Y-87900000D03*
X141540000Y-86300000D03*
D15*
X174880000Y-52580000D03*
D16*
X174880000Y-57660000D03*
D17*
X71290000Y-47470000D03*
D18*
X71290000Y-50010000D03*
X71290000Y-52550000D03*
X71290000Y-55090000D03*
D17*
X115062000Y-68580000D03*
D18*
X115062000Y-71120000D03*
D17*
X131840000Y-102590000D03*
D18*
X131840000Y-100050000D03*
X131840000Y-97510000D03*
X131840000Y-94970000D03*
X131840000Y-92430000D03*
X131840000Y-89890000D03*
D17*
X102320000Y-129620000D03*
D18*
X104860000Y-129620000D03*
X107400000Y-129620000D03*
X109940000Y-129620000D03*
X112480000Y-129620000D03*
X115020000Y-129620000D03*
X117560000Y-129620000D03*
D17*
X133550000Y-129670000D03*
D18*
X131010000Y-129670000D03*
X128470000Y-129670000D03*
X125930000Y-129670000D03*
X123390000Y-129670000D03*
D17*
X99060000Y-63754000D03*
D18*
X96520000Y-63754000D03*
X93980000Y-63754000D03*
D17*
X113030000Y-63754000D03*
D18*
X110490000Y-63754000D03*
X107950000Y-63754000D03*
D17*
X146570000Y-95050000D03*
D18*
X144030000Y-95050000D03*
X141490000Y-95050000D03*
D17*
X159310000Y-128320000D03*
D18*
X161850000Y-128320000D03*
X164390000Y-128320000D03*
D19*
X176530000Y-107565000D03*
X176530000Y-108835000D03*
X176530000Y-110105000D03*
X176530000Y-111375000D03*
X176530000Y-112645000D03*
X176530000Y-113915000D03*
X176530000Y-115185000D03*
X176530000Y-116455000D03*
D20*
X160530000Y-112010000D03*
D17*
X146590000Y-61170000D03*
D18*
X144050000Y-61170000D03*
X141510000Y-61170000D03*
D17*
X159350000Y-94850000D03*
D18*
X161890000Y-94850000D03*
X164430000Y-94850000D03*
D19*
X177530000Y-73255000D03*
X177530000Y-74525000D03*
X177530000Y-75795000D03*
X177530000Y-77065000D03*
X177530000Y-78335000D03*
X177530000Y-79605000D03*
X177530000Y-80875000D03*
X177530000Y-82145000D03*
D20*
X161530000Y-77700000D03*
D21*
X119255000Y-39240000D03*
X120525000Y-39240000D03*
X121795000Y-39240000D03*
X123065000Y-39240000D03*
X124335000Y-39240000D03*
X125605000Y-39240000D03*
X126875000Y-39240000D03*
X128145000Y-39240000D03*
D22*
X123700000Y-55240000D03*
D21*
X80515000Y-39500000D03*
X81785000Y-39500000D03*
X83055000Y-39500000D03*
X84325000Y-39500000D03*
X85595000Y-39500000D03*
X86865000Y-39500000D03*
X88135000Y-39500000D03*
X89405000Y-39500000D03*
D22*
X84960000Y-55500000D03*
D21*
X137925000Y-39240000D03*
X139195000Y-39240000D03*
X140465000Y-39240000D03*
X141735000Y-39240000D03*
X143005000Y-39240000D03*
X144275000Y-39240000D03*
X145545000Y-39240000D03*
X146815000Y-39240000D03*
D22*
X142370000Y-55240000D03*
D19*
X69690000Y-130295000D03*
X69690000Y-129025000D03*
X69690000Y-127755000D03*
X69690000Y-126485000D03*
X69690000Y-125215000D03*
X69690000Y-123945000D03*
X69690000Y-122675000D03*
X69690000Y-121405000D03*
D20*
X85690000Y-125850000D03*
D19*
X69780000Y-92695000D03*
X69780000Y-91425000D03*
X69780000Y-90155000D03*
X69780000Y-88885000D03*
X69780000Y-87615000D03*
X69780000Y-86345000D03*
X69780000Y-85075000D03*
X69780000Y-83805000D03*
D20*
X85780000Y-88250000D03*
D21*
X100075000Y-39240000D03*
X101345000Y-39240000D03*
X102615000Y-39240000D03*
X103885000Y-39240000D03*
X105155000Y-39240000D03*
X106425000Y-39240000D03*
X107695000Y-39240000D03*
X108965000Y-39240000D03*
D22*
X104520000Y-55240000D03*
D21*
X157535000Y-39380000D03*
X158805000Y-39380000D03*
X160075000Y-39380000D03*
X161345000Y-39380000D03*
X162615000Y-39380000D03*
X163885000Y-39380000D03*
X165155000Y-39380000D03*
X166425000Y-39380000D03*
D22*
X161980000Y-55380000D03*
D19*
X69780000Y-110735000D03*
X69780000Y-109465000D03*
X69780000Y-108195000D03*
X69780000Y-106925000D03*
X69780000Y-105655000D03*
X69780000Y-104385000D03*
X69780000Y-103115000D03*
X69780000Y-101845000D03*
D20*
X85780000Y-106290000D03*
D19*
X69690000Y-73615000D03*
X69690000Y-72345000D03*
X69690000Y-71075000D03*
X69690000Y-69805000D03*
X69690000Y-68535000D03*
X69690000Y-67265000D03*
X69690000Y-65995000D03*
X69690000Y-64725000D03*
D20*
X85690000Y-69170000D03*
D17*
X90690000Y-103210000D03*
D18*
X93230000Y-103210000D03*
X95770000Y-103210000D03*
D17*
X90770000Y-107820000D03*
D18*
X93310000Y-107820000D03*
X95850000Y-107820000D03*
D17*
X90780000Y-96870000D03*
D18*
X93320000Y-96870000D03*
X95860000Y-96870000D03*
D17*
X90750000Y-92510000D03*
D18*
X93290000Y-92510000D03*
X95830000Y-92510000D03*
D23*
X98330000Y-82790000D03*
X96130000Y-82790000D03*
X128780000Y-125350000D03*
X130980000Y-125350000D03*
X122200000Y-124460000D03*
X124400000Y-124460000D03*
D24*
X138940000Y-99110000D03*
X141480000Y-99110000D03*
X144020000Y-99110000D03*
X146560000Y-99110000D03*
X149100000Y-99110000D03*
X151640000Y-99110000D03*
X154180000Y-99110000D03*
X156720000Y-99110000D03*
X159260000Y-99110000D03*
X161800000Y-99110000D03*
X164340000Y-99110000D03*
X166880000Y-99110000D03*
X169420000Y-99110000D03*
X171960000Y-99110000D03*
X174500000Y-99110000D03*
X174500000Y-124510000D03*
X171960000Y-124510000D03*
X169420000Y-124510000D03*
X166880000Y-124510000D03*
X164340000Y-124510000D03*
X161800000Y-124510000D03*
X159260000Y-124510000D03*
X156720000Y-124510000D03*
X154180000Y-124510000D03*
X151640000Y-124510000D03*
X149100000Y-124510000D03*
X146560000Y-124510000D03*
X144020000Y-124510000D03*
X141480000Y-124510000D03*
X138940000Y-124510000D03*
X139010000Y-65610000D03*
X141550000Y-65610000D03*
X144090000Y-65610000D03*
X146630000Y-65610000D03*
X149170000Y-65610000D03*
X151710000Y-65610000D03*
X154250000Y-65610000D03*
X156790000Y-65610000D03*
X159330000Y-65610000D03*
X161870000Y-65610000D03*
X164410000Y-65610000D03*
X166950000Y-65610000D03*
X169490000Y-65610000D03*
X172030000Y-65610000D03*
X174570000Y-65610000D03*
X174570000Y-91010000D03*
X172030000Y-91010000D03*
X169490000Y-91010000D03*
X166950000Y-91010000D03*
X164410000Y-91010000D03*
X161870000Y-91010000D03*
X159330000Y-91010000D03*
X156790000Y-91010000D03*
X154250000Y-91010000D03*
X151710000Y-91010000D03*
X149170000Y-91010000D03*
X146630000Y-91010000D03*
X144090000Y-91010000D03*
X141550000Y-91010000D03*
X139010000Y-91010000D03*
D25*
X119380000Y-83372000D03*
X119380000Y-78172000D03*
D26*
X127353333Y-70260000D03*
X127353333Y-72800000D03*
D27*
X120803333Y-71530000D03*
D28*
X141460000Y-116860000D03*
X141460000Y-114660000D03*
X139000000Y-72610000D03*
X139000000Y-74810000D03*
X141550000Y-83740000D03*
X141550000Y-81540000D03*
X138930000Y-105320000D03*
X138930000Y-107520000D03*
D11*
X176240000Y-38960000D03*
D10*
G36*
X101750000Y-96020000D02*
X101750000Y-94320000D01*
X103450000Y-94320000D01*
X103450000Y-96020000D01*
X101750000Y-96020000D01*
X101750000Y-96020000D01*
G37*
M02*
